<?xml version="1.0" encoding="utf-8"?>
<svg xmlns="http://www.w3.org/2000/svg" xmlns:xlink="http://www.w3.org/1999/xlink" width="480" height="384" viewBox="0 0 1920 1536">
<defs>
  <clipPath id="clip210">
    <rect x="0" y="0" width="1920" height="1536"/>
  </clipPath>
</defs>
<path clip-path="url(#clip210)" d="M0 1536 L1920 1536 L1920 0 L0 0  Z" fill="#ffffff" fill-rule="evenodd" fill-opacity="1"/>
<defs>
  <clipPath id="clip211">
    <rect x="180" y="135" width="1694" height="1209"/>
  </clipPath>
</defs>
<path clip-path="url(#clip210)" d="M254.246 1343.4 L1872.76 1343.4 L1872.76 135.568 L254.246 135.568  Z" fill="#ffffff" fill-rule="evenodd" fill-opacity="1"/>
<defs>
  <clipPath id="clip212">
    <rect x="254" y="135" width="1620" height="1209"/>
  </clipPath>
</defs>
<polyline clip-path="url(#clip212)" style="stroke:#000000; stroke-linecap:round; stroke-linejoin:round; stroke-width:2; stroke-opacity:0.1; fill:none" points="298.865,1343.4 298.865,135.568 "/>
<polyline clip-path="url(#clip212)" style="stroke:#000000; stroke-linecap:round; stroke-linejoin:round; stroke-width:2; stroke-opacity:0.1; fill:none" points="648.456,1343.4 648.456,135.568 "/>
<polyline clip-path="url(#clip212)" style="stroke:#000000; stroke-linecap:round; stroke-linejoin:round; stroke-width:2; stroke-opacity:0.1; fill:none" points="998.047,1343.4 998.047,135.568 "/>
<polyline clip-path="url(#clip212)" style="stroke:#000000; stroke-linecap:round; stroke-linejoin:round; stroke-width:2; stroke-opacity:0.1; fill:none" points="1347.64,1343.4 1347.64,135.568 "/>
<polyline clip-path="url(#clip212)" style="stroke:#000000; stroke-linecap:round; stroke-linejoin:round; stroke-width:2; stroke-opacity:0.1; fill:none" points="1697.23,1343.4 1697.23,135.568 "/>
<polyline clip-path="url(#clip212)" style="stroke:#000000; stroke-linecap:round; stroke-linejoin:round; stroke-width:2; stroke-opacity:0.1; fill:none" points="254.246,1310.11 1872.76,1310.11 "/>
<polyline clip-path="url(#clip212)" style="stroke:#000000; stroke-linecap:round; stroke-linejoin:round; stroke-width:2; stroke-opacity:0.1; fill:none" points="254.246,1049.22 1872.76,1049.22 "/>
<polyline clip-path="url(#clip212)" style="stroke:#000000; stroke-linecap:round; stroke-linejoin:round; stroke-width:2; stroke-opacity:0.1; fill:none" points="254.246,788.332 1872.76,788.332 "/>
<polyline clip-path="url(#clip212)" style="stroke:#000000; stroke-linecap:round; stroke-linejoin:round; stroke-width:2; stroke-opacity:0.1; fill:none" points="254.246,527.445 1872.76,527.445 "/>
<polyline clip-path="url(#clip212)" style="stroke:#000000; stroke-linecap:round; stroke-linejoin:round; stroke-width:2; stroke-opacity:0.1; fill:none" points="254.246,266.558 1872.76,266.558 "/>
<polyline clip-path="url(#clip210)" style="stroke:#000000; stroke-linecap:round; stroke-linejoin:round; stroke-width:4; stroke-opacity:1; fill:none" points="254.246,1343.4 1872.76,1343.4 "/>
<polyline clip-path="url(#clip210)" style="stroke:#000000; stroke-linecap:round; stroke-linejoin:round; stroke-width:4; stroke-opacity:1; fill:none" points="298.865,1343.4 298.865,1324.51 "/>
<polyline clip-path="url(#clip210)" style="stroke:#000000; stroke-linecap:round; stroke-linejoin:round; stroke-width:4; stroke-opacity:1; fill:none" points="648.456,1343.4 648.456,1324.51 "/>
<polyline clip-path="url(#clip210)" style="stroke:#000000; stroke-linecap:round; stroke-linejoin:round; stroke-width:4; stroke-opacity:1; fill:none" points="998.047,1343.4 998.047,1324.51 "/>
<polyline clip-path="url(#clip210)" style="stroke:#000000; stroke-linecap:round; stroke-linejoin:round; stroke-width:4; stroke-opacity:1; fill:none" points="1347.64,1343.4 1347.64,1324.51 "/>
<polyline clip-path="url(#clip210)" style="stroke:#000000; stroke-linecap:round; stroke-linejoin:round; stroke-width:4; stroke-opacity:1; fill:none" points="1697.23,1343.4 1697.23,1324.51 "/>
<path clip-path="url(#clip210)" d="M261.169 1370.48 Q257.558 1370.48 255.729 1374.05 Q253.923 1377.59 253.923 1384.72 Q253.923 1391.83 255.729 1395.39 Q257.558 1398.93 261.169 1398.93 Q264.803 1398.93 266.609 1395.39 Q268.437 1391.83 268.437 1384.72 Q268.437 1377.59 266.609 1374.05 Q264.803 1370.48 261.169 1370.48 M261.169 1366.78 Q266.979 1366.78 270.034 1371.39 Q273.113 1375.97 273.113 1384.72 Q273.113 1393.45 270.034 1398.05 Q266.979 1402.64 261.169 1402.64 Q255.359 1402.64 252.28 1398.05 Q249.224 1393.45 249.224 1384.72 Q249.224 1375.97 252.28 1371.39 Q255.359 1366.78 261.169 1366.78 Z" fill="#000000" fill-rule="nonzero" fill-opacity="1" /><path clip-path="url(#clip210)" d="M281.331 1396.08 L286.215 1396.08 L286.215 1401.96 L281.331 1401.96 L281.331 1396.08 Z" fill="#000000" fill-rule="nonzero" fill-opacity="1" /><path clip-path="url(#clip210)" d="M306.4 1370.48 Q302.789 1370.48 300.96 1374.05 Q299.155 1377.59 299.155 1384.72 Q299.155 1391.83 300.96 1395.39 Q302.789 1398.93 306.4 1398.93 Q310.034 1398.93 311.84 1395.39 Q313.669 1391.83 313.669 1384.72 Q313.669 1377.59 311.84 1374.05 Q310.034 1370.48 306.4 1370.48 M306.4 1366.78 Q312.21 1366.78 315.266 1371.39 Q318.344 1375.97 318.344 1384.72 Q318.344 1393.45 315.266 1398.05 Q312.21 1402.64 306.4 1402.64 Q300.59 1402.64 297.511 1398.05 Q294.456 1393.45 294.456 1384.72 Q294.456 1375.97 297.511 1371.39 Q300.59 1366.78 306.4 1366.78 Z" fill="#000000" fill-rule="nonzero" fill-opacity="1" /><path clip-path="url(#clip210)" d="M336.562 1370.48 Q332.951 1370.48 331.122 1374.05 Q329.317 1377.59 329.317 1384.72 Q329.317 1391.83 331.122 1395.39 Q332.951 1398.93 336.562 1398.93 Q340.196 1398.93 342.002 1395.39 Q343.83 1391.83 343.83 1384.72 Q343.83 1377.59 342.002 1374.05 Q340.196 1370.48 336.562 1370.48 M336.562 1366.78 Q342.372 1366.78 345.428 1371.39 Q348.506 1375.97 348.506 1384.72 Q348.506 1393.45 345.428 1398.05 Q342.372 1402.64 336.562 1402.64 Q330.752 1402.64 327.673 1398.05 Q324.618 1393.45 324.618 1384.72 Q324.618 1375.97 327.673 1371.39 Q330.752 1366.78 336.562 1366.78 Z" fill="#000000" fill-rule="nonzero" fill-opacity="1" /><path clip-path="url(#clip210)" d="M611.257 1370.48 Q607.646 1370.48 605.817 1374.05 Q604.012 1377.59 604.012 1384.72 Q604.012 1391.83 605.817 1395.39 Q607.646 1398.93 611.257 1398.93 Q614.891 1398.93 616.697 1395.39 Q618.526 1391.83 618.526 1384.72 Q618.526 1377.59 616.697 1374.05 Q614.891 1370.48 611.257 1370.48 M611.257 1366.78 Q617.067 1366.78 620.123 1371.39 Q623.202 1375.97 623.202 1384.72 Q623.202 1393.45 620.123 1398.05 Q617.067 1402.64 611.257 1402.64 Q605.447 1402.64 602.368 1398.05 Q599.313 1393.45 599.313 1384.72 Q599.313 1375.97 602.368 1371.39 Q605.447 1366.78 611.257 1366.78 Z" fill="#000000" fill-rule="nonzero" fill-opacity="1" /><path clip-path="url(#clip210)" d="M631.419 1396.08 L636.303 1396.08 L636.303 1401.96 L631.419 1401.96 L631.419 1396.08 Z" fill="#000000" fill-rule="nonzero" fill-opacity="1" /><path clip-path="url(#clip210)" d="M650.516 1398.03 L666.836 1398.03 L666.836 1401.96 L644.891 1401.96 L644.891 1398.03 Q647.553 1395.27 652.137 1390.64 Q656.743 1385.99 657.924 1384.65 Q660.169 1382.13 661.049 1380.39 Q661.951 1378.63 661.951 1376.94 Q661.951 1374.19 660.007 1372.45 Q658.086 1370.71 654.984 1370.71 Q652.785 1370.71 650.331 1371.48 Q647.9 1372.24 645.123 1373.79 L645.123 1369.07 Q647.947 1367.94 650.4 1367.36 Q652.854 1366.78 654.891 1366.78 Q660.262 1366.78 663.456 1369.46 Q666.65 1372.15 666.65 1376.64 Q666.65 1378.77 665.84 1380.69 Q665.053 1382.59 662.947 1385.18 Q662.368 1385.85 659.266 1389.07 Q656.164 1392.26 650.516 1398.03 Z" fill="#000000" fill-rule="nonzero" fill-opacity="1" /><path clip-path="url(#clip210)" d="M676.697 1367.4 L695.053 1367.4 L695.053 1371.34 L680.979 1371.34 L680.979 1379.81 Q681.997 1379.46 683.016 1379.3 Q684.035 1379.12 685.053 1379.12 Q690.84 1379.12 694.22 1382.29 Q697.599 1385.46 697.599 1390.88 Q697.599 1396.45 694.127 1399.56 Q690.655 1402.64 684.335 1402.64 Q682.16 1402.64 679.891 1402.26 Q677.646 1401.89 675.238 1401.15 L675.238 1396.45 Q677.322 1397.59 679.544 1398.14 Q681.766 1398.7 684.243 1398.7 Q688.247 1398.7 690.585 1396.59 Q692.923 1394.49 692.923 1390.88 Q692.923 1387.26 690.585 1385.16 Q688.247 1383.05 684.243 1383.05 Q682.368 1383.05 680.493 1383.47 Q678.641 1383.89 676.697 1384.76 L676.697 1367.4 Z" fill="#000000" fill-rule="nonzero" fill-opacity="1" /><path clip-path="url(#clip210)" d="M960.35 1370.48 Q956.739 1370.48 954.91 1374.05 Q953.105 1377.59 953.105 1384.72 Q953.105 1391.83 954.91 1395.39 Q956.739 1398.93 960.35 1398.93 Q963.984 1398.93 965.79 1395.39 Q967.619 1391.83 967.619 1384.72 Q967.619 1377.59 965.79 1374.05 Q963.984 1370.48 960.35 1370.48 M960.35 1366.78 Q966.16 1366.78 969.216 1371.39 Q972.294 1375.97 972.294 1384.72 Q972.294 1393.45 969.216 1398.05 Q966.16 1402.64 960.35 1402.64 Q954.54 1402.64 951.461 1398.05 Q948.406 1393.45 948.406 1384.72 Q948.406 1375.97 951.461 1371.39 Q954.54 1366.78 960.35 1366.78 Z" fill="#000000" fill-rule="nonzero" fill-opacity="1" /><path clip-path="url(#clip210)" d="M980.512 1396.08 L985.396 1396.08 L985.396 1401.96 L980.512 1401.96 L980.512 1396.08 Z" fill="#000000" fill-rule="nonzero" fill-opacity="1" /><path clip-path="url(#clip210)" d="M995.628 1367.4 L1013.98 1367.4 L1013.98 1371.34 L999.91 1371.34 L999.91 1379.81 Q1000.93 1379.46 1001.95 1379.3 Q1002.97 1379.12 1003.98 1379.12 Q1009.77 1379.12 1013.15 1382.29 Q1016.53 1385.46 1016.53 1390.88 Q1016.53 1396.45 1013.06 1399.56 Q1009.59 1402.64 1003.27 1402.64 Q1001.09 1402.64 998.822 1402.26 Q996.577 1401.89 994.169 1401.15 L994.169 1396.45 Q996.253 1397.59 998.475 1398.14 Q1000.7 1398.7 1003.17 1398.7 Q1007.18 1398.7 1009.52 1396.59 Q1011.85 1394.49 1011.85 1390.88 Q1011.85 1387.26 1009.52 1385.16 Q1007.18 1383.05 1003.17 1383.05 Q1001.3 1383.05 999.424 1383.47 Q997.572 1383.89 995.628 1384.76 L995.628 1367.4 Z" fill="#000000" fill-rule="nonzero" fill-opacity="1" /><path clip-path="url(#clip210)" d="M1035.74 1370.48 Q1032.13 1370.48 1030.3 1374.05 Q1028.5 1377.59 1028.5 1384.72 Q1028.5 1391.83 1030.3 1395.39 Q1032.13 1398.93 1035.74 1398.93 Q1039.38 1398.93 1041.18 1395.39 Q1043.01 1391.83 1043.01 1384.72 Q1043.01 1377.59 1041.18 1374.05 Q1039.38 1370.48 1035.74 1370.48 M1035.74 1366.78 Q1041.55 1366.78 1044.61 1371.39 Q1047.69 1375.97 1047.69 1384.72 Q1047.69 1393.45 1044.61 1398.05 Q1041.55 1402.64 1035.74 1402.64 Q1029.93 1402.64 1026.85 1398.05 Q1023.8 1393.45 1023.8 1384.72 Q1023.8 1375.97 1026.85 1371.39 Q1029.93 1366.78 1035.74 1366.78 Z" fill="#000000" fill-rule="nonzero" fill-opacity="1" /><path clip-path="url(#clip210)" d="M1310.44 1370.48 Q1306.83 1370.48 1305 1374.05 Q1303.19 1377.59 1303.19 1384.72 Q1303.19 1391.83 1305 1395.39 Q1306.83 1398.93 1310.44 1398.93 Q1314.07 1398.93 1315.88 1395.39 Q1317.71 1391.83 1317.71 1384.72 Q1317.71 1377.59 1315.88 1374.05 Q1314.07 1370.48 1310.44 1370.48 M1310.44 1366.78 Q1316.25 1366.78 1319.3 1371.39 Q1322.38 1375.97 1322.38 1384.72 Q1322.38 1393.45 1319.3 1398.05 Q1316.25 1402.64 1310.44 1402.64 Q1304.63 1402.64 1301.55 1398.05 Q1298.49 1393.45 1298.49 1384.72 Q1298.49 1375.97 1301.55 1371.39 Q1304.63 1366.78 1310.44 1366.78 Z" fill="#000000" fill-rule="nonzero" fill-opacity="1" /><path clip-path="url(#clip210)" d="M1330.6 1396.08 L1335.48 1396.08 L1335.48 1401.96 L1330.6 1401.96 L1330.6 1396.08 Z" fill="#000000" fill-rule="nonzero" fill-opacity="1" /><path clip-path="url(#clip210)" d="M1344.49 1367.4 L1366.71 1367.4 L1366.71 1369.39 L1354.17 1401.96 L1349.28 1401.96 L1361.09 1371.34 L1344.49 1371.34 L1344.49 1367.4 Z" fill="#000000" fill-rule="nonzero" fill-opacity="1" /><path clip-path="url(#clip210)" d="M1375.88 1367.4 L1394.23 1367.4 L1394.23 1371.34 L1380.16 1371.34 L1380.16 1379.81 Q1381.18 1379.46 1382.2 1379.3 Q1383.22 1379.12 1384.23 1379.12 Q1390.02 1379.12 1393.4 1382.29 Q1396.78 1385.46 1396.78 1390.88 Q1396.78 1396.45 1393.31 1399.56 Q1389.84 1402.64 1383.52 1402.64 Q1381.34 1402.64 1379.07 1402.26 Q1376.83 1401.89 1374.42 1401.15 L1374.42 1396.45 Q1376.5 1397.59 1378.73 1398.14 Q1380.95 1398.7 1383.42 1398.7 Q1387.43 1398.7 1389.77 1396.59 Q1392.1 1394.49 1392.1 1390.88 Q1392.1 1387.26 1389.77 1385.16 Q1387.43 1383.05 1383.42 1383.05 Q1381.55 1383.05 1379.67 1383.47 Q1377.82 1383.89 1375.88 1384.76 L1375.88 1367.4 Z" fill="#000000" fill-rule="nonzero" fill-opacity="1" /><path clip-path="url(#clip210)" d="M1649.3 1398.03 L1656.94 1398.03 L1656.94 1371.66 L1648.63 1373.33 L1648.63 1369.07 L1656.89 1367.4 L1661.57 1367.4 L1661.57 1398.03 L1669.21 1398.03 L1669.21 1401.96 L1649.3 1401.96 L1649.3 1398.03 Z" fill="#000000" fill-rule="nonzero" fill-opacity="1" /><path clip-path="url(#clip210)" d="M1678.65 1396.08 L1683.54 1396.08 L1683.54 1401.96 L1678.65 1401.96 L1678.65 1396.08 Z" fill="#000000" fill-rule="nonzero" fill-opacity="1" /><path clip-path="url(#clip210)" d="M1703.72 1370.48 Q1700.11 1370.48 1698.28 1374.05 Q1696.48 1377.59 1696.48 1384.72 Q1696.48 1391.83 1698.28 1395.39 Q1700.11 1398.93 1703.72 1398.93 Q1707.36 1398.93 1709.16 1395.39 Q1710.99 1391.83 1710.99 1384.72 Q1710.99 1377.59 1709.16 1374.05 Q1707.36 1370.48 1703.72 1370.48 M1703.72 1366.78 Q1709.53 1366.78 1712.59 1371.39 Q1715.67 1375.97 1715.67 1384.72 Q1715.67 1393.45 1712.59 1398.05 Q1709.53 1402.64 1703.72 1402.64 Q1697.91 1402.64 1694.83 1398.05 Q1691.78 1393.45 1691.78 1384.72 Q1691.78 1375.97 1694.83 1371.39 Q1697.91 1366.78 1703.72 1366.78 Z" fill="#000000" fill-rule="nonzero" fill-opacity="1" /><path clip-path="url(#clip210)" d="M1733.88 1370.48 Q1730.27 1370.48 1728.44 1374.05 Q1726.64 1377.59 1726.64 1384.72 Q1726.64 1391.83 1728.44 1395.39 Q1730.27 1398.93 1733.88 1398.93 Q1737.52 1398.93 1739.32 1395.39 Q1741.15 1391.83 1741.15 1384.72 Q1741.15 1377.59 1739.32 1374.05 Q1737.52 1370.48 1733.88 1370.48 M1733.88 1366.78 Q1739.69 1366.78 1742.75 1371.39 Q1745.83 1375.97 1745.83 1384.72 Q1745.83 1393.45 1742.75 1398.05 Q1739.69 1402.64 1733.88 1402.64 Q1728.07 1402.64 1724.99 1398.05 Q1721.94 1393.45 1721.94 1384.72 Q1721.94 1375.97 1724.99 1371.39 Q1728.07 1366.78 1733.88 1366.78 Z" fill="#000000" fill-rule="nonzero" fill-opacity="1" /><path clip-path="url(#clip210)" d="M634.691 1433.55 L674.89 1433.55 L674.89 1438.96 L658.021 1438.96 L658.021 1481.07 L651.56 1481.07 L651.56 1438.96 L634.691 1438.96 L634.691 1433.55 Z" fill="#000000" fill-rule="nonzero" fill-opacity="1" /><path clip-path="url(#clip210)" d="M711.334 1461.78 L711.334 1464.64 L684.407 1464.64 Q684.789 1470.69 688.036 1473.87 Q691.314 1477.03 697.139 1477.03 Q700.512 1477.03 703.663 1476.2 Q706.846 1475.37 709.966 1473.72 L709.966 1479.25 Q706.815 1480.59 703.504 1481.29 Q700.194 1481.99 696.789 1481.99 Q688.258 1481.99 683.261 1477.03 Q678.296 1472.06 678.296 1463.59 Q678.296 1454.84 683.007 1449.72 Q687.749 1444.56 695.77 1444.56 Q702.963 1444.56 707.133 1449.21 Q711.334 1453.82 711.334 1461.78 M705.478 1460.06 Q705.414 1455.25 702.772 1452.39 Q700.162 1449.53 695.834 1449.53 Q690.932 1449.53 687.972 1452.29 Q685.044 1455.06 684.598 1460.09 L705.478 1460.06 Z" fill="#000000" fill-rule="nonzero" fill-opacity="1" /><path clip-path="url(#clip210)" d="M734.76 1449.53 Q730.049 1449.53 727.312 1453.22 Q724.575 1456.88 724.575 1463.28 Q724.575 1469.67 727.28 1473.37 Q730.018 1477.03 734.76 1477.03 Q739.439 1477.03 742.176 1473.33 Q744.913 1469.64 744.913 1463.28 Q744.913 1456.94 742.176 1453.25 Q739.439 1449.53 734.76 1449.53 M734.76 1444.56 Q742.399 1444.56 746.759 1449.53 Q751.12 1454.49 751.12 1463.28 Q751.12 1472.03 746.759 1477.03 Q742.399 1481.99 734.76 1481.99 Q727.089 1481.99 722.729 1477.03 Q718.4 1472.03 718.4 1463.28 Q718.4 1454.49 722.729 1449.53 Q727.089 1444.56 734.76 1444.56 Z" fill="#000000" fill-rule="nonzero" fill-opacity="1" /><path clip-path="url(#clip210)" d="M766.493 1475.72 L766.493 1494.63 L760.605 1494.63 L760.605 1445.42 L766.493 1445.42 L766.493 1450.83 Q768.339 1447.65 771.14 1446.12 Q773.973 1444.56 777.888 1444.56 Q784.381 1444.56 788.423 1449.72 Q792.497 1454.87 792.497 1463.28 Q792.497 1471.68 788.423 1476.83 Q784.381 1481.99 777.888 1481.99 Q773.973 1481.99 771.14 1480.46 Q768.339 1478.9 766.493 1475.72 M786.418 1463.28 Q786.418 1456.81 783.744 1453.15 Q781.102 1449.46 776.455 1449.46 Q771.808 1449.46 769.135 1453.15 Q766.493 1456.81 766.493 1463.28 Q766.493 1469.74 769.135 1473.43 Q771.808 1477.09 776.455 1477.09 Q781.102 1477.09 783.744 1473.43 Q786.418 1469.74 786.418 1463.28 Z" fill="#000000" fill-rule="nonzero" fill-opacity="1" /><path clip-path="url(#clip210)" d="M832.696 1461.78 L832.696 1464.64 L805.769 1464.64 Q806.151 1470.69 809.398 1473.87 Q812.676 1477.03 818.501 1477.03 Q821.875 1477.03 825.026 1476.2 Q828.209 1475.37 831.328 1473.72 L831.328 1479.25 Q828.177 1480.59 824.867 1481.29 Q821.556 1481.99 818.151 1481.99 Q809.621 1481.99 804.624 1477.03 Q799.658 1472.06 799.658 1463.59 Q799.658 1454.84 804.369 1449.72 Q809.111 1444.56 817.132 1444.56 Q824.325 1444.56 828.495 1449.21 Q832.696 1453.82 832.696 1461.78 M826.84 1460.06 Q826.776 1455.25 824.134 1452.39 Q821.525 1449.53 817.196 1449.53 Q812.294 1449.53 809.334 1452.29 Q806.406 1455.06 805.96 1460.09 L826.84 1460.06 Z" fill="#000000" fill-rule="nonzero" fill-opacity="1" /><path clip-path="url(#clip210)" d="M838.075 1445.42 L872.227 1445.42 L872.227 1450.1 L858.032 1450.1 L858.032 1481.07 L852.271 1481.07 L852.271 1450.1 L838.075 1450.1 L838.075 1445.42 Z" fill="#000000" fill-rule="nonzero" fill-opacity="1" /><path clip-path="url(#clip210)" d="M910.581 1445.42 L910.581 1481.07 L904.756 1481.07 L904.756 1452.45 L887.569 1481.07 L880.057 1481.07 L880.057 1445.42 L885.882 1445.42 L885.882 1473.97 L903.037 1445.42 L910.581 1445.42 Z" fill="#000000" fill-rule="nonzero" fill-opacity="1" /><path clip-path="url(#clip210)" d="M943.237 1481.07 L943.237 1466.08 L932.32 1466.08 Q927.45 1466.08 924.203 1463.05 Q921.275 1460.32 921.275 1454.46 L921.275 1445.42 L927.132 1445.42 L927.132 1453.92 Q927.132 1457.64 928.787 1459.52 Q930.474 1461.4 933.784 1461.4 L943.237 1461.4 L943.237 1445.42 L949.093 1445.42 L949.093 1481.07 L943.237 1481.07 Z" fill="#000000" fill-rule="nonzero" fill-opacity="1" /><path clip-path="url(#clip210)" d="M991.648 1461.78 L991.648 1464.64 L964.721 1464.64 Q965.103 1470.69 968.35 1473.87 Q971.628 1477.03 977.453 1477.03 Q980.826 1477.03 983.977 1476.2 Q987.16 1475.37 990.279 1473.72 L990.279 1479.25 Q987.128 1480.59 983.818 1481.29 Q980.508 1481.99 977.102 1481.99 Q968.572 1481.99 963.575 1477.03 Q958.61 1472.06 958.61 1463.59 Q958.61 1454.84 963.321 1449.72 Q968.063 1444.56 976.084 1444.56 Q983.277 1444.56 987.447 1449.21 Q991.648 1453.82 991.648 1461.78 M985.792 1460.06 Q985.728 1455.25 983.086 1452.39 Q980.476 1449.53 976.148 1449.53 Q971.246 1449.53 968.286 1452.29 Q965.358 1455.06 964.912 1460.09 L985.792 1460.06 Z" fill="#000000" fill-rule="nonzero" fill-opacity="1" /><path clip-path="url(#clip210)" d="M1026.91 1446.79 L1026.91 1452.26 Q1024.43 1450.89 1021.92 1450.23 Q1019.43 1449.53 1016.89 1449.53 Q1011.19 1449.53 1008.04 1453.15 Q1004.89 1456.75 1004.89 1463.28 Q1004.89 1469.8 1008.04 1473.43 Q1011.19 1477.03 1016.89 1477.03 Q1019.43 1477.03 1021.92 1476.36 Q1024.43 1475.66 1026.91 1474.29 L1026.91 1479.7 Q1024.46 1480.85 1021.82 1481.42 Q1019.21 1481.99 1016.25 1481.99 Q1008.2 1481.99 1003.46 1476.93 Q998.714 1471.87 998.714 1463.28 Q998.714 1454.55 1003.49 1449.56 Q1008.29 1444.56 1016.63 1444.56 Q1019.34 1444.56 1021.92 1445.13 Q1024.5 1445.67 1026.91 1446.79 Z" fill="#000000" fill-rule="nonzero" fill-opacity="1" /><path clip-path="url(#clip210)" d="M1036.88 1445.42 L1042.7 1445.42 L1042.7 1462.16 L1059.22 1445.42 L1066.41 1445.42 L1052.79 1459.2 L1068.16 1481.07 L1061.61 1481.07 L1048.97 1463.08 L1042.7 1469.45 L1042.7 1481.07 L1036.88 1481.07 L1036.88 1445.42 Z" fill="#000000" fill-rule="nonzero" fill-opacity="1" /><path clip-path="url(#clip210)" d="M1106.77 1445.42 L1106.77 1481.07 L1100.95 1481.07 L1100.95 1452.45 L1083.76 1481.07 L1076.25 1481.07 L1076.25 1445.42 L1082.07 1445.42 L1082.07 1473.97 L1099.23 1445.42 L1106.77 1445.42 Z" fill="#000000" fill-rule="nonzero" fill-opacity="1" /><path clip-path="url(#clip210)" d="M1149.33 1461.78 L1149.33 1464.64 L1122.4 1464.64 Q1122.78 1470.69 1126.03 1473.87 Q1129.31 1477.03 1135.13 1477.03 Q1138.5 1477.03 1141.66 1476.2 Q1144.84 1475.37 1147.96 1473.72 L1147.96 1479.25 Q1144.81 1480.59 1141.5 1481.29 Q1138.19 1481.99 1134.78 1481.99 Q1126.25 1481.99 1121.25 1477.03 Q1116.29 1472.06 1116.29 1463.59 Q1116.29 1454.84 1121 1449.72 Q1125.74 1444.56 1133.76 1444.56 Q1140.96 1444.56 1145.13 1449.21 Q1149.33 1453.82 1149.33 1461.78 M1143.47 1460.06 Q1143.41 1455.25 1140.76 1452.39 Q1138.15 1449.53 1133.83 1449.53 Q1128.92 1449.53 1125.96 1452.29 Q1123.04 1455.06 1122.59 1460.09 L1143.47 1460.06 Z" fill="#000000" fill-rule="nonzero" fill-opacity="1" /><path clip-path="url(#clip210)" d="M1179.44 1445.42 L1185.26 1445.42 L1185.26 1462.16 L1201.78 1445.42 L1208.97 1445.42 L1195.35 1459.2 L1210.72 1481.07 L1204.17 1481.07 L1191.53 1463.08 L1185.26 1469.45 L1185.26 1481.07 L1179.44 1481.07 L1179.44 1445.42 Z" fill="#000000" fill-rule="nonzero" fill-opacity="1" /><path clip-path="url(#clip210)" d="M1224.66 1464.64 L1224.66 1476.39 L1233 1476.39 Q1237.01 1476.39 1239.11 1474.89 Q1241.22 1473.37 1241.22 1470.5 Q1241.22 1467.64 1239.11 1466.14 Q1237.01 1464.64 1233 1464.64 L1224.66 1464.64 M1224.66 1450.1 L1224.66 1459.97 L1232.37 1459.97 Q1235.68 1459.97 1237.78 1458.66 Q1239.88 1457.32 1239.88 1454.97 Q1239.88 1452.61 1237.78 1451.37 Q1235.68 1450.1 1232.37 1450.1 L1224.66 1450.1 M1218.81 1445.42 L1232.75 1445.42 Q1239.02 1445.42 1242.39 1447.71 Q1245.77 1450 1245.77 1454.24 Q1245.77 1457.51 1244.05 1459.46 Q1242.33 1461.37 1238.96 1461.84 Q1243 1462.61 1245.23 1465.03 Q1247.45 1467.45 1247.45 1471.07 Q1247.45 1475.85 1243.76 1478.46 Q1240.1 1481.07 1233.29 1481.07 L1218.81 1481.07 L1218.81 1445.42 Z" fill="#000000" fill-rule="nonzero" fill-opacity="1" /><path clip-path="url(#clip210)" d="M1273.65 1463.15 Q1266.55 1463.15 1263.81 1464.77 Q1261.08 1466.39 1261.08 1470.31 Q1261.08 1473.43 1263.11 1475.28 Q1265.18 1477.09 1268.72 1477.09 Q1273.59 1477.09 1276.51 1473.65 Q1279.47 1470.18 1279.47 1464.45 L1279.47 1463.15 L1273.65 1463.15 M1285.33 1460.73 L1285.33 1481.07 L1279.47 1481.07 L1279.47 1475.66 Q1277.47 1478.9 1274.48 1480.46 Q1271.48 1481.99 1267.16 1481.99 Q1261.68 1481.99 1258.43 1478.94 Q1255.22 1475.85 1255.22 1470.69 Q1255.22 1464.68 1259.23 1461.62 Q1263.27 1458.57 1271.26 1458.57 L1279.47 1458.57 L1279.47 1457.99 Q1279.47 1453.95 1276.8 1451.75 Q1274.16 1449.53 1269.35 1449.53 Q1266.3 1449.53 1263.4 1450.26 Q1260.5 1450.99 1257.83 1452.45 L1257.83 1447.04 Q1261.04 1445.8 1264.07 1445.2 Q1267.09 1444.56 1269.96 1444.56 Q1277.69 1444.56 1281.51 1448.57 Q1285.33 1452.58 1285.33 1460.73 Z" fill="#000000" fill-rule="nonzero" fill-opacity="1" /><path clip-path="url(#clip210)" d="M1297.17 1445.42 L1303.06 1445.42 L1303.06 1459.97 L1322.06 1459.97 L1322.06 1445.42 L1327.95 1445.42 L1327.95 1481.07 L1322.06 1481.07 L1322.06 1464.64 L1303.06 1464.64 L1303.06 1481.07 L1297.17 1481.07 L1297.17 1445.42 Z" fill="#000000" fill-rule="nonzero" fill-opacity="1" /><path clip-path="url(#clip210)" d="M1335.78 1445.42 L1369.93 1445.42 L1369.93 1450.1 L1355.73 1450.1 L1355.73 1481.07 L1349.97 1481.07 L1349.97 1450.1 L1335.78 1450.1 L1335.78 1445.42 Z" fill="#000000" fill-rule="nonzero" fill-opacity="1" /><path clip-path="url(#clip210)" d="M1408.28 1445.42 L1408.28 1481.07 L1402.46 1481.07 L1402.46 1452.45 L1385.27 1481.07 L1377.76 1481.07 L1377.76 1445.42 L1383.58 1445.42 L1383.58 1473.97 L1400.74 1445.42 L1408.28 1445.42 Z" fill="#000000" fill-rule="nonzero" fill-opacity="1" /><path clip-path="url(#clip210)" d="M1416.62 1481.07 L1416.62 1476.2 Q1422.42 1475.31 1424.2 1471.3 Q1426.36 1465.66 1426.36 1451.24 L1426.36 1445.42 L1450.46 1445.42 L1450.46 1481.07 L1444.6 1481.07 L1444.6 1450.1 L1432.22 1450.1 L1432.22 1453.63 Q1432.22 1467.38 1429.42 1473.56 Q1426.43 1480.14 1416.62 1481.07 Z" fill="#000000" fill-rule="nonzero" fill-opacity="1" /><path clip-path="url(#clip210)" d="M1492.31 1445.42 L1492.31 1481.07 L1486.49 1481.07 L1486.49 1452.45 L1469.3 1481.07 L1461.79 1481.07 L1461.79 1445.42 L1467.61 1445.42 L1467.61 1473.97 L1484.77 1445.42 L1492.31 1445.42 Z" fill="#000000" fill-rule="nonzero" fill-opacity="1" /><polyline clip-path="url(#clip210)" style="stroke:#000000; stroke-linecap:round; stroke-linejoin:round; stroke-width:4; stroke-opacity:1; fill:none" points="254.246,1343.4 254.246,135.568 "/>
<polyline clip-path="url(#clip210)" style="stroke:#000000; stroke-linecap:round; stroke-linejoin:round; stroke-width:4; stroke-opacity:1; fill:none" points="254.246,1310.11 273.144,1310.11 "/>
<polyline clip-path="url(#clip210)" style="stroke:#000000; stroke-linecap:round; stroke-linejoin:round; stroke-width:4; stroke-opacity:1; fill:none" points="254.246,1049.22 273.144,1049.22 "/>
<polyline clip-path="url(#clip210)" style="stroke:#000000; stroke-linecap:round; stroke-linejoin:round; stroke-width:4; stroke-opacity:1; fill:none" points="254.246,788.332 273.144,788.332 "/>
<polyline clip-path="url(#clip210)" style="stroke:#000000; stroke-linecap:round; stroke-linejoin:round; stroke-width:4; stroke-opacity:1; fill:none" points="254.246,527.445 273.144,527.445 "/>
<polyline clip-path="url(#clip210)" style="stroke:#000000; stroke-linecap:round; stroke-linejoin:round; stroke-width:4; stroke-opacity:1; fill:none" points="254.246,266.558 273.144,266.558 "/>
<path clip-path="url(#clip210)" d="M138.109 1295.9 Q134.497 1295.9 132.669 1299.47 Q130.863 1303.01 130.863 1310.14 Q130.863 1317.25 132.669 1320.81 Q134.497 1324.35 138.109 1324.35 Q141.743 1324.35 143.548 1320.81 Q145.377 1317.25 145.377 1310.14 Q145.377 1303.01 143.548 1299.47 Q141.743 1295.9 138.109 1295.9 M138.109 1292.2 Q143.919 1292.2 146.974 1296.81 Q150.053 1301.39 150.053 1310.14 Q150.053 1318.87 146.974 1323.47 Q143.919 1328.06 138.109 1328.06 Q132.298 1328.06 129.22 1323.47 Q126.164 1318.87 126.164 1310.14 Q126.164 1301.39 129.22 1296.81 Q132.298 1292.2 138.109 1292.2 Z" fill="#000000" fill-rule="nonzero" fill-opacity="1" /><path clip-path="url(#clip210)" d="M158.27 1321.51 L163.155 1321.51 L163.155 1327.39 L158.27 1327.39 L158.27 1321.51 Z" fill="#000000" fill-rule="nonzero" fill-opacity="1" /><path clip-path="url(#clip210)" d="M183.34 1295.9 Q179.729 1295.9 177.9 1299.47 Q176.094 1303.01 176.094 1310.14 Q176.094 1317.25 177.9 1320.81 Q179.729 1324.35 183.34 1324.35 Q186.974 1324.35 188.78 1320.81 Q190.608 1317.25 190.608 1310.14 Q190.608 1303.01 188.78 1299.47 Q186.974 1295.9 183.34 1295.9 M183.34 1292.2 Q189.15 1292.2 192.205 1296.81 Q195.284 1301.39 195.284 1310.14 Q195.284 1318.87 192.205 1323.47 Q189.15 1328.06 183.34 1328.06 Q177.53 1328.06 174.451 1323.47 Q171.395 1318.87 171.395 1310.14 Q171.395 1301.39 174.451 1296.81 Q177.53 1292.2 183.34 1292.2 Z" fill="#000000" fill-rule="nonzero" fill-opacity="1" /><path clip-path="url(#clip210)" d="M213.502 1295.9 Q209.891 1295.9 208.062 1299.47 Q206.256 1303.01 206.256 1310.14 Q206.256 1317.25 208.062 1320.81 Q209.891 1324.35 213.502 1324.35 Q217.136 1324.35 218.941 1320.81 Q220.77 1317.25 220.77 1310.14 Q220.77 1303.01 218.941 1299.47 Q217.136 1295.9 213.502 1295.9 M213.502 1292.2 Q219.312 1292.2 222.367 1296.81 Q225.446 1301.39 225.446 1310.14 Q225.446 1318.87 222.367 1323.47 Q219.312 1328.06 213.502 1328.06 Q207.691 1328.06 204.613 1323.47 Q201.557 1318.87 201.557 1310.14 Q201.557 1301.39 204.613 1296.81 Q207.691 1292.2 213.502 1292.2 Z" fill="#000000" fill-rule="nonzero" fill-opacity="1" /><path clip-path="url(#clip210)" d="M139.104 1035.02 Q135.493 1035.02 133.664 1038.58 Q131.859 1042.12 131.859 1049.25 Q131.859 1056.36 133.664 1059.93 Q135.493 1063.47 139.104 1063.47 Q142.738 1063.47 144.544 1059.93 Q146.372 1056.36 146.372 1049.25 Q146.372 1042.12 144.544 1038.58 Q142.738 1035.02 139.104 1035.02 M139.104 1031.31 Q144.914 1031.31 147.97 1035.92 Q151.048 1040.5 151.048 1049.25 Q151.048 1057.98 147.97 1062.59 Q144.914 1067.17 139.104 1067.17 Q133.294 1067.17 130.215 1062.59 Q127.16 1057.98 127.16 1049.25 Q127.16 1040.5 130.215 1035.92 Q133.294 1031.31 139.104 1031.31 Z" fill="#000000" fill-rule="nonzero" fill-opacity="1" /><path clip-path="url(#clip210)" d="M159.266 1060.62 L164.15 1060.62 L164.15 1066.5 L159.266 1066.5 L159.266 1060.62 Z" fill="#000000" fill-rule="nonzero" fill-opacity="1" /><path clip-path="url(#clip210)" d="M178.363 1062.56 L194.682 1062.56 L194.682 1066.5 L172.738 1066.5 L172.738 1062.56 Q175.4 1059.81 179.983 1055.18 Q184.59 1050.53 185.77 1049.18 Q188.016 1046.66 188.895 1044.93 Q189.798 1043.17 189.798 1041.48 Q189.798 1038.72 187.854 1036.99 Q185.932 1035.25 182.831 1035.25 Q180.631 1035.25 178.178 1036.01 Q175.747 1036.78 172.969 1038.33 L172.969 1033.61 Q175.794 1032.47 178.247 1031.89 Q180.701 1031.31 182.738 1031.31 Q188.108 1031.31 191.303 1034 Q194.497 1036.68 194.497 1041.18 Q194.497 1043.3 193.687 1045.23 Q192.9 1047.12 190.793 1049.72 Q190.215 1050.39 187.113 1053.61 Q184.011 1056.8 178.363 1062.56 Z" fill="#000000" fill-rule="nonzero" fill-opacity="1" /><path clip-path="url(#clip210)" d="M204.543 1031.94 L222.9 1031.94 L222.9 1035.87 L208.826 1035.87 L208.826 1044.35 Q209.844 1044 210.863 1043.84 Q211.881 1043.65 212.9 1043.65 Q218.687 1043.65 222.066 1046.82 Q225.446 1049.99 225.446 1055.41 Q225.446 1060.99 221.974 1064.09 Q218.502 1067.17 212.182 1067.17 Q210.006 1067.17 207.738 1066.8 Q205.492 1066.43 203.085 1065.69 L203.085 1060.99 Q205.168 1062.12 207.391 1062.68 Q209.613 1063.24 212.09 1063.24 Q216.094 1063.24 218.432 1061.13 Q220.77 1059.02 220.77 1055.41 Q220.77 1051.8 218.432 1049.69 Q216.094 1047.59 212.09 1047.59 Q210.215 1047.59 208.34 1048 Q206.488 1048.42 204.543 1049.3 L204.543 1031.94 Z" fill="#000000" fill-rule="nonzero" fill-opacity="1" /><path clip-path="url(#clip210)" d="M138.109 774.131 Q134.497 774.131 132.669 777.696 Q130.863 781.237 130.863 788.367 Q130.863 795.473 132.669 799.038 Q134.497 802.58 138.109 802.58 Q141.743 802.58 143.548 799.038 Q145.377 795.473 145.377 788.367 Q145.377 781.237 143.548 777.696 Q141.743 774.131 138.109 774.131 M138.109 770.427 Q143.919 770.427 146.974 775.034 Q150.053 779.617 150.053 788.367 Q150.053 797.094 146.974 801.7 Q143.919 806.283 138.109 806.283 Q132.298 806.283 129.22 801.7 Q126.164 797.094 126.164 788.367 Q126.164 779.617 129.22 775.034 Q132.298 770.427 138.109 770.427 Z" fill="#000000" fill-rule="nonzero" fill-opacity="1" /><path clip-path="url(#clip210)" d="M158.27 799.733 L163.155 799.733 L163.155 805.612 L158.27 805.612 L158.27 799.733 Z" fill="#000000" fill-rule="nonzero" fill-opacity="1" /><path clip-path="url(#clip210)" d="M173.386 771.052 L191.743 771.052 L191.743 774.987 L177.669 774.987 L177.669 783.46 Q178.687 783.112 179.706 782.95 Q180.724 782.765 181.743 782.765 Q187.53 782.765 190.909 785.936 Q194.289 789.108 194.289 794.524 Q194.289 800.103 190.817 803.205 Q187.344 806.283 181.025 806.283 Q178.849 806.283 176.581 805.913 Q174.335 805.543 171.928 804.802 L171.928 800.103 Q174.011 801.237 176.233 801.793 Q178.456 802.348 180.932 802.348 Q184.937 802.348 187.275 800.242 Q189.613 798.135 189.613 794.524 Q189.613 790.913 187.275 788.807 Q184.937 786.7 180.932 786.7 Q179.057 786.7 177.182 787.117 Q175.331 787.534 173.386 788.413 L173.386 771.052 Z" fill="#000000" fill-rule="nonzero" fill-opacity="1" /><path clip-path="url(#clip210)" d="M213.502 774.131 Q209.891 774.131 208.062 777.696 Q206.256 781.237 206.256 788.367 Q206.256 795.473 208.062 799.038 Q209.891 802.58 213.502 802.58 Q217.136 802.58 218.941 799.038 Q220.77 795.473 220.77 788.367 Q220.77 781.237 218.941 777.696 Q217.136 774.131 213.502 774.131 M213.502 770.427 Q219.312 770.427 222.367 775.034 Q225.446 779.617 225.446 788.367 Q225.446 797.094 222.367 801.7 Q219.312 806.283 213.502 806.283 Q207.691 806.283 204.613 801.7 Q201.557 797.094 201.557 788.367 Q201.557 779.617 204.613 775.034 Q207.691 770.427 213.502 770.427 Z" fill="#000000" fill-rule="nonzero" fill-opacity="1" /><path clip-path="url(#clip210)" d="M139.104 513.244 Q135.493 513.244 133.664 516.809 Q131.859 520.35 131.859 527.48 Q131.859 534.586 133.664 538.151 Q135.493 541.693 139.104 541.693 Q142.738 541.693 144.544 538.151 Q146.372 534.586 146.372 527.48 Q146.372 520.35 144.544 516.809 Q142.738 513.244 139.104 513.244 M139.104 509.54 Q144.914 509.54 147.97 514.147 Q151.048 518.73 151.048 527.48 Q151.048 536.207 147.97 540.813 Q144.914 545.397 139.104 545.397 Q133.294 545.397 130.215 540.813 Q127.16 536.207 127.16 527.48 Q127.16 518.73 130.215 514.147 Q133.294 509.54 139.104 509.54 Z" fill="#000000" fill-rule="nonzero" fill-opacity="1" /><path clip-path="url(#clip210)" d="M159.266 538.846 L164.15 538.846 L164.15 544.725 L159.266 544.725 L159.266 538.846 Z" fill="#000000" fill-rule="nonzero" fill-opacity="1" /><path clip-path="url(#clip210)" d="M173.155 510.165 L195.377 510.165 L195.377 512.156 L182.831 544.725 L177.946 544.725 L189.752 514.1 L173.155 514.1 L173.155 510.165 Z" fill="#000000" fill-rule="nonzero" fill-opacity="1" /><path clip-path="url(#clip210)" d="M204.543 510.165 L222.9 510.165 L222.9 514.1 L208.826 514.1 L208.826 522.573 Q209.844 522.225 210.863 522.063 Q211.881 521.878 212.9 521.878 Q218.687 521.878 222.066 525.049 Q225.446 528.221 225.446 533.637 Q225.446 539.216 221.974 542.318 Q218.502 545.397 212.182 545.397 Q210.006 545.397 207.738 545.026 Q205.492 544.656 203.085 543.915 L203.085 539.216 Q205.168 540.35 207.391 540.906 Q209.613 541.461 212.09 541.461 Q216.094 541.461 218.432 539.355 Q220.77 537.248 220.77 533.637 Q220.77 530.026 218.432 527.92 Q216.094 525.813 212.09 525.813 Q210.215 525.813 208.34 526.23 Q206.488 526.647 204.543 527.526 L204.543 510.165 Z" fill="#000000" fill-rule="nonzero" fill-opacity="1" /><path clip-path="url(#clip210)" d="M128.919 279.903 L136.558 279.903 L136.558 253.538 L128.247 255.204 L128.247 250.945 L136.511 249.278 L141.187 249.278 L141.187 279.903 L148.826 279.903 L148.826 283.838 L128.919 283.838 L128.919 279.903 Z" fill="#000000" fill-rule="nonzero" fill-opacity="1" /><path clip-path="url(#clip210)" d="M158.27 277.959 L163.155 277.959 L163.155 283.838 L158.27 283.838 L158.27 277.959 Z" fill="#000000" fill-rule="nonzero" fill-opacity="1" /><path clip-path="url(#clip210)" d="M183.34 252.357 Q179.729 252.357 177.9 255.922 Q176.094 259.463 176.094 266.593 Q176.094 273.699 177.9 277.264 Q179.729 280.806 183.34 280.806 Q186.974 280.806 188.78 277.264 Q190.608 273.699 190.608 266.593 Q190.608 259.463 188.78 255.922 Q186.974 252.357 183.34 252.357 M183.34 248.653 Q189.15 248.653 192.205 253.26 Q195.284 257.843 195.284 266.593 Q195.284 275.32 192.205 279.926 Q189.15 284.51 183.34 284.51 Q177.53 284.51 174.451 279.926 Q171.395 275.32 171.395 266.593 Q171.395 257.843 174.451 253.26 Q177.53 248.653 183.34 248.653 Z" fill="#000000" fill-rule="nonzero" fill-opacity="1" /><path clip-path="url(#clip210)" d="M213.502 252.357 Q209.891 252.357 208.062 255.922 Q206.256 259.463 206.256 266.593 Q206.256 273.699 208.062 277.264 Q209.891 280.806 213.502 280.806 Q217.136 280.806 218.941 277.264 Q220.77 273.699 220.77 266.593 Q220.77 259.463 218.941 255.922 Q217.136 252.357 213.502 252.357 M213.502 248.653 Q219.312 248.653 222.367 253.26 Q225.446 257.843 225.446 266.593 Q225.446 275.32 222.367 279.926 Q219.312 284.51 213.502 284.51 Q207.691 284.51 204.613 279.926 Q201.557 275.32 201.557 266.593 Q201.557 257.843 204.613 253.26 Q207.691 248.653 213.502 248.653 Z" fill="#000000" fill-rule="nonzero" fill-opacity="1" /><path clip-path="url(#clip210)" d="M72.7321 1157.33 Q78.7476 1150.62 78.7476 1142.47 Q78.7476 1134.06 74.228 1130.28 Q69.7083 1126.49 62.1013 1125.79 L62.1013 1151.19 L56.6905 1151.19 L56.6905 1125.79 Q49.0835 1126.49 44.5638 1130.28 Q40.0123 1134.06 40.0123 1142.47 Q40.0123 1150.62 46.0279 1157.33 L39.2484 1157.33 Q34.7288 1150.71 34.7288 1142.09 Q34.7288 1131.42 41.3491 1125.22 Q47.9376 1119.01 59.3641 1119.01 Q70.8223 1119.01 77.4427 1125.22 Q84.0312 1131.42 84.0312 1142.09 Q84.0312 1150.58 79.4479 1157.33 L72.7321 1157.33 Z" fill="#000000" fill-rule="nonzero" fill-opacity="1" /><path clip-path="url(#clip210)" d="M47.4602 1109.43 L47.4602 1100.87 L71.3316 1090.75 L47.4602 1080.59 L47.4602 1072.09 L83.1082 1072.09 L83.1082 1077.98 L53.062 1077.98 L76.265 1087.82 L76.265 1093.67 L53.062 1103.54 L83.1082 1103.54 L83.1082 1109.43 L47.4602 1109.43 Z" fill="#000000" fill-rule="nonzero" fill-opacity="1" /><path clip-path="url(#clip210)" d="M47.4602 1029.48 L83.1082 1029.48 L83.1082 1035.36 L52.139 1035.36 L52.139 1054.37 L83.1082 1054.37 L83.1082 1060.25 L47.4602 1060.25 L47.4602 1029.48 Z" fill="#000000" fill-rule="nonzero" fill-opacity="1" /><path clip-path="url(#clip210)" d="M47.4602 987.112 L83.1082 987.112 L83.1082 992.937 L54.4943 992.937 L83.1082 1010.12 L83.1082 1017.64 L47.4602 1017.64 L47.4602 1011.81 L76.0104 1011.81 L47.4602 994.655 L47.4602 987.112 Z" fill="#000000" fill-rule="nonzero" fill-opacity="1" /><path clip-path="url(#clip210)" d="M77.761 969.383 L96.6671 969.383 L96.6671 975.272 L47.4602 975.272 L47.4602 969.383 L52.8711 969.383 Q49.6882 967.537 48.1604 964.737 Q46.6008 961.904 46.6008 957.989 Q46.6008 951.496 51.7571 947.454 Q56.9133 943.38 65.316 943.38 Q73.7187 943.38 78.875 947.454 Q84.0312 951.496 84.0312 957.989 Q84.0312 961.904 82.5034 964.737 Q80.9438 967.537 77.761 969.383 M65.316 949.459 Q58.8548 949.459 55.1945 952.132 Q51.5024 954.774 51.5024 959.421 Q51.5024 964.068 55.1945 966.742 Q58.8548 969.383 65.316 969.383 Q71.7772 969.383 75.4693 966.742 Q79.1296 964.068 79.1296 959.421 Q79.1296 954.774 75.4693 952.132 Q71.7772 949.459 65.316 949.459 Z" fill="#000000" fill-rule="nonzero" fill-opacity="1" /><path clip-path="url(#clip210)" d="M47.4602 903.371 L83.1082 903.371 L83.1082 909.196 L54.4943 909.196 L83.1082 926.383 L83.1082 933.895 L47.4602 933.895 L47.4602 928.07 L76.0104 928.07 L47.4602 910.914 L47.4602 903.371 Z" fill="#000000" fill-rule="nonzero" fill-opacity="1" /><path clip-path="url(#clip210)" d="M83.1082 870.715 L68.1169 870.715 L68.1169 881.632 Q68.1169 886.502 65.0932 889.748 Q62.356 892.677 56.4995 892.677 L47.4602 892.677 L47.4602 886.82 L55.9584 886.82 Q59.6824 886.82 61.5602 885.165 Q63.4381 883.478 63.4381 880.168 L63.4381 870.715 L47.4602 870.715 L47.4602 864.859 L83.1082 864.859 L83.1082 870.715 Z" fill="#000000" fill-rule="nonzero" fill-opacity="1" /><path clip-path="url(#clip210)" d="M63.8201 822.304 L66.6846 822.304 L66.6846 849.231 Q72.7321 848.849 75.9149 845.602 Q79.0659 842.324 79.0659 836.499 Q79.0659 833.126 78.2384 829.975 Q77.4109 826.792 75.7558 823.672 L81.2939 823.672 Q82.6307 826.823 83.331 830.134 Q84.0312 833.444 84.0312 836.849 Q84.0312 845.38 79.0659 850.377 Q74.1007 855.342 65.6343 855.342 Q56.8814 855.342 51.7571 850.631 Q46.6008 845.889 46.6008 837.868 Q46.6008 830.675 51.2478 826.505 Q55.8629 822.304 63.8201 822.304 M62.1013 828.16 Q57.2952 828.224 54.4306 830.866 Q51.5661 833.476 51.5661 837.804 Q51.5661 842.706 54.3352 845.666 Q57.1042 848.594 62.1332 849.04 L62.1013 828.16 Z" fill="#000000" fill-rule="nonzero" fill-opacity="1" /><path clip-path="url(#clip210)" d="M48.8288 787.038 L54.3033 787.038 Q52.9347 789.52 52.2663 792.035 Q51.5661 794.518 51.5661 797.064 Q51.5661 802.761 55.1945 805.912 Q58.7912 809.063 65.316 809.063 Q71.8409 809.063 75.4693 805.912 Q79.0659 802.761 79.0659 797.064 Q79.0659 794.518 78.3975 792.035 Q77.6973 789.52 76.3287 787.038 L81.7395 787.038 Q82.8854 789.489 83.4583 792.13 Q84.0312 794.74 84.0312 797.7 Q84.0312 805.753 78.9704 810.495 Q73.9097 815.238 65.316 815.238 Q56.595 815.238 51.5979 810.464 Q46.6008 805.658 46.6008 797.318 Q46.6008 794.613 47.1737 792.035 Q47.7148 789.457 48.8288 787.038 Z" fill="#000000" fill-rule="nonzero" fill-opacity="1" /><path clip-path="url(#clip210)" d="M47.4602 777.075 L47.4602 771.251 L64.202 771.251 L47.4602 754.732 L47.4602 747.539 L61.242 761.161 L83.1082 745.788 L83.1082 752.345 L65.125 764.981 L71.4907 771.251 L83.1082 771.251 L83.1082 777.075 L47.4602 777.075 Z" fill="#000000" fill-rule="nonzero" fill-opacity="1" /><path clip-path="url(#clip210)" d="M47.4602 707.18 L83.1082 707.18 L83.1082 713.005 L54.4943 713.005 L83.1082 730.192 L83.1082 737.704 L47.4602 737.704 L47.4602 731.879 L76.0104 731.879 L47.4602 714.723 L47.4602 707.18 Z" fill="#000000" fill-rule="nonzero" fill-opacity="1" /><path clip-path="url(#clip210)" d="M63.8201 664.625 L66.6846 664.625 L66.6846 691.552 Q72.7321 691.17 75.9149 687.924 Q79.0659 684.645 79.0659 678.821 Q79.0659 675.447 78.2384 672.296 Q77.4109 669.113 75.7558 665.994 L81.2939 665.994 Q82.6307 669.145 83.331 672.455 Q84.0312 675.765 84.0312 679.171 Q84.0312 687.701 79.0659 692.698 Q74.1007 697.663 65.6343 697.663 Q56.8814 697.663 51.7571 692.953 Q46.6008 688.21 46.6008 680.189 Q46.6008 672.996 51.2478 668.827 Q55.8629 664.625 63.8201 664.625 M62.1013 670.482 Q57.2952 670.545 54.4306 673.187 Q51.5661 675.797 51.5661 680.126 Q51.5661 685.027 54.3352 687.987 Q57.1042 690.916 62.1332 691.361 L62.1013 670.482 Z" fill="#000000" fill-rule="nonzero" fill-opacity="1" /><path clip-path="url(#clip210)" d="M47.4602 634.515 L47.4602 628.691 L64.202 628.691 L47.4602 612.172 L47.4602 604.979 L61.242 618.601 L83.1082 603.228 L83.1082 609.785 L65.125 622.421 L71.4907 628.691 L83.1082 628.691 L83.1082 634.515 L47.4602 634.515 Z" fill="#000000" fill-rule="nonzero" fill-opacity="1" /><path clip-path="url(#clip210)" d="M66.6846 589.287 L78.4294 589.287 L78.4294 580.948 Q78.4294 576.938 76.9334 574.837 Q75.4057 572.736 72.5411 572.736 Q69.6765 572.736 68.1806 574.837 Q66.6846 576.938 66.6846 580.948 L66.6846 589.287 M52.139 589.287 L62.0058 589.287 L62.0058 581.585 Q62.0058 578.274 60.7009 576.174 Q59.3641 574.073 57.0088 574.073 Q54.6534 574.073 53.4121 576.174 Q52.139 578.274 52.139 581.585 L52.139 589.287 M47.4602 595.144 L47.4602 581.203 Q47.4602 574.932 49.7519 571.559 Q52.0435 568.185 56.2767 568.185 Q59.555 568.185 61.4966 569.904 Q63.4063 571.622 63.8837 574.996 Q64.6476 570.954 67.0666 568.726 Q69.4855 566.498 73.114 566.498 Q77.8883 566.498 80.4982 570.19 Q83.1082 573.85 83.1082 580.662 L83.1082 595.144 L47.4602 595.144 Z" fill="#000000" fill-rule="nonzero" fill-opacity="1" /><path clip-path="url(#clip210)" d="M65.1887 540.303 Q65.1887 547.401 66.8119 550.138 Q68.4352 552.875 72.3501 552.875 Q75.4693 552.875 77.3154 550.838 Q79.1296 548.769 79.1296 545.236 Q79.1296 540.367 75.6921 537.438 Q72.2228 534.478 66.4937 534.478 L65.1887 534.478 L65.1887 540.303 M62.7697 528.622 L83.1082 528.622 L83.1082 534.478 L77.6973 534.478 Q80.9438 536.484 82.5034 539.475 Q84.0312 542.467 84.0312 546.796 Q84.0312 552.271 80.9756 555.517 Q77.8883 558.732 72.7321 558.732 Q66.7165 558.732 63.6609 554.721 Q60.6054 550.679 60.6054 542.69 L60.6054 534.478 L60.0325 534.478 Q55.9902 534.478 53.7941 537.152 Q51.5661 539.794 51.5661 544.6 Q51.5661 547.655 52.2981 550.552 Q53.0302 553.448 54.4943 556.122 L49.0835 556.122 Q47.8421 552.907 47.2374 549.883 Q46.6008 546.86 46.6008 543.995 Q46.6008 536.261 50.6112 532.441 Q54.6216 528.622 62.7697 528.622 Z" fill="#000000" fill-rule="nonzero" fill-opacity="1" /><path clip-path="url(#clip210)" d="M47.4602 516.782 L47.4602 510.893 L62.0058 510.893 L62.0058 491.892 L47.4602 491.892 L47.4602 486.004 L83.1082 486.004 L83.1082 491.892 L66.6846 491.892 L66.6846 510.893 L83.1082 510.893 L83.1082 516.782 L47.4602 516.782 Z" fill="#000000" fill-rule="nonzero" fill-opacity="1" /><path clip-path="url(#clip210)" d="M47.4602 478.174 L47.4602 444.022 L52.139 444.022 L52.139 458.217 L83.1082 458.217 L83.1082 463.978 L52.139 463.978 L52.139 478.174 L47.4602 478.174 Z" fill="#000000" fill-rule="nonzero" fill-opacity="1" /><path clip-path="url(#clip210)" d="M47.4602 405.668 L83.1082 405.668 L83.1082 411.493 L54.4943 411.493 L83.1082 428.68 L83.1082 436.192 L47.4602 436.192 L47.4602 430.367 L76.0104 430.367 L47.4602 413.212 L47.4602 405.668 Z" fill="#000000" fill-rule="nonzero" fill-opacity="1" /><path clip-path="url(#clip210)" d="M83.1082 397.329 L78.2384 397.329 Q77.3472 391.536 73.3368 389.754 Q67.7031 387.59 53.2848 387.59 L47.4602 387.59 L47.4602 363.496 L83.1082 363.496 L83.1082 369.352 L52.139 369.352 L52.139 381.733 L55.672 381.733 Q69.4219 381.733 75.5966 384.534 Q82.1851 387.526 83.1082 397.329 Z" fill="#000000" fill-rule="nonzero" fill-opacity="1" /><path clip-path="url(#clip210)" d="M47.4602 321.641 L83.1082 321.641 L83.1082 327.466 L54.4943 327.466 L83.1082 344.653 L83.1082 352.165 L47.4602 352.165 L47.4602 346.34 L76.0104 346.34 L47.4602 329.184 L47.4602 321.641 Z" fill="#000000" fill-rule="nonzero" fill-opacity="1" /><path clip-path="url(#clip210)" d="M665.905 17.6457 Q656.993 17.6457 651.727 24.2892 Q646.501 30.9327 646.501 42.3968 Q646.501 53.8203 651.727 60.4638 Q656.993 67.1073 665.905 67.1073 Q674.817 67.1073 680.002 60.4638 Q685.228 53.8203 685.228 42.3968 Q685.228 30.9327 680.002 24.2892 Q674.817 17.6457 665.905 17.6457 M677.369 71.4823 L688.144 83.2704 L678.26 83.2704 L669.307 73.5887 Q667.971 73.6697 667.242 73.7103 Q666.553 73.7508 665.905 73.7508 Q653.144 73.7508 645.488 65.2439 Q637.872 56.6965 637.872 42.3968 Q637.872 28.0566 645.488 19.5497 Q653.144 11.0023 665.905 11.0023 Q678.625 11.0023 686.24 19.5497 Q693.856 28.0566 693.856 42.3968 Q693.856 52.9291 689.603 60.4233 Q685.39 67.9175 677.369 71.4823 Z" fill="#000000" fill-rule="nonzero" fill-opacity="1" /><path clip-path="url(#clip210)" d="M731.205 17.6457 Q722.293 17.6457 717.027 24.2892 Q711.801 30.9327 711.801 42.3968 Q711.801 53.8203 717.027 60.4638 Q722.293 67.1073 731.205 67.1073 Q740.117 67.1073 745.302 60.4638 Q750.528 53.8203 750.528 42.3968 Q750.528 30.9327 745.302 24.2892 Q740.117 17.6457 731.205 17.6457 M742.669 71.4823 L753.445 83.2704 L743.561 83.2704 L734.608 73.5887 Q733.271 73.6697 732.542 73.7103 Q731.853 73.7508 731.205 73.7508 Q718.445 73.7508 710.789 65.2439 Q703.173 56.6965 703.173 42.3968 Q703.173 28.0566 710.789 19.5497 Q718.445 11.0023 731.205 11.0023 Q743.925 11.0023 751.541 19.5497 Q759.157 28.0566 759.157 42.3968 Q759.157 52.9291 754.903 60.4233 Q750.69 67.9175 742.669 71.4823 Z" fill="#000000" fill-rule="nonzero" fill-opacity="1" /><path clip-path="url(#clip210)" d="M770.175 46.5287 L792.009 46.5287 L792.009 53.1722 L770.175 53.1722 L770.175 46.5287 Z" fill="#000000" fill-rule="nonzero" fill-opacity="1" /><path clip-path="url(#clip210)" d="M811.089 65.7705 L811.089 89.8329 L803.595 89.8329 L803.595 27.2059 L811.089 27.2059 L811.089 34.0924 Q813.439 30.0415 817.003 28.0971 Q820.609 26.1121 825.591 26.1121 Q833.855 26.1121 839 32.6746 Q844.185 39.2371 844.185 49.9314 Q844.185 60.6258 839 67.1883 Q833.855 73.7508 825.591 73.7508 Q820.609 73.7508 817.003 71.8063 Q813.439 69.8214 811.089 65.7705 M836.448 49.9314 Q836.448 41.7081 833.045 37.0496 Q829.683 32.3505 823.768 32.3505 Q817.854 32.3505 814.451 37.0496 Q811.089 41.7081 811.089 49.9314 Q811.089 58.1548 814.451 62.8538 Q817.854 67.5124 823.768 67.5124 Q829.683 67.5124 833.045 62.8538 Q836.448 58.1548 836.448 49.9314 Z" fill="#000000" fill-rule="nonzero" fill-opacity="1" /><path clip-path="url(#clip210)" d="M856.54 9.54393 L863.994 9.54393 L863.994 72.576 L856.54 72.576 L856.54 9.54393 Z" fill="#000000" fill-rule="nonzero" fill-opacity="1" /><path clip-path="url(#clip210)" d="M897.171 32.4315 Q891.176 32.4315 887.692 37.1306 Q884.208 41.7891 884.208 49.9314 Q884.208 58.0738 887.651 62.7728 Q891.135 67.4314 897.171 67.4314 Q903.126 67.4314 906.609 62.7323 Q910.093 58.0333 910.093 49.9314 Q910.093 41.8701 906.609 37.1711 Q903.126 32.4315 897.171 32.4315 M897.171 26.1121 Q906.893 26.1121 912.443 32.4315 Q917.992 38.7509 917.992 49.9314 Q917.992 61.0714 912.443 67.4314 Q906.893 73.7508 897.171 73.7508 Q887.408 73.7508 881.858 67.4314 Q876.349 61.0714 876.349 49.9314 Q876.349 38.7509 881.858 32.4315 Q887.408 26.1121 897.171 26.1121 Z" fill="#000000" fill-rule="nonzero" fill-opacity="1" /><path clip-path="url(#clip210)" d="M937.72 14.324 L937.72 27.2059 L953.073 27.2059 L953.073 32.9987 L937.72 32.9987 L937.72 57.6282 Q937.72 63.1779 939.219 64.7578 Q940.759 66.3376 945.417 66.3376 L953.073 66.3376 L953.073 72.576 L945.417 72.576 Q936.789 72.576 933.507 69.3758 Q930.226 66.1351 930.226 57.6282 L930.226 32.9987 L924.757 32.9987 L924.757 27.2059 L930.226 27.2059 L930.226 14.324 L937.72 14.324 Z" fill="#000000" fill-rule="nonzero" fill-opacity="1" /><path clip-path="url(#clip210)" d="M1027.81 27.2059 L1027.81 72.576 L1020.4 72.576 L1020.4 36.1584 L998.524 72.576 L988.964 72.576 L988.964 27.2059 L996.377 27.2059 L996.377 63.5425 L1018.21 27.2059 L1027.81 27.2059 Z" fill="#000000" fill-rule="nonzero" fill-opacity="1" /><path clip-path="url(#clip210)" d="M1042.88 27.2059 L1050.38 27.2059 L1050.38 45.7185 L1074.56 45.7185 L1074.56 27.2059 L1082.05 27.2059 L1082.05 72.576 L1074.56 72.576 L1074.56 51.6733 L1050.38 51.6733 L1050.38 72.576 L1042.88 72.576 L1042.88 27.2059 Z" fill="#000000" fill-rule="nonzero" fill-opacity="1" /><path clip-path="url(#clip210)" d="M1092.02 27.2059 L1135.49 27.2059 L1135.49 33.1607 L1117.42 33.1607 L1117.42 72.576 L1110.09 72.576 L1110.09 33.1607 L1092.02 33.1607 L1092.02 27.2059 Z" fill="#000000" fill-rule="nonzero" fill-opacity="1" /><path clip-path="url(#clip210)" d="M1184.54 48.0275 L1184.54 51.6733 L1150.27 51.6733 Q1150.76 59.3701 1154.89 63.421 Q1159.06 67.4314 1166.47 67.4314 Q1170.77 67.4314 1174.78 66.3781 Q1178.83 65.3249 1182.8 63.2184 L1182.8 70.267 Q1178.79 71.9684 1174.58 72.8596 Q1170.36 73.7508 1166.03 73.7508 Q1155.17 73.7508 1148.81 67.4314 Q1142.49 61.1119 1142.49 50.3365 Q1142.49 39.1965 1148.49 32.6746 Q1154.52 26.1121 1164.73 26.1121 Q1173.89 26.1121 1179.19 32.0264 Q1184.54 37.9003 1184.54 48.0275 M1177.09 45.84 Q1177.01 39.7232 1173.65 36.0774 Q1170.32 32.4315 1164.81 32.4315 Q1158.58 32.4315 1154.81 35.9558 Q1151.08 39.4801 1150.51 45.8805 L1177.09 45.84 Z" fill="#000000" fill-rule="nonzero" fill-opacity="1" /><path clip-path="url(#clip210)" d="M1203.99 65.7705 L1203.99 89.8329 L1196.49 89.8329 L1196.49 27.2059 L1203.99 27.2059 L1203.99 34.0924 Q1206.34 30.0415 1209.9 28.0971 Q1213.51 26.1121 1218.49 26.1121 Q1226.75 26.1121 1231.9 32.6746 Q1237.08 39.2371 1237.08 49.9314 Q1237.08 60.6258 1231.9 67.1883 Q1226.75 73.7508 1218.49 73.7508 Q1213.51 73.7508 1209.9 71.8063 Q1206.34 69.8214 1203.99 65.7705 M1229.34 49.9314 Q1229.34 41.7081 1225.94 37.0496 Q1222.58 32.3505 1216.67 32.3505 Q1210.75 32.3505 1207.35 37.0496 Q1203.99 41.7081 1203.99 49.9314 Q1203.99 58.1548 1207.35 62.8538 Q1210.75 67.5124 1216.67 67.5124 Q1222.58 67.5124 1225.94 62.8538 Q1229.34 58.1548 1229.34 49.9314 Z" fill="#000000" fill-rule="nonzero" fill-opacity="1" /><path clip-path="url(#clip210)" d="M1256.61 51.6733 L1256.61 66.6212 L1267.22 66.6212 Q1272.33 66.6212 1275 64.7172 Q1277.67 62.7728 1277.67 59.127 Q1277.67 55.4812 1275 53.5773 Q1272.33 51.6733 1267.22 51.6733 L1256.61 51.6733 M1256.61 33.1607 L1256.61 45.7185 L1266.41 45.7185 Q1270.62 45.7185 1273.3 44.0576 Q1275.97 42.3563 1275.97 39.3586 Q1275.97 36.3609 1273.3 34.7811 Q1270.62 33.1607 1266.41 33.1607 L1256.61 33.1607 M1249.15 27.2059 L1266.9 27.2059 Q1274.88 27.2059 1279.17 30.1225 Q1283.47 33.0392 1283.47 38.4269 Q1283.47 42.5993 1281.28 45.0704 Q1279.09 47.5009 1274.8 48.1085 Q1279.94 49.0808 1282.78 52.1594 Q1285.61 55.2381 1285.61 59.8562 Q1285.61 65.9325 1280.91 69.2543 Q1276.25 72.576 1267.59 72.576 L1249.15 72.576 L1249.15 27.2059 Z" fill="#000000" fill-rule="nonzero" fill-opacity="1" /><path clip-path="url(#clip210)" d="M1318.95 49.7694 Q1309.92 49.7694 1306.43 51.8354 Q1302.95 53.9013 1302.95 58.8839 Q1302.95 62.8538 1305.54 65.2034 Q1308.18 67.5124 1312.67 67.5124 Q1318.87 67.5124 1322.6 63.1374 Q1326.36 58.7219 1326.36 51.4303 L1326.36 49.7694 L1318.95 49.7694 M1333.82 46.6907 L1333.82 72.576 L1326.36 72.576 L1326.36 65.6895 Q1323.81 69.8214 1320 71.8063 Q1316.2 73.7508 1310.69 73.7508 Q1303.72 73.7508 1299.59 69.8619 Q1295.5 65.9325 1295.5 59.3701 Q1295.5 51.7138 1300.6 47.825 Q1305.75 43.9361 1315.91 43.9361 L1326.36 43.9361 L1326.36 43.2069 Q1326.36 38.0623 1322.96 35.2672 Q1319.6 32.4315 1313.48 32.4315 Q1309.59 32.4315 1305.91 33.3632 Q1302.22 34.295 1298.82 36.1584 L1298.82 29.2718 Q1302.91 27.692 1306.76 26.9223 Q1310.61 26.1121 1314.25 26.1121 Q1324.1 26.1121 1328.96 31.2163 Q1333.82 36.3204 1333.82 46.6907 Z" fill="#000000" fill-rule="nonzero" fill-opacity="1" /><path clip-path="url(#clip210)" d="M1344.43 72.576 L1344.43 66.3781 Q1351.8 65.2439 1354.07 60.1397 Q1356.83 52.9696 1356.83 34.619 L1356.83 27.2059 L1387.49 27.2059 L1387.49 72.576 L1380.04 72.576 L1380.04 33.1607 L1364.28 33.1607 L1364.28 37.6572 Q1364.28 55.1571 1360.72 63.0159 Q1356.91 71.4012 1344.43 72.576 Z" fill="#000000" fill-rule="nonzero" fill-opacity="1" /><path clip-path="url(#clip210)" d="M1419.78 32.4315 Q1413.78 32.4315 1410.3 37.1306 Q1406.82 41.7891 1406.82 49.9314 Q1406.82 58.0738 1410.26 62.7728 Q1413.74 67.4314 1419.78 67.4314 Q1425.73 67.4314 1429.22 62.7323 Q1432.7 58.0333 1432.7 49.9314 Q1432.7 41.8701 1429.22 37.1711 Q1425.73 32.4315 1419.78 32.4315 M1419.78 26.1121 Q1429.5 26.1121 1435.05 32.4315 Q1440.6 38.7509 1440.6 49.9314 Q1440.6 61.0714 1435.05 67.4314 Q1429.5 73.7508 1419.78 73.7508 Q1410.02 73.7508 1404.47 67.4314 Q1398.96 61.0714 1398.96 49.9314 Q1398.96 38.7509 1404.47 32.4315 Q1410.02 26.1121 1419.78 26.1121 Z" fill="#000000" fill-rule="nonzero" fill-opacity="1" /><path clip-path="url(#clip210)" d="M1460.13 51.6733 L1460.13 66.6212 L1470.74 66.6212 Q1475.84 66.6212 1478.52 64.7172 Q1481.19 62.7728 1481.19 59.127 Q1481.19 55.4812 1478.52 53.5773 Q1475.84 51.6733 1470.74 51.6733 L1460.13 51.6733 M1460.13 33.1607 L1460.13 45.7185 L1469.93 45.7185 Q1474.14 45.7185 1476.81 44.0576 Q1479.49 42.3563 1479.49 39.3586 Q1479.49 36.3609 1476.81 34.7811 Q1474.14 33.1607 1469.93 33.1607 L1460.13 33.1607 M1452.67 27.2059 L1470.41 27.2059 Q1478.39 27.2059 1482.69 30.1225 Q1486.98 33.0392 1486.98 38.4269 Q1486.98 42.5993 1484.8 45.0704 Q1482.61 47.5009 1478.31 48.1085 Q1483.46 49.0808 1486.29 52.1594 Q1489.13 55.2381 1489.13 59.8562 Q1489.13 65.9325 1484.43 69.2543 Q1479.77 72.576 1471.1 72.576 L1452.67 72.576 L1452.67 27.2059 Z" fill="#000000" fill-rule="nonzero" fill-opacity="1" /><polyline clip-path="url(#clip212)" style="stroke:#6b9e32; stroke-linecap:round; stroke-linejoin:round; stroke-width:4; stroke-opacity:1; fill:none" points="300.053,1309.22 1826.95,169.752 "/>
<circle clip-path="url(#clip212)" cx="300.053" cy="1307.84" r="14.4" fill="#009af9" fill-rule="evenodd" fill-opacity="1" stroke="#000000" stroke-opacity="1" stroke-width="3.072"/>
<circle clip-path="url(#clip212)" cx="302.443" cy="1305.92" r="14.4" fill="#009af9" fill-rule="evenodd" fill-opacity="1" stroke="#000000" stroke-opacity="1" stroke-width="3.072"/>
<circle clip-path="url(#clip212)" cx="304.854" cy="1303.63" r="14.4" fill="#009af9" fill-rule="evenodd" fill-opacity="1" stroke="#000000" stroke-opacity="1" stroke-width="3.072"/>
<circle clip-path="url(#clip212)" cx="307.286" cy="1301.42" r="14.4" fill="#009af9" fill-rule="evenodd" fill-opacity="1" stroke="#000000" stroke-opacity="1" stroke-width="3.072"/>
<circle clip-path="url(#clip212)" cx="309.74" cy="1298.22" r="14.4" fill="#009af9" fill-rule="evenodd" fill-opacity="1" stroke="#000000" stroke-opacity="1" stroke-width="3.072"/>
<circle clip-path="url(#clip212)" cx="312.215" cy="1294.58" r="14.4" fill="#009af9" fill-rule="evenodd" fill-opacity="1" stroke="#000000" stroke-opacity="1" stroke-width="3.072"/>
<circle clip-path="url(#clip212)" cx="314.712" cy="1292.72" r="14.4" fill="#009af9" fill-rule="evenodd" fill-opacity="1" stroke="#000000" stroke-opacity="1" stroke-width="3.072"/>
<circle clip-path="url(#clip212)" cx="317.231" cy="1288.82" r="14.4" fill="#009af9" fill-rule="evenodd" fill-opacity="1" stroke="#000000" stroke-opacity="1" stroke-width="3.072"/>
<circle clip-path="url(#clip212)" cx="319.774" cy="1284.19" r="14.4" fill="#009af9" fill-rule="evenodd" fill-opacity="1" stroke="#000000" stroke-opacity="1" stroke-width="3.072"/>
<circle clip-path="url(#clip212)" cx="322.34" cy="1281.25" r="14.4" fill="#009af9" fill-rule="evenodd" fill-opacity="1" stroke="#000000" stroke-opacity="1" stroke-width="3.072"/>
<circle clip-path="url(#clip212)" cx="324.929" cy="1279.71" r="14.4" fill="#009af9" fill-rule="evenodd" fill-opacity="1" stroke="#000000" stroke-opacity="1" stroke-width="3.072"/>
<circle clip-path="url(#clip212)" cx="327.543" cy="1277.74" r="14.4" fill="#009af9" fill-rule="evenodd" fill-opacity="1" stroke="#000000" stroke-opacity="1" stroke-width="3.072"/>
<circle clip-path="url(#clip212)" cx="330.181" cy="1275.92" r="14.4" fill="#009af9" fill-rule="evenodd" fill-opacity="1" stroke="#000000" stroke-opacity="1" stroke-width="3.072"/>
<circle clip-path="url(#clip212)" cx="332.845" cy="1273.54" r="14.4" fill="#009af9" fill-rule="evenodd" fill-opacity="1" stroke="#000000" stroke-opacity="1" stroke-width="3.072"/>
<circle clip-path="url(#clip212)" cx="335.534" cy="1270.28" r="14.4" fill="#009af9" fill-rule="evenodd" fill-opacity="1" stroke="#000000" stroke-opacity="1" stroke-width="3.072"/>
<circle clip-path="url(#clip212)" cx="338.249" cy="1269.51" r="14.4" fill="#009af9" fill-rule="evenodd" fill-opacity="1" stroke="#000000" stroke-opacity="1" stroke-width="3.072"/>
<circle clip-path="url(#clip212)" cx="340.991" cy="1269.38" r="14.4" fill="#009af9" fill-rule="evenodd" fill-opacity="1" stroke="#000000" stroke-opacity="1" stroke-width="3.072"/>
<circle clip-path="url(#clip212)" cx="343.76" cy="1268.53" r="14.4" fill="#009af9" fill-rule="evenodd" fill-opacity="1" stroke="#000000" stroke-opacity="1" stroke-width="3.072"/>
<circle clip-path="url(#clip212)" cx="346.557" cy="1266.02" r="14.4" fill="#009af9" fill-rule="evenodd" fill-opacity="1" stroke="#000000" stroke-opacity="1" stroke-width="3.072"/>
<circle clip-path="url(#clip212)" cx="349.382" cy="1263.39" r="14.4" fill="#009af9" fill-rule="evenodd" fill-opacity="1" stroke="#000000" stroke-opacity="1" stroke-width="3.072"/>
<circle clip-path="url(#clip212)" cx="352.236" cy="1261.81" r="14.4" fill="#009af9" fill-rule="evenodd" fill-opacity="1" stroke="#000000" stroke-opacity="1" stroke-width="3.072"/>
<circle clip-path="url(#clip212)" cx="355.119" cy="1258.8" r="14.4" fill="#009af9" fill-rule="evenodd" fill-opacity="1" stroke="#000000" stroke-opacity="1" stroke-width="3.072"/>
<circle clip-path="url(#clip212)" cx="358.032" cy="1258.2" r="14.4" fill="#009af9" fill-rule="evenodd" fill-opacity="1" stroke="#000000" stroke-opacity="1" stroke-width="3.072"/>
<circle clip-path="url(#clip212)" cx="360.976" cy="1256.39" r="14.4" fill="#009af9" fill-rule="evenodd" fill-opacity="1" stroke="#000000" stroke-opacity="1" stroke-width="3.072"/>
<circle clip-path="url(#clip212)" cx="363.952" cy="1253" r="14.4" fill="#009af9" fill-rule="evenodd" fill-opacity="1" stroke="#000000" stroke-opacity="1" stroke-width="3.072"/>
<circle clip-path="url(#clip212)" cx="366.959" cy="1250.76" r="14.4" fill="#009af9" fill-rule="evenodd" fill-opacity="1" stroke="#000000" stroke-opacity="1" stroke-width="3.072"/>
<circle clip-path="url(#clip212)" cx="369.999" cy="1249.26" r="14.4" fill="#009af9" fill-rule="evenodd" fill-opacity="1" stroke="#000000" stroke-opacity="1" stroke-width="3.072"/>
<circle clip-path="url(#clip212)" cx="373.072" cy="1247.03" r="14.4" fill="#009af9" fill-rule="evenodd" fill-opacity="1" stroke="#000000" stroke-opacity="1" stroke-width="3.072"/>
<circle clip-path="url(#clip212)" cx="376.18" cy="1244.45" r="14.4" fill="#009af9" fill-rule="evenodd" fill-opacity="1" stroke="#000000" stroke-opacity="1" stroke-width="3.072"/>
<circle clip-path="url(#clip212)" cx="379.322" cy="1239.47" r="14.4" fill="#009af9" fill-rule="evenodd" fill-opacity="1" stroke="#000000" stroke-opacity="1" stroke-width="3.072"/>
<circle clip-path="url(#clip212)" cx="382.5" cy="1234.34" r="14.4" fill="#009af9" fill-rule="evenodd" fill-opacity="1" stroke="#000000" stroke-opacity="1" stroke-width="3.072"/>
<circle clip-path="url(#clip212)" cx="385.715" cy="1232.03" r="14.4" fill="#009af9" fill-rule="evenodd" fill-opacity="1" stroke="#000000" stroke-opacity="1" stroke-width="3.072"/>
<circle clip-path="url(#clip212)" cx="388.967" cy="1230.88" r="14.4" fill="#009af9" fill-rule="evenodd" fill-opacity="1" stroke="#000000" stroke-opacity="1" stroke-width="3.072"/>
<circle clip-path="url(#clip212)" cx="392.257" cy="1229.63" r="14.4" fill="#009af9" fill-rule="evenodd" fill-opacity="1" stroke="#000000" stroke-opacity="1" stroke-width="3.072"/>
<circle clip-path="url(#clip212)" cx="395.587" cy="1226.76" r="14.4" fill="#009af9" fill-rule="evenodd" fill-opacity="1" stroke="#000000" stroke-opacity="1" stroke-width="3.072"/>
<circle clip-path="url(#clip212)" cx="398.956" cy="1226.53" r="14.4" fill="#009af9" fill-rule="evenodd" fill-opacity="1" stroke="#000000" stroke-opacity="1" stroke-width="3.072"/>
<circle clip-path="url(#clip212)" cx="402.367" cy="1226.26" r="14.4" fill="#009af9" fill-rule="evenodd" fill-opacity="1" stroke="#000000" stroke-opacity="1" stroke-width="3.072"/>
<circle clip-path="url(#clip212)" cx="405.82" cy="1225.27" r="14.4" fill="#009af9" fill-rule="evenodd" fill-opacity="1" stroke="#000000" stroke-opacity="1" stroke-width="3.072"/>
<circle clip-path="url(#clip212)" cx="409.316" cy="1222.52" r="14.4" fill="#009af9" fill-rule="evenodd" fill-opacity="1" stroke="#000000" stroke-opacity="1" stroke-width="3.072"/>
<circle clip-path="url(#clip212)" cx="412.856" cy="1221.87" r="14.4" fill="#009af9" fill-rule="evenodd" fill-opacity="1" stroke="#000000" stroke-opacity="1" stroke-width="3.072"/>
<circle clip-path="url(#clip212)" cx="416.442" cy="1221.22" r="14.4" fill="#009af9" fill-rule="evenodd" fill-opacity="1" stroke="#000000" stroke-opacity="1" stroke-width="3.072"/>
<circle clip-path="url(#clip212)" cx="420.074" cy="1220.15" r="14.4" fill="#009af9" fill-rule="evenodd" fill-opacity="1" stroke="#000000" stroke-opacity="1" stroke-width="3.072"/>
<circle clip-path="url(#clip212)" cx="423.754" cy="1217.54" r="14.4" fill="#009af9" fill-rule="evenodd" fill-opacity="1" stroke="#000000" stroke-opacity="1" stroke-width="3.072"/>
<circle clip-path="url(#clip212)" cx="427.483" cy="1216.49" r="14.4" fill="#009af9" fill-rule="evenodd" fill-opacity="1" stroke="#000000" stroke-opacity="1" stroke-width="3.072"/>
<circle clip-path="url(#clip212)" cx="431.262" cy="1215.87" r="14.4" fill="#009af9" fill-rule="evenodd" fill-opacity="1" stroke="#000000" stroke-opacity="1" stroke-width="3.072"/>
<circle clip-path="url(#clip212)" cx="435.093" cy="1214.88" r="14.4" fill="#009af9" fill-rule="evenodd" fill-opacity="1" stroke="#000000" stroke-opacity="1" stroke-width="3.072"/>
<circle clip-path="url(#clip212)" cx="438.978" cy="1214.51" r="14.4" fill="#009af9" fill-rule="evenodd" fill-opacity="1" stroke="#000000" stroke-opacity="1" stroke-width="3.072"/>
<circle clip-path="url(#clip212)" cx="442.917" cy="1213.24" r="14.4" fill="#009af9" fill-rule="evenodd" fill-opacity="1" stroke="#000000" stroke-opacity="1" stroke-width="3.072"/>
<circle clip-path="url(#clip212)" cx="446.912" cy="1211.36" r="14.4" fill="#009af9" fill-rule="evenodd" fill-opacity="1" stroke="#000000" stroke-opacity="1" stroke-width="3.072"/>
<circle clip-path="url(#clip212)" cx="450.965" cy="1209.66" r="14.4" fill="#009af9" fill-rule="evenodd" fill-opacity="1" stroke="#000000" stroke-opacity="1" stroke-width="3.072"/>
<circle clip-path="url(#clip212)" cx="455.078" cy="1207.82" r="14.4" fill="#009af9" fill-rule="evenodd" fill-opacity="1" stroke="#000000" stroke-opacity="1" stroke-width="3.072"/>
<circle clip-path="url(#clip212)" cx="459.253" cy="1205.36" r="14.4" fill="#009af9" fill-rule="evenodd" fill-opacity="1" stroke="#000000" stroke-opacity="1" stroke-width="3.072"/>
<circle clip-path="url(#clip212)" cx="463.49" cy="1204.96" r="14.4" fill="#009af9" fill-rule="evenodd" fill-opacity="1" stroke="#000000" stroke-opacity="1" stroke-width="3.072"/>
<circle clip-path="url(#clip212)" cx="467.793" cy="1204.17" r="14.4" fill="#009af9" fill-rule="evenodd" fill-opacity="1" stroke="#000000" stroke-opacity="1" stroke-width="3.072"/>
<circle clip-path="url(#clip212)" cx="472.163" cy="1202.14" r="14.4" fill="#009af9" fill-rule="evenodd" fill-opacity="1" stroke="#000000" stroke-opacity="1" stroke-width="3.072"/>
<circle clip-path="url(#clip212)" cx="476.602" cy="1198.38" r="14.4" fill="#009af9" fill-rule="evenodd" fill-opacity="1" stroke="#000000" stroke-opacity="1" stroke-width="3.072"/>
<circle clip-path="url(#clip212)" cx="481.113" cy="1196" r="14.4" fill="#009af9" fill-rule="evenodd" fill-opacity="1" stroke="#000000" stroke-opacity="1" stroke-width="3.072"/>
<circle clip-path="url(#clip212)" cx="485.698" cy="1190.25" r="14.4" fill="#009af9" fill-rule="evenodd" fill-opacity="1" stroke="#000000" stroke-opacity="1" stroke-width="3.072"/>
<circle clip-path="url(#clip212)" cx="490.359" cy="1189.79" r="14.4" fill="#009af9" fill-rule="evenodd" fill-opacity="1" stroke="#000000" stroke-opacity="1" stroke-width="3.072"/>
<circle clip-path="url(#clip212)" cx="495.1" cy="1181.84" r="14.4" fill="#009af9" fill-rule="evenodd" fill-opacity="1" stroke="#000000" stroke-opacity="1" stroke-width="3.072"/>
<circle clip-path="url(#clip212)" cx="499.922" cy="1175.63" r="14.4" fill="#009af9" fill-rule="evenodd" fill-opacity="1" stroke="#000000" stroke-opacity="1" stroke-width="3.072"/>
<circle clip-path="url(#clip212)" cx="504.828" cy="1173.02" r="14.4" fill="#009af9" fill-rule="evenodd" fill-opacity="1" stroke="#000000" stroke-opacity="1" stroke-width="3.072"/>
<circle clip-path="url(#clip212)" cx="509.823" cy="1166.17" r="14.4" fill="#009af9" fill-rule="evenodd" fill-opacity="1" stroke="#000000" stroke-opacity="1" stroke-width="3.072"/>
<circle clip-path="url(#clip212)" cx="514.908" cy="1165.12" r="14.4" fill="#009af9" fill-rule="evenodd" fill-opacity="1" stroke="#000000" stroke-opacity="1" stroke-width="3.072"/>
<circle clip-path="url(#clip212)" cx="520.087" cy="1159.26" r="14.4" fill="#009af9" fill-rule="evenodd" fill-opacity="1" stroke="#000000" stroke-opacity="1" stroke-width="3.072"/>
<circle clip-path="url(#clip212)" cx="525.364" cy="1156.04" r="14.4" fill="#009af9" fill-rule="evenodd" fill-opacity="1" stroke="#000000" stroke-opacity="1" stroke-width="3.072"/>
<circle clip-path="url(#clip212)" cx="530.743" cy="1155.31" r="14.4" fill="#009af9" fill-rule="evenodd" fill-opacity="1" stroke="#000000" stroke-opacity="1" stroke-width="3.072"/>
<circle clip-path="url(#clip212)" cx="536.227" cy="1144.38" r="14.4" fill="#009af9" fill-rule="evenodd" fill-opacity="1" stroke="#000000" stroke-opacity="1" stroke-width="3.072"/>
<circle clip-path="url(#clip212)" cx="541.82" cy="1138.81" r="14.4" fill="#009af9" fill-rule="evenodd" fill-opacity="1" stroke="#000000" stroke-opacity="1" stroke-width="3.072"/>
<circle clip-path="url(#clip212)" cx="547.528" cy="1135.62" r="14.4" fill="#009af9" fill-rule="evenodd" fill-opacity="1" stroke="#000000" stroke-opacity="1" stroke-width="3.072"/>
<circle clip-path="url(#clip212)" cx="553.355" cy="1133.48" r="14.4" fill="#009af9" fill-rule="evenodd" fill-opacity="1" stroke="#000000" stroke-opacity="1" stroke-width="3.072"/>
<circle clip-path="url(#clip212)" cx="559.305" cy="1124.53" r="14.4" fill="#009af9" fill-rule="evenodd" fill-opacity="1" stroke="#000000" stroke-opacity="1" stroke-width="3.072"/>
<circle clip-path="url(#clip212)" cx="565.386" cy="1116.66" r="14.4" fill="#009af9" fill-rule="evenodd" fill-opacity="1" stroke="#000000" stroke-opacity="1" stroke-width="3.072"/>
<circle clip-path="url(#clip212)" cx="571.601" cy="1106.42" r="14.4" fill="#009af9" fill-rule="evenodd" fill-opacity="1" stroke="#000000" stroke-opacity="1" stroke-width="3.072"/>
<circle clip-path="url(#clip212)" cx="577.957" cy="1102.12" r="14.4" fill="#009af9" fill-rule="evenodd" fill-opacity="1" stroke="#000000" stroke-opacity="1" stroke-width="3.072"/>
<circle clip-path="url(#clip212)" cx="584.461" cy="1100.86" r="14.4" fill="#009af9" fill-rule="evenodd" fill-opacity="1" stroke="#000000" stroke-opacity="1" stroke-width="3.072"/>
<circle clip-path="url(#clip212)" cx="591.121" cy="1098.45" r="14.4" fill="#009af9" fill-rule="evenodd" fill-opacity="1" stroke="#000000" stroke-opacity="1" stroke-width="3.072"/>
<circle clip-path="url(#clip212)" cx="597.942" cy="1096.11" r="14.4" fill="#009af9" fill-rule="evenodd" fill-opacity="1" stroke="#000000" stroke-opacity="1" stroke-width="3.072"/>
<circle clip-path="url(#clip212)" cx="604.934" cy="1094.79" r="14.4" fill="#009af9" fill-rule="evenodd" fill-opacity="1" stroke="#000000" stroke-opacity="1" stroke-width="3.072"/>
<circle clip-path="url(#clip212)" cx="612.106" cy="1094.5" r="14.4" fill="#009af9" fill-rule="evenodd" fill-opacity="1" stroke="#000000" stroke-opacity="1" stroke-width="3.072"/>
<circle clip-path="url(#clip212)" cx="619.466" cy="1088.23" r="14.4" fill="#009af9" fill-rule="evenodd" fill-opacity="1" stroke="#000000" stroke-opacity="1" stroke-width="3.072"/>
<circle clip-path="url(#clip212)" cx="627.025" cy="1085.17" r="14.4" fill="#009af9" fill-rule="evenodd" fill-opacity="1" stroke="#000000" stroke-opacity="1" stroke-width="3.072"/>
<circle clip-path="url(#clip212)" cx="634.795" cy="1076.65" r="14.4" fill="#009af9" fill-rule="evenodd" fill-opacity="1" stroke="#000000" stroke-opacity="1" stroke-width="3.072"/>
<circle clip-path="url(#clip212)" cx="642.786" cy="1059.72" r="14.4" fill="#009af9" fill-rule="evenodd" fill-opacity="1" stroke="#000000" stroke-opacity="1" stroke-width="3.072"/>
<circle clip-path="url(#clip212)" cx="651.012" cy="1055.6" r="14.4" fill="#009af9" fill-rule="evenodd" fill-opacity="1" stroke="#000000" stroke-opacity="1" stroke-width="3.072"/>
<circle clip-path="url(#clip212)" cx="659.488" cy="1046.95" r="14.4" fill="#009af9" fill-rule="evenodd" fill-opacity="1" stroke="#000000" stroke-opacity="1" stroke-width="3.072"/>
<circle clip-path="url(#clip212)" cx="668.228" cy="1029.09" r="14.4" fill="#009af9" fill-rule="evenodd" fill-opacity="1" stroke="#000000" stroke-opacity="1" stroke-width="3.072"/>
<circle clip-path="url(#clip212)" cx="677.251" cy="1014.08" r="14.4" fill="#009af9" fill-rule="evenodd" fill-opacity="1" stroke="#000000" stroke-opacity="1" stroke-width="3.072"/>
<circle clip-path="url(#clip212)" cx="686.574" cy="1004.42" r="14.4" fill="#009af9" fill-rule="evenodd" fill-opacity="1" stroke="#000000" stroke-opacity="1" stroke-width="3.072"/>
<circle clip-path="url(#clip212)" cx="696.219" cy="997.299" r="14.4" fill="#009af9" fill-rule="evenodd" fill-opacity="1" stroke="#000000" stroke-opacity="1" stroke-width="3.072"/>
<circle clip-path="url(#clip212)" cx="706.208" cy="992.528" r="14.4" fill="#009af9" fill-rule="evenodd" fill-opacity="1" stroke="#000000" stroke-opacity="1" stroke-width="3.072"/>
<circle clip-path="url(#clip212)" cx="716.567" cy="987.692" r="14.4" fill="#009af9" fill-rule="evenodd" fill-opacity="1" stroke="#000000" stroke-opacity="1" stroke-width="3.072"/>
<circle clip-path="url(#clip212)" cx="727.325" cy="986.028" r="14.4" fill="#009af9" fill-rule="evenodd" fill-opacity="1" stroke="#000000" stroke-opacity="1" stroke-width="3.072"/>
<circle clip-path="url(#clip212)" cx="738.514" cy="983.432" r="14.4" fill="#009af9" fill-rule="evenodd" fill-opacity="1" stroke="#000000" stroke-opacity="1" stroke-width="3.072"/>
<circle clip-path="url(#clip212)" cx="750.168" cy="975.032" r="14.4" fill="#009af9" fill-rule="evenodd" fill-opacity="1" stroke="#000000" stroke-opacity="1" stroke-width="3.072"/>
<circle clip-path="url(#clip212)" cx="762.33" cy="970.99" r="14.4" fill="#009af9" fill-rule="evenodd" fill-opacity="1" stroke="#000000" stroke-opacity="1" stroke-width="3.072"/>
<circle clip-path="url(#clip212)" cx="775.045" cy="957.879" r="14.4" fill="#009af9" fill-rule="evenodd" fill-opacity="1" stroke="#000000" stroke-opacity="1" stroke-width="3.072"/>
<circle clip-path="url(#clip212)" cx="788.365" cy="947.517" r="14.4" fill="#009af9" fill-rule="evenodd" fill-opacity="1" stroke="#000000" stroke-opacity="1" stroke-width="3.072"/>
<circle clip-path="url(#clip212)" cx="802.351" cy="915.364" r="14.4" fill="#009af9" fill-rule="evenodd" fill-opacity="1" stroke="#000000" stroke-opacity="1" stroke-width="3.072"/>
<circle clip-path="url(#clip212)" cx="817.074" cy="888.506" r="14.4" fill="#009af9" fill-rule="evenodd" fill-opacity="1" stroke="#000000" stroke-opacity="1" stroke-width="3.072"/>
<circle clip-path="url(#clip212)" cx="832.616" cy="871.283" r="14.4" fill="#009af9" fill-rule="evenodd" fill-opacity="1" stroke="#000000" stroke-opacity="1" stroke-width="3.072"/>
<circle clip-path="url(#clip212)" cx="849.072" cy="849.381" r="14.4" fill="#009af9" fill-rule="evenodd" fill-opacity="1" stroke="#000000" stroke-opacity="1" stroke-width="3.072"/>
<circle clip-path="url(#clip212)" cx="866.557" cy="839.246" r="14.4" fill="#009af9" fill-rule="evenodd" fill-opacity="1" stroke="#000000" stroke-opacity="1" stroke-width="3.072"/>
<circle clip-path="url(#clip212)" cx="885.209" cy="836.548" r="14.4" fill="#009af9" fill-rule="evenodd" fill-opacity="1" stroke="#000000" stroke-opacity="1" stroke-width="3.072"/>
<circle clip-path="url(#clip212)" cx="905.194" cy="828.507" r="14.4" fill="#009af9" fill-rule="evenodd" fill-opacity="1" stroke="#000000" stroke-opacity="1" stroke-width="3.072"/>
<circle clip-path="url(#clip212)" cx="926.718" cy="818.471" r="14.4" fill="#009af9" fill-rule="evenodd" fill-opacity="1" stroke="#000000" stroke-opacity="1" stroke-width="3.072"/>
<circle clip-path="url(#clip212)" cx="950.037" cy="801.928" r="14.4" fill="#009af9" fill-rule="evenodd" fill-opacity="1" stroke="#000000" stroke-opacity="1" stroke-width="3.072"/>
<circle clip-path="url(#clip212)" cx="975.48" cy="784.376" r="14.4" fill="#009af9" fill-rule="evenodd" fill-opacity="1" stroke="#000000" stroke-opacity="1" stroke-width="3.072"/>
<circle clip-path="url(#clip212)" cx="1003.47" cy="746.758" r="14.4" fill="#009af9" fill-rule="evenodd" fill-opacity="1" stroke="#000000" stroke-opacity="1" stroke-width="3.072"/>
<circle clip-path="url(#clip212)" cx="1034.58" cy="712.138" r="14.4" fill="#009af9" fill-rule="evenodd" fill-opacity="1" stroke="#000000" stroke-opacity="1" stroke-width="3.072"/>
<circle clip-path="url(#clip212)" cx="1069.58" cy="699.043" r="14.4" fill="#009af9" fill-rule="evenodd" fill-opacity="1" stroke="#000000" stroke-opacity="1" stroke-width="3.072"/>
<circle clip-path="url(#clip212)" cx="1109.6" cy="686.388" r="14.4" fill="#009af9" fill-rule="evenodd" fill-opacity="1" stroke="#000000" stroke-opacity="1" stroke-width="3.072"/>
<circle clip-path="url(#clip212)" cx="1156.32" cy="661.965" r="14.4" fill="#009af9" fill-rule="evenodd" fill-opacity="1" stroke="#000000" stroke-opacity="1" stroke-width="3.072"/>
<circle clip-path="url(#clip212)" cx="1212.45" cy="619.374" r="14.4" fill="#009af9" fill-rule="evenodd" fill-opacity="1" stroke="#000000" stroke-opacity="1" stroke-width="3.072"/>
<circle clip-path="url(#clip212)" cx="1282.73" cy="576.443" r="14.4" fill="#009af9" fill-rule="evenodd" fill-opacity="1" stroke="#000000" stroke-opacity="1" stroke-width="3.072"/>
<circle clip-path="url(#clip212)" cx="1376.83" cy="555.399" r="14.4" fill="#009af9" fill-rule="evenodd" fill-opacity="1" stroke="#000000" stroke-opacity="1" stroke-width="3.072"/>
<circle clip-path="url(#clip212)" cx="1519.7" cy="478.916" r="14.4" fill="#009af9" fill-rule="evenodd" fill-opacity="1" stroke="#000000" stroke-opacity="1" stroke-width="3.072"/>
<circle clip-path="url(#clip212)" cx="1826.95" cy="388.119" r="14.4" fill="#009af9" fill-rule="evenodd" fill-opacity="1" stroke="#000000" stroke-opacity="1" stroke-width="3.072"/>
</svg>
