<?xml version="1.0" encoding="utf-8"?>
<svg xmlns="http://www.w3.org/2000/svg" xmlns:xlink="http://www.w3.org/1999/xlink" width="480" height="384" viewBox="0 0 1920 1536">
<defs>
  <clipPath id="clip410">
    <rect x="0" y="0" width="1920" height="1536"/>
  </clipPath>
</defs>
<path clip-path="url(#clip410)" d="M0 1536 L1920 1536 L1920 0 L0 0  Z" fill="#ffffff" fill-rule="evenodd" fill-opacity="1"/>
<defs>
  <clipPath id="clip411">
    <rect x="1092" y="833" width="806" height="603"/>
  </clipPath>
</defs>
<path clip-path="url(#clip410)" d="M284.408 1328.66 L1872.76 1328.66 L1872.76 135.568 L284.408 135.568  Z" fill="#ffffff" fill-rule="evenodd" fill-opacity="1"/>
<defs>
  <clipPath id="clip412">
    <rect x="284" y="135" width="1589" height="1194"/>
  </clipPath>
</defs>
<polyline clip-path="url(#clip412)" style="stroke:#000000; stroke-linecap:round; stroke-linejoin:round; stroke-width:2; stroke-opacity:0.1; fill:none" points="703.972,1328.66 703.972,135.568 "/>
<polyline clip-path="url(#clip412)" style="stroke:#000000; stroke-linecap:round; stroke-linejoin:round; stroke-width:2; stroke-opacity:0.1; fill:none" points="1453.19,1328.66 1453.19,135.568 "/>
<polyline clip-path="url(#clip412)" style="stroke:#000000; stroke-linecap:round; stroke-linejoin:round; stroke-width:2; stroke-opacity:0.1; fill:none" points="284.408,1294.9 1872.76,1294.9 "/>
<polyline clip-path="url(#clip412)" style="stroke:#000000; stroke-linecap:round; stroke-linejoin:round; stroke-width:2; stroke-opacity:0.1; fill:none" points="284.408,1013.51 1872.76,1013.51 "/>
<polyline clip-path="url(#clip412)" style="stroke:#000000; stroke-linecap:round; stroke-linejoin:round; stroke-width:2; stroke-opacity:0.1; fill:none" points="284.408,732.116 1872.76,732.116 "/>
<polyline clip-path="url(#clip412)" style="stroke:#000000; stroke-linecap:round; stroke-linejoin:round; stroke-width:2; stroke-opacity:0.1; fill:none" points="284.408,450.726 1872.76,450.726 "/>
<polyline clip-path="url(#clip412)" style="stroke:#000000; stroke-linecap:round; stroke-linejoin:round; stroke-width:2; stroke-opacity:0.1; fill:none" points="284.408,169.335 1872.76,169.335 "/>
<polyline clip-path="url(#clip410)" style="stroke:#000000; stroke-linecap:round; stroke-linejoin:round; stroke-width:4; stroke-opacity:1; fill:none" points="284.408,1328.66 1872.76,1328.66 "/>
<polyline clip-path="url(#clip410)" style="stroke:#000000; stroke-linecap:round; stroke-linejoin:round; stroke-width:4; stroke-opacity:1; fill:none" points="703.972,1328.66 703.972,1309.77 "/>
<polyline clip-path="url(#clip410)" style="stroke:#000000; stroke-linecap:round; stroke-linejoin:round; stroke-width:4; stroke-opacity:1; fill:none" points="1453.19,1328.66 1453.19,1309.77 "/>
<path clip-path="url(#clip410)" d="M669.744 1398.95 L677.383 1398.95 L677.383 1372.58 L669.073 1374.25 L669.073 1369.99 L677.337 1368.32 L682.013 1368.32 L682.013 1398.95 L689.652 1398.95 L689.652 1402.88 L669.744 1402.88 L669.744 1398.95 Z" fill="#000000" fill-rule="nonzero" fill-opacity="1" /><path clip-path="url(#clip410)" d="M709.096 1371.4 Q705.485 1371.4 703.656 1374.97 Q701.851 1378.51 701.851 1385.64 Q701.851 1392.75 703.656 1396.31 Q705.485 1399.85 709.096 1399.85 Q712.73 1399.85 714.536 1396.31 Q716.364 1392.75 716.364 1385.64 Q716.364 1378.51 714.536 1374.97 Q712.73 1371.4 709.096 1371.4 M709.096 1367.7 Q714.906 1367.7 717.962 1372.31 Q721.04 1376.89 721.04 1385.64 Q721.04 1394.37 717.962 1398.97 Q714.906 1403.56 709.096 1403.56 Q703.286 1403.56 700.207 1398.97 Q697.152 1394.37 697.152 1385.64 Q697.152 1376.89 700.207 1372.31 Q703.286 1367.7 709.096 1367.7 Z" fill="#000000" fill-rule="nonzero" fill-opacity="1" /><path clip-path="url(#clip410)" d="M725.611 1372.28 L738.87 1372.28 L738.87 1375.47 L721.04 1375.47 L721.04 1372.28 Q723.203 1370.04 726.927 1366.28 Q730.67 1362.5 731.629 1361.41 Q733.453 1359.36 734.168 1357.94 Q734.902 1356.52 734.902 1355.14 Q734.902 1352.9 733.322 1351.49 Q731.761 1350.08 729.24 1350.08 Q727.454 1350.08 725.46 1350.7 Q723.485 1351.32 721.228 1352.58 L721.228 1348.75 Q723.523 1347.83 725.517 1347.36 Q727.51 1346.89 729.165 1346.89 Q733.529 1346.89 736.124 1349.07 Q738.72 1351.25 738.72 1354.9 Q738.72 1356.63 738.061 1358.19 Q737.422 1359.73 735.71 1361.84 Q735.24 1362.38 732.72 1365 Q730.2 1367.59 725.611 1372.28 Z" fill="#000000" fill-rule="nonzero" fill-opacity="1" /><path clip-path="url(#clip410)" d="M1417.65 1398.95 L1425.29 1398.95 L1425.29 1372.58 L1416.98 1374.25 L1416.98 1369.99 L1425.24 1368.32 L1429.92 1368.32 L1429.92 1398.95 L1437.56 1398.95 L1437.56 1402.88 L1417.65 1402.88 L1417.65 1398.95 Z" fill="#000000" fill-rule="nonzero" fill-opacity="1" /><path clip-path="url(#clip410)" d="M1457 1371.4 Q1453.39 1371.4 1451.56 1374.97 Q1449.75 1378.51 1449.75 1385.64 Q1449.75 1392.75 1451.56 1396.31 Q1453.39 1399.85 1457 1399.85 Q1460.63 1399.85 1462.44 1396.31 Q1464.27 1392.75 1464.27 1385.64 Q1464.27 1378.51 1462.44 1374.97 Q1460.63 1371.4 1457 1371.4 M1457 1367.7 Q1462.81 1367.7 1465.87 1372.31 Q1468.94 1376.89 1468.94 1385.64 Q1468.94 1394.37 1465.87 1398.97 Q1462.81 1403.56 1457 1403.56 Q1451.19 1403.56 1448.11 1398.97 Q1445.06 1394.37 1445.06 1385.64 Q1445.06 1376.89 1448.11 1372.31 Q1451.19 1367.7 1457 1367.7 Z" fill="#000000" fill-rule="nonzero" fill-opacity="1" /><path clip-path="url(#clip410)" d="M1481.62 1350.7 L1472.03 1365.69 L1481.62 1365.69 L1481.62 1350.7 M1480.62 1347.39 L1485.4 1347.39 L1485.4 1365.69 L1489.41 1365.69 L1489.41 1368.85 L1485.4 1368.85 L1485.4 1375.47 L1481.62 1375.47 L1481.62 1368.85 L1468.94 1368.85 L1468.94 1365.19 L1480.62 1347.39 Z" fill="#000000" fill-rule="nonzero" fill-opacity="1" /><path clip-path="url(#clip410)" d="M716.246 1441.59 Q709.244 1441.59 705.106 1446.81 Q701 1452.03 701 1461.04 Q701 1470.02 705.106 1475.24 Q709.244 1480.46 716.246 1480.46 Q723.248 1480.46 727.322 1475.24 Q731.428 1470.02 731.428 1461.04 Q731.428 1452.03 727.322 1446.81 Q723.248 1441.59 716.246 1441.59 M716.246 1436.37 Q726.24 1436.37 732.224 1443.09 Q738.208 1449.77 738.208 1461.04 Q738.208 1472.28 732.224 1478.99 Q726.24 1485.68 716.246 1485.68 Q706.22 1485.68 700.204 1478.99 Q694.221 1472.31 694.221 1461.04 Q694.221 1449.77 700.204 1443.09 Q706.22 1436.37 716.246 1436.37 Z" fill="#000000" fill-rule="nonzero" fill-opacity="1" /><path clip-path="url(#clip410)" d="M762.143 1448.25 Q769.781 1448.25 774.142 1453.21 Q778.502 1458.18 778.502 1466.96 Q778.502 1475.71 774.142 1480.71 Q769.781 1485.68 762.143 1485.68 Q754.472 1485.68 750.239 1480.84 Q746.006 1476 745.783 1466.96 L745.592 1459.67 Q745.433 1455.88 745.433 1454.58 Q745.433 1449.49 747.279 1445.73 Q750.175 1439.84 755.172 1437.3 Q760.201 1434.75 768.604 1434.69 Q772.487 1434.65 774.206 1434.11 L775.829 1438.76 Q774.269 1439.4 772.837 1439.43 L764.88 1439.97 Q760.869 1440.26 758.451 1441.66 Q752.117 1445.38 751.512 1450.25 L751.289 1452.03 Q755.427 1448.25 762.143 1448.25 M762.143 1453.21 Q757.432 1453.21 754.695 1456.9 Q751.957 1460.56 751.957 1466.96 Q751.957 1473.36 754.663 1477.05 Q757.4 1480.71 762.143 1480.71 Q766.821 1480.71 769.559 1477.02 Q772.296 1473.33 772.296 1466.96 Q772.296 1460.63 769.559 1456.93 Q766.821 1453.21 762.143 1453.21 Z" fill="#000000" fill-rule="nonzero" fill-opacity="1" /><path clip-path="url(#clip410)" d="M810.108 1463.65 Q816.92 1463.65 820.58 1466.26 Q824.272 1468.84 824.272 1474.19 Q824.272 1479.53 820.58 1482.14 Q816.92 1484.75 810.108 1484.75 L795.594 1484.75 L795.594 1453.78 L784.041 1453.78 L784.041 1449.1 L801.483 1449.1 L801.483 1463.65 L810.108 1463.65 M809.854 1468.33 L801.483 1468.33 L801.483 1480.07 L809.854 1480.07 Q813.864 1480.07 815.933 1478.58 Q818.034 1477.05 818.034 1474.19 Q818.034 1471.32 815.933 1469.83 Q813.864 1468.33 809.854 1468.33 Z" fill="#000000" fill-rule="nonzero" fill-opacity="1" /><path clip-path="url(#clip410)" d="M864.758 1465.46 L864.758 1468.33 L837.831 1468.33 Q838.213 1474.38 841.459 1477.56 Q844.738 1480.71 850.562 1480.71 Q853.936 1480.71 857.087 1479.88 Q860.27 1479.06 863.389 1477.4 L863.389 1482.94 Q860.238 1484.28 856.928 1484.98 Q853.618 1485.68 850.212 1485.68 Q841.682 1485.68 836.685 1480.71 Q831.72 1475.75 831.72 1467.28 Q831.72 1458.53 836.43 1453.4 Q841.173 1448.25 849.194 1448.25 Q856.387 1448.25 860.556 1452.89 Q864.758 1457.51 864.758 1465.46 M858.901 1463.75 Q858.838 1458.94 856.196 1456.08 Q853.586 1453.21 849.257 1453.21 Q844.356 1453.21 841.396 1455.98 Q838.467 1458.75 838.022 1463.78 L858.901 1463.75 M852.186 1435.35 L858.647 1435.35 L858.647 1441.78 L852.186 1441.78 L852.186 1435.35 M839.741 1435.35 L846.202 1435.35 L846.202 1441.78 L839.741 1441.78 L839.741 1435.35 Z" fill="#000000" fill-rule="nonzero" fill-opacity="1" /><path clip-path="url(#clip410)" d="M874.147 1449.1 L882.709 1449.1 L892.831 1472.98 L902.984 1449.1 L911.482 1449.1 L911.482 1484.75 L905.594 1484.75 L905.594 1454.71 L895.759 1477.91 L889.902 1477.91 L880.036 1454.71 L880.036 1484.75 L874.147 1484.75 L874.147 1449.1 Z" fill="#000000" fill-rule="nonzero" fill-opacity="1" /><path clip-path="url(#clip410)" d="M949.899 1468.33 L949.899 1480.07 L958.238 1480.07 Q962.249 1480.07 964.349 1478.58 Q966.45 1477.05 966.45 1474.19 Q966.45 1471.32 964.349 1469.83 Q962.249 1468.33 958.238 1468.33 L949.899 1468.33 M949.899 1453.78 L949.899 1463.65 L957.602 1463.65 Q960.912 1463.65 963.013 1462.35 Q965.113 1461.01 965.113 1458.65 Q965.113 1456.3 963.013 1455.06 Q960.912 1453.78 957.602 1453.78 L949.899 1453.78 M944.043 1449.1 L957.984 1449.1 Q964.254 1449.1 967.628 1451.4 Q971.001 1453.69 971.001 1457.92 Q971.001 1461.2 969.283 1463.14 Q967.564 1465.05 964.19 1465.53 Q968.232 1466.29 970.46 1468.71 Q972.688 1471.13 972.688 1474.76 Q972.688 1479.53 968.996 1482.14 Q965.336 1484.75 958.525 1484.75 L944.043 1484.75 L944.043 1449.1 Z" fill="#000000" fill-rule="nonzero" fill-opacity="1" /><path clip-path="url(#clip410)" d="M1016.36 1449.1 L1022.21 1449.1 L1022.21 1484.75 L1016.36 1484.75 L1016.36 1449.1 M1019.29 1448.25 L1019.29 1448.25 M1004.87 1474.19 Q1004.87 1471.32 1002.77 1469.83 Q1000.7 1468.33 996.687 1468.33 L988.348 1468.33 L988.348 1480.07 L996.687 1480.07 Q1000.7 1480.07 1002.77 1478.58 Q1004.87 1477.05 1004.87 1474.19 M982.46 1449.1 L988.348 1449.1 L988.348 1463.65 L996.942 1463.65 Q1003.75 1463.65 1007.41 1466.26 Q1011.11 1468.84 1011.11 1474.19 Q1011.11 1479.53 1007.41 1482.14 Q1003.75 1484.75 996.942 1484.75 L982.46 1484.75 L982.46 1449.1 Z" fill="#000000" fill-rule="nonzero" fill-opacity="1" /><path clip-path="url(#clip410)" d="M1048.28 1448.25 Q1055.92 1448.25 1060.28 1453.21 Q1064.64 1458.18 1064.64 1466.96 Q1064.64 1475.71 1060.28 1480.71 Q1055.92 1485.68 1048.28 1485.68 Q1040.61 1485.68 1036.38 1480.84 Q1032.14 1476 1031.92 1466.96 L1031.73 1459.67 Q1031.57 1455.88 1031.57 1454.58 Q1031.57 1449.49 1033.42 1445.73 Q1036.31 1439.84 1041.31 1437.3 Q1046.34 1434.75 1054.74 1434.69 Q1058.63 1434.65 1060.34 1434.11 L1061.97 1438.76 Q1060.41 1439.4 1058.98 1439.43 L1051.02 1439.97 Q1047.01 1440.26 1044.59 1441.66 Q1038.26 1445.38 1037.65 1450.25 L1037.43 1452.03 Q1041.57 1448.25 1048.28 1448.25 M1048.28 1453.21 Q1043.57 1453.21 1040.83 1456.9 Q1038.1 1460.56 1038.1 1466.96 Q1038.1 1473.36 1040.8 1477.05 Q1043.54 1480.71 1048.28 1480.71 Q1052.96 1480.71 1055.7 1477.02 Q1058.43 1473.33 1058.43 1466.96 Q1058.43 1460.63 1055.7 1456.93 Q1052.96 1453.21 1048.28 1453.21 Z" fill="#000000" fill-rule="nonzero" fill-opacity="1" /><path clip-path="url(#clip410)" d="M1088.16 1453.21 Q1083.45 1453.21 1080.71 1456.9 Q1077.98 1460.56 1077.98 1466.96 Q1077.98 1473.36 1080.68 1477.05 Q1083.42 1480.71 1088.16 1480.71 Q1092.84 1480.71 1095.58 1477.02 Q1098.32 1473.33 1098.32 1466.96 Q1098.32 1460.63 1095.58 1456.93 Q1092.84 1453.21 1088.16 1453.21 M1088.16 1448.25 Q1095.8 1448.25 1100.16 1453.21 Q1104.52 1458.18 1104.52 1466.96 Q1104.52 1475.71 1100.16 1480.71 Q1095.8 1485.68 1088.16 1485.68 Q1080.49 1485.68 1076.13 1480.71 Q1071.8 1475.71 1071.8 1466.96 Q1071.8 1458.18 1076.13 1453.21 Q1080.49 1448.25 1088.16 1448.25 Z" fill="#000000" fill-rule="nonzero" fill-opacity="1" /><path clip-path="url(#clip410)" d="M1119.9 1479.41 L1119.9 1498.31 L1114.01 1498.31 L1114.01 1449.1 L1119.9 1449.1 L1119.9 1454.52 Q1121.74 1451.33 1124.54 1449.81 Q1127.38 1448.25 1131.29 1448.25 Q1137.78 1448.25 1141.83 1453.4 Q1145.9 1458.56 1145.9 1466.96 Q1145.9 1475.36 1141.83 1480.52 Q1137.78 1485.68 1131.29 1485.68 Q1127.38 1485.68 1124.54 1484.15 Q1121.74 1482.59 1119.9 1479.41 M1139.82 1466.96 Q1139.82 1460.5 1137.15 1456.84 Q1134.5 1453.15 1129.86 1453.15 Q1125.21 1453.15 1122.54 1456.84 Q1119.9 1460.5 1119.9 1466.96 Q1119.9 1473.42 1122.54 1477.11 Q1125.21 1480.77 1129.86 1480.77 Q1134.5 1480.77 1137.15 1477.11 Q1139.82 1473.42 1139.82 1466.96 Z" fill="#000000" fill-rule="nonzero" fill-opacity="1" /><path clip-path="url(#clip410)" d="M1155.38 1449.1 L1161.21 1449.1 L1161.21 1465.85 L1177.73 1449.1 L1184.92 1449.1 L1171.3 1462.89 L1186.67 1484.75 L1180.11 1484.75 L1167.48 1466.77 L1161.21 1473.14 L1161.21 1484.75 L1155.38 1484.75 L1155.38 1449.1 Z" fill="#000000" fill-rule="nonzero" fill-opacity="1" /><path clip-path="url(#clip410)" d="M1225.28 1449.1 L1225.28 1484.75 L1219.45 1484.75 L1219.45 1456.14 L1202.27 1484.75 L1194.76 1484.75 L1194.76 1449.1 L1200.58 1449.1 L1200.58 1477.66 L1217.74 1449.1 L1225.28 1449.1 Z" fill="#000000" fill-rule="nonzero" fill-opacity="1" /><path clip-path="url(#clip410)" d="M1272.13 1435.29 Q1267.87 1442.61 1265.8 1449.77 Q1263.73 1456.93 1263.73 1464.29 Q1263.73 1471.64 1265.8 1478.86 Q1267.9 1486.06 1272.13 1493.35 L1267.04 1493.35 Q1262.26 1485.87 1259.88 1478.64 Q1257.52 1471.42 1257.52 1464.29 Q1257.52 1457.19 1259.88 1450 Q1262.23 1442.8 1267.04 1435.29 L1272.13 1435.29 Z" fill="#000000" fill-rule="nonzero" fill-opacity="1" /><path clip-path="url(#clip410)" d="M1304.09 1484.75 L1304.09 1469.76 L1293.17 1469.76 Q1288.3 1469.76 1285.05 1466.74 Q1282.13 1464 1282.13 1458.14 L1282.13 1449.1 L1287.98 1449.1 L1287.98 1457.6 Q1287.98 1461.33 1289.64 1463.2 Q1291.32 1465.08 1294.63 1465.08 L1304.09 1465.08 L1304.09 1449.1 L1309.94 1449.1 L1309.94 1484.75 L1304.09 1484.75 Z" fill="#000000" fill-rule="nonzero" fill-opacity="1" /><path clip-path="url(#clip410)" d="M1338.21 1466.83 Q1331.11 1466.83 1328.37 1468.46 Q1325.63 1470.08 1325.63 1473.99 Q1325.63 1477.11 1327.67 1478.96 Q1329.74 1480.77 1333.27 1480.77 Q1338.14 1480.77 1341.07 1477.34 Q1344.03 1473.87 1344.03 1468.14 L1344.03 1466.83 L1338.21 1466.83 M1349.89 1464.41 L1349.89 1484.75 L1344.03 1484.75 L1344.03 1479.34 Q1342.03 1482.59 1339.03 1484.15 Q1336.04 1485.68 1331.71 1485.68 Q1326.24 1485.68 1322.99 1482.62 Q1319.78 1479.53 1319.78 1474.38 Q1319.78 1468.36 1323.79 1465.31 Q1327.83 1462.25 1335.82 1462.25 L1344.03 1462.25 L1344.03 1461.68 Q1344.03 1457.63 1341.36 1455.44 Q1338.72 1453.21 1333.91 1453.21 Q1330.85 1453.21 1327.96 1453.94 Q1325.06 1454.67 1322.39 1456.14 L1322.39 1450.73 Q1325.6 1449.49 1328.63 1448.88 Q1331.65 1448.25 1334.52 1448.25 Q1342.25 1448.25 1346.07 1452.26 Q1349.89 1456.27 1349.89 1464.41 Z" fill="#000000" fill-rule="nonzero" fill-opacity="1" /><path clip-path="url(#clip410)" d="M1387.61 1450.47 L1387.61 1455.95 Q1385.12 1454.58 1382.61 1453.91 Q1380.13 1453.21 1377.58 1453.21 Q1371.88 1453.21 1368.73 1456.84 Q1365.58 1460.44 1365.58 1466.96 Q1365.58 1473.49 1368.73 1477.11 Q1371.88 1480.71 1377.58 1480.71 Q1380.13 1480.71 1382.61 1480.04 Q1385.12 1479.34 1387.61 1477.97 L1387.61 1483.38 Q1385.15 1484.53 1382.51 1485.1 Q1379.9 1485.68 1376.94 1485.68 Q1368.89 1485.68 1364.15 1480.62 Q1359.41 1475.55 1359.41 1466.96 Q1359.41 1458.24 1364.18 1453.24 Q1368.99 1448.25 1377.32 1448.25 Q1380.03 1448.25 1382.61 1448.82 Q1385.19 1449.36 1387.61 1450.47 Z" fill="#000000" fill-rule="nonzero" fill-opacity="1" /><path clip-path="url(#clip410)" d="M1431.46 1449.1 L1437.32 1449.1 L1437.32 1484.75 L1431.46 1484.75 L1431.46 1449.1 M1434.39 1448.25 L1434.39 1448.25 M1419.97 1474.19 Q1419.97 1471.32 1417.87 1469.83 Q1415.81 1468.33 1411.79 1468.33 L1403.46 1468.33 L1403.46 1480.07 L1411.79 1480.07 Q1415.81 1480.07 1417.87 1478.58 Q1419.97 1477.05 1419.97 1474.19 M1397.57 1449.1 L1403.46 1449.1 L1403.46 1463.65 L1412.05 1463.65 Q1418.86 1463.65 1422.52 1466.26 Q1426.21 1468.84 1426.21 1474.19 Q1426.21 1479.53 1422.52 1482.14 Q1418.86 1484.75 1412.05 1484.75 L1397.57 1484.75 L1397.57 1449.1 Z" fill="#000000" fill-rule="nonzero" fill-opacity="1" /><path clip-path="url(#clip410)" d="M1448.33 1435.29 L1453.43 1435.29 Q1458.2 1442.8 1460.56 1450 Q1462.94 1457.19 1462.94 1464.29 Q1462.94 1471.42 1460.56 1478.64 Q1458.2 1485.87 1453.43 1493.35 L1448.33 1493.35 Q1452.57 1486.06 1454.64 1478.86 Q1456.74 1471.64 1456.74 1464.29 Q1456.74 1456.93 1454.64 1449.77 Q1452.57 1442.61 1448.33 1435.29 Z" fill="#000000" fill-rule="nonzero" fill-opacity="1" /><polyline clip-path="url(#clip410)" style="stroke:#000000; stroke-linecap:round; stroke-linejoin:round; stroke-width:4; stroke-opacity:1; fill:none" points="284.408,1328.66 284.408,135.568 "/>
<polyline clip-path="url(#clip410)" style="stroke:#000000; stroke-linecap:round; stroke-linejoin:round; stroke-width:4; stroke-opacity:1; fill:none" points="284.408,1294.9 303.306,1294.9 "/>
<polyline clip-path="url(#clip410)" style="stroke:#000000; stroke-linecap:round; stroke-linejoin:round; stroke-width:4; stroke-opacity:1; fill:none" points="284.408,1013.51 303.306,1013.51 "/>
<polyline clip-path="url(#clip410)" style="stroke:#000000; stroke-linecap:round; stroke-linejoin:round; stroke-width:4; stroke-opacity:1; fill:none" points="284.408,732.116 303.306,732.116 "/>
<polyline clip-path="url(#clip410)" style="stroke:#000000; stroke-linecap:round; stroke-linejoin:round; stroke-width:4; stroke-opacity:1; fill:none" points="284.408,450.726 303.306,450.726 "/>
<polyline clip-path="url(#clip410)" style="stroke:#000000; stroke-linecap:round; stroke-linejoin:round; stroke-width:4; stroke-opacity:1; fill:none" points="284.408,169.335 303.306,169.335 "/>
<path clip-path="url(#clip410)" d="M138.109 1280.7 Q134.497 1280.7 132.669 1284.26 Q130.863 1287.8 130.863 1294.93 Q130.863 1302.04 132.669 1305.6 Q134.497 1309.14 138.109 1309.14 Q141.743 1309.14 143.548 1305.6 Q145.377 1302.04 145.377 1294.93 Q145.377 1287.8 143.548 1284.26 Q141.743 1280.7 138.109 1280.7 M138.109 1276.99 Q143.919 1276.99 146.974 1281.6 Q150.053 1286.18 150.053 1294.93 Q150.053 1303.66 146.974 1308.27 Q143.919 1312.85 138.109 1312.85 Q132.298 1312.85 129.22 1308.27 Q126.164 1303.66 126.164 1294.93 Q126.164 1286.18 129.22 1281.6 Q132.298 1276.99 138.109 1276.99 Z" fill="#000000" fill-rule="nonzero" fill-opacity="1" /><path clip-path="url(#clip410)" d="M158.27 1306.3 L163.155 1306.3 L163.155 1312.18 L158.27 1312.18 L158.27 1306.3 Z" fill="#000000" fill-rule="nonzero" fill-opacity="1" /><path clip-path="url(#clip410)" d="M183.34 1280.7 Q179.729 1280.7 177.9 1284.26 Q176.094 1287.8 176.094 1294.93 Q176.094 1302.04 177.9 1305.6 Q179.729 1309.14 183.34 1309.14 Q186.974 1309.14 188.78 1305.6 Q190.608 1302.04 190.608 1294.93 Q190.608 1287.8 188.78 1284.26 Q186.974 1280.7 183.34 1280.7 M183.34 1276.99 Q189.15 1276.99 192.205 1281.6 Q195.284 1286.18 195.284 1294.93 Q195.284 1303.66 192.205 1308.27 Q189.15 1312.85 183.34 1312.85 Q177.53 1312.85 174.451 1308.27 Q171.395 1303.66 171.395 1294.93 Q171.395 1286.18 174.451 1281.6 Q177.53 1276.99 183.34 1276.99 Z" fill="#000000" fill-rule="nonzero" fill-opacity="1" /><path clip-path="url(#clip410)" d="M213.502 1280.7 Q209.891 1280.7 208.062 1284.26 Q206.256 1287.8 206.256 1294.93 Q206.256 1302.04 208.062 1305.6 Q209.891 1309.14 213.502 1309.14 Q217.136 1309.14 218.941 1305.6 Q220.77 1302.04 220.77 1294.93 Q220.77 1287.8 218.941 1284.26 Q217.136 1280.7 213.502 1280.7 M213.502 1276.99 Q219.312 1276.99 222.367 1281.6 Q225.446 1286.18 225.446 1294.93 Q225.446 1303.66 222.367 1308.27 Q219.312 1312.85 213.502 1312.85 Q207.691 1312.85 204.613 1308.27 Q201.557 1303.66 201.557 1294.93 Q201.557 1286.18 204.613 1281.6 Q207.691 1276.99 213.502 1276.99 Z" fill="#000000" fill-rule="nonzero" fill-opacity="1" /><path clip-path="url(#clip410)" d="M243.664 1280.7 Q240.052 1280.7 238.224 1284.26 Q236.418 1287.8 236.418 1294.93 Q236.418 1302.04 238.224 1305.6 Q240.052 1309.14 243.664 1309.14 Q247.298 1309.14 249.103 1305.6 Q250.932 1302.04 250.932 1294.93 Q250.932 1287.8 249.103 1284.26 Q247.298 1280.7 243.664 1280.7 M243.664 1276.99 Q249.474 1276.99 252.529 1281.6 Q255.608 1286.18 255.608 1294.93 Q255.608 1303.66 252.529 1308.27 Q249.474 1312.85 243.664 1312.85 Q237.853 1312.85 234.775 1308.27 Q231.719 1303.66 231.719 1294.93 Q231.719 1286.18 234.775 1281.6 Q237.853 1276.99 243.664 1276.99 Z" fill="#000000" fill-rule="nonzero" fill-opacity="1" /><path clip-path="url(#clip410)" d="M139.104 999.305 Q135.493 999.305 133.664 1002.87 Q131.859 1006.41 131.859 1013.54 Q131.859 1020.65 133.664 1024.21 Q135.493 1027.75 139.104 1027.75 Q142.738 1027.75 144.544 1024.21 Q146.372 1020.65 146.372 1013.54 Q146.372 1006.41 144.544 1002.87 Q142.738 999.305 139.104 999.305 M139.104 995.602 Q144.914 995.602 147.97 1000.21 Q151.048 1004.79 151.048 1013.54 Q151.048 1022.27 147.97 1026.87 Q144.914 1031.46 139.104 1031.46 Q133.294 1031.46 130.215 1026.87 Q127.16 1022.27 127.16 1013.54 Q127.16 1004.79 130.215 1000.21 Q133.294 995.602 139.104 995.602 Z" fill="#000000" fill-rule="nonzero" fill-opacity="1" /><path clip-path="url(#clip410)" d="M159.266 1024.91 L164.15 1024.91 L164.15 1030.79 L159.266 1030.79 L159.266 1024.91 Z" fill="#000000" fill-rule="nonzero" fill-opacity="1" /><path clip-path="url(#clip410)" d="M184.335 999.305 Q180.724 999.305 178.895 1002.87 Q177.09 1006.41 177.09 1013.54 Q177.09 1020.65 178.895 1024.21 Q180.724 1027.75 184.335 1027.75 Q187.969 1027.75 189.775 1024.21 Q191.604 1020.65 191.604 1013.54 Q191.604 1006.41 189.775 1002.87 Q187.969 999.305 184.335 999.305 M184.335 995.602 Q190.145 995.602 193.201 1000.21 Q196.28 1004.79 196.28 1013.54 Q196.28 1022.27 193.201 1026.87 Q190.145 1031.46 184.335 1031.46 Q178.525 1031.46 175.446 1026.87 Q172.391 1022.27 172.391 1013.54 Q172.391 1004.79 175.446 1000.21 Q178.525 995.602 184.335 995.602 Z" fill="#000000" fill-rule="nonzero" fill-opacity="1" /><path clip-path="url(#clip410)" d="M214.497 999.305 Q210.886 999.305 209.057 1002.87 Q207.252 1006.41 207.252 1013.54 Q207.252 1020.65 209.057 1024.21 Q210.886 1027.75 214.497 1027.75 Q218.131 1027.75 219.937 1024.21 Q221.765 1020.65 221.765 1013.54 Q221.765 1006.41 219.937 1002.87 Q218.131 999.305 214.497 999.305 M214.497 995.602 Q220.307 995.602 223.363 1000.21 Q226.441 1004.79 226.441 1013.54 Q226.441 1022.27 223.363 1026.87 Q220.307 1031.46 214.497 1031.46 Q208.687 1031.46 205.608 1026.87 Q202.553 1022.27 202.553 1013.54 Q202.553 1004.79 205.608 1000.21 Q208.687 995.602 214.497 995.602 Z" fill="#000000" fill-rule="nonzero" fill-opacity="1" /><path clip-path="url(#clip410)" d="M234.705 996.227 L253.062 996.227 L253.062 1000.16 L238.988 1000.16 L238.988 1008.63 Q240.006 1008.29 241.025 1008.12 Q242.043 1007.94 243.062 1007.94 Q248.849 1007.94 252.228 1011.11 Q255.608 1014.28 255.608 1019.7 Q255.608 1025.28 252.136 1028.38 Q248.664 1031.46 242.344 1031.46 Q240.168 1031.46 237.9 1031.09 Q235.654 1030.72 233.247 1029.98 L233.247 1025.28 Q235.33 1026.41 237.552 1026.97 Q239.775 1027.52 242.251 1027.52 Q246.256 1027.52 248.594 1025.42 Q250.932 1023.31 250.932 1019.7 Q250.932 1016.09 248.594 1013.98 Q246.256 1011.87 242.251 1011.87 Q240.377 1011.87 238.502 1012.29 Q236.65 1012.71 234.705 1013.59 L234.705 996.227 Z" fill="#000000" fill-rule="nonzero" fill-opacity="1" /><path clip-path="url(#clip410)" d="M138.109 717.915 Q134.497 717.915 132.669 721.48 Q130.863 725.021 130.863 732.151 Q130.863 739.257 132.669 742.822 Q134.497 746.364 138.109 746.364 Q141.743 746.364 143.548 742.822 Q145.377 739.257 145.377 732.151 Q145.377 725.021 143.548 721.48 Q141.743 717.915 138.109 717.915 M138.109 714.211 Q143.919 714.211 146.974 718.818 Q150.053 723.401 150.053 732.151 Q150.053 740.878 146.974 745.484 Q143.919 750.067 138.109 750.067 Q132.298 750.067 129.22 745.484 Q126.164 740.878 126.164 732.151 Q126.164 723.401 129.22 718.818 Q132.298 714.211 138.109 714.211 Z" fill="#000000" fill-rule="nonzero" fill-opacity="1" /><path clip-path="url(#clip410)" d="M158.27 743.516 L163.155 743.516 L163.155 749.396 L158.27 749.396 L158.27 743.516 Z" fill="#000000" fill-rule="nonzero" fill-opacity="1" /><path clip-path="url(#clip410)" d="M183.34 717.915 Q179.729 717.915 177.9 721.48 Q176.094 725.021 176.094 732.151 Q176.094 739.257 177.9 742.822 Q179.729 746.364 183.34 746.364 Q186.974 746.364 188.78 742.822 Q190.608 739.257 190.608 732.151 Q190.608 725.021 188.78 721.48 Q186.974 717.915 183.34 717.915 M183.34 714.211 Q189.15 714.211 192.205 718.818 Q195.284 723.401 195.284 732.151 Q195.284 740.878 192.205 745.484 Q189.15 750.067 183.34 750.067 Q177.53 750.067 174.451 745.484 Q171.395 740.878 171.395 732.151 Q171.395 723.401 174.451 718.818 Q177.53 714.211 183.34 714.211 Z" fill="#000000" fill-rule="nonzero" fill-opacity="1" /><path clip-path="url(#clip410)" d="M204.312 745.461 L211.951 745.461 L211.951 719.095 L203.641 720.762 L203.641 716.503 L211.904 714.836 L216.58 714.836 L216.58 745.461 L224.219 745.461 L224.219 749.396 L204.312 749.396 L204.312 745.461 Z" fill="#000000" fill-rule="nonzero" fill-opacity="1" /><path clip-path="url(#clip410)" d="M243.664 717.915 Q240.052 717.915 238.224 721.48 Q236.418 725.021 236.418 732.151 Q236.418 739.257 238.224 742.822 Q240.052 746.364 243.664 746.364 Q247.298 746.364 249.103 742.822 Q250.932 739.257 250.932 732.151 Q250.932 725.021 249.103 721.48 Q247.298 717.915 243.664 717.915 M243.664 714.211 Q249.474 714.211 252.529 718.818 Q255.608 723.401 255.608 732.151 Q255.608 740.878 252.529 745.484 Q249.474 750.067 243.664 750.067 Q237.853 750.067 234.775 745.484 Q231.719 740.878 231.719 732.151 Q231.719 723.401 234.775 718.818 Q237.853 714.211 243.664 714.211 Z" fill="#000000" fill-rule="nonzero" fill-opacity="1" /><path clip-path="url(#clip410)" d="M139.104 436.524 Q135.493 436.524 133.664 440.089 Q131.859 443.631 131.859 450.76 Q131.859 457.867 133.664 461.431 Q135.493 464.973 139.104 464.973 Q142.738 464.973 144.544 461.431 Q146.372 457.867 146.372 450.76 Q146.372 443.631 144.544 440.089 Q142.738 436.524 139.104 436.524 M139.104 432.821 Q144.914 432.821 147.97 437.427 Q151.048 442.01 151.048 450.76 Q151.048 459.487 147.97 464.094 Q144.914 468.677 139.104 468.677 Q133.294 468.677 130.215 464.094 Q127.16 459.487 127.16 450.76 Q127.16 442.01 130.215 437.427 Q133.294 432.821 139.104 432.821 Z" fill="#000000" fill-rule="nonzero" fill-opacity="1" /><path clip-path="url(#clip410)" d="M159.266 462.126 L164.15 462.126 L164.15 468.006 L159.266 468.006 L159.266 462.126 Z" fill="#000000" fill-rule="nonzero" fill-opacity="1" /><path clip-path="url(#clip410)" d="M184.335 436.524 Q180.724 436.524 178.895 440.089 Q177.09 443.631 177.09 450.76 Q177.09 457.867 178.895 461.431 Q180.724 464.973 184.335 464.973 Q187.969 464.973 189.775 461.431 Q191.604 457.867 191.604 450.76 Q191.604 443.631 189.775 440.089 Q187.969 436.524 184.335 436.524 M184.335 432.821 Q190.145 432.821 193.201 437.427 Q196.28 442.01 196.28 450.76 Q196.28 459.487 193.201 464.094 Q190.145 468.677 184.335 468.677 Q178.525 468.677 175.446 464.094 Q172.391 459.487 172.391 450.76 Q172.391 442.01 175.446 437.427 Q178.525 432.821 184.335 432.821 Z" fill="#000000" fill-rule="nonzero" fill-opacity="1" /><path clip-path="url(#clip410)" d="M205.307 464.07 L212.946 464.07 L212.946 437.705 L204.636 439.371 L204.636 435.112 L212.9 433.446 L217.576 433.446 L217.576 464.07 L225.215 464.07 L225.215 468.006 L205.307 468.006 L205.307 464.07 Z" fill="#000000" fill-rule="nonzero" fill-opacity="1" /><path clip-path="url(#clip410)" d="M234.705 433.446 L253.062 433.446 L253.062 437.381 L238.988 437.381 L238.988 445.853 Q240.006 445.506 241.025 445.344 Q242.043 445.158 243.062 445.158 Q248.849 445.158 252.228 448.33 Q255.608 451.501 255.608 456.918 Q255.608 462.496 252.136 465.598 Q248.664 468.677 242.344 468.677 Q240.168 468.677 237.9 468.306 Q235.654 467.936 233.247 467.195 L233.247 462.496 Q235.33 463.631 237.552 464.186 Q239.775 464.742 242.251 464.742 Q246.256 464.742 248.594 462.635 Q250.932 460.529 250.932 456.918 Q250.932 453.307 248.594 451.2 Q246.256 449.094 242.251 449.094 Q240.377 449.094 238.502 449.51 Q236.65 449.927 234.705 450.807 L234.705 433.446 Z" fill="#000000" fill-rule="nonzero" fill-opacity="1" /><path clip-path="url(#clip410)" d="M138.109 155.134 Q134.497 155.134 132.669 158.698 Q130.863 162.24 130.863 169.37 Q130.863 176.476 132.669 180.041 Q134.497 183.583 138.109 183.583 Q141.743 183.583 143.548 180.041 Q145.377 176.476 145.377 169.37 Q145.377 162.24 143.548 158.698 Q141.743 155.134 138.109 155.134 M138.109 151.43 Q143.919 151.43 146.974 156.036 Q150.053 160.62 150.053 169.37 Q150.053 178.097 146.974 182.703 Q143.919 187.286 138.109 187.286 Q132.298 187.286 129.22 182.703 Q126.164 178.097 126.164 169.37 Q126.164 160.62 129.22 156.036 Q132.298 151.43 138.109 151.43 Z" fill="#000000" fill-rule="nonzero" fill-opacity="1" /><path clip-path="url(#clip410)" d="M158.27 180.735 L163.155 180.735 L163.155 186.615 L158.27 186.615 L158.27 180.735 Z" fill="#000000" fill-rule="nonzero" fill-opacity="1" /><path clip-path="url(#clip410)" d="M183.34 155.134 Q179.729 155.134 177.9 158.698 Q176.094 162.24 176.094 169.37 Q176.094 176.476 177.9 180.041 Q179.729 183.583 183.34 183.583 Q186.974 183.583 188.78 180.041 Q190.608 176.476 190.608 169.37 Q190.608 162.24 188.78 158.698 Q186.974 155.134 183.34 155.134 M183.34 151.43 Q189.15 151.43 192.205 156.036 Q195.284 160.62 195.284 169.37 Q195.284 178.097 192.205 182.703 Q189.15 187.286 183.34 187.286 Q177.53 187.286 174.451 182.703 Q171.395 178.097 171.395 169.37 Q171.395 160.62 174.451 156.036 Q177.53 151.43 183.34 151.43 Z" fill="#000000" fill-rule="nonzero" fill-opacity="1" /><path clip-path="url(#clip410)" d="M207.529 182.68 L223.849 182.68 L223.849 186.615 L201.904 186.615 L201.904 182.68 Q204.567 179.925 209.15 175.296 Q213.756 170.643 214.937 169.3 Q217.182 166.777 218.062 165.041 Q218.965 163.282 218.965 161.592 Q218.965 158.837 217.02 157.101 Q215.099 155.365 211.997 155.365 Q209.798 155.365 207.344 156.129 Q204.914 156.893 202.136 158.444 L202.136 153.722 Q204.96 152.587 207.414 152.009 Q209.867 151.43 211.904 151.43 Q217.275 151.43 220.469 154.115 Q223.664 156.8 223.664 161.291 Q223.664 163.421 222.853 165.342 Q222.066 167.24 219.96 169.833 Q219.381 170.504 216.279 173.722 Q213.178 176.916 207.529 182.68 Z" fill="#000000" fill-rule="nonzero" fill-opacity="1" /><path clip-path="url(#clip410)" d="M243.664 155.134 Q240.052 155.134 238.224 158.698 Q236.418 162.24 236.418 169.37 Q236.418 176.476 238.224 180.041 Q240.052 183.583 243.664 183.583 Q247.298 183.583 249.103 180.041 Q250.932 176.476 250.932 169.37 Q250.932 162.24 249.103 158.698 Q247.298 155.134 243.664 155.134 M243.664 151.43 Q249.474 151.43 252.529 156.036 Q255.608 160.62 255.608 169.37 Q255.608 178.097 252.529 182.703 Q249.474 187.286 243.664 187.286 Q237.853 187.286 234.775 182.703 Q231.719 178.097 231.719 169.37 Q231.719 160.62 234.775 156.036 Q237.853 151.43 243.664 151.43 Z" fill="#000000" fill-rule="nonzero" fill-opacity="1" /><path clip-path="url(#clip410)" d="M39.9487 1186.72 Q39.9487 1193.73 45.1685 1197.86 Q50.3884 1201.97 59.3959 1201.97 Q68.3715 1201.97 73.5914 1197.86 Q78.8113 1193.73 78.8113 1186.72 Q78.8113 1179.72 73.5914 1175.65 Q68.3715 1171.54 59.3959 1171.54 Q50.3884 1171.54 45.1685 1175.65 Q39.9487 1179.72 39.9487 1186.72 M34.7288 1186.72 Q34.7288 1176.73 41.4446 1170.75 Q48.1286 1164.76 59.3959 1164.76 Q70.6314 1164.76 77.3472 1170.75 Q84.0312 1176.73 84.0312 1186.72 Q84.0312 1196.75 77.3472 1202.76 Q70.6632 1208.75 59.3959 1208.75 Q48.1286 1208.75 41.4446 1202.76 Q34.7288 1196.75 34.7288 1186.72 Z" fill="#000000" fill-rule="nonzero" fill-opacity="1" /><path clip-path="url(#clip410)" d="M83.1082 1124.4 L83.1082 1155.18 L47.4602 1155.18 L47.4602 1149.29 L78.4294 1149.29 L78.4294 1130.29 L47.4602 1130.29 L47.4602 1124.4 L78.4294 1124.4 L78.4294 1119.72 L92.1156 1119.72 L92.1156 1124.4 L83.1082 1124.4 Z" fill="#000000" fill-rule="nonzero" fill-opacity="1" /><path clip-path="url(#clip410)" d="M63.8201 1080.1 L66.6846 1080.1 L66.6846 1107.02 Q72.7321 1106.64 75.9149 1103.4 Q79.0659 1100.12 79.0659 1094.29 Q79.0659 1090.92 78.2384 1087.77 Q77.4109 1084.59 75.7558 1081.47 L81.2939 1081.47 Q82.6307 1084.62 83.331 1087.93 Q84.0312 1091.24 84.0312 1094.64 Q84.0312 1103.17 79.0659 1108.17 Q74.1007 1113.14 65.6343 1113.14 Q56.8814 1113.14 51.7571 1108.42 Q46.6008 1103.68 46.6008 1095.66 Q46.6008 1088.47 51.2478 1084.3 Q55.8629 1080.1 63.8201 1080.1 M62.1013 1085.95 Q57.2952 1086.02 54.4306 1088.66 Q51.5661 1091.27 51.5661 1095.6 Q51.5661 1100.5 54.3352 1103.46 Q57.1042 1106.39 62.1332 1106.83 L62.1013 1085.95 Z" fill="#000000" fill-rule="nonzero" fill-opacity="1" /><path clip-path="url(#clip410)" d="M47.4602 1070.71 L47.4602 1064.82 L62.0058 1064.82 L62.0058 1045.82 L47.4602 1045.82 L47.4602 1039.93 L83.1082 1039.93 L83.1082 1045.82 L66.6846 1045.82 L66.6846 1064.82 L83.1082 1064.82 L83.1082 1070.71 L47.4602 1070.71 Z" fill="#000000" fill-rule="nonzero" fill-opacity="1" /><path clip-path="url(#clip410)" d="M47.4602 1028.09 L47.4602 1022.26 L64.202 1022.26 L47.4602 1005.75 L47.4602 998.553 L61.242 1012.18 L83.1082 996.802 L83.1082 1003.36 L65.125 1015.99 L71.4907 1022.26 L83.1082 1022.26 L83.1082 1028.09 L47.4602 1028.09 Z" fill="#000000" fill-rule="nonzero" fill-opacity="1" /><path clip-path="url(#clip410)" d="M65.1887 972.294 Q65.1887 979.392 66.8119 982.129 Q68.4352 984.866 72.3501 984.866 Q75.4693 984.866 77.3154 982.829 Q79.1296 980.761 79.1296 977.228 Q79.1296 972.358 75.6921 969.43 Q72.2228 966.47 66.4937 966.47 L65.1887 966.47 L65.1887 972.294 M62.7697 960.613 L83.1082 960.613 L83.1082 966.47 L77.6973 966.47 Q80.9438 968.475 82.5034 971.467 Q84.0312 974.459 84.0312 978.787 Q84.0312 984.262 80.9756 987.508 Q77.8883 990.723 72.7321 990.723 Q66.7165 990.723 63.6609 986.713 Q60.6054 982.67 60.6054 974.681 L60.6054 966.47 L60.0325 966.47 Q55.9902 966.47 53.7941 969.143 Q51.5661 971.785 51.5661 976.591 Q51.5661 979.647 52.2981 982.543 Q53.0302 985.439 54.4943 988.113 L49.0835 988.113 Q47.8421 984.898 47.2374 981.875 Q46.6008 978.851 46.6008 975.986 Q46.6008 968.252 50.6112 964.433 Q54.6216 960.613 62.7697 960.613 Z" fill="#000000" fill-rule="nonzero" fill-opacity="1" /><path clip-path="url(#clip410)" d="M66.6846 922.196 L78.4294 922.196 L78.4294 913.857 Q78.4294 909.847 76.9334 907.746 Q75.4057 905.645 72.5411 905.645 Q69.6765 905.645 68.1806 907.746 Q66.6846 909.847 66.6846 913.857 L66.6846 922.196 M52.139 922.196 L62.0058 922.196 L62.0058 914.494 Q62.0058 911.183 60.7009 909.083 Q59.3641 906.982 57.0088 906.982 Q54.6534 906.982 53.4121 909.083 Q52.139 911.183 52.139 914.494 L52.139 922.196 M47.4602 928.053 L47.4602 914.112 Q47.4602 907.841 49.7519 904.468 Q52.0435 901.094 56.2767 901.094 Q59.555 901.094 61.4966 902.812 Q63.4063 904.531 63.8837 907.905 Q64.6476 903.863 67.0666 901.635 Q69.4855 899.407 73.114 899.407 Q77.8883 899.407 80.4982 903.099 Q83.1082 906.759 83.1082 913.571 L83.1082 928.053 L47.4602 928.053 Z" fill="#000000" fill-rule="nonzero" fill-opacity="1" /><path clip-path="url(#clip410)" d="M63.8201 858.921 L66.6846 858.921 L66.6846 885.848 Q72.7321 885.466 75.9149 882.219 Q79.0659 878.941 79.0659 873.116 Q79.0659 869.743 78.2384 866.592 Q77.4109 863.409 75.7558 860.29 L81.2939 860.29 Q82.6307 863.441 83.331 866.751 Q84.0312 870.061 84.0312 873.467 Q84.0312 881.997 79.0659 886.994 Q74.1007 891.959 65.6343 891.959 Q56.8814 891.959 51.7571 887.248 Q46.6008 882.506 46.6008 874.485 Q46.6008 867.292 51.2478 863.122 Q55.8629 858.921 63.8201 858.921 M62.1013 864.777 Q57.2952 864.841 54.4306 867.483 Q51.5661 870.093 51.5661 874.421 Q51.5661 879.323 54.3352 882.283 Q57.1042 885.211 62.1332 885.657 L62.1013 864.777 Z" fill="#000000" fill-rule="nonzero" fill-opacity="1" /><path clip-path="url(#clip410)" d="M77.761 843.643 L96.6671 843.643 L96.6671 849.532 L47.4602 849.532 L47.4602 843.643 L52.8711 843.643 Q49.6882 841.797 48.1604 838.996 Q46.6008 836.164 46.6008 832.249 Q46.6008 825.756 51.7571 821.713 Q56.9133 817.639 65.316 817.639 Q73.7187 817.639 78.875 821.713 Q84.0312 825.756 84.0312 832.249 Q84.0312 836.164 82.5034 838.996 Q80.9438 841.797 77.761 843.643 M65.316 823.719 Q58.8548 823.719 55.1945 826.392 Q51.5024 829.034 51.5024 833.681 Q51.5024 838.328 55.1945 841.001 Q58.8548 843.643 65.316 843.643 Q71.7772 843.643 75.4693 841.001 Q79.1296 838.328 79.1296 833.681 Q79.1296 829.034 75.4693 826.392 Q71.7772 823.719 65.316 823.719 Z" fill="#000000" fill-rule="nonzero" fill-opacity="1" /><path clip-path="url(#clip410)" d="M51.5661 794.118 Q51.5661 798.829 55.2582 801.566 Q58.9185 804.303 65.316 804.303 Q71.7135 804.303 75.4057 801.598 Q79.0659 798.86 79.0659 794.118 Q79.0659 789.439 75.3738 786.702 Q71.6817 783.965 65.316 783.965 Q58.9821 783.965 55.29 786.702 Q51.5661 789.439 51.5661 794.118 M46.6008 794.118 Q46.6008 786.479 51.5661 782.119 Q56.5313 777.758 65.316 777.758 Q74.0689 777.758 79.0659 782.119 Q84.0312 786.479 84.0312 794.118 Q84.0312 801.789 79.0659 806.149 Q74.0689 810.478 65.316 810.478 Q56.5313 810.478 51.5661 806.149 Q46.6008 801.789 46.6008 794.118 Z" fill="#000000" fill-rule="nonzero" fill-opacity="1" /><path clip-path="url(#clip410)" d="M57.7408 762.162 Q60.3826 762.162 61.8785 760.125 Q63.3745 758.088 63.3745 754.301 L63.3745 746.407 L52.139 746.407 L52.139 754.301 Q52.139 758.088 53.6031 760.125 Q55.0672 762.162 57.7408 762.162 M83.1082 770.501 L67.4803 759.616 Q66.6528 763.308 64.4885 765.759 Q62.2923 768.21 57.7408 768.21 Q52.5846 768.21 50.0383 764.804 Q47.4602 761.366 47.4602 754.46 L47.4602 740.519 L83.1082 740.519 L83.1082 746.407 L68.0533 746.407 L68.0533 753.696 L83.1082 764.199 L83.1082 770.501 Z" fill="#000000" fill-rule="nonzero" fill-opacity="1" /><path clip-path="url(#clip410)" d="M47.4602 733.071 L47.4602 698.919 L52.139 698.919 L52.139 713.114 L83.1082 713.114 L83.1082 718.875 L52.139 718.875 L52.139 733.071 L47.4602 733.071 Z" fill="#000000" fill-rule="nonzero" fill-opacity="1" /><path clip-path="url(#clip410)" d="M47.4602 691.089 L47.4602 685.201 L62.0058 685.201 L62.0058 666.199 L47.4602 666.199 L47.4602 660.311 L83.1082 660.311 L83.1082 666.199 L66.6846 666.199 L66.6846 685.201 L83.1082 685.201 L83.1082 691.089 L47.4602 691.089 Z" fill="#000000" fill-rule="nonzero" fill-opacity="1" /><path clip-path="url(#clip410)" d="M51.5661 634.434 Q51.5661 639.145 55.2582 641.882 Q58.9185 644.619 65.316 644.619 Q71.7135 644.619 75.4057 641.914 Q79.0659 639.177 79.0659 634.434 Q79.0659 629.756 75.3738 627.018 Q71.6817 624.281 65.316 624.281 Q58.9821 624.281 55.29 627.018 Q51.5661 629.756 51.5661 634.434 M46.6008 634.434 Q46.6008 626.795 51.5661 622.435 Q56.5313 618.074 65.316 618.074 Q74.0689 618.074 79.0659 622.435 Q84.0312 626.795 84.0312 634.434 Q84.0312 642.105 79.0659 646.465 Q74.0689 650.794 65.316 650.794 Q56.5313 650.794 51.5661 646.465 Q46.6008 642.105 46.6008 634.434 Z" fill="#000000" fill-rule="nonzero" fill-opacity="1" /><path clip-path="url(#clip410)" d="M48.8288 582.713 L54.3033 582.713 Q52.9347 585.196 52.2663 587.71 Q51.5661 590.193 51.5661 592.739 Q51.5661 598.436 55.1945 601.587 Q58.7912 604.738 65.316 604.738 Q71.8409 604.738 75.4693 601.587 Q79.0659 598.436 79.0659 592.739 Q79.0659 590.193 78.3975 587.71 Q77.6973 585.196 76.3287 582.713 L81.7395 582.713 Q82.8854 585.164 83.4583 587.805 Q84.0312 590.415 84.0312 593.375 Q84.0312 601.428 78.9704 606.171 Q73.9097 610.913 65.316 610.913 Q56.595 610.913 51.5979 606.139 Q46.6008 601.333 46.6008 592.994 Q46.6008 590.288 47.1737 587.71 Q47.7148 585.132 48.8288 582.713 Z" fill="#000000" fill-rule="nonzero" fill-opacity="1" /><path clip-path="url(#clip410)" d="M47.4602 576.761 L47.4602 542.609 L52.139 542.609 L52.139 556.805 L83.1082 556.805 L83.1082 562.565 L52.139 562.565 L52.139 576.761 L47.4602 576.761 Z" fill="#000000" fill-rule="nonzero" fill-opacity="1" /><path clip-path="url(#clip410)" d="M47.4602 504.256 L83.1082 504.256 L83.1082 510.08 L54.4943 510.08 L83.1082 527.268 L83.1082 534.779 L47.4602 534.779 L47.4602 528.955 L76.0104 528.955 L47.4602 511.799 L47.4602 504.256 Z" fill="#000000" fill-rule="nonzero" fill-opacity="1" /><path clip-path="url(#clip410)" d="M40.8717 464.788 L58.7275 464.788 L58.7275 456.704 Q58.7275 452.216 56.404 449.765 Q54.0805 447.314 49.7837 447.314 Q45.5187 447.314 43.1952 449.765 Q40.8717 452.216 40.8717 456.704 L40.8717 464.788 M35.5882 471.218 L35.5882 456.704 Q35.5882 448.715 39.2166 444.641 Q42.8132 440.535 49.7837 440.535 Q56.8178 440.535 60.4144 444.641 Q64.011 448.715 64.011 456.704 L64.011 464.788 L83.1082 464.788 L83.1082 471.218 L35.5882 471.218 Z" fill="#000000" fill-rule="nonzero" fill-opacity="1" /><path clip-path="url(#clip410)" d="M33.6466 418.096 Q40.9672 422.361 48.1286 424.43 Q55.29 426.498 62.6424 426.498 Q69.9948 426.498 77.2199 424.43 Q84.4131 422.329 91.7019 418.096 L91.7019 423.188 Q84.2222 427.963 76.9971 430.35 Q69.772 432.705 62.6424 432.705 Q55.5446 432.705 48.3514 430.35 Q41.1582 427.994 33.6466 423.188 L33.6466 418.096 Z" fill="#000000" fill-rule="nonzero" fill-opacity="1" /><path clip-path="url(#clip410)" d="M51.025 405.969 L45.2322 405.969 L60.0325 365.165 L65.316 365.165 L80.1163 405.969 L74.3235 405.969 L62.7061 373.186 L51.025 405.969 Z" fill="#000000" fill-rule="nonzero" fill-opacity="1" /><path clip-path="url(#clip410)" d="M77.6973 350.174 L77.6973 339.67 L41.4446 339.67 L43.7363 351.097 L37.8798 351.097 L35.5882 339.734 L35.5882 333.305 L77.6973 333.305 L77.6973 322.801 L83.1082 322.801 L83.1082 350.174 L77.6973 350.174 Z" fill="#000000" fill-rule="nonzero" fill-opacity="1" /><path clip-path="url(#clip410)" d="M39.8214 296.065 Q39.8214 301.03 44.7229 303.545 Q49.5927 306.027 59.3959 306.027 Q69.1673 306.027 74.0689 303.545 Q78.9386 301.03 78.9386 296.065 Q78.9386 291.068 74.0689 288.585 Q69.1673 286.071 59.3959 286.071 Q49.5927 286.071 44.7229 288.585 Q39.8214 291.068 39.8214 296.065 M34.7288 296.065 Q34.7288 288.076 41.0627 283.875 Q47.3647 279.642 59.3959 279.642 Q71.3953 279.642 77.7291 283.875 Q84.0312 288.076 84.0312 296.065 Q84.0312 304.054 77.7291 308.287 Q71.3953 312.489 59.3959 312.489 Q47.3647 312.489 41.0627 308.287 Q34.7288 304.054 34.7288 296.065 Z" fill="#000000" fill-rule="nonzero" fill-opacity="1" /><path clip-path="url(#clip410)" d="M33.6466 270.093 L33.6466 265.001 Q41.1582 260.226 48.3514 257.871 Q55.5446 255.484 62.6424 255.484 Q69.772 255.484 76.9971 257.871 Q84.2222 260.226 91.7019 265.001 L91.7019 270.093 Q84.4131 265.86 77.2199 263.791 Q69.9948 261.69 62.6424 261.69 Q55.29 261.69 48.1286 263.791 Q40.9672 265.86 33.6466 270.093 Z" fill="#000000" fill-rule="nonzero" fill-opacity="1" /><path clip-path="url(#clip410)" d="M17.7919 16.7545 L17.7919 25.383 Q13.66 21.5346 8.9609 19.6307 Q4.30236 17.7268 -0.963813 17.7268 Q-11.3341 17.7268 -16.8434 24.0867 Q-22.3526 30.4061 -22.3526 42.3968 Q-22.3526 54.3469 -16.8434 60.7069 Q-11.3341 67.0263 -0.963813 67.0263 Q4.30236 67.0263 8.9609 65.1223 Q13.66 63.2184 17.7919 59.3701 L17.7919 67.9175 Q13.4979 70.8341 8.67734 72.2924 Q3.89727 73.7508 -1.44992 73.7508 Q-15.1825 73.7508 -23.0818 65.3654 Q-30.981 56.9395 -30.981 42.3968 Q-30.981 27.8135 -23.0818 19.4281 Q-15.1825 11.0023 -1.44992 11.0023 Q3.97829 11.0023 8.75836 12.4606 Q13.5789 13.8784 17.7919 16.7545 Z" fill="#000000" fill-rule="nonzero" fill-opacity="1" /><path clip-path="url(#clip410)" d="M67.8205 27.2059 L51.4144 49.2833 L68.6712 72.576 L59.8808 72.576 L46.6748 54.752 L33.4689 72.576 L24.6784 72.576 L42.2998 48.8377 L26.1772 27.2059 L34.9677 27.2059 L46.9989 43.369 L59.0301 27.2059 L67.8205 27.2059 Z" fill="#000000" fill-rule="nonzero" fill-opacity="1" /><path clip-path="url(#clip410)" d="M96.7845 32.4315 Q90.7892 32.4315 87.3054 37.1306 Q83.8216 41.7891 83.8216 49.9314 Q83.8216 58.0738 87.2649 62.7728 Q90.7487 67.4314 96.7845 67.4314 Q102.739 67.4314 106.223 62.7323 Q109.707 58.0333 109.707 49.9314 Q109.707 41.8701 106.223 37.1711 Q102.739 32.4315 96.7845 32.4315 M96.7845 26.1121 Q106.507 26.1121 112.056 32.4315 Q117.606 38.7509 117.606 49.9314 Q117.606 61.0714 112.056 67.4314 Q106.507 73.7508 96.7845 73.7508 Q87.0218 73.7508 81.4721 67.4314 Q75.9629 61.0714 75.9629 49.9314 Q75.9629 38.7509 81.4721 32.4315 Q87.0218 26.1121 96.7845 26.1121 Z" fill="#000000" fill-rule="nonzero" fill-opacity="1" /><path clip-path="url(#clip410)" d="M140.089 66.6212 L161.721 66.6212 L161.721 33.1607 L146.044 33.1607 L146.044 38.832 Q146.044 55.5217 141.263 64.4337 L140.089 66.6212 M129.273 66.6212 Q132.959 65.0008 134.579 61.5575 Q138.549 53.0101 138.549 35.7938 L138.549 27.2059 L169.215 27.2059 L169.215 66.6212 L175.17 66.6212 L175.17 84.0401 L169.215 84.0401 L169.215 72.576 L132.432 72.576 L132.432 84.0401 L126.478 84.0401 L126.478 66.6212 L129.273 66.6212 Z" fill="#000000" fill-rule="nonzero" fill-opacity="1" /><path clip-path="url(#clip410)" d="M225.887 27.2059 L225.887 72.576 L218.474 72.576 L218.474 36.1584 L196.599 72.576 L187.039 72.576 L187.039 27.2059 L194.452 27.2059 L194.452 63.5425 L216.286 27.2059 L225.887 27.2059 Z" fill="#000000" fill-rule="nonzero" fill-opacity="1" /><path clip-path="url(#clip410)" d="M240.956 27.2059 L251.853 27.2059 L264.735 57.5877 L277.657 27.2059 L288.473 27.2059 L288.473 72.576 L280.979 72.576 L280.979 34.3355 L268.462 63.8666 L261.008 63.8666 L248.45 34.3355 L248.45 72.576 L240.956 72.576 L240.956 27.2059 Z" fill="#000000" fill-rule="nonzero" fill-opacity="1" /><path clip-path="url(#clip410)" d="M321.407 32.4315 Q315.412 32.4315 311.928 37.1306 Q308.444 41.7891 308.444 49.9314 Q308.444 58.0738 311.888 62.7728 Q315.371 67.4314 321.407 67.4314 Q327.362 67.4314 330.846 62.7323 Q334.33 58.0333 334.33 49.9314 Q334.33 41.8701 330.846 37.1711 Q327.362 32.4315 321.407 32.4315 M321.407 26.1121 Q331.129 26.1121 336.679 32.4315 Q342.229 38.7509 342.229 49.9314 Q342.229 61.0714 336.679 67.4314 Q331.129 73.7508 321.407 73.7508 Q311.644 73.7508 306.095 67.4314 Q300.585 61.0714 300.585 49.9314 Q300.585 38.7509 306.095 32.4315 Q311.644 26.1121 321.407 26.1121 Z" fill="#000000" fill-rule="nonzero" fill-opacity="1" /><path clip-path="url(#clip410)" d="M387.234 28.9478 L387.234 35.9153 Q384.075 34.1734 380.874 33.3227 Q377.715 32.4315 374.474 32.4315 Q367.223 32.4315 363.212 37.0496 Q359.202 41.6271 359.202 49.9314 Q359.202 58.2358 363.212 62.8538 Q367.223 67.4314 374.474 67.4314 Q377.715 67.4314 380.874 66.5807 Q384.075 65.6895 387.234 63.9476 L387.234 70.8341 Q384.115 72.2924 380.753 73.0216 Q377.431 73.7508 373.664 73.7508 Q363.415 73.7508 357.379 67.3098 Q351.343 60.8689 351.343 49.9314 Q351.343 38.832 357.42 32.472 Q363.537 26.1121 374.15 26.1121 Q377.593 26.1121 380.874 26.8413 Q384.156 27.5299 387.234 28.9478 Z" fill="#000000" fill-rule="nonzero" fill-opacity="1" /><path clip-path="url(#clip410)" d="M394.81 27.2059 L438.276 27.2059 L438.276 33.1607 L420.209 33.1607 L420.209 72.576 L412.877 72.576 L412.877 33.1607 L394.81 33.1607 L394.81 27.2059 Z" fill="#000000" fill-rule="nonzero" fill-opacity="1" /><path clip-path="url(#clip410)" d="M476.759 59.127 Q476.759 55.4812 474.086 53.5773 Q471.453 51.6733 466.348 51.6733 L455.735 51.6733 L455.735 66.6212 L466.348 66.6212 Q471.453 66.6212 474.086 64.7172 Q476.759 62.7728 476.759 59.127 M448.241 27.2059 L455.735 27.2059 L455.735 45.7185 L466.673 45.7185 Q475.342 45.7185 480 49.0402 Q484.699 52.3215 484.699 59.127 Q484.699 65.9325 480 69.2543 Q475.342 72.576 466.673 72.576 L448.241 72.576 L448.241 27.2059 Z" fill="#000000" fill-rule="nonzero" fill-opacity="1" /><path clip-path="url(#clip410)" d="M541.371 32.4315 Q535.376 32.4315 531.892 37.1306 Q528.408 41.7891 528.408 49.9314 Q528.408 58.0738 531.852 62.7728 Q535.335 67.4314 541.371 67.4314 Q547.326 67.4314 550.81 62.7323 Q554.294 58.0333 554.294 49.9314 Q554.294 41.8701 550.81 37.1711 Q547.326 32.4315 541.371 32.4315 M541.371 26.1121 Q551.093 26.1121 556.643 32.4315 Q562.193 38.7509 562.193 49.9314 Q562.193 61.0714 556.643 67.4314 Q551.093 73.7508 541.371 73.7508 Q531.609 73.7508 526.059 67.4314 Q520.55 61.0714 520.55 49.9314 Q520.55 38.7509 526.059 32.4315 Q531.609 26.1121 541.371 26.1121 Z" fill="#000000" fill-rule="nonzero" fill-opacity="1" /><path clip-path="url(#clip410)" d="M613.437 72.576 L574.265 72.576 L574.265 27.2059 L581.759 27.2059 L581.759 66.6212 L605.943 66.6212 L605.943 27.2059 L613.437 27.2059 L613.437 66.6212 L619.392 66.6212 L619.392 84.0401 L613.437 84.0401 L613.437 72.576 Z" fill="#000000" fill-rule="nonzero" fill-opacity="1" /><path clip-path="url(#clip410)" d="M669.825 48.0275 L669.825 51.6733 L635.555 51.6733 Q636.041 59.3701 640.173 63.421 Q644.345 67.4314 651.758 67.4314 Q656.052 67.4314 660.063 66.3781 Q664.114 65.3249 668.084 63.2184 L668.084 70.267 Q664.073 71.9684 659.86 72.8596 Q655.647 73.7508 651.313 73.7508 Q640.456 73.7508 634.096 67.4314 Q627.777 61.1119 627.777 50.3365 Q627.777 39.1965 633.772 32.6746 Q639.808 26.1121 650.016 26.1121 Q659.172 26.1121 664.478 32.0264 Q669.825 37.9003 669.825 48.0275 M662.372 45.84 Q662.291 39.7232 658.928 36.0774 Q655.607 32.4315 650.098 32.4315 Q643.859 32.4315 640.092 35.9558 Q636.365 39.4801 635.798 45.8805 L662.372 45.84 Z" fill="#000000" fill-rule="nonzero" fill-opacity="1" /><path clip-path="url(#clip410)" d="M681.776 27.2059 L689.27 27.2059 L689.27 45.7185 L713.454 45.7185 L713.454 27.2059 L720.948 27.2059 L720.948 72.576 L713.454 72.576 L713.454 51.6733 L689.27 51.6733 L689.27 72.576 L681.776 72.576 L681.776 27.2059 Z" fill="#000000" fill-rule="nonzero" fill-opacity="1" /><path clip-path="url(#clip410)" d="M736.017 27.2059 L743.43 27.2059 L743.43 48.5136 L764.455 27.2059 L773.61 27.2059 L756.272 44.7463 L775.838 72.576 L767.493 72.576 L751.411 49.6884 L743.43 57.7902 L743.43 72.576 L736.017 72.576 L736.017 27.2059 Z" fill="#000000" fill-rule="nonzero" fill-opacity="1" /><path clip-path="url(#clip410)" d="M824.975 27.2059 L824.975 72.576 L817.562 72.576 L817.562 36.1584 L795.687 72.576 L786.127 72.576 L786.127 27.2059 L793.54 27.2059 L793.54 63.5425 L815.374 27.2059 L824.975 27.2059 Z" fill="#000000" fill-rule="nonzero" fill-opacity="1" /><path clip-path="url(#clip410)" d="M873.869 51.6733 L873.869 66.6212 L884.483 66.6212 Q889.587 66.6212 892.261 64.7172 Q894.934 62.7728 894.934 59.127 Q894.934 55.4812 892.261 53.5773 Q889.587 51.6733 884.483 51.6733 L873.869 51.6733 M873.869 33.1607 L873.869 45.7185 L883.673 45.7185 Q887.886 45.7185 890.559 44.0576 Q893.233 42.3563 893.233 39.3586 Q893.233 36.3609 890.559 34.7811 Q887.886 33.1607 883.673 33.1607 L873.869 33.1607 M866.416 27.2059 L884.159 27.2059 Q892.139 27.2059 896.433 30.1225 Q900.727 33.0392 900.727 38.4269 Q900.727 42.5993 898.539 45.0704 Q896.352 47.5009 892.058 48.1085 Q897.203 49.0808 900.038 52.1594 Q902.874 55.2381 902.874 59.8562 Q902.874 65.9325 898.175 69.2543 Q893.516 72.576 884.847 72.576 L866.416 72.576 L866.416 27.2059 Z" fill="#000000" fill-rule="nonzero" fill-opacity="1" /><path clip-path="url(#clip410)" d="M954.401 48.0275 L954.401 51.6733 L920.131 51.6733 Q920.617 59.3701 924.749 63.421 Q928.921 67.4314 936.334 67.4314 Q940.628 67.4314 944.639 66.3781 Q948.69 65.3249 952.66 63.2184 L952.66 70.267 Q948.649 71.9684 944.436 72.8596 Q940.223 73.7508 935.889 73.7508 Q925.032 73.7508 918.672 67.4314 Q912.353 61.1119 912.353 50.3365 Q912.353 39.1965 918.348 32.6746 Q924.384 26.1121 934.593 26.1121 Q943.748 26.1121 949.054 32.0264 Q954.401 37.9003 954.401 48.0275 M946.948 45.84 Q946.867 39.7232 943.505 36.0774 Q940.183 32.4315 934.674 32.4315 Q928.435 32.4315 924.668 35.9558 Q920.941 39.4801 920.374 45.8805 L946.948 45.84 Z" fill="#000000" fill-rule="nonzero" fill-opacity="1" /><path clip-path="url(#clip410)" d="M973.846 65.7705 L973.846 89.8329 L966.352 89.8329 L966.352 27.2059 L973.846 27.2059 L973.846 34.0924 Q976.195 30.0415 979.76 28.0971 Q983.365 26.1121 988.348 26.1121 Q996.612 26.1121 1001.76 32.6746 Q1006.94 39.2371 1006.94 49.9314 Q1006.94 60.6258 1001.76 67.1883 Q996.612 73.7508 988.348 73.7508 Q983.365 73.7508 979.76 71.8063 Q976.195 69.8214 973.846 65.7705 M999.204 49.9314 Q999.204 41.7081 995.802 37.0496 Q992.439 32.3505 986.525 32.3505 Q980.611 32.3505 977.208 37.0496 Q973.846 41.7081 973.846 49.9314 Q973.846 58.1548 977.208 62.8538 Q980.611 67.5124 986.525 67.5124 Q992.439 67.5124 995.802 62.8538 Q999.204 58.1548 999.204 49.9314 Z" fill="#000000" fill-rule="nonzero" fill-opacity="1" /><path clip-path="url(#clip410)" d="M1036.88 32.4315 Q1030.88 32.4315 1027.4 37.1306 Q1023.91 41.7891 1023.91 49.9314 Q1023.91 58.0738 1027.36 62.7728 Q1030.84 67.4314 1036.88 67.4314 Q1042.83 67.4314 1046.32 62.7323 Q1049.8 58.0333 1049.8 49.9314 Q1049.8 41.8701 1046.32 37.1711 Q1042.83 32.4315 1036.88 32.4315 M1036.88 26.1121 Q1046.6 26.1121 1052.15 32.4315 Q1057.7 38.7509 1057.7 49.9314 Q1057.7 61.0714 1052.15 67.4314 Q1046.6 73.7508 1036.88 73.7508 Q1027.12 73.7508 1021.57 67.4314 Q1016.06 61.0714 1016.06 49.9314 Q1016.06 38.7509 1021.57 32.4315 Q1027.12 26.1121 1036.88 26.1121 Z" fill="#000000" fill-rule="nonzero" fill-opacity="1" /><path clip-path="url(#clip410)" d="M1077.55 40.2903 Q1077.55 43.6525 1080.14 45.5565 Q1082.73 47.4604 1087.55 47.4604 L1097.6 47.4604 L1097.6 33.1607 L1087.55 33.1607 Q1082.73 33.1607 1080.14 35.0241 Q1077.55 36.8875 1077.55 40.2903 M1066.94 72.576 L1080.79 52.6861 Q1076.09 51.6328 1072.97 48.8782 Q1069.85 46.0831 1069.85 40.2903 Q1069.85 33.7278 1074.19 30.4871 Q1078.56 27.2059 1087.35 27.2059 L1105.1 27.2059 L1105.1 72.576 L1097.6 72.576 L1097.6 53.4152 L1088.32 53.4152 L1074.96 72.576 L1066.94 72.576 Z" fill="#000000" fill-rule="nonzero" fill-opacity="1" /><path clip-path="url(#clip410)" d="M1114.57 27.2059 L1158.04 27.2059 L1158.04 33.1607 L1139.97 33.1607 L1139.97 72.576 L1132.64 72.576 L1132.64 33.1607 L1114.57 33.1607 L1114.57 27.2059 Z" fill="#000000" fill-rule="nonzero" fill-opacity="1" /><path clip-path="url(#clip410)" d="M1168.01 27.2059 L1175.5 27.2059 L1175.5 45.7185 L1199.68 45.7185 L1199.68 27.2059 L1207.18 27.2059 L1207.18 72.576 L1199.68 72.576 L1199.68 51.6733 L1175.5 51.6733 L1175.5 72.576 L1168.01 72.576 L1168.01 27.2059 Z" fill="#000000" fill-rule="nonzero" fill-opacity="1" /><path clip-path="url(#clip410)" d="M1240.11 32.4315 Q1234.12 32.4315 1230.63 37.1306 Q1227.15 41.7891 1227.15 49.9314 Q1227.15 58.0738 1230.59 62.7728 Q1234.08 67.4314 1240.11 67.4314 Q1246.07 67.4314 1249.55 62.7323 Q1253.03 58.0333 1253.03 49.9314 Q1253.03 41.8701 1249.55 37.1711 Q1246.07 32.4315 1240.11 32.4315 M1240.11 26.1121 Q1249.83 26.1121 1255.38 32.4315 Q1260.93 38.7509 1260.93 49.9314 Q1260.93 61.0714 1255.38 67.4314 Q1249.83 73.7508 1240.11 73.7508 Q1230.35 73.7508 1224.8 67.4314 Q1219.29 61.0714 1219.29 49.9314 Q1219.29 38.7509 1224.8 32.4315 Q1230.35 26.1121 1240.11 26.1121 Z" fill="#000000" fill-rule="nonzero" fill-opacity="1" /><path clip-path="url(#clip410)" d="M1305.94 28.9478 L1305.94 35.9153 Q1302.78 34.1734 1299.58 33.3227 Q1296.42 32.4315 1293.18 32.4315 Q1285.93 32.4315 1281.92 37.0496 Q1277.91 41.6271 1277.91 49.9314 Q1277.91 58.2358 1281.92 62.8538 Q1285.93 67.4314 1293.18 67.4314 Q1296.42 67.4314 1299.58 66.5807 Q1302.78 65.6895 1305.94 63.9476 L1305.94 70.8341 Q1302.82 72.2924 1299.46 73.0216 Q1296.14 73.7508 1292.37 73.7508 Q1282.12 73.7508 1276.08 67.3098 Q1270.05 60.8689 1270.05 49.9314 Q1270.05 38.832 1276.12 32.472 Q1282.24 26.1121 1292.85 26.1121 Q1296.3 26.1121 1299.58 26.8413 Q1302.86 27.5299 1305.94 28.9478 Z" fill="#000000" fill-rule="nonzero" fill-opacity="1" /><path clip-path="url(#clip410)" d="M1313.51 27.2059 L1356.98 27.2059 L1356.98 33.1607 L1338.91 33.1607 L1338.91 72.576 L1331.58 72.576 L1331.58 33.1607 L1313.51 33.1607 L1313.51 27.2059 Z" fill="#000000" fill-rule="nonzero" fill-opacity="1" /><path clip-path="url(#clip410)" d="M1405.79 27.2059 L1405.79 72.576 L1398.38 72.576 L1398.38 36.1584 L1376.51 72.576 L1366.95 72.576 L1366.95 27.2059 L1374.36 27.2059 L1374.36 63.5425 L1396.19 27.2059 L1405.79 27.2059 Z" fill="#000000" fill-rule="nonzero" fill-opacity="1" /><path clip-path="url(#clip410)" d="M1456.02 18.8205 L1456.02 41.5461 L1466.31 41.5461 Q1472.03 41.5461 1475.15 38.5889 Q1478.26 35.6318 1478.26 30.163 Q1478.26 24.7348 1475.15 21.7777 Q1472.03 18.8205 1466.31 18.8205 L1456.02 18.8205 M1447.84 12.096 L1466.31 12.096 Q1476.48 12.096 1481.67 16.714 Q1486.89 21.2916 1486.89 30.163 Q1486.89 39.1155 1481.67 43.6931 Q1476.48 48.2706 1466.31 48.2706 L1456.02 48.2706 L1456.02 72.576 L1447.84 72.576 L1447.84 12.096 Z" fill="#000000" fill-rule="nonzero" fill-opacity="1" /><path clip-path="url(#clip410)" d="M1515.45 9.62495 Q1510.02 18.942 1507.39 28.0566 Q1504.76 37.1711 1504.76 46.5287 Q1504.76 55.8863 1507.39 65.0818 Q1510.06 74.2369 1515.45 83.5134 L1508.97 83.5134 Q1502.89 73.9938 1499.86 64.7983 Q1496.86 55.6027 1496.86 46.5287 Q1496.86 37.4952 1499.86 28.3401 Q1502.85 19.1851 1508.97 9.62495 L1515.45 9.62495 Z" fill="#000000" fill-rule="nonzero" fill-opacity="1" /><path clip-path="url(#clip410)" d="M1530.89 31.7429 L1530.89 24.3702 L1582.82 43.2069 L1582.82 49.9314 L1530.89 68.7682 L1530.89 61.3955 L1572.61 46.6097 L1530.89 31.7429 Z" fill="#000000" fill-rule="nonzero" fill-opacity="1" /><path clip-path="url(#clip410)" d="M1601.9 65.6895 L1615.27 65.6895 L1615.27 19.5497 L1600.72 22.4663 L1600.72 15.0127 L1615.18 12.096 L1623.37 12.096 L1623.37 65.6895 L1636.74 65.6895 L1636.74 72.576 L1601.9 72.576 L1601.9 65.6895 Z" fill="#000000" fill-rule="nonzero" fill-opacity="1" /><path clip-path="url(#clip410)" d="M1670.76 17.4837 Q1664.44 17.4837 1661.24 23.7221 Q1658.08 29.92 1658.08 42.3968 Q1658.08 54.833 1661.24 61.0714 Q1664.44 67.2693 1670.76 67.2693 Q1677.12 67.2693 1680.28 61.0714 Q1683.48 54.833 1683.48 42.3968 Q1683.48 29.92 1680.28 23.7221 Q1677.12 17.4837 1670.76 17.4837 M1670.76 11.0023 Q1680.93 11.0023 1686.28 19.0636 Q1691.67 27.0843 1691.67 42.3968 Q1691.67 57.6687 1686.28 65.73 Q1680.93 73.7508 1670.76 73.7508 Q1660.6 73.7508 1655.21 65.73 Q1649.86 57.6687 1649.86 42.3968 Q1649.86 27.0843 1655.21 19.0636 Q1660.6 11.0023 1670.76 11.0023 Z" fill="#000000" fill-rule="nonzero" fill-opacity="1" /><path clip-path="url(#clip410)" d="M1703.82 9.62495 L1710.3 9.62495 Q1716.38 19.1851 1719.37 28.3401 Q1722.41 37.4952 1722.41 46.5287 Q1722.41 55.6027 1719.37 64.7983 Q1716.38 73.9938 1710.3 83.5134 L1703.82 83.5134 Q1709.21 74.2369 1711.84 65.0818 Q1714.51 55.8863 1714.51 46.5287 Q1714.51 37.1711 1711.84 28.0566 Q1709.21 18.942 1703.82 9.62495 Z" fill="#000000" fill-rule="nonzero" fill-opacity="1" /><path clip-path="url(#clip410)" d="M1802.62 27.2059 L1802.62 72.576 L1795.13 72.576 L1795.13 33.1607 L1770.94 33.1607 L1770.94 72.576 L1763.45 72.576 L1763.45 27.2059 L1802.62 27.2059 Z" fill="#000000" fill-rule="nonzero" fill-opacity="1" /><path clip-path="url(#clip410)" d="M1825.18 65.7705 L1825.18 89.8329 L1817.69 89.8329 L1817.69 27.2059 L1825.18 27.2059 L1825.18 34.0924 Q1827.53 30.0415 1831.1 28.0971 Q1834.7 26.1121 1839.69 26.1121 Q1847.95 26.1121 1853.09 32.6746 Q1858.28 39.2371 1858.28 49.9314 Q1858.28 60.6258 1853.09 67.1883 Q1847.95 73.7508 1839.69 73.7508 Q1834.7 73.7508 1831.1 71.8063 Q1827.53 69.8214 1825.18 65.7705 M1850.54 49.9314 Q1850.54 41.7081 1847.14 37.0496 Q1843.78 32.3505 1837.86 32.3505 Q1831.95 32.3505 1828.55 37.0496 Q1825.18 41.7081 1825.18 49.9314 Q1825.18 58.1548 1828.55 62.8538 Q1831.95 67.5124 1837.86 67.5124 Q1843.78 67.5124 1847.14 62.8538 Q1850.54 58.1548 1850.54 49.9314 Z" fill="#000000" fill-rule="nonzero" fill-opacity="1" /><path clip-path="url(#clip410)" d="M1909.2 27.2059 L1909.2 72.576 L1901.79 72.576 L1901.79 36.1584 L1879.91 72.576 L1870.35 72.576 L1870.35 27.2059 L1877.76 27.2059 L1877.76 63.5425 L1899.6 27.2059 L1909.2 27.2059 Z" fill="#000000" fill-rule="nonzero" fill-opacity="1" /><path clip-path="url(#clip410)" d="M1968.79 16.633 L1989.73 72.576 L1981.83 72.576 L1969.11 39.0345 L1953.48 72.576 L1945.58 72.576 L1965.47 29.0693 L1962.47 21.0485 Q1960.57 15.9444 1956.23 15.9444 L1952.34 15.9444 L1952.34 9.54393 L1957.08 9.62495 Q1966.24 9.74648 1968.79 16.633 Z" fill="#000000" fill-rule="nonzero" fill-opacity="1" /><path clip-path="url(#clip410)" d="M2000.99 34.9026 L2052.93 34.9026 L2052.93 41.7081 L2000.99 41.7081 L2000.99 34.9026 M2000.99 51.4303 L2052.93 51.4303 L2052.93 58.3168 L2000.99 58.3168 L2000.99 51.4303 Z" fill="#000000" fill-rule="nonzero" fill-opacity="1" /><path clip-path="url(#clip410)" d="M2070.67 12.096 L2102.79 12.096 L2102.79 18.9825 L2078.16 18.9825 L2078.16 33.8088 Q2079.95 33.2012 2081.73 32.9176 Q2083.51 32.5936 2085.29 32.5936 Q2095.42 32.5936 2101.33 38.1433 Q2107.25 43.6931 2107.25 53.1722 Q2107.25 62.9348 2101.17 68.3631 Q2095.1 73.7508 2084.04 73.7508 Q2080.23 73.7508 2076.26 73.1026 Q2072.33 72.4545 2068.12 71.1582 L2068.12 62.9348 Q2071.76 64.9198 2075.65 65.892 Q2079.54 66.8642 2083.87 66.8642 Q2090.88 66.8642 2094.97 63.1779 Q2099.07 59.4916 2099.07 53.1722 Q2099.07 46.8528 2094.97 43.1664 Q2090.88 39.4801 2083.87 39.4801 Q2080.59 39.4801 2077.31 40.2093 Q2074.07 40.9384 2070.67 42.4778 L2070.67 12.096 Z" fill="#000000" fill-rule="nonzero" fill-opacity="1" /><path clip-path="url(#clip410)" d="M2123.37 62.2867 L2131.92 62.2867 L2131.92 72.576 L2123.37 72.576 L2123.37 62.2867 Z" fill="#000000" fill-rule="nonzero" fill-opacity="1" /><path clip-path="url(#clip410)" d="M2167.24 17.4837 Q2160.92 17.4837 2157.72 23.7221 Q2154.56 29.92 2154.56 42.3968 Q2154.56 54.833 2157.72 61.0714 Q2160.92 67.2693 2167.24 67.2693 Q2173.6 67.2693 2176.76 61.0714 Q2179.96 54.833 2179.96 42.3968 Q2179.96 29.92 2176.76 23.7221 Q2173.6 17.4837 2167.24 17.4837 M2167.24 11.0023 Q2177.41 11.0023 2182.76 19.0636 Q2188.14 27.0843 2188.14 42.3968 Q2188.14 57.6687 2182.76 65.73 Q2177.41 73.7508 2167.24 73.7508 Q2157.07 73.7508 2151.69 65.73 Q2146.34 57.6687 2146.34 42.3968 Q2146.34 27.0843 2151.69 19.0636 Q2157.07 11.0023 2167.24 11.0023 Z" fill="#000000" fill-rule="nonzero" fill-opacity="1" /><polyline clip-path="url(#clip412)" style="stroke:#009af9; stroke-linecap:round; stroke-linejoin:round; stroke-width:4; stroke-opacity:1; fill:none" points="329.361,1294.9 591.203,169.335 703.972,732.116 965.813,281.891 1078.58,507.004 1340.42,394.447 1453.19,557.654 1715.03,529.515 1827.8,512.631 "/>
<circle clip-path="url(#clip412)" cx="329.361" cy="1294.9" r="14.4" fill="#009af9" fill-rule="evenodd" fill-opacity="1" stroke="#000000" stroke-opacity="1" stroke-width="3.072"/>
<circle clip-path="url(#clip412)" cx="591.203" cy="169.335" r="14.4" fill="#009af9" fill-rule="evenodd" fill-opacity="1" stroke="#000000" stroke-opacity="1" stroke-width="3.072"/>
<circle clip-path="url(#clip412)" cx="703.972" cy="732.116" r="14.4" fill="#009af9" fill-rule="evenodd" fill-opacity="1" stroke="#000000" stroke-opacity="1" stroke-width="3.072"/>
<circle clip-path="url(#clip412)" cx="965.813" cy="281.891" r="14.4" fill="#009af9" fill-rule="evenodd" fill-opacity="1" stroke="#000000" stroke-opacity="1" stroke-width="3.072"/>
<circle clip-path="url(#clip412)" cx="1078.58" cy="507.004" r="14.4" fill="#009af9" fill-rule="evenodd" fill-opacity="1" stroke="#000000" stroke-opacity="1" stroke-width="3.072"/>
<circle clip-path="url(#clip412)" cx="1340.42" cy="394.447" r="14.4" fill="#009af9" fill-rule="evenodd" fill-opacity="1" stroke="#000000" stroke-opacity="1" stroke-width="3.072"/>
<circle clip-path="url(#clip412)" cx="1453.19" cy="557.654" r="14.4" fill="#009af9" fill-rule="evenodd" fill-opacity="1" stroke="#000000" stroke-opacity="1" stroke-width="3.072"/>
<circle clip-path="url(#clip412)" cx="1715.03" cy="529.515" r="14.4" fill="#009af9" fill-rule="evenodd" fill-opacity="1" stroke="#000000" stroke-opacity="1" stroke-width="3.072"/>
<circle clip-path="url(#clip412)" cx="1827.8" cy="512.631" r="14.4" fill="#009af9" fill-rule="evenodd" fill-opacity="1" stroke="#000000" stroke-opacity="1" stroke-width="3.072"/>
<polyline clip-path="url(#clip412)" style="stroke:#ff0000; stroke-linecap:round; stroke-linejoin:round; stroke-width:8; stroke-opacity:1; fill:none" stroke-dasharray="32, 20" points="-1303.94,524.153 3461.1,524.153 "/>
<path clip-path="url(#clip410)" d="M1040.03 1288.89 L1819.81 1288.89 L1819.81 1133.37 L1040.03 1133.37  Z" fill="#ffffff" fill-rule="evenodd" fill-opacity="1"/>
<polyline clip-path="url(#clip410)" style="stroke:#000000; stroke-linecap:round; stroke-linejoin:round; stroke-width:4; stroke-opacity:1; fill:none" points="1040.03,1288.89 1819.81,1288.89 1819.81,1133.37 1040.03,1133.37 1040.03,1288.89 "/>
<polyline clip-path="url(#clip410)" style="stroke:#009af9; stroke-linecap:round; stroke-linejoin:round; stroke-width:4; stroke-opacity:1; fill:none" points="1057.68,1185.21 1163.57,1185.21 "/>
<circle clip-path="url(#clip410)" cx="1110.62" cy="1185.21" r="14.7069" fill="#009af9" fill-rule="evenodd" fill-opacity="1" stroke="#000000" stroke-opacity="1" stroke-width="4.36907"/>
<path clip-path="url(#clip410)" d="M1181.22 1194.95 Q1186.1 1199.32 1192.03 1199.32 Q1198.14 1199.32 1200.89 1196.04 Q1203.65 1192.75 1204.16 1187.22 L1185.68 1187.22 L1185.68 1183.28 L1204.16 1183.28 Q1203.65 1177.75 1200.89 1174.46 Q1198.14 1171.15 1192.03 1171.15 Q1186.1 1171.15 1181.22 1175.53 L1181.22 1170.6 Q1186.03 1167.31 1192.3 1167.31 Q1200.06 1167.31 1204.57 1172.12 Q1209.09 1176.92 1209.09 1185.23 Q1209.09 1193.56 1204.57 1198.37 Q1200.06 1203.17 1192.3 1203.17 Q1186.12 1203.17 1181.22 1199.83 L1181.22 1194.95 Z" fill="#000000" fill-rule="nonzero" fill-opacity="1" /><path clip-path="url(#clip410)" d="M1216.05 1176.57 L1222.28 1176.57 L1229.64 1193.93 L1237.03 1176.57 L1243.21 1176.57 L1243.21 1202.49 L1238.92 1202.49 L1238.92 1180.64 L1231.77 1197.52 L1227.51 1197.52 L1220.34 1180.64 L1220.34 1202.49 L1216.05 1202.49 L1216.05 1176.57 Z" fill="#000000" fill-rule="nonzero" fill-opacity="1" /><path clip-path="url(#clip410)" d="M1274.2 1176.57 L1274.2 1202.49 L1269.92 1202.49 L1269.92 1179.97 L1256.1 1179.97 L1256.1 1202.49 L1251.82 1202.49 L1251.82 1176.57 L1274.2 1176.57 Z" fill="#000000" fill-rule="nonzero" fill-opacity="1" /><path clip-path="url(#clip410)" d="M1305.01 1176.57 L1305.01 1202.49 L1300.78 1202.49 L1300.78 1181.68 L1288.28 1202.49 L1282.81 1202.49 L1282.81 1176.57 L1287.05 1176.57 L1287.05 1197.33 L1299.53 1176.57 L1305.01 1176.57 Z" fill="#000000" fill-rule="nonzero" fill-opacity="1" /><path clip-path="url(#clip410)" d="M1317.91 1198.61 L1317.91 1212.36 L1313.62 1212.36 L1313.62 1176.57 L1317.91 1176.57 L1317.91 1180.5 Q1319.25 1178.19 1321.29 1177.08 Q1323.35 1175.94 1326.19 1175.94 Q1330.92 1175.94 1333.85 1179.69 Q1336.82 1183.44 1336.82 1189.55 Q1336.82 1195.67 1333.85 1199.42 Q1330.92 1203.17 1326.19 1203.17 Q1323.35 1203.17 1321.29 1202.05 Q1319.25 1200.92 1317.91 1198.61 M1332.4 1189.55 Q1332.4 1184.86 1330.45 1182.19 Q1328.53 1179.51 1325.15 1179.51 Q1321.77 1179.51 1319.83 1182.19 Q1317.91 1184.86 1317.91 1189.55 Q1317.91 1194.25 1319.83 1196.94 Q1321.77 1199.6 1325.15 1199.6 Q1328.53 1199.6 1330.45 1196.94 Q1332.4 1194.25 1332.4 1189.55 Z" fill="#000000" fill-rule="nonzero" fill-opacity="1" /><path clip-path="url(#clip410)" d="M1365.91 1176.57 L1365.91 1202.49 L1361.68 1202.49 L1361.68 1181.68 L1349.18 1202.49 L1343.72 1202.49 L1343.72 1176.57 L1347.95 1176.57 L1347.95 1197.33 L1360.43 1176.57 L1365.91 1176.57 Z" fill="#000000" fill-rule="nonzero" fill-opacity="1" /><path clip-path="url(#clip410)" d="M1389.66 1202.49 L1389.66 1191.59 L1381.73 1191.59 Q1378.18 1191.59 1375.82 1189.39 Q1373.69 1187.4 1373.69 1183.14 L1373.69 1176.57 L1377.95 1176.57 L1377.95 1182.75 Q1377.95 1185.46 1379.16 1186.82 Q1380.38 1188.19 1382.79 1188.19 L1389.66 1188.19 L1389.66 1176.57 L1393.92 1176.57 L1393.92 1202.49 L1389.66 1202.49 Z" fill="#000000" fill-rule="nonzero" fill-opacity="1" /><path clip-path="url(#clip410)" d="M1424.87 1188.47 L1424.87 1190.55 L1405.29 1190.55 Q1405.57 1194.95 1407.93 1197.26 Q1410.31 1199.55 1414.55 1199.55 Q1417 1199.55 1419.29 1198.95 Q1421.61 1198.35 1423.88 1197.15 L1423.88 1201.17 Q1421.59 1202.15 1419.18 1202.66 Q1416.77 1203.17 1414.29 1203.17 Q1408.09 1203.17 1404.46 1199.55 Q1400.85 1195.94 1400.85 1189.79 Q1400.85 1183.42 1404.27 1179.69 Q1407.72 1175.94 1413.55 1175.94 Q1418.79 1175.94 1421.82 1179.32 Q1424.87 1182.68 1424.87 1188.47 M1420.61 1187.22 Q1420.57 1183.72 1418.65 1181.64 Q1416.75 1179.55 1413.6 1179.55 Q1410.04 1179.55 1407.88 1181.57 Q1405.75 1183.58 1405.43 1187.24 L1420.61 1187.22 Z" fill="#000000" fill-rule="nonzero" fill-opacity="1" /><path clip-path="url(#clip410)" d="M1450.52 1177.56 L1450.52 1181.55 Q1448.72 1180.55 1446.89 1180.06 Q1445.08 1179.55 1443.23 1179.55 Q1439.09 1179.55 1436.79 1182.19 Q1434.5 1184.81 1434.5 1189.55 Q1434.5 1194.3 1436.79 1196.94 Q1439.09 1199.55 1443.23 1199.55 Q1445.08 1199.55 1446.89 1199.07 Q1448.72 1198.56 1450.52 1197.56 L1450.52 1201.5 Q1448.74 1202.33 1446.82 1202.75 Q1444.92 1203.17 1442.77 1203.17 Q1436.91 1203.17 1433.46 1199.48 Q1430.01 1195.8 1430.01 1189.55 Q1430.01 1183.21 1433.48 1179.58 Q1436.98 1175.94 1443.04 1175.94 Q1445.01 1175.94 1446.89 1176.36 Q1448.76 1176.75 1450.52 1177.56 Z" fill="#000000" fill-rule="nonzero" fill-opacity="1" /><path clip-path="url(#clip410)" d="M1457.77 1176.57 L1462 1176.57 L1462 1188.74 L1474.02 1176.57 L1479.25 1176.57 L1469.34 1186.59 L1480.52 1202.49 L1475.75 1202.49 L1466.56 1189.42 L1462 1194.05 L1462 1202.49 L1457.77 1202.49 L1457.77 1176.57 Z" fill="#000000" fill-rule="nonzero" fill-opacity="1" /><path clip-path="url(#clip410)" d="M1498.34 1189.46 Q1493.18 1189.46 1491.19 1190.64 Q1489.2 1191.82 1489.2 1194.67 Q1489.2 1196.94 1490.68 1198.28 Q1492.19 1199.6 1494.76 1199.6 Q1498.3 1199.6 1500.43 1197.1 Q1502.58 1194.58 1502.58 1190.41 L1502.58 1189.46 L1498.34 1189.46 M1506.84 1187.7 L1506.84 1202.49 L1502.58 1202.49 L1502.58 1198.56 Q1501.12 1200.92 1498.95 1202.05 Q1496.77 1203.17 1493.62 1203.17 Q1489.64 1203.17 1487.28 1200.94 Q1484.94 1198.7 1484.94 1194.95 Q1484.94 1190.57 1487.86 1188.35 Q1490.8 1186.13 1496.61 1186.13 L1502.58 1186.13 L1502.58 1185.71 Q1502.58 1182.77 1500.64 1181.17 Q1498.72 1179.55 1495.22 1179.55 Q1493 1179.55 1490.89 1180.09 Q1488.78 1180.62 1486.84 1181.68 L1486.84 1177.75 Q1489.18 1176.85 1491.38 1176.41 Q1493.58 1175.94 1495.66 1175.94 Q1501.28 1175.94 1504.06 1178.86 Q1506.84 1181.78 1506.84 1187.7 Z" fill="#000000" fill-rule="nonzero" fill-opacity="1" /><path clip-path="url(#clip410)" d="M1519.9 1184.05 Q1519.9 1185.97 1521.38 1187.05 Q1522.86 1188.14 1525.61 1188.14 L1531.35 1188.14 L1531.35 1179.97 L1525.61 1179.97 Q1522.86 1179.97 1521.38 1181.04 Q1519.9 1182.1 1519.9 1184.05 M1513.83 1202.49 L1521.75 1191.13 Q1519.06 1190.53 1517.28 1188.95 Q1515.5 1187.36 1515.5 1184.05 Q1515.5 1180.3 1517.97 1178.44 Q1520.47 1176.57 1525.5 1176.57 L1535.64 1176.57 L1535.64 1202.49 L1531.35 1202.49 L1531.35 1191.55 L1526.05 1191.55 L1518.41 1202.49 L1513.83 1202.49 Z" fill="#000000" fill-rule="nonzero" fill-opacity="1" /><path clip-path="url(#clip410)" d="M1569.25 1179.55 Q1565.82 1179.55 1563.83 1182.24 Q1561.84 1184.9 1561.84 1189.55 Q1561.84 1194.21 1563.81 1196.89 Q1565.8 1199.55 1569.25 1199.55 Q1572.65 1199.55 1574.64 1196.87 Q1576.63 1194.18 1576.63 1189.55 Q1576.63 1184.95 1574.64 1182.26 Q1572.65 1179.55 1569.25 1179.55 M1569.25 1175.94 Q1574.8 1175.94 1577.97 1179.55 Q1581.15 1183.17 1581.15 1189.55 Q1581.15 1195.92 1577.97 1199.55 Q1574.8 1203.17 1569.25 1203.17 Q1563.67 1203.17 1560.5 1199.55 Q1557.35 1195.92 1557.35 1189.55 Q1557.35 1183.17 1560.5 1179.55 Q1563.67 1175.94 1569.25 1175.94 Z" fill="#000000" fill-rule="nonzero" fill-opacity="1" /><path clip-path="url(#clip410)" d="M1610.43 1202.49 L1588.04 1202.49 L1588.04 1176.57 L1592.33 1176.57 L1592.33 1199.09 L1606.15 1199.09 L1606.15 1176.57 L1610.43 1176.57 L1610.43 1199.09 L1613.83 1199.09 L1613.83 1209.05 L1610.43 1209.05 L1610.43 1202.49 Z" fill="#000000" fill-rule="nonzero" fill-opacity="1" /><path clip-path="url(#clip410)" d="M1642.65 1188.47 L1642.65 1190.55 L1623.07 1190.55 Q1623.34 1194.95 1625.71 1197.26 Q1628.09 1199.55 1632.33 1199.55 Q1634.78 1199.55 1637.07 1198.95 Q1639.39 1198.35 1641.65 1197.15 L1641.65 1201.17 Q1639.36 1202.15 1636.96 1202.66 Q1634.55 1203.17 1632.07 1203.17 Q1625.87 1203.17 1622.23 1199.55 Q1618.62 1195.94 1618.62 1189.79 Q1618.62 1183.42 1622.05 1179.69 Q1625.5 1175.94 1631.33 1175.94 Q1636.56 1175.94 1639.59 1179.32 Q1642.65 1182.68 1642.65 1188.47 M1638.39 1187.22 Q1638.34 1183.72 1636.42 1181.64 Q1634.52 1179.55 1631.38 1179.55 Q1627.81 1179.55 1625.66 1181.57 Q1623.53 1183.58 1623.21 1187.24 L1638.39 1187.22 Z" fill="#000000" fill-rule="nonzero" fill-opacity="1" /><path clip-path="url(#clip410)" d="M1649.48 1176.57 L1653.76 1176.57 L1653.76 1187.15 L1667.58 1187.15 L1667.58 1176.57 L1671.86 1176.57 L1671.86 1202.49 L1667.58 1202.49 L1667.58 1190.55 L1653.76 1190.55 L1653.76 1202.49 L1649.48 1202.49 L1649.48 1176.57 Z" fill="#000000" fill-rule="nonzero" fill-opacity="1" /><path clip-path="url(#clip410)" d="M1680.47 1176.57 L1684.71 1176.57 L1684.71 1188.74 L1696.72 1176.57 L1701.95 1176.57 L1692.05 1186.59 L1703.23 1202.49 L1698.46 1202.49 L1689.27 1189.42 L1684.71 1194.05 L1684.71 1202.49 L1680.47 1202.49 L1680.47 1176.57 Z" fill="#000000" fill-rule="nonzero" fill-opacity="1" /><path clip-path="url(#clip410)" d="M1721.05 1189.46 Q1715.89 1189.46 1713.9 1190.64 Q1711.91 1191.82 1711.91 1194.67 Q1711.91 1196.94 1713.39 1198.28 Q1714.89 1199.6 1717.46 1199.6 Q1721.01 1199.6 1723.14 1197.1 Q1725.29 1194.58 1725.29 1190.41 L1725.29 1189.46 L1721.05 1189.46 M1729.55 1187.7 L1729.55 1202.49 L1725.29 1202.49 L1725.29 1198.56 Q1723.83 1200.92 1721.65 1202.05 Q1719.48 1203.17 1716.33 1203.17 Q1712.35 1203.17 1709.99 1200.94 Q1707.65 1198.7 1707.65 1194.95 Q1707.65 1190.57 1710.57 1188.35 Q1713.51 1186.13 1719.32 1186.13 L1725.29 1186.13 L1725.29 1185.71 Q1725.29 1182.77 1723.34 1181.17 Q1721.42 1179.55 1717.93 1179.55 Q1715.7 1179.55 1713.6 1180.09 Q1711.49 1180.62 1709.55 1181.68 L1709.55 1177.75 Q1711.89 1176.85 1714.08 1176.41 Q1716.28 1175.94 1718.37 1175.94 Q1723.99 1175.94 1726.77 1178.86 Q1729.55 1181.78 1729.55 1187.7 Z" fill="#000000" fill-rule="nonzero" fill-opacity="1" /><polyline clip-path="url(#clip410)" style="stroke:#ff0000; stroke-linecap:round; stroke-linejoin:round; stroke-width:8; stroke-opacity:1; fill:none" stroke-dasharray="32, 20" points="1057.68,1237.05 1163.57,1237.05 "/>
<path clip-path="url(#clip410)" d="M1181.22 1219.77 L1210.45 1219.77 L1210.45 1223.71 L1198.18 1223.71 L1198.18 1254.33 L1193.49 1254.33 L1193.49 1223.71 L1181.22 1223.71 L1181.22 1219.77 Z" fill="#000000" fill-rule="nonzero" fill-opacity="1" /><path clip-path="url(#clip410)" d="M1236.96 1240.31 L1236.96 1242.39 L1217.37 1242.39 Q1217.65 1246.79 1220.01 1249.1 Q1222.4 1251.39 1226.63 1251.39 Q1229.09 1251.39 1231.38 1250.79 Q1233.69 1250.19 1235.96 1248.99 L1235.96 1253.01 Q1233.67 1253.99 1231.26 1254.5 Q1228.86 1255.01 1226.38 1255.01 Q1220.18 1255.01 1216.54 1251.39 Q1212.93 1247.78 1212.93 1241.63 Q1212.93 1235.26 1216.36 1231.53 Q1219.8 1227.78 1225.64 1227.78 Q1230.87 1227.78 1233.9 1231.16 Q1236.96 1234.52 1236.96 1240.31 M1232.7 1239.06 Q1232.65 1235.56 1230.73 1233.48 Q1228.83 1231.39 1225.68 1231.39 Q1222.12 1231.39 1219.97 1233.41 Q1217.84 1235.42 1217.51 1239.08 L1232.7 1239.06 Z" fill="#000000" fill-rule="nonzero" fill-opacity="1" /><path clip-path="url(#clip410)" d="M1253.99 1231.39 Q1250.57 1231.39 1248.58 1234.08 Q1246.59 1236.74 1246.59 1241.39 Q1246.59 1246.05 1248.55 1248.73 Q1250.55 1251.39 1253.99 1251.39 Q1257.4 1251.39 1259.39 1248.71 Q1261.38 1246.02 1261.38 1241.39 Q1261.38 1236.79 1259.39 1234.1 Q1257.4 1231.39 1253.99 1231.39 M1253.99 1227.78 Q1259.55 1227.78 1262.72 1231.39 Q1265.89 1235.01 1265.89 1241.39 Q1265.89 1247.76 1262.72 1251.39 Q1259.55 1255.01 1253.99 1255.01 Q1248.42 1255.01 1245.24 1251.39 Q1242.1 1247.76 1242.1 1241.39 Q1242.1 1235.01 1245.24 1231.39 Q1248.42 1227.78 1253.99 1227.78 Z" fill="#000000" fill-rule="nonzero" fill-opacity="1" /><path clip-path="url(#clip410)" d="M1277.07 1250.45 L1277.07 1264.2 L1272.79 1264.2 L1272.79 1228.41 L1277.07 1228.41 L1277.07 1232.34 Q1278.42 1230.03 1280.45 1228.92 Q1282.51 1227.78 1285.36 1227.78 Q1290.08 1227.78 1293.02 1231.53 Q1295.98 1235.28 1295.98 1241.39 Q1295.98 1247.51 1293.02 1251.26 Q1290.08 1255.01 1285.36 1255.01 Q1282.51 1255.01 1280.45 1253.89 Q1278.42 1252.76 1277.07 1250.45 M1291.56 1241.39 Q1291.56 1236.7 1289.62 1234.03 Q1287.7 1231.35 1284.32 1231.35 Q1280.94 1231.35 1278.99 1234.03 Q1277.07 1236.7 1277.07 1241.39 Q1277.07 1246.09 1278.99 1248.78 Q1280.94 1251.44 1284.32 1251.44 Q1287.7 1251.44 1289.62 1248.78 Q1291.56 1246.09 1291.56 1241.39 Z" fill="#000000" fill-rule="nonzero" fill-opacity="1" /><path clip-path="url(#clip410)" d="M1325.22 1240.31 L1325.22 1242.39 L1305.64 1242.39 Q1305.92 1246.79 1308.28 1249.1 Q1310.66 1251.39 1314.9 1251.39 Q1317.35 1251.39 1319.64 1250.79 Q1321.96 1250.19 1324.23 1248.99 L1324.23 1253.01 Q1321.93 1253.99 1319.53 1254.5 Q1317.12 1255.01 1314.64 1255.01 Q1308.44 1255.01 1304.8 1251.39 Q1301.19 1247.78 1301.19 1241.63 Q1301.19 1235.26 1304.62 1231.53 Q1308.07 1227.78 1313.9 1227.78 Q1319.13 1227.78 1322.17 1231.16 Q1325.22 1234.52 1325.22 1240.31 M1320.96 1239.06 Q1320.92 1235.56 1318.99 1233.48 Q1317.1 1231.39 1313.95 1231.39 Q1310.38 1231.39 1308.23 1233.41 Q1306.1 1235.42 1305.78 1239.08 L1320.96 1239.06 Z" fill="#000000" fill-rule="nonzero" fill-opacity="1" /><path clip-path="url(#clip410)" d="M1329.13 1228.41 L1353.97 1228.41 L1353.97 1231.81 L1343.65 1231.81 L1343.65 1254.33 L1339.46 1254.33 L1339.46 1231.81 L1329.13 1231.81 L1329.13 1228.41 Z" fill="#000000" fill-rule="nonzero" fill-opacity="1" /><path clip-path="url(#clip410)" d="M1381.86 1228.41 L1381.86 1254.33 L1377.63 1254.33 L1377.63 1233.52 L1365.13 1254.33 L1359.67 1254.33 L1359.67 1228.41 L1363.9 1228.41 L1363.9 1249.17 L1376.38 1228.41 L1381.86 1228.41 Z" fill="#000000" fill-rule="nonzero" fill-opacity="1" /><path clip-path="url(#clip410)" d="M1405.61 1254.33 L1405.61 1243.43 L1397.67 1243.43 Q1394.13 1243.43 1391.77 1241.23 Q1389.64 1239.24 1389.64 1234.98 L1389.64 1228.41 L1393.9 1228.41 L1393.9 1234.59 Q1393.9 1237.3 1395.1 1238.66 Q1396.33 1240.03 1398.74 1240.03 L1405.61 1240.03 L1405.61 1228.41 L1409.87 1228.41 L1409.87 1254.33 L1405.61 1254.33 Z" fill="#000000" fill-rule="nonzero" fill-opacity="1" /><path clip-path="url(#clip410)" d="M1440.82 1240.31 L1440.82 1242.39 L1421.24 1242.39 Q1421.52 1246.79 1423.88 1249.1 Q1426.26 1251.39 1430.5 1251.39 Q1432.95 1251.39 1435.24 1250.79 Q1437.56 1250.19 1439.83 1248.99 L1439.83 1253.01 Q1437.53 1253.99 1435.13 1254.5 Q1432.72 1255.01 1430.24 1255.01 Q1424.04 1255.01 1420.41 1251.39 Q1416.79 1247.78 1416.79 1241.63 Q1416.79 1235.26 1420.22 1231.53 Q1423.67 1227.78 1429.5 1227.78 Q1434.73 1227.78 1437.77 1231.16 Q1440.82 1234.52 1440.82 1240.31 M1436.56 1239.06 Q1436.52 1235.56 1434.6 1233.48 Q1432.7 1231.39 1429.55 1231.39 Q1425.98 1231.39 1423.83 1233.41 Q1421.7 1235.42 1421.38 1239.08 L1436.56 1239.06 Z" fill="#000000" fill-rule="nonzero" fill-opacity="1" /><path clip-path="url(#clip410)" d="M1466.47 1229.4 L1466.47 1233.39 Q1464.66 1232.39 1462.84 1231.9 Q1461.03 1231.39 1459.18 1231.39 Q1455.03 1231.39 1452.74 1234.03 Q1450.45 1236.65 1450.45 1241.39 Q1450.45 1246.14 1452.74 1248.78 Q1455.03 1251.39 1459.18 1251.39 Q1461.03 1251.39 1462.84 1250.91 Q1464.66 1250.4 1466.47 1249.4 L1466.47 1253.34 Q1464.69 1254.17 1462.77 1254.59 Q1460.87 1255.01 1458.72 1255.01 Q1452.86 1255.01 1449.41 1251.32 Q1445.96 1247.64 1445.96 1241.39 Q1445.96 1235.05 1449.43 1231.42 Q1452.93 1227.78 1458.99 1227.78 Q1460.96 1227.78 1462.84 1228.2 Q1464.71 1228.59 1466.47 1229.4 Z" fill="#000000" fill-rule="nonzero" fill-opacity="1" /><path clip-path="url(#clip410)" d="M1473.72 1228.41 L1477.95 1228.41 L1477.95 1240.58 L1489.97 1228.41 L1495.2 1228.41 L1485.29 1238.43 L1496.47 1254.33 L1491.7 1254.33 L1482.51 1241.26 L1477.95 1245.89 L1477.95 1254.33 L1473.72 1254.33 L1473.72 1228.41 Z" fill="#000000" fill-rule="nonzero" fill-opacity="1" /><path clip-path="url(#clip410)" d="M1512.56 1231.39 Q1509.13 1231.39 1507.14 1234.08 Q1505.15 1236.74 1505.15 1241.39 Q1505.15 1246.05 1507.12 1248.73 Q1509.11 1251.39 1512.56 1251.39 Q1515.96 1251.39 1517.95 1248.71 Q1519.94 1246.02 1519.94 1241.39 Q1519.94 1236.79 1517.95 1234.1 Q1515.96 1231.39 1512.56 1231.39 M1512.56 1227.78 Q1518.11 1227.78 1521.28 1231.39 Q1524.46 1235.01 1524.46 1241.39 Q1524.46 1247.76 1521.28 1251.39 Q1518.11 1255.01 1512.56 1255.01 Q1506.98 1255.01 1503.81 1251.39 Q1500.66 1247.76 1500.66 1241.39 Q1500.66 1235.01 1503.81 1231.39 Q1506.98 1227.78 1512.56 1227.78 Z" fill="#000000" fill-rule="nonzero" fill-opacity="1" /><path clip-path="url(#clip410)" d="M1553.69 1240.31 L1553.69 1242.39 L1534.11 1242.39 Q1534.39 1246.79 1536.75 1249.1 Q1539.13 1251.39 1543.37 1251.39 Q1545.82 1251.39 1548.11 1250.79 Q1550.43 1250.19 1552.7 1248.99 L1552.7 1253.01 Q1550.4 1253.99 1548 1254.5 Q1545.59 1255.01 1543.11 1255.01 Q1536.91 1255.01 1533.28 1251.39 Q1529.66 1247.78 1529.66 1241.63 Q1529.66 1235.26 1533.09 1231.53 Q1536.54 1227.78 1542.37 1227.78 Q1547.6 1227.78 1550.64 1231.16 Q1553.69 1234.52 1553.69 1240.31 M1549.43 1239.06 Q1549.39 1235.56 1547.46 1233.48 Q1545.57 1231.39 1542.42 1231.39 Q1538.85 1231.39 1536.7 1233.41 Q1534.57 1235.42 1534.25 1239.08 L1549.43 1239.06 Z" fill="#000000" fill-rule="nonzero" fill-opacity="1" /><path clip-path="url(#clip410)" d="M1587.63 1240.35 Q1590.5 1240.91 1592.09 1242.6 Q1593.69 1244.29 1593.69 1246.79 Q1593.69 1250.79 1590.71 1252.9 Q1587.72 1255.01 1582.21 1255.01 Q1580.36 1255.01 1578.39 1254.68 Q1576.45 1254.36 1574.36 1253.71 L1574.36 1249.75 Q1576.01 1250.61 1577.97 1251.05 Q1579.94 1251.46 1582.09 1251.46 Q1585.59 1251.46 1587.53 1250.17 Q1589.5 1248.87 1589.5 1246.79 Q1589.5 1244.75 1587.77 1243.52 Q1586.03 1242.27 1582.86 1242.27 L1579.43 1242.27 L1579.43 1238.76 L1583.02 1238.76 Q1585.71 1238.76 1587.26 1237.74 Q1588.83 1236.7 1588.83 1235.07 Q1588.83 1233.59 1587.21 1232.53 Q1585.61 1231.46 1582.86 1231.46 Q1581.21 1231.46 1579.34 1231.76 Q1577.49 1232.07 1575.24 1232.74 L1575.24 1228.87 Q1577.51 1228.32 1579.48 1228.04 Q1581.45 1227.76 1583.21 1227.76 Q1587.74 1227.76 1590.36 1229.59 Q1593 1231.39 1593 1234.66 Q1593 1236.81 1591.61 1238.32 Q1590.22 1239.8 1587.63 1240.35 Z" fill="#000000" fill-rule="nonzero" fill-opacity="1" /><path clip-path="url(#clip410)" d="M1600.8 1228.41 L1605.08 1228.41 L1605.08 1238.99 L1618.9 1238.99 L1618.9 1228.41 L1623.18 1228.41 L1623.18 1254.33 L1618.9 1254.33 L1618.9 1242.39 L1605.08 1242.39 L1605.08 1254.33 L1600.8 1254.33 L1600.8 1228.41 Z" fill="#000000" fill-rule="nonzero" fill-opacity="1" /><path clip-path="url(#clip410)" d="M1643.74 1241.3 Q1638.58 1241.3 1636.58 1242.48 Q1634.59 1243.66 1634.59 1246.51 Q1634.59 1248.78 1636.08 1250.12 Q1637.58 1251.44 1640.15 1251.44 Q1643.69 1251.44 1645.82 1248.94 Q1647.97 1246.42 1647.97 1242.25 L1647.97 1241.3 L1643.74 1241.3 M1652.23 1239.54 L1652.23 1254.33 L1647.97 1254.33 L1647.97 1250.4 Q1646.52 1252.76 1644.34 1253.89 Q1642.16 1255.01 1639.02 1255.01 Q1635.03 1255.01 1632.67 1252.78 Q1630.33 1250.54 1630.33 1246.79 Q1630.33 1242.41 1633.25 1240.19 Q1636.19 1237.97 1642 1237.97 L1647.97 1237.97 L1647.97 1237.55 Q1647.97 1234.61 1646.03 1233.01 Q1644.11 1231.39 1640.61 1231.39 Q1638.39 1231.39 1636.28 1231.93 Q1634.18 1232.46 1632.23 1233.52 L1632.23 1229.59 Q1634.57 1228.69 1636.77 1228.25 Q1638.97 1227.78 1641.05 1227.78 Q1646.68 1227.78 1649.46 1230.7 Q1652.23 1233.62 1652.23 1239.54 Z" fill="#000000" fill-rule="nonzero" fill-opacity="1" /><path clip-path="url(#clip410)" d="M1675.98 1254.33 L1675.98 1243.43 L1668.04 1243.43 Q1664.5 1243.43 1662.14 1241.23 Q1660.01 1239.24 1660.01 1234.98 L1660.01 1228.41 L1664.27 1228.41 L1664.27 1234.59 Q1664.27 1237.3 1665.47 1238.66 Q1666.7 1240.03 1669.11 1240.03 L1675.98 1240.03 L1675.98 1228.41 L1680.24 1228.41 L1680.24 1254.33 L1675.98 1254.33 Z" fill="#000000" fill-rule="nonzero" fill-opacity="1" /><path clip-path="url(#clip410)" d="M1711.19 1240.31 L1711.19 1242.39 L1691.61 1242.39 Q1691.89 1246.79 1694.25 1249.1 Q1696.63 1251.39 1700.87 1251.39 Q1703.32 1251.39 1705.61 1250.79 Q1707.93 1250.19 1710.2 1248.99 L1710.2 1253.01 Q1707.9 1253.99 1705.5 1254.5 Q1703.09 1255.01 1700.61 1255.01 Q1694.41 1255.01 1690.77 1251.39 Q1687.16 1247.78 1687.16 1241.63 Q1687.16 1235.26 1690.59 1231.53 Q1694.04 1227.78 1699.87 1227.78 Q1705.1 1227.78 1708.14 1231.16 Q1711.19 1234.52 1711.19 1240.31 M1706.93 1239.06 Q1706.89 1235.56 1704.96 1233.48 Q1703.07 1231.39 1699.92 1231.39 Q1696.35 1231.39 1694.2 1233.41 Q1692.07 1235.42 1691.75 1239.08 L1706.93 1239.06 Z" fill="#000000" fill-rule="nonzero" fill-opacity="1" /><path clip-path="url(#clip410)" d="M1718.02 1228.41 L1722.3 1228.41 L1722.3 1238.99 L1736.12 1238.99 L1736.12 1228.41 L1740.4 1228.41 L1740.4 1254.33 L1736.12 1254.33 L1736.12 1242.39 L1722.3 1242.39 L1722.3 1254.33 L1718.02 1254.33 L1718.02 1228.41 Z" fill="#000000" fill-rule="nonzero" fill-opacity="1" /><path clip-path="url(#clip410)" d="M1771.21 1228.41 L1771.21 1254.33 L1766.98 1254.33 L1766.98 1233.52 L1754.48 1254.33 L1749.01 1254.33 L1749.01 1228.41 L1753.25 1228.41 L1753.25 1249.17 L1765.73 1228.41 L1771.21 1228.41 Z" fill="#000000" fill-rule="nonzero" fill-opacity="1" /><path clip-path="url(#clip410)" d="M1802.16 1240.31 L1802.16 1242.39 L1782.58 1242.39 Q1782.86 1246.79 1785.22 1249.1 Q1787.6 1251.39 1791.84 1251.39 Q1794.29 1251.39 1796.58 1250.79 Q1798.9 1250.19 1801.17 1248.99 L1801.17 1253.01 Q1798.88 1253.99 1796.47 1254.5 Q1794.06 1255.01 1791.58 1255.01 Q1785.38 1255.01 1781.75 1251.39 Q1778.14 1247.78 1778.14 1241.63 Q1778.14 1235.26 1781.56 1231.53 Q1785.01 1227.78 1790.84 1227.78 Q1796.07 1227.78 1799.11 1231.16 Q1802.16 1234.52 1802.16 1240.31 M1797.9 1239.06 Q1797.86 1235.56 1795.94 1233.48 Q1794.04 1231.39 1790.89 1231.39 Q1787.32 1231.39 1785.17 1233.41 Q1783.04 1235.42 1782.72 1239.08 L1797.9 1239.06 Z" fill="#000000" fill-rule="nonzero" fill-opacity="1" /></svg>
