<?xml version="1.0" encoding="utf-8"?>
<svg xmlns="http://www.w3.org/2000/svg" xmlns:xlink="http://www.w3.org/1999/xlink" width="480" height="384" viewBox="0 0 1920 1536">
<defs>
  <clipPath id="clip300">
    <rect x="0" y="0" width="1920" height="1536"/>
  </clipPath>
</defs>
<path clip-path="url(#clip300)" d="M0 1536 L1920 1536 L1920 0 L0 0  Z" fill="#ffffff" fill-rule="evenodd" fill-opacity="1"/>
<defs>
  <clipPath id="clip301">
    <rect x="384" y="0" width="1345" height="1345"/>
  </clipPath>
</defs>
<path clip-path="url(#clip300)" d="M254.246 1343.4 L1872.76 1343.4 L1872.76 135.568 L254.246 135.568  Z" fill="#ffffff" fill-rule="evenodd" fill-opacity="1"/>
<defs>
  <clipPath id="clip302">
    <rect x="254" y="135" width="1620" height="1209"/>
  </clipPath>
</defs>
<polyline clip-path="url(#clip302)" style="stroke:#000000; stroke-linecap:round; stroke-linejoin:round; stroke-width:2; stroke-opacity:0.1; fill:none" points="343.267,1343.4 343.267,135.568 "/>
<polyline clip-path="url(#clip302)" style="stroke:#000000; stroke-linecap:round; stroke-linejoin:round; stroke-width:2; stroke-opacity:0.1; fill:none" points="703.384,1343.4 703.384,135.568 "/>
<polyline clip-path="url(#clip302)" style="stroke:#000000; stroke-linecap:round; stroke-linejoin:round; stroke-width:2; stroke-opacity:0.1; fill:none" points="1063.5,1343.4 1063.5,135.568 "/>
<polyline clip-path="url(#clip302)" style="stroke:#000000; stroke-linecap:round; stroke-linejoin:round; stroke-width:2; stroke-opacity:0.1; fill:none" points="1423.62,1343.4 1423.62,135.568 "/>
<polyline clip-path="url(#clip302)" style="stroke:#000000; stroke-linecap:round; stroke-linejoin:round; stroke-width:2; stroke-opacity:0.1; fill:none" points="1783.73,1343.4 1783.73,135.568 "/>
<polyline clip-path="url(#clip302)" style="stroke:#000000; stroke-linecap:round; stroke-linejoin:round; stroke-width:2; stroke-opacity:0.1; fill:none" points="254.246,1343.4 1872.76,1343.4 "/>
<polyline clip-path="url(#clip302)" style="stroke:#000000; stroke-linecap:round; stroke-linejoin:round; stroke-width:2; stroke-opacity:0.1; fill:none" points="254.246,1121.97 1872.76,1121.97 "/>
<polyline clip-path="url(#clip302)" style="stroke:#000000; stroke-linecap:round; stroke-linejoin:round; stroke-width:2; stroke-opacity:0.1; fill:none" points="254.246,900.531 1872.76,900.531 "/>
<polyline clip-path="url(#clip302)" style="stroke:#000000; stroke-linecap:round; stroke-linejoin:round; stroke-width:2; stroke-opacity:0.1; fill:none" points="254.246,679.094 1872.76,679.094 "/>
<polyline clip-path="url(#clip302)" style="stroke:#000000; stroke-linecap:round; stroke-linejoin:round; stroke-width:2; stroke-opacity:0.1; fill:none" points="254.246,457.658 1872.76,457.658 "/>
<polyline clip-path="url(#clip302)" style="stroke:#000000; stroke-linecap:round; stroke-linejoin:round; stroke-width:2; stroke-opacity:0.1; fill:none" points="254.246,236.221 1872.76,236.221 "/>
<polyline clip-path="url(#clip300)" style="stroke:#000000; stroke-linecap:round; stroke-linejoin:round; stroke-width:4; stroke-opacity:1; fill:none" points="254.246,1343.4 1872.76,1343.4 "/>
<polyline clip-path="url(#clip300)" style="stroke:#000000; stroke-linecap:round; stroke-linejoin:round; stroke-width:4; stroke-opacity:1; fill:none" points="343.267,1343.4 343.267,1324.51 "/>
<polyline clip-path="url(#clip300)" style="stroke:#000000; stroke-linecap:round; stroke-linejoin:round; stroke-width:4; stroke-opacity:1; fill:none" points="703.384,1343.4 703.384,1324.51 "/>
<polyline clip-path="url(#clip300)" style="stroke:#000000; stroke-linecap:round; stroke-linejoin:round; stroke-width:4; stroke-opacity:1; fill:none" points="1063.5,1343.4 1063.5,1324.51 "/>
<polyline clip-path="url(#clip300)" style="stroke:#000000; stroke-linecap:round; stroke-linejoin:round; stroke-width:4; stroke-opacity:1; fill:none" points="1423.62,1343.4 1423.62,1324.51 "/>
<polyline clip-path="url(#clip300)" style="stroke:#000000; stroke-linecap:round; stroke-linejoin:round; stroke-width:4; stroke-opacity:1; fill:none" points="1783.73,1343.4 1783.73,1324.51 "/>
<path clip-path="url(#clip300)" d="M320.651 1370.48 Q317.04 1370.48 315.212 1374.05 Q313.406 1377.59 313.406 1384.72 Q313.406 1391.83 315.212 1395.39 Q317.04 1398.93 320.651 1398.93 Q324.286 1398.93 326.091 1395.39 Q327.92 1391.83 327.92 1384.72 Q327.92 1377.59 326.091 1374.05 Q324.286 1370.48 320.651 1370.48 M320.651 1366.78 Q326.461 1366.78 329.517 1371.39 Q332.596 1375.97 332.596 1384.72 Q332.596 1393.45 329.517 1398.05 Q326.461 1402.64 320.651 1402.64 Q314.841 1402.64 311.762 1398.05 Q308.707 1393.45 308.707 1384.72 Q308.707 1375.97 311.762 1371.39 Q314.841 1366.78 320.651 1366.78 Z" fill="#000000" fill-rule="nonzero" fill-opacity="1" /><path clip-path="url(#clip300)" d="M340.813 1396.08 L345.697 1396.08 L345.697 1401.96 L340.813 1401.96 L340.813 1396.08 Z" fill="#000000" fill-rule="nonzero" fill-opacity="1" /><path clip-path="url(#clip300)" d="M365.883 1370.48 Q362.271 1370.48 360.443 1374.05 Q358.637 1377.59 358.637 1384.72 Q358.637 1391.83 360.443 1395.39 Q362.271 1398.93 365.883 1398.93 Q369.517 1398.93 371.322 1395.39 Q373.151 1391.83 373.151 1384.72 Q373.151 1377.59 371.322 1374.05 Q369.517 1370.48 365.883 1370.48 M365.883 1366.78 Q371.693 1366.78 374.748 1371.39 Q377.827 1375.97 377.827 1384.72 Q377.827 1393.45 374.748 1398.05 Q371.693 1402.64 365.883 1402.64 Q360.072 1402.64 356.994 1398.05 Q353.938 1393.45 353.938 1384.72 Q353.938 1375.97 356.994 1371.39 Q360.072 1366.78 365.883 1366.78 Z" fill="#000000" fill-rule="nonzero" fill-opacity="1" /><path clip-path="url(#clip300)" d="M675.12 1398.03 L691.44 1398.03 L691.44 1401.96 L669.495 1401.96 L669.495 1398.03 Q672.157 1395.27 676.741 1390.64 Q681.347 1385.99 682.528 1384.65 Q684.773 1382.13 685.653 1380.39 Q686.555 1378.63 686.555 1376.94 Q686.555 1374.19 684.611 1372.45 Q682.69 1370.71 679.588 1370.71 Q677.389 1370.71 674.935 1371.48 Q672.504 1372.24 669.727 1373.79 L669.727 1369.07 Q672.551 1367.94 675.004 1367.36 Q677.458 1366.78 679.495 1366.78 Q684.866 1366.78 688.06 1369.46 Q691.254 1372.15 691.254 1376.64 Q691.254 1378.77 690.444 1380.69 Q689.657 1382.59 687.551 1385.18 Q686.972 1385.85 683.87 1389.07 Q680.768 1392.26 675.12 1398.03 Z" fill="#000000" fill-rule="nonzero" fill-opacity="1" /><path clip-path="url(#clip300)" d="M701.254 1396.08 L706.139 1396.08 L706.139 1401.96 L701.254 1401.96 L701.254 1396.08 Z" fill="#000000" fill-rule="nonzero" fill-opacity="1" /><path clip-path="url(#clip300)" d="M716.37 1367.4 L734.726 1367.4 L734.726 1371.34 L720.652 1371.34 L720.652 1379.81 Q721.671 1379.46 722.689 1379.3 Q723.708 1379.12 724.726 1379.12 Q730.513 1379.12 733.893 1382.29 Q737.273 1385.46 737.273 1390.88 Q737.273 1396.45 733.8 1399.56 Q730.328 1402.64 724.009 1402.64 Q721.833 1402.64 719.564 1402.26 Q717.319 1401.89 714.912 1401.15 L714.912 1396.45 Q716.995 1397.59 719.217 1398.14 Q721.439 1398.7 723.916 1398.7 Q727.921 1398.7 730.259 1396.59 Q732.597 1394.49 732.597 1390.88 Q732.597 1387.26 730.259 1385.16 Q727.921 1383.05 723.916 1383.05 Q722.041 1383.05 720.166 1383.47 Q718.314 1383.89 716.37 1384.76 L716.37 1367.4 Z" fill="#000000" fill-rule="nonzero" fill-opacity="1" /><path clip-path="url(#clip300)" d="M1030.67 1367.4 L1049.02 1367.4 L1049.02 1371.34 L1034.95 1371.34 L1034.95 1379.81 Q1035.97 1379.46 1036.98 1379.3 Q1038 1379.12 1039.02 1379.12 Q1044.81 1379.12 1048.19 1382.29 Q1051.57 1385.46 1051.57 1390.88 Q1051.57 1396.45 1048.1 1399.56 Q1044.62 1402.64 1038.3 1402.64 Q1036.13 1402.64 1033.86 1402.26 Q1031.61 1401.89 1029.21 1401.15 L1029.21 1396.45 Q1031.29 1397.59 1033.51 1398.14 Q1035.73 1398.7 1038.21 1398.7 Q1042.22 1398.7 1044.55 1396.59 Q1046.89 1394.49 1046.89 1390.88 Q1046.89 1387.26 1044.55 1385.16 Q1042.22 1383.05 1038.21 1383.05 Q1036.34 1383.05 1034.46 1383.47 Q1032.61 1383.89 1030.67 1384.76 L1030.67 1367.4 Z" fill="#000000" fill-rule="nonzero" fill-opacity="1" /><path clip-path="url(#clip300)" d="M1060.78 1396.08 L1065.67 1396.08 L1065.67 1401.96 L1060.78 1401.96 L1060.78 1396.08 Z" fill="#000000" fill-rule="nonzero" fill-opacity="1" /><path clip-path="url(#clip300)" d="M1085.85 1370.48 Q1082.24 1370.48 1080.41 1374.05 Q1078.61 1377.59 1078.61 1384.72 Q1078.61 1391.83 1080.41 1395.39 Q1082.24 1398.93 1085.85 1398.93 Q1089.48 1398.93 1091.29 1395.39 Q1093.12 1391.83 1093.12 1384.72 Q1093.12 1377.59 1091.29 1374.05 Q1089.48 1370.48 1085.85 1370.48 M1085.85 1366.78 Q1091.66 1366.78 1094.72 1371.39 Q1097.79 1375.97 1097.79 1384.72 Q1097.79 1393.45 1094.72 1398.05 Q1091.66 1402.64 1085.85 1402.64 Q1080.04 1402.64 1076.96 1398.05 Q1073.91 1393.45 1073.91 1384.72 Q1073.91 1375.97 1076.96 1371.39 Q1080.04 1366.78 1085.85 1366.78 Z" fill="#000000" fill-rule="nonzero" fill-opacity="1" /><path clip-path="url(#clip300)" d="M1389.94 1367.4 L1412.16 1367.4 L1412.16 1369.39 L1399.61 1401.96 L1394.73 1401.96 L1406.53 1371.34 L1389.94 1371.34 L1389.94 1367.4 Z" fill="#000000" fill-rule="nonzero" fill-opacity="1" /><path clip-path="url(#clip300)" d="M1421.28 1396.08 L1426.16 1396.08 L1426.16 1401.96 L1421.28 1401.96 L1421.28 1396.08 Z" fill="#000000" fill-rule="nonzero" fill-opacity="1" /><path clip-path="url(#clip300)" d="M1436.4 1367.4 L1454.75 1367.4 L1454.75 1371.34 L1440.68 1371.34 L1440.68 1379.81 Q1441.7 1379.46 1442.72 1379.3 Q1443.73 1379.12 1444.75 1379.12 Q1450.54 1379.12 1453.92 1382.29 Q1457.3 1385.46 1457.3 1390.88 Q1457.3 1396.45 1453.83 1399.56 Q1450.35 1402.64 1444.03 1402.64 Q1441.86 1402.64 1439.59 1402.26 Q1437.34 1401.89 1434.94 1401.15 L1434.94 1396.45 Q1437.02 1397.59 1439.24 1398.14 Q1441.47 1398.7 1443.94 1398.7 Q1447.95 1398.7 1450.28 1396.59 Q1452.62 1394.49 1452.62 1390.88 Q1452.62 1387.26 1450.28 1385.16 Q1447.95 1383.05 1443.94 1383.05 Q1442.07 1383.05 1440.19 1383.47 Q1438.34 1383.89 1436.4 1384.76 L1436.4 1367.4 Z" fill="#000000" fill-rule="nonzero" fill-opacity="1" /><path clip-path="url(#clip300)" d="M1735.81 1398.03 L1743.45 1398.03 L1743.45 1371.66 L1735.14 1373.33 L1735.14 1369.07 L1743.4 1367.4 L1748.08 1367.4 L1748.08 1398.03 L1755.71 1398.03 L1755.71 1401.96 L1735.81 1401.96 L1735.81 1398.03 Z" fill="#000000" fill-rule="nonzero" fill-opacity="1" /><path clip-path="url(#clip300)" d="M1775.16 1370.48 Q1771.55 1370.48 1769.72 1374.05 Q1767.91 1377.59 1767.91 1384.72 Q1767.91 1391.83 1769.72 1395.39 Q1771.55 1398.93 1775.16 1398.93 Q1778.79 1398.93 1780.6 1395.39 Q1782.43 1391.83 1782.43 1384.72 Q1782.43 1377.59 1780.6 1374.05 Q1778.79 1370.48 1775.16 1370.48 M1775.16 1366.78 Q1780.97 1366.78 1784.02 1371.39 Q1787.1 1375.97 1787.1 1384.72 Q1787.1 1393.45 1784.02 1398.05 Q1780.97 1402.64 1775.16 1402.64 Q1769.35 1402.64 1766.27 1398.05 Q1763.21 1393.45 1763.21 1384.72 Q1763.21 1375.97 1766.27 1371.39 Q1769.35 1366.78 1775.16 1366.78 Z" fill="#000000" fill-rule="nonzero" fill-opacity="1" /><path clip-path="url(#clip300)" d="M1795.32 1396.08 L1800.2 1396.08 L1800.2 1401.96 L1795.32 1401.96 L1795.32 1396.08 Z" fill="#000000" fill-rule="nonzero" fill-opacity="1" /><path clip-path="url(#clip300)" d="M1820.39 1370.48 Q1816.78 1370.48 1814.95 1374.05 Q1813.14 1377.59 1813.14 1384.72 Q1813.14 1391.83 1814.95 1395.39 Q1816.78 1398.93 1820.39 1398.93 Q1824.02 1398.93 1825.83 1395.39 Q1827.66 1391.83 1827.66 1384.72 Q1827.66 1377.59 1825.83 1374.05 Q1824.02 1370.48 1820.39 1370.48 M1820.39 1366.78 Q1826.2 1366.78 1829.26 1371.39 Q1832.33 1375.97 1832.33 1384.72 Q1832.33 1393.45 1829.26 1398.05 Q1826.2 1402.64 1820.39 1402.64 Q1814.58 1402.64 1811.5 1398.05 Q1808.45 1393.45 1808.45 1384.72 Q1808.45 1375.97 1811.5 1371.39 Q1814.58 1366.78 1820.39 1366.78 Z" fill="#000000" fill-rule="nonzero" fill-opacity="1" /><path clip-path="url(#clip300)" d="M788.2 1481.07 L788.2 1461.59 L774.928 1461.59 Q769.007 1461.59 765.474 1457.9 Q761.942 1454.17 761.942 1446.6 L761.942 1433.55 L768.339 1433.55 L768.339 1446.09 Q768.339 1451.15 770.312 1453.66 Q772.286 1456.18 776.233 1456.18 L788.2 1456.18 L788.2 1433.55 L794.661 1433.55 L794.661 1481.07 L788.2 1481.07 Z" fill="#000000" fill-rule="nonzero" fill-opacity="1" /><path clip-path="url(#clip300)" d="M837.502 1445.42 L837.502 1481.07 L831.678 1481.07 L831.678 1452.45 L814.49 1481.07 L806.979 1481.07 L806.979 1445.42 L812.804 1445.42 L812.804 1473.97 L829.959 1445.42 L837.502 1445.42 Z" fill="#000000" fill-rule="nonzero" fill-opacity="1" /><path clip-path="url(#clip300)" d="M875.219 1446.79 L875.219 1452.26 Q872.737 1450.89 870.222 1450.23 Q867.74 1449.53 865.193 1449.53 Q859.496 1449.53 856.345 1453.15 Q853.194 1456.75 853.194 1463.28 Q853.194 1469.8 856.345 1473.43 Q859.496 1477.03 865.193 1477.03 Q867.74 1477.03 870.222 1476.36 Q872.737 1475.66 875.219 1474.29 L875.219 1479.7 Q872.768 1480.85 870.127 1481.42 Q867.517 1481.99 864.557 1481.99 Q856.504 1481.99 851.762 1476.93 Q847.019 1471.87 847.019 1463.28 Q847.019 1454.55 851.793 1449.56 Q856.6 1444.56 864.939 1444.56 Q867.644 1444.56 870.222 1445.13 Q872.8 1445.67 875.219 1446.79 Z" fill="#000000" fill-rule="nonzero" fill-opacity="1" /><path clip-path="url(#clip300)" d="M881.68 1481.07 L881.68 1476.2 Q887.473 1475.31 889.256 1471.3 Q891.42 1465.66 891.42 1451.24 L891.42 1445.42 L915.514 1445.42 L915.514 1481.07 L909.658 1481.07 L909.658 1450.1 L897.276 1450.1 L897.276 1453.63 Q897.276 1467.38 894.476 1473.56 Q891.484 1480.14 881.68 1481.07 Z" fill="#000000" fill-rule="nonzero" fill-opacity="1" /><path clip-path="url(#clip300)" d="M940.882 1449.53 Q936.171 1449.53 933.434 1453.22 Q930.696 1456.88 930.696 1463.28 Q930.696 1469.67 933.402 1473.37 Q936.139 1477.03 940.882 1477.03 Q945.56 1477.03 948.298 1473.33 Q951.035 1469.64 951.035 1463.28 Q951.035 1456.94 948.298 1453.25 Q945.56 1449.53 940.882 1449.53 M940.882 1444.56 Q948.52 1444.56 952.881 1449.53 Q957.241 1454.49 957.241 1463.28 Q957.241 1472.03 952.881 1477.03 Q948.52 1481.99 940.882 1481.99 Q933.211 1481.99 928.85 1477.03 Q924.522 1472.03 924.522 1463.28 Q924.522 1454.49 928.85 1449.53 Q933.211 1444.56 940.882 1444.56 Z" fill="#000000" fill-rule="nonzero" fill-opacity="1" /><path clip-path="url(#clip300)" d="M1003.87 1463.15 Q996.772 1463.15 994.035 1464.77 Q991.298 1466.39 991.298 1470.31 Q991.298 1473.43 993.335 1475.28 Q995.404 1477.09 998.937 1477.09 Q1003.81 1477.09 1006.73 1473.65 Q1009.69 1470.18 1009.69 1464.45 L1009.69 1463.15 L1003.87 1463.15 M1015.55 1460.73 L1015.55 1481.07 L1009.69 1481.07 L1009.69 1475.66 Q1007.69 1478.9 1004.7 1480.46 Q1001.71 1481.99 997.377 1481.99 Q991.903 1481.99 988.656 1478.94 Q985.441 1475.85 985.441 1470.69 Q985.441 1464.68 989.452 1461.62 Q993.494 1458.57 1001.48 1458.57 L1009.69 1458.57 L1009.69 1457.99 Q1009.69 1453.95 1007.02 1451.75 Q1004.38 1449.53 999.573 1449.53 Q996.518 1449.53 993.621 1450.26 Q990.725 1450.99 988.051 1452.45 L988.051 1447.04 Q991.266 1445.8 994.29 1445.2 Q997.314 1444.56 1000.18 1444.56 Q1007.91 1444.56 1011.73 1448.57 Q1015.55 1452.58 1015.55 1460.73 Z" fill="#000000" fill-rule="nonzero" fill-opacity="1" /><path clip-path="url(#clip300)" d="M1023.38 1445.42 L1057.53 1445.42 L1057.53 1450.1 L1043.34 1450.1 L1043.34 1481.07 L1037.58 1481.07 L1037.58 1450.1 L1023.38 1450.1 L1023.38 1445.42 Z" fill="#000000" fill-rule="nonzero" fill-opacity="1" /><path clip-path="url(#clip300)" d="M1081.79 1463.15 Q1074.69 1463.15 1071.95 1464.77 Q1069.21 1466.39 1069.21 1470.31 Q1069.21 1473.43 1071.25 1475.28 Q1073.32 1477.09 1076.85 1477.09 Q1081.72 1477.09 1084.65 1473.65 Q1087.61 1470.18 1087.61 1464.45 L1087.61 1463.15 L1081.79 1463.15 M1093.47 1460.73 L1093.47 1481.07 L1087.61 1481.07 L1087.61 1475.66 Q1085.61 1478.9 1082.61 1480.46 Q1079.62 1481.99 1075.29 1481.99 Q1069.82 1481.99 1066.57 1478.94 Q1063.36 1475.85 1063.36 1470.69 Q1063.36 1464.68 1067.37 1461.62 Q1071.41 1458.57 1079.4 1458.57 L1087.61 1458.57 L1087.61 1457.99 Q1087.61 1453.95 1084.94 1451.75 Q1082.3 1449.53 1077.49 1449.53 Q1074.43 1449.53 1071.54 1450.26 Q1068.64 1450.99 1065.97 1452.45 L1065.97 1447.04 Q1069.18 1445.8 1072.21 1445.2 Q1075.23 1444.56 1078.09 1444.56 Q1085.83 1444.56 1089.65 1448.57 Q1093.47 1452.58 1093.47 1460.73 Z" fill="#000000" fill-rule="nonzero" fill-opacity="1" /><path clip-path="url(#clip300)" d="M1105.31 1445.42 L1111.13 1445.42 L1111.13 1462.16 L1127.65 1445.42 L1134.84 1445.42 L1121.22 1459.2 L1136.6 1481.07 L1130.04 1481.07 L1117.4 1463.08 L1111.13 1469.45 L1111.13 1481.07 L1105.31 1481.07 L1105.31 1445.42 Z" fill="#000000" fill-rule="nonzero" fill-opacity="1" /><path clip-path="url(#clip300)" d="M1181.95 1461.84 Q1185.9 1462.61 1188.09 1464.93 Q1190.29 1467.25 1190.29 1470.69 Q1190.29 1476.2 1186.18 1479.09 Q1182.08 1481.99 1174.5 1481.99 Q1171.96 1481.99 1169.25 1481.55 Q1166.58 1481.1 1163.71 1480.21 L1163.71 1474.77 Q1165.97 1475.94 1168.68 1476.55 Q1171.38 1477.12 1174.34 1477.12 Q1179.15 1477.12 1181.82 1475.34 Q1184.53 1473.56 1184.53 1470.69 Q1184.53 1467.89 1182.14 1466.2 Q1179.75 1464.49 1175.39 1464.49 L1170.68 1464.49 L1170.68 1459.65 L1175.62 1459.65 Q1179.31 1459.65 1181.44 1458.25 Q1183.61 1456.81 1183.61 1454.59 Q1183.61 1452.55 1181.38 1451.09 Q1179.18 1449.62 1175.39 1449.62 Q1173.13 1449.62 1170.56 1450.04 Q1168.01 1450.45 1164.92 1451.37 L1164.92 1446.06 Q1168.04 1445.29 1170.75 1444.91 Q1173.45 1444.53 1175.87 1444.53 Q1182.11 1444.53 1185.71 1447.04 Q1189.34 1449.53 1189.34 1454.01 Q1189.34 1456.97 1187.43 1459.04 Q1185.52 1461.08 1181.95 1461.84 Z" fill="#000000" fill-rule="nonzero" fill-opacity="1" /><path clip-path="url(#clip300)" d="M1216.48 1463.15 Q1209.39 1463.15 1206.65 1464.77 Q1203.91 1466.39 1203.91 1470.31 Q1203.91 1473.43 1205.95 1475.28 Q1208.02 1477.09 1211.55 1477.09 Q1216.42 1477.09 1219.35 1473.65 Q1222.31 1470.18 1222.31 1464.45 L1222.31 1463.15 L1216.48 1463.15 M1228.17 1460.73 L1228.17 1481.07 L1222.31 1481.07 L1222.31 1475.66 Q1220.3 1478.9 1217.31 1480.46 Q1214.32 1481.99 1209.99 1481.99 Q1204.52 1481.99 1201.27 1478.94 Q1198.06 1475.85 1198.06 1470.69 Q1198.06 1464.68 1202.07 1461.62 Q1206.11 1458.57 1214.1 1458.57 L1222.31 1458.57 L1222.31 1457.99 Q1222.31 1453.95 1219.64 1451.75 Q1216.99 1449.53 1212.19 1449.53 Q1209.13 1449.53 1206.24 1450.26 Q1203.34 1450.99 1200.67 1452.45 L1200.67 1447.04 Q1203.88 1445.8 1206.9 1445.2 Q1209.93 1444.56 1212.79 1444.56 Q1220.53 1444.56 1224.35 1448.57 Q1228.17 1452.58 1228.17 1460.73 Z" fill="#000000" fill-rule="nonzero" fill-opacity="1" /><path clip-path="url(#clip300)" d="M1281.54 1481.07 L1281.54 1466.08 L1270.63 1466.08 Q1265.76 1466.08 1262.51 1463.05 Q1259.58 1460.32 1259.58 1454.46 L1259.58 1445.42 L1265.44 1445.42 L1265.44 1453.92 Q1265.44 1457.64 1267.09 1459.52 Q1268.78 1461.4 1272.09 1461.4 L1281.54 1461.4 L1281.54 1445.42 L1287.4 1445.42 L1287.4 1481.07 L1281.54 1481.07 Z" fill="#000000" fill-rule="nonzero" fill-opacity="1" /><path clip-path="url(#clip300)" d="M1315.66 1463.15 Q1308.56 1463.15 1305.83 1464.77 Q1303.09 1466.39 1303.09 1470.31 Q1303.09 1473.43 1305.13 1475.28 Q1307.2 1477.09 1310.73 1477.09 Q1315.6 1477.09 1318.53 1473.65 Q1321.49 1470.18 1321.49 1464.45 L1321.49 1463.15 L1315.66 1463.15 M1327.34 1460.73 L1327.34 1481.07 L1321.49 1481.07 L1321.49 1475.66 Q1319.48 1478.9 1316.49 1480.46 Q1313.5 1481.99 1309.17 1481.99 Q1303.69 1481.99 1300.45 1478.94 Q1297.23 1475.85 1297.23 1470.69 Q1297.23 1464.68 1301.24 1461.62 Q1305.29 1458.57 1313.28 1458.57 L1321.49 1458.57 L1321.49 1457.99 Q1321.49 1453.95 1318.81 1451.75 Q1316.17 1449.53 1311.37 1449.53 Q1308.31 1449.53 1305.41 1450.26 Q1302.52 1450.99 1299.84 1452.45 L1299.84 1447.04 Q1303.06 1445.8 1306.08 1445.2 Q1309.11 1444.56 1311.97 1444.56 Q1319.7 1444.56 1323.52 1448.57 Q1327.34 1452.58 1327.34 1460.73 Z" fill="#000000" fill-rule="nonzero" fill-opacity="1" /><path clip-path="url(#clip300)" d="M1365.06 1446.79 L1365.06 1452.26 Q1362.58 1450.89 1360.06 1450.23 Q1357.58 1449.53 1355.03 1449.53 Q1349.34 1449.53 1346.19 1453.15 Q1343.04 1456.75 1343.04 1463.28 Q1343.04 1469.8 1346.19 1473.43 Q1349.34 1477.03 1355.03 1477.03 Q1357.58 1477.03 1360.06 1476.36 Q1362.58 1475.66 1365.06 1474.29 L1365.06 1479.7 Q1362.61 1480.85 1359.97 1481.42 Q1357.36 1481.99 1354.4 1481.99 Q1346.35 1481.99 1341.6 1476.93 Q1336.86 1471.87 1336.86 1463.28 Q1336.86 1454.55 1341.63 1449.56 Q1346.44 1444.56 1354.78 1444.56 Q1357.49 1444.56 1360.06 1445.13 Q1362.64 1445.67 1365.06 1446.79 Z" fill="#000000" fill-rule="nonzero" fill-opacity="1" /><polyline clip-path="url(#clip300)" style="stroke:#000000; stroke-linecap:round; stroke-linejoin:round; stroke-width:4; stroke-opacity:1; fill:none" points="254.246,1343.4 254.246,135.568 "/>
<polyline clip-path="url(#clip300)" style="stroke:#000000; stroke-linecap:round; stroke-linejoin:round; stroke-width:4; stroke-opacity:1; fill:none" points="254.246,1343.4 273.144,1343.4 "/>
<polyline clip-path="url(#clip300)" style="stroke:#000000; stroke-linecap:round; stroke-linejoin:round; stroke-width:4; stroke-opacity:1; fill:none" points="254.246,1121.97 273.144,1121.97 "/>
<polyline clip-path="url(#clip300)" style="stroke:#000000; stroke-linecap:round; stroke-linejoin:round; stroke-width:4; stroke-opacity:1; fill:none" points="254.246,900.531 273.144,900.531 "/>
<polyline clip-path="url(#clip300)" style="stroke:#000000; stroke-linecap:round; stroke-linejoin:round; stroke-width:4; stroke-opacity:1; fill:none" points="254.246,679.094 273.144,679.094 "/>
<polyline clip-path="url(#clip300)" style="stroke:#000000; stroke-linecap:round; stroke-linejoin:round; stroke-width:4; stroke-opacity:1; fill:none" points="254.246,457.658 273.144,457.658 "/>
<polyline clip-path="url(#clip300)" style="stroke:#000000; stroke-linecap:round; stroke-linejoin:round; stroke-width:4; stroke-opacity:1; fill:none" points="254.246,236.221 273.144,236.221 "/>
<path clip-path="url(#clip300)" d="M138.109 1329.2 Q134.497 1329.2 132.669 1332.77 Q130.863 1336.31 130.863 1343.44 Q130.863 1350.55 132.669 1354.11 Q134.497 1357.65 138.109 1357.65 Q141.743 1357.65 143.548 1354.11 Q145.377 1350.55 145.377 1343.44 Q145.377 1336.31 143.548 1332.77 Q141.743 1329.2 138.109 1329.2 M138.109 1325.5 Q143.919 1325.5 146.974 1330.11 Q150.053 1334.69 150.053 1343.44 Q150.053 1352.17 146.974 1356.77 Q143.919 1361.36 138.109 1361.36 Q132.298 1361.36 129.22 1356.77 Q126.164 1352.17 126.164 1343.44 Q126.164 1334.69 129.22 1330.11 Q132.298 1325.5 138.109 1325.5 Z" fill="#000000" fill-rule="nonzero" fill-opacity="1" /><path clip-path="url(#clip300)" d="M158.27 1354.8 L163.155 1354.8 L163.155 1360.68 L158.27 1360.68 L158.27 1354.8 Z" fill="#000000" fill-rule="nonzero" fill-opacity="1" /><path clip-path="url(#clip300)" d="M183.34 1329.2 Q179.729 1329.2 177.9 1332.77 Q176.094 1336.31 176.094 1343.44 Q176.094 1350.55 177.9 1354.11 Q179.729 1357.65 183.34 1357.65 Q186.974 1357.65 188.78 1354.11 Q190.608 1350.55 190.608 1343.44 Q190.608 1336.31 188.78 1332.77 Q186.974 1329.2 183.34 1329.2 M183.34 1325.5 Q189.15 1325.5 192.205 1330.11 Q195.284 1334.69 195.284 1343.44 Q195.284 1352.17 192.205 1356.77 Q189.15 1361.36 183.34 1361.36 Q177.53 1361.36 174.451 1356.77 Q171.395 1352.17 171.395 1343.44 Q171.395 1334.69 174.451 1330.11 Q177.53 1325.5 183.34 1325.5 Z" fill="#000000" fill-rule="nonzero" fill-opacity="1" /><path clip-path="url(#clip300)" d="M213.502 1329.2 Q209.891 1329.2 208.062 1332.77 Q206.256 1336.31 206.256 1343.44 Q206.256 1350.55 208.062 1354.11 Q209.891 1357.65 213.502 1357.65 Q217.136 1357.65 218.941 1354.11 Q220.77 1350.55 220.77 1343.44 Q220.77 1336.31 218.941 1332.77 Q217.136 1329.2 213.502 1329.2 M213.502 1325.5 Q219.312 1325.5 222.367 1330.11 Q225.446 1334.69 225.446 1343.44 Q225.446 1352.17 222.367 1356.77 Q219.312 1361.36 213.502 1361.36 Q207.691 1361.36 204.613 1356.77 Q201.557 1352.17 201.557 1343.44 Q201.557 1334.69 204.613 1330.11 Q207.691 1325.5 213.502 1325.5 Z" fill="#000000" fill-rule="nonzero" fill-opacity="1" /><path clip-path="url(#clip300)" d="M139.104 1107.77 Q135.493 1107.77 133.664 1111.33 Q131.859 1114.87 131.859 1122 Q131.859 1129.11 133.664 1132.67 Q135.493 1136.21 139.104 1136.21 Q142.738 1136.21 144.544 1132.67 Q146.372 1129.11 146.372 1122 Q146.372 1114.87 144.544 1111.33 Q142.738 1107.77 139.104 1107.77 M139.104 1104.06 Q144.914 1104.06 147.97 1108.67 Q151.048 1113.25 151.048 1122 Q151.048 1130.73 147.97 1135.34 Q144.914 1139.92 139.104 1139.92 Q133.294 1139.92 130.215 1135.34 Q127.16 1130.73 127.16 1122 Q127.16 1113.25 130.215 1108.67 Q133.294 1104.06 139.104 1104.06 Z" fill="#000000" fill-rule="nonzero" fill-opacity="1" /><path clip-path="url(#clip300)" d="M159.266 1133.37 L164.15 1133.37 L164.15 1139.25 L159.266 1139.25 L159.266 1133.37 Z" fill="#000000" fill-rule="nonzero" fill-opacity="1" /><path clip-path="url(#clip300)" d="M184.335 1107.77 Q180.724 1107.77 178.895 1111.33 Q177.09 1114.87 177.09 1122 Q177.09 1129.11 178.895 1132.67 Q180.724 1136.21 184.335 1136.21 Q187.969 1136.21 189.775 1132.67 Q191.604 1129.11 191.604 1122 Q191.604 1114.87 189.775 1111.33 Q187.969 1107.77 184.335 1107.77 M184.335 1104.06 Q190.145 1104.06 193.201 1108.67 Q196.28 1113.25 196.28 1122 Q196.28 1130.73 193.201 1135.34 Q190.145 1139.92 184.335 1139.92 Q178.525 1139.92 175.446 1135.34 Q172.391 1130.73 172.391 1122 Q172.391 1113.25 175.446 1108.67 Q178.525 1104.06 184.335 1104.06 Z" fill="#000000" fill-rule="nonzero" fill-opacity="1" /><path clip-path="url(#clip300)" d="M204.543 1104.69 L222.9 1104.69 L222.9 1108.62 L208.826 1108.62 L208.826 1117.09 Q209.844 1116.75 210.863 1116.59 Q211.881 1116.4 212.9 1116.4 Q218.687 1116.4 222.066 1119.57 Q225.446 1122.74 225.446 1128.16 Q225.446 1133.74 221.974 1136.84 Q218.502 1139.92 212.182 1139.92 Q210.006 1139.92 207.738 1139.55 Q205.492 1139.18 203.085 1138.44 L203.085 1133.74 Q205.168 1134.87 207.391 1135.43 Q209.613 1135.98 212.09 1135.98 Q216.094 1135.98 218.432 1133.88 Q220.77 1131.77 220.77 1128.16 Q220.77 1124.55 218.432 1122.44 Q216.094 1120.34 212.09 1120.34 Q210.215 1120.34 208.34 1120.75 Q206.488 1121.17 204.543 1122.05 L204.543 1104.69 Z" fill="#000000" fill-rule="nonzero" fill-opacity="1" /><path clip-path="url(#clip300)" d="M138.109 886.329 Q134.497 886.329 132.669 889.894 Q130.863 893.436 130.863 900.565 Q130.863 907.672 132.669 911.237 Q134.497 914.778 138.109 914.778 Q141.743 914.778 143.548 911.237 Q145.377 907.672 145.377 900.565 Q145.377 893.436 143.548 889.894 Q141.743 886.329 138.109 886.329 M138.109 882.626 Q143.919 882.626 146.974 887.232 Q150.053 891.816 150.053 900.565 Q150.053 909.292 146.974 913.899 Q143.919 918.482 138.109 918.482 Q132.298 918.482 129.22 913.899 Q126.164 909.292 126.164 900.565 Q126.164 891.816 129.22 887.232 Q132.298 882.626 138.109 882.626 Z" fill="#000000" fill-rule="nonzero" fill-opacity="1" /><path clip-path="url(#clip300)" d="M158.27 911.931 L163.155 911.931 L163.155 917.811 L158.27 917.811 L158.27 911.931 Z" fill="#000000" fill-rule="nonzero" fill-opacity="1" /><path clip-path="url(#clip300)" d="M174.15 913.876 L181.789 913.876 L181.789 887.51 L173.479 889.177 L173.479 884.917 L181.743 883.251 L186.418 883.251 L186.418 913.876 L194.057 913.876 L194.057 917.811 L174.15 917.811 L174.15 913.876 Z" fill="#000000" fill-rule="nonzero" fill-opacity="1" /><path clip-path="url(#clip300)" d="M213.502 886.329 Q209.891 886.329 208.062 889.894 Q206.256 893.436 206.256 900.565 Q206.256 907.672 208.062 911.237 Q209.891 914.778 213.502 914.778 Q217.136 914.778 218.941 911.237 Q220.77 907.672 220.77 900.565 Q220.77 893.436 218.941 889.894 Q217.136 886.329 213.502 886.329 M213.502 882.626 Q219.312 882.626 222.367 887.232 Q225.446 891.816 225.446 900.565 Q225.446 909.292 222.367 913.899 Q219.312 918.482 213.502 918.482 Q207.691 918.482 204.613 913.899 Q201.557 909.292 201.557 900.565 Q201.557 891.816 204.613 887.232 Q207.691 882.626 213.502 882.626 Z" fill="#000000" fill-rule="nonzero" fill-opacity="1" /><path clip-path="url(#clip300)" d="M139.104 664.893 Q135.493 664.893 133.664 668.458 Q131.859 671.999 131.859 679.129 Q131.859 686.235 133.664 689.8 Q135.493 693.342 139.104 693.342 Q142.738 693.342 144.544 689.8 Q146.372 686.235 146.372 679.129 Q146.372 671.999 144.544 668.458 Q142.738 664.893 139.104 664.893 M139.104 661.189 Q144.914 661.189 147.97 665.796 Q151.048 670.379 151.048 679.129 Q151.048 687.856 147.97 692.462 Q144.914 697.045 139.104 697.045 Q133.294 697.045 130.215 692.462 Q127.16 687.856 127.16 679.129 Q127.16 670.379 130.215 665.796 Q133.294 661.189 139.104 661.189 Z" fill="#000000" fill-rule="nonzero" fill-opacity="1" /><path clip-path="url(#clip300)" d="M159.266 690.495 L164.15 690.495 L164.15 696.374 L159.266 696.374 L159.266 690.495 Z" fill="#000000" fill-rule="nonzero" fill-opacity="1" /><path clip-path="url(#clip300)" d="M175.145 692.439 L182.784 692.439 L182.784 666.073 L174.474 667.74 L174.474 663.481 L182.738 661.814 L187.414 661.814 L187.414 692.439 L195.053 692.439 L195.053 696.374 L175.145 696.374 L175.145 692.439 Z" fill="#000000" fill-rule="nonzero" fill-opacity="1" /><path clip-path="url(#clip300)" d="M204.543 661.814 L222.9 661.814 L222.9 665.749 L208.826 665.749 L208.826 674.222 Q209.844 673.874 210.863 673.712 Q211.881 673.527 212.9 673.527 Q218.687 673.527 222.066 676.698 Q225.446 679.87 225.446 685.286 Q225.446 690.865 221.974 693.967 Q218.502 697.045 212.182 697.045 Q210.006 697.045 207.738 696.675 Q205.492 696.305 203.085 695.564 L203.085 690.865 Q205.168 691.999 207.391 692.555 Q209.613 693.11 212.09 693.11 Q216.094 693.11 218.432 691.004 Q220.77 688.897 220.77 685.286 Q220.77 681.675 218.432 679.569 Q216.094 677.462 212.09 677.462 Q210.215 677.462 208.34 677.879 Q206.488 678.296 204.543 679.175 L204.543 661.814 Z" fill="#000000" fill-rule="nonzero" fill-opacity="1" /><path clip-path="url(#clip300)" d="M138.109 443.456 Q134.497 443.456 132.669 447.021 Q130.863 450.563 130.863 457.692 Q130.863 464.799 132.669 468.364 Q134.497 471.905 138.109 471.905 Q141.743 471.905 143.548 468.364 Q145.377 464.799 145.377 457.692 Q145.377 450.563 143.548 447.021 Q141.743 443.456 138.109 443.456 M138.109 439.753 Q143.919 439.753 146.974 444.359 Q150.053 448.942 150.053 457.692 Q150.053 466.419 146.974 471.026 Q143.919 475.609 138.109 475.609 Q132.298 475.609 129.22 471.026 Q126.164 466.419 126.164 457.692 Q126.164 448.942 129.22 444.359 Q132.298 439.753 138.109 439.753 Z" fill="#000000" fill-rule="nonzero" fill-opacity="1" /><path clip-path="url(#clip300)" d="M158.27 469.058 L163.155 469.058 L163.155 474.938 L158.27 474.938 L158.27 469.058 Z" fill="#000000" fill-rule="nonzero" fill-opacity="1" /><path clip-path="url(#clip300)" d="M177.368 471.002 L193.687 471.002 L193.687 474.938 L171.743 474.938 L171.743 471.002 Q174.405 468.248 178.988 463.618 Q183.594 458.966 184.775 457.623 Q187.02 455.1 187.9 453.364 Q188.803 451.604 188.803 449.915 Q188.803 447.16 186.858 445.424 Q184.937 443.688 181.835 443.688 Q179.636 443.688 177.182 444.452 Q174.752 445.216 171.974 446.767 L171.974 442.044 Q174.798 440.91 177.252 440.331 Q179.706 439.753 181.743 439.753 Q187.113 439.753 190.307 442.438 Q193.502 445.123 193.502 449.614 Q193.502 451.743 192.692 453.665 Q191.905 455.563 189.798 458.155 Q189.219 458.827 186.118 462.044 Q183.016 465.239 177.368 471.002 Z" fill="#000000" fill-rule="nonzero" fill-opacity="1" /><path clip-path="url(#clip300)" d="M213.502 443.456 Q209.891 443.456 208.062 447.021 Q206.256 450.563 206.256 457.692 Q206.256 464.799 208.062 468.364 Q209.891 471.905 213.502 471.905 Q217.136 471.905 218.941 468.364 Q220.77 464.799 220.77 457.692 Q220.77 450.563 218.941 447.021 Q217.136 443.456 213.502 443.456 M213.502 439.753 Q219.312 439.753 222.367 444.359 Q225.446 448.942 225.446 457.692 Q225.446 466.419 222.367 471.026 Q219.312 475.609 213.502 475.609 Q207.691 475.609 204.613 471.026 Q201.557 466.419 201.557 457.692 Q201.557 448.942 204.613 444.359 Q207.691 439.753 213.502 439.753 Z" fill="#000000" fill-rule="nonzero" fill-opacity="1" /><path clip-path="url(#clip300)" d="M139.104 222.02 Q135.493 222.02 133.664 225.585 Q131.859 229.126 131.859 236.256 Q131.859 243.362 133.664 246.927 Q135.493 250.469 139.104 250.469 Q142.738 250.469 144.544 246.927 Q146.372 243.362 146.372 236.256 Q146.372 229.126 144.544 225.585 Q142.738 222.02 139.104 222.02 M139.104 218.316 Q144.914 218.316 147.97 222.923 Q151.048 227.506 151.048 236.256 Q151.048 244.983 147.97 249.589 Q144.914 254.172 139.104 254.172 Q133.294 254.172 130.215 249.589 Q127.16 244.983 127.16 236.256 Q127.16 227.506 130.215 222.923 Q133.294 218.316 139.104 218.316 Z" fill="#000000" fill-rule="nonzero" fill-opacity="1" /><path clip-path="url(#clip300)" d="M159.266 247.622 L164.15 247.622 L164.15 253.501 L159.266 253.501 L159.266 247.622 Z" fill="#000000" fill-rule="nonzero" fill-opacity="1" /><path clip-path="url(#clip300)" d="M178.363 249.566 L194.682 249.566 L194.682 253.501 L172.738 253.501 L172.738 249.566 Q175.4 246.811 179.983 242.182 Q184.59 237.529 185.77 236.186 Q188.016 233.663 188.895 231.927 Q189.798 230.168 189.798 228.478 Q189.798 225.723 187.854 223.987 Q185.932 222.251 182.831 222.251 Q180.631 222.251 178.178 223.015 Q175.747 223.779 172.969 225.33 L172.969 220.608 Q175.794 219.474 178.247 218.895 Q180.701 218.316 182.738 218.316 Q188.108 218.316 191.303 221.001 Q194.497 223.686 194.497 228.177 Q194.497 230.307 193.687 232.228 Q192.9 234.126 190.793 236.719 Q190.215 237.39 187.113 240.608 Q184.011 243.802 178.363 249.566 Z" fill="#000000" fill-rule="nonzero" fill-opacity="1" /><path clip-path="url(#clip300)" d="M204.543 218.941 L222.9 218.941 L222.9 222.876 L208.826 222.876 L208.826 231.348 Q209.844 231.001 210.863 230.839 Q211.881 230.654 212.9 230.654 Q218.687 230.654 222.066 233.825 Q225.446 236.997 225.446 242.413 Q225.446 247.992 221.974 251.094 Q218.502 254.172 212.182 254.172 Q210.006 254.172 207.738 253.802 Q205.492 253.432 203.085 252.691 L203.085 247.992 Q205.168 249.126 207.391 249.682 Q209.613 250.237 212.09 250.237 Q216.094 250.237 218.432 248.131 Q220.77 246.024 220.77 242.413 Q220.77 238.802 218.432 236.696 Q216.094 234.589 212.09 234.589 Q210.215 234.589 208.34 235.006 Q206.488 235.422 204.543 236.302 L204.543 218.941 Z" fill="#000000" fill-rule="nonzero" fill-opacity="1" /><path clip-path="url(#clip300)" d="M60.4144 946.928 L77.8246 946.928 L77.8246 936.616 Q77.8246 931.428 75.6921 928.945 Q73.5278 926.431 69.1036 926.431 Q64.6476 926.431 62.5469 928.945 Q60.4144 931.428 60.4144 936.616 L60.4144 946.928 M40.8717 946.928 L55.1945 946.928 L55.1945 937.412 Q55.1945 932.701 53.444 930.409 Q51.6616 928.086 48.0331 928.086 Q44.4365 928.086 42.6541 930.409 Q40.8717 932.701 40.8717 937.412 L40.8717 946.928 M35.5882 953.358 L35.5882 936.934 Q35.5882 929.582 38.6437 925.603 Q41.6992 921.625 47.3329 921.625 Q51.6934 921.625 54.2715 923.662 Q56.8496 925.699 57.4862 929.646 Q58.5047 924.903 61.7512 922.293 Q64.9659 919.651 69.8038 919.651 Q76.1695 919.651 79.6388 923.98 Q83.1082 928.309 83.1082 936.298 L83.1082 953.358 L35.5882 953.358 Z" fill="#000000" fill-rule="nonzero" fill-opacity="1" /><path clip-path="url(#clip300)" d="M63.8201 878.402 L66.6846 878.402 L66.6846 905.329 Q72.7321 904.947 75.9149 901.7 Q79.0659 898.422 79.0659 892.597 Q79.0659 889.223 78.2384 886.072 Q77.4109 882.889 75.7558 879.77 L81.2939 879.77 Q82.6307 882.921 83.331 886.231 Q84.0312 889.542 84.0312 892.947 Q84.0312 901.477 79.0659 906.474 Q74.1007 911.44 65.6343 911.44 Q56.8814 911.44 51.7571 906.729 Q46.6008 901.987 46.6008 893.966 Q46.6008 886.773 51.2478 882.603 Q55.8629 878.402 63.8201 878.402 M62.1013 884.258 Q57.2952 884.322 54.4306 886.963 Q51.5661 889.573 51.5661 893.902 Q51.5661 898.804 54.3352 901.764 Q57.1042 904.692 62.1332 905.138 L62.1013 884.258 Z" fill="#000000" fill-rule="nonzero" fill-opacity="1" /><path clip-path="url(#clip300)" d="M77.761 863.124 L96.6671 863.124 L96.6671 869.012 L47.4602 869.012 L47.4602 863.124 L52.8711 863.124 Q49.6882 861.278 48.1604 858.477 Q46.6008 855.644 46.6008 851.729 Q46.6008 845.236 51.7571 841.194 Q56.9133 837.12 65.316 837.12 Q73.7187 837.12 78.875 841.194 Q84.0312 845.236 84.0312 851.729 Q84.0312 855.644 82.5034 858.477 Q80.9438 861.278 77.761 863.124 M65.316 843.199 Q58.8548 843.199 55.1945 845.873 Q51.5024 848.515 51.5024 853.162 Q51.5024 857.809 55.1945 860.482 Q58.8548 863.124 65.316 863.124 Q71.7772 863.124 75.4693 860.482 Q79.1296 857.809 79.1296 853.162 Q79.1296 848.515 75.4693 845.873 Q71.7772 843.199 65.316 843.199 Z" fill="#000000" fill-rule="nonzero" fill-opacity="1" /><path clip-path="url(#clip300)" d="M51.5661 813.599 Q51.5661 818.309 55.2582 821.047 Q58.9185 823.784 65.316 823.784 Q71.7135 823.784 75.4057 821.078 Q79.0659 818.341 79.0659 813.599 Q79.0659 808.92 75.3738 806.183 Q71.6817 803.445 65.316 803.445 Q58.9821 803.445 55.29 806.183 Q51.5661 808.92 51.5661 813.599 M46.6008 813.599 Q46.6008 805.96 51.5661 801.599 Q56.5313 797.239 65.316 797.239 Q74.0689 797.239 79.0659 801.599 Q84.0312 805.96 84.0312 813.599 Q84.0312 821.269 79.0659 825.63 Q74.0689 829.959 65.316 829.959 Q56.5313 829.959 51.5661 825.63 Q46.6008 821.269 46.6008 813.599 Z" fill="#000000" fill-rule="nonzero" fill-opacity="1" /><path clip-path="url(#clip300)" d="M57.7408 781.643 Q60.3826 781.643 61.8785 779.606 Q63.3745 777.569 63.3745 773.781 L63.3745 765.888 L52.139 765.888 L52.139 773.781 Q52.139 777.569 53.6031 779.606 Q55.0672 781.643 57.7408 781.643 M83.1082 789.982 L67.4803 779.097 Q66.6528 782.789 64.4885 785.24 Q62.2923 787.69 57.7408 787.69 Q52.5846 787.69 50.0383 784.285 Q47.4602 780.847 47.4602 773.94 L47.4602 759.999 L83.1082 759.999 L83.1082 765.888 L68.0533 765.888 L68.0533 773.176 L83.1082 783.68 L83.1082 789.982 Z" fill="#000000" fill-rule="nonzero" fill-opacity="1" /><path clip-path="url(#clip300)" d="M47.4602 752.552 L47.4602 718.4 L52.139 718.4 L52.139 732.595 L83.1082 732.595 L83.1082 738.356 L52.139 738.356 L52.139 752.552 L47.4602 752.552 Z" fill="#000000" fill-rule="nonzero" fill-opacity="1" /><path clip-path="url(#clip300)" d="M47.4602 710.57 L47.4602 704.681 L62.0058 704.681 L62.0058 685.68 L47.4602 685.68 L47.4602 679.792 L83.1082 679.792 L83.1082 685.68 L66.6846 685.68 L66.6846 704.681 L83.1082 704.681 L83.1082 710.57 L47.4602 710.57 Z" fill="#000000" fill-rule="nonzero" fill-opacity="1" /><path clip-path="url(#clip300)" d="M51.5661 653.915 Q51.5661 658.626 55.2582 661.363 Q58.9185 664.1 65.316 664.1 Q71.7135 664.1 75.4057 661.395 Q79.0659 658.657 79.0659 653.915 Q79.0659 649.236 75.3738 646.499 Q71.6817 643.762 65.316 643.762 Q58.9821 643.762 55.29 646.499 Q51.5661 649.236 51.5661 653.915 M46.6008 653.915 Q46.6008 646.276 51.5661 641.916 Q56.5313 637.555 65.316 637.555 Q74.0689 637.555 79.0659 641.916 Q84.0312 646.276 84.0312 653.915 Q84.0312 661.586 79.0659 665.946 Q74.0689 670.275 65.316 670.275 Q56.5313 670.275 51.5661 665.946 Q46.6008 661.586 46.6008 653.915 Z" fill="#000000" fill-rule="nonzero" fill-opacity="1" /><path clip-path="url(#clip300)" d="M48.8288 602.194 L54.3033 602.194 Q52.9347 604.676 52.2663 607.191 Q51.5661 609.673 51.5661 612.22 Q51.5661 617.917 55.1945 621.068 Q58.7912 624.219 65.316 624.219 Q71.8409 624.219 75.4693 621.068 Q79.0659 617.917 79.0659 612.22 Q79.0659 609.673 78.3975 607.191 Q77.6973 604.676 76.3287 602.194 L81.7395 602.194 Q82.8854 604.644 83.4583 607.286 Q84.0312 609.896 84.0312 612.856 Q84.0312 620.909 78.9704 625.651 Q73.9097 630.394 65.316 630.394 Q56.595 630.394 51.5979 625.619 Q46.6008 620.813 46.6008 612.474 Q46.6008 609.769 47.1737 607.191 Q47.7148 604.613 48.8288 602.194 Z" fill="#000000" fill-rule="nonzero" fill-opacity="1" /><path clip-path="url(#clip300)" d="M47.4602 596.242 L47.4602 562.09 L52.139 562.09 L52.139 576.285 L83.1082 576.285 L83.1082 582.046 L52.139 582.046 L52.139 596.242 L47.4602 596.242 Z" fill="#000000" fill-rule="nonzero" fill-opacity="1" /><path clip-path="url(#clip300)" d="M72.5411 531.853 Q69.6765 531.853 68.1806 533.953 Q66.6846 536.022 66.6846 540.032 L66.6846 548.372 L78.4294 548.372 L78.4294 540.032 Q78.4294 536.022 76.9334 533.953 Q75.4057 531.853 72.5411 531.853 M47.4602 554.26 L47.4602 548.372 L62.0058 548.372 L62.0058 539.778 Q62.0058 532.967 64.6158 529.306 Q67.1939 525.614 72.5411 525.614 Q77.8883 525.614 80.4982 529.306 Q83.1082 532.967 83.1082 539.778 L83.1082 554.26 L47.4602 554.26 Z" fill="#000000" fill-rule="nonzero" fill-opacity="1" /><path clip-path="url(#clip300)" d="M341.063 18.8205 L341.063 41.5461 L351.352 41.5461 Q357.064 41.5461 360.183 38.5889 Q363.302 35.6318 363.302 30.163 Q363.302 24.7348 360.183 21.7777 Q357.064 18.8205 351.352 18.8205 L341.063 18.8205 M332.88 12.096 L351.352 12.096 Q361.52 12.096 366.705 16.714 Q371.931 21.2916 371.931 30.163 Q371.931 39.1155 366.705 43.6931 Q361.52 48.2706 351.352 48.2706 L341.063 48.2706 L341.063 72.576 L332.88 72.576 L332.88 12.096 Z" fill="#000000" fill-rule="nonzero" fill-opacity="1" /><path clip-path="url(#clip300)" d="M403.204 49.7694 Q394.17 49.7694 390.686 51.8354 Q387.203 53.9013 387.203 58.8839 Q387.203 62.8538 389.795 65.2034 Q392.428 67.5124 396.925 67.5124 Q403.123 67.5124 406.849 63.1374 Q410.617 58.7219 410.617 51.4303 L410.617 49.7694 L403.204 49.7694 M418.07 46.6907 L418.07 72.576 L410.617 72.576 L410.617 65.6895 Q408.065 69.8214 404.257 71.8063 Q400.449 73.7508 394.94 73.7508 Q387.972 73.7508 383.84 69.8619 Q379.749 65.9325 379.749 59.3701 Q379.749 51.7138 384.853 47.825 Q389.998 43.9361 400.165 43.9361 L410.617 43.9361 L410.617 43.2069 Q410.617 38.0623 407.214 35.2672 Q403.852 32.4315 397.735 32.4315 Q393.846 32.4315 390.16 33.3632 Q386.473 34.295 383.071 36.1584 L383.071 29.2718 Q387.162 27.692 391.01 26.9223 Q394.859 26.1121 398.505 26.1121 Q408.348 26.1121 413.209 31.2163 Q418.07 36.3204 418.07 46.6907 Z" fill="#000000" fill-rule="nonzero" fill-opacity="1" /><path clip-path="url(#clip300)" d="M466.074 28.9478 L466.074 35.9153 Q462.914 34.1734 459.714 33.3227 Q456.554 32.4315 453.313 32.4315 Q446.062 32.4315 442.052 37.0496 Q438.041 41.6271 438.041 49.9314 Q438.041 58.2358 442.052 62.8538 Q446.062 67.4314 453.313 67.4314 Q456.554 67.4314 459.714 66.5807 Q462.914 65.6895 466.074 63.9476 L466.074 70.8341 Q462.954 72.2924 459.592 73.0216 Q456.27 73.7508 452.503 73.7508 Q442.254 73.7508 436.218 67.3098 Q430.183 60.8689 430.183 49.9314 Q430.183 38.832 436.259 32.472 Q442.376 26.1121 452.989 26.1121 Q456.432 26.1121 459.714 26.8413 Q462.995 27.5299 466.074 28.9478 Z" fill="#000000" fill-rule="nonzero" fill-opacity="1" /><path clip-path="url(#clip300)" d="M517.925 27.2059 L517.925 72.576 L510.431 72.576 L510.431 33.1607 L486.247 33.1607 L486.247 72.576 L478.753 72.576 L478.753 27.2059 L517.925 27.2059 Z" fill="#000000" fill-rule="nonzero" fill-opacity="1" /><path clip-path="url(#clip300)" d="M540.489 65.7705 L540.489 89.8329 L532.995 89.8329 L532.995 27.2059 L540.489 27.2059 L540.489 34.0924 Q542.838 30.0415 546.403 28.0971 Q550.008 26.1121 554.991 26.1121 Q563.255 26.1121 568.399 32.6746 Q573.585 39.2371 573.585 49.9314 Q573.585 60.6258 568.399 67.1883 Q563.255 73.7508 554.991 73.7508 Q550.008 73.7508 546.403 71.8063 Q542.838 69.8214 540.489 65.7705 M565.847 49.9314 Q565.847 41.7081 562.445 37.0496 Q559.082 32.3505 553.168 32.3505 Q547.254 32.3505 543.851 37.0496 Q540.489 41.7081 540.489 49.9314 Q540.489 58.1548 543.851 62.8538 Q547.254 67.5124 553.168 67.5124 Q559.082 67.5124 562.445 62.8538 Q565.847 58.1548 565.847 49.9314 Z" fill="#000000" fill-rule="nonzero" fill-opacity="1" /><path clip-path="url(#clip300)" d="M624.748 48.0275 L624.748 51.6733 L590.477 51.6733 Q590.963 59.3701 595.095 63.421 Q599.267 67.4314 606.681 67.4314 Q610.974 67.4314 614.985 66.3781 Q619.036 65.3249 623.006 63.2184 L623.006 70.267 Q618.995 71.9684 614.782 72.8596 Q610.569 73.7508 606.235 73.7508 Q595.378 73.7508 589.019 67.4314 Q582.699 61.1119 582.699 50.3365 Q582.699 39.1965 588.694 32.6746 Q594.73 26.1121 604.939 26.1121 Q614.094 26.1121 619.4 32.0264 Q624.748 37.9003 624.748 48.0275 M617.294 45.84 Q617.213 39.7232 613.851 36.0774 Q610.529 32.4315 605.02 32.4315 Q598.781 32.4315 595.014 35.9558 Q591.287 39.4801 590.72 45.8805 L617.294 45.84 Z" fill="#000000" fill-rule="nonzero" fill-opacity="1" /><path clip-path="url(#clip300)" d="M647.109 66.6212 L668.74 66.6212 L668.74 33.1607 L653.063 33.1607 L653.063 38.832 Q653.063 55.5217 648.283 64.4337 L647.109 66.6212 M636.293 66.6212 Q639.979 65.0008 641.599 61.5575 Q645.569 53.0101 645.569 35.7938 L645.569 27.2059 L676.235 27.2059 L676.235 66.6212 L682.189 66.6212 L682.189 84.0401 L676.235 84.0401 L676.235 72.576 L639.452 72.576 L639.452 84.0401 L633.497 84.0401 L633.497 66.6212 L636.293 66.6212 Z" fill="#000000" fill-rule="nonzero" fill-opacity="1" /><path clip-path="url(#clip300)" d="M733.15 48.0275 L733.15 51.6733 L698.879 51.6733 Q699.365 59.3701 703.497 63.421 Q707.67 67.4314 715.083 67.4314 Q719.377 67.4314 723.387 66.3781 Q727.438 65.3249 731.408 63.2184 L731.408 70.267 Q727.397 71.9684 723.185 72.8596 Q718.972 73.7508 714.637 73.7508 Q703.781 73.7508 697.421 67.4314 Q691.101 61.1119 691.101 50.3365 Q691.101 39.1965 697.097 32.6746 Q703.133 26.1121 713.341 26.1121 Q722.496 26.1121 727.803 32.0264 Q733.15 37.9003 733.15 48.0275 M725.696 45.84 Q725.615 39.7232 722.253 36.0774 Q718.931 32.4315 713.422 32.4315 Q707.183 32.4315 703.416 35.9558 Q699.689 39.4801 699.122 45.8805 L725.696 45.84 Z" fill="#000000" fill-rule="nonzero" fill-opacity="1" /><path clip-path="url(#clip300)" d="M740.644 72.576 L740.644 66.3781 Q748.017 65.2439 750.285 60.1397 Q753.04 52.9696 753.04 34.619 L753.04 27.2059 L783.705 27.2059 L783.705 72.576 L776.251 72.576 L776.251 33.1607 L760.493 33.1607 L760.493 37.6572 Q760.493 55.1571 756.929 63.0159 Q753.121 71.4012 740.644 72.576 Z" fill="#000000" fill-rule="nonzero" fill-opacity="1" /><path clip-path="url(#clip300)" d="M837.217 48.0275 L837.217 51.6733 L802.947 51.6733 Q803.433 59.3701 807.565 63.421 Q811.737 67.4314 819.15 67.4314 Q823.444 67.4314 827.455 66.3781 Q831.506 65.3249 835.476 63.2184 L835.476 70.267 Q831.465 71.9684 827.252 72.8596 Q823.039 73.7508 818.705 73.7508 Q807.848 73.7508 801.488 67.4314 Q795.169 61.1119 795.169 50.3365 Q795.169 39.1965 801.164 32.6746 Q807.2 26.1121 817.409 26.1121 Q826.564 26.1121 831.87 32.0264 Q837.217 37.9003 837.217 48.0275 M829.764 45.84 Q829.683 39.7232 826.321 36.0774 Q822.999 32.4315 817.49 32.4315 Q811.251 32.4315 807.484 35.9558 Q803.757 39.4801 803.19 45.8805 L829.764 45.84 Z" fill="#000000" fill-rule="nonzero" fill-opacity="1" /><path clip-path="url(#clip300)" d="M849.168 27.2059 L856.662 27.2059 L856.662 45.7185 L880.846 45.7185 L880.846 27.2059 L888.34 27.2059 L888.34 72.576 L880.846 72.576 L880.846 51.6733 L856.662 51.6733 L856.662 72.576 L849.168 72.576 L849.168 27.2059 Z" fill="#000000" fill-rule="nonzero" fill-opacity="1" /><path clip-path="url(#clip300)" d="M942.257 27.2059 L942.257 72.576 L934.844 72.576 L934.844 36.1584 L912.969 72.576 L903.409 72.576 L903.409 27.2059 L910.822 27.2059 L910.822 63.5425 L932.657 27.2059 L942.257 27.2059 Z" fill="#000000" fill-rule="nonzero" fill-opacity="1" /><path clip-path="url(#clip300)" d="M996.418 48.0275 L996.418 51.6733 L962.147 51.6733 Q962.633 59.3701 966.765 63.421 Q970.938 67.4314 978.351 67.4314 Q982.645 67.4314 986.655 66.3781 Q990.706 65.3249 994.676 63.2184 L994.676 70.267 Q990.666 71.9684 986.453 72.8596 Q982.24 73.7508 977.905 73.7508 Q967.049 73.7508 960.689 67.4314 Q954.37 61.1119 954.37 50.3365 Q954.37 39.1965 960.365 32.6746 Q966.401 26.1121 976.609 26.1121 Q985.764 26.1121 991.071 32.0264 Q996.418 37.9003 996.418 48.0275 M988.964 45.84 Q988.883 39.7232 985.521 36.0774 Q982.199 32.4315 976.69 32.4315 Q970.452 32.4315 966.684 35.9558 Q962.958 39.4801 962.39 45.8805 L988.964 45.84 Z" fill="#000000" fill-rule="nonzero" fill-opacity="1" /><path clip-path="url(#clip300)" d="M1061.23 72.576 L1061.23 53.4962 L1047.34 53.4962 Q1041.14 53.4962 1037.01 49.6479 Q1033.28 46.1641 1033.28 38.7104 L1033.28 27.2059 L1040.73 27.2059 L1040.73 38.0218 Q1040.73 42.7613 1042.84 45.1514 Q1044.99 47.5414 1049.2 47.5414 L1061.23 47.5414 L1061.23 27.2059 L1068.69 27.2059 L1068.69 72.576 L1061.23 72.576 Z" fill="#000000" fill-rule="nonzero" fill-opacity="1" /><path clip-path="url(#clip300)" d="M1122.6 27.2059 L1122.6 72.576 L1115.19 72.576 L1115.19 36.1584 L1093.32 72.576 L1083.76 72.576 L1083.76 27.2059 L1091.17 27.2059 L1091.17 63.5425 L1113 27.2059 L1122.6 27.2059 Z" fill="#000000" fill-rule="nonzero" fill-opacity="1" /><path clip-path="url(#clip300)" d="M1170.61 28.9478 L1170.61 35.9153 Q1167.45 34.1734 1164.25 33.3227 Q1161.09 32.4315 1157.85 32.4315 Q1150.6 32.4315 1146.59 37.0496 Q1142.57 41.6271 1142.57 49.9314 Q1142.57 58.2358 1146.59 62.8538 Q1150.6 67.4314 1157.85 67.4314 Q1161.09 67.4314 1164.25 66.5807 Q1167.45 65.6895 1170.61 63.9476 L1170.61 70.8341 Q1167.49 72.2924 1164.13 73.0216 Q1160.8 73.7508 1157.04 73.7508 Q1146.79 73.7508 1140.75 67.3098 Q1134.72 60.8689 1134.72 49.9314 Q1134.72 38.832 1140.79 32.472 Q1146.91 26.1121 1157.52 26.1121 Q1160.97 26.1121 1164.25 26.8413 Q1167.53 27.5299 1170.61 28.9478 Z" fill="#000000" fill-rule="nonzero" fill-opacity="1" /><path clip-path="url(#clip300)" d="M1178.83 72.576 L1178.83 66.3781 Q1186.2 65.2439 1188.47 60.1397 Q1191.23 52.9696 1191.23 34.619 L1191.23 27.2059 L1221.89 27.2059 L1221.89 72.576 L1214.44 72.576 L1214.44 33.1607 L1198.68 33.1607 L1198.68 37.6572 Q1198.68 55.1571 1195.11 63.0159 Q1191.31 71.4012 1178.83 72.576 Z" fill="#000000" fill-rule="nonzero" fill-opacity="1" /><path clip-path="url(#clip300)" d="M1257.22 49.7694 Q1248.18 49.7694 1244.7 51.8354 Q1241.21 53.9013 1241.21 58.8839 Q1241.21 62.8538 1243.81 65.2034 Q1246.44 67.5124 1250.94 67.5124 Q1257.13 67.5124 1260.86 63.1374 Q1264.63 58.7219 1264.63 51.4303 L1264.63 49.7694 L1257.22 49.7694 M1272.08 46.6907 L1272.08 72.576 L1264.63 72.576 L1264.63 65.6895 Q1262.08 69.8214 1258.27 71.8063 Q1254.46 73.7508 1248.95 73.7508 Q1241.98 73.7508 1237.85 69.8619 Q1233.76 65.9325 1233.76 59.3701 Q1233.76 51.7138 1238.86 47.825 Q1244.01 43.9361 1254.18 43.9361 L1264.63 43.9361 L1264.63 43.2069 Q1264.63 38.0623 1261.23 35.2672 Q1257.86 32.4315 1251.75 32.4315 Q1247.86 32.4315 1244.17 33.3632 Q1240.48 34.295 1237.08 36.1584 L1237.08 29.2718 Q1241.17 27.692 1245.02 26.9223 Q1248.87 26.1121 1252.52 26.1121 Q1262.36 26.1121 1267.22 31.2163 Q1272.08 36.3204 1272.08 46.6907 Z" fill="#000000" fill-rule="nonzero" fill-opacity="1" /><path clip-path="url(#clip300)" d="M1334.43 49.7694 Q1325.39 49.7694 1321.91 51.8354 Q1318.42 53.9013 1318.42 58.8839 Q1318.42 62.8538 1321.02 65.2034 Q1323.65 67.5124 1328.15 67.5124 Q1334.34 67.5124 1338.07 63.1374 Q1341.84 58.7219 1341.84 51.4303 L1341.84 49.7694 L1334.43 49.7694 M1349.29 46.6907 L1349.29 72.576 L1341.84 72.576 L1341.84 65.6895 Q1339.29 69.8214 1335.48 71.8063 Q1331.67 73.7508 1326.16 73.7508 Q1319.19 73.7508 1315.06 69.8619 Q1310.97 65.9325 1310.97 59.3701 Q1310.97 51.7138 1316.07 47.825 Q1321.22 43.9361 1331.39 43.9361 L1341.84 43.9361 L1341.84 43.2069 Q1341.84 38.0623 1338.44 35.2672 Q1335.07 32.4315 1328.96 32.4315 Q1325.07 32.4315 1321.38 33.3632 Q1317.7 34.295 1314.29 36.1584 L1314.29 29.2718 Q1318.38 27.692 1322.23 26.9223 Q1326.08 26.1121 1329.73 26.1121 Q1339.57 26.1121 1344.43 31.2163 Q1349.29 36.3204 1349.29 46.6907 Z" fill="#000000" fill-rule="nonzero" fill-opacity="1" /><path clip-path="url(#clip300)" d="M1359.26 27.2059 L1402.72 27.2059 L1402.72 33.1607 L1384.66 33.1607 L1384.66 72.576 L1377.32 72.576 L1377.32 33.1607 L1359.26 33.1607 L1359.26 27.2059 Z" fill="#000000" fill-rule="nonzero" fill-opacity="1" /><path clip-path="url(#clip300)" d="M1433.59 49.7694 Q1424.56 49.7694 1421.07 51.8354 Q1417.59 53.9013 1417.59 58.8839 Q1417.59 62.8538 1420.18 65.2034 Q1422.82 67.5124 1427.31 67.5124 Q1433.51 67.5124 1437.24 63.1374 Q1441 58.7219 1441 51.4303 L1441 49.7694 L1433.59 49.7694 M1448.46 46.6907 L1448.46 72.576 L1441 72.576 L1441 65.6895 Q1438.45 69.8214 1434.64 71.8063 Q1430.84 73.7508 1425.33 73.7508 Q1418.36 73.7508 1414.23 69.8619 Q1410.14 65.9325 1410.14 59.3701 Q1410.14 51.7138 1415.24 47.825 Q1420.39 43.9361 1430.55 43.9361 L1441 43.9361 L1441 43.2069 Q1441 38.0623 1437.6 35.2672 Q1434.24 32.4315 1428.12 32.4315 Q1424.23 32.4315 1420.55 33.3632 Q1416.86 34.295 1413.46 36.1584 L1413.46 29.2718 Q1417.55 27.692 1421.4 26.9223 Q1425.25 26.1121 1428.89 26.1121 Q1438.74 26.1121 1443.6 31.2163 Q1448.46 36.3204 1448.46 46.6907 Z" fill="#000000" fill-rule="nonzero" fill-opacity="1" /><path clip-path="url(#clip300)" d="M1463.53 27.2059 L1470.94 27.2059 L1470.94 48.5136 L1491.97 27.2059 L1501.12 27.2059 L1483.78 44.7463 L1503.35 72.576 L1495 72.576 L1478.92 49.6884 L1470.94 57.7902 L1470.94 72.576 L1463.53 72.576 L1463.53 27.2059 Z" fill="#000000" fill-rule="nonzero" fill-opacity="1" /><path clip-path="url(#clip300)" d="M1561.07 48.1085 Q1566.1 49.0808 1568.89 52.0379 Q1571.69 54.9951 1571.69 59.3701 Q1571.69 66.3781 1566.46 70.0644 Q1561.24 73.7508 1551.59 73.7508 Q1548.35 73.7508 1544.91 73.1836 Q1541.51 72.6165 1537.86 71.4823 L1537.86 64.5552 Q1540.74 66.054 1544.18 66.8237 Q1547.62 67.5529 1551.39 67.5529 Q1557.51 67.5529 1560.91 65.2844 Q1564.35 63.0159 1564.35 59.3701 Q1564.35 55.8053 1561.32 53.6583 Q1558.28 51.4708 1552.73 51.4708 L1546.73 51.4708 L1546.73 45.3134 L1553.01 45.3134 Q1557.71 45.3134 1560.43 43.531 Q1563.18 41.7081 1563.18 38.8725 Q1563.18 36.2799 1560.34 34.4165 Q1557.55 32.5531 1552.73 32.5531 Q1549.85 32.5531 1546.57 33.0797 Q1543.33 33.6063 1539.4 34.7811 L1539.4 28.0161 Q1543.37 27.0438 1546.81 26.5577 Q1550.26 26.0716 1553.34 26.0716 Q1561.28 26.0716 1565.85 29.2718 Q1570.47 32.4315 1570.47 38.1433 Q1570.47 41.9107 1568.04 44.5437 Q1565.61 47.1363 1561.07 48.1085 Z" fill="#000000" fill-rule="nonzero" fill-opacity="1" /><path clip-path="url(#clip300)" d="M1605.03 49.7694 Q1595.99 49.7694 1592.51 51.8354 Q1589.02 53.9013 1589.02 58.8839 Q1589.02 62.8538 1591.62 65.2034 Q1594.25 67.5124 1598.75 67.5124 Q1604.94 67.5124 1608.67 63.1374 Q1612.44 58.7219 1612.44 51.4303 L1612.44 49.7694 L1605.03 49.7694 M1619.89 46.6907 L1619.89 72.576 L1612.44 72.576 L1612.44 65.6895 Q1609.89 69.8214 1606.08 71.8063 Q1602.27 73.7508 1596.76 73.7508 Q1589.79 73.7508 1585.66 69.8619 Q1581.57 65.9325 1581.57 59.3701 Q1581.57 51.7138 1586.68 47.825 Q1591.82 43.9361 1601.99 43.9361 L1612.44 43.9361 L1612.44 43.2069 Q1612.44 38.0623 1609.04 35.2672 Q1605.67 32.4315 1599.56 32.4315 Q1595.67 32.4315 1591.98 33.3632 Q1588.3 34.295 1584.89 36.1584 L1584.89 29.2718 Q1588.98 27.692 1592.83 26.9223 Q1596.68 26.1121 1600.33 26.1121 Q1610.17 26.1121 1615.03 31.2163 Q1619.89 36.3204 1619.89 46.6907 Z" fill="#000000" fill-rule="nonzero" fill-opacity="1" /><path clip-path="url(#clip300)" d="M1687.83 72.576 L1687.83 53.4962 L1673.93 53.4962 Q1667.73 53.4962 1663.6 49.6479 Q1659.88 46.1641 1659.88 38.7104 L1659.88 27.2059 L1667.33 27.2059 L1667.33 38.0218 Q1667.33 42.7613 1669.44 45.1514 Q1671.58 47.5414 1675.8 47.5414 L1687.83 47.5414 L1687.83 27.2059 L1695.28 27.2059 L1695.28 72.576 L1687.83 72.576 Z" fill="#000000" fill-rule="nonzero" fill-opacity="1" /><path clip-path="url(#clip300)" d="M1731.25 49.7694 Q1722.22 49.7694 1718.73 51.8354 Q1715.25 53.9013 1715.25 58.8839 Q1715.25 62.8538 1717.84 65.2034 Q1720.48 67.5124 1724.97 67.5124 Q1731.17 67.5124 1734.9 63.1374 Q1738.67 58.7219 1738.67 51.4303 L1738.67 49.7694 L1731.25 49.7694 M1746.12 46.6907 L1746.12 72.576 L1738.67 72.576 L1738.67 65.6895 Q1736.11 69.8214 1732.31 71.8063 Q1728.5 73.7508 1722.99 73.7508 Q1716.02 73.7508 1711.89 69.8619 Q1707.8 65.9325 1707.8 59.3701 Q1707.8 51.7138 1712.9 47.825 Q1718.05 43.9361 1728.21 43.9361 L1738.67 43.9361 L1738.67 43.2069 Q1738.67 38.0623 1735.26 35.2672 Q1731.9 32.4315 1725.78 32.4315 Q1721.89 32.4315 1718.21 33.3632 Q1714.52 34.295 1711.12 36.1584 L1711.12 29.2718 Q1715.21 27.692 1719.06 26.9223 Q1722.91 26.1121 1726.55 26.1121 Q1736.4 26.1121 1741.26 31.2163 Q1746.12 36.3204 1746.12 46.6907 Z" fill="#000000" fill-rule="nonzero" fill-opacity="1" /><path clip-path="url(#clip300)" d="M1794.12 28.9478 L1794.12 35.9153 Q1790.96 34.1734 1787.76 33.3227 Q1784.6 32.4315 1781.36 32.4315 Q1774.11 32.4315 1770.1 37.0496 Q1766.09 41.6271 1766.09 49.9314 Q1766.09 58.2358 1770.1 62.8538 Q1774.11 67.4314 1781.36 67.4314 Q1784.6 67.4314 1787.76 66.5807 Q1790.96 65.6895 1794.12 63.9476 L1794.12 70.8341 Q1791 72.2924 1787.64 73.0216 Q1784.32 73.7508 1780.55 73.7508 Q1770.3 73.7508 1764.27 67.3098 Q1758.23 60.8689 1758.23 49.9314 Q1758.23 38.832 1764.31 32.472 Q1770.42 26.1121 1781.04 26.1121 Q1784.48 26.1121 1787.76 26.8413 Q1791.04 27.5299 1794.12 28.9478 Z" fill="#000000" fill-rule="nonzero" fill-opacity="1" /><path clip-path="url(#clip302)" d="M343.267 1343.4 L343.267 1343.4 L487.314 1343.4 L487.314 1343.4 L343.267 1343.4 L343.267 1343.4  Z" fill="#009af9" fill-rule="evenodd" fill-opacity="1"/>
<polyline clip-path="url(#clip302)" style="stroke:#000000; stroke-linecap:round; stroke-linejoin:round; stroke-width:4; stroke-opacity:1; fill:none" points="343.267,1343.4 343.267,1343.4 487.314,1343.4 343.267,1343.4 "/>
<path clip-path="url(#clip302)" d="M487.314 940.792 L487.314 1343.4 L631.361 1343.4 L631.361 940.792 L487.314 940.792 L487.314 940.792  Z" fill="#009af9" fill-rule="evenodd" fill-opacity="1"/>
<polyline clip-path="url(#clip302)" style="stroke:#000000; stroke-linecap:round; stroke-linejoin:round; stroke-width:4; stroke-opacity:1; fill:none" points="487.314,940.792 487.314,1343.4 631.361,1343.4 631.361,940.792 487.314,940.792 "/>
<path clip-path="url(#clip302)" d="M631.361 940.792 L631.361 1343.4 L775.407 1343.4 L775.407 940.792 L631.361 940.792 L631.361 940.792  Z" fill="#009af9" fill-rule="evenodd" fill-opacity="1"/>
<polyline clip-path="url(#clip302)" style="stroke:#000000; stroke-linecap:round; stroke-linejoin:round; stroke-width:4; stroke-opacity:1; fill:none" points="631.361,940.792 631.361,1343.4 775.407,1343.4 775.407,940.792 631.361,940.792 "/>
<path clip-path="url(#clip302)" d="M775.407 1343.4 L775.407 1343.4 L919.454 1343.4 L919.454 1343.4 L775.407 1343.4 L775.407 1343.4  Z" fill="#009af9" fill-rule="evenodd" fill-opacity="1"/>
<polyline clip-path="url(#clip302)" style="stroke:#000000; stroke-linecap:round; stroke-linejoin:round; stroke-width:4; stroke-opacity:1; fill:none" points="775.407,1343.4 775.407,1343.4 919.454,1343.4 775.407,1343.4 "/>
<path clip-path="url(#clip302)" d="M919.454 135.568 L919.454 1343.4 L1063.5 1343.4 L1063.5 135.568 L919.454 135.568 L919.454 135.568  Z" fill="#009af9" fill-rule="evenodd" fill-opacity="1"/>
<polyline clip-path="url(#clip302)" style="stroke:#000000; stroke-linecap:round; stroke-linejoin:round; stroke-width:4; stroke-opacity:1; fill:none" points="919.454,135.568 919.454,1343.4 1063.5,1343.4 1063.5,135.568 919.454,135.568 "/>
<path clip-path="url(#clip302)" d="M1063.5 739.486 L1063.5 1343.4 L1207.55 1343.4 L1207.55 739.486 L1063.5 739.486 L1063.5 739.486  Z" fill="#009af9" fill-rule="evenodd" fill-opacity="1"/>
<polyline clip-path="url(#clip302)" style="stroke:#000000; stroke-linecap:round; stroke-linejoin:round; stroke-width:4; stroke-opacity:1; fill:none" points="1063.5,739.486 1063.5,1343.4 1207.55,1343.4 1207.55,739.486 1063.5,739.486 "/>
<path clip-path="url(#clip302)" d="M1207.55 135.568 L1207.55 1343.4 L1351.59 1343.4 L1351.59 135.568 L1207.55 135.568 L1207.55 135.568  Z" fill="#009af9" fill-rule="evenodd" fill-opacity="1"/>
<polyline clip-path="url(#clip302)" style="stroke:#000000; stroke-linecap:round; stroke-linejoin:round; stroke-width:4; stroke-opacity:1; fill:none" points="1207.55,135.568 1207.55,1343.4 1351.59,1343.4 1351.59,135.568 1207.55,135.568 "/>
<path clip-path="url(#clip302)" d="M1351.59 1142.1 L1351.59 1343.4 L1495.64 1343.4 L1495.64 1142.1 L1351.59 1142.1 L1351.59 1142.1  Z" fill="#009af9" fill-rule="evenodd" fill-opacity="1"/>
<polyline clip-path="url(#clip302)" style="stroke:#000000; stroke-linecap:round; stroke-linejoin:round; stroke-width:4; stroke-opacity:1; fill:none" points="1351.59,1142.1 1351.59,1343.4 1495.64,1343.4 1495.64,1142.1 1351.59,1142.1 "/>
<path clip-path="url(#clip302)" d="M1495.64 1142.1 L1495.64 1343.4 L1639.69 1343.4 L1639.69 1142.1 L1495.64 1142.1 L1495.64 1142.1  Z" fill="#009af9" fill-rule="evenodd" fill-opacity="1"/>
<polyline clip-path="url(#clip302)" style="stroke:#000000; stroke-linecap:round; stroke-linejoin:round; stroke-width:4; stroke-opacity:1; fill:none" points="1495.64,1142.1 1495.64,1343.4 1639.69,1343.4 1639.69,1142.1 1495.64,1142.1 "/>
<path clip-path="url(#clip302)" d="M1639.69 1142.1 L1639.69 1343.4 L1783.73 1343.4 L1783.73 1142.1 L1639.69 1142.1 L1639.69 1142.1  Z" fill="#009af9" fill-rule="evenodd" fill-opacity="1"/>
<polyline clip-path="url(#clip302)" style="stroke:#000000; stroke-linecap:round; stroke-linejoin:round; stroke-width:4; stroke-opacity:1; fill:none" points="1639.69,1142.1 1639.69,1343.4 1783.73,1343.4 1783.73,1142.1 1639.69,1142.1 "/>
<circle clip-path="url(#clip302)" style="fill:#009af9; stroke:none; fill-opacity:0" cx="415.29" cy="1343.4" r="2"/>
<circle clip-path="url(#clip302)" style="fill:#009af9; stroke:none; fill-opacity:0" cx="559.337" cy="940.792" r="2"/>
<circle clip-path="url(#clip302)" style="fill:#009af9; stroke:none; fill-opacity:0" cx="703.384" cy="940.792" r="2"/>
<circle clip-path="url(#clip302)" style="fill:#009af9; stroke:none; fill-opacity:0" cx="847.431" cy="1343.4" r="2"/>
<circle clip-path="url(#clip302)" style="fill:#009af9; stroke:none; fill-opacity:0" cx="991.478" cy="135.568" r="2"/>
<circle clip-path="url(#clip302)" style="fill:#009af9; stroke:none; fill-opacity:0" cx="1135.52" cy="739.486" r="2"/>
<circle clip-path="url(#clip302)" style="fill:#009af9; stroke:none; fill-opacity:0" cx="1279.57" cy="135.568" r="2"/>
<circle clip-path="url(#clip302)" style="fill:#009af9; stroke:none; fill-opacity:0" cx="1423.62" cy="1142.1" r="2"/>
<circle clip-path="url(#clip302)" style="fill:#009af9; stroke:none; fill-opacity:0" cx="1567.66" cy="1142.1" r="2"/>
<circle clip-path="url(#clip302)" style="fill:#009af9; stroke:none; fill-opacity:0" cx="1711.71" cy="1142.1" r="2"/>
<circle clip-path="url(#clip302)" cx="343.267" cy="1313.56" r="14.4" fill="#e26f46" fill-rule="evenodd" fill-opacity="1" stroke="#000000" stroke-opacity="1" stroke-width="3.072"/>
<circle clip-path="url(#clip302)" cx="487.314" cy="1194.2" r="14.4" fill="#e26f46" fill-rule="evenodd" fill-opacity="1" stroke="#000000" stroke-opacity="1" stroke-width="3.072"/>
<circle clip-path="url(#clip302)" cx="631.361" cy="970.397" r="14.4" fill="#e26f46" fill-rule="evenodd" fill-opacity="1" stroke="#000000" stroke-opacity="1" stroke-width="3.072"/>
<circle clip-path="url(#clip302)" cx="775.407" cy="721.726" r="14.4" fill="#e26f46" fill-rule="evenodd" fill-opacity="1" stroke="#000000" stroke-opacity="1" stroke-width="3.072"/>
<circle clip-path="url(#clip302)" cx="919.454" cy="566.306" r="14.4" fill="#e26f46" fill-rule="evenodd" fill-opacity="1" stroke="#000000" stroke-opacity="1" stroke-width="3.072"/>
<circle clip-path="url(#clip302)" cx="1063.5" cy="566.306" r="14.4" fill="#e26f46" fill-rule="evenodd" fill-opacity="1" stroke="#000000" stroke-opacity="1" stroke-width="3.072"/>
<circle clip-path="url(#clip302)" cx="1207.55" cy="695.822" r="14.4" fill="#e26f46" fill-rule="evenodd" fill-opacity="1" stroke="#000000" stroke-opacity="1" stroke-width="3.072"/>
<circle clip-path="url(#clip302)" cx="1351.59" cy="880.846" r="14.4" fill="#e26f46" fill-rule="evenodd" fill-opacity="1" stroke="#000000" stroke-opacity="1" stroke-width="3.072"/>
<circle clip-path="url(#clip302)" cx="1495.64" cy="1054.3" r="14.4" fill="#e26f46" fill-rule="evenodd" fill-opacity="1" stroke="#000000" stroke-opacity="1" stroke-width="3.072"/>
<circle clip-path="url(#clip302)" cx="1639.69" cy="1182.79" r="14.4" fill="#e26f46" fill-rule="evenodd" fill-opacity="1" stroke="#000000" stroke-opacity="1" stroke-width="3.072"/>
<circle clip-path="url(#clip302)" cx="1783.73" cy="1263.1" r="14.4" fill="#e26f46" fill-rule="evenodd" fill-opacity="1" stroke="#000000" stroke-opacity="1" stroke-width="3.072"/>
<polyline clip-path="url(#clip302)" style="stroke:#e26f46; stroke-linecap:round; stroke-linejoin:round; stroke-width:8; stroke-opacity:1; fill:none" points="343.267,1343.4 343.267,1313.56 "/>
<polyline clip-path="url(#clip302)" style="stroke:#e26f46; stroke-linecap:round; stroke-linejoin:round; stroke-width:8; stroke-opacity:1; fill:none" points="487.314,1343.4 487.314,1194.2 "/>
<polyline clip-path="url(#clip302)" style="stroke:#e26f46; stroke-linecap:round; stroke-linejoin:round; stroke-width:8; stroke-opacity:1; fill:none" points="631.361,1343.4 631.361,970.397 "/>
<polyline clip-path="url(#clip302)" style="stroke:#e26f46; stroke-linecap:round; stroke-linejoin:round; stroke-width:8; stroke-opacity:1; fill:none" points="775.407,1343.4 775.407,721.726 "/>
<polyline clip-path="url(#clip302)" style="stroke:#e26f46; stroke-linecap:round; stroke-linejoin:round; stroke-width:8; stroke-opacity:1; fill:none" points="919.454,1343.4 919.454,566.306 "/>
<polyline clip-path="url(#clip302)" style="stroke:#e26f46; stroke-linecap:round; stroke-linejoin:round; stroke-width:8; stroke-opacity:1; fill:none" points="1063.5,1343.4 1063.5,566.306 "/>
<polyline clip-path="url(#clip302)" style="stroke:#e26f46; stroke-linecap:round; stroke-linejoin:round; stroke-width:8; stroke-opacity:1; fill:none" points="1207.55,1343.4 1207.55,695.822 "/>
<polyline clip-path="url(#clip302)" style="stroke:#e26f46; stroke-linecap:round; stroke-linejoin:round; stroke-width:8; stroke-opacity:1; fill:none" points="1351.59,1343.4 1351.59,880.846 "/>
<polyline clip-path="url(#clip302)" style="stroke:#e26f46; stroke-linecap:round; stroke-linejoin:round; stroke-width:8; stroke-opacity:1; fill:none" points="1495.64,1343.4 1495.64,1054.3 "/>
<polyline clip-path="url(#clip302)" style="stroke:#e26f46; stroke-linecap:round; stroke-linejoin:round; stroke-width:8; stroke-opacity:1; fill:none" points="1639.69,1343.4 1639.69,1182.79 "/>
<polyline clip-path="url(#clip302)" style="stroke:#e26f46; stroke-linecap:round; stroke-linejoin:round; stroke-width:8; stroke-opacity:1; fill:none" points="1783.73,1343.4 1783.73,1263.1 "/>
<path clip-path="url(#clip300)" d="M856.866 331.349 L1818.81 331.349 L1818.81 175.829 L856.866 175.829  Z" fill="#ffffff" fill-rule="evenodd" fill-opacity="1"/>
<polyline clip-path="url(#clip300)" style="stroke:#000000; stroke-linecap:round; stroke-linejoin:round; stroke-width:4; stroke-opacity:1; fill:none" points="856.866,331.349 1818.81,331.349 1818.81,175.829 856.866,175.829 856.866,331.349 "/>
<path clip-path="url(#clip300)" d="M874.85 248.405 L982.75 248.405 L982.75 206.933 L874.85 206.933 L874.85 248.405  Z" fill="#009af9" fill-rule="evenodd" fill-opacity="1"/>
<polyline clip-path="url(#clip300)" style="stroke:#000000; stroke-linecap:round; stroke-linejoin:round; stroke-width:4; stroke-opacity:1; fill:none" points="874.85,248.405 982.75,248.405 982.75,206.933 874.85,206.933 874.85,248.405 "/>
<path clip-path="url(#clip300)" d="M1000.73 237.403 Q1005.62 241.778 1011.54 241.778 Q1017.66 241.778 1020.41 238.491 Q1023.16 235.204 1023.67 229.672 L1005.2 229.672 L1005.2 225.736 L1023.67 225.736 Q1023.16 220.204 1020.41 216.917 Q1017.66 213.607 1011.54 213.607 Q1005.62 213.607 1000.73 217.982 L1000.73 213.051 Q1005.55 209.764 1011.82 209.764 Q1019.58 209.764 1024.09 214.579 Q1028.6 219.371 1028.6 227.681 Q1028.6 236.014 1024.09 240.829 Q1019.58 245.621 1011.82 245.621 Q1005.64 245.621 1000.73 242.287 L1000.73 237.403 Z" fill="#000000" fill-rule="nonzero" fill-opacity="1" /><path clip-path="url(#clip300)" d="M1035.57 219.024 L1041.8 219.024 L1049.16 236.385 L1056.54 219.024 L1062.72 219.024 L1062.72 244.949 L1058.44 244.949 L1058.44 223.098 L1051.29 239.972 L1047.03 239.972 L1039.85 223.098 L1039.85 244.949 L1035.57 244.949 L1035.57 219.024 Z" fill="#000000" fill-rule="nonzero" fill-opacity="1" /><path clip-path="url(#clip300)" d="M1093.72 219.024 L1093.72 244.949 L1089.44 244.949 L1089.44 222.426 L1075.62 222.426 L1075.62 244.949 L1071.34 244.949 L1071.34 219.024 L1093.72 219.024 Z" fill="#000000" fill-rule="nonzero" fill-opacity="1" /><path clip-path="url(#clip300)" d="M1124.53 219.024 L1124.53 244.949 L1120.29 244.949 L1120.29 224.139 L1107.79 244.949 L1102.33 244.949 L1102.33 219.024 L1106.57 219.024 L1106.57 239.787 L1119.04 219.024 L1124.53 219.024 Z" fill="#000000" fill-rule="nonzero" fill-opacity="1" /><path clip-path="url(#clip300)" d="M1137.42 241.06 L1137.42 254.81 L1133.14 254.81 L1133.14 219.024 L1137.42 219.024 L1137.42 222.959 Q1138.77 220.644 1140.8 219.533 Q1142.86 218.399 1145.71 218.399 Q1150.43 218.399 1153.37 222.149 Q1156.33 225.898 1156.33 232.01 Q1156.33 238.121 1153.37 241.871 Q1150.43 245.621 1145.71 245.621 Q1142.86 245.621 1140.8 244.51 Q1138.77 243.375 1137.42 241.06 M1151.91 232.01 Q1151.91 227.311 1149.97 224.648 Q1148.05 221.963 1144.67 221.963 Q1141.29 221.963 1139.34 224.648 Q1137.42 227.311 1137.42 232.01 Q1137.42 236.709 1139.34 239.394 Q1141.29 242.056 1144.67 242.056 Q1148.05 242.056 1149.97 239.394 Q1151.91 236.709 1151.91 232.01 Z" fill="#000000" fill-rule="nonzero" fill-opacity="1" /><path clip-path="url(#clip300)" d="M1185.43 219.024 L1185.43 244.949 L1181.2 244.949 L1181.2 224.139 L1168.7 244.949 L1163.23 244.949 L1163.23 219.024 L1167.47 219.024 L1167.47 239.787 L1179.95 219.024 L1185.43 219.024 Z" fill="#000000" fill-rule="nonzero" fill-opacity="1" /><path clip-path="url(#clip300)" d="M1209.18 244.949 L1209.18 234.047 L1201.24 234.047 Q1197.7 234.047 1195.34 231.848 Q1193.21 229.857 1193.21 225.598 L1193.21 219.024 L1197.47 219.024 L1197.47 225.204 Q1197.47 227.912 1198.67 229.278 Q1199.9 230.644 1202.31 230.644 L1209.18 230.644 L1209.18 219.024 L1213.44 219.024 L1213.44 244.949 L1209.18 244.949 Z" fill="#000000" fill-rule="nonzero" fill-opacity="1" /><path clip-path="url(#clip300)" d="M1244.39 230.922 L1244.39 233.005 L1224.81 233.005 Q1225.08 237.403 1227.45 239.718 Q1229.83 242.01 1234.07 242.01 Q1236.52 242.01 1238.81 241.408 Q1241.13 240.806 1243.39 239.602 L1243.39 243.63 Q1241.1 244.602 1238.7 245.111 Q1236.29 245.621 1233.81 245.621 Q1227.61 245.621 1223.97 242.01 Q1220.36 238.398 1220.36 232.241 Q1220.36 225.875 1223.79 222.149 Q1227.24 218.399 1233.07 218.399 Q1238.3 218.399 1241.33 221.778 Q1244.39 225.135 1244.39 230.922 M1240.13 229.672 Q1240.08 226.176 1238.16 224.093 Q1236.26 222.01 1233.12 222.01 Q1229.55 222.01 1227.4 224.024 Q1225.27 226.037 1224.95 229.695 L1240.13 229.672 Z" fill="#000000" fill-rule="nonzero" fill-opacity="1" /><path clip-path="url(#clip300)" d="M1270.04 220.019 L1270.04 224 Q1268.23 223.005 1266.4 222.519 Q1264.6 222.01 1262.75 222.01 Q1258.6 222.01 1256.31 224.648 Q1254.02 227.264 1254.02 232.01 Q1254.02 236.755 1256.31 239.394 Q1258.6 242.01 1262.75 242.01 Q1264.6 242.01 1266.4 241.523 Q1268.23 241.014 1270.04 240.019 L1270.04 243.954 Q1268.26 244.787 1266.33 245.204 Q1264.44 245.621 1262.28 245.621 Q1256.43 245.621 1252.98 241.94 Q1249.53 238.26 1249.53 232.01 Q1249.53 225.667 1253 222.033 Q1256.5 218.399 1262.56 218.399 Q1264.53 218.399 1266.4 218.815 Q1268.28 219.209 1270.04 220.019 Z" fill="#000000" fill-rule="nonzero" fill-opacity="1" /><path clip-path="url(#clip300)" d="M1277.28 219.024 L1281.52 219.024 L1281.52 231.199 L1293.53 219.024 L1298.76 219.024 L1288.86 229.047 L1300.04 244.949 L1295.27 244.949 L1286.08 231.871 L1281.52 236.5 L1281.52 244.949 L1277.28 244.949 L1277.28 219.024 Z" fill="#000000" fill-rule="nonzero" fill-opacity="1" /><path clip-path="url(#clip300)" d="M1317.86 231.917 Q1312.7 231.917 1310.71 233.098 Q1308.72 234.278 1308.72 237.125 Q1308.72 239.394 1310.2 240.736 Q1311.7 242.056 1314.27 242.056 Q1317.82 242.056 1319.95 239.556 Q1322.1 237.033 1322.1 232.866 L1322.1 231.917 L1317.86 231.917 M1326.36 230.158 L1326.36 244.949 L1322.1 244.949 L1322.1 241.014 Q1320.64 243.375 1318.46 244.51 Q1316.29 245.621 1313.14 245.621 Q1309.16 245.621 1306.8 243.398 Q1304.46 241.153 1304.46 237.403 Q1304.46 233.028 1307.38 230.806 Q1310.32 228.584 1316.13 228.584 L1322.1 228.584 L1322.1 228.167 Q1322.1 225.227 1320.15 223.63 Q1318.23 222.01 1314.74 222.01 Q1312.51 222.01 1310.41 222.542 Q1308.3 223.074 1306.36 224.139 L1306.36 220.204 Q1308.7 219.301 1310.89 218.861 Q1313.09 218.399 1315.18 218.399 Q1320.8 218.399 1323.58 221.315 Q1326.36 224.232 1326.36 230.158 Z" fill="#000000" fill-rule="nonzero" fill-opacity="1" /><path clip-path="url(#clip300)" d="M1339.41 226.5 Q1339.41 228.422 1340.89 229.51 Q1342.38 230.598 1345.13 230.598 L1350.87 230.598 L1350.87 222.426 L1345.13 222.426 Q1342.38 222.426 1340.89 223.491 Q1339.41 224.556 1339.41 226.5 M1333.35 244.949 L1341.26 233.584 Q1338.58 232.982 1336.8 231.408 Q1335.01 229.811 1335.01 226.5 Q1335.01 222.75 1337.49 220.899 Q1339.99 219.024 1345.01 219.024 L1355.15 219.024 L1355.15 244.949 L1350.87 244.949 L1350.87 234 L1345.57 234 L1337.93 244.949 L1333.35 244.949 Z" fill="#000000" fill-rule="nonzero" fill-opacity="1" /><path clip-path="url(#clip300)" d="M1393.69 244.949 L1393.69 234.047 L1385.75 234.047 Q1382.21 234.047 1379.85 231.848 Q1377.72 229.857 1377.72 225.598 L1377.72 219.024 L1381.98 219.024 L1381.98 225.204 Q1381.98 227.912 1383.19 229.278 Q1384.41 230.644 1386.82 230.644 L1393.69 230.644 L1393.69 219.024 L1397.95 219.024 L1397.95 244.949 L1393.69 244.949 Z" fill="#000000" fill-rule="nonzero" fill-opacity="1" /><path clip-path="url(#clip300)" d="M1418.51 231.917 Q1413.35 231.917 1411.36 233.098 Q1409.37 234.278 1409.37 237.125 Q1409.37 239.394 1410.85 240.736 Q1412.35 242.056 1414.92 242.056 Q1418.46 242.056 1420.59 239.556 Q1422.75 237.033 1422.75 232.866 L1422.75 231.917 L1418.51 231.917 M1427 230.158 L1427 244.949 L1422.75 244.949 L1422.75 241.014 Q1421.29 243.375 1419.11 244.51 Q1416.94 245.621 1413.79 245.621 Q1409.81 245.621 1407.44 243.398 Q1405.11 241.153 1405.11 237.403 Q1405.11 233.028 1408.02 230.806 Q1410.96 228.584 1416.77 228.584 L1422.75 228.584 L1422.75 228.167 Q1422.75 225.227 1420.8 223.63 Q1418.88 222.01 1415.38 222.01 Q1413.16 222.01 1411.06 222.542 Q1408.95 223.074 1407 224.139 L1407 220.204 Q1409.34 219.301 1411.54 218.861 Q1413.74 218.399 1415.82 218.399 Q1421.45 218.399 1424.23 221.315 Q1427 224.232 1427 230.158 Z" fill="#000000" fill-rule="nonzero" fill-opacity="1" /><path clip-path="url(#clip300)" d="M1454.44 220.019 L1454.44 224 Q1452.63 223.005 1450.8 222.519 Q1449 222.01 1447.14 222.01 Q1443 222.01 1440.71 224.648 Q1438.42 227.264 1438.42 232.01 Q1438.42 236.755 1440.71 239.394 Q1443 242.01 1447.14 242.01 Q1449 242.01 1450.8 241.523 Q1452.63 241.014 1454.44 240.019 L1454.44 243.954 Q1452.65 244.787 1450.73 245.204 Q1448.83 245.621 1446.68 245.621 Q1440.82 245.621 1437.38 241.94 Q1433.93 238.26 1433.93 232.01 Q1433.93 225.667 1437.4 222.033 Q1440.89 218.399 1446.96 218.399 Q1448.93 218.399 1450.8 218.815 Q1452.68 219.209 1454.44 220.019 Z" fill="#000000" fill-rule="nonzero" fill-opacity="1" /><path clip-path="url(#clip300)" d="M1458.76 219.024 L1483.6 219.024 L1483.6 222.426 L1473.28 222.426 L1473.28 244.949 L1469.09 244.949 L1469.09 222.426 L1458.76 222.426 L1458.76 219.024 Z" fill="#000000" fill-rule="nonzero" fill-opacity="1" /><path clip-path="url(#clip300)" d="M1499.5 222.01 Q1496.08 222.01 1494.09 224.695 Q1492.1 227.357 1492.1 232.01 Q1492.1 236.662 1494.06 239.347 Q1496.06 242.01 1499.5 242.01 Q1502.91 242.01 1504.9 239.324 Q1506.89 236.639 1506.89 232.01 Q1506.89 227.403 1504.9 224.718 Q1502.91 222.01 1499.5 222.01 M1499.5 218.399 Q1505.06 218.399 1508.23 222.01 Q1511.4 225.621 1511.4 232.01 Q1511.4 238.375 1508.23 242.01 Q1505.06 245.621 1499.5 245.621 Q1493.93 245.621 1490.75 242.01 Q1487.61 238.375 1487.61 232.01 Q1487.61 225.621 1490.75 222.01 Q1493.93 218.399 1499.5 218.399 Z" fill="#000000" fill-rule="nonzero" fill-opacity="1" /><path clip-path="url(#clip300)" d="M1515.38 219.024 L1540.22 219.024 L1540.22 222.426 L1529.9 222.426 L1529.9 244.949 L1525.71 244.949 L1525.71 222.426 L1515.38 222.426 L1515.38 219.024 Z" fill="#000000" fill-rule="nonzero" fill-opacity="1" /><path clip-path="url(#clip300)" d="M1557.86 231.917 Q1552.7 231.917 1550.71 233.098 Q1548.72 234.278 1548.72 237.125 Q1548.72 239.394 1550.2 240.736 Q1551.7 242.056 1554.27 242.056 Q1557.81 242.056 1559.94 239.556 Q1562.1 237.033 1562.1 232.866 L1562.1 231.917 L1557.86 231.917 M1566.36 230.158 L1566.36 244.949 L1562.1 244.949 L1562.1 241.014 Q1560.64 243.375 1558.46 244.51 Q1556.29 245.621 1553.14 245.621 Q1549.16 245.621 1546.8 243.398 Q1544.46 241.153 1544.46 237.403 Q1544.46 233.028 1547.37 230.806 Q1550.31 228.584 1556.12 228.584 L1562.1 228.584 L1562.1 228.167 Q1562.1 225.227 1560.15 223.63 Q1558.23 222.01 1554.74 222.01 Q1552.51 222.01 1550.41 222.542 Q1548.3 223.074 1546.36 224.139 L1546.36 220.204 Q1548.69 219.301 1550.89 218.861 Q1553.09 218.399 1555.18 218.399 Q1560.8 218.399 1563.58 221.315 Q1566.36 224.232 1566.36 230.158 Z" fill="#000000" fill-rule="nonzero" fill-opacity="1" /><circle clip-path="url(#clip300)" cx="928.8" cy="279.509" r="20.48" fill="#e26f46" fill-rule="evenodd" fill-opacity="1" stroke="#000000" stroke-opacity="1" stroke-width="4.36907"/>
<path clip-path="url(#clip300)" d="M1000.73 262.229 L1029.97 262.229 L1029.97 266.164 L1017.7 266.164 L1017.7 296.789 L1013 296.789 L1013 266.164 L1000.73 266.164 L1000.73 262.229 Z" fill="#000000" fill-rule="nonzero" fill-opacity="1" /><path clip-path="url(#clip300)" d="M1056.47 282.762 L1056.47 284.845 L1036.89 284.845 Q1037.17 289.243 1039.53 291.558 Q1041.91 293.85 1046.15 293.85 Q1048.6 293.85 1050.9 293.248 Q1053.21 292.646 1055.48 291.442 L1055.48 295.47 Q1053.19 296.442 1050.78 296.951 Q1048.37 297.461 1045.9 297.461 Q1039.69 297.461 1036.06 293.85 Q1032.45 290.238 1032.45 284.081 Q1032.45 277.715 1035.87 273.989 Q1039.32 270.239 1045.15 270.239 Q1050.39 270.239 1053.42 273.618 Q1056.47 276.975 1056.47 282.762 M1052.22 281.512 Q1052.17 278.016 1050.25 275.933 Q1048.35 273.85 1045.2 273.85 Q1041.64 273.85 1039.48 275.864 Q1037.35 277.877 1037.03 281.535 L1052.22 281.512 Z" fill="#000000" fill-rule="nonzero" fill-opacity="1" /><path clip-path="url(#clip300)" d="M1073.51 273.85 Q1070.09 273.85 1068.09 276.535 Q1066.1 279.197 1066.1 283.85 Q1066.1 288.502 1068.07 291.187 Q1070.06 293.85 1073.51 293.85 Q1076.91 293.85 1078.9 291.164 Q1080.9 288.479 1080.9 283.85 Q1080.9 279.243 1078.9 276.558 Q1076.91 273.85 1073.51 273.85 M1073.51 270.239 Q1079.07 270.239 1082.24 273.85 Q1085.41 277.461 1085.41 283.85 Q1085.41 290.215 1082.24 293.85 Q1079.07 297.461 1073.51 297.461 Q1067.93 297.461 1064.76 293.85 Q1061.61 290.215 1061.61 283.85 Q1061.61 277.461 1064.76 273.85 Q1067.93 270.239 1073.51 270.239 Z" fill="#000000" fill-rule="nonzero" fill-opacity="1" /><path clip-path="url(#clip300)" d="M1096.59 292.9 L1096.59 306.65 L1092.31 306.65 L1092.31 270.864 L1096.59 270.864 L1096.59 274.799 Q1097.93 272.484 1099.97 271.373 Q1102.03 270.239 1104.88 270.239 Q1109.6 270.239 1112.54 273.989 Q1115.5 277.738 1115.5 283.85 Q1115.5 289.961 1112.54 293.711 Q1109.6 297.461 1104.88 297.461 Q1102.03 297.461 1099.97 296.35 Q1097.93 295.215 1096.59 292.9 M1111.08 283.85 Q1111.08 279.151 1109.14 276.488 Q1107.21 273.803 1103.84 273.803 Q1100.46 273.803 1098.51 276.488 Q1096.59 279.151 1096.59 283.85 Q1096.59 288.549 1098.51 291.234 Q1100.46 293.896 1103.84 293.896 Q1107.21 293.896 1109.14 291.234 Q1111.08 288.549 1111.08 283.85 Z" fill="#000000" fill-rule="nonzero" fill-opacity="1" /><path clip-path="url(#clip300)" d="M1144.74 282.762 L1144.74 284.845 L1125.15 284.845 Q1125.43 289.243 1127.79 291.558 Q1130.18 293.85 1134.41 293.85 Q1136.87 293.85 1139.16 293.248 Q1141.47 292.646 1143.74 291.442 L1143.74 295.47 Q1141.45 296.442 1139.04 296.951 Q1136.64 297.461 1134.16 297.461 Q1127.96 297.461 1124.32 293.85 Q1120.71 290.238 1120.71 284.081 Q1120.71 277.715 1124.14 273.989 Q1127.59 270.239 1133.42 270.239 Q1138.65 270.239 1141.68 273.618 Q1144.74 276.975 1144.74 282.762 M1140.48 281.512 Q1140.43 278.016 1138.51 275.933 Q1136.61 273.85 1133.46 273.85 Q1129.9 273.85 1127.75 275.864 Q1125.62 277.877 1125.29 281.535 L1140.48 281.512 Z" fill="#000000" fill-rule="nonzero" fill-opacity="1" /><path clip-path="url(#clip300)" d="M1148.65 270.864 L1173.49 270.864 L1173.49 274.266 L1163.16 274.266 L1163.16 296.789 L1158.97 296.789 L1158.97 274.266 L1148.65 274.266 L1148.65 270.864 Z" fill="#000000" fill-rule="nonzero" fill-opacity="1" /><path clip-path="url(#clip300)" d="M1201.38 270.864 L1201.38 296.789 L1197.14 296.789 L1197.14 275.979 L1184.64 296.789 L1179.18 296.789 L1179.18 270.864 L1183.42 270.864 L1183.42 291.627 L1195.89 270.864 L1201.38 270.864 Z" fill="#000000" fill-rule="nonzero" fill-opacity="1" /><path clip-path="url(#clip300)" d="M1225.13 296.789 L1225.13 285.887 L1217.19 285.887 Q1213.65 285.887 1211.29 283.688 Q1209.16 281.697 1209.16 277.438 L1209.16 270.864 L1213.42 270.864 L1213.42 277.044 Q1213.42 279.752 1214.62 281.118 Q1215.85 282.484 1218.26 282.484 L1225.13 282.484 L1225.13 270.864 L1229.39 270.864 L1229.39 296.789 L1225.13 296.789 Z" fill="#000000" fill-rule="nonzero" fill-opacity="1" /><path clip-path="url(#clip300)" d="M1260.34 282.762 L1260.34 284.845 L1240.76 284.845 Q1241.03 289.243 1243.39 291.558 Q1245.78 293.85 1250.01 293.85 Q1252.47 293.85 1254.76 293.248 Q1257.08 292.646 1259.34 291.442 L1259.34 295.47 Q1257.05 296.442 1254.64 296.951 Q1252.24 297.461 1249.76 297.461 Q1243.56 297.461 1239.92 293.85 Q1236.31 290.238 1236.31 284.081 Q1236.31 277.715 1239.74 273.989 Q1243.19 270.239 1249.02 270.239 Q1254.25 270.239 1257.28 273.618 Q1260.34 276.975 1260.34 282.762 M1256.08 281.512 Q1256.03 278.016 1254.11 275.933 Q1252.21 273.85 1249.07 273.85 Q1245.5 273.85 1243.35 275.864 Q1241.22 277.877 1240.89 281.535 L1256.08 281.512 Z" fill="#000000" fill-rule="nonzero" fill-opacity="1" /><path clip-path="url(#clip300)" d="M1285.99 271.859 L1285.99 275.84 Q1284.18 274.845 1282.35 274.359 Q1280.55 273.85 1278.7 273.85 Q1274.55 273.85 1272.26 276.488 Q1269.97 279.104 1269.97 283.85 Q1269.97 288.595 1272.26 291.234 Q1274.55 293.85 1278.7 293.85 Q1280.55 293.85 1282.35 293.363 Q1284.18 292.854 1285.99 291.859 L1285.99 295.794 Q1284.2 296.627 1282.28 297.044 Q1280.39 297.461 1278.23 297.461 Q1272.38 297.461 1268.93 293.78 Q1265.48 290.1 1265.48 283.85 Q1265.48 277.507 1268.95 273.873 Q1272.45 270.239 1278.51 270.239 Q1280.48 270.239 1282.35 270.655 Q1284.23 271.049 1285.99 271.859 Z" fill="#000000" fill-rule="nonzero" fill-opacity="1" /><path clip-path="url(#clip300)" d="M1293.23 270.864 L1297.47 270.864 L1297.47 283.039 L1309.48 270.864 L1314.71 270.864 L1304.81 280.887 L1315.99 296.789 L1311.22 296.789 L1302.03 283.711 L1297.47 288.34 L1297.47 296.789 L1293.23 296.789 L1293.23 270.864 Z" fill="#000000" fill-rule="nonzero" fill-opacity="1" /><path clip-path="url(#clip300)" d="M1332.07 273.85 Q1328.65 273.85 1326.66 276.535 Q1324.67 279.197 1324.67 283.85 Q1324.67 288.502 1326.63 291.187 Q1328.63 293.85 1332.07 293.85 Q1335.48 293.85 1337.47 291.164 Q1339.46 288.479 1339.46 283.85 Q1339.46 279.243 1337.47 276.558 Q1335.48 273.85 1332.07 273.85 M1332.07 270.239 Q1337.63 270.239 1340.8 273.85 Q1343.97 277.461 1343.97 283.85 Q1343.97 290.215 1340.8 293.85 Q1337.63 297.461 1332.07 297.461 Q1326.5 297.461 1323.32 293.85 Q1320.18 290.215 1320.18 283.85 Q1320.18 277.461 1323.32 273.85 Q1326.5 270.239 1332.07 270.239 Z" fill="#000000" fill-rule="nonzero" fill-opacity="1" /><path clip-path="url(#clip300)" d="M1373.21 282.762 L1373.21 284.845 L1353.63 284.845 Q1353.9 289.243 1356.26 291.558 Q1358.65 293.85 1362.88 293.85 Q1365.34 293.85 1367.63 293.248 Q1369.94 292.646 1372.21 291.442 L1372.21 295.47 Q1369.92 296.442 1367.51 296.951 Q1365.11 297.461 1362.63 297.461 Q1356.43 297.461 1352.79 293.85 Q1349.18 290.238 1349.18 284.081 Q1349.18 277.715 1352.61 273.989 Q1356.06 270.239 1361.89 270.239 Q1367.12 270.239 1370.15 273.618 Q1373.21 276.975 1373.21 282.762 M1368.95 281.512 Q1368.9 278.016 1366.98 275.933 Q1365.08 273.85 1361.94 273.85 Q1358.37 273.85 1356.22 275.864 Q1354.09 277.877 1353.76 281.535 L1368.95 281.512 Z" fill="#000000" fill-rule="nonzero" fill-opacity="1" /><path clip-path="url(#clip300)" d="M1421.8 262.229 L1421.8 296.789 L1417.12 296.789 L1417.12 266.164 L1400.13 266.164 L1400.13 296.789 L1395.45 296.789 L1395.45 262.229 L1421.8 262.229 Z" fill="#000000" fill-rule="nonzero" fill-opacity="1" /><path clip-path="url(#clip300)" d="M1441.7 299.197 Q1439.9 303.826 1438.19 305.238 Q1436.47 306.65 1433.6 306.65 L1430.2 306.65 L1430.2 303.086 L1432.7 303.086 Q1434.46 303.086 1435.43 302.252 Q1436.4 301.419 1437.58 298.317 L1438.35 296.373 L1427.86 270.864 L1432.38 270.864 L1440.48 291.141 L1448.58 270.864 L1453.09 270.864 L1441.7 299.197 Z" fill="#000000" fill-rule="nonzero" fill-opacity="1" /><path clip-path="url(#clip300)" d="M1470.75 283.757 Q1465.59 283.757 1463.6 284.938 Q1461.61 286.118 1461.61 288.965 Q1461.61 291.234 1463.09 292.576 Q1464.6 293.896 1467.17 293.896 Q1470.71 293.896 1472.84 291.396 Q1474.99 288.873 1474.99 284.706 L1474.99 283.757 L1470.75 283.757 M1479.25 281.998 L1479.25 296.789 L1474.99 296.789 L1474.99 292.854 Q1473.53 295.215 1471.36 296.35 Q1469.18 297.461 1466.03 297.461 Q1462.05 297.461 1459.69 295.238 Q1457.35 292.993 1457.35 289.243 Q1457.35 284.868 1460.27 282.646 Q1463.21 280.424 1469.02 280.424 L1474.99 280.424 L1474.99 280.007 Q1474.99 277.067 1473.05 275.47 Q1471.12 273.85 1467.63 273.85 Q1465.41 273.85 1463.3 274.382 Q1461.19 274.914 1459.25 275.979 L1459.25 272.044 Q1461.59 271.141 1463.79 270.701 Q1465.99 270.239 1468.07 270.239 Q1473.69 270.239 1476.47 273.155 Q1479.25 276.072 1479.25 281.998 Z" fill="#000000" fill-rule="nonzero" fill-opacity="1" /><path clip-path="url(#clip300)" d="M1506.68 271.859 L1506.68 275.84 Q1504.87 274.845 1503.05 274.359 Q1501.24 273.85 1499.39 273.85 Q1495.25 273.85 1492.95 276.488 Q1490.66 279.104 1490.66 283.85 Q1490.66 288.595 1492.95 291.234 Q1495.25 293.85 1499.39 293.85 Q1501.24 293.85 1503.05 293.363 Q1504.87 292.854 1506.68 291.859 L1506.68 295.794 Q1504.9 296.627 1502.98 297.044 Q1501.08 297.461 1498.93 297.461 Q1493.07 297.461 1489.62 293.78 Q1486.17 290.1 1486.17 283.85 Q1486.17 277.507 1489.64 273.873 Q1493.14 270.239 1499.2 270.239 Q1501.17 270.239 1503.05 270.655 Q1504.92 271.049 1506.68 271.859 Z" fill="#000000" fill-rule="nonzero" fill-opacity="1" /><path clip-path="url(#clip300)" d="M1532.74 271.859 L1532.74 275.84 Q1530.94 274.845 1529.11 274.359 Q1527.31 273.85 1525.45 273.85 Q1521.31 273.85 1519.02 276.488 Q1516.73 279.104 1516.73 283.85 Q1516.73 288.595 1519.02 291.234 Q1521.31 293.85 1525.45 293.85 Q1527.31 293.85 1529.11 293.363 Q1530.94 292.854 1532.74 291.859 L1532.74 295.794 Q1530.96 296.627 1529.04 297.044 Q1527.14 297.461 1524.99 297.461 Q1519.13 297.461 1515.68 293.78 Q1512.24 290.1 1512.24 283.85 Q1512.24 277.507 1515.71 273.873 Q1519.2 270.239 1525.27 270.239 Q1527.24 270.239 1529.11 270.655 Q1530.99 271.049 1532.74 271.859 Z" fill="#000000" fill-rule="nonzero" fill-opacity="1" /><path clip-path="url(#clip300)" d="M1550.2 273.85 Q1546.77 273.85 1544.78 276.535 Q1542.79 279.197 1542.79 283.85 Q1542.79 288.502 1544.76 291.187 Q1546.75 293.85 1550.2 293.85 Q1553.6 293.85 1555.59 291.164 Q1557.58 288.479 1557.58 283.85 Q1557.58 279.243 1555.59 276.558 Q1553.6 273.85 1550.2 273.85 M1550.2 270.239 Q1555.75 270.239 1558.93 273.85 Q1562.1 277.461 1562.1 283.85 Q1562.1 290.215 1558.93 293.85 Q1555.75 297.461 1550.2 297.461 Q1544.62 297.461 1541.45 293.85 Q1538.3 290.215 1538.3 283.85 Q1538.3 277.461 1541.45 273.85 Q1544.62 270.239 1550.2 270.239 Z" fill="#000000" fill-rule="nonzero" fill-opacity="1" /><path clip-path="url(#clip300)" d="M1568.99 270.864 L1573.28 270.864 L1573.28 281.442 L1587.1 281.442 L1587.1 270.864 L1591.38 270.864 L1591.38 296.789 L1587.1 296.789 L1587.1 284.845 L1573.28 284.845 L1573.28 296.789 L1568.99 296.789 L1568.99 270.864 Z" fill="#000000" fill-rule="nonzero" fill-opacity="1" /><path clip-path="url(#clip300)" d="M1611.93 283.757 Q1606.77 283.757 1604.78 284.938 Q1602.79 286.118 1602.79 288.965 Q1602.79 291.234 1604.27 292.576 Q1605.78 293.896 1608.35 293.896 Q1611.89 293.896 1614.02 291.396 Q1616.17 288.873 1616.17 284.706 L1616.17 283.757 L1611.93 283.757 M1620.43 281.998 L1620.43 296.789 L1616.17 296.789 L1616.17 292.854 Q1614.71 295.215 1612.54 296.35 Q1610.36 297.461 1607.21 297.461 Q1603.23 297.461 1600.87 295.238 Q1598.53 292.993 1598.53 289.243 Q1598.53 284.868 1601.45 282.646 Q1604.39 280.424 1610.2 280.424 L1616.17 280.424 L1616.17 280.007 Q1616.17 277.067 1614.23 275.47 Q1612.3 273.85 1608.81 273.85 Q1606.59 273.85 1604.48 274.382 Q1602.37 274.914 1600.43 275.979 L1600.43 272.044 Q1602.77 271.141 1604.97 270.701 Q1607.17 270.239 1609.25 270.239 Q1614.87 270.239 1617.65 273.155 Q1620.43 276.072 1620.43 281.998 Z" fill="#000000" fill-rule="nonzero" fill-opacity="1" /><path clip-path="url(#clip300)" d="M1639.43 260.817 Q1636.33 266.141 1634.83 271.35 Q1633.32 276.558 1633.32 281.905 Q1633.32 287.252 1634.83 292.507 Q1636.36 297.738 1639.43 303.039 L1635.73 303.039 Q1632.26 297.599 1630.52 292.345 Q1628.81 287.09 1628.81 281.905 Q1628.81 276.743 1630.52 271.512 Q1632.24 266.28 1635.73 260.817 L1639.43 260.817 Z" fill="#000000" fill-rule="nonzero" fill-opacity="1" /><path clip-path="url(#clip300)" d="M1657.91 264.822 L1669.87 296.789 L1665.36 296.789 L1658.09 277.623 L1649.16 296.789 L1644.64 296.789 L1656.01 271.928 L1654.3 267.345 Q1653.21 264.428 1650.73 264.428 L1648.51 264.428 L1648.51 260.771 L1651.22 260.817 Q1656.45 260.887 1657.91 264.822 Z" fill="#000000" fill-rule="nonzero" fill-opacity="1" /><path clip-path="url(#clip300)" d="M1676.31 275.262 L1705.98 275.262 L1705.98 279.151 L1676.31 279.151 L1676.31 275.262 M1676.31 284.706 L1705.98 284.706 L1705.98 288.641 L1676.31 288.641 L1676.31 284.706 Z" fill="#000000" fill-rule="nonzero" fill-opacity="1" /><path clip-path="url(#clip300)" d="M1716.12 262.229 L1734.48 262.229 L1734.48 266.164 L1720.41 266.164 L1720.41 274.637 Q1721.42 274.289 1722.44 274.127 Q1723.46 273.942 1724.48 273.942 Q1730.27 273.942 1733.65 277.113 Q1737.03 280.285 1737.03 285.701 Q1737.03 291.28 1733.55 294.382 Q1730.08 297.461 1723.76 297.461 Q1721.59 297.461 1719.32 297.09 Q1717.07 296.72 1714.67 295.979 L1714.67 291.28 Q1716.75 292.414 1718.97 292.97 Q1721.19 293.525 1723.67 293.525 Q1727.67 293.525 1730.01 291.419 Q1732.35 289.313 1732.35 285.701 Q1732.35 282.09 1730.01 279.984 Q1727.67 277.877 1723.67 277.877 Q1721.79 277.877 1719.92 278.294 Q1718.07 278.711 1716.12 279.59 L1716.12 262.229 Z" fill="#000000" fill-rule="nonzero" fill-opacity="1" /><path clip-path="url(#clip300)" d="M1746.24 290.91 L1751.12 290.91 L1751.12 296.789 L1746.24 296.789 L1746.24 290.91 Z" fill="#000000" fill-rule="nonzero" fill-opacity="1" /><path clip-path="url(#clip300)" d="M1771.31 265.308 Q1767.7 265.308 1765.87 268.873 Q1764.06 272.414 1764.06 279.544 Q1764.06 286.65 1765.87 290.215 Q1767.7 293.757 1771.31 293.757 Q1774.94 293.757 1776.75 290.215 Q1778.58 286.65 1778.58 279.544 Q1778.58 272.414 1776.75 268.873 Q1774.94 265.308 1771.31 265.308 M1771.31 261.604 Q1777.12 261.604 1780.17 266.211 Q1783.25 270.794 1783.25 279.544 Q1783.25 288.271 1780.17 292.877 Q1777.12 297.461 1771.31 297.461 Q1765.5 297.461 1762.42 292.877 Q1759.36 288.271 1759.36 279.544 Q1759.36 270.794 1762.42 266.211 Q1765.5 261.604 1771.31 261.604 Z" fill="#000000" fill-rule="nonzero" fill-opacity="1" /><path clip-path="url(#clip300)" d="M1790.2 260.817 L1793.9 260.817 Q1797.37 266.28 1799.09 271.512 Q1800.82 276.743 1800.82 281.905 Q1800.82 287.09 1799.09 292.345 Q1797.37 297.599 1793.9 303.039 L1790.2 303.039 Q1793.28 297.738 1794.78 292.507 Q1796.31 287.252 1796.31 281.905 Q1796.31 276.558 1794.78 271.35 Q1793.28 266.141 1790.2 260.817 Z" fill="#000000" fill-rule="nonzero" fill-opacity="1" /></svg>
