<?xml version="1.0" encoding="utf-8"?>
<svg xmlns="http://www.w3.org/2000/svg" xmlns:xlink="http://www.w3.org/1999/xlink" width="480" height="384" viewBox="0 0 1920 1536">
<defs>
  <clipPath id="clip120">
    <rect x="0" y="0" width="1920" height="1536"/>
  </clipPath>
</defs>
<path clip-path="url(#clip120)" d="M0 1536 L1920 1536 L1920 0 L0 0  Z" fill="#ffffff" fill-rule="evenodd" fill-opacity="1"/>
<defs>
  <clipPath id="clip121">
    <rect x="237" y="135" width="1637" height="1209"/>
  </clipPath>
</defs>
<path clip-path="url(#clip120)" d="M180.149 1343.4 L1872.76 1343.4 L1872.76 135.568 L180.149 135.568  Z" fill="#ffffff" fill-rule="evenodd" fill-opacity="1"/>
<defs>
  <clipPath id="clip122">
    <rect x="180" y="135" width="1694" height="1209"/>
  </clipPath>
</defs>
<polyline clip-path="url(#clip122)" style="stroke:#000000; stroke-linecap:round; stroke-linejoin:round; stroke-width:2; stroke-opacity:0.1; fill:none" points="273.246,1343.4 273.246,135.568 "/>
<polyline clip-path="url(#clip122)" style="stroke:#000000; stroke-linecap:round; stroke-linejoin:round; stroke-width:2; stroke-opacity:0.1; fill:none" points="669.67,1343.4 669.67,135.568 "/>
<polyline clip-path="url(#clip122)" style="stroke:#000000; stroke-linecap:round; stroke-linejoin:round; stroke-width:2; stroke-opacity:0.1; fill:none" points="1066.1,1343.4 1066.1,135.568 "/>
<polyline clip-path="url(#clip122)" style="stroke:#000000; stroke-linecap:round; stroke-linejoin:round; stroke-width:2; stroke-opacity:0.1; fill:none" points="1462.52,1343.4 1462.52,135.568 "/>
<polyline clip-path="url(#clip122)" style="stroke:#000000; stroke-linecap:round; stroke-linejoin:round; stroke-width:2; stroke-opacity:0.1; fill:none" points="1858.94,1343.4 1858.94,135.568 "/>
<polyline clip-path="url(#clip122)" style="stroke:#000000; stroke-linecap:round; stroke-linejoin:round; stroke-width:2; stroke-opacity:0.1; fill:none" points="180.149,1343.4 1872.76,1343.4 "/>
<polyline clip-path="url(#clip122)" style="stroke:#000000; stroke-linecap:round; stroke-linejoin:round; stroke-width:2; stroke-opacity:0.1; fill:none" points="180.149,1101.84 1872.76,1101.84 "/>
<polyline clip-path="url(#clip122)" style="stroke:#000000; stroke-linecap:round; stroke-linejoin:round; stroke-width:2; stroke-opacity:0.1; fill:none" points="180.149,860.27 1872.76,860.27 "/>
<polyline clip-path="url(#clip122)" style="stroke:#000000; stroke-linecap:round; stroke-linejoin:round; stroke-width:2; stroke-opacity:0.1; fill:none" points="180.149,618.702 1872.76,618.702 "/>
<polyline clip-path="url(#clip122)" style="stroke:#000000; stroke-linecap:round; stroke-linejoin:round; stroke-width:2; stroke-opacity:0.1; fill:none" points="180.149,377.135 1872.76,377.135 "/>
<polyline clip-path="url(#clip122)" style="stroke:#000000; stroke-linecap:round; stroke-linejoin:round; stroke-width:2; stroke-opacity:0.1; fill:none" points="180.149,135.568 1872.76,135.568 "/>
<polyline clip-path="url(#clip120)" style="stroke:#000000; stroke-linecap:round; stroke-linejoin:round; stroke-width:4; stroke-opacity:1; fill:none" points="180.149,1343.4 1872.76,1343.4 "/>
<polyline clip-path="url(#clip120)" style="stroke:#000000; stroke-linecap:round; stroke-linejoin:round; stroke-width:4; stroke-opacity:1; fill:none" points="273.246,1343.4 273.246,1324.51 "/>
<polyline clip-path="url(#clip120)" style="stroke:#000000; stroke-linecap:round; stroke-linejoin:round; stroke-width:4; stroke-opacity:1; fill:none" points="669.67,1343.4 669.67,1324.51 "/>
<polyline clip-path="url(#clip120)" style="stroke:#000000; stroke-linecap:round; stroke-linejoin:round; stroke-width:4; stroke-opacity:1; fill:none" points="1066.1,1343.4 1066.1,1324.51 "/>
<polyline clip-path="url(#clip120)" style="stroke:#000000; stroke-linecap:round; stroke-linejoin:round; stroke-width:4; stroke-opacity:1; fill:none" points="1462.52,1343.4 1462.52,1324.51 "/>
<polyline clip-path="url(#clip120)" style="stroke:#000000; stroke-linecap:round; stroke-linejoin:round; stroke-width:4; stroke-opacity:1; fill:none" points="1858.94,1343.4 1858.94,1324.51 "/>
<path clip-path="url(#clip120)" d="M235.549 1370.48 Q231.938 1370.48 230.109 1374.05 Q228.304 1377.59 228.304 1384.72 Q228.304 1391.83 230.109 1395.39 Q231.938 1398.93 235.549 1398.93 Q239.183 1398.93 240.989 1395.39 Q242.818 1391.83 242.818 1384.72 Q242.818 1377.59 240.989 1374.05 Q239.183 1370.48 235.549 1370.48 M235.549 1366.78 Q241.359 1366.78 244.415 1371.39 Q247.493 1375.97 247.493 1384.72 Q247.493 1393.45 244.415 1398.05 Q241.359 1402.64 235.549 1402.64 Q229.739 1402.64 226.66 1398.05 Q223.605 1393.45 223.605 1384.72 Q223.605 1375.97 226.66 1371.39 Q229.739 1366.78 235.549 1366.78 Z" fill="#000000" fill-rule="nonzero" fill-opacity="1" /><path clip-path="url(#clip120)" d="M255.711 1396.08 L260.595 1396.08 L260.595 1401.96 L255.711 1401.96 L255.711 1396.08 Z" fill="#000000" fill-rule="nonzero" fill-opacity="1" /><path clip-path="url(#clip120)" d="M280.78 1370.48 Q277.169 1370.48 275.34 1374.05 Q273.535 1377.59 273.535 1384.72 Q273.535 1391.83 275.34 1395.39 Q277.169 1398.93 280.78 1398.93 Q284.415 1398.93 286.22 1395.39 Q288.049 1391.83 288.049 1384.72 Q288.049 1377.59 286.22 1374.05 Q284.415 1370.48 280.78 1370.48 M280.78 1366.78 Q286.59 1366.78 289.646 1371.39 Q292.725 1375.97 292.725 1384.72 Q292.725 1393.45 289.646 1398.05 Q286.59 1402.64 280.78 1402.64 Q274.97 1402.64 271.891 1398.05 Q268.836 1393.45 268.836 1384.72 Q268.836 1375.97 271.891 1371.39 Q274.97 1366.78 280.78 1366.78 Z" fill="#000000" fill-rule="nonzero" fill-opacity="1" /><path clip-path="url(#clip120)" d="M310.942 1370.48 Q307.331 1370.48 305.502 1374.05 Q303.697 1377.59 303.697 1384.72 Q303.697 1391.83 305.502 1395.39 Q307.331 1398.93 310.942 1398.93 Q314.576 1398.93 316.382 1395.39 Q318.211 1391.83 318.211 1384.72 Q318.211 1377.59 316.382 1374.05 Q314.576 1370.48 310.942 1370.48 M310.942 1366.78 Q316.752 1366.78 319.808 1371.39 Q322.887 1375.97 322.887 1384.72 Q322.887 1393.45 319.808 1398.05 Q316.752 1402.64 310.942 1402.64 Q305.132 1402.64 302.053 1398.05 Q298.998 1393.45 298.998 1384.72 Q298.998 1375.97 302.053 1371.39 Q305.132 1366.78 310.942 1366.78 Z" fill="#000000" fill-rule="nonzero" fill-opacity="1" /><path clip-path="url(#clip120)" d="M632.471 1370.48 Q628.86 1370.48 627.032 1374.05 Q625.226 1377.59 625.226 1384.72 Q625.226 1391.83 627.032 1395.39 Q628.86 1398.93 632.471 1398.93 Q636.106 1398.93 637.911 1395.39 Q639.74 1391.83 639.74 1384.72 Q639.74 1377.59 637.911 1374.05 Q636.106 1370.48 632.471 1370.48 M632.471 1366.78 Q638.282 1366.78 641.337 1371.39 Q644.416 1375.97 644.416 1384.72 Q644.416 1393.45 641.337 1398.05 Q638.282 1402.64 632.471 1402.64 Q626.661 1402.64 623.583 1398.05 Q620.527 1393.45 620.527 1384.72 Q620.527 1375.97 623.583 1371.39 Q626.661 1366.78 632.471 1366.78 Z" fill="#000000" fill-rule="nonzero" fill-opacity="1" /><path clip-path="url(#clip120)" d="M652.633 1396.08 L657.518 1396.08 L657.518 1401.96 L652.633 1401.96 L652.633 1396.08 Z" fill="#000000" fill-rule="nonzero" fill-opacity="1" /><path clip-path="url(#clip120)" d="M671.73 1398.03 L688.05 1398.03 L688.05 1401.96 L666.106 1401.96 L666.106 1398.03 Q668.768 1395.27 673.351 1390.64 Q677.957 1385.99 679.138 1384.65 Q681.383 1382.13 682.263 1380.39 Q683.166 1378.63 683.166 1376.94 Q683.166 1374.19 681.221 1372.45 Q679.3 1370.71 676.198 1370.71 Q673.999 1370.71 671.545 1371.48 Q669.115 1372.24 666.337 1373.79 L666.337 1369.07 Q669.161 1367.94 671.615 1367.36 Q674.068 1366.78 676.105 1366.78 Q681.476 1366.78 684.67 1369.46 Q687.865 1372.15 687.865 1376.64 Q687.865 1378.77 687.054 1380.69 Q686.267 1382.59 684.161 1385.18 Q683.582 1385.85 680.48 1389.07 Q677.379 1392.26 671.73 1398.03 Z" fill="#000000" fill-rule="nonzero" fill-opacity="1" /><path clip-path="url(#clip120)" d="M697.911 1367.4 L716.267 1367.4 L716.267 1371.34 L702.193 1371.34 L702.193 1379.81 Q703.212 1379.46 704.23 1379.3 Q705.249 1379.12 706.267 1379.12 Q712.054 1379.12 715.434 1382.29 Q718.814 1385.46 718.814 1390.88 Q718.814 1396.45 715.341 1399.56 Q711.869 1402.64 705.55 1402.64 Q703.374 1402.64 701.105 1402.26 Q698.86 1401.89 696.453 1401.15 L696.453 1396.45 Q698.536 1397.59 700.758 1398.14 Q702.98 1398.7 705.457 1398.7 Q709.462 1398.7 711.8 1396.59 Q714.138 1394.49 714.138 1390.88 Q714.138 1387.26 711.8 1385.16 Q709.462 1383.05 705.457 1383.05 Q703.582 1383.05 701.707 1383.47 Q699.855 1383.89 697.911 1384.76 L697.911 1367.4 Z" fill="#000000" fill-rule="nonzero" fill-opacity="1" /><path clip-path="url(#clip120)" d="M1028.4 1370.48 Q1024.79 1370.48 1022.96 1374.05 Q1021.15 1377.59 1021.15 1384.72 Q1021.15 1391.83 1022.96 1395.39 Q1024.79 1398.93 1028.4 1398.93 Q1032.03 1398.93 1033.84 1395.39 Q1035.67 1391.83 1035.67 1384.72 Q1035.67 1377.59 1033.84 1374.05 Q1032.03 1370.48 1028.4 1370.48 M1028.4 1366.78 Q1034.21 1366.78 1037.26 1371.39 Q1040.34 1375.97 1040.34 1384.72 Q1040.34 1393.45 1037.26 1398.05 Q1034.21 1402.64 1028.4 1402.64 Q1022.59 1402.64 1019.51 1398.05 Q1016.45 1393.45 1016.45 1384.72 Q1016.45 1375.97 1019.51 1371.39 Q1022.59 1366.78 1028.4 1366.78 Z" fill="#000000" fill-rule="nonzero" fill-opacity="1" /><path clip-path="url(#clip120)" d="M1048.56 1396.08 L1053.44 1396.08 L1053.44 1401.96 L1048.56 1401.96 L1048.56 1396.08 Z" fill="#000000" fill-rule="nonzero" fill-opacity="1" /><path clip-path="url(#clip120)" d="M1063.68 1367.4 L1082.03 1367.4 L1082.03 1371.34 L1067.96 1371.34 L1067.96 1379.81 Q1068.98 1379.46 1070 1379.3 Q1071.01 1379.12 1072.03 1379.12 Q1077.82 1379.12 1081.2 1382.29 Q1084.58 1385.46 1084.58 1390.88 Q1084.58 1396.45 1081.11 1399.56 Q1077.63 1402.64 1071.31 1402.64 Q1069.14 1402.64 1066.87 1402.26 Q1064.63 1401.89 1062.22 1401.15 L1062.22 1396.45 Q1064.3 1397.59 1066.52 1398.14 Q1068.75 1398.7 1071.22 1398.7 Q1075.23 1398.7 1077.56 1396.59 Q1079.9 1394.49 1079.9 1390.88 Q1079.9 1387.26 1077.56 1385.16 Q1075.23 1383.05 1071.22 1383.05 Q1069.35 1383.05 1067.47 1383.47 Q1065.62 1383.89 1063.68 1384.76 L1063.68 1367.4 Z" fill="#000000" fill-rule="nonzero" fill-opacity="1" /><path clip-path="url(#clip120)" d="M1103.79 1370.48 Q1100.18 1370.48 1098.35 1374.05 Q1096.55 1377.59 1096.55 1384.72 Q1096.55 1391.83 1098.35 1395.39 Q1100.18 1398.93 1103.79 1398.93 Q1107.43 1398.93 1109.23 1395.39 Q1111.06 1391.83 1111.06 1384.72 Q1111.06 1377.59 1109.23 1374.05 Q1107.43 1370.48 1103.79 1370.48 M1103.79 1366.78 Q1109.6 1366.78 1112.66 1371.39 Q1115.74 1375.97 1115.74 1384.72 Q1115.74 1393.45 1112.66 1398.05 Q1109.6 1402.64 1103.79 1402.64 Q1097.98 1402.64 1094.9 1398.05 Q1091.85 1393.45 1091.85 1384.72 Q1091.85 1375.97 1094.9 1371.39 Q1097.98 1366.78 1103.79 1366.78 Z" fill="#000000" fill-rule="nonzero" fill-opacity="1" /><path clip-path="url(#clip120)" d="M1425.32 1370.48 Q1421.71 1370.48 1419.88 1374.05 Q1418.08 1377.59 1418.08 1384.72 Q1418.08 1391.83 1419.88 1395.39 Q1421.71 1398.93 1425.32 1398.93 Q1428.96 1398.93 1430.76 1395.39 Q1432.59 1391.83 1432.59 1384.72 Q1432.59 1377.59 1430.76 1374.05 Q1428.96 1370.48 1425.32 1370.48 M1425.32 1366.78 Q1431.13 1366.78 1434.19 1371.39 Q1437.27 1375.97 1437.27 1384.72 Q1437.27 1393.45 1434.19 1398.05 Q1431.13 1402.64 1425.32 1402.64 Q1419.51 1402.64 1416.43 1398.05 Q1413.38 1393.45 1413.38 1384.72 Q1413.38 1375.97 1416.43 1371.39 Q1419.51 1366.78 1425.32 1366.78 Z" fill="#000000" fill-rule="nonzero" fill-opacity="1" /><path clip-path="url(#clip120)" d="M1445.48 1396.08 L1450.37 1396.08 L1450.37 1401.96 L1445.48 1401.96 L1445.48 1396.08 Z" fill="#000000" fill-rule="nonzero" fill-opacity="1" /><path clip-path="url(#clip120)" d="M1459.37 1367.4 L1481.59 1367.4 L1481.59 1369.39 L1469.05 1401.96 L1464.16 1401.96 L1475.97 1371.34 L1459.37 1371.34 L1459.37 1367.4 Z" fill="#000000" fill-rule="nonzero" fill-opacity="1" /><path clip-path="url(#clip120)" d="M1490.76 1367.4 L1509.12 1367.4 L1509.12 1371.34 L1495.04 1371.34 L1495.04 1379.81 Q1496.06 1379.46 1497.08 1379.3 Q1498.1 1379.12 1499.12 1379.12 Q1504.9 1379.12 1508.28 1382.29 Q1511.66 1385.46 1511.66 1390.88 Q1511.66 1396.45 1508.19 1399.56 Q1504.72 1402.64 1498.4 1402.64 Q1496.22 1402.64 1493.95 1402.26 Q1491.71 1401.89 1489.3 1401.15 L1489.3 1396.45 Q1491.39 1397.59 1493.61 1398.14 Q1495.83 1398.7 1498.31 1398.7 Q1502.31 1398.7 1504.65 1396.59 Q1506.99 1394.49 1506.99 1390.88 Q1506.99 1387.26 1504.65 1385.16 Q1502.31 1383.05 1498.31 1383.05 Q1496.43 1383.05 1494.56 1383.47 Q1492.7 1383.89 1490.76 1384.76 L1490.76 1367.4 Z" fill="#000000" fill-rule="nonzero" fill-opacity="1" /><path clip-path="url(#clip120)" d="M1811.02 1398.03 L1818.66 1398.03 L1818.66 1371.66 L1810.35 1373.33 L1810.35 1369.07 L1818.61 1367.4 L1823.28 1367.4 L1823.28 1398.03 L1830.92 1398.03 L1830.92 1401.96 L1811.02 1401.96 L1811.02 1398.03 Z" fill="#000000" fill-rule="nonzero" fill-opacity="1" /><path clip-path="url(#clip120)" d="M1840.37 1396.08 L1845.25 1396.08 L1845.25 1401.96 L1840.37 1401.96 L1840.37 1396.08 Z" fill="#000000" fill-rule="nonzero" fill-opacity="1" /><path clip-path="url(#clip120)" d="M1865.44 1370.48 Q1861.83 1370.48 1860 1374.05 Q1858.19 1377.59 1858.19 1384.72 Q1858.19 1391.83 1860 1395.39 Q1861.83 1398.93 1865.44 1398.93 Q1869.07 1398.93 1870.88 1395.39 Q1872.71 1391.83 1872.71 1384.72 Q1872.71 1377.59 1870.88 1374.05 Q1869.07 1370.48 1865.44 1370.48 M1865.44 1366.78 Q1871.25 1366.78 1874.3 1371.39 Q1877.38 1375.97 1877.38 1384.72 Q1877.38 1393.45 1874.3 1398.05 Q1871.25 1402.64 1865.44 1402.64 Q1859.63 1402.64 1856.55 1398.05 Q1853.49 1393.45 1853.49 1384.72 Q1853.49 1375.97 1856.55 1371.39 Q1859.63 1366.78 1865.44 1366.78 Z" fill="#000000" fill-rule="nonzero" fill-opacity="1" /><path clip-path="url(#clip120)" d="M1895.6 1370.48 Q1891.99 1370.48 1890.16 1374.05 Q1888.35 1377.59 1888.35 1384.72 Q1888.35 1391.83 1890.16 1395.39 Q1891.99 1398.93 1895.6 1398.93 Q1899.23 1398.93 1901.04 1395.39 Q1902.87 1391.83 1902.87 1384.72 Q1902.87 1377.59 1901.04 1374.05 Q1899.23 1370.48 1895.6 1370.48 M1895.6 1366.78 Q1901.41 1366.78 1904.47 1371.39 Q1907.54 1375.97 1907.54 1384.72 Q1907.54 1393.45 1904.47 1398.05 Q1901.41 1402.64 1895.6 1402.64 Q1889.79 1402.64 1886.71 1398.05 Q1883.65 1393.45 1883.65 1384.72 Q1883.65 1375.97 1886.71 1371.39 Q1889.79 1366.78 1895.6 1366.78 Z" fill="#000000" fill-rule="nonzero" fill-opacity="1" /><path clip-path="url(#clip120)" d="M847.942 1433.55 L847.942 1481.07 L841.704 1481.07 L841.704 1441.31 L820.633 1481.07 L811.976 1481.07 L811.976 1433.55 L818.214 1433.55 L818.214 1473.3 L839.285 1433.55 L847.942 1433.55 Z" fill="#000000" fill-rule="nonzero" fill-opacity="1" /><path clip-path="url(#clip120)" d="M860.26 1445.42 L866.148 1445.42 L866.148 1459.97 L885.15 1459.97 L885.15 1445.42 L891.038 1445.42 L891.038 1481.07 L885.15 1481.07 L885.15 1464.64 L866.148 1464.64 L866.148 1481.07 L860.26 1481.07 L860.26 1445.42 Z" fill="#000000" fill-rule="nonzero" fill-opacity="1" /><path clip-path="url(#clip120)" d="M898.868 1445.42 L933.02 1445.42 L933.02 1450.1 L918.824 1450.1 L918.824 1481.07 L913.063 1481.07 L913.063 1450.1 L898.868 1450.1 L898.868 1445.42 Z" fill="#000000" fill-rule="nonzero" fill-opacity="1" /><path clip-path="url(#clip120)" d="M971.564 1461.78 L971.564 1464.64 L944.637 1464.64 Q945.019 1470.69 948.266 1473.87 Q951.544 1477.03 957.369 1477.03 Q960.743 1477.03 963.894 1476.2 Q967.076 1475.37 970.196 1473.72 L970.196 1479.25 Q967.045 1480.59 963.734 1481.29 Q960.424 1481.99 957.019 1481.99 Q948.489 1481.99 943.491 1477.03 Q938.526 1472.06 938.526 1463.59 Q938.526 1454.84 943.237 1449.72 Q947.979 1444.56 956 1444.56 Q963.193 1444.56 967.363 1449.21 Q971.564 1453.82 971.564 1461.78 M965.708 1460.06 Q965.644 1455.25 963.002 1452.39 Q960.392 1449.53 956.064 1449.53 Q951.162 1449.53 948.202 1452.29 Q945.274 1455.06 944.828 1460.09 L965.708 1460.06 Z" fill="#000000" fill-rule="nonzero" fill-opacity="1" /><path clip-path="url(#clip120)" d="M986.842 1475.72 L986.842 1494.63 L980.954 1494.63 L980.954 1445.42 L986.842 1445.42 L986.842 1450.83 Q988.688 1447.65 991.489 1446.12 Q994.322 1444.56 998.237 1444.56 Q1004.73 1444.56 1008.77 1449.72 Q1012.85 1454.87 1012.85 1463.28 Q1012.85 1471.68 1008.77 1476.83 Q1004.73 1481.99 998.237 1481.99 Q994.322 1481.99 991.489 1480.46 Q988.688 1478.9 986.842 1475.72 M1006.77 1463.28 Q1006.77 1456.81 1004.09 1453.15 Q1001.45 1449.46 996.804 1449.46 Q992.157 1449.46 989.484 1453.15 Q986.842 1456.81 986.842 1463.28 Q986.842 1469.74 989.484 1473.43 Q992.157 1477.09 996.804 1477.09 Q1001.45 1477.09 1004.09 1473.43 Q1006.77 1469.74 1006.77 1463.28 Z" fill="#000000" fill-rule="nonzero" fill-opacity="1" /><path clip-path="url(#clip120)" d="M1028.19 1464.64 L1028.19 1476.39 L1036.53 1476.39 Q1040.54 1476.39 1042.64 1474.89 Q1044.74 1473.37 1044.74 1470.5 Q1044.74 1467.64 1042.64 1466.14 Q1040.54 1464.64 1036.53 1464.64 L1028.19 1464.64 M1028.19 1450.1 L1028.19 1459.97 L1035.89 1459.97 Q1039.2 1459.97 1041.3 1458.66 Q1043.4 1457.32 1043.4 1454.97 Q1043.4 1452.61 1041.3 1451.37 Q1039.2 1450.1 1035.89 1450.1 L1028.19 1450.1 M1022.33 1445.42 L1036.27 1445.42 Q1042.54 1445.42 1045.92 1447.71 Q1049.29 1450 1049.29 1454.24 Q1049.29 1457.51 1047.57 1459.46 Q1045.85 1461.37 1042.48 1461.84 Q1046.52 1462.61 1048.75 1465.03 Q1050.98 1467.45 1050.98 1471.07 Q1050.98 1475.85 1047.28 1478.46 Q1043.62 1481.07 1036.81 1481.07 L1022.33 1481.07 L1022.33 1445.42 Z" fill="#000000" fill-rule="nonzero" fill-opacity="1" /><path clip-path="url(#clip120)" d="M1077.17 1463.15 Q1070.07 1463.15 1067.34 1464.77 Q1064.6 1466.39 1064.6 1470.31 Q1064.6 1473.43 1066.64 1475.28 Q1068.7 1477.09 1072.24 1477.09 Q1077.11 1477.09 1080.04 1473.65 Q1083 1470.18 1083 1464.45 L1083 1463.15 L1077.17 1463.15 M1088.85 1460.73 L1088.85 1481.07 L1083 1481.07 L1083 1475.66 Q1080.99 1478.9 1078 1480.46 Q1075.01 1481.99 1070.68 1481.99 Q1065.2 1481.99 1061.96 1478.94 Q1058.74 1475.85 1058.74 1470.69 Q1058.74 1464.68 1062.75 1461.62 Q1066.8 1458.57 1074.78 1458.57 L1083 1458.57 L1083 1457.99 Q1083 1453.95 1080.32 1451.75 Q1077.68 1449.53 1072.87 1449.53 Q1069.82 1449.53 1066.92 1450.26 Q1064.03 1450.99 1061.35 1452.45 L1061.35 1447.04 Q1064.57 1445.8 1067.59 1445.2 Q1070.61 1444.56 1073.48 1444.56 Q1081.21 1444.56 1085.03 1448.57 Q1088.85 1452.58 1088.85 1460.73 Z" fill="#000000" fill-rule="nonzero" fill-opacity="1" /><path clip-path="url(#clip120)" d="M1097.19 1481.07 L1097.19 1476.2 Q1102.98 1475.31 1104.77 1471.3 Q1106.93 1465.66 1106.93 1451.24 L1106.93 1445.42 L1131.03 1445.42 L1131.03 1481.07 L1125.17 1481.07 L1125.17 1450.1 L1112.79 1450.1 L1112.79 1453.63 Q1112.79 1467.38 1109.99 1473.56 Q1106.99 1480.14 1097.19 1481.07 Z" fill="#000000" fill-rule="nonzero" fill-opacity="1" /><path clip-path="url(#clip120)" d="M1177.37 1431.61 Q1173.1 1438.93 1171.03 1446.09 Q1168.96 1453.25 1168.96 1460.6 Q1168.96 1467.95 1171.03 1475.18 Q1173.13 1482.37 1177.37 1489.66 L1172.27 1489.66 Q1167.5 1482.18 1165.11 1474.96 Q1162.76 1467.73 1162.76 1460.6 Q1162.76 1453.5 1165.11 1446.31 Q1167.47 1439.12 1172.27 1431.61 L1177.37 1431.61 Z" fill="#000000" fill-rule="nonzero" fill-opacity="1" /><path clip-path="url(#clip120)" d="M1209.32 1481.07 L1209.32 1466.08 L1198.41 1466.08 Q1193.54 1466.08 1190.29 1463.05 Q1187.36 1460.32 1187.36 1454.46 L1187.36 1445.42 L1193.22 1445.42 L1193.22 1453.92 Q1193.22 1457.64 1194.87 1459.52 Q1196.56 1461.4 1199.87 1461.4 L1209.32 1461.4 L1209.32 1445.42 L1215.18 1445.42 L1215.18 1481.07 L1209.32 1481.07 Z" fill="#000000" fill-rule="nonzero" fill-opacity="1" /><path clip-path="url(#clip120)" d="M1226.32 1431.61 L1231.41 1431.61 Q1236.19 1439.12 1238.54 1446.31 Q1240.93 1453.5 1240.93 1460.6 Q1240.93 1467.73 1238.54 1474.96 Q1236.19 1482.18 1231.41 1489.66 L1226.32 1489.66 Q1230.55 1482.37 1232.62 1475.18 Q1234.72 1467.95 1234.72 1460.6 Q1234.72 1453.25 1232.62 1446.09 Q1230.55 1438.93 1226.32 1431.61 Z" fill="#000000" fill-rule="nonzero" fill-opacity="1" /><polyline clip-path="url(#clip120)" style="stroke:#000000; stroke-linecap:round; stroke-linejoin:round; stroke-width:4; stroke-opacity:1; fill:none" points="180.149,1343.4 180.149,135.568 "/>
<polyline clip-path="url(#clip120)" style="stroke:#000000; stroke-linecap:round; stroke-linejoin:round; stroke-width:4; stroke-opacity:1; fill:none" points="180.149,1343.4 199.047,1343.4 "/>
<polyline clip-path="url(#clip120)" style="stroke:#000000; stroke-linecap:round; stroke-linejoin:round; stroke-width:4; stroke-opacity:1; fill:none" points="180.149,1101.84 199.047,1101.84 "/>
<polyline clip-path="url(#clip120)" style="stroke:#000000; stroke-linecap:round; stroke-linejoin:round; stroke-width:4; stroke-opacity:1; fill:none" points="180.149,860.27 199.047,860.27 "/>
<polyline clip-path="url(#clip120)" style="stroke:#000000; stroke-linecap:round; stroke-linejoin:round; stroke-width:4; stroke-opacity:1; fill:none" points="180.149,618.702 199.047,618.702 "/>
<polyline clip-path="url(#clip120)" style="stroke:#000000; stroke-linecap:round; stroke-linejoin:round; stroke-width:4; stroke-opacity:1; fill:none" points="180.149,377.135 199.047,377.135 "/>
<polyline clip-path="url(#clip120)" style="stroke:#000000; stroke-linecap:round; stroke-linejoin:round; stroke-width:4; stroke-opacity:1; fill:none" points="180.149,135.568 199.047,135.568 "/>
<path clip-path="url(#clip120)" d="M139.405 1329.2 Q135.794 1329.2 133.965 1332.77 Q132.159 1336.31 132.159 1343.44 Q132.159 1350.55 133.965 1354.11 Q135.794 1357.65 139.405 1357.65 Q143.039 1357.65 144.845 1354.11 Q146.673 1350.55 146.673 1343.44 Q146.673 1336.31 144.845 1332.77 Q143.039 1329.2 139.405 1329.2 M139.405 1325.5 Q145.215 1325.5 148.271 1330.11 Q151.349 1334.69 151.349 1343.44 Q151.349 1352.17 148.271 1356.77 Q145.215 1361.36 139.405 1361.36 Q133.595 1361.36 130.516 1356.77 Q127.46 1352.17 127.46 1343.44 Q127.46 1334.69 130.516 1330.11 Q133.595 1325.5 139.405 1325.5 Z" fill="#000000" fill-rule="nonzero" fill-opacity="1" /><path clip-path="url(#clip120)" d="M131.442 1115.18 L139.081 1115.18 L139.081 1088.82 L130.771 1090.48 L130.771 1086.22 L139.034 1084.56 L143.71 1084.56 L143.71 1115.18 L151.349 1115.18 L151.349 1119.12 L131.442 1119.12 L131.442 1115.18 Z" fill="#000000" fill-rule="nonzero" fill-opacity="1" /><path clip-path="url(#clip120)" d="M135.03 873.614 L151.349 873.614 L151.349 877.55 L129.405 877.55 L129.405 873.614 Q132.067 870.86 136.65 866.23 Q141.257 861.577 142.437 860.235 Q144.683 857.712 145.562 855.976 Q146.465 854.216 146.465 852.527 Q146.465 849.772 144.521 848.036 Q142.599 846.3 139.497 846.3 Q137.298 846.3 134.845 847.064 Q132.414 847.827 129.636 849.378 L129.636 844.656 Q132.46 843.522 134.914 842.943 Q137.368 842.365 139.405 842.365 Q144.775 842.365 147.97 845.05 Q151.164 847.735 151.164 852.226 Q151.164 854.355 150.354 856.277 Q149.567 858.175 147.46 860.767 Q146.882 861.439 143.78 864.656 Q140.678 867.851 135.03 873.614 Z" fill="#000000" fill-rule="nonzero" fill-opacity="1" /><path clip-path="url(#clip120)" d="M144.22 617.348 Q147.576 618.066 149.451 620.334 Q151.349 622.603 151.349 625.936 Q151.349 631.052 147.831 633.853 Q144.312 636.654 137.831 636.654 Q135.655 636.654 133.34 636.214 Q131.048 635.797 128.595 634.941 L128.595 630.427 Q130.539 631.561 132.854 632.14 Q135.169 632.719 137.692 632.719 Q142.09 632.719 144.382 630.982 Q146.696 629.246 146.696 625.936 Q146.696 622.881 144.544 621.168 Q142.414 619.432 138.595 619.432 L134.567 619.432 L134.567 615.589 L138.78 615.589 Q142.229 615.589 144.058 614.223 Q145.886 612.834 145.886 610.242 Q145.886 607.58 143.988 606.168 Q142.113 604.733 138.595 604.733 Q136.673 604.733 134.474 605.149 Q132.275 605.566 129.636 606.446 L129.636 602.279 Q132.298 601.538 134.613 601.168 Q136.951 600.797 139.011 600.797 Q144.335 600.797 147.437 603.228 Q150.539 605.635 150.539 609.756 Q150.539 612.626 148.896 614.617 Q147.252 616.584 144.22 617.348 Z" fill="#000000" fill-rule="nonzero" fill-opacity="1" /><path clip-path="url(#clip120)" d="M141.766 363.929 L129.96 382.378 L141.766 382.378 L141.766 363.929 M140.539 359.855 L146.419 359.855 L146.419 382.378 L151.349 382.378 L151.349 386.267 L146.419 386.267 L146.419 394.415 L141.766 394.415 L141.766 386.267 L126.164 386.267 L126.164 381.753 L140.539 359.855 Z" fill="#000000" fill-rule="nonzero" fill-opacity="1" /><path clip-path="url(#clip120)" d="M130.447 118.288 L148.803 118.288 L148.803 122.223 L134.729 122.223 L134.729 130.695 Q135.747 130.348 136.766 130.186 Q137.784 130.001 138.803 130.001 Q144.59 130.001 147.97 133.172 Q151.349 136.344 151.349 141.76 Q151.349 147.339 147.877 150.441 Q144.405 153.519 138.085 153.519 Q135.909 153.519 133.641 153.149 Q131.396 152.779 128.988 152.038 L128.988 147.339 Q131.072 148.473 133.294 149.029 Q135.516 149.584 137.993 149.584 Q141.997 149.584 144.335 147.478 Q146.673 145.371 146.673 141.76 Q146.673 138.149 144.335 136.043 Q141.997 133.936 137.993 133.936 Q136.118 133.936 134.243 134.353 Q132.391 134.77 130.447 135.649 L130.447 118.288 Z" fill="#000000" fill-rule="nonzero" fill-opacity="1" /><path clip-path="url(#clip120)" d="M35.5882 879.77 L83.1082 879.77 L83.1082 886.2 L40.999 886.2 L40.999 909.562 L83.1082 909.562 L83.1082 915.991 L35.5882 915.991 L35.5882 879.77 Z" fill="#000000" fill-rule="nonzero" fill-opacity="1" /><path clip-path="url(#clip120)" d="M83.1082 870.954 L78.2384 870.954 Q77.3472 865.161 73.3368 863.379 Q67.7031 861.214 53.2848 861.214 L47.4602 861.214 L47.4602 837.12 L83.1082 837.12 L83.1082 842.976 L52.139 842.976 L52.139 855.358 L55.672 855.358 Q69.4219 855.358 75.5966 858.159 Q82.1851 861.151 83.1082 870.954 Z" fill="#000000" fill-rule="nonzero" fill-opacity="1" /><path clip-path="url(#clip120)" d="M51.5661 811.753 Q51.5661 816.463 55.2582 819.201 Q58.9185 821.938 65.316 821.938 Q71.7135 821.938 75.4057 819.232 Q79.0659 816.495 79.0659 811.753 Q79.0659 807.074 75.3738 804.337 Q71.6817 801.599 65.316 801.599 Q58.9821 801.599 55.29 804.337 Q51.5661 807.074 51.5661 811.753 M46.6008 811.753 Q46.6008 804.114 51.5661 799.753 Q56.5313 795.393 65.316 795.393 Q74.0689 795.393 79.0659 799.753 Q84.0312 804.114 84.0312 811.753 Q84.0312 819.423 79.0659 823.784 Q74.0689 828.113 65.316 828.113 Q56.5313 828.113 51.5661 823.784 Q46.6008 819.423 46.6008 811.753 Z" fill="#000000" fill-rule="nonzero" fill-opacity="1" /><path clip-path="url(#clip120)" d="M47.4602 789.918 L47.4602 755.766 L52.139 755.766 L52.139 769.962 L83.1082 769.962 L83.1082 775.723 L52.139 775.723 L52.139 789.918 L47.4602 789.918 Z" fill="#000000" fill-rule="nonzero" fill-opacity="1" /><path clip-path="url(#clip120)" d="M47.4602 747.936 L47.4602 742.048 L62.0058 742.048 L62.0058 723.047 L47.4602 723.047 L47.4602 717.158 L83.1082 717.158 L83.1082 723.047 L66.6846 723.047 L66.6846 742.048 L83.1082 742.048 L83.1082 747.936 L47.4602 747.936 Z" fill="#000000" fill-rule="nonzero" fill-opacity="1" /><path clip-path="url(#clip120)" d="M51.5661 691.282 Q51.5661 695.992 55.2582 698.73 Q58.9185 701.467 65.316 701.467 Q71.7135 701.467 75.4057 698.761 Q79.0659 696.024 79.0659 691.282 Q79.0659 686.603 75.3738 683.866 Q71.6817 681.128 65.316 681.128 Q58.9821 681.128 55.29 683.866 Q51.5661 686.603 51.5661 691.282 M46.6008 691.282 Q46.6008 683.643 51.5661 679.282 Q56.5313 674.922 65.316 674.922 Q74.0689 674.922 79.0659 679.282 Q84.0312 683.643 84.0312 691.282 Q84.0312 698.952 79.0659 703.313 Q74.0689 707.642 65.316 707.642 Q56.5313 707.642 51.5661 703.313 Q46.6008 698.952 46.6008 691.282 Z" fill="#000000" fill-rule="nonzero" fill-opacity="1" /><path clip-path="url(#clip120)" d="M48.8288 639.56 L54.3033 639.56 Q52.9347 642.043 52.2663 644.557 Q51.5661 647.04 51.5661 649.586 Q51.5661 655.284 55.1945 658.435 Q58.7912 661.586 65.316 661.586 Q71.8409 661.586 75.4693 658.435 Q79.0659 655.284 79.0659 649.586 Q79.0659 647.04 78.3975 644.557 Q77.6973 642.043 76.3287 639.56 L81.7395 639.56 Q82.8854 642.011 83.4583 644.653 Q84.0312 647.263 84.0312 650.223 Q84.0312 658.275 78.9704 663.018 Q73.9097 667.76 65.316 667.76 Q56.595 667.76 51.5979 662.986 Q46.6008 658.18 46.6008 649.841 Q46.6008 647.135 47.1737 644.557 Q47.7148 641.979 48.8288 639.56 Z" fill="#000000" fill-rule="nonzero" fill-opacity="1" /><path clip-path="url(#clip120)" d="M47.4602 633.608 L47.4602 599.456 L52.139 599.456 L52.139 613.652 L83.1082 613.652 L83.1082 619.413 L52.139 619.413 L52.139 633.608 L47.4602 633.608 Z" fill="#000000" fill-rule="nonzero" fill-opacity="1" /><path clip-path="url(#clip120)" d="M72.5411 569.219 Q69.6765 569.219 68.1806 571.32 Q66.6846 573.389 66.6846 577.399 L66.6846 585.738 L78.4294 585.738 L78.4294 577.399 Q78.4294 573.389 76.9334 571.32 Q75.4057 569.219 72.5411 569.219 M47.4602 591.627 L47.4602 585.738 L62.0058 585.738 L62.0058 577.145 Q62.0058 570.333 64.6158 566.673 Q67.1939 562.981 72.5411 562.981 Q77.8883 562.981 80.4982 566.673 Q83.1082 570.333 83.1082 577.145 L83.1082 591.627 L47.4602 591.627 Z" fill="#000000" fill-rule="nonzero" fill-opacity="1" /><path clip-path="url(#clip120)" d="M77.427 18.8205 L77.427 41.5461 L87.7163 41.5461 Q93.428 41.5461 96.5472 38.5889 Q99.6664 35.6318 99.6664 30.163 Q99.6664 24.7348 96.5472 21.7777 Q93.428 18.8205 87.7163 18.8205 L77.427 18.8205 M69.2441 12.096 L87.7163 12.096 Q97.884 12.096 103.069 16.714 Q108.295 21.2916 108.295 30.163 Q108.295 39.1155 103.069 43.6931 Q97.884 48.2706 87.7163 48.2706 L77.427 48.2706 L77.427 72.576 L69.2441 72.576 L69.2441 12.096 Z" fill="#000000" fill-rule="nonzero" fill-opacity="1" /><path clip-path="url(#clip120)" d="M139.568 49.7694 Q130.534 49.7694 127.051 51.8354 Q123.567 53.9013 123.567 58.8839 Q123.567 62.8538 126.159 65.2034 Q128.792 67.5124 133.289 67.5124 Q139.487 67.5124 143.214 63.1374 Q146.981 58.7219 146.981 51.4303 L146.981 49.7694 L139.568 49.7694 M154.435 46.6907 L154.435 72.576 L146.981 72.576 L146.981 65.6895 Q144.429 69.8214 140.621 71.8063 Q136.813 73.7508 131.304 73.7508 Q124.336 73.7508 120.205 69.8619 Q116.113 65.9325 116.113 59.3701 Q116.113 51.7138 121.217 47.825 Q126.362 43.9361 136.53 43.9361 L146.981 43.9361 L146.981 43.2069 Q146.981 38.0623 143.578 35.2672 Q140.216 32.4315 134.099 32.4315 Q130.21 32.4315 126.524 33.3632 Q122.838 34.295 119.435 36.1584 L119.435 29.2718 Q123.526 27.692 127.375 26.9223 Q131.223 26.1121 134.869 26.1121 Q144.712 26.1121 149.574 31.2163 Q154.435 36.3204 154.435 46.6907 Z" fill="#000000" fill-rule="nonzero" fill-opacity="1" /><path clip-path="url(#clip120)" d="M202.438 28.9478 L202.438 35.9153 Q199.278 34.1734 196.078 33.3227 Q192.918 32.4315 189.678 32.4315 Q182.426 32.4315 178.416 37.0496 Q174.406 41.6271 174.406 49.9314 Q174.406 58.2358 178.416 62.8538 Q182.426 67.4314 189.678 67.4314 Q192.918 67.4314 196.078 66.5807 Q199.278 65.6895 202.438 63.9476 L202.438 70.8341 Q199.319 72.2924 195.956 73.0216 Q192.635 73.7508 188.867 73.7508 Q178.619 73.7508 172.583 67.3098 Q166.547 60.8689 166.547 49.9314 Q166.547 38.832 172.623 32.472 Q178.74 26.1121 189.353 26.1121 Q192.797 26.1121 196.078 26.8413 Q199.359 27.5299 202.438 28.9478 Z" fill="#000000" fill-rule="nonzero" fill-opacity="1" /><path clip-path="url(#clip120)" d="M254.289 27.2059 L254.289 72.576 L246.795 72.576 L246.795 33.1607 L222.611 33.1607 L222.611 72.576 L215.117 72.576 L215.117 27.2059 L254.289 27.2059 Z" fill="#000000" fill-rule="nonzero" fill-opacity="1" /><path clip-path="url(#clip120)" d="M276.853 65.7705 L276.853 89.8329 L269.359 89.8329 L269.359 27.2059 L276.853 27.2059 L276.853 34.0924 Q279.203 30.0415 282.767 28.0971 Q286.373 26.1121 291.355 26.1121 Q299.619 26.1121 304.764 32.6746 Q309.949 39.2371 309.949 49.9314 Q309.949 60.6258 304.764 67.1883 Q299.619 73.7508 291.355 73.7508 Q286.373 73.7508 282.767 71.8063 Q279.203 69.8214 276.853 65.7705 M302.212 49.9314 Q302.212 41.7081 298.809 37.0496 Q295.447 32.3505 289.532 32.3505 Q283.618 32.3505 280.215 37.0496 Q276.853 41.7081 276.853 49.9314 Q276.853 58.1548 280.215 62.8538 Q283.618 67.5124 289.532 67.5124 Q295.447 67.5124 298.809 62.8538 Q302.212 58.1548 302.212 49.9314 Z" fill="#000000" fill-rule="nonzero" fill-opacity="1" /><path clip-path="url(#clip120)" d="M361.112 48.0275 L361.112 51.6733 L326.841 51.6733 Q327.327 59.3701 331.459 63.421 Q335.632 67.4314 343.045 67.4314 Q347.339 67.4314 351.349 66.3781 Q355.4 65.3249 359.37 63.2184 L359.37 70.267 Q355.36 71.9684 351.147 72.8596 Q346.934 73.7508 342.599 73.7508 Q331.743 73.7508 325.383 67.4314 Q319.063 61.1119 319.063 50.3365 Q319.063 39.1965 325.059 32.6746 Q331.095 26.1121 341.303 26.1121 Q350.458 26.1121 355.765 32.0264 Q361.112 37.9003 361.112 48.0275 M353.658 45.84 Q353.577 39.7232 350.215 36.0774 Q346.893 32.4315 341.384 32.4315 Q335.145 32.4315 331.378 35.9558 Q327.651 39.4801 327.084 45.8805 L353.658 45.84 Z" fill="#000000" fill-rule="nonzero" fill-opacity="1" /><path clip-path="url(#clip120)" d="M383.473 66.6212 L405.105 66.6212 L405.105 33.1607 L389.428 33.1607 L389.428 38.832 Q389.428 55.5217 384.648 64.4337 L383.473 66.6212 M372.657 66.6212 Q376.343 65.0008 377.964 61.5575 Q381.933 53.0101 381.933 35.7938 L381.933 27.2059 L412.599 27.2059 L412.599 66.6212 L418.554 66.6212 L418.554 84.0401 L412.599 84.0401 L412.599 72.576 L375.817 72.576 L375.817 84.0401 L369.862 84.0401 L369.862 66.6212 L372.657 66.6212 Z" fill="#000000" fill-rule="nonzero" fill-opacity="1" /><path clip-path="url(#clip120)" d="M469.514 48.0275 L469.514 51.6733 L435.243 51.6733 Q435.729 59.3701 439.861 63.421 Q444.034 67.4314 451.447 67.4314 Q455.741 67.4314 459.751 66.3781 Q463.802 65.3249 467.772 63.2184 L467.772 70.267 Q463.762 71.9684 459.549 72.8596 Q455.336 73.7508 451.001 73.7508 Q440.145 73.7508 433.785 67.4314 Q427.466 61.1119 427.466 50.3365 Q427.466 39.1965 433.461 32.6746 Q439.497 26.1121 449.705 26.1121 Q458.86 26.1121 464.167 32.0264 Q469.514 37.9003 469.514 48.0275 M462.06 45.84 Q461.979 39.7232 458.617 36.0774 Q455.295 32.4315 449.786 32.4315 Q443.548 32.4315 439.78 35.9558 Q436.054 39.4801 435.486 45.8805 L462.06 45.84 Z" fill="#000000" fill-rule="nonzero" fill-opacity="1" /><path clip-path="url(#clip120)" d="M477.008 72.576 L477.008 66.3781 Q484.381 65.2439 486.649 60.1397 Q489.404 52.9696 489.404 34.619 L489.404 27.2059 L520.069 27.2059 L520.069 72.576 L512.616 72.576 L512.616 33.1607 L496.858 33.1607 L496.858 37.6572 Q496.858 55.1571 493.293 63.0159 Q489.485 71.4012 477.008 72.576 Z" fill="#000000" fill-rule="nonzero" fill-opacity="1" /><path clip-path="url(#clip120)" d="M573.582 48.0275 L573.582 51.6733 L539.311 51.6733 Q539.797 59.3701 543.929 63.421 Q548.102 67.4314 555.515 67.4314 Q559.809 67.4314 563.819 66.3781 Q567.87 65.3249 571.84 63.2184 L571.84 70.267 Q567.829 71.9684 563.616 72.8596 Q559.404 73.7508 555.069 73.7508 Q544.213 73.7508 537.853 67.4314 Q531.533 61.1119 531.533 50.3365 Q531.533 39.1965 537.529 32.6746 Q543.565 26.1121 553.773 26.1121 Q562.928 26.1121 568.235 32.0264 Q573.582 37.9003 573.582 48.0275 M566.128 45.84 Q566.047 39.7232 562.685 36.0774 Q559.363 32.4315 553.854 32.4315 Q547.615 32.4315 543.848 35.9558 Q540.121 39.4801 539.554 45.8805 L566.128 45.84 Z" fill="#000000" fill-rule="nonzero" fill-opacity="1" /><path clip-path="url(#clip120)" d="M585.532 27.2059 L593.026 27.2059 L593.026 45.7185 L617.21 45.7185 L617.21 27.2059 L624.704 27.2059 L624.704 72.576 L617.21 72.576 L617.21 51.6733 L593.026 51.6733 L593.026 72.576 L585.532 72.576 L585.532 27.2059 Z" fill="#000000" fill-rule="nonzero" fill-opacity="1" /><path clip-path="url(#clip120)" d="M678.622 27.2059 L678.622 72.576 L671.209 72.576 L671.209 36.1584 L649.334 72.576 L639.773 72.576 L639.773 27.2059 L647.187 27.2059 L647.187 63.5425 L669.021 27.2059 L678.622 27.2059 Z" fill="#000000" fill-rule="nonzero" fill-opacity="1" /><path clip-path="url(#clip120)" d="M732.782 48.0275 L732.782 51.6733 L698.512 51.6733 Q698.998 59.3701 703.13 63.421 Q707.302 67.4314 714.715 67.4314 Q719.009 67.4314 723.02 66.3781 Q727.07 65.3249 731.04 63.2184 L731.04 70.267 Q727.03 71.9684 722.817 72.8596 Q718.604 73.7508 714.27 73.7508 Q703.413 73.7508 697.053 67.4314 Q690.734 61.1119 690.734 50.3365 Q690.734 39.1965 696.729 32.6746 Q702.765 26.1121 712.973 26.1121 Q722.128 26.1121 727.435 32.0264 Q732.782 37.9003 732.782 48.0275 M725.329 45.84 Q725.248 39.7232 721.885 36.0774 Q718.564 32.4315 713.054 32.4315 Q706.816 32.4315 703.049 35.9558 Q699.322 39.4801 698.755 45.8805 L725.329 45.84 Z" fill="#000000" fill-rule="nonzero" fill-opacity="1" /><path clip-path="url(#clip120)" d="M809.952 27.2059 L809.952 72.576 L802.539 72.576 L802.539 36.1584 L780.664 72.576 L771.104 72.576 L771.104 27.2059 L778.517 27.2059 L778.517 63.5425 L800.351 27.2059 L809.952 27.2059 Z" fill="#000000" fill-rule="nonzero" fill-opacity="1" /><path clip-path="url(#clip120)" d="M825.021 27.2059 L832.516 27.2059 L832.516 45.7185 L856.699 45.7185 L856.699 27.2059 L864.194 27.2059 L864.194 72.576 L856.699 72.576 L856.699 51.6733 L832.516 51.6733 L832.516 72.576 L825.021 72.576 L825.021 27.2059 Z" fill="#000000" fill-rule="nonzero" fill-opacity="1" /><path clip-path="url(#clip120)" d="M874.159 27.2059 L917.625 27.2059 L917.625 33.1607 L899.558 33.1607 L899.558 72.576 L892.226 72.576 L892.226 33.1607 L874.159 33.1607 L874.159 27.2059 Z" fill="#000000" fill-rule="nonzero" fill-opacity="1" /><path clip-path="url(#clip120)" d="M966.681 48.0275 L966.681 51.6733 L932.411 51.6733 Q932.897 59.3701 937.029 63.421 Q941.201 67.4314 948.614 67.4314 Q952.908 67.4314 956.919 66.3781 Q960.97 65.3249 964.94 63.2184 L964.94 70.267 Q960.929 71.9684 956.716 72.8596 Q952.503 73.7508 948.169 73.7508 Q937.312 73.7508 930.952 67.4314 Q924.633 61.1119 924.633 50.3365 Q924.633 39.1965 930.628 32.6746 Q936.664 26.1121 946.873 26.1121 Q956.028 26.1121 961.334 32.0264 Q966.681 37.9003 966.681 48.0275 M959.228 45.84 Q959.147 39.7232 955.785 36.0774 Q952.463 32.4315 946.954 32.4315 Q940.715 32.4315 936.948 35.9558 Q933.221 39.4801 932.654 45.8805 L959.228 45.84 Z" fill="#000000" fill-rule="nonzero" fill-opacity="1" /><path clip-path="url(#clip120)" d="M986.126 65.7705 L986.126 89.8329 L978.632 89.8329 L978.632 27.2059 L986.126 27.2059 L986.126 34.0924 Q988.475 30.0415 992.04 28.0971 Q995.645 26.1121 1000.63 26.1121 Q1008.89 26.1121 1014.04 32.6746 Q1019.22 39.2371 1019.22 49.9314 Q1019.22 60.6258 1014.04 67.1883 Q1008.89 73.7508 1000.63 73.7508 Q995.645 73.7508 992.04 71.8063 Q988.475 69.8214 986.126 65.7705 M1011.48 49.9314 Q1011.48 41.7081 1008.08 37.0496 Q1004.72 32.3505 998.805 32.3505 Q992.891 32.3505 989.488 37.0496 Q986.126 41.7081 986.126 49.9314 Q986.126 58.1548 989.488 62.8538 Q992.891 67.5124 998.805 67.5124 Q1004.72 67.5124 1008.08 62.8538 Q1011.48 58.1548 1011.48 49.9314 Z" fill="#000000" fill-rule="nonzero" fill-opacity="1" /><path clip-path="url(#clip120)" d="M1038.75 51.6733 L1038.75 66.6212 L1049.36 66.6212 Q1054.46 66.6212 1057.14 64.7172 Q1059.81 62.7728 1059.81 59.127 Q1059.81 55.4812 1057.14 53.5773 Q1054.46 51.6733 1049.36 51.6733 L1038.75 51.6733 M1038.75 33.1607 L1038.75 45.7185 L1048.55 45.7185 Q1052.76 45.7185 1055.44 44.0576 Q1058.11 42.3563 1058.11 39.3586 Q1058.11 36.3609 1055.44 34.7811 Q1052.76 33.1607 1048.55 33.1607 L1038.75 33.1607 M1031.29 27.2059 L1049.04 27.2059 Q1057.02 27.2059 1061.31 30.1225 Q1065.6 33.0392 1065.6 38.4269 Q1065.6 42.5993 1063.42 45.0704 Q1061.23 47.5009 1056.94 48.1085 Q1062.08 49.0808 1064.92 52.1594 Q1067.75 55.2381 1067.75 59.8562 Q1067.75 65.9325 1063.05 69.2543 Q1058.39 72.576 1049.73 72.576 L1031.29 72.576 L1031.29 27.2059 Z" fill="#000000" fill-rule="nonzero" fill-opacity="1" /><path clip-path="url(#clip120)" d="M1101.09 49.7694 Q1092.06 49.7694 1088.57 51.8354 Q1085.09 53.9013 1085.09 58.8839 Q1085.09 62.8538 1087.68 65.2034 Q1090.32 67.5124 1094.81 67.5124 Q1101.01 67.5124 1104.74 63.1374 Q1108.5 58.7219 1108.5 51.4303 L1108.5 49.7694 L1101.09 49.7694 M1115.96 46.6907 L1115.96 72.576 L1108.5 72.576 L1108.5 65.6895 Q1105.95 69.8214 1102.14 71.8063 Q1098.34 73.7508 1092.83 73.7508 Q1085.86 73.7508 1081.73 69.8619 Q1077.64 65.9325 1077.64 59.3701 Q1077.64 51.7138 1082.74 47.825 Q1087.88 43.9361 1098.05 43.9361 L1108.5 43.9361 L1108.5 43.2069 Q1108.5 38.0623 1105.1 35.2672 Q1101.74 32.4315 1095.62 32.4315 Q1091.73 32.4315 1088.05 33.3632 Q1084.36 34.295 1080.96 36.1584 L1080.96 29.2718 Q1085.05 27.692 1088.9 26.9223 Q1092.75 26.1121 1096.39 26.1121 Q1106.24 26.1121 1111.1 31.2163 Q1115.96 36.3204 1115.96 46.6907 Z" fill="#000000" fill-rule="nonzero" fill-opacity="1" /><path clip-path="url(#clip120)" d="M1126.57 72.576 L1126.57 66.3781 Q1133.94 65.2439 1136.21 60.1397 Q1138.97 52.9696 1138.97 34.619 L1138.97 27.2059 L1169.63 27.2059 L1169.63 72.576 L1162.18 72.576 L1162.18 33.1607 L1146.42 33.1607 L1146.42 37.6572 Q1146.42 55.1571 1142.86 63.0159 Q1139.05 71.4012 1126.57 72.576 Z" fill="#000000" fill-rule="nonzero" fill-opacity="1" /><path clip-path="url(#clip120)" d="M1201.92 32.4315 Q1195.92 32.4315 1192.44 37.1306 Q1188.95 41.7891 1188.95 49.9314 Q1188.95 58.0738 1192.4 62.7728 Q1195.88 67.4314 1201.92 67.4314 Q1207.87 67.4314 1211.36 62.7323 Q1214.84 58.0333 1214.84 49.9314 Q1214.84 41.8701 1211.36 37.1711 Q1207.87 32.4315 1201.92 32.4315 M1201.92 26.1121 Q1211.64 26.1121 1217.19 32.4315 Q1222.74 38.7509 1222.74 49.9314 Q1222.74 61.0714 1217.19 67.4314 Q1211.64 73.7508 1201.92 73.7508 Q1192.15 73.7508 1186.61 67.4314 Q1181.1 61.0714 1181.1 49.9314 Q1181.1 38.7509 1186.61 32.4315 Q1192.15 26.1121 1201.92 26.1121 Z" fill="#000000" fill-rule="nonzero" fill-opacity="1" /><path clip-path="url(#clip120)" d="M1242.26 51.6733 L1242.26 66.6212 L1252.88 66.6212 Q1257.98 66.6212 1260.66 64.7172 Q1263.33 62.7728 1263.33 59.127 Q1263.33 55.4812 1260.66 53.5773 Q1257.98 51.6733 1252.88 51.6733 L1242.26 51.6733 M1242.26 33.1607 L1242.26 45.7185 L1252.07 45.7185 Q1256.28 45.7185 1258.95 44.0576 Q1261.63 42.3563 1261.63 39.3586 Q1261.63 36.3609 1258.95 34.7811 Q1256.28 33.1607 1252.07 33.1607 L1242.26 33.1607 M1234.81 27.2059 L1252.55 27.2059 Q1260.53 27.2059 1264.83 30.1225 Q1269.12 33.0392 1269.12 38.4269 Q1269.12 42.5993 1266.93 45.0704 Q1264.75 47.5009 1260.45 48.1085 Q1265.6 49.0808 1268.43 52.1594 Q1271.27 55.2381 1271.27 59.8562 Q1271.27 65.9325 1266.57 69.2543 Q1261.91 72.576 1253.24 72.576 L1234.81 72.576 L1234.81 27.2059 Z" fill="#000000" fill-rule="nonzero" fill-opacity="1" /><path clip-path="url(#clip120)" d="M1310.08 27.2059 L1320.97 27.2059 L1333.86 57.5877 L1346.78 27.2059 L1357.59 27.2059 L1357.59 72.576 L1350.1 72.576 L1350.1 34.3355 L1337.58 63.8666 L1330.13 63.8666 L1317.57 34.3355 L1317.57 72.576 L1310.08 72.576 L1310.08 27.2059 Z" fill="#000000" fill-rule="nonzero" fill-opacity="1" /><path clip-path="url(#clip120)" d="M1411.75 48.0275 L1411.75 51.6733 L1377.48 51.6733 Q1377.97 59.3701 1382.1 63.421 Q1386.27 67.4314 1393.69 67.4314 Q1397.98 67.4314 1401.99 66.3781 Q1406.04 65.3249 1410.01 63.2184 L1410.01 70.267 Q1406 71.9684 1401.79 72.8596 Q1397.58 73.7508 1393.24 73.7508 Q1382.39 73.7508 1376.03 67.4314 Q1369.71 61.1119 1369.71 50.3365 Q1369.71 39.1965 1375.7 32.6746 Q1381.74 26.1121 1391.95 26.1121 Q1401.1 26.1121 1406.41 32.0264 Q1411.75 37.9003 1411.75 48.0275 M1404.3 45.84 Q1404.22 39.7232 1400.86 36.0774 Q1397.54 32.4315 1392.03 32.4315 Q1385.79 32.4315 1382.02 35.9558 Q1378.29 39.4801 1377.73 45.8805 L1404.3 45.84 Z" fill="#000000" fill-rule="nonzero" fill-opacity="1" /><path clip-path="url(#clip120)" d="M1449.83 27.2059 L1457.25 27.2059 L1457.25 48.5136 L1477.05 27.2059 L1485.72 27.2059 L1469.44 44.6653 L1488.07 72.576 L1480.09 72.576 L1464.82 49.6479 L1457.25 57.7902 L1457.25 72.576 L1449.83 72.576 L1449.83 57.7902 L1442.26 49.6479 L1426.99 72.576 L1419.01 72.576 L1437.64 44.6653 L1421.35 27.2059 L1430.02 27.2059 L1449.83 48.5136 L1449.83 27.2059 Z" fill="#000000" fill-rule="nonzero" fill-opacity="1" /><path clip-path="url(#clip120)" d="M1508.85 66.6212 L1530.49 66.6212 L1530.49 33.1607 L1514.81 33.1607 L1514.81 38.832 Q1514.81 55.5217 1510.03 64.4337 L1508.85 66.6212 M1498.04 66.6212 Q1501.72 65.0008 1503.35 61.5575 Q1507.32 53.0101 1507.32 35.7938 L1507.32 27.2059 L1537.98 27.2059 L1537.98 66.6212 L1543.94 66.6212 L1543.94 84.0401 L1537.98 84.0401 L1537.98 72.576 L1501.2 72.576 L1501.2 84.0401 L1495.24 84.0401 L1495.24 66.6212 L1498.04 66.6212 Z" fill="#000000" fill-rule="nonzero" fill-opacity="1" /><path clip-path="url(#clip120)" d="M1574.97 76.7889 Q1571.81 84.8907 1568.81 87.3618 Q1565.81 89.8329 1560.79 89.8329 L1554.83 89.8329 L1554.83 83.5945 L1559.21 83.5945 Q1562.29 83.5945 1563.99 82.1361 Q1565.69 80.6778 1567.75 75.2496 L1569.09 71.8468 L1550.74 27.2059 L1558.64 27.2059 L1572.82 62.6918 L1587 27.2059 L1594.9 27.2059 L1574.97 76.7889 Z" fill="#000000" fill-rule="nonzero" fill-opacity="1" /><path clip-path="url(#clip120)" d="M1652.18 49.7694 Q1643.14 49.7694 1639.66 51.8354 Q1636.17 53.9013 1636.17 58.8839 Q1636.17 62.8538 1638.77 65.2034 Q1641.4 67.5124 1645.9 67.5124 Q1652.09 67.5124 1655.82 63.1374 Q1659.59 58.7219 1659.59 51.4303 L1659.59 49.7694 L1652.18 49.7694 M1667.04 46.6907 L1667.04 72.576 L1659.59 72.576 L1659.59 65.6895 Q1657.04 69.8214 1653.23 71.8063 Q1649.42 73.7508 1643.91 73.7508 Q1636.94 73.7508 1632.81 69.8619 Q1628.72 65.9325 1628.72 59.3701 Q1628.72 51.7138 1633.82 47.825 Q1638.97 43.9361 1649.14 43.9361 L1659.59 43.9361 L1659.59 43.2069 Q1659.59 38.0623 1656.19 35.2672 Q1652.82 32.4315 1646.71 32.4315 Q1642.82 32.4315 1639.13 33.3632 Q1635.45 34.295 1632.04 36.1584 L1632.04 29.2718 Q1636.13 27.692 1639.98 26.9223 Q1643.83 26.1121 1647.48 26.1121 Q1657.32 26.1121 1662.18 31.2163 Q1667.04 36.3204 1667.04 46.6907 Z" fill="#000000" fill-rule="nonzero" fill-opacity="1" /><path clip-path="url(#clip120)" d="M1677.01 27.2059 L1720.47 27.2059 L1720.47 33.1607 L1702.41 33.1607 L1702.41 72.576 L1695.07 72.576 L1695.07 33.1607 L1677.01 33.1607 L1677.01 27.2059 Z" fill="#000000" fill-rule="nonzero" fill-opacity="1" /><path clip-path="url(#clip120)" d="M1751.34 49.7694 Q1742.31 49.7694 1738.82 51.8354 Q1735.34 53.9013 1735.34 58.8839 Q1735.34 62.8538 1737.93 65.2034 Q1740.57 67.5124 1745.06 67.5124 Q1751.26 67.5124 1754.99 63.1374 Q1758.75 58.7219 1758.75 51.4303 L1758.75 49.7694 L1751.34 49.7694 M1766.21 46.6907 L1766.21 72.576 L1758.75 72.576 L1758.75 65.6895 Q1756.2 69.8214 1752.39 71.8063 Q1748.59 73.7508 1743.08 73.7508 Q1736.11 73.7508 1731.98 69.8619 Q1727.89 65.9325 1727.89 59.3701 Q1727.89 51.7138 1732.99 47.825 Q1738.14 43.9361 1748.3 43.9361 L1758.75 43.9361 L1758.75 43.2069 Q1758.75 38.0623 1755.35 35.2672 Q1751.99 32.4315 1745.87 32.4315 Q1741.98 32.4315 1738.3 33.3632 Q1734.61 34.295 1731.21 36.1584 L1731.21 29.2718 Q1735.3 27.692 1739.15 26.9223 Q1743 26.1121 1746.64 26.1121 Q1756.49 26.1121 1761.35 31.2163 Q1766.21 36.3204 1766.21 46.6907 Z" fill="#000000" fill-rule="nonzero" fill-opacity="1" /><path clip-path="url(#clip120)" d="M1781.28 27.2059 L1788.69 27.2059 L1788.69 48.5136 L1809.72 27.2059 L1818.87 27.2059 L1801.53 44.7463 L1821.1 72.576 L1812.75 72.576 L1796.67 49.6884 L1788.69 57.7902 L1788.69 72.576 L1781.28 72.576 L1781.28 27.2059 Z" fill="#000000" fill-rule="nonzero" fill-opacity="1" /><path clip-path="url(#clip120)" d="M1852.29 49.7694 Q1843.26 49.7694 1839.77 51.8354 Q1836.29 53.9013 1836.29 58.8839 Q1836.29 62.8538 1838.88 65.2034 Q1841.51 67.5124 1846.01 67.5124 Q1852.21 67.5124 1855.94 63.1374 Q1859.7 58.7219 1859.7 51.4303 L1859.7 49.7694 L1852.29 49.7694 M1867.16 46.6907 L1867.16 72.576 L1859.7 72.576 L1859.7 65.6895 Q1857.15 69.8214 1853.34 71.8063 Q1849.54 73.7508 1844.03 73.7508 Q1837.06 73.7508 1832.93 69.8619 Q1828.84 65.9325 1828.84 59.3701 Q1828.84 51.7138 1833.94 47.825 Q1839.08 43.9361 1849.25 43.9361 L1859.7 43.9361 L1859.7 43.2069 Q1859.7 38.0623 1856.3 35.2672 Q1852.94 32.4315 1846.82 32.4315 Q1842.93 32.4315 1839.25 33.3632 Q1835.56 34.295 1832.16 36.1584 L1832.16 29.2718 Q1836.25 27.692 1840.1 26.9223 Q1843.95 26.1121 1847.59 26.1121 Q1857.43 26.1121 1862.3 31.2163 Q1867.16 36.3204 1867.16 46.6907 Z" fill="#000000" fill-rule="nonzero" fill-opacity="1" /><path clip-path="url(#clip120)" d="M1882.23 27.2059 L1893.12 27.2059 L1906.01 57.5877 L1918.93 27.2059 L1929.74 27.2059 L1929.74 72.576 L1922.25 72.576 L1922.25 34.3355 L1909.73 63.8666 L1902.28 63.8666 L1889.72 34.3355 L1889.72 72.576 L1882.23 72.576 L1882.23 27.2059 Z" fill="#000000" fill-rule="nonzero" fill-opacity="1" /><path clip-path="url(#clip120)" d="M1983.66 27.2059 L1983.66 72.576 L1976.25 72.576 L1976.25 36.1584 L1954.37 72.576 L1944.81 72.576 L1944.81 27.2059 L1952.23 27.2059 L1952.23 63.5425 L1974.06 27.2059 L1983.66 27.2059 Z" fill="#000000" fill-rule="nonzero" fill-opacity="1" /><path clip-path="url(#clip122)" d="M273.246 401.701 L273.246 1343.4 L352.531 1343.4 L352.531 401.701 L273.246 401.701 L273.246 401.701  Z" fill="#009af9" fill-rule="evenodd" fill-opacity="1"/>
<polyline clip-path="url(#clip122)" style="stroke:#000000; stroke-linecap:round; stroke-linejoin:round; stroke-width:4; stroke-opacity:1; fill:none" points="273.246,401.701 273.246,1343.4 352.531,1343.4 352.531,401.701 273.246,401.701 "/>
<path clip-path="url(#clip122)" d="M352.531 196.984 L352.531 1343.4 L431.815 1343.4 L431.815 196.984 L352.531 196.984 L352.531 196.984  Z" fill="#009af9" fill-rule="evenodd" fill-opacity="1"/>
<polyline clip-path="url(#clip122)" style="stroke:#000000; stroke-linecap:round; stroke-linejoin:round; stroke-width:4; stroke-opacity:1; fill:none" points="352.531,196.984 352.531,1343.4 431.815,1343.4 431.815,196.984 352.531,196.984 "/>
<path clip-path="url(#clip122)" d="M431.815 688.307 L431.815 1343.4 L511.1 1343.4 L511.1 688.307 L431.815 688.307 L431.815 688.307  Z" fill="#009af9" fill-rule="evenodd" fill-opacity="1"/>
<polyline clip-path="url(#clip122)" style="stroke:#000000; stroke-linecap:round; stroke-linejoin:round; stroke-width:4; stroke-opacity:1; fill:none" points="431.815,688.307 431.815,1343.4 511.1,1343.4 511.1,688.307 431.815,688.307 "/>
<path clip-path="url(#clip122)" d="M511.1 1015.86 L511.1 1343.4 L590.385 1343.4 L590.385 1015.86 L511.1 1015.86 L511.1 1015.86  Z" fill="#009af9" fill-rule="evenodd" fill-opacity="1"/>
<polyline clip-path="url(#clip122)" style="stroke:#000000; stroke-linecap:round; stroke-linejoin:round; stroke-width:4; stroke-opacity:1; fill:none" points="511.1,1015.86 511.1,1343.4 590.385,1343.4 590.385,1015.86 511.1,1015.86 "/>
<path clip-path="url(#clip122)" d="M590.385 933.968 L590.385 1343.4 L669.67 1343.4 L669.67 933.968 L590.385 933.968 L590.385 933.968  Z" fill="#009af9" fill-rule="evenodd" fill-opacity="1"/>
<polyline clip-path="url(#clip122)" style="stroke:#000000; stroke-linecap:round; stroke-linejoin:round; stroke-width:4; stroke-opacity:1; fill:none" points="590.385,933.968 590.385,1343.4 669.67,1343.4 669.67,933.968 590.385,933.968 "/>
<path clip-path="url(#clip122)" d="M669.67 1179.63 L669.67 1343.4 L748.955 1343.4 L748.955 1179.63 L669.67 1179.63 L669.67 1179.63  Z" fill="#009af9" fill-rule="evenodd" fill-opacity="1"/>
<polyline clip-path="url(#clip122)" style="stroke:#000000; stroke-linecap:round; stroke-linejoin:round; stroke-width:4; stroke-opacity:1; fill:none" points="669.67,1179.63 669.67,1343.4 748.955,1343.4 748.955,1179.63 669.67,1179.63 "/>
<path clip-path="url(#clip122)" d="M748.955 974.912 L748.955 1343.4 L828.24 1343.4 L828.24 974.912 L748.955 974.912 L748.955 974.912  Z" fill="#009af9" fill-rule="evenodd" fill-opacity="1"/>
<polyline clip-path="url(#clip122)" style="stroke:#000000; stroke-linecap:round; stroke-linejoin:round; stroke-width:4; stroke-opacity:1; fill:none" points="748.955,974.912 748.955,1343.4 828.24,1343.4 828.24,974.912 748.955,974.912 "/>
<path clip-path="url(#clip122)" d="M828.24 1302.46 L828.24 1343.4 L907.525 1343.4 L907.525 1302.46 L828.24 1302.46 L828.24 1302.46  Z" fill="#009af9" fill-rule="evenodd" fill-opacity="1"/>
<polyline clip-path="url(#clip122)" style="stroke:#000000; stroke-linecap:round; stroke-linejoin:round; stroke-width:4; stroke-opacity:1; fill:none" points="828.24,1302.46 828.24,1343.4 907.525,1343.4 907.525,1302.46 828.24,1302.46 "/>
<path clip-path="url(#clip122)" d="M907.525 1261.52 L907.525 1343.4 L986.81 1343.4 L986.81 1261.52 L907.525 1261.52 L907.525 1261.52  Z" fill="#009af9" fill-rule="evenodd" fill-opacity="1"/>
<polyline clip-path="url(#clip122)" style="stroke:#000000; stroke-linecap:round; stroke-linejoin:round; stroke-width:4; stroke-opacity:1; fill:none" points="907.525,1261.52 907.525,1343.4 986.81,1343.4 986.81,1261.52 907.525,1261.52 "/>
<path clip-path="url(#clip122)" d="M986.81 1097.74 L986.81 1343.4 L1066.1 1343.4 L1066.1 1097.74 L986.81 1097.74 L986.81 1097.74  Z" fill="#009af9" fill-rule="evenodd" fill-opacity="1"/>
<polyline clip-path="url(#clip122)" style="stroke:#000000; stroke-linecap:round; stroke-linejoin:round; stroke-width:4; stroke-opacity:1; fill:none" points="986.81,1097.74 986.81,1343.4 1066.1,1343.4 1066.1,1097.74 986.81,1097.74 "/>
<path clip-path="url(#clip122)" d="M1066.1 1302.46 L1066.1 1343.4 L1145.38 1343.4 L1145.38 1302.46 L1066.1 1302.46 L1066.1 1302.46  Z" fill="#009af9" fill-rule="evenodd" fill-opacity="1"/>
<polyline clip-path="url(#clip122)" style="stroke:#000000; stroke-linecap:round; stroke-linejoin:round; stroke-width:4; stroke-opacity:1; fill:none" points="1066.1,1302.46 1066.1,1343.4 1145.38,1343.4 1145.38,1302.46 1066.1,1302.46 "/>
<path clip-path="url(#clip122)" d="M1145.38 1220.57 L1145.38 1343.4 L1224.66 1343.4 L1224.66 1220.57 L1145.38 1220.57 L1145.38 1220.57  Z" fill="#009af9" fill-rule="evenodd" fill-opacity="1"/>
<polyline clip-path="url(#clip122)" style="stroke:#000000; stroke-linecap:round; stroke-linejoin:round; stroke-width:4; stroke-opacity:1; fill:none" points="1145.38,1220.57 1145.38,1343.4 1224.66,1343.4 1224.66,1220.57 1145.38,1220.57 "/>
<path clip-path="url(#clip122)" d="M1224.66 1261.52 L1224.66 1343.4 L1303.95 1343.4 L1303.95 1261.52 L1224.66 1261.52 L1224.66 1261.52  Z" fill="#009af9" fill-rule="evenodd" fill-opacity="1"/>
<polyline clip-path="url(#clip122)" style="stroke:#000000; stroke-linecap:round; stroke-linejoin:round; stroke-width:4; stroke-opacity:1; fill:none" points="1224.66,1261.52 1224.66,1343.4 1303.95,1343.4 1303.95,1261.52 1224.66,1261.52 "/>
<path clip-path="url(#clip122)" d="M1303.95 1302.46 L1303.95 1343.4 L1383.23 1343.4 L1383.23 1302.46 L1303.95 1302.46 L1303.95 1302.46  Z" fill="#009af9" fill-rule="evenodd" fill-opacity="1"/>
<polyline clip-path="url(#clip122)" style="stroke:#000000; stroke-linecap:round; stroke-linejoin:round; stroke-width:4; stroke-opacity:1; fill:none" points="1303.95,1302.46 1303.95,1343.4 1383.23,1343.4 1383.23,1302.46 1303.95,1302.46 "/>
<path clip-path="url(#clip122)" d="M1383.23 1261.52 L1383.23 1343.4 L1462.52 1343.4 L1462.52 1261.52 L1383.23 1261.52 L1383.23 1261.52  Z" fill="#009af9" fill-rule="evenodd" fill-opacity="1"/>
<polyline clip-path="url(#clip122)" style="stroke:#000000; stroke-linecap:round; stroke-linejoin:round; stroke-width:4; stroke-opacity:1; fill:none" points="1383.23,1261.52 1383.23,1343.4 1462.52,1343.4 1462.52,1261.52 1383.23,1261.52 "/>
<path clip-path="url(#clip122)" d="M1462.52 1343.4 L1462.52 1343.4 L1541.8 1343.4 L1541.8 1343.4 L1462.52 1343.4 L1462.52 1343.4  Z" fill="#009af9" fill-rule="evenodd" fill-opacity="1"/>
<polyline clip-path="url(#clip122)" style="stroke:#000000; stroke-linecap:round; stroke-linejoin:round; stroke-width:4; stroke-opacity:1; fill:none" points="1462.52,1343.4 1462.52,1343.4 1541.8,1343.4 1462.52,1343.4 "/>
<path clip-path="url(#clip122)" d="M1541.8 1343.4 L1541.8 1343.4 L1621.09 1343.4 L1621.09 1343.4 L1541.8 1343.4 L1541.8 1343.4  Z" fill="#009af9" fill-rule="evenodd" fill-opacity="1"/>
<polyline clip-path="url(#clip122)" style="stroke:#000000; stroke-linecap:round; stroke-linejoin:round; stroke-width:4; stroke-opacity:1; fill:none" points="1541.8,1343.4 1541.8,1343.4 1621.09,1343.4 1541.8,1343.4 "/>
<path clip-path="url(#clip122)" d="M1621.09 1302.46 L1621.09 1343.4 L1700.37 1343.4 L1700.37 1302.46 L1621.09 1302.46 L1621.09 1302.46  Z" fill="#009af9" fill-rule="evenodd" fill-opacity="1"/>
<polyline clip-path="url(#clip122)" style="stroke:#000000; stroke-linecap:round; stroke-linejoin:round; stroke-width:4; stroke-opacity:1; fill:none" points="1621.09,1302.46 1621.09,1343.4 1700.37,1343.4 1700.37,1302.46 1621.09,1302.46 "/>
<path clip-path="url(#clip122)" d="M1700.37 1302.46 L1700.37 1343.4 L1779.66 1343.4 L1779.66 1302.46 L1700.37 1302.46 L1700.37 1302.46  Z" fill="#009af9" fill-rule="evenodd" fill-opacity="1"/>
<polyline clip-path="url(#clip122)" style="stroke:#000000; stroke-linecap:round; stroke-linejoin:round; stroke-width:4; stroke-opacity:1; fill:none" points="1700.37,1302.46 1700.37,1343.4 1779.66,1343.4 1779.66,1302.46 1700.37,1302.46 "/>
<circle clip-path="url(#clip122)" style="fill:#009af9; stroke:none; fill-opacity:0" cx="312.888" cy="401.701" r="2"/>
<circle clip-path="url(#clip122)" style="fill:#009af9; stroke:none; fill-opacity:0" cx="392.173" cy="196.984" r="2"/>
<circle clip-path="url(#clip122)" style="fill:#009af9; stroke:none; fill-opacity:0" cx="471.458" cy="688.307" r="2"/>
<circle clip-path="url(#clip122)" style="fill:#009af9; stroke:none; fill-opacity:0" cx="550.743" cy="1015.86" r="2"/>
<circle clip-path="url(#clip122)" style="fill:#009af9; stroke:none; fill-opacity:0" cx="630.028" cy="933.968" r="2"/>
<circle clip-path="url(#clip122)" style="fill:#009af9; stroke:none; fill-opacity:0" cx="709.313" cy="1179.63" r="2"/>
<circle clip-path="url(#clip122)" style="fill:#009af9; stroke:none; fill-opacity:0" cx="788.598" cy="974.912" r="2"/>
<circle clip-path="url(#clip122)" style="fill:#009af9; stroke:none; fill-opacity:0" cx="867.883" cy="1302.46" r="2"/>
<circle clip-path="url(#clip122)" style="fill:#009af9; stroke:none; fill-opacity:0" cx="947.168" cy="1261.52" r="2"/>
<circle clip-path="url(#clip122)" style="fill:#009af9; stroke:none; fill-opacity:0" cx="1026.45" cy="1097.74" r="2"/>
<circle clip-path="url(#clip122)" style="fill:#009af9; stroke:none; fill-opacity:0" cx="1105.74" cy="1302.46" r="2"/>
<circle clip-path="url(#clip122)" style="fill:#009af9; stroke:none; fill-opacity:0" cx="1185.02" cy="1220.57" r="2"/>
<circle clip-path="url(#clip122)" style="fill:#009af9; stroke:none; fill-opacity:0" cx="1264.31" cy="1261.52" r="2"/>
<circle clip-path="url(#clip122)" style="fill:#009af9; stroke:none; fill-opacity:0" cx="1343.59" cy="1302.46" r="2"/>
<circle clip-path="url(#clip122)" style="fill:#009af9; stroke:none; fill-opacity:0" cx="1422.88" cy="1261.52" r="2"/>
<circle clip-path="url(#clip122)" style="fill:#009af9; stroke:none; fill-opacity:0" cx="1502.16" cy="1343.4" r="2"/>
<circle clip-path="url(#clip122)" style="fill:#009af9; stroke:none; fill-opacity:0" cx="1581.45" cy="1343.4" r="2"/>
<circle clip-path="url(#clip122)" style="fill:#009af9; stroke:none; fill-opacity:0" cx="1660.73" cy="1302.46" r="2"/>
<circle clip-path="url(#clip122)" style="fill:#009af9; stroke:none; fill-opacity:0" cx="1740.02" cy="1302.46" r="2"/>
<polyline clip-path="url(#clip122)" style="stroke:#e26f46; stroke-linecap:round; stroke-linejoin:round; stroke-width:8; stroke-opacity:1; fill:none" points="273.246,135.568 287.732,189.5 302.219,241.024 316.706,290.248 331.193,337.273 345.68,382.199 360.166,425.119 374.653,466.122 389.14,505.294 403.627,542.718 418.114,578.47 432.601,612.626 447.087,645.256 461.574,676.43 476.061,706.212 490.548,734.664 505.035,761.845 519.521,787.813 534.008,812.621 548.495,836.322 562.982,858.964 577.469,880.595 591.956,901.26 606.442,921.003 620.929,939.864 635.416,957.883 649.903,975.097 664.39,991.543 678.876,1007.25 693.363,1022.26 707.85,1036.6 722.337,1050.3 736.824,1063.39 751.31,1075.89 765.797,1087.84 780.284,1099.25 794.771,1110.15 809.258,1120.57 823.745,1130.52 838.231,1140.02 852.718,1149.1 867.205,1157.78 881.692,1166.07 896.179,1173.99 910.665,1181.55 925.152,1188.78 939.639,1195.68 954.126,1202.28 968.613,1208.58 983.099,1214.6 997.586,1220.35 1012.07,1225.85 1026.56,1231.1 1041.05,1236.11 1055.53,1240.9 1070.02,1245.48 1084.51,1249.85 1098.99,1254.03 1113.48,1258.02 1127.97,1261.83 1142.45,1265.47 1156.94,1268.95 1171.43,1272.28 1185.91,1275.45 1200.4,1278.49 1214.89,1281.39 1229.38,1284.16 1243.86,1286.8 1258.35,1289.33 1272.84,1291.74 1287.32,1294.05 1301.81,1296.25 1316.3,1298.36 1330.78,1300.37 1345.27,1302.29 1359.76,1304.13 1374.24,1305.88 1388.73,1307.56 1403.22,1309.16 1417.7,1310.69 1432.19,1312.15 1446.68,1313.54 1461.16,1314.88 1475.65,1316.15 1490.14,1317.37 1504.62,1318.53 1519.11,1319.64 1533.6,1320.7 1548.09,1321.72 1562.57,1322.68 1577.06,1323.61 1591.55,1324.49 1606.03,1325.34 1620.52,1326.14 1635.01,1326.91 1649.49,1327.65 1663.98,1328.35 1678.47,1329.03 1692.95,1329.67 1707.44,1330.28 "/>
<path clip-path="url(#clip120)" d="M899.949 331.349 L1816.34 331.349 L1816.34 175.829 L899.949 175.829  Z" fill="#ffffff" fill-rule="evenodd" fill-opacity="1"/>
<polyline clip-path="url(#clip120)" style="stroke:#000000; stroke-linecap:round; stroke-linejoin:round; stroke-width:4; stroke-opacity:1; fill:none" points="899.949,331.349 1816.34,331.349 1816.34,175.829 899.949,175.829 899.949,331.349 "/>
<path clip-path="url(#clip120)" d="M918.756 248.405 L1031.6 248.405 L1031.6 206.933 L918.756 206.933 L918.756 248.405  Z" fill="#009af9" fill-rule="evenodd" fill-opacity="1"/>
<polyline clip-path="url(#clip120)" style="stroke:#000000; stroke-linecap:round; stroke-linejoin:round; stroke-width:4; stroke-opacity:1; fill:none" points="918.756,248.405 1031.6,248.405 1031.6,206.933 918.756,206.933 918.756,248.405 "/>
<path clip-path="url(#clip120)" d="M1050.4 237.403 Q1055.29 241.778 1061.21 241.778 Q1067.32 241.778 1070.08 238.491 Q1072.83 235.204 1073.34 229.672 L1054.87 229.672 L1054.87 225.736 L1073.34 225.736 Q1072.83 220.204 1070.08 216.917 Q1067.32 213.607 1061.21 213.607 Q1055.29 213.607 1050.4 217.982 L1050.4 213.051 Q1055.22 209.764 1061.49 209.764 Q1069.25 209.764 1073.76 214.579 Q1078.27 219.371 1078.27 227.681 Q1078.27 236.014 1073.76 240.829 Q1069.25 245.621 1061.49 245.621 Q1055.31 245.621 1050.4 242.287 L1050.4 237.403 Z" fill="#000000" fill-rule="nonzero" fill-opacity="1" /><path clip-path="url(#clip120)" d="M1085.24 219.024 L1091.47 219.024 L1098.83 236.385 L1106.21 219.024 L1112.39 219.024 L1112.39 244.949 L1108.11 244.949 L1108.11 223.098 L1100.96 239.972 L1096.7 239.972 L1089.52 223.098 L1089.52 244.949 L1085.24 244.949 L1085.24 219.024 Z" fill="#000000" fill-rule="nonzero" fill-opacity="1" /><path clip-path="url(#clip120)" d="M1143.39 219.024 L1143.39 244.949 L1139.11 244.949 L1139.11 222.426 L1125.29 222.426 L1125.29 244.949 L1121 244.949 L1121 219.024 L1143.39 219.024 Z" fill="#000000" fill-rule="nonzero" fill-opacity="1" /><path clip-path="url(#clip120)" d="M1174.2 219.024 L1174.2 244.949 L1169.96 244.949 L1169.96 224.139 L1157.46 244.949 L1152 244.949 L1152 219.024 L1156.24 219.024 L1156.24 239.787 L1168.71 219.024 L1174.2 219.024 Z" fill="#000000" fill-rule="nonzero" fill-opacity="1" /><path clip-path="url(#clip120)" d="M1187.09 241.06 L1187.09 254.81 L1182.81 254.81 L1182.81 219.024 L1187.09 219.024 L1187.09 222.959 Q1188.43 220.644 1190.47 219.533 Q1192.53 218.399 1195.38 218.399 Q1200.1 218.399 1203.04 222.149 Q1206 225.898 1206 232.01 Q1206 238.121 1203.04 241.871 Q1200.1 245.621 1195.38 245.621 Q1192.53 245.621 1190.47 244.51 Q1188.43 243.375 1187.09 241.06 M1201.58 232.01 Q1201.58 227.311 1199.64 224.648 Q1197.72 221.963 1194.34 221.963 Q1190.96 221.963 1189.01 224.648 Q1187.09 227.311 1187.09 232.01 Q1187.09 236.709 1189.01 239.394 Q1190.96 242.056 1194.34 242.056 Q1197.72 242.056 1199.64 239.394 Q1201.58 236.709 1201.58 232.01 Z" fill="#000000" fill-rule="nonzero" fill-opacity="1" /><path clip-path="url(#clip120)" d="M1235.1 219.024 L1235.1 244.949 L1230.87 244.949 L1230.87 224.139 L1218.37 244.949 L1212.9 244.949 L1212.9 219.024 L1217.14 219.024 L1217.14 239.787 L1229.62 219.024 L1235.1 219.024 Z" fill="#000000" fill-rule="nonzero" fill-opacity="1" /><path clip-path="url(#clip120)" d="M1258.85 244.949 L1258.85 234.047 L1250.91 234.047 Q1247.37 234.047 1245.01 231.848 Q1242.88 229.857 1242.88 225.598 L1242.88 219.024 L1247.14 219.024 L1247.14 225.204 Q1247.14 227.912 1248.34 229.278 Q1249.57 230.644 1251.98 230.644 L1258.85 230.644 L1258.85 219.024 L1263.11 219.024 L1263.11 244.949 L1258.85 244.949 Z" fill="#000000" fill-rule="nonzero" fill-opacity="1" /><path clip-path="url(#clip120)" d="M1294.06 230.922 L1294.06 233.005 L1274.48 233.005 Q1274.75 237.403 1277.12 239.718 Q1279.5 242.01 1283.74 242.01 Q1286.19 242.01 1288.48 241.408 Q1290.8 240.806 1293.06 239.602 L1293.06 243.63 Q1290.77 244.602 1288.37 245.111 Q1285.96 245.621 1283.48 245.621 Q1277.28 245.621 1273.64 242.01 Q1270.03 238.398 1270.03 232.241 Q1270.03 225.875 1273.46 222.149 Q1276.91 218.399 1282.74 218.399 Q1287.97 218.399 1291 221.778 Q1294.06 225.135 1294.06 230.922 M1289.8 229.672 Q1289.75 226.176 1287.83 224.093 Q1285.93 222.01 1282.79 222.01 Q1279.22 222.01 1277.07 224.024 Q1274.94 226.037 1274.62 229.695 L1289.8 229.672 Z" fill="#000000" fill-rule="nonzero" fill-opacity="1" /><path clip-path="url(#clip120)" d="M1319.71 220.019 L1319.71 224 Q1317.9 223.005 1316.07 222.519 Q1314.27 222.01 1312.42 222.01 Q1308.27 222.01 1305.98 224.648 Q1303.69 227.264 1303.69 232.01 Q1303.69 236.755 1305.98 239.394 Q1308.27 242.01 1312.42 242.01 Q1314.27 242.01 1316.07 241.523 Q1317.9 241.014 1319.71 240.019 L1319.71 243.954 Q1317.93 244.787 1316 245.204 Q1314.11 245.621 1311.95 245.621 Q1306.1 245.621 1302.65 241.94 Q1299.2 238.26 1299.2 232.01 Q1299.2 225.667 1302.67 222.033 Q1306.17 218.399 1312.23 218.399 Q1314.2 218.399 1316.07 218.815 Q1317.95 219.209 1319.71 220.019 Z" fill="#000000" fill-rule="nonzero" fill-opacity="1" /><path clip-path="url(#clip120)" d="M1326.95 219.024 L1331.19 219.024 L1331.19 231.199 L1343.2 219.024 L1348.43 219.024 L1338.53 229.047 L1349.71 244.949 L1344.94 244.949 L1335.75 231.871 L1331.19 236.5 L1331.19 244.949 L1326.95 244.949 L1326.95 219.024 Z" fill="#000000" fill-rule="nonzero" fill-opacity="1" /><path clip-path="url(#clip120)" d="M1367.53 231.917 Q1362.37 231.917 1360.38 233.098 Q1358.39 234.278 1358.39 237.125 Q1358.39 239.394 1359.87 240.736 Q1361.37 242.056 1363.94 242.056 Q1367.48 242.056 1369.61 239.556 Q1371.77 237.033 1371.77 232.866 L1371.77 231.917 L1367.53 231.917 M1376.03 230.158 L1376.03 244.949 L1371.77 244.949 L1371.77 241.014 Q1370.31 243.375 1368.13 244.51 Q1365.96 245.621 1362.81 245.621 Q1358.83 245.621 1356.47 243.398 Q1354.13 241.153 1354.13 237.403 Q1354.13 233.028 1357.05 230.806 Q1359.98 228.584 1365.8 228.584 L1371.77 228.584 L1371.77 228.167 Q1371.77 225.227 1369.82 223.63 Q1367.9 222.01 1364.41 222.01 Q1362.18 222.01 1360.08 222.542 Q1357.97 223.074 1356.03 224.139 L1356.03 220.204 Q1358.36 219.301 1360.56 218.861 Q1362.76 218.399 1364.85 218.399 Q1370.47 218.399 1373.25 221.315 Q1376.03 224.232 1376.03 230.158 Z" fill="#000000" fill-rule="nonzero" fill-opacity="1" /><path clip-path="url(#clip120)" d="M1389.08 226.5 Q1389.08 228.422 1390.56 229.51 Q1392.05 230.598 1394.8 230.598 L1400.54 230.598 L1400.54 222.426 L1394.8 222.426 Q1392.05 222.426 1390.56 223.491 Q1389.08 224.556 1389.08 226.5 M1383.02 244.949 L1390.93 233.584 Q1388.25 232.982 1386.47 231.408 Q1384.68 229.811 1384.68 226.5 Q1384.68 222.75 1387.16 220.899 Q1389.66 219.024 1394.68 219.024 L1404.82 219.024 L1404.82 244.949 L1400.54 244.949 L1400.54 234 L1395.24 234 L1387.6 244.949 L1383.02 244.949 Z" fill="#000000" fill-rule="nonzero" fill-opacity="1" /><path clip-path="url(#clip120)" d="M1450.61 219.024 L1450.61 244.949 L1446.33 244.949 L1446.33 222.426 L1432.51 222.426 L1432.51 244.949 L1428.23 244.949 L1428.23 219.024 L1450.61 219.024 Z" fill="#000000" fill-rule="nonzero" fill-opacity="1" /><path clip-path="url(#clip120)" d="M1456.67 244.949 L1456.67 241.408 Q1460.89 240.76 1462.18 237.843 Q1463.76 233.746 1463.76 223.26 L1463.76 219.024 L1481.28 219.024 L1481.28 244.949 L1477.02 244.949 L1477.02 222.426 L1468.02 222.426 L1468.02 224.996 Q1468.02 234.996 1465.98 239.486 Q1463.8 244.278 1456.67 244.949 Z" fill="#000000" fill-rule="nonzero" fill-opacity="1" /><path clip-path="url(#clip120)" d="M1499.73 222.01 Q1496.3 222.01 1494.31 224.695 Q1492.32 227.357 1492.32 232.01 Q1492.32 236.662 1494.29 239.347 Q1496.28 242.01 1499.73 242.01 Q1503.13 242.01 1505.12 239.324 Q1507.11 236.639 1507.11 232.01 Q1507.11 227.403 1505.12 224.718 Q1503.13 222.01 1499.73 222.01 M1499.73 218.399 Q1505.29 218.399 1508.46 222.01 Q1511.63 225.621 1511.63 232.01 Q1511.63 238.375 1508.46 242.01 Q1505.29 245.621 1499.73 245.621 Q1494.15 245.621 1490.98 242.01 Q1487.83 238.375 1487.83 232.01 Q1487.83 225.621 1490.98 222.01 Q1494.15 218.399 1499.73 218.399 Z" fill="#000000" fill-rule="nonzero" fill-opacity="1" /><path clip-path="url(#clip120)" d="M1515.61 219.024 L1540.45 219.024 L1540.45 222.426 L1530.12 222.426 L1530.12 244.949 L1525.93 244.949 L1525.93 222.426 L1515.61 222.426 L1515.61 219.024 Z" fill="#000000" fill-rule="nonzero" fill-opacity="1" /><path clip-path="url(#clip120)" d="M1546.14 219.024 L1550.42 219.024 L1550.42 229.602 L1564.24 229.602 L1564.24 219.024 L1568.53 219.024 L1568.53 244.949 L1564.24 244.949 L1564.24 233.005 L1550.42 233.005 L1550.42 244.949 L1546.14 244.949 L1546.14 219.024 Z" fill="#000000" fill-rule="nonzero" fill-opacity="1" /><path clip-path="url(#clip120)" d="M1587.34 222.01 Q1583.92 222.01 1581.93 224.695 Q1579.94 227.357 1579.94 232.01 Q1579.94 236.662 1581.91 239.347 Q1583.9 242.01 1587.34 242.01 Q1590.75 242.01 1592.74 239.324 Q1594.73 236.639 1594.73 232.01 Q1594.73 227.403 1592.74 224.718 Q1590.75 222.01 1587.34 222.01 M1587.34 218.399 Q1592.9 218.399 1596.07 222.01 Q1599.24 225.621 1599.24 232.01 Q1599.24 238.375 1596.07 242.01 Q1592.9 245.621 1587.34 245.621 Q1581.77 245.621 1578.59 242.01 Q1575.45 238.375 1575.45 232.01 Q1575.45 225.621 1578.59 222.01 Q1581.77 218.399 1587.34 218.399 Z" fill="#000000" fill-rule="nonzero" fill-opacity="1" /><path clip-path="url(#clip120)" d="M1624.96 220.019 L1624.96 224 Q1623.15 223.005 1621.33 222.519 Q1619.52 222.01 1617.67 222.01 Q1613.53 222.01 1611.23 224.648 Q1608.94 227.264 1608.94 232.01 Q1608.94 236.755 1611.23 239.394 Q1613.53 242.01 1617.67 242.01 Q1619.52 242.01 1621.33 241.523 Q1623.15 241.014 1624.96 240.019 L1624.96 243.954 Q1623.18 244.787 1621.26 245.204 Q1619.36 245.621 1617.21 245.621 Q1611.35 245.621 1607.9 241.94 Q1604.45 238.26 1604.45 232.01 Q1604.45 225.667 1607.92 222.033 Q1611.42 218.399 1617.48 218.399 Q1619.45 218.399 1621.33 218.815 Q1623.2 219.209 1624.96 220.019 Z" fill="#000000" fill-rule="nonzero" fill-opacity="1" /><path clip-path="url(#clip120)" d="M1629.29 219.024 L1654.13 219.024 L1654.13 222.426 L1643.8 222.426 L1643.8 244.949 L1639.61 244.949 L1639.61 222.426 L1629.29 222.426 L1629.29 219.024 Z" fill="#000000" fill-rule="nonzero" fill-opacity="1" /><path clip-path="url(#clip120)" d="M1676.12 237.264 Q1676.12 235.181 1674.59 234.093 Q1673.09 233.005 1670.17 233.005 L1664.1 233.005 L1664.1 241.547 L1670.17 241.547 Q1673.09 241.547 1674.59 240.459 Q1676.12 239.347 1676.12 237.264 M1659.82 219.024 L1664.1 219.024 L1664.1 229.602 L1670.35 229.602 Q1675.31 229.602 1677.97 231.5 Q1680.65 233.375 1680.65 237.264 Q1680.65 241.153 1677.97 243.051 Q1675.31 244.949 1670.35 244.949 L1659.82 244.949 L1659.82 219.024 Z" fill="#000000" fill-rule="nonzero" fill-opacity="1" /><polyline clip-path="url(#clip120)" style="stroke:#e26f46; stroke-linecap:round; stroke-linejoin:round; stroke-width:8; stroke-opacity:1; fill:none" points="918.756,279.509 1031.6,279.509 "/>
<path clip-path="url(#clip120)" d="M1050.4 289.243 Q1055.29 293.618 1061.21 293.618 Q1067.32 293.618 1070.08 290.331 Q1072.83 287.044 1073.34 281.512 L1054.87 281.512 L1054.87 277.576 L1073.34 277.576 Q1072.83 272.044 1070.08 268.757 Q1067.32 265.447 1061.21 265.447 Q1055.29 265.447 1050.4 269.822 L1050.4 264.891 Q1055.22 261.604 1061.49 261.604 Q1069.25 261.604 1073.76 266.419 Q1078.27 271.211 1078.27 279.521 Q1078.27 287.854 1073.76 292.669 Q1069.25 297.461 1061.49 297.461 Q1055.31 297.461 1050.4 294.127 L1050.4 289.243 Z" fill="#000000" fill-rule="nonzero" fill-opacity="1" /><path clip-path="url(#clip120)" d="M1085.24 270.864 L1089.48 270.864 L1089.48 283.039 L1101.49 270.864 L1106.72 270.864 L1096.82 280.887 L1108 296.789 L1103.23 296.789 L1094.04 283.711 L1089.48 288.34 L1089.48 296.789 L1085.24 296.789 L1085.24 270.864 Z" fill="#000000" fill-rule="nonzero" fill-opacity="1" /><path clip-path="url(#clip120)" d="M1132.69 271.859 L1132.69 275.84 Q1130.89 274.845 1129.06 274.359 Q1127.25 273.85 1125.4 273.85 Q1121.26 273.85 1118.97 276.488 Q1116.68 279.104 1116.68 283.85 Q1116.68 288.595 1118.97 291.234 Q1121.26 293.85 1125.4 293.85 Q1127.25 293.85 1129.06 293.363 Q1130.89 292.854 1132.69 291.859 L1132.69 295.794 Q1130.91 296.627 1128.99 297.044 Q1127.09 297.461 1124.94 297.461 Q1119.08 297.461 1115.63 293.78 Q1112.19 290.1 1112.19 283.85 Q1112.19 277.507 1115.66 273.873 Q1119.15 270.239 1125.22 270.239 Q1127.19 270.239 1129.06 270.655 Q1130.94 271.049 1132.69 271.859 Z" fill="#000000" fill-rule="nonzero" fill-opacity="1" /><path clip-path="url(#clip120)" d="M1162.32 270.864 L1162.32 296.789 L1158.04 296.789 L1158.04 274.266 L1144.22 274.266 L1144.22 296.789 L1139.94 296.789 L1139.94 270.864 L1162.32 270.864 Z" fill="#000000" fill-rule="nonzero" fill-opacity="1" /><path clip-path="url(#clip120)" d="M1181.14 273.85 Q1177.72 273.85 1175.73 276.535 Q1173.74 279.197 1173.74 283.85 Q1173.74 288.502 1175.7 291.187 Q1177.69 293.85 1181.14 293.85 Q1184.55 293.85 1186.54 291.164 Q1188.53 288.479 1188.53 283.85 Q1188.53 279.243 1186.54 276.558 Q1184.55 273.85 1181.14 273.85 M1181.14 270.239 Q1186.7 270.239 1189.87 273.85 Q1193.04 277.461 1193.04 283.85 Q1193.04 290.215 1189.87 293.85 Q1186.7 297.461 1181.14 297.461 Q1175.56 297.461 1172.39 293.85 Q1169.25 290.215 1169.25 283.85 Q1169.25 277.461 1172.39 273.85 Q1175.56 270.239 1181.14 270.239 Z" fill="#000000" fill-rule="nonzero" fill-opacity="1" /><path clip-path="url(#clip120)" d="M1199.94 270.864 L1204.22 270.864 L1204.22 281.442 L1218.04 281.442 L1218.04 270.864 L1222.32 270.864 L1222.32 296.789 L1218.04 296.789 L1218.04 284.845 L1204.22 284.845 L1204.22 296.789 L1199.94 296.789 L1199.94 270.864 Z" fill="#000000" fill-rule="nonzero" fill-opacity="1" /><path clip-path="url(#clip120)" d="M1253.27 282.762 L1253.27 284.845 L1233.69 284.845 Q1233.97 289.243 1236.33 291.558 Q1238.71 293.85 1242.95 293.85 Q1245.4 293.85 1247.69 293.248 Q1250.01 292.646 1252.28 291.442 L1252.28 295.47 Q1249.99 296.442 1247.58 296.951 Q1245.17 297.461 1242.69 297.461 Q1236.49 297.461 1232.86 293.85 Q1229.24 290.238 1229.24 284.081 Q1229.24 277.715 1232.67 273.989 Q1236.12 270.239 1241.95 270.239 Q1247.18 270.239 1250.22 273.618 Q1253.27 276.975 1253.27 282.762 M1249.01 281.512 Q1248.97 278.016 1247.05 275.933 Q1245.15 273.85 1242 273.85 Q1238.43 273.85 1236.28 275.864 Q1234.15 277.877 1233.83 281.535 L1249.01 281.512 Z" fill="#000000" fill-rule="nonzero" fill-opacity="1" /><path clip-path="url(#clip120)" d="M1260.1 270.864 L1264.38 270.864 L1264.38 281.442 L1278.2 281.442 L1278.2 270.864 L1282.49 270.864 L1282.49 296.789 L1278.2 296.789 L1278.2 284.845 L1264.38 284.845 L1264.38 296.789 L1260.1 296.789 L1260.1 270.864 Z" fill="#000000" fill-rule="nonzero" fill-opacity="1" /><path clip-path="url(#clip120)" d="M1313.48 296.789 L1291.1 296.789 L1291.1 270.864 L1295.38 270.864 L1295.38 293.387 L1309.2 293.387 L1309.2 270.864 L1313.48 270.864 L1313.48 293.387 L1316.88 293.387 L1316.88 303.34 L1313.48 303.34 L1313.48 296.789 Z" fill="#000000" fill-rule="nonzero" fill-opacity="1" /><path clip-path="url(#clip120)" d="M1345.56 270.864 L1345.56 296.789 L1341.33 296.789 L1341.33 275.979 L1328.83 296.789 L1323.36 296.789 L1323.36 270.864 L1327.6 270.864 L1327.6 291.627 L1340.08 270.864 L1345.56 270.864 Z" fill="#000000" fill-rule="nonzero" fill-opacity="1" /><path clip-path="url(#clip120)" d="M1366.12 283.757 Q1360.96 283.757 1358.97 284.938 Q1356.98 286.118 1356.98 288.965 Q1356.98 291.234 1358.46 292.576 Q1359.96 293.896 1362.53 293.896 Q1366.07 293.896 1368.2 291.396 Q1370.36 288.873 1370.36 284.706 L1370.36 283.757 L1366.12 283.757 M1374.61 281.998 L1374.61 296.789 L1370.36 296.789 L1370.36 292.854 Q1368.9 295.215 1366.72 296.35 Q1364.55 297.461 1361.4 297.461 Q1357.42 297.461 1355.05 295.238 Q1352.72 292.993 1352.72 289.243 Q1352.72 284.868 1355.63 282.646 Q1358.57 280.424 1364.38 280.424 L1370.36 280.424 L1370.36 280.007 Q1370.36 277.067 1368.41 275.47 Q1366.49 273.85 1362.99 273.85 Q1360.77 273.85 1358.67 274.382 Q1356.56 274.914 1354.61 275.979 L1354.61 272.044 Q1356.95 271.141 1359.15 270.701 Q1361.35 270.239 1363.43 270.239 Q1369.06 270.239 1371.84 273.155 Q1374.61 276.072 1374.61 281.998 Z" fill="#000000" fill-rule="nonzero" fill-opacity="1" /><path clip-path="url(#clip120)" d="M1380.68 296.789 L1380.68 293.248 Q1384.89 292.6 1386.19 289.683 Q1387.76 285.586 1387.76 275.1 L1387.76 270.864 L1405.29 270.864 L1405.29 296.789 L1401.03 296.789 L1401.03 274.266 L1392.02 274.266 L1392.02 276.836 Q1392.02 286.836 1389.98 291.326 Q1387.81 296.118 1380.68 296.789 Z" fill="#000000" fill-rule="nonzero" fill-opacity="1" /><path clip-path="url(#clip120)" d="M1429.82 289.104 Q1429.82 287.021 1428.29 285.933 Q1426.79 284.845 1423.87 284.845 L1417.81 284.845 L1417.81 293.387 L1423.87 293.387 Q1426.79 293.387 1428.29 292.299 Q1429.82 291.187 1429.82 289.104 M1413.53 270.864 L1417.81 270.864 L1417.81 281.442 L1424.06 281.442 Q1429.01 281.442 1431.67 283.34 Q1434.36 285.215 1434.36 289.104 Q1434.36 292.993 1431.67 294.891 Q1429.01 296.789 1424.06 296.789 L1413.53 296.789 L1413.53 270.864 Z" fill="#000000" fill-rule="nonzero" fill-opacity="1" /><path clip-path="url(#clip120)" d="M1441.47 270.864 L1445.75 270.864 L1445.75 281.442 L1459.57 281.442 L1459.57 270.864 L1463.85 270.864 L1463.85 296.789 L1459.57 296.789 L1459.57 284.845 L1445.75 284.845 L1445.75 296.789 L1441.47 296.789 L1441.47 270.864 Z" fill="#000000" fill-rule="nonzero" fill-opacity="1" /><path clip-path="url(#clip120)" d="M1484.41 283.757 Q1479.24 283.757 1477.25 284.938 Q1475.26 286.118 1475.26 288.965 Q1475.26 291.234 1476.74 292.576 Q1478.25 293.896 1480.82 293.896 Q1484.36 293.896 1486.49 291.396 Q1488.64 288.873 1488.64 284.706 L1488.64 283.757 L1484.41 283.757 M1492.9 281.998 L1492.9 296.789 L1488.64 296.789 L1488.64 292.854 Q1487.18 295.215 1485.01 296.35 Q1482.83 297.461 1479.68 297.461 Q1475.7 297.461 1473.34 295.238 Q1471 292.993 1471 289.243 Q1471 284.868 1473.92 282.646 Q1476.86 280.424 1482.67 280.424 L1488.64 280.424 L1488.64 280.007 Q1488.64 277.067 1486.7 275.47 Q1484.78 273.85 1481.28 273.85 Q1479.06 273.85 1476.95 274.382 Q1474.85 274.914 1472.9 275.979 L1472.9 272.044 Q1475.24 271.141 1477.44 270.701 Q1479.64 270.239 1481.72 270.239 Q1487.35 270.239 1490.12 273.155 Q1492.9 276.072 1492.9 281.998 Z" fill="#000000" fill-rule="nonzero" fill-opacity="1" /><path clip-path="url(#clip120)" d="M1505.96 278.34 Q1505.96 280.262 1507.44 281.35 Q1508.92 282.438 1511.67 282.438 L1517.41 282.438 L1517.41 274.266 L1511.67 274.266 Q1508.92 274.266 1507.44 275.331 Q1505.96 276.396 1505.96 278.34 M1499.89 296.789 L1507.81 285.424 Q1505.12 284.822 1503.34 283.248 Q1501.56 281.651 1501.56 278.34 Q1501.56 274.59 1504.04 272.739 Q1506.54 270.864 1511.56 270.864 L1521.7 270.864 L1521.7 296.789 L1517.41 296.789 L1517.41 285.84 L1512.11 285.84 L1504.47 296.789 L1499.89 296.789 Z" fill="#000000" fill-rule="nonzero" fill-opacity="1" /><path clip-path="url(#clip120)" d="M1567.48 270.864 L1567.48 296.789 L1563.2 296.789 L1563.2 274.266 L1549.38 274.266 L1549.38 296.789 L1545.1 296.789 L1545.1 270.864 L1567.48 270.864 Z" fill="#000000" fill-rule="nonzero" fill-opacity="1" /><path clip-path="url(#clip120)" d="M1573.55 296.789 L1573.55 293.248 Q1577.76 292.6 1579.06 289.683 Q1580.63 285.586 1580.63 275.1 L1580.63 270.864 L1598.16 270.864 L1598.16 296.789 L1593.9 296.789 L1593.9 274.266 L1584.89 274.266 L1584.89 276.836 Q1584.89 286.836 1582.85 291.326 Q1580.68 296.118 1573.55 296.789 Z" fill="#000000" fill-rule="nonzero" fill-opacity="1" /><path clip-path="url(#clip120)" d="M1616.6 273.85 Q1613.18 273.85 1611.19 276.535 Q1609.2 279.197 1609.2 283.85 Q1609.2 288.502 1611.16 291.187 Q1613.15 293.85 1616.6 293.85 Q1620.01 293.85 1622 291.164 Q1623.99 288.479 1623.99 283.85 Q1623.99 279.243 1622 276.558 Q1620.01 273.85 1616.6 273.85 M1616.6 270.239 Q1622.16 270.239 1625.33 273.85 Q1628.5 277.461 1628.5 283.85 Q1628.5 290.215 1625.33 293.85 Q1622.16 297.461 1616.6 297.461 Q1611.03 297.461 1607.85 293.85 Q1604.71 290.215 1604.71 283.85 Q1604.71 277.461 1607.85 273.85 Q1611.03 270.239 1616.6 270.239 Z" fill="#000000" fill-rule="nonzero" fill-opacity="1" /><path clip-path="url(#clip120)" d="M1632.48 270.864 L1657.32 270.864 L1657.32 274.266 L1647 274.266 L1647 296.789 L1642.81 296.789 L1642.81 274.266 L1632.48 274.266 L1632.48 270.864 Z" fill="#000000" fill-rule="nonzero" fill-opacity="1" /><path clip-path="url(#clip120)" d="M1663.02 270.864 L1667.3 270.864 L1667.3 281.442 L1681.12 281.442 L1681.12 270.864 L1685.4 270.864 L1685.4 296.789 L1681.12 296.789 L1681.12 284.845 L1667.3 284.845 L1667.3 296.789 L1663.02 296.789 L1663.02 270.864 Z" fill="#000000" fill-rule="nonzero" fill-opacity="1" /><path clip-path="url(#clip120)" d="M1704.22 273.85 Q1700.79 273.85 1698.8 276.535 Q1696.81 279.197 1696.81 283.85 Q1696.81 288.502 1698.78 291.187 Q1700.77 293.85 1704.22 293.85 Q1707.62 293.85 1709.61 291.164 Q1711.6 288.479 1711.6 283.85 Q1711.6 279.243 1709.61 276.558 Q1707.62 273.85 1704.22 273.85 M1704.22 270.239 Q1709.77 270.239 1712.95 273.85 Q1716.12 277.461 1716.12 283.85 Q1716.12 290.215 1712.95 293.85 Q1709.77 297.461 1704.22 297.461 Q1698.64 297.461 1695.47 293.85 Q1692.32 290.215 1692.32 283.85 Q1692.32 277.461 1695.47 273.85 Q1698.64 270.239 1704.22 270.239 Z" fill="#000000" fill-rule="nonzero" fill-opacity="1" /><path clip-path="url(#clip120)" d="M1741.83 271.859 L1741.83 275.84 Q1740.03 274.845 1738.2 274.359 Q1736.4 273.85 1734.54 273.85 Q1730.4 273.85 1728.11 276.488 Q1725.82 279.104 1725.82 283.85 Q1725.82 288.595 1728.11 291.234 Q1730.4 293.85 1734.54 293.85 Q1736.4 293.85 1738.2 293.363 Q1740.03 292.854 1741.83 291.859 L1741.83 295.794 Q1740.05 296.627 1738.13 297.044 Q1736.23 297.461 1734.08 297.461 Q1728.22 297.461 1724.77 293.78 Q1721.33 290.1 1721.33 283.85 Q1721.33 277.507 1724.8 273.873 Q1728.29 270.239 1734.36 270.239 Q1736.33 270.239 1738.2 270.655 Q1740.08 271.049 1741.83 271.859 Z" fill="#000000" fill-rule="nonzero" fill-opacity="1" /><path clip-path="url(#clip120)" d="M1746.16 270.864 L1771 270.864 L1771 274.266 L1760.68 274.266 L1760.68 296.789 L1756.49 296.789 L1756.49 274.266 L1746.16 274.266 L1746.16 270.864 Z" fill="#000000" fill-rule="nonzero" fill-opacity="1" /><path clip-path="url(#clip120)" d="M1792.99 289.104 Q1792.99 287.021 1791.46 285.933 Q1789.96 284.845 1787.04 284.845 L1780.98 284.845 L1780.98 293.387 L1787.04 293.387 Q1789.96 293.387 1791.46 292.299 Q1792.99 291.187 1792.99 289.104 M1776.7 270.864 L1780.98 270.864 L1780.98 281.442 L1787.23 281.442 Q1792.18 281.442 1794.84 283.34 Q1797.53 285.215 1797.53 289.104 Q1797.53 292.993 1794.84 294.891 Q1792.18 296.789 1787.23 296.789 L1776.7 296.789 L1776.7 270.864 Z" fill="#000000" fill-rule="nonzero" fill-opacity="1" /></svg>
