<?xml version="1.0" encoding="utf-8"?>
<svg xmlns="http://www.w3.org/2000/svg" xmlns:xlink="http://www.w3.org/1999/xlink" width="480" height="384" viewBox="0 0 1920 1536">
<defs>
  <clipPath id="clip030">
    <rect x="0" y="0" width="1920" height="1536"/>
  </clipPath>
</defs>
<path clip-path="url(#clip030)" d="M0 1536 L1920 1536 L1920 0 L0 0  Z" fill="#ffffff" fill-rule="evenodd" fill-opacity="1"/>
<defs>
  <clipPath id="clip031">
    <rect x="254" y="135" width="1620" height="1209"/>
  </clipPath>
</defs>
<path clip-path="url(#clip030)" d="M237.093 1343.4 L1872.76 1343.4 L1872.76 135.568 L237.093 135.568  Z" fill="#ffffff" fill-rule="evenodd" fill-opacity="1"/>
<defs>
  <clipPath id="clip032">
    <rect x="237" y="135" width="1637" height="1209"/>
  </clipPath>
</defs>
<polyline clip-path="url(#clip032)" style="stroke:#000000; stroke-linecap:round; stroke-linejoin:round; stroke-width:2; stroke-opacity:0.1; fill:none" points="283.386,1343.4 283.386,135.568 "/>
<polyline clip-path="url(#clip032)" style="stroke:#000000; stroke-linecap:round; stroke-linejoin:round; stroke-width:2; stroke-opacity:0.1; fill:none" points="604.86,1343.4 604.86,135.568 "/>
<polyline clip-path="url(#clip032)" style="stroke:#000000; stroke-linecap:round; stroke-linejoin:round; stroke-width:2; stroke-opacity:0.1; fill:none" points="926.335,1343.4 926.335,135.568 "/>
<polyline clip-path="url(#clip032)" style="stroke:#000000; stroke-linecap:round; stroke-linejoin:round; stroke-width:2; stroke-opacity:0.1; fill:none" points="1247.81,1343.4 1247.81,135.568 "/>
<polyline clip-path="url(#clip032)" style="stroke:#000000; stroke-linecap:round; stroke-linejoin:round; stroke-width:2; stroke-opacity:0.1; fill:none" points="1569.28,1343.4 1569.28,135.568 "/>
<polyline clip-path="url(#clip032)" style="stroke:#000000; stroke-linecap:round; stroke-linejoin:round; stroke-width:2; stroke-opacity:0.1; fill:none" points="237.093,1309.22 1872.76,1309.22 "/>
<polyline clip-path="url(#clip032)" style="stroke:#000000; stroke-linecap:round; stroke-linejoin:round; stroke-width:2; stroke-opacity:0.1; fill:none" points="237.093,1071.83 1872.76,1071.83 "/>
<polyline clip-path="url(#clip032)" style="stroke:#000000; stroke-linecap:round; stroke-linejoin:round; stroke-width:2; stroke-opacity:0.1; fill:none" points="237.093,834.442 1872.76,834.442 "/>
<polyline clip-path="url(#clip032)" style="stroke:#000000; stroke-linecap:round; stroke-linejoin:round; stroke-width:2; stroke-opacity:0.1; fill:none" points="237.093,597.053 1872.76,597.053 "/>
<polyline clip-path="url(#clip032)" style="stroke:#000000; stroke-linecap:round; stroke-linejoin:round; stroke-width:2; stroke-opacity:0.1; fill:none" points="237.093,359.663 1872.76,359.663 "/>
<polyline clip-path="url(#clip030)" style="stroke:#000000; stroke-linecap:round; stroke-linejoin:round; stroke-width:4; stroke-opacity:1; fill:none" points="237.093,1343.4 1872.76,1343.4 "/>
<polyline clip-path="url(#clip030)" style="stroke:#000000; stroke-linecap:round; stroke-linejoin:round; stroke-width:4; stroke-opacity:1; fill:none" points="283.386,1343.4 283.386,1324.51 "/>
<polyline clip-path="url(#clip030)" style="stroke:#000000; stroke-linecap:round; stroke-linejoin:round; stroke-width:4; stroke-opacity:1; fill:none" points="604.86,1343.4 604.86,1324.51 "/>
<polyline clip-path="url(#clip030)" style="stroke:#000000; stroke-linecap:round; stroke-linejoin:round; stroke-width:4; stroke-opacity:1; fill:none" points="926.335,1343.4 926.335,1324.51 "/>
<polyline clip-path="url(#clip030)" style="stroke:#000000; stroke-linecap:round; stroke-linejoin:round; stroke-width:4; stroke-opacity:1; fill:none" points="1247.81,1343.4 1247.81,1324.51 "/>
<polyline clip-path="url(#clip030)" style="stroke:#000000; stroke-linecap:round; stroke-linejoin:round; stroke-width:4; stroke-opacity:1; fill:none" points="1569.28,1343.4 1569.28,1324.51 "/>
<path clip-path="url(#clip030)" d="M283.386 1370.48 Q279.775 1370.48 277.946 1374.05 Q276.14 1377.59 276.14 1384.72 Q276.14 1391.83 277.946 1395.39 Q279.775 1398.93 283.386 1398.93 Q287.02 1398.93 288.825 1395.39 Q290.654 1391.83 290.654 1384.72 Q290.654 1377.59 288.825 1374.05 Q287.02 1370.48 283.386 1370.48 M283.386 1366.78 Q289.196 1366.78 292.251 1371.39 Q295.33 1375.97 295.33 1384.72 Q295.33 1393.45 292.251 1398.05 Q289.196 1402.64 283.386 1402.64 Q277.576 1402.64 274.497 1398.05 Q271.441 1393.45 271.441 1384.72 Q271.441 1375.97 274.497 1371.39 Q277.576 1366.78 283.386 1366.78 Z" fill="#000000" fill-rule="nonzero" fill-opacity="1" /><path clip-path="url(#clip030)" d="M595.138 1367.4 L613.494 1367.4 L613.494 1371.34 L599.42 1371.34 L599.42 1379.81 Q600.439 1379.46 601.457 1379.3 Q602.476 1379.12 603.495 1379.12 Q609.282 1379.12 612.661 1382.29 Q616.041 1385.46 616.041 1390.88 Q616.041 1396.45 612.569 1399.56 Q609.096 1402.64 602.777 1402.64 Q600.601 1402.64 598.333 1402.26 Q596.087 1401.89 593.68 1401.15 L593.68 1396.45 Q595.763 1397.59 597.985 1398.14 Q600.207 1398.7 602.684 1398.7 Q606.689 1398.7 609.027 1396.59 Q611.365 1394.49 611.365 1390.88 Q611.365 1387.26 609.027 1385.16 Q606.689 1383.05 602.684 1383.05 Q600.809 1383.05 598.934 1383.47 Q597.083 1383.89 595.138 1384.76 L595.138 1367.4 Z" fill="#000000" fill-rule="nonzero" fill-opacity="1" /><path clip-path="url(#clip030)" d="M901.022 1398.03 L908.661 1398.03 L908.661 1371.66 L900.351 1373.33 L900.351 1369.07 L908.615 1367.4 L913.291 1367.4 L913.291 1398.03 L920.93 1398.03 L920.93 1401.96 L901.022 1401.96 L901.022 1398.03 Z" fill="#000000" fill-rule="nonzero" fill-opacity="1" /><path clip-path="url(#clip030)" d="M940.374 1370.48 Q936.763 1370.48 934.934 1374.05 Q933.129 1377.59 933.129 1384.72 Q933.129 1391.83 934.934 1395.39 Q936.763 1398.93 940.374 1398.93 Q944.008 1398.93 945.814 1395.39 Q947.643 1391.83 947.643 1384.72 Q947.643 1377.59 945.814 1374.05 Q944.008 1370.48 940.374 1370.48 M940.374 1366.78 Q946.184 1366.78 949.24 1371.39 Q952.318 1375.97 952.318 1384.72 Q952.318 1393.45 949.24 1398.05 Q946.184 1402.64 940.374 1402.64 Q934.564 1402.64 931.485 1398.05 Q928.43 1393.45 928.43 1384.72 Q928.43 1375.97 931.485 1371.39 Q934.564 1366.78 940.374 1366.78 Z" fill="#000000" fill-rule="nonzero" fill-opacity="1" /><path clip-path="url(#clip030)" d="M1222.99 1398.03 L1230.63 1398.03 L1230.63 1371.66 L1222.32 1373.33 L1222.32 1369.07 L1230.59 1367.4 L1235.26 1367.4 L1235.26 1398.03 L1242.9 1398.03 L1242.9 1401.96 L1222.99 1401.96 L1222.99 1398.03 Z" fill="#000000" fill-rule="nonzero" fill-opacity="1" /><path clip-path="url(#clip030)" d="M1252.39 1367.4 L1270.75 1367.4 L1270.75 1371.34 L1256.68 1371.34 L1256.68 1379.81 Q1257.69 1379.46 1258.71 1379.3 Q1259.73 1379.12 1260.75 1379.12 Q1266.54 1379.12 1269.92 1382.29 Q1273.3 1385.46 1273.3 1390.88 Q1273.3 1396.45 1269.82 1399.56 Q1266.35 1402.64 1260.03 1402.64 Q1257.86 1402.64 1255.59 1402.26 Q1253.34 1401.89 1250.93 1401.15 L1250.93 1396.45 Q1253.02 1397.59 1255.24 1398.14 Q1257.46 1398.7 1259.94 1398.7 Q1263.94 1398.7 1266.28 1396.59 Q1268.62 1394.49 1268.62 1390.88 Q1268.62 1387.26 1266.28 1385.16 Q1263.94 1383.05 1259.94 1383.05 Q1258.06 1383.05 1256.19 1383.47 Q1254.34 1383.89 1252.39 1384.76 L1252.39 1367.4 Z" fill="#000000" fill-rule="nonzero" fill-opacity="1" /><path clip-path="url(#clip030)" d="M1548.06 1398.03 L1564.38 1398.03 L1564.38 1401.96 L1542.43 1401.96 L1542.43 1398.03 Q1545.09 1395.27 1549.68 1390.64 Q1554.28 1385.99 1555.46 1384.65 Q1557.71 1382.13 1558.59 1380.39 Q1559.49 1378.63 1559.49 1376.94 Q1559.49 1374.19 1557.55 1372.45 Q1555.63 1370.71 1552.52 1370.71 Q1550.33 1370.71 1547.87 1371.48 Q1545.44 1372.24 1542.66 1373.79 L1542.66 1369.07 Q1545.49 1367.94 1547.94 1367.36 Q1550.4 1366.78 1552.43 1366.78 Q1557.8 1366.78 1561 1369.46 Q1564.19 1372.15 1564.19 1376.64 Q1564.19 1378.77 1563.38 1380.69 Q1562.59 1382.59 1560.49 1385.18 Q1559.91 1385.85 1556.81 1389.07 Q1553.71 1392.26 1548.06 1398.03 Z" fill="#000000" fill-rule="nonzero" fill-opacity="1" /><path clip-path="url(#clip030)" d="M1584.19 1370.48 Q1580.58 1370.48 1578.75 1374.05 Q1576.95 1377.59 1576.95 1384.72 Q1576.95 1391.83 1578.75 1395.39 Q1580.58 1398.93 1584.19 1398.93 Q1587.83 1398.93 1589.63 1395.39 Q1591.46 1391.83 1591.46 1384.72 Q1591.46 1377.59 1589.63 1374.05 Q1587.83 1370.48 1584.19 1370.48 M1584.19 1366.78 Q1590 1366.78 1593.06 1371.39 Q1596.14 1375.97 1596.14 1384.72 Q1596.14 1393.45 1593.06 1398.05 Q1590 1402.64 1584.19 1402.64 Q1578.38 1402.64 1575.3 1398.05 Q1572.25 1393.45 1572.25 1384.72 Q1572.25 1375.97 1575.3 1371.39 Q1578.38 1366.78 1584.19 1366.78 Z" fill="#000000" fill-rule="nonzero" fill-opacity="1" /><path clip-path="url(#clip030)" d="M905.012 1458.37 L905.012 1475.78 L915.325 1475.78 Q920.513 1475.78 922.995 1473.65 Q925.51 1471.49 925.51 1467.06 Q925.51 1462.61 922.995 1460.51 Q920.513 1458.37 915.325 1458.37 L905.012 1458.37 M905.012 1438.83 L905.012 1453.15 L914.529 1453.15 Q919.24 1453.15 921.531 1451.4 Q923.855 1449.62 923.855 1445.99 Q923.855 1442.4 921.531 1440.61 Q919.24 1438.83 914.529 1438.83 L905.012 1438.83 M898.583 1433.55 L915.006 1433.55 Q922.359 1433.55 926.337 1436.6 Q930.316 1439.66 930.316 1445.29 Q930.316 1449.65 928.279 1452.23 Q926.242 1454.81 922.295 1455.45 Q927.038 1456.46 929.648 1459.71 Q932.289 1462.93 932.289 1467.76 Q932.289 1474.13 927.961 1477.6 Q923.632 1481.07 915.643 1481.07 L898.583 1481.07 L898.583 1433.55 Z" fill="#000000" fill-rule="nonzero" fill-opacity="1" /><path clip-path="url(#clip030)" d="M948.713 1475.72 L948.713 1494.63 L942.825 1494.63 L942.825 1445.42 L948.713 1445.42 L948.713 1450.83 Q950.559 1447.65 953.36 1446.12 Q956.193 1444.56 960.107 1444.56 Q966.6 1444.56 970.643 1449.72 Q974.717 1454.87 974.717 1463.28 Q974.717 1471.68 970.643 1476.83 Q966.6 1481.99 960.107 1481.99 Q956.193 1481.99 953.36 1480.46 Q950.559 1478.9 948.713 1475.72 M968.637 1463.28 Q968.637 1456.81 965.964 1453.15 Q963.322 1449.46 958.675 1449.46 Q954.028 1449.46 951.355 1453.15 Q948.713 1456.81 948.713 1463.28 Q948.713 1469.74 951.355 1473.43 Q954.028 1477.09 958.675 1477.09 Q963.322 1477.09 965.964 1473.43 Q968.637 1469.74 968.637 1463.28 Z" fill="#000000" fill-rule="nonzero" fill-opacity="1" /><path clip-path="url(#clip030)" d="M1014.92 1461.78 L1014.92 1464.64 L987.989 1464.64 Q988.371 1470.69 991.618 1473.87 Q994.896 1477.03 1000.72 1477.03 Q1004.09 1477.03 1007.25 1476.2 Q1010.43 1475.37 1013.55 1473.72 L1013.55 1479.25 Q1010.4 1480.59 1007.09 1481.29 Q1003.78 1481.99 1000.37 1481.99 Q991.84 1481.99 986.843 1477.03 Q981.878 1472.06 981.878 1463.59 Q981.878 1454.84 986.589 1449.72 Q991.331 1444.56 999.352 1444.56 Q1006.55 1444.56 1010.71 1449.21 Q1014.92 1453.82 1014.92 1461.78 M1009.06 1460.06 Q1009 1455.25 1006.35 1452.39 Q1003.74 1449.53 999.416 1449.53 Q994.514 1449.53 991.554 1452.29 Q988.626 1455.06 988.18 1460.09 L1009.06 1460.06 Z" fill="#000000" fill-rule="nonzero" fill-opacity="1" /><path clip-path="url(#clip030)" d="M1024.31 1445.42 L1032.87 1445.42 L1042.99 1469.29 L1053.14 1445.42 L1061.64 1445.42 L1061.64 1481.07 L1055.75 1481.07 L1055.75 1451.02 L1045.92 1474.22 L1040.06 1474.22 L1030.19 1451.02 L1030.19 1481.07 L1024.31 1481.07 L1024.31 1445.42 Z" fill="#000000" fill-rule="nonzero" fill-opacity="1" /><path clip-path="url(#clip030)" d="M1079.59 1455.7 Q1079.59 1458.34 1081.63 1459.84 Q1083.67 1461.33 1087.45 1461.33 L1095.35 1461.33 L1095.35 1450.1 L1087.45 1450.1 Q1083.67 1450.1 1081.63 1451.56 Q1079.59 1453.03 1079.59 1455.7 M1071.25 1481.07 L1082.14 1465.44 Q1078.45 1464.61 1076 1462.45 Q1073.54 1460.25 1073.54 1455.7 Q1073.54 1450.54 1076.95 1448 Q1080.39 1445.42 1087.29 1445.42 L1101.24 1445.42 L1101.24 1481.07 L1095.35 1481.07 L1095.35 1466.01 L1088.06 1466.01 L1077.55 1481.07 L1071.25 1481.07 Z" fill="#000000" fill-rule="nonzero" fill-opacity="1" /><path clip-path="url(#clip030)" d="M1147.7 1431.61 Q1143.44 1438.93 1141.37 1446.09 Q1139.3 1453.25 1139.3 1460.6 Q1139.3 1467.95 1141.37 1475.18 Q1143.47 1482.37 1147.7 1489.66 L1142.61 1489.66 Q1137.84 1482.18 1135.45 1474.96 Q1133.1 1467.73 1133.1 1460.6 Q1133.1 1453.5 1135.45 1446.31 Q1137.81 1439.12 1142.61 1431.61 L1147.7 1431.61 Z" fill="#000000" fill-rule="nonzero" fill-opacity="1" /><path clip-path="url(#clip030)" d="M1179.66 1481.07 L1179.66 1466.08 L1168.74 1466.08 Q1163.87 1466.08 1160.63 1463.05 Q1157.7 1460.32 1157.7 1454.46 L1157.7 1445.42 L1163.56 1445.42 L1163.56 1453.92 Q1163.56 1457.64 1165.21 1459.52 Q1166.9 1461.4 1170.21 1461.4 L1179.66 1461.4 L1179.66 1445.42 L1185.52 1445.42 L1185.52 1481.07 L1179.66 1481.07 Z" fill="#000000" fill-rule="nonzero" fill-opacity="1" /><path clip-path="url(#clip030)" d="M1196.66 1431.61 L1201.75 1431.61 Q1206.52 1439.12 1208.88 1446.31 Q1211.27 1453.5 1211.27 1460.6 Q1211.27 1467.73 1208.88 1474.96 Q1206.52 1482.18 1201.75 1489.66 L1196.66 1489.66 Q1200.89 1482.37 1202.96 1475.18 Q1205.06 1467.95 1205.06 1460.6 Q1205.06 1453.25 1202.96 1446.09 Q1200.89 1438.93 1196.66 1431.61 Z" fill="#000000" fill-rule="nonzero" fill-opacity="1" /><polyline clip-path="url(#clip030)" style="stroke:#000000; stroke-linecap:round; stroke-linejoin:round; stroke-width:4; stroke-opacity:1; fill:none" points="237.093,1343.4 237.093,135.568 "/>
<polyline clip-path="url(#clip030)" style="stroke:#000000; stroke-linecap:round; stroke-linejoin:round; stroke-width:4; stroke-opacity:1; fill:none" points="237.093,1309.22 255.991,1309.22 "/>
<polyline clip-path="url(#clip030)" style="stroke:#000000; stroke-linecap:round; stroke-linejoin:round; stroke-width:4; stroke-opacity:1; fill:none" points="237.093,1071.83 255.991,1071.83 "/>
<polyline clip-path="url(#clip030)" style="stroke:#000000; stroke-linecap:round; stroke-linejoin:round; stroke-width:4; stroke-opacity:1; fill:none" points="237.093,834.442 255.991,834.442 "/>
<polyline clip-path="url(#clip030)" style="stroke:#000000; stroke-linecap:round; stroke-linejoin:round; stroke-width:4; stroke-opacity:1; fill:none" points="237.093,597.053 255.991,597.053 "/>
<polyline clip-path="url(#clip030)" style="stroke:#000000; stroke-linecap:round; stroke-linejoin:round; stroke-width:4; stroke-opacity:1; fill:none" points="237.093,359.663 255.991,359.663 "/>
<path clip-path="url(#clip030)" d="M196.349 1295.02 Q192.738 1295.02 190.909 1298.58 Q189.104 1302.12 189.104 1309.25 Q189.104 1316.36 190.909 1319.93 Q192.738 1323.47 196.349 1323.47 Q199.983 1323.47 201.789 1319.93 Q203.617 1316.36 203.617 1309.25 Q203.617 1302.12 201.789 1298.58 Q199.983 1295.02 196.349 1295.02 M196.349 1291.31 Q202.159 1291.31 205.215 1295.92 Q208.293 1300.5 208.293 1309.25 Q208.293 1317.98 205.215 1322.59 Q202.159 1327.17 196.349 1327.17 Q190.539 1327.17 187.46 1322.59 Q184.405 1317.98 184.405 1309.25 Q184.405 1300.5 187.46 1295.92 Q190.539 1291.31 196.349 1291.31 Z" fill="#000000" fill-rule="nonzero" fill-opacity="1" /><path clip-path="url(#clip030)" d="M161.21 1085.18 L177.53 1085.18 L177.53 1089.11 L155.585 1089.11 L155.585 1085.18 Q158.247 1082.42 162.831 1077.79 Q167.437 1073.14 168.618 1071.8 Q170.863 1069.27 171.743 1067.54 Q172.645 1065.78 172.645 1064.09 Q172.645 1061.33 170.701 1059.6 Q168.78 1057.86 165.678 1057.86 Q163.479 1057.86 161.025 1058.62 Q158.595 1059.39 155.817 1060.94 L155.817 1056.22 Q158.641 1055.08 161.095 1054.5 Q163.548 1053.93 165.585 1053.93 Q170.956 1053.93 174.15 1056.61 Q177.344 1059.3 177.344 1063.79 Q177.344 1065.92 176.534 1067.84 Q175.747 1069.74 173.641 1072.33 Q173.062 1073 169.96 1076.22 Q166.858 1079.41 161.21 1085.18 Z" fill="#000000" fill-rule="nonzero" fill-opacity="1" /><path clip-path="url(#clip030)" d="M187.391 1054.55 L205.747 1054.55 L205.747 1058.49 L191.673 1058.49 L191.673 1066.96 Q192.692 1066.61 193.71 1066.45 Q194.729 1066.26 195.747 1066.26 Q201.534 1066.26 204.914 1069.43 Q208.293 1072.61 208.293 1078.02 Q208.293 1083.6 204.821 1086.7 Q201.349 1089.78 195.03 1089.78 Q192.854 1089.78 190.585 1089.41 Q188.34 1089.04 185.932 1088.3 L185.932 1083.6 Q188.016 1084.74 190.238 1085.29 Q192.46 1085.85 194.937 1085.85 Q198.942 1085.85 201.279 1083.74 Q203.617 1081.63 203.617 1078.02 Q203.617 1074.41 201.279 1072.31 Q198.942 1070.2 194.937 1070.2 Q193.062 1070.2 191.187 1070.62 Q189.335 1071.03 187.391 1071.91 L187.391 1054.55 Z" fill="#000000" fill-rule="nonzero" fill-opacity="1" /><path clip-path="url(#clip030)" d="M156.233 817.162 L174.59 817.162 L174.59 821.097 L160.516 821.097 L160.516 829.569 Q161.534 829.222 162.553 829.06 Q163.571 828.875 164.59 828.875 Q170.377 828.875 173.756 832.046 Q177.136 835.217 177.136 840.634 Q177.136 846.212 173.664 849.314 Q170.192 852.393 163.872 852.393 Q161.696 852.393 159.428 852.023 Q157.183 851.652 154.775 850.911 L154.775 846.212 Q156.858 847.347 159.081 847.902 Q161.303 848.458 163.78 848.458 Q167.784 848.458 170.122 846.351 Q172.46 844.245 172.46 840.634 Q172.46 837.023 170.122 834.916 Q167.784 832.81 163.78 832.81 Q161.905 832.81 160.03 833.226 Q158.178 833.643 156.233 834.523 L156.233 817.162 Z" fill="#000000" fill-rule="nonzero" fill-opacity="1" /><path clip-path="url(#clip030)" d="M196.349 820.24 Q192.738 820.24 190.909 823.805 Q189.104 827.347 189.104 834.476 Q189.104 841.583 190.909 845.148 Q192.738 848.689 196.349 848.689 Q199.983 848.689 201.789 845.148 Q203.617 841.583 203.617 834.476 Q203.617 827.347 201.789 823.805 Q199.983 820.24 196.349 820.24 M196.349 816.537 Q202.159 816.537 205.215 821.143 Q208.293 825.726 208.293 834.476 Q208.293 843.203 205.215 847.81 Q202.159 852.393 196.349 852.393 Q190.539 852.393 187.46 847.81 Q184.405 843.203 184.405 834.476 Q184.405 825.726 187.46 821.143 Q190.539 816.537 196.349 816.537 Z" fill="#000000" fill-rule="nonzero" fill-opacity="1" /><path clip-path="url(#clip030)" d="M156.002 579.773 L178.224 579.773 L178.224 581.763 L165.678 614.333 L160.794 614.333 L172.599 583.708 L156.002 583.708 L156.002 579.773 Z" fill="#000000" fill-rule="nonzero" fill-opacity="1" /><path clip-path="url(#clip030)" d="M187.391 579.773 L205.747 579.773 L205.747 583.708 L191.673 583.708 L191.673 592.18 Q192.692 591.833 193.71 591.671 Q194.729 591.485 195.747 591.485 Q201.534 591.485 204.914 594.657 Q208.293 597.828 208.293 603.245 Q208.293 608.823 204.821 611.925 Q201.349 615.004 195.03 615.004 Q192.854 615.004 190.585 614.633 Q188.34 614.263 185.932 613.522 L185.932 608.823 Q188.016 609.958 190.238 610.513 Q192.46 611.069 194.937 611.069 Q198.942 611.069 201.279 608.962 Q203.617 606.856 203.617 603.245 Q203.617 599.634 201.279 597.527 Q198.942 595.421 194.937 595.421 Q193.062 595.421 191.187 595.837 Q189.335 596.254 187.391 597.134 L187.391 579.773 Z" fill="#000000" fill-rule="nonzero" fill-opacity="1" /><path clip-path="url(#clip030)" d="M126.835 373.008 L134.474 373.008 L134.474 346.643 L126.164 348.309 L126.164 344.05 L134.428 342.383 L139.104 342.383 L139.104 373.008 L146.743 373.008 L146.743 376.943 L126.835 376.943 L126.835 373.008 Z" fill="#000000" fill-rule="nonzero" fill-opacity="1" /><path clip-path="url(#clip030)" d="M166.187 345.462 Q162.576 345.462 160.747 349.027 Q158.942 352.569 158.942 359.698 Q158.942 366.805 160.747 370.369 Q162.576 373.911 166.187 373.911 Q169.821 373.911 171.627 370.369 Q173.456 366.805 173.456 359.698 Q173.456 352.569 171.627 349.027 Q169.821 345.462 166.187 345.462 M166.187 341.758 Q171.997 341.758 175.053 346.365 Q178.131 350.948 178.131 359.698 Q178.131 368.425 175.053 373.031 Q171.997 377.615 166.187 377.615 Q160.377 377.615 157.298 373.031 Q154.243 368.425 154.243 359.698 Q154.243 350.948 157.298 346.365 Q160.377 341.758 166.187 341.758 Z" fill="#000000" fill-rule="nonzero" fill-opacity="1" /><path clip-path="url(#clip030)" d="M196.349 345.462 Q192.738 345.462 190.909 349.027 Q189.104 352.569 189.104 359.698 Q189.104 366.805 190.909 370.369 Q192.738 373.911 196.349 373.911 Q199.983 373.911 201.789 370.369 Q203.617 366.805 203.617 359.698 Q203.617 352.569 201.789 349.027 Q199.983 345.462 196.349 345.462 M196.349 341.758 Q202.159 341.758 205.215 346.365 Q208.293 350.948 208.293 359.698 Q208.293 368.425 205.215 373.031 Q202.159 377.615 196.349 377.615 Q190.539 377.615 187.46 373.031 Q184.405 368.425 184.405 359.698 Q184.405 350.948 187.46 346.365 Q190.539 341.758 196.349 341.758 Z" fill="#000000" fill-rule="nonzero" fill-opacity="1" /><path clip-path="url(#clip030)" d="M35.5882 1162.58 L35.5882 1156.15 L55.0672 1156.15 L55.0672 1132.79 L35.5882 1132.79 L35.5882 1126.36 L83.1082 1126.36 L83.1082 1132.79 L60.4781 1132.79 L60.4781 1156.15 L83.1082 1156.15 L83.1082 1162.58 L35.5882 1162.58 Z" fill="#000000" fill-rule="nonzero" fill-opacity="1" /><path clip-path="url(#clip030)" d="M65.1887 1097.62 Q65.1887 1104.72 66.8119 1107.46 Q68.4352 1110.19 72.3501 1110.19 Q75.4693 1110.19 77.3154 1108.16 Q79.1296 1106.09 79.1296 1102.55 Q79.1296 1097.68 75.6921 1094.76 Q72.2228 1091.8 66.4937 1091.8 L65.1887 1091.8 L65.1887 1097.62 M62.7697 1085.94 L83.1082 1085.94 L83.1082 1091.8 L77.6973 1091.8 Q80.9438 1093.8 82.5034 1096.79 Q84.0312 1099.78 84.0312 1104.11 Q84.0312 1109.59 80.9756 1112.83 Q77.8883 1116.05 72.7321 1116.05 Q66.7165 1116.05 63.6609 1112.04 Q60.6054 1108 60.6054 1100.01 L60.6054 1091.8 L60.0325 1091.8 Q55.9902 1091.8 53.7941 1094.47 Q51.5661 1097.11 51.5661 1101.92 Q51.5661 1104.97 52.2981 1107.87 Q53.0302 1110.77 54.4943 1113.44 L49.0835 1113.44 Q47.8421 1110.22 47.2374 1107.2 Q46.6008 1104.18 46.6008 1101.31 Q46.6008 1093.58 50.6112 1089.76 Q54.6216 1085.94 62.7697 1085.94 Z" fill="#000000" fill-rule="nonzero" fill-opacity="1" /><path clip-path="url(#clip030)" d="M47.4602 1074.1 L47.4602 1068.27 L64.202 1068.27 L47.4602 1051.76 L47.4602 1044.56 L61.242 1058.19 L83.1082 1042.81 L83.1082 1049.37 L65.125 1062 L71.4907 1068.27 L83.1082 1068.27 L83.1082 1074.1 L47.4602 1074.1 Z" fill="#000000" fill-rule="nonzero" fill-opacity="1" /><path clip-path="url(#clip030)" d="M51.5661 1020.69 Q51.5661 1025.4 55.2582 1028.14 Q58.9185 1030.88 65.316 1030.88 Q71.7135 1030.88 75.4057 1028.17 Q79.0659 1025.43 79.0659 1020.69 Q79.0659 1016.01 75.3738 1013.28 Q71.6817 1010.54 65.316 1010.54 Q58.9821 1010.54 55.29 1013.28 Q51.5661 1016.01 51.5661 1020.69 M46.6008 1020.69 Q46.6008 1013.05 51.5661 1008.69 Q56.5313 1004.33 65.316 1004.33 Q74.0689 1004.33 79.0659 1008.69 Q84.0312 1013.05 84.0312 1020.69 Q84.0312 1028.36 79.0659 1032.72 Q74.0689 1037.05 65.316 1037.05 Q56.5313 1037.05 51.5661 1032.72 Q46.6008 1028.36 46.6008 1020.69 Z" fill="#000000" fill-rule="nonzero" fill-opacity="1" /><path clip-path="url(#clip030)" d="M47.4602 964.068 L83.1082 964.068 L83.1082 969.956 L52.139 969.956 L52.139 988.958 L83.1082 988.958 L83.1082 994.846 L47.4602 994.846 L47.4602 964.068 Z" fill="#000000" fill-rule="nonzero" fill-opacity="1" /><path clip-path="url(#clip030)" d="M83.1082 955.729 L78.2384 955.729 Q77.3472 949.936 73.3368 948.154 Q67.7031 945.99 53.2848 945.99 L47.4602 945.99 L47.4602 921.895 L83.1082 921.895 L83.1082 927.752 L52.139 927.752 L52.139 940.133 L55.672 940.133 Q69.4219 940.133 75.5966 942.934 Q82.1851 945.926 83.1082 955.729 Z" fill="#000000" fill-rule="nonzero" fill-opacity="1" /><path clip-path="url(#clip030)" d="M63.8201 879.85 L66.6846 879.85 L66.6846 906.777 Q72.7321 906.395 75.9149 903.148 Q79.0659 899.87 79.0659 894.045 Q79.0659 890.672 78.2384 887.52 Q77.4109 884.338 75.7558 881.218 L81.2939 881.218 Q82.6307 884.369 83.331 887.68 Q84.0312 890.99 84.0312 894.395 Q84.0312 902.926 79.0659 907.923 Q74.1007 912.888 65.6343 912.888 Q56.8814 912.888 51.7571 908.177 Q46.6008 903.435 46.6008 895.414 Q46.6008 888.221 51.2478 884.051 Q55.8629 879.85 63.8201 879.85 M62.1013 885.706 Q57.2952 885.77 54.4306 888.412 Q51.5661 891.022 51.5661 895.35 Q51.5661 900.252 54.3352 903.212 Q57.1042 906.14 62.1332 906.586 L62.1013 885.706 Z" fill="#000000" fill-rule="nonzero" fill-opacity="1" /><path clip-path="url(#clip030)" d="M47.4602 870.46 L47.4602 864.572 L62.0058 864.572 L62.0058 845.57 L47.4602 845.57 L47.4602 839.682 L83.1082 839.682 L83.1082 845.57 L66.6846 845.57 L66.6846 864.572 L83.1082 864.572 L83.1082 870.46 L47.4602 870.46 Z" fill="#000000" fill-rule="nonzero" fill-opacity="1" /><path clip-path="url(#clip030)" d="M47.4602 827.842 L47.4602 821.954 L62.0058 821.954 L62.0058 802.952 L47.4602 802.952 L47.4602 797.064 L83.1082 797.064 L83.1082 802.952 L66.6846 802.952 L66.6846 821.954 L83.1082 821.954 L83.1082 827.842 L47.4602 827.842 Z" fill="#000000" fill-rule="nonzero" fill-opacity="1" /><path clip-path="url(#clip030)" d="M51.5661 771.187 Q51.5661 775.898 55.2582 778.635 Q58.9185 781.372 65.316 781.372 Q71.7135 781.372 75.4057 778.667 Q79.0659 775.93 79.0659 771.187 Q79.0659 766.508 75.3738 763.771 Q71.6817 761.034 65.316 761.034 Q58.9821 761.034 55.29 763.771 Q51.5661 766.508 51.5661 771.187 M46.6008 771.187 Q46.6008 763.548 51.5661 759.188 Q56.5313 754.827 65.316 754.827 Q74.0689 754.827 79.0659 759.188 Q84.0312 763.548 84.0312 771.187 Q84.0312 778.858 79.0659 783.218 Q74.0689 787.547 65.316 787.547 Q56.5313 787.547 51.5661 783.218 Q46.6008 778.858 46.6008 771.187 Z" fill="#000000" fill-rule="nonzero" fill-opacity="1" /><path clip-path="url(#clip030)" d="M63.8201 714.628 L66.6846 714.628 L66.6846 741.555 Q72.7321 741.173 75.9149 737.926 Q79.0659 734.648 79.0659 728.823 Q79.0659 725.45 78.2384 722.299 Q77.4109 719.116 75.7558 715.997 L81.2939 715.997 Q82.6307 719.148 83.331 722.458 Q84.0312 725.768 84.0312 729.174 Q84.0312 737.704 79.0659 742.701 Q74.1007 747.666 65.6343 747.666 Q56.8814 747.666 51.7571 742.955 Q46.6008 738.213 46.6008 730.192 Q46.6008 722.999 51.2478 718.829 Q55.8629 714.628 63.8201 714.628 M62.1013 720.484 Q57.2952 720.548 54.4306 723.19 Q51.5661 725.8 51.5661 730.128 Q51.5661 735.03 54.3352 737.99 Q57.1042 740.918 62.1332 741.364 L62.1013 720.484 Z" fill="#000000" fill-rule="nonzero" fill-opacity="1" /><path clip-path="url(#clip030)" d="M83.1082 663.702 L68.1169 663.702 L68.1169 674.619 Q68.1169 679.489 65.0932 682.736 Q62.356 685.664 56.4995 685.664 L47.4602 685.664 L47.4602 679.807 L55.9584 679.807 Q59.6824 679.807 61.5602 678.152 Q63.4381 676.465 63.4381 673.155 L63.4381 663.702 L47.4602 663.702 L47.4602 657.846 L83.1082 657.846 L83.1082 663.702 Z" fill="#000000" fill-rule="nonzero" fill-opacity="1" /><path clip-path="url(#clip030)" d="M47.4602 615.482 L83.1082 615.482 L83.1082 621.307 L54.4943 621.307 L83.1082 638.494 L83.1082 646.006 L47.4602 646.006 L47.4602 640.181 L76.0104 640.181 L47.4602 623.025 L47.4602 615.482 Z" fill="#000000" fill-rule="nonzero" fill-opacity="1" /><path clip-path="url(#clip030)" d="M48.8288 577.765 L54.3033 577.765 Q52.9347 580.248 52.2663 582.762 Q51.5661 585.245 51.5661 587.791 Q51.5661 593.489 55.1945 596.64 Q58.7912 599.791 65.316 599.791 Q71.8409 599.791 75.4693 596.64 Q79.0659 593.489 79.0659 587.791 Q79.0659 585.245 78.3975 582.762 Q77.6973 580.248 76.3287 577.765 L81.7395 577.765 Q82.8854 580.216 83.4583 582.858 Q84.0312 585.468 84.0312 588.428 Q84.0312 596.48 78.9704 601.223 Q73.9097 605.965 65.316 605.965 Q56.595 605.965 51.5979 601.191 Q46.6008 596.385 46.6008 588.046 Q46.6008 585.34 47.1737 582.762 Q47.7148 580.184 48.8288 577.765 Z" fill="#000000" fill-rule="nonzero" fill-opacity="1" /><path clip-path="url(#clip030)" d="M83.1082 571.304 L78.2384 571.304 Q77.3472 565.511 73.3368 563.729 Q67.7031 561.564 53.2848 561.564 L47.4602 561.564 L47.4602 537.47 L83.1082 537.47 L83.1082 543.327 L52.139 543.327 L52.139 555.708 L55.672 555.708 Q69.4219 555.708 75.5966 558.509 Q82.1851 561.501 83.1082 571.304 Z" fill="#000000" fill-rule="nonzero" fill-opacity="1" /><path clip-path="url(#clip030)" d="M51.5661 512.103 Q51.5661 516.814 55.2582 519.551 Q58.9185 522.288 65.316 522.288 Q71.7135 522.288 75.4057 519.583 Q79.0659 516.845 79.0659 512.103 Q79.0659 507.424 75.3738 504.687 Q71.6817 501.95 65.316 501.95 Q58.9821 501.95 55.29 504.687 Q51.5661 507.424 51.5661 512.103 M46.6008 512.103 Q46.6008 504.464 51.5661 500.104 Q56.5313 495.743 65.316 495.743 Q74.0689 495.743 79.0659 500.104 Q84.0312 504.464 84.0312 512.103 Q84.0312 519.774 79.0659 524.134 Q74.0689 528.463 65.316 528.463 Q56.5313 528.463 51.5661 524.134 Q46.6008 519.774 46.6008 512.103 Z" fill="#000000" fill-rule="nonzero" fill-opacity="1" /><path clip-path="url(#clip030)" d="M65.1887 449.114 Q65.1887 456.212 66.8119 458.949 Q68.4352 461.687 72.3501 461.687 Q75.4693 461.687 77.3154 459.65 Q79.1296 457.581 79.1296 454.048 Q79.1296 449.178 75.6921 446.25 Q72.2228 443.29 66.4937 443.29 L65.1887 443.29 L65.1887 449.114 M62.7697 437.433 L83.1082 437.433 L83.1082 443.29 L77.6973 443.29 Q80.9438 445.295 82.5034 448.287 Q84.0312 451.279 84.0312 455.607 Q84.0312 461.082 80.9756 464.328 Q77.8883 467.543 72.7321 467.543 Q66.7165 467.543 63.6609 463.533 Q60.6054 459.49 60.6054 451.501 L60.6054 443.29 L60.0325 443.29 Q55.9902 443.29 53.7941 445.963 Q51.5661 448.605 51.5661 453.411 Q51.5661 456.467 52.2981 459.363 Q53.0302 462.259 54.4943 464.933 L49.0835 464.933 Q47.8421 461.718 47.2374 458.695 Q46.6008 455.671 46.6008 452.806 Q46.6008 445.072 50.6112 441.253 Q54.6216 437.433 62.7697 437.433 Z" fill="#000000" fill-rule="nonzero" fill-opacity="1" /><path clip-path="url(#clip030)" d="M47.4602 429.603 L47.4602 395.451 L52.139 395.451 L52.139 409.647 L83.1082 409.647 L83.1082 415.408 L52.139 415.408 L52.139 429.603 L47.4602 429.603 Z" fill="#000000" fill-rule="nonzero" fill-opacity="1" /><path clip-path="url(#clip030)" d="M65.1887 371.198 Q65.1887 378.296 66.8119 381.033 Q68.4352 383.77 72.3501 383.77 Q75.4693 383.77 77.3154 381.733 Q79.1296 379.664 79.1296 376.131 Q79.1296 371.262 75.6921 368.333 Q72.2228 365.373 66.4937 365.373 L65.1887 365.373 L65.1887 371.198 M62.7697 359.517 L83.1082 359.517 L83.1082 365.373 L77.6973 365.373 Q80.9438 367.379 82.5034 370.37 Q84.0312 373.362 84.0312 377.691 Q84.0312 383.166 80.9756 386.412 Q77.8883 389.627 72.7321 389.627 Q66.7165 389.627 63.6609 385.616 Q60.6054 381.574 60.6054 373.585 L60.6054 365.373 L60.0325 365.373 Q55.9902 365.373 53.7941 368.047 Q51.5661 370.689 51.5661 375.495 Q51.5661 378.55 52.2981 381.447 Q53.0302 384.343 54.4943 387.017 L49.0835 387.017 Q47.8421 383.802 47.2374 380.778 Q46.6008 377.755 46.6008 374.89 Q46.6008 367.156 50.6112 363.336 Q54.6216 359.517 62.7697 359.517 Z" fill="#000000" fill-rule="nonzero" fill-opacity="1" /><path clip-path="url(#clip030)" d="M47.4602 347.677 L47.4602 341.852 L64.202 341.852 L47.4602 325.333 L47.4602 318.14 L61.242 331.762 L83.1082 316.389 L83.1082 322.946 L65.125 335.582 L71.4907 341.852 L83.1082 341.852 L83.1082 347.677 L47.4602 347.677 Z" fill="#000000" fill-rule="nonzero" fill-opacity="1" /><path clip-path="url(#clip030)" d="M145.456 12.096 L153.639 12.096 L153.639 36.8875 L183.373 36.8875 L183.373 12.096 L191.555 12.096 L191.555 72.576 L183.373 72.576 L183.373 43.7741 L153.639 43.7741 L153.639 72.576 L145.456 72.576 L145.456 12.096 Z" fill="#000000" fill-rule="nonzero" fill-opacity="1" /><path clip-path="url(#clip030)" d="M228.135 49.7694 Q219.102 49.7694 215.618 51.8354 Q212.134 53.9013 212.134 58.8839 Q212.134 62.8538 214.727 65.2034 Q217.36 67.5124 221.856 67.5124 Q228.054 67.5124 231.781 63.1374 Q235.548 58.7219 235.548 51.4303 L235.548 49.7694 L228.135 49.7694 M243.002 46.6907 L243.002 72.576 L235.548 72.576 L235.548 65.6895 Q232.996 69.8214 229.188 71.8063 Q225.38 73.7508 219.871 73.7508 Q212.904 73.7508 208.772 69.8619 Q204.68 65.9325 204.68 59.3701 Q204.68 51.7138 209.784 47.825 Q214.929 43.9361 225.097 43.9361 L235.548 43.9361 L235.548 43.2069 Q235.548 38.0623 232.145 35.2672 Q228.783 32.4315 222.666 32.4315 Q218.777 32.4315 215.091 33.3632 Q211.405 34.295 208.002 36.1584 L208.002 29.2718 Q212.093 27.692 215.942 26.9223 Q219.79 26.1121 223.436 26.1121 Q233.28 26.1121 238.141 31.2163 Q243.002 36.3204 243.002 46.6907 Z" fill="#000000" fill-rule="nonzero" fill-opacity="1" /><path clip-path="url(#clip030)" d="M258.071 27.2059 L265.484 27.2059 L265.484 48.5136 L286.509 27.2059 L295.664 27.2059 L278.326 44.7463 L297.892 72.576 L289.547 72.576 L273.465 49.6884 L265.484 57.7902 L265.484 72.576 L258.071 72.576 L258.071 27.2059 Z" fill="#000000" fill-rule="nonzero" fill-opacity="1" /><path clip-path="url(#clip030)" d="M326.045 32.4315 Q320.05 32.4315 316.566 37.1306 Q313.083 41.7891 313.083 49.9314 Q313.083 58.0738 316.526 62.7728 Q320.01 67.4314 326.045 67.4314 Q332 67.4314 335.484 62.7323 Q338.968 58.0333 338.968 49.9314 Q338.968 41.8701 335.484 37.1711 Q332 32.4315 326.045 32.4315 M326.045 26.1121 Q335.768 26.1121 341.317 32.4315 Q346.867 38.7509 346.867 49.9314 Q346.867 61.0714 341.317 67.4314 Q335.768 73.7508 326.045 73.7508 Q316.283 73.7508 310.733 67.4314 Q305.224 61.0714 305.224 49.9314 Q305.224 38.7509 310.733 32.4315 Q316.283 26.1121 326.045 26.1121 Z" fill="#000000" fill-rule="nonzero" fill-opacity="1" /><path clip-path="url(#clip030)" d="M398.111 27.2059 L398.111 72.576 L390.617 72.576 L390.617 33.1607 L366.433 33.1607 L366.433 72.576 L358.939 72.576 L358.939 27.2059 L398.111 27.2059 Z" fill="#000000" fill-rule="nonzero" fill-opacity="1" /><path clip-path="url(#clip030)" d="M408.724 72.576 L408.724 66.3781 Q416.097 65.2439 418.366 60.1397 Q421.12 52.9696 421.12 34.619 L421.12 27.2059 L451.785 27.2059 L451.785 72.576 L444.332 72.576 L444.332 33.1607 L428.574 33.1607 L428.574 37.6572 Q428.574 55.1571 425.009 63.0159 Q421.201 71.4012 408.724 72.576 Z" fill="#000000" fill-rule="nonzero" fill-opacity="1" /><path clip-path="url(#clip030)" d="M505.298 48.0275 L505.298 51.6733 L471.027 51.6733 Q471.513 59.3701 475.645 63.421 Q479.818 67.4314 487.231 67.4314 Q491.525 67.4314 495.535 66.3781 Q499.586 65.3249 503.556 63.2184 L503.556 70.267 Q499.546 71.9684 495.333 72.8596 Q491.12 73.7508 486.785 73.7508 Q475.929 73.7508 469.569 67.4314 Q463.25 61.1119 463.25 50.3365 Q463.25 39.1965 469.245 32.6746 Q475.281 26.1121 485.489 26.1121 Q494.644 26.1121 499.951 32.0264 Q505.298 37.9003 505.298 48.0275 M497.844 45.84 Q497.763 39.7232 494.401 36.0774 Q491.079 32.4315 485.57 32.4315 Q479.332 32.4315 475.564 35.9558 Q471.837 39.4801 471.27 45.8805 L497.844 45.84 Z" fill="#000000" fill-rule="nonzero" fill-opacity="1" /><path clip-path="url(#clip030)" d="M517.248 27.2059 L524.742 27.2059 L524.742 45.7185 L548.926 45.7185 L548.926 27.2059 L556.42 27.2059 L556.42 72.576 L548.926 72.576 L548.926 51.6733 L524.742 51.6733 L524.742 72.576 L517.248 72.576 L517.248 27.2059 Z" fill="#000000" fill-rule="nonzero" fill-opacity="1" /><path clip-path="url(#clip030)" d="M571.49 27.2059 L578.984 27.2059 L578.984 45.7185 L603.168 45.7185 L603.168 27.2059 L610.662 27.2059 L610.662 72.576 L603.168 72.576 L603.168 51.6733 L578.984 51.6733 L578.984 72.576 L571.49 72.576 L571.49 27.2059 Z" fill="#000000" fill-rule="nonzero" fill-opacity="1" /><path clip-path="url(#clip030)" d="M643.596 32.4315 Q637.6 32.4315 634.117 37.1306 Q630.633 41.7891 630.633 49.9314 Q630.633 58.0738 634.076 62.7728 Q637.56 67.4314 643.596 67.4314 Q649.551 67.4314 653.034 62.7323 Q656.518 58.0333 656.518 49.9314 Q656.518 41.8701 653.034 37.1711 Q649.551 32.4315 643.596 32.4315 M643.596 26.1121 Q653.318 26.1121 658.868 32.4315 Q664.417 38.7509 664.417 49.9314 Q664.417 61.0714 658.868 67.4314 Q653.318 73.7508 643.596 73.7508 Q633.833 73.7508 628.283 67.4314 Q622.774 61.0714 622.774 49.9314 Q622.774 38.7509 628.283 32.4315 Q633.833 26.1121 643.596 26.1121 Z" fill="#000000" fill-rule="nonzero" fill-opacity="1" /><path clip-path="url(#clip030)" d="M715.58 48.0275 L715.58 51.6733 L681.31 51.6733 Q681.796 59.3701 685.928 63.421 Q690.1 67.4314 697.513 67.4314 Q701.807 67.4314 705.818 66.3781 Q709.869 65.3249 713.838 63.2184 L713.838 70.267 Q709.828 71.9684 705.615 72.8596 Q701.402 73.7508 697.068 73.7508 Q686.211 73.7508 679.851 67.4314 Q673.532 61.1119 673.532 50.3365 Q673.532 39.1965 679.527 32.6746 Q685.563 26.1121 695.771 26.1121 Q704.927 26.1121 710.233 32.0264 Q715.58 37.9003 715.58 48.0275 M708.127 45.84 Q708.046 39.7232 704.683 36.0774 Q701.362 32.4315 695.852 32.4315 Q689.614 32.4315 685.847 35.9558 Q682.12 39.4801 681.553 45.8805 L708.127 45.84 Z" fill="#000000" fill-rule="nonzero" fill-opacity="1" /><path clip-path="url(#clip030)" d="M780.395 72.576 L780.395 53.4962 L766.5 53.4962 Q760.302 53.4962 756.17 49.6479 Q752.444 46.1641 752.444 38.7104 L752.444 27.2059 L759.897 27.2059 L759.897 38.0218 Q759.897 42.7613 762.004 45.1514 Q764.151 47.5414 768.364 47.5414 L780.395 47.5414 L780.395 27.2059 L787.849 27.2059 L787.849 72.576 L780.395 72.576 Z" fill="#000000" fill-rule="nonzero" fill-opacity="1" /><path clip-path="url(#clip030)" d="M841.766 27.2059 L841.766 72.576 L834.353 72.576 L834.353 36.1584 L812.478 72.576 L802.918 72.576 L802.918 27.2059 L810.331 27.2059 L810.331 63.5425 L832.165 27.2059 L841.766 27.2059 Z" fill="#000000" fill-rule="nonzero" fill-opacity="1" /><path clip-path="url(#clip030)" d="M889.769 28.9478 L889.769 35.9153 Q886.61 34.1734 883.409 33.3227 Q880.25 32.4315 877.009 32.4315 Q869.758 32.4315 865.747 37.0496 Q861.737 41.6271 861.737 49.9314 Q861.737 58.2358 865.747 62.8538 Q869.758 67.4314 877.009 67.4314 Q880.25 67.4314 883.409 66.5807 Q886.61 65.6895 889.769 63.9476 L889.769 70.8341 Q886.65 72.2924 883.288 73.0216 Q879.966 73.7508 876.199 73.7508 Q865.95 73.7508 859.914 67.3098 Q853.878 60.8689 853.878 49.9314 Q853.878 38.832 859.955 32.472 Q866.071 26.1121 876.685 26.1121 Q880.128 26.1121 883.409 26.8413 Q886.691 27.5299 889.769 28.9478 Z" fill="#000000" fill-rule="nonzero" fill-opacity="1" /><path clip-path="url(#clip030)" d="M897.993 72.576 L897.993 66.3781 Q905.365 65.2439 907.634 60.1397 Q910.388 52.9696 910.388 34.619 L910.388 27.2059 L941.054 27.2059 L941.054 72.576 L933.6 72.576 L933.6 33.1607 L917.842 33.1607 L917.842 37.6572 Q917.842 55.1571 914.277 63.0159 Q910.469 71.4012 897.993 72.576 Z" fill="#000000" fill-rule="nonzero" fill-opacity="1" /><path clip-path="url(#clip030)" d="M973.339 32.4315 Q967.344 32.4315 963.86 37.1306 Q960.377 41.7891 960.377 49.9314 Q960.377 58.0738 963.82 62.7728 Q967.304 67.4314 973.339 67.4314 Q979.294 67.4314 982.778 62.7323 Q986.262 58.0333 986.262 49.9314 Q986.262 41.8701 982.778 37.1711 Q979.294 32.4315 973.339 32.4315 M973.339 26.1121 Q983.062 26.1121 988.611 32.4315 Q994.161 38.7509 994.161 49.9314 Q994.161 61.0714 988.611 67.4314 Q983.062 73.7508 973.339 73.7508 Q963.577 73.7508 958.027 67.4314 Q952.518 61.0714 952.518 49.9314 Q952.518 38.7509 958.027 32.4315 Q963.577 26.1121 973.339 26.1121 Z" fill="#000000" fill-rule="nonzero" fill-opacity="1" /><path clip-path="url(#clip030)" d="M1053.51 49.7694 Q1044.47 49.7694 1040.99 51.8354 Q1037.51 53.9013 1037.51 58.8839 Q1037.51 62.8538 1040.1 65.2034 Q1042.73 67.5124 1047.23 67.5124 Q1053.43 67.5124 1057.15 63.1374 Q1060.92 58.7219 1060.92 51.4303 L1060.92 49.7694 L1053.51 49.7694 M1068.37 46.6907 L1068.37 72.576 L1060.92 72.576 L1060.92 65.6895 Q1058.37 69.8214 1054.56 71.8063 Q1050.75 73.7508 1045.24 73.7508 Q1038.28 73.7508 1034.14 69.8619 Q1030.05 65.9325 1030.05 59.3701 Q1030.05 51.7138 1035.16 47.825 Q1040.3 43.9361 1050.47 43.9361 L1060.92 43.9361 L1060.92 43.2069 Q1060.92 38.0623 1057.52 35.2672 Q1054.15 32.4315 1048.04 32.4315 Q1044.15 32.4315 1040.46 33.3632 Q1036.78 34.295 1033.37 36.1584 L1033.37 29.2718 Q1037.47 27.692 1041.31 26.9223 Q1045.16 26.1121 1048.81 26.1121 Q1058.65 26.1121 1063.51 31.2163 Q1068.37 36.3204 1068.37 46.6907 Z" fill="#000000" fill-rule="nonzero" fill-opacity="1" /><path clip-path="url(#clip030)" d="M1078.34 27.2059 L1121.81 27.2059 L1121.81 33.1607 L1103.74 33.1607 L1103.74 72.576 L1096.41 72.576 L1096.41 33.1607 L1078.34 33.1607 L1078.34 27.2059 Z" fill="#000000" fill-rule="nonzero" fill-opacity="1" /><path clip-path="url(#clip030)" d="M1152.67 49.7694 Q1143.64 49.7694 1140.16 51.8354 Q1136.67 53.9013 1136.67 58.8839 Q1136.67 62.8538 1139.26 65.2034 Q1141.9 67.5124 1146.39 67.5124 Q1152.59 67.5124 1156.32 63.1374 Q1160.09 58.7219 1160.09 51.4303 L1160.09 49.7694 L1152.67 49.7694 M1167.54 46.6907 L1167.54 72.576 L1160.09 72.576 L1160.09 65.6895 Q1157.53 69.8214 1153.73 71.8063 Q1149.92 73.7508 1144.41 73.7508 Q1137.44 73.7508 1133.31 69.8619 Q1129.22 65.9325 1129.22 59.3701 Q1129.22 51.7138 1134.32 47.825 Q1139.47 43.9361 1149.63 43.9361 L1160.09 43.9361 L1160.09 43.2069 Q1160.09 38.0623 1156.68 35.2672 Q1153.32 32.4315 1147.2 32.4315 Q1143.32 32.4315 1139.63 33.3632 Q1135.94 34.295 1132.54 36.1584 L1132.54 29.2718 Q1136.63 27.692 1140.48 26.9223 Q1144.33 26.1121 1147.97 26.1121 Q1157.82 26.1121 1162.68 31.2163 Q1167.54 36.3204 1167.54 46.6907 Z" fill="#000000" fill-rule="nonzero" fill-opacity="1" /><path clip-path="url(#clip030)" d="M1182.61 27.2059 L1190.02 27.2059 L1190.02 48.5136 L1211.05 27.2059 L1220.2 27.2059 L1202.86 44.7463 L1222.43 72.576 L1214.08 72.576 L1198 49.6884 L1190.02 57.7902 L1190.02 72.576 L1182.61 72.576 L1182.61 27.2059 Z" fill="#000000" fill-rule="nonzero" fill-opacity="1" /><path clip-path="url(#clip030)" d="M1266.54 51.6733 L1266.54 66.6212 L1277.16 66.6212 Q1282.26 66.6212 1284.93 64.7172 Q1287.61 62.7728 1287.61 59.127 Q1287.61 55.4812 1284.93 53.5773 Q1282.26 51.6733 1277.16 51.6733 L1266.54 51.6733 M1266.54 33.1607 L1266.54 45.7185 L1276.35 45.7185 Q1280.56 45.7185 1283.23 44.0576 Q1285.91 42.3563 1285.91 39.3586 Q1285.91 36.3609 1283.23 34.7811 Q1280.56 33.1607 1276.35 33.1607 L1266.54 33.1607 M1259.09 27.2059 L1276.83 27.2059 Q1284.81 27.2059 1289.11 30.1225 Q1293.4 33.0392 1293.4 38.4269 Q1293.4 42.5993 1291.21 45.0704 Q1289.03 47.5009 1284.73 48.1085 Q1289.88 49.0808 1292.71 52.1594 Q1295.55 55.2381 1295.55 59.8562 Q1295.55 65.9325 1290.85 69.2543 Q1286.19 72.576 1277.52 72.576 L1259.09 72.576 L1259.09 27.2059 Z" fill="#000000" fill-rule="nonzero" fill-opacity="1" /><path clip-path="url(#clip030)" d="M1329.25 27.2059 L1372.72 27.2059 L1372.72 33.1607 L1354.65 33.1607 L1354.65 72.576 L1347.32 72.576 L1347.32 33.1607 L1329.25 33.1607 L1329.25 27.2059 Z" fill="#000000" fill-rule="nonzero" fill-opacity="1" /><path clip-path="url(#clip030)" d="M1421.77 48.0275 L1421.77 51.6733 L1387.5 51.6733 Q1387.99 59.3701 1392.12 63.421 Q1396.29 67.4314 1403.71 67.4314 Q1408 67.4314 1412.01 66.3781 Q1416.06 65.3249 1420.03 63.2184 L1420.03 70.267 Q1416.02 71.9684 1411.81 72.8596 Q1407.6 73.7508 1403.26 73.7508 Q1392.41 73.7508 1386.05 67.4314 Q1379.73 61.1119 1379.73 50.3365 Q1379.73 39.1965 1385.72 32.6746 Q1391.76 26.1121 1401.97 26.1121 Q1411.12 26.1121 1416.43 32.0264 Q1421.77 37.9003 1421.77 48.0275 M1414.32 45.84 Q1414.24 39.7232 1410.88 36.0774 Q1407.56 32.4315 1402.05 32.4315 Q1395.81 32.4315 1392.04 35.9558 Q1388.31 39.4801 1387.75 45.8805 L1414.32 45.84 Z" fill="#000000" fill-rule="nonzero" fill-opacity="1" /><path clip-path="url(#clip030)" d="M1460.22 72.576 L1460.22 53.4962 L1446.32 53.4962 Q1440.13 53.4962 1435.99 49.6479 Q1432.27 46.1641 1432.27 38.7104 L1432.27 27.2059 L1439.72 27.2059 L1439.72 38.0218 Q1439.72 42.7613 1441.83 45.1514 Q1443.97 47.5414 1448.19 47.5414 L1460.22 47.5414 L1460.22 27.2059 L1467.67 27.2059 L1467.67 72.576 L1460.22 72.576 Z" fill="#000000" fill-rule="nonzero" fill-opacity="1" /><path clip-path="url(#clip030)" d="M1521.83 48.0275 L1521.83 51.6733 L1487.56 51.6733 Q1488.05 59.3701 1492.18 63.421 Q1496.35 67.4314 1503.76 67.4314 Q1508.06 67.4314 1512.07 66.3781 Q1516.12 65.3249 1520.09 63.2184 L1520.09 70.267 Q1516.08 71.9684 1511.87 72.8596 Q1507.65 73.7508 1503.32 73.7508 Q1492.46 73.7508 1486.1 67.4314 Q1479.78 61.1119 1479.78 50.3365 Q1479.78 39.1965 1485.78 32.6746 Q1491.81 26.1121 1502.02 26.1121 Q1511.18 26.1121 1516.48 32.0264 Q1521.83 37.9003 1521.83 48.0275 M1514.38 45.84 Q1514.3 39.7232 1510.93 36.0774 Q1507.61 32.4315 1502.1 32.4315 Q1495.87 32.4315 1492.1 35.9558 Q1488.37 39.4801 1487.8 45.8805 L1514.38 45.84 Z" fill="#000000" fill-rule="nonzero" fill-opacity="1" /><path clip-path="url(#clip030)" d="M1533.78 27.2059 L1541.28 27.2059 L1541.28 45.7185 L1565.46 45.7185 L1565.46 27.2059 L1572.95 27.2059 L1572.95 72.576 L1565.46 72.576 L1565.46 51.6733 L1541.28 51.6733 L1541.28 72.576 L1533.78 72.576 L1533.78 27.2059 Z" fill="#000000" fill-rule="nonzero" fill-opacity="1" /><path clip-path="url(#clip030)" d="M1626.87 27.2059 L1626.87 72.576 L1619.46 72.576 L1619.46 36.1584 L1597.58 72.576 L1588.02 72.576 L1588.02 27.2059 L1595.44 27.2059 L1595.44 63.5425 L1617.27 27.2059 L1626.87 27.2059 Z" fill="#000000" fill-rule="nonzero" fill-opacity="1" /><path clip-path="url(#clip030)" d="M1681.03 48.0275 L1681.03 51.6733 L1646.76 51.6733 Q1647.25 59.3701 1651.38 63.421 Q1655.55 67.4314 1662.97 67.4314 Q1667.26 67.4314 1671.27 66.3781 Q1675.32 65.3249 1679.29 63.2184 L1679.29 70.267 Q1675.28 71.9684 1671.07 72.8596 Q1666.85 73.7508 1662.52 73.7508 Q1651.66 73.7508 1645.3 67.4314 Q1638.98 61.1119 1638.98 50.3365 Q1638.98 39.1965 1644.98 32.6746 Q1651.02 26.1121 1661.22 26.1121 Q1670.38 26.1121 1675.69 32.0264 Q1681.03 37.9003 1681.03 48.0275 M1673.58 45.84 Q1673.5 39.7232 1670.14 36.0774 Q1666.81 32.4315 1661.3 32.4315 Q1655.07 32.4315 1651.3 35.9558 Q1647.57 39.4801 1647 45.8805 L1673.58 45.84 Z" fill="#000000" fill-rule="nonzero" fill-opacity="1" /><path clip-path="url(#clip030)" d="M1727.74 65.6895 L1756.3 65.6895 L1756.3 72.576 L1717.9 72.576 L1717.9 65.6895 Q1722.55 60.8689 1730.57 52.7671 Q1738.64 44.6248 1740.7 42.2752 Q1744.63 37.8598 1746.17 34.8216 Q1747.75 31.7429 1747.75 28.7857 Q1747.75 23.9651 1744.35 20.927 Q1740.99 17.8888 1735.56 17.8888 Q1731.71 17.8888 1727.42 19.2256 Q1723.16 20.5624 1718.3 23.2765 L1718.3 15.0127 Q1723.24 13.0277 1727.54 12.015 Q1731.83 11.0023 1735.4 11.0023 Q1744.79 11.0023 1750.38 15.7013 Q1755.97 20.4004 1755.97 28.2591 Q1755.97 31.9859 1754.56 35.3482 Q1753.18 38.6699 1749.49 43.2069 Q1748.48 44.3817 1743.05 50.0125 Q1737.62 55.6027 1727.74 65.6895 Z" fill="#000000" fill-rule="nonzero" fill-opacity="1" /><path clip-path="url(#clip030)" d="M1795.96 19.2256 L1775.3 51.5113 L1795.96 51.5113 L1795.96 19.2256 M1793.81 12.096 L1804.1 12.096 L1804.1 51.5113 L1812.73 51.5113 L1812.73 58.3168 L1804.1 58.3168 L1804.1 72.576 L1795.96 72.576 L1795.96 58.3168 L1768.65 58.3168 L1768.65 50.4176 L1793.81 12.096 Z" fill="#000000" fill-rule="nonzero" fill-opacity="1" /><path clip-path="url(#clip030)" d="M1826.26 62.2867 L1834.8 62.2867 L1834.8 72.576 L1826.26 72.576 L1826.26 62.2867 Z" fill="#000000" fill-rule="nonzero" fill-opacity="1" /><path clip-path="url(#clip030)" d="M1870.13 17.4837 Q1863.81 17.4837 1860.61 23.7221 Q1857.45 29.92 1857.45 42.3968 Q1857.45 54.833 1860.61 61.0714 Q1863.81 67.2693 1870.13 67.2693 Q1876.49 67.2693 1879.65 61.0714 Q1882.85 54.833 1882.85 42.3968 Q1882.85 29.92 1879.65 23.7221 Q1876.49 17.4837 1870.13 17.4837 M1870.13 11.0023 Q1880.3 11.0023 1885.64 19.0636 Q1891.03 27.0843 1891.03 42.3968 Q1891.03 57.6687 1885.64 65.73 Q1880.3 73.7508 1870.13 73.7508 Q1859.96 73.7508 1854.57 65.73 Q1849.23 57.6687 1849.23 42.3968 Q1849.23 27.0843 1854.57 19.0636 Q1859.96 11.0023 1870.13 11.0023 Z" fill="#000000" fill-rule="nonzero" fill-opacity="1" /><path clip-path="url(#clip030)" d="M1956.94 72.576 L1956.94 53.4962 L1943.04 53.4962 Q1936.85 53.4962 1932.72 49.6479 Q1928.99 46.1641 1928.99 38.7104 L1928.99 27.2059 L1936.44 27.2059 L1936.44 38.0218 Q1936.44 42.7613 1938.55 45.1514 Q1940.7 47.5414 1944.91 47.5414 L1956.94 47.5414 L1956.94 27.2059 L1964.39 27.2059 L1964.39 72.576 L1956.94 72.576 Z" fill="#000000" fill-rule="nonzero" fill-opacity="1" /><polyline clip-path="url(#clip032)" style="stroke:#009af9; stroke-linecap:round; stroke-linejoin:round; stroke-width:4; stroke-opacity:1; fill:none" points="308.637,1299.72 308.696,1290.23 316.107,1280.73 337.025,1271.24 345.474,1261.74 351.168,1252.25 365.676,1242.75 369.532,1233.26 375.488,1223.76 380.918,1214.26 383.062,1204.77 387.935,1195.27 393.067,1185.78 396.308,1176.28 402.76,1166.79 434.602,1157.29 440.892,1147.8 442.38,1138.3 451.261,1128.8 490.156,1119.31 536.364,1109.81 547.131,1100.32 555.035,1090.82 584.089,1081.33 610.443,1071.83 628.045,1062.34 628.341,1052.84 639.838,1043.34 667.245,1033.85 680.145,1024.35 685.909,1014.86 704.35,1005.36 706.984,995.866 765.136,986.371 777.979,976.875 784.455,967.38 789.971,957.884 810.161,948.388 810.724,938.893 817.245,929.397 822.405,919.902 828.48,910.406 858.416,900.911 860.245,891.415 861.233,881.919 881.185,872.424 892.08,862.928 892.591,853.433 898.473,843.937 902.444,834.442 907.59,824.946 920.22,815.45 936.586,805.955 952.271,796.459 955.74,786.964 961.129,777.468 998.521,767.973 1001.41,758.477 1008.43,748.982 1009.61,739.486 1012.48,729.99 1014.98,720.495 1055.78,710.999 1065.28,701.504 1103.13,692.008 1147.2,682.513 1149.62,673.017 1151.56,663.521 1160.87,654.026 1161.8,644.53 1170.09,635.035 1179.02,625.539 1182.66,616.044 1192.2,606.548 1194.7,597.053 1214.34,587.557 1218.04,578.061 1223.91,568.566 1225.65,559.07 1228.8,549.575 1242.69,540.079 1254.66,530.584 1283.6,521.088 1296.87,511.592 1327.39,502.097 1340.46,492.601 1350.72,483.106 1357.6,473.61 1370.81,464.115 1389.77,454.619 1394.4,445.124 1401.79,435.628 1448.55,426.132 1467.93,416.637 1481.69,407.141 1487.87,397.646 1503.53,388.15 1524.37,378.655 1529.17,369.159 1534.64,359.663 1567.41,350.168 1603.52,340.672 1625.99,331.177 1636.57,321.681 1649.85,312.186 1652.38,302.69 1657.57,293.194 1657.79,283.699 1677.76,274.203 1707.01,264.708 1712.81,255.212 1714.89,245.717 1721.53,236.221 1743.6,226.726 1747.86,217.23 1803.3,207.734 1808.21,198.239 1811.39,188.743 "/>
<polyline clip-path="url(#clip032)" style="stroke:#e26f46; stroke-linecap:round; stroke-linejoin:round; stroke-width:4; stroke-opacity:1; fill:none" stroke-dasharray="16, 10" points="283.386,1309.22 289.815,1304.47 296.245,1299.72 302.674,1294.98 309.104,1290.23 315.533,1285.48 321.963,1280.73 328.392,1275.99 334.822,1271.24 341.251,1266.49 347.681,1261.74 354.11,1256.99 360.54,1252.25 366.969,1247.5 373.399,1242.75 379.828,1238 386.258,1233.26 392.687,1228.51 399.117,1223.76 405.546,1219.01 411.976,1214.26 418.405,1209.52 424.834,1204.77 431.264,1200.02 437.693,1195.27 444.123,1190.53 450.552,1185.78 456.982,1181.03 463.411,1176.28 469.841,1171.53 476.27,1166.79 482.7,1162.04 489.129,1157.29 495.559,1152.54 501.988,1147.8 508.418,1143.05 514.847,1138.3 521.277,1133.55 527.706,1128.8 534.136,1124.06 540.565,1119.31 546.995,1114.56 553.424,1109.81 559.854,1105.07 566.283,1100.32 572.713,1095.57 579.142,1090.82 585.572,1086.07 592.001,1081.33 598.431,1076.58 604.86,1071.83 611.29,1067.08 617.719,1062.34 624.149,1057.59 630.578,1052.84 637.008,1048.09 643.437,1043.34 649.867,1038.6 656.296,1033.85 662.726,1029.1 669.155,1024.35 675.585,1019.61 682.014,1014.86 688.444,1010.11 694.873,1005.36 701.303,1000.61 707.732,995.866 714.162,991.118 720.591,986.371 727.021,981.623 733.45,976.875 739.88,972.127 746.309,967.38 752.739,962.632 759.168,957.884 765.598,953.136 772.027,948.388 778.457,943.641 784.886,938.893 791.315,934.145 797.745,929.397 804.174,924.649 810.604,919.902 817.033,915.154 823.463,910.406 829.892,905.658 836.322,900.911 842.751,896.163 849.181,891.415 855.61,886.667 862.04,881.919 868.469,877.172 874.899,872.424 881.328,867.676 887.758,862.928 894.187,858.181 900.617,853.433 907.046,848.685 913.476,843.937 919.905,839.189 926.335,834.442 932.764,829.694 939.194,824.946 945.623,820.198 952.053,815.45 958.482,810.703 964.912,805.955 971.341,801.207 977.771,796.459 984.2,791.712 990.63,786.964 997.059,782.216 1003.49,777.468 1009.92,772.72 1016.35,767.973 1022.78,763.225 1029.21,758.477 1035.64,753.729 1042.07,748.982 1048.5,744.234 1054.92,739.486 1061.35,734.738 1067.78,729.99 1074.21,725.243 1080.64,720.495 1087.07,715.747 1093.5,710.999 1099.93,706.252 1106.36,701.504 1112.79,696.756 1119.22,692.008 1125.65,687.26 1132.08,682.513 1138.51,677.765 1144.94,673.017 1151.37,668.269 1157.8,663.521 1164.23,658.774 1170.66,654.026 1177.08,649.278 1183.51,644.53 1189.94,639.783 1196.37,635.035 1202.8,630.287 1209.23,625.539 1215.66,620.791 1222.09,616.044 1228.52,611.296 1234.95,606.548 1241.38,601.8 1247.81,597.053 1254.24,592.305 1260.67,587.557 1267.1,582.809 1273.53,578.061 1279.96,573.314 1286.39,568.566 1292.82,563.818 1299.25,559.07 1305.67,554.322 1312.1,549.575 1318.53,544.827 1324.96,540.079 1331.39,535.331 1337.82,530.584 1344.25,525.836 1350.68,521.088 1357.11,516.34 1363.54,511.592 1369.97,506.845 1376.4,502.097 1382.83,497.349 1389.26,492.601 1395.69,487.854 1402.12,483.106 1408.55,478.358 1414.98,473.61 1421.41,468.862 1427.84,464.115 1434.26,459.367 1440.69,454.619 1447.12,449.871 1453.55,445.124 1459.98,440.376 1466.41,435.628 1472.84,430.88 1479.27,426.132 1485.7,421.385 1492.13,416.637 1498.56,411.889 1504.99,407.141 1511.42,402.393 1517.85,397.646 1524.28,392.898 1530.71,388.15 1537.14,383.402 1543.57,378.655 1550,373.907 1556.42,369.159 1562.85,364.411 1569.28,359.663 1575.71,354.916 1582.14,350.168 1588.57,345.42 1595,340.672 1601.43,335.925 1607.86,331.177 1614.29,326.429 1620.72,321.681 1627.15,316.933 1633.58,312.186 1640.01,307.438 1646.44,302.69 1652.87,297.942 1659.3,293.194 1665.73,288.447 1672.16,283.699 1678.59,278.951 1685.01,274.203 1691.44,269.456 1697.87,264.708 1704.3,259.96 1710.73,255.212 1717.16,250.464 1723.59,245.717 1730.02,240.969 1736.45,236.221 1742.88,231.473 1749.31,226.726 1755.74,221.978 1762.17,217.23 1768.6,212.482 1775.03,207.734 1781.46,202.987 1787.89,198.239 1794.32,193.491 1800.75,188.743 1807.18,183.996 1813.6,179.248 1820.03,174.5 1826.46,169.752 "/>
<path clip-path="url(#clip030)" d="M291.615 331.349 L742.634 331.349 L742.634 175.829 L291.615 175.829  Z" fill="#ffffff" fill-rule="evenodd" fill-opacity="1"/>
<polyline clip-path="url(#clip030)" style="stroke:#000000; stroke-linecap:round; stroke-linejoin:round; stroke-width:4; stroke-opacity:1; fill:none" points="291.615,331.349 742.634,331.349 742.634,175.829 291.615,175.829 291.615,331.349 "/>
<polyline clip-path="url(#clip030)" style="stroke:#009af9; stroke-linecap:round; stroke-linejoin:round; stroke-width:4; stroke-opacity:1; fill:none" points="309.789,227.669 418.834,227.669 "/>
<path clip-path="url(#clip030)" d="M441.684 214.232 L441.684 227.218 L447.563 227.218 Q450.827 227.218 452.609 225.528 Q454.392 223.838 454.392 220.713 Q454.392 217.612 452.609 215.922 Q450.827 214.232 447.563 214.232 L441.684 214.232 M437.008 210.389 L447.563 210.389 Q453.373 210.389 456.336 213.028 Q459.322 215.644 459.322 220.713 Q459.322 225.829 456.336 228.445 Q453.373 231.061 447.563 231.061 L441.684 231.061 L441.684 244.949 L437.008 244.949 L437.008 210.389 Z" fill="#000000" fill-rule="nonzero" fill-opacity="1" /><path clip-path="url(#clip030)" d="M487.586 230.922 L487.586 233.005 L468.003 233.005 Q468.281 237.403 470.642 239.718 Q473.026 242.01 477.262 242.01 Q479.716 242.01 482.007 241.408 Q484.322 240.806 486.591 239.602 L486.591 243.63 Q484.299 244.602 481.892 245.111 Q479.484 245.621 477.007 245.621 Q470.804 245.621 467.17 242.01 Q463.558 238.398 463.558 232.241 Q463.558 225.875 466.984 222.149 Q470.433 218.399 476.267 218.399 Q481.498 218.399 484.531 221.778 Q487.586 225.135 487.586 230.922 M483.327 229.672 Q483.281 226.176 481.359 224.093 Q479.461 222.01 476.313 222.01 Q472.748 222.01 470.595 224.024 Q468.466 226.037 468.142 229.695 L483.327 229.672 Z" fill="#000000" fill-rule="nonzero" fill-opacity="1" /><path clip-path="url(#clip030)" d="M506.359 231.917 Q501.197 231.917 499.206 233.098 Q497.216 234.278 497.216 237.125 Q497.216 239.394 498.697 240.736 Q500.202 242.056 502.771 242.056 Q506.313 242.056 508.442 239.556 Q510.595 237.033 510.595 232.866 L510.595 231.917 L506.359 231.917 M514.854 230.158 L514.854 244.949 L510.595 244.949 L510.595 241.014 Q509.137 243.375 506.961 244.51 Q504.785 245.621 501.637 245.621 Q497.655 245.621 495.294 243.398 Q492.956 241.153 492.956 237.403 Q492.956 233.028 495.873 230.806 Q498.813 228.584 504.623 228.584 L510.595 228.584 L510.595 228.167 Q510.595 225.227 508.651 223.63 Q506.73 222.01 503.234 222.01 Q501.012 222.01 498.905 222.542 Q496.799 223.074 494.855 224.139 L494.855 220.204 Q497.193 219.301 499.392 218.861 Q501.591 218.399 503.674 218.399 Q509.299 218.399 512.077 221.315 Q514.854 224.232 514.854 230.158 Z" fill="#000000" fill-rule="nonzero" fill-opacity="1" /><path clip-path="url(#clip030)" d="M520.919 244.949 L520.919 241.408 Q525.132 240.76 526.428 237.843 Q528.003 233.746 528.003 223.26 L528.003 219.024 L545.526 219.024 L545.526 244.949 L541.266 244.949 L541.266 222.426 L532.262 222.426 L532.262 224.996 Q532.262 234.996 530.225 239.486 Q528.049 244.278 520.919 244.949 Z" fill="#000000" fill-rule="nonzero" fill-opacity="1" /><path clip-path="url(#clip030)" d="M575.965 219.024 L575.965 244.949 L571.729 244.949 L571.729 224.139 L559.229 244.949 L553.766 244.949 L553.766 219.024 L558.002 219.024 L558.002 239.787 L570.479 219.024 L575.965 219.024 Z" fill="#000000" fill-rule="nonzero" fill-opacity="1" /><path clip-path="url(#clip030)" d="M596.613 230.968 Q599.484 231.523 601.081 233.213 Q602.678 234.903 602.678 237.403 Q602.678 241.408 599.692 243.514 Q596.706 245.621 591.197 245.621 Q589.345 245.621 587.377 245.297 Q585.433 244.972 583.349 244.324 L583.349 240.366 Q584.993 241.222 586.961 241.662 Q588.928 242.079 591.081 242.079 Q594.576 242.079 596.521 240.783 Q598.488 239.486 598.488 237.403 Q598.488 235.366 596.752 234.139 Q595.016 232.889 591.845 232.889 L588.419 232.889 L588.419 229.371 L592.007 229.371 Q594.692 229.371 596.243 228.352 Q597.817 227.311 597.817 225.69 Q597.817 224.209 596.197 223.144 Q594.599 222.079 591.845 222.079 Q590.201 222.079 588.326 222.38 Q586.474 222.681 584.229 223.352 L584.229 219.486 Q586.498 218.931 588.465 218.653 Q590.433 218.375 592.192 218.375 Q596.729 218.375 599.345 220.204 Q601.984 222.01 601.984 225.273 Q601.984 227.426 600.595 228.931 Q599.206 230.412 596.613 230.968 Z" fill="#000000" fill-rule="nonzero" fill-opacity="1" /><path clip-path="url(#clip030)" d="M621.729 231.917 Q616.567 231.917 614.576 233.098 Q612.585 234.278 612.585 237.125 Q612.585 239.394 614.067 240.736 Q615.572 242.056 618.141 242.056 Q621.683 242.056 623.812 239.556 Q625.965 237.033 625.965 232.866 L625.965 231.917 L621.729 231.917 M630.224 230.158 L630.224 244.949 L625.965 244.949 L625.965 241.014 Q624.507 243.375 622.331 244.51 Q620.155 245.621 617.007 245.621 Q613.025 245.621 610.664 243.398 Q608.326 241.153 608.326 237.403 Q608.326 233.028 611.243 230.806 Q614.183 228.584 619.993 228.584 L625.965 228.584 L625.965 228.167 Q625.965 225.227 624.021 223.63 Q622.099 222.01 618.604 222.01 Q616.382 222.01 614.275 222.542 Q612.169 223.074 610.224 224.139 L610.224 220.204 Q612.562 219.301 614.761 218.861 Q616.96 218.399 619.044 218.399 Q624.669 218.399 627.446 221.315 Q630.224 224.232 630.224 230.158 Z" fill="#000000" fill-rule="nonzero" fill-opacity="1" /><path clip-path="url(#clip030)" d="M661.219 244.949 L638.835 244.949 L638.835 219.024 L643.118 219.024 L643.118 241.547 L656.937 241.547 L656.937 219.024 L661.219 219.024 L661.219 241.547 L664.622 241.547 L664.622 251.5 L661.219 251.5 L661.219 244.949 Z" fill="#000000" fill-rule="nonzero" fill-opacity="1" /><path clip-path="url(#clip030)" d="M693.303 219.024 L693.303 244.949 L689.066 244.949 L689.066 224.139 L676.567 244.949 L671.104 244.949 L671.104 219.024 L675.34 219.024 L675.34 239.787 L687.817 219.024 L693.303 219.024 Z" fill="#000000" fill-rule="nonzero" fill-opacity="1" /><path clip-path="url(#clip030)" d="M706.358 226.5 Q706.358 228.422 707.84 229.51 Q709.321 230.598 712.076 230.598 L717.816 230.598 L717.816 222.426 L712.076 222.426 Q709.321 222.426 707.84 223.491 Q706.358 224.556 706.358 226.5 M700.293 244.949 L708.21 233.584 Q705.525 232.982 703.742 231.408 Q701.96 229.811 701.96 226.5 Q701.96 222.75 704.437 220.899 Q706.937 219.024 711.96 219.024 L722.099 219.024 L722.099 244.949 L717.816 244.949 L717.816 234 L712.515 234 L704.877 244.949 L700.293 244.949 Z" fill="#000000" fill-rule="nonzero" fill-opacity="1" /><polyline clip-path="url(#clip030)" style="stroke:#e26f46; stroke-linecap:round; stroke-linejoin:round; stroke-width:4; stroke-opacity:1; fill:none" stroke-dasharray="16, 10" points="309.789,279.509 418.834,279.509 "/>
<path clip-path="url(#clip030)" d="M464.878 264.891 L464.878 269.822 Q462.517 267.623 459.832 266.535 Q457.17 265.447 454.16 265.447 Q448.234 265.447 445.086 269.081 Q441.938 272.692 441.938 279.544 Q441.938 286.373 445.086 290.007 Q448.234 293.618 454.16 293.618 Q457.17 293.618 459.832 292.53 Q462.517 291.442 464.878 289.243 L464.878 294.127 Q462.424 295.794 459.67 296.627 Q456.938 297.461 453.883 297.461 Q446.035 297.461 441.522 292.669 Q437.008 287.854 437.008 279.544 Q437.008 271.211 441.522 266.419 Q446.035 261.604 453.883 261.604 Q456.984 261.604 459.716 262.438 Q462.47 263.248 464.878 264.891 Z" fill="#000000" fill-rule="nonzero" fill-opacity="1" /><path clip-path="url(#clip030)" d="M476.035 292.9 L476.035 306.65 L471.753 306.65 L471.753 270.864 L476.035 270.864 L476.035 274.799 Q477.378 272.484 479.415 271.373 Q481.475 270.239 484.322 270.239 Q489.044 270.239 491.984 273.989 Q494.947 277.738 494.947 283.85 Q494.947 289.961 491.984 293.711 Q489.044 297.461 484.322 297.461 Q481.475 297.461 479.415 296.35 Q477.378 295.215 476.035 292.9 M490.526 283.85 Q490.526 279.151 488.581 276.488 Q486.66 273.803 483.281 273.803 Q479.901 273.803 477.957 276.488 Q476.035 279.151 476.035 283.85 Q476.035 288.549 477.957 291.234 Q479.901 293.896 483.281 293.896 Q486.66 293.896 488.581 291.234 Q490.526 288.549 490.526 283.85 Z" fill="#000000" fill-rule="nonzero" fill-opacity="1" /><path clip-path="url(#clip030)" d="M524.183 282.762 L524.183 284.845 L504.6 284.845 Q504.878 289.243 507.239 291.558 Q509.623 293.85 513.859 293.85 Q516.313 293.85 518.604 293.248 Q520.919 292.646 523.188 291.442 L523.188 295.47 Q520.896 296.442 518.489 296.951 Q516.081 297.461 513.604 297.461 Q507.401 297.461 503.767 293.85 Q500.155 290.238 500.155 284.081 Q500.155 277.715 503.581 273.989 Q507.03 270.239 512.864 270.239 Q518.095 270.239 521.128 273.618 Q524.183 276.975 524.183 282.762 M519.924 281.512 Q519.878 278.016 517.956 275.933 Q516.058 273.85 512.91 273.85 Q509.345 273.85 507.192 275.864 Q505.063 277.877 504.739 281.535 L519.924 281.512 Z" fill="#000000" fill-rule="nonzero" fill-opacity="1" /><path clip-path="url(#clip030)" d="M536.961 293.387 L549.322 293.387 L549.322 274.266 L540.364 274.266 L540.364 277.507 Q540.364 287.044 537.632 292.137 L536.961 293.387 M530.78 293.387 Q532.887 292.461 533.813 290.493 Q536.081 285.609 536.081 275.771 L536.081 270.864 L553.604 270.864 L553.604 293.387 L557.007 293.387 L557.007 303.34 L553.604 303.34 L553.604 296.789 L532.586 296.789 L532.586 303.34 L529.183 303.34 L529.183 293.387 L530.78 293.387 Z" fill="#000000" fill-rule="nonzero" fill-opacity="1" /><path clip-path="url(#clip030)" d="M563.789 270.864 L568.072 270.864 L568.072 281.442 L581.891 281.442 L581.891 270.864 L586.174 270.864 L586.174 296.789 L581.891 296.789 L581.891 284.845 L568.072 284.845 L568.072 296.789 L563.789 296.789 L563.789 270.864 Z" fill="#000000" fill-rule="nonzero" fill-opacity="1" /><path clip-path="url(#clip030)" d="M617.122 282.762 L617.122 284.845 L597.539 284.845 Q597.817 289.243 600.178 291.558 Q602.562 293.85 606.798 293.85 Q609.252 293.85 611.544 293.248 Q613.859 292.646 616.127 291.442 L616.127 295.47 Q613.835 296.442 611.428 296.951 Q609.021 297.461 606.544 297.461 Q600.34 297.461 596.706 293.85 Q593.095 290.238 593.095 284.081 Q593.095 277.715 596.521 273.989 Q599.97 270.239 605.803 270.239 Q611.035 270.239 614.067 273.618 Q617.122 276.975 617.122 282.762 M612.863 281.512 Q612.817 278.016 610.896 275.933 Q608.997 273.85 605.849 273.85 Q602.285 273.85 600.132 275.864 Q598.002 277.877 597.678 281.535 L612.863 281.512 Z" fill="#000000" fill-rule="nonzero" fill-opacity="1" /><path clip-path="url(#clip030)" d="M646.289 282.762 L646.289 284.845 L626.706 284.845 Q626.983 289.243 629.345 291.558 Q631.729 293.85 635.965 293.85 Q638.419 293.85 640.71 293.248 Q643.025 292.646 645.294 291.442 L645.294 295.47 Q643.002 296.442 640.595 296.951 Q638.187 297.461 635.71 297.461 Q629.507 297.461 625.872 293.85 Q622.261 290.238 622.261 284.081 Q622.261 277.715 625.687 273.989 Q629.136 270.239 634.97 270.239 Q640.201 270.239 643.233 273.618 Q646.289 276.975 646.289 282.762 M642.03 281.512 Q641.983 278.016 640.062 275.933 Q638.164 273.85 635.016 273.85 Q631.451 273.85 629.298 275.864 Q627.169 277.877 626.845 281.535 L642.03 281.512 Z" fill="#000000" fill-rule="nonzero" fill-opacity="1" /><path clip-path="url(#clip030)" d="M678.557 264.822 L690.525 296.789 L686.011 296.789 L678.742 277.623 L669.807 296.789 L665.293 296.789 L676.659 271.928 L674.946 267.345 Q673.858 264.428 671.381 264.428 L669.159 264.428 L669.159 260.771 L671.868 260.817 Q677.099 260.887 678.557 264.822 Z" fill="#000000" fill-rule="nonzero" fill-opacity="1" /><path clip-path="url(#clip030)" d="M697.006 277.391 L701.89 277.391 L701.89 283.271 L697.006 283.271 L697.006 277.391 Z" fill="#000000" fill-rule="nonzero" fill-opacity="1" /><path clip-path="url(#clip030)" d="M715.687 263.502 L715.687 270.864 L724.46 270.864 L724.46 274.174 L715.687 274.174 L715.687 288.248 Q715.687 291.419 716.543 292.322 Q717.423 293.225 720.085 293.225 L724.46 293.225 L724.46 296.789 L720.085 296.789 Q715.154 296.789 713.279 294.961 Q711.404 293.109 711.404 288.248 L711.404 274.174 L708.279 274.174 L708.279 270.864 L711.404 270.864 L711.404 263.502 L715.687 263.502 Z" fill="#000000" fill-rule="nonzero" fill-opacity="1" /></svg>
