<?xml version="1.0" encoding="utf-8"?>
<svg xmlns="http://www.w3.org/2000/svg" xmlns:xlink="http://www.w3.org/1999/xlink" width="528" height="336" viewBox="0 0 2112 1344">
<defs>
  <clipPath id="clip550">
    <rect x="0" y="0" width="2112" height="1344"/>
  </clipPath>
</defs>
<path clip-path="url(#clip550)" d="M0 1344 L2112 1344 L2112 0 L0 0  Z" fill="#ffffff" fill-rule="evenodd" fill-opacity="1"/>
<defs>
  <clipPath id="clip551">
    <rect x="247" y="0" width="1814" height="1330"/>
  </clipPath>
</defs>
<path clip-path="url(#clip550)" d="M244.502 1173.47 L2064.76 1173.47 L2064.76 120.723 L244.502 120.723  Z" fill="#ffffff" fill-rule="evenodd" fill-opacity="1"/>
<defs>
  <clipPath id="clip552">
    <rect x="244" y="120" width="1821" height="1054"/>
  </clipPath>
</defs>
<polyline clip-path="url(#clip552)" style="stroke:#000000; stroke-linecap:round; stroke-linejoin:round; stroke-width:2; stroke-opacity:0.1; fill:none" points="344.619,1173.47 344.619,120.723 "/>
<polyline clip-path="url(#clip552)" style="stroke:#000000; stroke-linecap:round; stroke-linejoin:round; stroke-width:2; stroke-opacity:0.1; fill:none" points="749.624,1173.47 749.624,120.723 "/>
<polyline clip-path="url(#clip552)" style="stroke:#000000; stroke-linecap:round; stroke-linejoin:round; stroke-width:2; stroke-opacity:0.1; fill:none" points="1154.63,1173.47 1154.63,120.723 "/>
<polyline clip-path="url(#clip552)" style="stroke:#000000; stroke-linecap:round; stroke-linejoin:round; stroke-width:2; stroke-opacity:0.1; fill:none" points="1559.63,1173.47 1559.63,120.723 "/>
<polyline clip-path="url(#clip552)" style="stroke:#000000; stroke-linecap:round; stroke-linejoin:round; stroke-width:2; stroke-opacity:0.1; fill:none" points="1964.64,1173.47 1964.64,120.723 "/>
<polyline clip-path="url(#clip552)" style="stroke:#000000; stroke-linecap:round; stroke-linejoin:round; stroke-width:2; stroke-opacity:0.1; fill:none" points="244.502,1173.47 2064.76,1173.47 "/>
<polyline clip-path="url(#clip552)" style="stroke:#000000; stroke-linecap:round; stroke-linejoin:round; stroke-width:2; stroke-opacity:0.1; fill:none" points="244.502,980.467 2064.76,980.467 "/>
<polyline clip-path="url(#clip552)" style="stroke:#000000; stroke-linecap:round; stroke-linejoin:round; stroke-width:2; stroke-opacity:0.1; fill:none" points="244.502,787.463 2064.76,787.463 "/>
<polyline clip-path="url(#clip552)" style="stroke:#000000; stroke-linecap:round; stroke-linejoin:round; stroke-width:2; stroke-opacity:0.1; fill:none" points="244.502,594.46 2064.76,594.46 "/>
<polyline clip-path="url(#clip552)" style="stroke:#000000; stroke-linecap:round; stroke-linejoin:round; stroke-width:2; stroke-opacity:0.1; fill:none" points="244.502,401.456 2064.76,401.456 "/>
<polyline clip-path="url(#clip552)" style="stroke:#000000; stroke-linecap:round; stroke-linejoin:round; stroke-width:2; stroke-opacity:0.1; fill:none" points="244.502,208.452 2064.76,208.452 "/>
<polyline clip-path="url(#clip550)" style="stroke:#000000; stroke-linecap:round; stroke-linejoin:round; stroke-width:4; stroke-opacity:1; fill:none" points="244.502,1173.47 2064.76,1173.47 "/>
<polyline clip-path="url(#clip550)" style="stroke:#000000; stroke-linecap:round; stroke-linejoin:round; stroke-width:4; stroke-opacity:1; fill:none" points="344.619,1173.47 344.619,1154.57 "/>
<polyline clip-path="url(#clip550)" style="stroke:#000000; stroke-linecap:round; stroke-linejoin:round; stroke-width:4; stroke-opacity:1; fill:none" points="749.624,1173.47 749.624,1154.57 "/>
<polyline clip-path="url(#clip550)" style="stroke:#000000; stroke-linecap:round; stroke-linejoin:round; stroke-width:4; stroke-opacity:1; fill:none" points="1154.63,1173.47 1154.63,1154.57 "/>
<polyline clip-path="url(#clip550)" style="stroke:#000000; stroke-linecap:round; stroke-linejoin:round; stroke-width:4; stroke-opacity:1; fill:none" points="1559.63,1173.47 1559.63,1154.57 "/>
<polyline clip-path="url(#clip550)" style="stroke:#000000; stroke-linecap:round; stroke-linejoin:round; stroke-width:4; stroke-opacity:1; fill:none" points="1964.64,1173.47 1964.64,1154.57 "/>
<path clip-path="url(#clip550)" d="M322.004 1202.09 Q318.393 1202.09 316.564 1205.65 Q314.758 1209.19 314.758 1216.32 Q314.758 1223.43 316.564 1226.99 Q318.393 1230.53 322.004 1230.53 Q325.638 1230.53 327.443 1226.99 Q329.272 1223.43 329.272 1216.32 Q329.272 1209.19 327.443 1205.65 Q325.638 1202.09 322.004 1202.09 M322.004 1198.38 Q327.814 1198.38 330.869 1202.99 Q333.948 1207.57 333.948 1216.32 Q333.948 1225.05 330.869 1229.65 Q327.814 1234.24 322.004 1234.24 Q316.193 1234.24 313.115 1229.65 Q310.059 1225.05 310.059 1216.32 Q310.059 1207.57 313.115 1202.99 Q316.193 1198.38 322.004 1198.38 Z" fill="#000000" fill-rule="nonzero" fill-opacity="1" /><path clip-path="url(#clip550)" d="M342.166 1227.69 L347.05 1227.69 L347.05 1233.57 L342.166 1233.57 L342.166 1227.69 Z" fill="#000000" fill-rule="nonzero" fill-opacity="1" /><path clip-path="url(#clip550)" d="M367.235 1202.09 Q363.624 1202.09 361.795 1205.65 Q359.99 1209.19 359.99 1216.32 Q359.99 1223.43 361.795 1226.99 Q363.624 1230.53 367.235 1230.53 Q370.869 1230.53 372.675 1226.99 Q374.503 1223.43 374.503 1216.32 Q374.503 1209.19 372.675 1205.65 Q370.869 1202.09 367.235 1202.09 M367.235 1198.38 Q373.045 1198.38 376.101 1202.99 Q379.179 1207.57 379.179 1216.32 Q379.179 1225.05 376.101 1229.65 Q373.045 1234.24 367.235 1234.24 Q361.425 1234.24 358.346 1229.65 Q355.29 1225.05 355.29 1216.32 Q355.29 1207.57 358.346 1202.99 Q361.425 1198.38 367.235 1198.38 Z" fill="#000000" fill-rule="nonzero" fill-opacity="1" /><path clip-path="url(#clip550)" d="M721.36 1229.63 L737.68 1229.63 L737.68 1233.57 L715.735 1233.57 L715.735 1229.63 Q718.397 1226.88 722.981 1222.25 Q727.587 1217.59 728.768 1216.25 Q731.013 1213.73 731.893 1211.99 Q732.795 1210.23 732.795 1208.54 Q732.795 1205.79 730.851 1204.05 Q728.93 1202.32 725.828 1202.32 Q723.629 1202.32 721.175 1203.08 Q718.745 1203.84 715.967 1205.4 L715.967 1200.67 Q718.791 1199.54 721.245 1198.96 Q723.698 1198.38 725.735 1198.38 Q731.106 1198.38 734.3 1201.07 Q737.495 1203.75 737.495 1208.24 Q737.495 1210.37 736.684 1212.29 Q735.897 1214.19 733.791 1216.78 Q733.212 1217.46 730.11 1220.67 Q727.008 1223.87 721.36 1229.63 Z" fill="#000000" fill-rule="nonzero" fill-opacity="1" /><path clip-path="url(#clip550)" d="M747.494 1227.69 L752.379 1227.69 L752.379 1233.57 L747.494 1233.57 L747.494 1227.69 Z" fill="#000000" fill-rule="nonzero" fill-opacity="1" /><path clip-path="url(#clip550)" d="M762.61 1199.01 L780.967 1199.01 L780.967 1202.94 L766.893 1202.94 L766.893 1211.41 Q767.911 1211.07 768.93 1210.9 Q769.948 1210.72 770.967 1210.72 Q776.754 1210.72 780.133 1213.89 Q783.513 1217.06 783.513 1222.48 Q783.513 1228.06 780.041 1231.16 Q776.568 1234.24 770.249 1234.24 Q768.073 1234.24 765.805 1233.87 Q763.559 1233.5 761.152 1232.76 L761.152 1228.06 Q763.235 1229.19 765.457 1229.75 Q767.68 1230.3 770.156 1230.3 Q774.161 1230.3 776.499 1228.2 Q778.837 1226.09 778.837 1222.48 Q778.837 1218.87 776.499 1216.76 Q774.161 1214.65 770.156 1214.65 Q768.281 1214.65 766.406 1215.07 Q764.555 1215.49 762.61 1216.37 L762.61 1199.01 Z" fill="#000000" fill-rule="nonzero" fill-opacity="1" /><path clip-path="url(#clip550)" d="M1121.79 1199.01 L1140.15 1199.01 L1140.15 1202.94 L1126.08 1202.94 L1126.08 1211.41 Q1127.09 1211.07 1128.11 1210.9 Q1129.13 1210.72 1130.15 1210.72 Q1135.94 1210.72 1139.32 1213.89 Q1142.7 1217.06 1142.7 1222.48 Q1142.7 1228.06 1139.22 1231.16 Q1135.75 1234.24 1129.43 1234.24 Q1127.26 1234.24 1124.99 1233.87 Q1122.74 1233.5 1120.34 1232.76 L1120.34 1228.06 Q1122.42 1229.19 1124.64 1229.75 Q1126.86 1230.3 1129.34 1230.3 Q1133.34 1230.3 1135.68 1228.2 Q1138.02 1226.09 1138.02 1222.48 Q1138.02 1218.87 1135.68 1216.76 Q1133.34 1214.65 1129.34 1214.65 Q1127.46 1214.65 1125.59 1215.07 Q1123.74 1215.49 1121.79 1216.37 L1121.79 1199.01 Z" fill="#000000" fill-rule="nonzero" fill-opacity="1" /><path clip-path="url(#clip550)" d="M1151.91 1227.69 L1156.79 1227.69 L1156.79 1233.57 L1151.91 1233.57 L1151.91 1227.69 Z" fill="#000000" fill-rule="nonzero" fill-opacity="1" /><path clip-path="url(#clip550)" d="M1176.98 1202.09 Q1173.37 1202.09 1171.54 1205.65 Q1169.73 1209.19 1169.73 1216.32 Q1169.73 1223.43 1171.54 1226.99 Q1173.37 1230.53 1176.98 1230.53 Q1180.61 1230.53 1182.42 1226.99 Q1184.25 1223.43 1184.25 1216.32 Q1184.25 1209.19 1182.42 1205.65 Q1180.61 1202.09 1176.98 1202.09 M1176.98 1198.38 Q1182.79 1198.38 1185.84 1202.99 Q1188.92 1207.57 1188.92 1216.32 Q1188.92 1225.05 1185.84 1229.65 Q1182.79 1234.24 1176.98 1234.24 Q1171.17 1234.24 1168.09 1229.65 Q1165.03 1225.05 1165.03 1216.32 Q1165.03 1207.57 1168.09 1202.99 Q1171.17 1198.38 1176.98 1198.38 Z" fill="#000000" fill-rule="nonzero" fill-opacity="1" /><path clip-path="url(#clip550)" d="M1525.95 1199.01 L1548.18 1199.01 L1548.18 1201 L1535.63 1233.57 L1530.75 1233.57 L1542.55 1202.94 L1525.95 1202.94 L1525.95 1199.01 Z" fill="#000000" fill-rule="nonzero" fill-opacity="1" /><path clip-path="url(#clip550)" d="M1557.3 1227.69 L1562.18 1227.69 L1562.18 1233.57 L1557.3 1233.57 L1557.3 1227.69 Z" fill="#000000" fill-rule="nonzero" fill-opacity="1" /><path clip-path="url(#clip550)" d="M1572.41 1199.01 L1590.77 1199.01 L1590.77 1202.94 L1576.69 1202.94 L1576.69 1211.41 Q1577.71 1211.07 1578.73 1210.9 Q1579.75 1210.72 1580.77 1210.72 Q1586.55 1210.72 1589.93 1213.89 Q1593.31 1217.06 1593.31 1222.48 Q1593.31 1228.06 1589.84 1231.16 Q1586.37 1234.24 1580.05 1234.24 Q1577.87 1234.24 1575.61 1233.87 Q1573.36 1233.5 1570.95 1232.76 L1570.95 1228.06 Q1573.04 1229.19 1575.26 1229.75 Q1577.48 1230.3 1579.96 1230.3 Q1583.96 1230.3 1586.3 1228.2 Q1588.64 1226.09 1588.64 1222.48 Q1588.64 1218.87 1586.3 1216.76 Q1583.96 1214.65 1579.96 1214.65 Q1578.08 1214.65 1576.21 1215.07 Q1574.36 1215.49 1572.41 1216.37 L1572.41 1199.01 Z" fill="#000000" fill-rule="nonzero" fill-opacity="1" /><path clip-path="url(#clip550)" d="M1916.71 1229.63 L1924.35 1229.63 L1924.35 1203.27 L1916.04 1204.93 L1916.04 1200.67 L1924.3 1199.01 L1928.98 1199.01 L1928.98 1229.63 L1936.62 1229.63 L1936.62 1233.57 L1916.71 1233.57 L1916.71 1229.63 Z" fill="#000000" fill-rule="nonzero" fill-opacity="1" /><path clip-path="url(#clip550)" d="M1956.06 1202.09 Q1952.45 1202.09 1950.62 1205.65 Q1948.82 1209.19 1948.82 1216.32 Q1948.82 1223.43 1950.62 1226.99 Q1952.45 1230.53 1956.06 1230.53 Q1959.7 1230.53 1961.5 1226.99 Q1963.33 1223.43 1963.33 1216.32 Q1963.33 1209.19 1961.5 1205.65 Q1959.7 1202.09 1956.06 1202.09 M1956.06 1198.38 Q1961.87 1198.38 1964.93 1202.99 Q1968.01 1207.57 1968.01 1216.32 Q1968.01 1225.05 1964.93 1229.65 Q1961.87 1234.24 1956.06 1234.24 Q1950.25 1234.24 1947.17 1229.65 Q1944.12 1225.05 1944.12 1216.32 Q1944.12 1207.57 1947.17 1202.99 Q1950.25 1198.38 1956.06 1198.38 Z" fill="#000000" fill-rule="nonzero" fill-opacity="1" /><path clip-path="url(#clip550)" d="M1976.22 1227.69 L1981.11 1227.69 L1981.11 1233.57 L1976.22 1233.57 L1976.22 1227.69 Z" fill="#000000" fill-rule="nonzero" fill-opacity="1" /><path clip-path="url(#clip550)" d="M2001.29 1202.09 Q1997.68 1202.09 1995.85 1205.65 Q1994.05 1209.19 1994.05 1216.32 Q1994.05 1223.43 1995.85 1226.99 Q1997.68 1230.53 2001.29 1230.53 Q2004.93 1230.53 2006.73 1226.99 Q2008.56 1223.43 2008.56 1216.32 Q2008.56 1209.19 2006.73 1205.65 Q2004.93 1202.09 2001.29 1202.09 M2001.29 1198.38 Q2007.1 1198.38 2010.16 1202.99 Q2013.24 1207.57 2013.24 1216.32 Q2013.24 1225.05 2010.16 1229.65 Q2007.1 1234.24 2001.29 1234.24 Q1995.48 1234.24 1992.4 1229.65 Q1989.35 1225.05 1989.35 1216.32 Q1989.35 1207.57 1992.4 1202.99 Q1995.48 1198.38 2001.29 1198.38 Z" fill="#000000" fill-rule="nonzero" fill-opacity="1" /><path clip-path="url(#clip550)" d="M879.328 1314.01 L879.328 1294.54 L866.056 1294.54 Q860.135 1294.54 856.602 1290.84 Q853.07 1287.12 853.07 1279.54 L853.07 1266.49 L859.467 1266.49 L859.467 1279.04 Q859.467 1284.1 861.44 1286.61 Q863.414 1289.12 867.361 1289.12 L879.328 1289.12 L879.328 1266.49 L885.789 1266.49 L885.789 1314.01 L879.328 1314.01 Z" fill="#000000" fill-rule="nonzero" fill-opacity="1" /><path clip-path="url(#clip550)" d="M928.63 1278.37 L928.63 1314.01 L922.806 1314.01 L922.806 1285.4 L905.618 1314.01 L898.107 1314.01 L898.107 1278.37 L903.932 1278.37 L903.932 1306.92 L921.087 1278.37 L928.63 1278.37 Z" fill="#000000" fill-rule="nonzero" fill-opacity="1" /><path clip-path="url(#clip550)" d="M966.347 1279.74 L966.347 1285.21 Q963.865 1283.84 961.35 1283.17 Q958.868 1282.47 956.321 1282.47 Q950.624 1282.47 947.473 1286.1 Q944.322 1289.7 944.322 1296.22 Q944.322 1302.75 947.473 1306.38 Q950.624 1309.97 956.321 1309.97 Q958.868 1309.97 961.35 1309.3 Q963.865 1308.6 966.347 1307.24 L966.347 1312.65 Q963.896 1313.79 961.255 1314.36 Q958.645 1314.94 955.685 1314.94 Q947.632 1314.94 942.89 1309.88 Q938.147 1304.82 938.147 1296.22 Q938.147 1287.5 942.921 1282.5 Q947.728 1277.51 956.067 1277.51 Q958.772 1277.51 961.35 1278.08 Q963.928 1278.62 966.347 1279.74 Z" fill="#000000" fill-rule="nonzero" fill-opacity="1" /><path clip-path="url(#clip550)" d="M972.808 1314.01 L972.808 1309.14 Q978.601 1308.25 980.384 1304.24 Q982.548 1298.61 982.548 1284.19 L982.548 1278.37 L1006.64 1278.37 L1006.64 1314.01 L1000.79 1314.01 L1000.79 1283.05 L988.404 1283.05 L988.404 1286.58 Q988.404 1300.33 985.604 1306.5 Q982.612 1313.09 972.808 1314.01 Z" fill="#000000" fill-rule="nonzero" fill-opacity="1" /><path clip-path="url(#clip550)" d="M1032.01 1282.47 Q1027.3 1282.47 1024.56 1286.16 Q1021.82 1289.83 1021.82 1296.22 Q1021.82 1302.62 1024.53 1306.31 Q1027.27 1309.97 1032.01 1309.97 Q1036.69 1309.97 1039.43 1306.28 Q1042.16 1302.59 1042.16 1296.22 Q1042.16 1289.89 1039.43 1286.2 Q1036.69 1282.47 1032.01 1282.47 M1032.01 1277.51 Q1039.65 1277.51 1044.01 1282.47 Q1048.37 1287.44 1048.37 1296.22 Q1048.37 1304.98 1044.01 1309.97 Q1039.65 1314.94 1032.01 1314.94 Q1024.34 1314.94 1019.98 1309.97 Q1015.65 1304.98 1015.65 1296.22 Q1015.65 1287.44 1019.98 1282.47 Q1024.34 1277.51 1032.01 1277.51 Z" fill="#000000" fill-rule="nonzero" fill-opacity="1" /><path clip-path="url(#clip550)" d="M1095 1296.1 Q1087.9 1296.1 1085.16 1297.72 Q1082.43 1299.34 1082.43 1303.26 Q1082.43 1306.38 1084.46 1308.22 Q1086.53 1310.04 1090.06 1310.04 Q1094.93 1310.04 1097.86 1306.6 Q1100.82 1303.13 1100.82 1297.4 L1100.82 1296.1 L1095 1296.1 M1106.68 1293.68 L1106.68 1314.01 L1100.82 1314.01 L1100.82 1308.6 Q1098.82 1311.85 1095.83 1313.41 Q1092.83 1314.94 1088.51 1314.94 Q1083.03 1314.94 1079.78 1311.88 Q1076.57 1308.79 1076.57 1303.64 Q1076.57 1297.62 1080.58 1294.57 Q1084.62 1291.51 1092.61 1291.51 L1100.82 1291.51 L1100.82 1290.94 Q1100.82 1286.9 1098.15 1284.7 Q1095.51 1282.47 1090.7 1282.47 Q1087.65 1282.47 1084.75 1283.2 Q1081.85 1283.94 1079.18 1285.4 L1079.18 1279.99 Q1082.39 1278.75 1085.42 1278.14 Q1088.44 1277.51 1091.31 1277.51 Q1099.04 1277.51 1102.86 1281.52 Q1106.68 1285.53 1106.68 1293.68 Z" fill="#000000" fill-rule="nonzero" fill-opacity="1" /><path clip-path="url(#clip550)" d="M1114.51 1278.37 L1148.66 1278.37 L1148.66 1283.05 L1134.47 1283.05 L1134.47 1314.01 L1128.7 1314.01 L1128.7 1283.05 L1114.51 1283.05 L1114.51 1278.37 Z" fill="#000000" fill-rule="nonzero" fill-opacity="1" /><path clip-path="url(#clip550)" d="M1172.91 1296.1 Q1165.82 1296.1 1163.08 1297.72 Q1160.34 1299.34 1160.34 1303.26 Q1160.34 1306.38 1162.38 1308.22 Q1164.45 1310.04 1167.98 1310.04 Q1172.85 1310.04 1175.78 1306.6 Q1178.74 1303.13 1178.74 1297.4 L1178.74 1296.1 L1172.91 1296.1 M1184.6 1293.68 L1184.6 1314.01 L1178.74 1314.01 L1178.74 1308.6 Q1176.73 1311.85 1173.74 1313.41 Q1170.75 1314.94 1166.42 1314.94 Q1160.95 1314.94 1157.7 1311.88 Q1154.49 1308.79 1154.49 1303.64 Q1154.49 1297.62 1158.5 1294.57 Q1162.54 1291.51 1170.53 1291.51 L1178.74 1291.51 L1178.74 1290.94 Q1178.74 1286.9 1176.07 1284.7 Q1173.42 1282.47 1168.62 1282.47 Q1165.56 1282.47 1162.67 1283.2 Q1159.77 1283.94 1157.1 1285.4 L1157.1 1279.99 Q1160.31 1278.75 1163.33 1278.14 Q1166.36 1277.51 1169.22 1277.51 Q1176.96 1277.51 1180.78 1281.52 Q1184.6 1285.53 1184.6 1293.68 Z" fill="#000000" fill-rule="nonzero" fill-opacity="1" /><path clip-path="url(#clip550)" d="M1196.44 1278.37 L1202.26 1278.37 L1202.26 1295.11 L1218.78 1278.37 L1225.97 1278.37 L1212.35 1292.15 L1227.72 1314.01 L1221.17 1314.01 L1208.53 1296.03 L1202.26 1302.4 L1202.26 1314.01 L1196.44 1314.01 L1196.44 1278.37 Z" fill="#000000" fill-rule="nonzero" fill-opacity="1" /><path clip-path="url(#clip550)" d="M1273.08 1294.79 Q1277.03 1295.55 1279.22 1297.88 Q1281.42 1300.2 1281.42 1303.64 Q1281.42 1309.14 1277.31 1312.04 Q1273.21 1314.94 1265.63 1314.94 Q1263.08 1314.94 1260.38 1314.49 Q1257.71 1314.05 1254.84 1313.16 L1254.84 1307.71 Q1257.1 1308.89 1259.81 1309.5 Q1262.51 1310.07 1265.47 1310.07 Q1270.28 1310.07 1272.95 1308.29 Q1275.66 1306.5 1275.66 1303.64 Q1275.66 1300.84 1273.27 1299.15 Q1270.88 1297.43 1266.52 1297.43 L1261.81 1297.43 L1261.81 1292.59 L1266.74 1292.59 Q1270.44 1292.59 1272.57 1291.19 Q1274.73 1289.76 1274.73 1287.53 Q1274.73 1285.5 1272.51 1284.03 Q1270.31 1282.57 1266.52 1282.57 Q1264.26 1282.57 1261.68 1282.98 Q1259.14 1283.4 1256.05 1284.32 L1256.05 1279 Q1259.17 1278.24 1261.88 1277.86 Q1264.58 1277.48 1267 1277.48 Q1273.24 1277.48 1276.83 1279.99 Q1280.46 1282.47 1280.46 1286.96 Q1280.46 1289.92 1278.55 1291.99 Q1276.64 1294.03 1273.08 1294.79 Z" fill="#000000" fill-rule="nonzero" fill-opacity="1" /><path clip-path="url(#clip550)" d="M1307.61 1296.1 Q1300.52 1296.1 1297.78 1297.72 Q1295.04 1299.34 1295.04 1303.26 Q1295.04 1306.38 1297.08 1308.22 Q1299.15 1310.04 1302.68 1310.04 Q1307.55 1310.04 1310.48 1306.6 Q1313.44 1303.13 1313.44 1297.4 L1313.44 1296.1 L1307.61 1296.1 M1319.29 1293.68 L1319.29 1314.01 L1313.44 1314.01 L1313.44 1308.6 Q1311.43 1311.85 1308.44 1313.41 Q1305.45 1314.94 1301.12 1314.94 Q1295.65 1314.94 1292.4 1311.88 Q1289.18 1308.79 1289.18 1303.64 Q1289.18 1297.62 1293.19 1294.57 Q1297.24 1291.51 1305.23 1291.51 L1313.44 1291.51 L1313.44 1290.94 Q1313.44 1286.9 1310.76 1284.7 Q1308.12 1282.47 1303.32 1282.47 Q1300.26 1282.47 1297.36 1283.2 Q1294.47 1283.94 1291.79 1285.4 L1291.79 1279.99 Q1295.01 1278.75 1298.03 1278.14 Q1301.06 1277.51 1303.92 1277.51 Q1311.66 1277.51 1315.47 1281.52 Q1319.29 1285.53 1319.29 1293.68 Z" fill="#000000" fill-rule="nonzero" fill-opacity="1" /><path clip-path="url(#clip550)" d="M1372.67 1314.01 L1372.67 1299.02 L1361.75 1299.02 Q1356.88 1299.02 1353.64 1296 Q1350.71 1293.26 1350.71 1287.41 L1350.71 1278.37 L1356.57 1278.37 L1356.57 1286.87 Q1356.57 1290.59 1358.22 1292.47 Q1359.91 1294.34 1363.22 1294.34 L1372.67 1294.34 L1372.67 1278.37 L1378.53 1278.37 L1378.53 1314.01 L1372.67 1314.01 Z" fill="#000000" fill-rule="nonzero" fill-opacity="1" /><path clip-path="url(#clip550)" d="M1406.79 1296.1 Q1399.69 1296.1 1396.96 1297.72 Q1394.22 1299.34 1394.22 1303.26 Q1394.22 1306.38 1396.26 1308.22 Q1398.32 1310.04 1401.86 1310.04 Q1406.73 1310.04 1409.66 1306.6 Q1412.62 1303.13 1412.62 1297.4 L1412.62 1296.1 L1406.79 1296.1 M1418.47 1293.68 L1418.47 1314.01 L1412.62 1314.01 L1412.62 1308.6 Q1410.61 1311.85 1407.62 1313.41 Q1404.63 1314.94 1400.3 1314.94 Q1394.82 1314.94 1391.58 1311.88 Q1388.36 1308.79 1388.36 1303.64 Q1388.36 1297.62 1392.37 1294.57 Q1396.41 1291.51 1404.4 1291.51 L1412.62 1291.51 L1412.62 1290.94 Q1412.62 1286.9 1409.94 1284.7 Q1407.3 1282.47 1402.49 1282.47 Q1399.44 1282.47 1396.54 1283.2 Q1393.65 1283.94 1390.97 1285.4 L1390.97 1279.99 Q1394.19 1278.75 1397.21 1278.14 Q1400.23 1277.51 1403.1 1277.51 Q1410.83 1277.51 1414.65 1281.52 Q1418.47 1285.53 1418.47 1293.68 Z" fill="#000000" fill-rule="nonzero" fill-opacity="1" /><path clip-path="url(#clip550)" d="M1456.19 1279.74 L1456.19 1285.21 Q1453.71 1283.84 1451.19 1283.17 Q1448.71 1282.47 1446.16 1282.47 Q1440.47 1282.47 1437.31 1286.1 Q1434.16 1289.7 1434.16 1296.22 Q1434.16 1302.75 1437.31 1306.38 Q1440.47 1309.97 1446.16 1309.97 Q1448.71 1309.97 1451.19 1309.3 Q1453.71 1308.6 1456.19 1307.24 L1456.19 1312.65 Q1453.74 1313.79 1451.1 1314.36 Q1448.49 1314.94 1445.53 1314.94 Q1437.47 1314.94 1432.73 1309.88 Q1427.99 1304.82 1427.99 1296.22 Q1427.99 1287.5 1432.76 1282.5 Q1437.57 1277.51 1445.91 1277.51 Q1448.61 1277.51 1451.19 1278.08 Q1453.77 1278.62 1456.19 1279.74 Z" fill="#000000" fill-rule="nonzero" fill-opacity="1" /><polyline clip-path="url(#clip550)" style="stroke:#000000; stroke-linecap:round; stroke-linejoin:round; stroke-width:4; stroke-opacity:1; fill:none" points="244.502,1173.47 244.502,120.723 "/>
<polyline clip-path="url(#clip550)" style="stroke:#000000; stroke-linecap:round; stroke-linejoin:round; stroke-width:4; stroke-opacity:1; fill:none" points="244.502,1173.47 263.4,1173.47 "/>
<polyline clip-path="url(#clip550)" style="stroke:#000000; stroke-linecap:round; stroke-linejoin:round; stroke-width:4; stroke-opacity:1; fill:none" points="244.502,980.467 263.4,980.467 "/>
<polyline clip-path="url(#clip550)" style="stroke:#000000; stroke-linecap:round; stroke-linejoin:round; stroke-width:4; stroke-opacity:1; fill:none" points="244.502,787.463 263.4,787.463 "/>
<polyline clip-path="url(#clip550)" style="stroke:#000000; stroke-linecap:round; stroke-linejoin:round; stroke-width:4; stroke-opacity:1; fill:none" points="244.502,594.46 263.4,594.46 "/>
<polyline clip-path="url(#clip550)" style="stroke:#000000; stroke-linecap:round; stroke-linejoin:round; stroke-width:4; stroke-opacity:1; fill:none" points="244.502,401.456 263.4,401.456 "/>
<polyline clip-path="url(#clip550)" style="stroke:#000000; stroke-linecap:round; stroke-linejoin:round; stroke-width:4; stroke-opacity:1; fill:none" points="244.502,208.452 263.4,208.452 "/>
<path clip-path="url(#clip550)" d="M125.485 1159.27 Q121.873 1159.27 120.045 1162.83 Q118.239 1166.38 118.239 1173.51 Q118.239 1180.61 120.045 1184.18 Q121.873 1187.72 125.485 1187.72 Q129.119 1187.72 130.924 1184.18 Q132.753 1180.61 132.753 1173.51 Q132.753 1166.38 130.924 1162.83 Q129.119 1159.27 125.485 1159.27 M125.485 1155.57 Q131.295 1155.57 134.35 1160.17 Q137.429 1164.76 137.429 1173.51 Q137.429 1182.23 134.35 1186.84 Q131.295 1191.42 125.485 1191.42 Q119.674 1191.42 116.596 1186.84 Q113.54 1182.23 113.54 1173.51 Q113.54 1164.76 116.596 1160.17 Q119.674 1155.57 125.485 1155.57 Z" fill="#000000" fill-rule="nonzero" fill-opacity="1" /><path clip-path="url(#clip550)" d="M145.646 1184.87 L150.531 1184.87 L150.531 1190.75 L145.646 1190.75 L145.646 1184.87 Z" fill="#000000" fill-rule="nonzero" fill-opacity="1" /><path clip-path="url(#clip550)" d="M170.716 1159.27 Q167.105 1159.27 165.276 1162.83 Q163.47 1166.38 163.47 1173.51 Q163.47 1180.61 165.276 1184.18 Q167.105 1187.72 170.716 1187.72 Q174.35 1187.72 176.156 1184.18 Q177.984 1180.61 177.984 1173.51 Q177.984 1166.38 176.156 1162.83 Q174.35 1159.27 170.716 1159.27 M170.716 1155.57 Q176.526 1155.57 179.581 1160.17 Q182.66 1164.76 182.66 1173.51 Q182.66 1182.23 179.581 1186.84 Q176.526 1191.42 170.716 1191.42 Q164.906 1191.42 161.827 1186.84 Q158.771 1182.23 158.771 1173.51 Q158.771 1164.76 161.827 1160.17 Q164.906 1155.57 170.716 1155.57 Z" fill="#000000" fill-rule="nonzero" fill-opacity="1" /><path clip-path="url(#clip550)" d="M200.878 1159.27 Q197.267 1159.27 195.438 1162.83 Q193.632 1166.38 193.632 1173.51 Q193.632 1180.61 195.438 1184.18 Q197.267 1187.72 200.878 1187.72 Q204.512 1187.72 206.317 1184.18 Q208.146 1180.61 208.146 1173.51 Q208.146 1166.38 206.317 1162.83 Q204.512 1159.27 200.878 1159.27 M200.878 1155.57 Q206.688 1155.57 209.743 1160.17 Q212.822 1164.76 212.822 1173.51 Q212.822 1182.23 209.743 1186.84 Q206.688 1191.42 200.878 1191.42 Q195.067 1191.42 191.989 1186.84 Q188.933 1182.23 188.933 1173.51 Q188.933 1164.76 191.989 1160.17 Q195.067 1155.57 200.878 1155.57 Z" fill="#000000" fill-rule="nonzero" fill-opacity="1" /><path clip-path="url(#clip550)" d="M126.48 966.266 Q122.869 966.266 121.04 969.83 Q119.235 973.372 119.235 980.502 Q119.235 987.608 121.04 991.173 Q122.869 994.715 126.48 994.715 Q130.114 994.715 131.92 991.173 Q133.748 987.608 133.748 980.502 Q133.748 973.372 131.92 969.83 Q130.114 966.266 126.48 966.266 M126.48 962.562 Q132.29 962.562 135.346 967.168 Q138.424 971.752 138.424 980.502 Q138.424 989.229 135.346 993.835 Q132.29 998.418 126.48 998.418 Q120.67 998.418 117.591 993.835 Q114.536 989.229 114.536 980.502 Q114.536 971.752 117.591 967.168 Q120.67 962.562 126.48 962.562 Z" fill="#000000" fill-rule="nonzero" fill-opacity="1" /><path clip-path="url(#clip550)" d="M146.642 991.867 L151.526 991.867 L151.526 997.747 L146.642 997.747 L146.642 991.867 Z" fill="#000000" fill-rule="nonzero" fill-opacity="1" /><path clip-path="url(#clip550)" d="M171.711 966.266 Q168.1 966.266 166.271 969.83 Q164.466 973.372 164.466 980.502 Q164.466 987.608 166.271 991.173 Q168.1 994.715 171.711 994.715 Q175.345 994.715 177.151 991.173 Q178.98 987.608 178.98 980.502 Q178.98 973.372 177.151 969.83 Q175.345 966.266 171.711 966.266 M171.711 962.562 Q177.521 962.562 180.577 967.168 Q183.656 971.752 183.656 980.502 Q183.656 989.229 180.577 993.835 Q177.521 998.418 171.711 998.418 Q165.901 998.418 162.822 993.835 Q159.767 989.229 159.767 980.502 Q159.767 971.752 162.822 967.168 Q165.901 962.562 171.711 962.562 Z" fill="#000000" fill-rule="nonzero" fill-opacity="1" /><path clip-path="url(#clip550)" d="M191.919 963.187 L210.276 963.187 L210.276 967.122 L196.202 967.122 L196.202 975.594 Q197.22 975.247 198.239 975.085 Q199.257 974.9 200.276 974.9 Q206.063 974.9 209.442 978.071 Q212.822 981.242 212.822 986.659 Q212.822 992.238 209.35 995.34 Q205.878 998.418 199.558 998.418 Q197.382 998.418 195.114 998.048 Q192.868 997.678 190.461 996.937 L190.461 992.238 Q192.544 993.372 194.767 993.928 Q196.989 994.483 199.466 994.483 Q203.47 994.483 205.808 992.377 Q208.146 990.27 208.146 986.659 Q208.146 983.048 205.808 980.942 Q203.47 978.835 199.466 978.835 Q197.591 978.835 195.716 979.252 Q193.864 979.668 191.919 980.548 L191.919 963.187 Z" fill="#000000" fill-rule="nonzero" fill-opacity="1" /><path clip-path="url(#clip550)" d="M125.485 773.262 Q121.873 773.262 120.045 776.827 Q118.239 780.368 118.239 787.498 Q118.239 794.604 120.045 798.169 Q121.873 801.711 125.485 801.711 Q129.119 801.711 130.924 798.169 Q132.753 794.604 132.753 787.498 Q132.753 780.368 130.924 776.827 Q129.119 773.262 125.485 773.262 M125.485 769.558 Q131.295 769.558 134.35 774.165 Q137.429 778.748 137.429 787.498 Q137.429 796.225 134.35 800.831 Q131.295 805.415 125.485 805.415 Q119.674 805.415 116.596 800.831 Q113.54 796.225 113.54 787.498 Q113.54 778.748 116.596 774.165 Q119.674 769.558 125.485 769.558 Z" fill="#000000" fill-rule="nonzero" fill-opacity="1" /><path clip-path="url(#clip550)" d="M145.646 798.864 L150.531 798.864 L150.531 804.743 L145.646 804.743 L145.646 798.864 Z" fill="#000000" fill-rule="nonzero" fill-opacity="1" /><path clip-path="url(#clip550)" d="M161.526 800.808 L169.165 800.808 L169.165 774.442 L160.855 776.109 L160.855 771.85 L169.119 770.183 L173.794 770.183 L173.794 800.808 L181.433 800.808 L181.433 804.743 L161.526 804.743 L161.526 800.808 Z" fill="#000000" fill-rule="nonzero" fill-opacity="1" /><path clip-path="url(#clip550)" d="M200.878 773.262 Q197.267 773.262 195.438 776.827 Q193.632 780.368 193.632 787.498 Q193.632 794.604 195.438 798.169 Q197.267 801.711 200.878 801.711 Q204.512 801.711 206.317 798.169 Q208.146 794.604 208.146 787.498 Q208.146 780.368 206.317 776.827 Q204.512 773.262 200.878 773.262 M200.878 769.558 Q206.688 769.558 209.743 774.165 Q212.822 778.748 212.822 787.498 Q212.822 796.225 209.743 800.831 Q206.688 805.415 200.878 805.415 Q195.067 805.415 191.989 800.831 Q188.933 796.225 188.933 787.498 Q188.933 778.748 191.989 774.165 Q195.067 769.558 200.878 769.558 Z" fill="#000000" fill-rule="nonzero" fill-opacity="1" /><path clip-path="url(#clip550)" d="M126.48 580.258 Q122.869 580.258 121.04 583.823 Q119.235 587.365 119.235 594.494 Q119.235 601.601 121.04 605.165 Q122.869 608.707 126.48 608.707 Q130.114 608.707 131.92 605.165 Q133.748 601.601 133.748 594.494 Q133.748 587.365 131.92 583.823 Q130.114 580.258 126.48 580.258 M126.48 576.555 Q132.29 576.555 135.346 581.161 Q138.424 585.744 138.424 594.494 Q138.424 603.221 135.346 607.827 Q132.29 612.411 126.48 612.411 Q120.67 612.411 117.591 607.827 Q114.536 603.221 114.536 594.494 Q114.536 585.744 117.591 581.161 Q120.67 576.555 126.48 576.555 Z" fill="#000000" fill-rule="nonzero" fill-opacity="1" /><path clip-path="url(#clip550)" d="M146.642 605.86 L151.526 605.86 L151.526 611.74 L146.642 611.74 L146.642 605.86 Z" fill="#000000" fill-rule="nonzero" fill-opacity="1" /><path clip-path="url(#clip550)" d="M162.521 607.804 L170.16 607.804 L170.16 581.439 L161.85 583.105 L161.85 578.846 L170.114 577.18 L174.79 577.18 L174.79 607.804 L182.429 607.804 L182.429 611.74 L162.521 611.74 L162.521 607.804 Z" fill="#000000" fill-rule="nonzero" fill-opacity="1" /><path clip-path="url(#clip550)" d="M191.919 577.18 L210.276 577.18 L210.276 581.115 L196.202 581.115 L196.202 589.587 Q197.22 589.24 198.239 589.078 Q199.257 588.892 200.276 588.892 Q206.063 588.892 209.442 592.064 Q212.822 595.235 212.822 600.652 Q212.822 606.23 209.35 609.332 Q205.878 612.411 199.558 612.411 Q197.382 612.411 195.114 612.04 Q192.868 611.67 190.461 610.929 L190.461 606.23 Q192.544 607.365 194.767 607.92 Q196.989 608.476 199.466 608.476 Q203.47 608.476 205.808 606.369 Q208.146 604.263 208.146 600.652 Q208.146 597.041 205.808 594.934 Q203.47 592.828 199.466 592.828 Q197.591 592.828 195.716 593.244 Q193.864 593.661 191.919 594.541 L191.919 577.18 Z" fill="#000000" fill-rule="nonzero" fill-opacity="1" /><path clip-path="url(#clip550)" d="M125.485 387.254 Q121.873 387.254 120.045 390.819 Q118.239 394.361 118.239 401.49 Q118.239 408.597 120.045 412.162 Q121.873 415.703 125.485 415.703 Q129.119 415.703 130.924 412.162 Q132.753 408.597 132.753 401.49 Q132.753 394.361 130.924 390.819 Q129.119 387.254 125.485 387.254 M125.485 383.551 Q131.295 383.551 134.35 388.157 Q137.429 392.741 137.429 401.49 Q137.429 410.217 134.35 414.824 Q131.295 419.407 125.485 419.407 Q119.674 419.407 116.596 414.824 Q113.54 410.217 113.54 401.49 Q113.54 392.741 116.596 388.157 Q119.674 383.551 125.485 383.551 Z" fill="#000000" fill-rule="nonzero" fill-opacity="1" /><path clip-path="url(#clip550)" d="M145.646 412.856 L150.531 412.856 L150.531 418.736 L145.646 418.736 L145.646 412.856 Z" fill="#000000" fill-rule="nonzero" fill-opacity="1" /><path clip-path="url(#clip550)" d="M164.744 414.801 L181.063 414.801 L181.063 418.736 L159.119 418.736 L159.119 414.801 Q161.781 412.046 166.364 407.416 Q170.97 402.764 172.151 401.421 Q174.396 398.898 175.276 397.162 Q176.179 395.403 176.179 393.713 Q176.179 390.958 174.234 389.222 Q172.313 387.486 169.211 387.486 Q167.012 387.486 164.558 388.25 Q162.128 389.014 159.35 390.565 L159.35 385.842 Q162.174 384.708 164.628 384.129 Q167.082 383.551 169.119 383.551 Q174.489 383.551 177.683 386.236 Q180.878 388.921 180.878 393.412 Q180.878 395.541 180.068 397.463 Q179.281 399.361 177.174 401.953 Q176.595 402.625 173.494 405.842 Q170.392 409.037 164.744 414.801 Z" fill="#000000" fill-rule="nonzero" fill-opacity="1" /><path clip-path="url(#clip550)" d="M200.878 387.254 Q197.267 387.254 195.438 390.819 Q193.632 394.361 193.632 401.49 Q193.632 408.597 195.438 412.162 Q197.267 415.703 200.878 415.703 Q204.512 415.703 206.317 412.162 Q208.146 408.597 208.146 401.49 Q208.146 394.361 206.317 390.819 Q204.512 387.254 200.878 387.254 M200.878 383.551 Q206.688 383.551 209.743 388.157 Q212.822 392.741 212.822 401.49 Q212.822 410.217 209.743 414.824 Q206.688 419.407 200.878 419.407 Q195.067 419.407 191.989 414.824 Q188.933 410.217 188.933 401.49 Q188.933 392.741 191.989 388.157 Q195.067 383.551 200.878 383.551 Z" fill="#000000" fill-rule="nonzero" fill-opacity="1" /><path clip-path="url(#clip550)" d="M126.48 194.251 Q122.869 194.251 121.04 197.815 Q119.235 201.357 119.235 208.487 Q119.235 215.593 121.04 219.158 Q122.869 222.7 126.48 222.7 Q130.114 222.7 131.92 219.158 Q133.748 215.593 133.748 208.487 Q133.748 201.357 131.92 197.815 Q130.114 194.251 126.48 194.251 M126.48 190.547 Q132.29 190.547 135.346 195.153 Q138.424 199.737 138.424 208.487 Q138.424 217.214 135.346 221.82 Q132.29 226.403 126.48 226.403 Q120.67 226.403 117.591 221.82 Q114.536 217.214 114.536 208.487 Q114.536 199.737 117.591 195.153 Q120.67 190.547 126.48 190.547 Z" fill="#000000" fill-rule="nonzero" fill-opacity="1" /><path clip-path="url(#clip550)" d="M146.642 219.852 L151.526 219.852 L151.526 225.732 L146.642 225.732 L146.642 219.852 Z" fill="#000000" fill-rule="nonzero" fill-opacity="1" /><path clip-path="url(#clip550)" d="M165.739 221.797 L182.058 221.797 L182.058 225.732 L160.114 225.732 L160.114 221.797 Q162.776 219.042 167.359 214.413 Q171.966 209.76 173.146 208.417 Q175.392 205.894 176.271 204.158 Q177.174 202.399 177.174 200.709 Q177.174 197.954 175.23 196.218 Q173.308 194.482 170.207 194.482 Q168.007 194.482 165.554 195.246 Q163.123 196.01 160.345 197.561 L160.345 192.839 Q163.17 191.704 165.623 191.126 Q168.077 190.547 170.114 190.547 Q175.484 190.547 178.679 193.232 Q181.873 195.917 181.873 200.408 Q181.873 202.538 181.063 204.459 Q180.276 206.357 178.169 208.95 Q177.591 209.621 174.489 212.839 Q171.387 216.033 165.739 221.797 Z" fill="#000000" fill-rule="nonzero" fill-opacity="1" /><path clip-path="url(#clip550)" d="M191.919 191.172 L210.276 191.172 L210.276 195.107 L196.202 195.107 L196.202 203.579 Q197.22 203.232 198.239 203.07 Q199.257 202.885 200.276 202.885 Q206.063 202.885 209.442 206.056 Q212.822 209.227 212.822 214.644 Q212.822 220.223 209.35 223.325 Q205.878 226.403 199.558 226.403 Q197.382 226.403 195.114 226.033 Q192.868 225.663 190.461 224.922 L190.461 220.223 Q192.544 221.357 194.767 221.913 Q196.989 222.468 199.466 222.468 Q203.47 222.468 205.808 220.362 Q208.146 218.255 208.146 214.644 Q208.146 211.033 205.808 208.927 Q203.47 206.82 199.466 206.82 Q197.591 206.82 195.716 207.237 Q193.864 207.653 191.919 208.533 L191.919 191.172 Z" fill="#000000" fill-rule="nonzero" fill-opacity="1" /><path clip-path="url(#clip550)" d="M44.9104 854.539 L62.3206 854.539 L62.3206 844.227 Q62.3206 839.039 60.1881 836.556 Q58.0238 834.042 53.5996 834.042 Q49.1436 834.042 47.0429 836.556 Q44.9104 839.039 44.9104 844.227 L44.9104 854.539 M25.3677 854.539 L39.6905 854.539 L39.6905 845.023 Q39.6905 840.312 37.94 838.02 Q36.1576 835.697 32.5291 835.697 Q28.9325 835.697 27.1501 838.02 Q25.3677 840.312 25.3677 845.023 L25.3677 854.539 M20.0842 860.969 L20.0842 844.545 Q20.0842 837.193 23.1397 833.214 Q26.1952 829.236 31.8289 829.236 Q36.1894 829.236 38.7675 831.273 Q41.3456 833.31 41.9822 837.256 Q43.0007 832.514 46.2472 829.904 Q49.4619 827.262 54.2998 827.262 Q60.6655 827.262 64.1348 831.591 Q67.6042 835.92 67.6042 843.909 L67.6042 860.969 L20.0842 860.969 Z" fill="#000000" fill-rule="nonzero" fill-opacity="1" /><path clip-path="url(#clip550)" d="M48.3161 786.013 L51.1806 786.013 L51.1806 812.939 Q57.2281 812.558 60.4109 809.311 Q63.5619 806.033 63.5619 800.208 Q63.5619 796.834 62.7344 793.683 Q61.9069 790.5 60.2518 787.381 L65.7899 787.381 Q67.1267 790.532 67.827 793.842 Q68.5272 797.153 68.5272 800.558 Q68.5272 809.088 63.5619 814.085 Q58.5967 819.051 50.1303 819.051 Q41.3774 819.051 36.2531 814.34 Q31.0968 809.597 31.0968 801.577 Q31.0968 794.383 35.7438 790.214 Q40.3589 786.013 48.3161 786.013 M46.5973 791.869 Q41.7912 791.933 38.9266 794.574 Q36.0621 797.184 36.0621 801.513 Q36.0621 806.415 38.8312 809.375 Q41.6002 812.303 46.6292 812.748 L46.5973 791.869 Z" fill="#000000" fill-rule="nonzero" fill-opacity="1" /><path clip-path="url(#clip550)" d="M62.257 770.735 L81.1631 770.735 L81.1631 776.623 L31.9562 776.623 L31.9562 770.735 L37.3671 770.735 Q34.1842 768.889 32.6564 766.088 Q31.0968 763.255 31.0968 759.34 Q31.0968 752.847 36.2531 748.805 Q41.4093 744.731 49.812 744.731 Q58.2147 744.731 63.371 748.805 Q68.5272 752.847 68.5272 759.34 Q68.5272 763.255 66.9994 766.088 Q65.4398 768.889 62.257 770.735 M49.812 750.81 Q43.3508 750.81 39.6905 753.484 Q35.9984 756.126 35.9984 760.772 Q35.9984 765.419 39.6905 768.093 Q43.3508 770.735 49.812 770.735 Q56.2732 770.735 59.9653 768.093 Q63.6256 765.419 63.6256 760.772 Q63.6256 756.126 59.9653 753.484 Q56.2732 750.81 49.812 750.81 Z" fill="#000000" fill-rule="nonzero" fill-opacity="1" /><path clip-path="url(#clip550)" d="M36.0621 721.21 Q36.0621 725.92 39.7542 728.658 Q43.4145 731.395 49.812 731.395 Q56.2095 731.395 59.9017 728.689 Q63.5619 725.952 63.5619 721.21 Q63.5619 716.531 59.8698 713.794 Q56.1777 711.056 49.812 711.056 Q43.4781 711.056 39.786 713.794 Q36.0621 716.531 36.0621 721.21 M31.0968 721.21 Q31.0968 713.571 36.0621 709.21 Q41.0273 704.85 49.812 704.85 Q58.5649 704.85 63.5619 709.21 Q68.5272 713.571 68.5272 721.21 Q68.5272 728.88 63.5619 733.241 Q58.5649 737.569 49.812 737.569 Q41.0273 737.569 36.0621 733.241 Q31.0968 728.88 31.0968 721.21 Z" fill="#000000" fill-rule="nonzero" fill-opacity="1" /><path clip-path="url(#clip550)" d="M42.2368 689.254 Q44.8786 689.254 46.3745 687.217 Q47.8705 685.18 47.8705 681.392 L47.8705 673.499 L36.635 673.499 L36.635 681.392 Q36.635 685.18 38.0991 687.217 Q39.5632 689.254 42.2368 689.254 M67.6042 697.593 L51.9763 686.708 Q51.1488 690.4 48.9845 692.85 Q46.7883 695.301 42.2368 695.301 Q37.0806 695.301 34.5343 691.896 Q31.9562 688.458 31.9562 681.551 L31.9562 667.61 L67.6042 667.61 L67.6042 673.499 L52.5493 673.499 L52.5493 680.787 L67.6042 691.291 L67.6042 697.593 Z" fill="#000000" fill-rule="nonzero" fill-opacity="1" /><path clip-path="url(#clip550)" d="M31.9562 660.163 L31.9562 626.01 L36.635 626.01 L36.635 640.206 L67.6042 640.206 L67.6042 645.967 L36.635 645.967 L36.635 660.163 L31.9562 660.163 Z" fill="#000000" fill-rule="nonzero" fill-opacity="1" /><path clip-path="url(#clip550)" d="M31.9562 618.181 L31.9562 612.292 L46.5018 612.292 L46.5018 593.291 L31.9562 593.291 L31.9562 587.402 L67.6042 587.402 L67.6042 593.291 L51.1806 593.291 L51.1806 612.292 L67.6042 612.292 L67.6042 618.181 L31.9562 618.181 Z" fill="#000000" fill-rule="nonzero" fill-opacity="1" /><path clip-path="url(#clip550)" d="M36.0621 561.526 Q36.0621 566.237 39.7542 568.974 Q43.4145 571.711 49.812 571.711 Q56.2095 571.711 59.9017 569.006 Q63.5619 566.268 63.5619 561.526 Q63.5619 556.847 59.8698 554.11 Q56.1777 551.373 49.812 551.373 Q43.4781 551.373 39.786 554.11 Q36.0621 556.847 36.0621 561.526 M31.0968 561.526 Q31.0968 553.887 36.0621 549.527 Q41.0273 545.166 49.812 545.166 Q58.5649 545.166 63.5619 549.527 Q68.5272 553.887 68.5272 561.526 Q68.5272 569.197 63.5619 573.557 Q58.5649 577.886 49.812 577.886 Q41.0273 577.886 36.0621 573.557 Q31.0968 569.197 31.0968 561.526 Z" fill="#000000" fill-rule="nonzero" fill-opacity="1" /><path clip-path="url(#clip550)" d="M33.3248 509.805 L38.7993 509.805 Q37.4307 512.287 36.7623 514.802 Q36.0621 517.284 36.0621 519.831 Q36.0621 525.528 39.6905 528.679 Q43.2872 531.83 49.812 531.83 Q56.3369 531.83 59.9653 528.679 Q63.5619 525.528 63.5619 519.831 Q63.5619 517.284 62.8935 514.802 Q62.1933 512.287 60.8247 509.805 L66.2355 509.805 Q67.3814 512.255 67.9543 514.897 Q68.5272 517.507 68.5272 520.467 Q68.5272 528.52 63.4664 533.262 Q58.4057 538.005 49.812 538.005 Q41.091 538.005 36.0939 533.23 Q31.0968 528.424 31.0968 520.085 Q31.0968 517.38 31.6697 514.802 Q32.2108 512.223 33.3248 509.805 Z" fill="#000000" fill-rule="nonzero" fill-opacity="1" /><path clip-path="url(#clip550)" d="M31.9562 503.853 L31.9562 469.701 L36.635 469.701 L36.635 483.896 L67.6042 483.896 L67.6042 489.657 L36.635 489.657 L36.635 503.853 L31.9562 503.853 Z" fill="#000000" fill-rule="nonzero" fill-opacity="1" /><path clip-path="url(#clip550)" d="M57.0371 439.463 Q54.1725 439.463 52.6766 441.564 Q51.1806 443.633 51.1806 447.643 L51.1806 455.982 L62.9254 455.982 L62.9254 447.643 Q62.9254 443.633 61.4294 441.564 Q59.9017 439.463 57.0371 439.463 M31.9562 461.871 L31.9562 455.982 L46.5018 455.982 L46.5018 447.389 Q46.5018 440.577 49.1118 436.917 Q51.6899 433.225 57.0371 433.225 Q62.3843 433.225 64.9942 436.917 Q67.6042 440.577 67.6042 447.389 L67.6042 461.871 L31.9562 461.871 Z" fill="#000000" fill-rule="nonzero" fill-opacity="1" /><path clip-path="url(#clip550)" d="M432.191 18.8205 L432.191 41.5461 L442.48 41.5461 Q448.192 41.5461 451.311 38.5889 Q454.43 35.6318 454.43 30.163 Q454.43 24.7348 451.311 21.7777 Q448.192 18.8205 442.48 18.8205 L432.191 18.8205 M424.008 12.096 L442.48 12.096 Q452.648 12.096 457.833 16.714 Q463.059 21.2916 463.059 30.163 Q463.059 39.1155 457.833 43.6931 Q452.648 48.2706 442.48 48.2706 L432.191 48.2706 L432.191 72.576 L424.008 72.576 L424.008 12.096 Z" fill="#000000" fill-rule="nonzero" fill-opacity="1" /><path clip-path="url(#clip550)" d="M494.332 49.7694 Q485.298 49.7694 481.814 51.8354 Q478.331 53.9013 478.331 58.8839 Q478.331 62.8538 480.923 65.2034 Q483.556 67.5124 488.053 67.5124 Q494.251 67.5124 497.977 63.1374 Q501.745 58.7219 501.745 51.4303 L501.745 49.7694 L494.332 49.7694 M509.198 46.6907 L509.198 72.576 L501.745 72.576 L501.745 65.6895 Q499.193 69.8214 495.385 71.8063 Q491.577 73.7508 486.068 73.7508 Q479.1 73.7508 474.968 69.8619 Q470.877 65.9325 470.877 59.3701 Q470.877 51.7138 475.981 47.825 Q481.126 43.9361 491.293 43.9361 L501.745 43.9361 L501.745 43.2069 Q501.745 38.0623 498.342 35.2672 Q494.98 32.4315 488.863 32.4315 Q484.974 32.4315 481.288 33.3632 Q477.601 34.295 474.199 36.1584 L474.199 29.2718 Q478.29 27.692 482.138 26.9223 Q485.987 26.1121 489.633 26.1121 Q499.476 26.1121 504.337 31.2163 Q509.198 36.3204 509.198 46.6907 Z" fill="#000000" fill-rule="nonzero" fill-opacity="1" /><path clip-path="url(#clip550)" d="M557.202 28.9478 L557.202 35.9153 Q554.042 34.1734 550.842 33.3227 Q547.682 32.4315 544.441 32.4315 Q537.19 32.4315 533.18 37.0496 Q529.169 41.6271 529.169 49.9314 Q529.169 58.2358 533.18 62.8538 Q537.19 67.4314 544.441 67.4314 Q547.682 67.4314 550.842 66.5807 Q554.042 65.6895 557.202 63.9476 L557.202 70.8341 Q554.082 72.2924 550.72 73.0216 Q547.398 73.7508 543.631 73.7508 Q533.382 73.7508 527.346 67.3098 Q521.311 60.8689 521.311 49.9314 Q521.311 38.832 527.387 32.472 Q533.504 26.1121 544.117 26.1121 Q547.56 26.1121 550.842 26.8413 Q554.123 27.5299 557.202 28.9478 Z" fill="#000000" fill-rule="nonzero" fill-opacity="1" /><path clip-path="url(#clip550)" d="M609.053 27.2059 L609.053 72.576 L601.559 72.576 L601.559 33.1607 L577.375 33.1607 L577.375 72.576 L569.881 72.576 L569.881 27.2059 L609.053 27.2059 Z" fill="#000000" fill-rule="nonzero" fill-opacity="1" /><path clip-path="url(#clip550)" d="M631.617 65.7705 L631.617 89.8329 L624.123 89.8329 L624.123 27.2059 L631.617 27.2059 L631.617 34.0924 Q633.966 30.0415 637.531 28.0971 Q641.136 26.1121 646.119 26.1121 Q654.383 26.1121 659.527 32.6746 Q664.713 39.2371 664.713 49.9314 Q664.713 60.6258 659.527 67.1883 Q654.383 73.7508 646.119 73.7508 Q641.136 73.7508 637.531 71.8063 Q633.966 69.8214 631.617 65.7705 M656.975 49.9314 Q656.975 41.7081 653.573 37.0496 Q650.21 32.3505 644.296 32.3505 Q638.382 32.3505 634.979 37.0496 Q631.617 41.7081 631.617 49.9314 Q631.617 58.1548 634.979 62.8538 Q638.382 67.5124 644.296 67.5124 Q650.21 67.5124 653.573 62.8538 Q656.975 58.1548 656.975 49.9314 Z" fill="#000000" fill-rule="nonzero" fill-opacity="1" /><path clip-path="url(#clip550)" d="M715.876 48.0275 L715.876 51.6733 L681.605 51.6733 Q682.091 59.3701 686.223 63.421 Q690.395 67.4314 697.809 67.4314 Q702.102 67.4314 706.113 66.3781 Q710.164 65.3249 714.134 63.2184 L714.134 70.267 Q710.123 71.9684 705.91 72.8596 Q701.697 73.7508 697.363 73.7508 Q686.506 73.7508 680.147 67.4314 Q673.827 61.1119 673.827 50.3365 Q673.827 39.1965 679.822 32.6746 Q685.858 26.1121 696.067 26.1121 Q705.222 26.1121 710.528 32.0264 Q715.876 37.9003 715.876 48.0275 M708.422 45.84 Q708.341 39.7232 704.979 36.0774 Q701.657 32.4315 696.148 32.4315 Q689.909 32.4315 686.142 35.9558 Q682.415 39.4801 681.848 45.8805 L708.422 45.84 Z" fill="#000000" fill-rule="nonzero" fill-opacity="1" /><path clip-path="url(#clip550)" d="M738.237 66.6212 L759.868 66.6212 L759.868 33.1607 L744.191 33.1607 L744.191 38.832 Q744.191 55.5217 739.411 64.4337 L738.237 66.6212 M727.421 66.6212 Q731.107 65.0008 732.727 61.5575 Q736.697 53.0101 736.697 35.7938 L736.697 27.2059 L767.363 27.2059 L767.363 66.6212 L773.317 66.6212 L773.317 84.0401 L767.363 84.0401 L767.363 72.576 L730.58 72.576 L730.58 84.0401 L724.625 84.0401 L724.625 66.6212 L727.421 66.6212 Z" fill="#000000" fill-rule="nonzero" fill-opacity="1" /><path clip-path="url(#clip550)" d="M824.278 48.0275 L824.278 51.6733 L790.007 51.6733 Q790.493 59.3701 794.625 63.421 Q798.798 67.4314 806.211 67.4314 Q810.505 67.4314 814.515 66.3781 Q818.566 65.3249 822.536 63.2184 L822.536 70.267 Q818.525 71.9684 814.313 72.8596 Q810.1 73.7508 805.765 73.7508 Q794.909 73.7508 788.549 67.4314 Q782.229 61.1119 782.229 50.3365 Q782.229 39.1965 788.225 32.6746 Q794.261 26.1121 804.469 26.1121 Q813.624 26.1121 818.931 32.0264 Q824.278 37.9003 824.278 48.0275 M816.824 45.84 Q816.743 39.7232 813.381 36.0774 Q810.059 32.4315 804.55 32.4315 Q798.311 32.4315 794.544 35.9558 Q790.817 39.4801 790.25 45.8805 L816.824 45.84 Z" fill="#000000" fill-rule="nonzero" fill-opacity="1" /><path clip-path="url(#clip550)" d="M831.772 72.576 L831.772 66.3781 Q839.145 65.2439 841.413 60.1397 Q844.168 52.9696 844.168 34.619 L844.168 27.2059 L874.833 27.2059 L874.833 72.576 L867.379 72.576 L867.379 33.1607 L851.621 33.1607 L851.621 37.6572 Q851.621 55.1571 848.057 63.0159 Q844.249 71.4012 831.772 72.576 Z" fill="#000000" fill-rule="nonzero" fill-opacity="1" /><path clip-path="url(#clip550)" d="M928.345 48.0275 L928.345 51.6733 L894.075 51.6733 Q894.561 59.3701 898.693 63.421 Q902.865 67.4314 910.278 67.4314 Q914.572 67.4314 918.583 66.3781 Q922.634 65.3249 926.604 63.2184 L926.604 70.267 Q922.593 71.9684 918.38 72.8596 Q914.167 73.7508 909.833 73.7508 Q898.976 73.7508 892.616 67.4314 Q886.297 61.1119 886.297 50.3365 Q886.297 39.1965 892.292 32.6746 Q898.328 26.1121 908.537 26.1121 Q917.692 26.1121 922.998 32.0264 Q928.345 37.9003 928.345 48.0275 M920.892 45.84 Q920.811 39.7232 917.449 36.0774 Q914.127 32.4315 908.618 32.4315 Q902.379 32.4315 898.612 35.9558 Q894.885 39.4801 894.318 45.8805 L920.892 45.84 Z" fill="#000000" fill-rule="nonzero" fill-opacity="1" /><path clip-path="url(#clip550)" d="M940.296 27.2059 L947.79 27.2059 L947.79 45.7185 L971.974 45.7185 L971.974 27.2059 L979.468 27.2059 L979.468 72.576 L971.974 72.576 L971.974 51.6733 L947.79 51.6733 L947.79 72.576 L940.296 72.576 L940.296 27.2059 Z" fill="#000000" fill-rule="nonzero" fill-opacity="1" /><path clip-path="url(#clip550)" d="M1033.39 27.2059 L1033.39 72.576 L1025.97 72.576 L1025.97 36.1584 L1004.1 72.576 L994.537 72.576 L994.537 27.2059 L1001.95 27.2059 L1001.95 63.5425 L1023.78 27.2059 L1033.39 27.2059 Z" fill="#000000" fill-rule="nonzero" fill-opacity="1" /><path clip-path="url(#clip550)" d="M1087.55 48.0275 L1087.55 51.6733 L1053.28 51.6733 Q1053.76 59.3701 1057.89 63.421 Q1062.07 67.4314 1069.48 67.4314 Q1073.77 67.4314 1077.78 66.3781 Q1081.83 65.3249 1085.8 63.2184 L1085.8 70.267 Q1081.79 71.9684 1077.58 72.8596 Q1073.37 73.7508 1069.03 73.7508 Q1058.18 73.7508 1051.82 67.4314 Q1045.5 61.1119 1045.5 50.3365 Q1045.5 39.1965 1051.49 32.6746 Q1057.53 26.1121 1067.74 26.1121 Q1076.89 26.1121 1082.2 32.0264 Q1087.55 37.9003 1087.55 48.0275 M1080.09 45.84 Q1080.01 39.7232 1076.65 36.0774 Q1073.33 32.4315 1067.82 32.4315 Q1061.58 32.4315 1057.81 35.9558 Q1054.09 39.4801 1053.52 45.8805 L1080.09 45.84 Z" fill="#000000" fill-rule="nonzero" fill-opacity="1" /><path clip-path="url(#clip550)" d="M1152.36 72.576 L1152.36 53.4962 L1138.47 53.4962 Q1132.27 53.4962 1128.14 49.6479 Q1124.41 46.1641 1124.41 38.7104 L1124.41 27.2059 L1131.86 27.2059 L1131.86 38.0218 Q1131.86 42.7613 1133.97 45.1514 Q1136.12 47.5414 1140.33 47.5414 L1152.36 47.5414 L1152.36 27.2059 L1159.81 27.2059 L1159.81 72.576 L1152.36 72.576 Z" fill="#000000" fill-rule="nonzero" fill-opacity="1" /><path clip-path="url(#clip550)" d="M1213.73 27.2059 L1213.73 72.576 L1206.32 72.576 L1206.32 36.1584 L1184.44 72.576 L1174.88 72.576 L1174.88 27.2059 L1182.3 27.2059 L1182.3 63.5425 L1204.13 27.2059 L1213.73 27.2059 Z" fill="#000000" fill-rule="nonzero" fill-opacity="1" /><path clip-path="url(#clip550)" d="M1261.73 28.9478 L1261.73 35.9153 Q1258.58 34.1734 1255.37 33.3227 Q1252.22 32.4315 1248.97 32.4315 Q1241.72 32.4315 1237.71 37.0496 Q1233.7 41.6271 1233.7 49.9314 Q1233.7 58.2358 1237.71 62.8538 Q1241.72 67.4314 1248.97 67.4314 Q1252.22 67.4314 1255.37 66.5807 Q1258.58 65.6895 1261.73 63.9476 L1261.73 70.8341 Q1258.62 72.2924 1255.25 73.0216 Q1251.93 73.7508 1248.16 73.7508 Q1237.92 73.7508 1231.88 67.3098 Q1225.84 60.8689 1225.84 49.9314 Q1225.84 38.832 1231.92 32.472 Q1238.04 26.1121 1248.65 26.1121 Q1252.09 26.1121 1255.37 26.8413 Q1258.66 27.5299 1261.73 28.9478 Z" fill="#000000" fill-rule="nonzero" fill-opacity="1" /><path clip-path="url(#clip550)" d="M1269.96 72.576 L1269.96 66.3781 Q1277.33 65.2439 1279.6 60.1397 Q1282.35 52.9696 1282.35 34.619 L1282.35 27.2059 L1313.02 27.2059 L1313.02 72.576 L1305.57 72.576 L1305.57 33.1607 L1289.81 33.1607 L1289.81 37.6572 Q1289.81 55.1571 1286.24 63.0159 Q1282.43 71.4012 1269.96 72.576 Z" fill="#000000" fill-rule="nonzero" fill-opacity="1" /><path clip-path="url(#clip550)" d="M1348.34 49.7694 Q1339.31 49.7694 1335.83 51.8354 Q1332.34 53.9013 1332.34 58.8839 Q1332.34 62.8538 1334.93 65.2034 Q1337.57 67.5124 1342.06 67.5124 Q1348.26 67.5124 1351.99 63.1374 Q1355.76 58.7219 1355.76 51.4303 L1355.76 49.7694 L1348.34 49.7694 M1363.21 46.6907 L1363.21 72.576 L1355.76 72.576 L1355.76 65.6895 Q1353.2 69.8214 1349.4 71.8063 Q1345.59 73.7508 1340.08 73.7508 Q1333.11 73.7508 1328.98 69.8619 Q1324.89 65.9325 1324.89 59.3701 Q1324.89 51.7138 1329.99 47.825 Q1335.14 43.9361 1345.31 43.9361 L1355.76 43.9361 L1355.76 43.2069 Q1355.76 38.0623 1352.35 35.2672 Q1348.99 32.4315 1342.87 32.4315 Q1338.99 32.4315 1335.3 33.3632 Q1331.61 34.295 1328.21 36.1584 L1328.21 29.2718 Q1332.3 27.692 1336.15 26.9223 Q1340 26.1121 1343.64 26.1121 Q1353.49 26.1121 1358.35 31.2163 Q1363.21 36.3204 1363.21 46.6907 Z" fill="#000000" fill-rule="nonzero" fill-opacity="1" /><path clip-path="url(#clip550)" d="M1425.55 49.7694 Q1416.52 49.7694 1413.04 51.8354 Q1409.55 53.9013 1409.55 58.8839 Q1409.55 62.8538 1412.14 65.2034 Q1414.78 67.5124 1419.27 67.5124 Q1425.47 67.5124 1429.2 63.1374 Q1432.97 58.7219 1432.97 51.4303 L1432.97 49.7694 L1425.55 49.7694 M1440.42 46.6907 L1440.42 72.576 L1432.97 72.576 L1432.97 65.6895 Q1430.41 69.8214 1426.61 71.8063 Q1422.8 73.7508 1417.29 73.7508 Q1410.32 73.7508 1406.19 69.8619 Q1402.1 65.9325 1402.1 59.3701 Q1402.1 51.7138 1407.2 47.825 Q1412.35 43.9361 1422.52 43.9361 L1432.97 43.9361 L1432.97 43.2069 Q1432.97 38.0623 1429.56 35.2672 Q1426.2 32.4315 1420.08 32.4315 Q1416.2 32.4315 1412.51 33.3632 Q1408.82 34.295 1405.42 36.1584 L1405.42 29.2718 Q1409.51 27.692 1413.36 26.9223 Q1417.21 26.1121 1420.85 26.1121 Q1430.7 26.1121 1435.56 31.2163 Q1440.42 36.3204 1440.42 46.6907 Z" fill="#000000" fill-rule="nonzero" fill-opacity="1" /><path clip-path="url(#clip550)" d="M1450.39 27.2059 L1493.85 27.2059 L1493.85 33.1607 L1475.78 33.1607 L1475.78 72.576 L1468.45 72.576 L1468.45 33.1607 L1450.39 33.1607 L1450.39 27.2059 Z" fill="#000000" fill-rule="nonzero" fill-opacity="1" /><path clip-path="url(#clip550)" d="M1524.72 49.7694 Q1515.69 49.7694 1512.2 51.8354 Q1508.72 53.9013 1508.72 58.8839 Q1508.72 62.8538 1511.31 65.2034 Q1513.94 67.5124 1518.44 67.5124 Q1524.64 67.5124 1528.37 63.1374 Q1532.13 58.7219 1532.13 51.4303 L1532.13 49.7694 L1524.72 49.7694 M1539.59 46.6907 L1539.59 72.576 L1532.13 72.576 L1532.13 65.6895 Q1529.58 69.8214 1525.77 71.8063 Q1521.96 73.7508 1516.46 73.7508 Q1509.49 73.7508 1505.36 69.8619 Q1501.26 65.9325 1501.26 59.3701 Q1501.26 51.7138 1506.37 47.825 Q1511.51 43.9361 1521.68 43.9361 L1532.13 43.9361 L1532.13 43.2069 Q1532.13 38.0623 1528.73 35.2672 Q1525.37 32.4315 1519.25 32.4315 Q1515.36 32.4315 1511.68 33.3632 Q1507.99 34.295 1504.59 36.1584 L1504.59 29.2718 Q1508.68 27.692 1512.53 26.9223 Q1516.37 26.1121 1520.02 26.1121 Q1529.86 26.1121 1534.73 31.2163 Q1539.59 36.3204 1539.59 46.6907 Z" fill="#000000" fill-rule="nonzero" fill-opacity="1" /><path clip-path="url(#clip550)" d="M1554.66 27.2059 L1562.07 27.2059 L1562.07 48.5136 L1583.09 27.2059 L1592.25 27.2059 L1574.91 44.7463 L1594.48 72.576 L1586.13 72.576 L1570.05 49.6884 L1562.07 57.7902 L1562.07 72.576 L1554.66 72.576 L1554.66 27.2059 Z" fill="#000000" fill-rule="nonzero" fill-opacity="1" /><path clip-path="url(#clip550)" d="M1652.2 48.1085 Q1657.22 49.0808 1660.02 52.0379 Q1662.81 54.9951 1662.81 59.3701 Q1662.81 66.3781 1657.59 70.0644 Q1652.36 73.7508 1642.72 73.7508 Q1639.48 73.7508 1636.04 73.1836 Q1632.64 72.6165 1628.99 71.4823 L1628.99 64.5552 Q1631.87 66.054 1635.31 66.8237 Q1638.75 67.5529 1642.52 67.5529 Q1648.64 67.5529 1652.04 65.2844 Q1655.48 63.0159 1655.48 59.3701 Q1655.48 55.8053 1652.44 53.6583 Q1649.41 51.4708 1643.86 51.4708 L1637.86 51.4708 L1637.86 45.3134 L1644.14 45.3134 Q1648.84 45.3134 1651.55 43.531 Q1654.31 41.7081 1654.31 38.8725 Q1654.31 36.2799 1651.47 34.4165 Q1648.68 32.5531 1643.86 32.5531 Q1640.98 32.5531 1637.7 33.0797 Q1634.46 33.6063 1630.53 34.7811 L1630.53 28.0161 Q1634.5 27.0438 1637.94 26.5577 Q1641.39 26.0716 1644.46 26.0716 Q1652.4 26.0716 1656.98 29.2718 Q1661.6 32.4315 1661.6 38.1433 Q1661.6 41.9107 1659.17 44.5437 Q1656.74 47.1363 1652.2 48.1085 Z" fill="#000000" fill-rule="nonzero" fill-opacity="1" /><path clip-path="url(#clip550)" d="M1696.15 49.7694 Q1687.12 49.7694 1683.64 51.8354 Q1680.15 53.9013 1680.15 58.8839 Q1680.15 62.8538 1682.75 65.2034 Q1685.38 67.5124 1689.87 67.5124 Q1696.07 67.5124 1699.8 63.1374 Q1703.57 58.7219 1703.57 51.4303 L1703.57 49.7694 L1696.15 49.7694 M1711.02 46.6907 L1711.02 72.576 L1703.57 72.576 L1703.57 65.6895 Q1701.01 69.8214 1697.21 71.8063 Q1693.4 73.7508 1687.89 73.7508 Q1680.92 73.7508 1676.79 69.8619 Q1672.7 65.9325 1672.7 59.3701 Q1672.7 51.7138 1677.8 47.825 Q1682.95 43.9361 1693.12 43.9361 L1703.57 43.9361 L1703.57 43.2069 Q1703.57 38.0623 1700.16 35.2672 Q1696.8 32.4315 1690.69 32.4315 Q1686.8 32.4315 1683.11 33.3632 Q1679.42 34.295 1676.02 36.1584 L1676.02 29.2718 Q1680.11 27.692 1683.96 26.9223 Q1687.81 26.1121 1691.45 26.1121 Q1701.3 26.1121 1706.16 31.2163 Q1711.02 36.3204 1711.02 46.6907 Z" fill="#000000" fill-rule="nonzero" fill-opacity="1" /><path clip-path="url(#clip550)" d="M1778.95 72.576 L1778.95 53.4962 L1765.06 53.4962 Q1758.86 53.4962 1754.73 49.6479 Q1751 46.1641 1751 38.7104 L1751 27.2059 L1758.46 27.2059 L1758.46 38.0218 Q1758.46 42.7613 1760.56 45.1514 Q1762.71 47.5414 1766.92 47.5414 L1778.95 47.5414 L1778.95 27.2059 L1786.41 27.2059 L1786.41 72.576 L1778.95 72.576 Z" fill="#000000" fill-rule="nonzero" fill-opacity="1" /><path clip-path="url(#clip550)" d="M1822.38 49.7694 Q1813.35 49.7694 1809.86 51.8354 Q1806.38 53.9013 1806.38 58.8839 Q1806.38 62.8538 1808.97 65.2034 Q1811.6 67.5124 1816.1 67.5124 Q1822.3 67.5124 1826.03 63.1374 Q1829.79 58.7219 1829.79 51.4303 L1829.79 49.7694 L1822.38 49.7694 M1837.25 46.6907 L1837.25 72.576 L1829.79 72.576 L1829.79 65.6895 Q1827.24 69.8214 1823.43 71.8063 Q1819.63 73.7508 1814.12 73.7508 Q1807.15 73.7508 1803.02 69.8619 Q1798.93 65.9325 1798.93 59.3701 Q1798.93 51.7138 1804.03 47.825 Q1809.17 43.9361 1819.34 43.9361 L1829.79 43.9361 L1829.79 43.2069 Q1829.79 38.0623 1826.39 35.2672 Q1823.03 32.4315 1816.91 32.4315 Q1813.02 32.4315 1809.34 33.3632 Q1805.65 34.295 1802.25 36.1584 L1802.25 29.2718 Q1806.34 27.692 1810.19 26.9223 Q1814.04 26.1121 1817.68 26.1121 Q1827.52 26.1121 1832.39 31.2163 Q1837.25 36.3204 1837.25 46.6907 Z" fill="#000000" fill-rule="nonzero" fill-opacity="1" /><path clip-path="url(#clip550)" d="M1885.25 28.9478 L1885.25 35.9153 Q1882.09 34.1734 1878.89 33.3227 Q1875.73 32.4315 1872.49 32.4315 Q1865.24 32.4315 1861.23 37.0496 Q1857.22 41.6271 1857.22 49.9314 Q1857.22 58.2358 1861.23 62.8538 Q1865.24 67.4314 1872.49 67.4314 Q1875.73 67.4314 1878.89 66.5807 Q1882.09 65.6895 1885.25 63.9476 L1885.25 70.8341 Q1882.13 72.2924 1878.77 73.0216 Q1875.45 73.7508 1871.68 73.7508 Q1861.43 73.7508 1855.39 67.3098 Q1849.36 60.8689 1849.36 49.9314 Q1849.36 38.832 1855.44 32.472 Q1861.55 26.1121 1872.17 26.1121 Q1875.61 26.1121 1878.89 26.8413 Q1882.17 27.5299 1885.25 28.9478 Z" fill="#000000" fill-rule="nonzero" fill-opacity="1" /><path clip-path="url(#clip552)" d="M344.619 1173.47 L344.619 1173.47 L506.621 1173.47 L506.621 1173.47 L344.619 1173.47 L344.619 1173.47  Z" fill="#009af9" fill-rule="evenodd" fill-opacity="1"/>
<polyline clip-path="url(#clip552)" style="stroke:#000000; stroke-linecap:round; stroke-linejoin:round; stroke-width:4; stroke-opacity:1; fill:none" points="344.619,1173.47 344.619,1173.47 506.621,1173.47 344.619,1173.47 "/>
<path clip-path="url(#clip552)" d="M506.621 822.555 L506.621 1173.47 L668.623 1173.47 L668.623 822.555 L506.621 822.555 L506.621 822.555  Z" fill="#009af9" fill-rule="evenodd" fill-opacity="1"/>
<polyline clip-path="url(#clip552)" style="stroke:#000000; stroke-linecap:round; stroke-linejoin:round; stroke-width:4; stroke-opacity:1; fill:none" points="506.621,822.555 506.621,1173.47 668.623,1173.47 668.623,822.555 506.621,822.555 "/>
<path clip-path="url(#clip552)" d="M668.623 822.555 L668.623 1173.47 L830.625 1173.47 L830.625 822.555 L668.623 822.555 L668.623 822.555  Z" fill="#009af9" fill-rule="evenodd" fill-opacity="1"/>
<polyline clip-path="url(#clip552)" style="stroke:#000000; stroke-linecap:round; stroke-linejoin:round; stroke-width:4; stroke-opacity:1; fill:none" points="668.623,822.555 668.623,1173.47 830.625,1173.47 830.625,822.555 668.623,822.555 "/>
<path clip-path="url(#clip552)" d="M830.625 1173.47 L830.625 1173.47 L992.627 1173.47 L992.627 1173.47 L830.625 1173.47 L830.625 1173.47  Z" fill="#009af9" fill-rule="evenodd" fill-opacity="1"/>
<polyline clip-path="url(#clip552)" style="stroke:#000000; stroke-linecap:round; stroke-linejoin:round; stroke-width:4; stroke-opacity:1; fill:none" points="830.625,1173.47 830.625,1173.47 992.627,1173.47 830.625,1173.47 "/>
<path clip-path="url(#clip552)" d="M992.627 120.723 L992.627 1173.47 L1154.63 1173.47 L1154.63 120.723 L992.627 120.723 L992.627 120.723  Z" fill="#009af9" fill-rule="evenodd" fill-opacity="1"/>
<polyline clip-path="url(#clip552)" style="stroke:#000000; stroke-linecap:round; stroke-linejoin:round; stroke-width:4; stroke-opacity:1; fill:none" points="992.627,120.723 992.627,1173.47 1154.63,1173.47 1154.63,120.723 992.627,120.723 "/>
<path clip-path="url(#clip552)" d="M1154.63 647.097 L1154.63 1173.47 L1316.63 1173.47 L1316.63 647.097 L1154.63 647.097 L1154.63 647.097  Z" fill="#009af9" fill-rule="evenodd" fill-opacity="1"/>
<polyline clip-path="url(#clip552)" style="stroke:#000000; stroke-linecap:round; stroke-linejoin:round; stroke-width:4; stroke-opacity:1; fill:none" points="1154.63,647.097 1154.63,1173.47 1316.63,1173.47 1316.63,647.097 1154.63,647.097 "/>
<path clip-path="url(#clip552)" d="M1316.63 120.723 L1316.63 1173.47 L1478.63 1173.47 L1478.63 120.723 L1316.63 120.723 L1316.63 120.723  Z" fill="#009af9" fill-rule="evenodd" fill-opacity="1"/>
<polyline clip-path="url(#clip552)" style="stroke:#000000; stroke-linecap:round; stroke-linejoin:round; stroke-width:4; stroke-opacity:1; fill:none" points="1316.63,120.723 1316.63,1173.47 1478.63,1173.47 1478.63,120.723 1316.63,120.723 "/>
<path clip-path="url(#clip552)" d="M1478.63 998.013 L1478.63 1173.47 L1640.63 1173.47 L1640.63 998.013 L1478.63 998.013 L1478.63 998.013  Z" fill="#009af9" fill-rule="evenodd" fill-opacity="1"/>
<polyline clip-path="url(#clip552)" style="stroke:#000000; stroke-linecap:round; stroke-linejoin:round; stroke-width:4; stroke-opacity:1; fill:none" points="1478.63,998.013 1478.63,1173.47 1640.63,1173.47 1640.63,998.013 1478.63,998.013 "/>
<path clip-path="url(#clip552)" d="M1640.63 998.013 L1640.63 1173.47 L1802.64 1173.47 L1802.64 998.013 L1640.63 998.013 L1640.63 998.013  Z" fill="#009af9" fill-rule="evenodd" fill-opacity="1"/>
<polyline clip-path="url(#clip552)" style="stroke:#000000; stroke-linecap:round; stroke-linejoin:round; stroke-width:4; stroke-opacity:1; fill:none" points="1640.63,998.013 1640.63,1173.47 1802.64,1173.47 1802.64,998.013 1640.63,998.013 "/>
<path clip-path="url(#clip552)" d="M1802.64 998.013 L1802.64 1173.47 L1964.64 1173.47 L1964.64 998.013 L1802.64 998.013 L1802.64 998.013  Z" fill="#009af9" fill-rule="evenodd" fill-opacity="1"/>
<polyline clip-path="url(#clip552)" style="stroke:#000000; stroke-linecap:round; stroke-linejoin:round; stroke-width:4; stroke-opacity:1; fill:none" points="1802.64,998.013 1802.64,1173.47 1964.64,1173.47 1964.64,998.013 1802.64,998.013 "/>
<circle clip-path="url(#clip552)" style="fill:#009af9; stroke:none; fill-opacity:0" cx="425.62" cy="1173.47" r="2"/>
<circle clip-path="url(#clip552)" style="fill:#009af9; stroke:none; fill-opacity:0" cx="587.622" cy="822.555" r="2"/>
<circle clip-path="url(#clip552)" style="fill:#009af9; stroke:none; fill-opacity:0" cx="749.624" cy="822.555" r="2"/>
<circle clip-path="url(#clip552)" style="fill:#009af9; stroke:none; fill-opacity:0" cx="911.626" cy="1173.47" r="2"/>
<circle clip-path="url(#clip552)" style="fill:#009af9; stroke:none; fill-opacity:0" cx="1073.63" cy="120.723" r="2"/>
<circle clip-path="url(#clip552)" style="fill:#009af9; stroke:none; fill-opacity:0" cx="1235.63" cy="647.097" r="2"/>
<circle clip-path="url(#clip552)" style="fill:#009af9; stroke:none; fill-opacity:0" cx="1397.63" cy="120.723" r="2"/>
<circle clip-path="url(#clip552)" style="fill:#009af9; stroke:none; fill-opacity:0" cx="1559.63" cy="998.013" r="2"/>
<circle clip-path="url(#clip552)" style="fill:#009af9; stroke:none; fill-opacity:0" cx="1721.64" cy="998.013" r="2"/>
<circle clip-path="url(#clip552)" style="fill:#009af9; stroke:none; fill-opacity:0" cx="1883.64" cy="998.013" r="2"/>
<circle clip-path="url(#clip552)" cx="344.619" cy="1147.46" r="14.4" fill="#e26f46" fill-rule="evenodd" fill-opacity="1" stroke="#000000" stroke-opacity="1" stroke-width="2.688"/>
<circle clip-path="url(#clip552)" cx="506.621" cy="1043.43" r="14.4" fill="#e26f46" fill-rule="evenodd" fill-opacity="1" stroke="#000000" stroke-opacity="1" stroke-width="2.688"/>
<circle clip-path="url(#clip552)" cx="668.623" cy="848.358" r="14.4" fill="#e26f46" fill-rule="evenodd" fill-opacity="1" stroke="#000000" stroke-opacity="1" stroke-width="2.688"/>
<circle clip-path="url(#clip552)" cx="830.625" cy="631.617" r="14.4" fill="#e26f46" fill-rule="evenodd" fill-opacity="1" stroke="#000000" stroke-opacity="1" stroke-width="2.688"/>
<circle clip-path="url(#clip552)" cx="992.627" cy="496.154" r="14.4" fill="#e26f46" fill-rule="evenodd" fill-opacity="1" stroke="#000000" stroke-opacity="1" stroke-width="2.688"/>
<circle clip-path="url(#clip552)" cx="1154.63" cy="496.154" r="14.4" fill="#e26f46" fill-rule="evenodd" fill-opacity="1" stroke="#000000" stroke-opacity="1" stroke-width="2.688"/>
<circle clip-path="url(#clip552)" cx="1316.63" cy="609.04" r="14.4" fill="#e26f46" fill-rule="evenodd" fill-opacity="1" stroke="#000000" stroke-opacity="1" stroke-width="2.688"/>
<circle clip-path="url(#clip552)" cx="1478.63" cy="770.306" r="14.4" fill="#e26f46" fill-rule="evenodd" fill-opacity="1" stroke="#000000" stroke-opacity="1" stroke-width="2.688"/>
<circle clip-path="url(#clip552)" cx="1640.63" cy="921.493" r="14.4" fill="#e26f46" fill-rule="evenodd" fill-opacity="1" stroke="#000000" stroke-opacity="1" stroke-width="2.688"/>
<circle clip-path="url(#clip552)" cx="1802.64" cy="1033.48" r="14.4" fill="#e26f46" fill-rule="evenodd" fill-opacity="1" stroke="#000000" stroke-opacity="1" stroke-width="2.688"/>
<circle clip-path="url(#clip552)" cx="1964.64" cy="1103.48" r="14.4" fill="#e26f46" fill-rule="evenodd" fill-opacity="1" stroke="#000000" stroke-opacity="1" stroke-width="2.688"/>
<polyline clip-path="url(#clip552)" style="stroke:#e26f46; stroke-linecap:round; stroke-linejoin:round; stroke-width:8; stroke-opacity:1; fill:none" points="344.619,1173.47 344.619,1147.46 "/>
<polyline clip-path="url(#clip552)" style="stroke:#e26f46; stroke-linecap:round; stroke-linejoin:round; stroke-width:8; stroke-opacity:1; fill:none" points="506.621,1173.47 506.621,1043.43 "/>
<polyline clip-path="url(#clip552)" style="stroke:#e26f46; stroke-linecap:round; stroke-linejoin:round; stroke-width:8; stroke-opacity:1; fill:none" points="668.623,1173.47 668.623,848.358 "/>
<polyline clip-path="url(#clip552)" style="stroke:#e26f46; stroke-linecap:round; stroke-linejoin:round; stroke-width:8; stroke-opacity:1; fill:none" points="830.625,1173.47 830.625,631.617 "/>
<polyline clip-path="url(#clip552)" style="stroke:#e26f46; stroke-linecap:round; stroke-linejoin:round; stroke-width:8; stroke-opacity:1; fill:none" points="992.627,1173.47 992.627,496.154 "/>
<polyline clip-path="url(#clip552)" style="stroke:#e26f46; stroke-linecap:round; stroke-linejoin:round; stroke-width:8; stroke-opacity:1; fill:none" points="1154.63,1173.47 1154.63,496.154 "/>
<polyline clip-path="url(#clip552)" style="stroke:#e26f46; stroke-linecap:round; stroke-linejoin:round; stroke-width:8; stroke-opacity:1; fill:none" points="1316.63,1173.47 1316.63,609.04 "/>
<polyline clip-path="url(#clip552)" style="stroke:#e26f46; stroke-linecap:round; stroke-linejoin:round; stroke-width:8; stroke-opacity:1; fill:none" points="1478.63,1173.47 1478.63,770.306 "/>
<polyline clip-path="url(#clip552)" style="stroke:#e26f46; stroke-linecap:round; stroke-linejoin:round; stroke-width:8; stroke-opacity:1; fill:none" points="1640.63,1173.47 1640.63,921.493 "/>
<polyline clip-path="url(#clip552)" style="stroke:#e26f46; stroke-linecap:round; stroke-linejoin:round; stroke-width:8; stroke-opacity:1; fill:none" points="1802.64,1173.47 1802.64,1033.48 "/>
<polyline clip-path="url(#clip552)" style="stroke:#e26f46; stroke-linecap:round; stroke-linejoin:round; stroke-width:8; stroke-opacity:1; fill:none" points="1964.64,1173.47 1964.64,1103.48 "/>
<path clip-path="url(#clip550)" d="M1021.97 311.335 L2004.08 311.335 L2004.08 155.815 L1021.97 155.815  Z" fill="#ffffff" fill-rule="evenodd" fill-opacity="1"/>
<polyline clip-path="url(#clip550)" style="stroke:#000000; stroke-linecap:round; stroke-linejoin:round; stroke-width:4; stroke-opacity:1; fill:none" points="1021.97,311.335 2004.08,311.335 2004.08,155.815 1021.97,155.815 1021.97,311.335 "/>
<path clip-path="url(#clip550)" d="M1042.19 228.391 L1163.54 228.391 L1163.54 186.919 L1042.19 186.919 L1042.19 228.391  Z" fill="#009af9" fill-rule="evenodd" fill-opacity="1"/>
<polyline clip-path="url(#clip550)" style="stroke:#000000; stroke-linecap:round; stroke-linejoin:round; stroke-width:4; stroke-opacity:1; fill:none" points="1042.19,228.391 1163.54,228.391 1163.54,186.919 1042.19,186.919 1042.19,228.391 "/>
<path clip-path="url(#clip550)" d="M1183.77 217.388 Q1188.65 221.763 1194.58 221.763 Q1200.69 221.763 1203.44 218.476 Q1206.2 215.189 1206.71 209.657 L1188.23 209.657 L1188.23 205.722 L1206.71 205.722 Q1206.2 200.189 1203.44 196.902 Q1200.69 193.592 1194.58 193.592 Q1188.65 193.592 1183.77 197.967 L1183.77 193.037 Q1188.58 189.75 1194.86 189.75 Q1202.61 189.75 1207.12 194.564 Q1211.64 199.356 1211.64 207.666 Q1211.64 215.999 1207.12 220.814 Q1202.61 225.606 1194.86 225.606 Q1188.67 225.606 1183.77 222.273 L1183.77 217.388 Z" fill="#000000" fill-rule="nonzero" fill-opacity="1" /><path clip-path="url(#clip550)" d="M1218.61 199.009 L1224.83 199.009 L1232.19 216.37 L1239.58 199.009 L1245.76 199.009 L1245.76 224.935 L1241.48 224.935 L1241.48 203.083 L1234.32 219.958 L1230.06 219.958 L1222.89 203.083 L1222.89 224.935 L1218.61 224.935 L1218.61 199.009 Z" fill="#000000" fill-rule="nonzero" fill-opacity="1" /><path clip-path="url(#clip550)" d="M1276.75 199.009 L1276.75 224.935 L1272.47 224.935 L1272.47 202.412 L1258.65 202.412 L1258.65 224.935 L1254.37 224.935 L1254.37 199.009 L1276.75 199.009 Z" fill="#000000" fill-rule="nonzero" fill-opacity="1" /><path clip-path="url(#clip550)" d="M1307.56 199.009 L1307.56 224.935 L1303.33 224.935 L1303.33 204.125 L1290.83 224.935 L1285.36 224.935 L1285.36 199.009 L1289.6 199.009 L1289.6 219.773 L1302.08 199.009 L1307.56 199.009 Z" fill="#000000" fill-rule="nonzero" fill-opacity="1" /><path clip-path="url(#clip550)" d="M1320.46 221.046 L1320.46 234.796 L1316.17 234.796 L1316.17 199.009 L1320.46 199.009 L1320.46 202.944 Q1321.8 200.629 1323.84 199.518 Q1325.9 198.384 1328.74 198.384 Q1333.47 198.384 1336.41 202.134 Q1339.37 205.884 1339.37 211.995 Q1339.37 218.106 1336.41 221.856 Q1333.47 225.606 1328.74 225.606 Q1325.9 225.606 1323.84 224.495 Q1321.8 223.361 1320.46 221.046 M1334.95 211.995 Q1334.95 207.296 1333 204.634 Q1331.08 201.949 1327.7 201.949 Q1324.32 201.949 1322.38 204.634 Q1320.46 207.296 1320.46 211.995 Q1320.46 216.694 1322.38 219.379 Q1324.32 222.041 1327.7 222.041 Q1331.08 222.041 1333 219.379 Q1334.95 216.694 1334.95 211.995 Z" fill="#000000" fill-rule="nonzero" fill-opacity="1" /><path clip-path="url(#clip550)" d="M1368.47 199.009 L1368.47 224.935 L1364.23 224.935 L1364.23 204.125 L1351.73 224.935 L1346.27 224.935 L1346.27 199.009 L1350.5 199.009 L1350.5 219.773 L1362.98 199.009 L1368.47 199.009 Z" fill="#000000" fill-rule="nonzero" fill-opacity="1" /><path clip-path="url(#clip550)" d="M1392.22 224.935 L1392.22 214.032 L1384.28 214.032 Q1380.73 214.032 1378.37 211.833 Q1376.24 209.842 1376.24 205.583 L1376.24 199.009 L1380.5 199.009 L1380.5 205.189 Q1380.5 207.898 1381.71 209.263 Q1382.93 210.629 1385.34 210.629 L1392.22 210.629 L1392.22 199.009 L1396.47 199.009 L1396.47 224.935 L1392.22 224.935 Z" fill="#000000" fill-rule="nonzero" fill-opacity="1" /><path clip-path="url(#clip550)" d="M1427.42 210.907 L1427.42 212.99 L1407.84 212.99 Q1408.12 217.388 1410.48 219.703 Q1412.86 221.995 1417.1 221.995 Q1419.55 221.995 1421.84 221.393 Q1424.16 220.791 1426.43 219.587 L1426.43 223.615 Q1424.14 224.587 1421.73 225.097 Q1419.32 225.606 1416.84 225.606 Q1410.64 225.606 1407.01 221.995 Q1403.4 218.384 1403.4 212.226 Q1403.4 205.861 1406.82 202.134 Q1410.27 198.384 1416.1 198.384 Q1421.34 198.384 1424.37 201.763 Q1427.42 205.12 1427.42 210.907 M1423.16 209.657 Q1423.12 206.162 1421.2 204.078 Q1419.3 201.995 1416.15 201.995 Q1412.59 201.995 1410.43 204.009 Q1408.3 206.023 1407.98 209.68 L1423.16 209.657 Z" fill="#000000" fill-rule="nonzero" fill-opacity="1" /><path clip-path="url(#clip550)" d="M1453.07 200.004 L1453.07 203.986 Q1451.27 202.99 1449.44 202.504 Q1447.63 201.995 1445.78 201.995 Q1441.64 201.995 1439.34 204.634 Q1437.05 207.25 1437.05 211.995 Q1437.05 216.74 1439.34 219.379 Q1441.64 221.995 1445.78 221.995 Q1447.63 221.995 1449.44 221.509 Q1451.27 220.999 1453.07 220.004 L1453.07 223.939 Q1451.29 224.773 1449.37 225.189 Q1447.47 225.606 1445.32 225.606 Q1439.46 225.606 1436.01 221.925 Q1432.56 218.245 1432.56 211.995 Q1432.56 205.652 1436.03 202.018 Q1439.53 198.384 1445.59 198.384 Q1447.56 198.384 1449.44 198.801 Q1451.31 199.194 1453.07 200.004 Z" fill="#000000" fill-rule="nonzero" fill-opacity="1" /><path clip-path="url(#clip550)" d="M1460.32 199.009 L1464.55 199.009 L1464.55 211.185 L1476.57 199.009 L1481.8 199.009 L1471.89 209.032 L1483.07 224.935 L1478.3 224.935 L1469.11 211.856 L1464.55 216.486 L1464.55 224.935 L1460.32 224.935 L1460.32 199.009 Z" fill="#000000" fill-rule="nonzero" fill-opacity="1" /><path clip-path="url(#clip550)" d="M1500.9 211.902 Q1495.73 211.902 1493.74 213.083 Q1491.75 214.263 1491.75 217.111 Q1491.75 219.379 1493.23 220.722 Q1494.74 222.041 1497.31 222.041 Q1500.85 222.041 1502.98 219.541 Q1505.13 217.018 1505.13 212.851 L1505.13 211.902 L1500.9 211.902 M1509.39 210.143 L1509.39 224.935 L1505.13 224.935 L1505.13 220.999 Q1503.67 223.361 1501.5 224.495 Q1499.32 225.606 1496.17 225.606 Q1492.19 225.606 1489.83 223.384 Q1487.49 221.138 1487.49 217.388 Q1487.49 213.013 1490.41 210.791 Q1493.35 208.569 1499.16 208.569 L1505.13 208.569 L1505.13 208.152 Q1505.13 205.213 1503.19 203.615 Q1501.27 201.995 1497.77 201.995 Q1495.55 201.995 1493.44 202.527 Q1491.34 203.06 1489.39 204.125 L1489.39 200.189 Q1491.73 199.287 1493.93 198.847 Q1496.13 198.384 1498.21 198.384 Q1503.84 198.384 1506.61 201.3 Q1509.39 204.217 1509.39 210.143 Z" fill="#000000" fill-rule="nonzero" fill-opacity="1" /><path clip-path="url(#clip550)" d="M1522.45 206.486 Q1522.45 208.407 1523.93 209.495 Q1525.41 210.583 1528.16 210.583 L1533.9 210.583 L1533.9 202.412 L1528.16 202.412 Q1525.41 202.412 1523.93 203.476 Q1522.45 204.541 1522.45 206.486 M1516.38 224.935 L1524.3 213.569 Q1521.61 212.967 1519.83 211.393 Q1518.05 209.796 1518.05 206.486 Q1518.05 202.736 1520.52 200.884 Q1523.02 199.009 1528.05 199.009 L1538.19 199.009 L1538.19 224.935 L1533.9 224.935 L1533.9 213.986 L1528.6 213.986 L1520.96 224.935 L1516.38 224.935 Z" fill="#000000" fill-rule="nonzero" fill-opacity="1" /><path clip-path="url(#clip550)" d="M1576.73 224.935 L1576.73 214.032 L1568.79 214.032 Q1565.25 214.032 1562.89 211.833 Q1560.76 209.842 1560.76 205.583 L1560.76 199.009 L1565.02 199.009 L1565.02 205.189 Q1565.02 207.898 1566.22 209.263 Q1567.45 210.629 1569.85 210.629 L1576.73 210.629 L1576.73 199.009 L1580.99 199.009 L1580.99 224.935 L1576.73 224.935 Z" fill="#000000" fill-rule="nonzero" fill-opacity="1" /><path clip-path="url(#clip550)" d="M1601.54 211.902 Q1596.38 211.902 1594.39 213.083 Q1592.4 214.263 1592.4 217.111 Q1592.4 219.379 1593.88 220.722 Q1595.39 222.041 1597.96 222.041 Q1601.5 222.041 1603.63 219.541 Q1605.78 217.018 1605.78 212.851 L1605.78 211.902 L1601.54 211.902 M1610.04 210.143 L1610.04 224.935 L1605.78 224.935 L1605.78 220.999 Q1604.32 223.361 1602.14 224.495 Q1599.97 225.606 1596.82 225.606 Q1592.84 225.606 1590.48 223.384 Q1588.14 221.138 1588.14 217.388 Q1588.14 213.013 1591.06 210.791 Q1594 208.569 1599.81 208.569 L1605.78 208.569 L1605.78 208.152 Q1605.78 205.213 1603.83 203.615 Q1601.91 201.995 1598.42 201.995 Q1596.2 201.995 1594.09 202.527 Q1591.98 203.06 1590.04 204.125 L1590.04 200.189 Q1592.38 199.287 1594.58 198.847 Q1596.77 198.384 1598.86 198.384 Q1604.48 198.384 1607.26 201.3 Q1610.04 204.217 1610.04 210.143 Z" fill="#000000" fill-rule="nonzero" fill-opacity="1" /><path clip-path="url(#clip550)" d="M1637.47 200.004 L1637.47 203.986 Q1635.66 202.99 1633.83 202.504 Q1632.03 201.995 1630.18 201.995 Q1626.03 201.995 1623.74 204.634 Q1621.45 207.25 1621.45 211.995 Q1621.45 216.74 1623.74 219.379 Q1626.03 221.995 1630.18 221.995 Q1632.03 221.995 1633.83 221.509 Q1635.66 220.999 1637.47 220.004 L1637.47 223.939 Q1635.69 224.773 1633.77 225.189 Q1631.87 225.606 1629.71 225.606 Q1623.86 225.606 1620.41 221.925 Q1616.96 218.245 1616.96 211.995 Q1616.96 205.652 1620.43 202.018 Q1623.93 198.384 1629.99 198.384 Q1631.96 198.384 1633.83 198.801 Q1635.71 199.194 1637.47 200.004 Z" fill="#000000" fill-rule="nonzero" fill-opacity="1" /><path clip-path="url(#clip550)" d="M1641.8 199.009 L1666.64 199.009 L1666.64 202.412 L1656.31 202.412 L1656.31 224.935 L1652.12 224.935 L1652.12 202.412 L1641.8 202.412 L1641.8 199.009 Z" fill="#000000" fill-rule="nonzero" fill-opacity="1" /><path clip-path="url(#clip550)" d="M1682.54 201.995 Q1679.11 201.995 1677.12 204.68 Q1675.13 207.342 1675.13 211.995 Q1675.13 216.648 1677.1 219.333 Q1679.09 221.995 1682.54 221.995 Q1685.94 221.995 1687.93 219.31 Q1689.92 216.624 1689.92 211.995 Q1689.92 207.388 1687.93 204.703 Q1685.94 201.995 1682.54 201.995 M1682.54 198.384 Q1688.09 198.384 1691.26 201.995 Q1694.44 205.606 1694.44 211.995 Q1694.44 218.361 1691.26 221.995 Q1688.09 225.606 1682.54 225.606 Q1676.96 225.606 1673.79 221.995 Q1670.64 218.361 1670.64 211.995 Q1670.64 205.606 1673.79 201.995 Q1676.96 198.384 1682.54 198.384 Z" fill="#000000" fill-rule="nonzero" fill-opacity="1" /><path clip-path="url(#clip550)" d="M1698.42 199.009 L1723.26 199.009 L1723.26 202.412 L1712.93 202.412 L1712.93 224.935 L1708.74 224.935 L1708.74 202.412 L1698.42 202.412 L1698.42 199.009 Z" fill="#000000" fill-rule="nonzero" fill-opacity="1" /><path clip-path="url(#clip550)" d="M1740.89 211.902 Q1735.73 211.902 1733.74 213.083 Q1731.75 214.263 1731.75 217.111 Q1731.75 219.379 1733.23 220.722 Q1734.74 222.041 1737.31 222.041 Q1740.85 222.041 1742.98 219.541 Q1745.13 217.018 1745.13 212.851 L1745.13 211.902 L1740.89 211.902 M1749.39 210.143 L1749.39 224.935 L1745.13 224.935 L1745.13 220.999 Q1743.67 223.361 1741.5 224.495 Q1739.32 225.606 1736.17 225.606 Q1732.19 225.606 1729.83 223.384 Q1727.49 221.138 1727.49 217.388 Q1727.49 213.013 1730.41 210.791 Q1733.35 208.569 1739.16 208.569 L1745.13 208.569 L1745.13 208.152 Q1745.13 205.213 1743.19 203.615 Q1741.26 201.995 1737.77 201.995 Q1735.55 201.995 1733.44 202.527 Q1731.33 203.06 1729.39 204.125 L1729.39 200.189 Q1731.73 199.287 1733.93 198.847 Q1736.13 198.384 1738.21 198.384 Q1743.83 198.384 1746.61 201.3 Q1749.39 204.217 1749.39 210.143 Z" fill="#000000" fill-rule="nonzero" fill-opacity="1" /><circle clip-path="url(#clip550)" cx="1102.87" cy="259.495" r="20.48" fill="#e26f46" fill-rule="evenodd" fill-opacity="1" stroke="#000000" stroke-opacity="1" stroke-width="3.82293"/>
<path clip-path="url(#clip550)" d="M1183.77 242.215 L1213 242.215 L1213 246.15 L1200.73 246.15 L1200.73 276.775 L1196.04 276.775 L1196.04 246.15 L1183.77 246.15 L1183.77 242.215 Z" fill="#000000" fill-rule="nonzero" fill-opacity="1" /><path clip-path="url(#clip550)" d="M1239.51 262.747 L1239.51 264.83 L1219.92 264.83 Q1220.2 269.228 1222.56 271.543 Q1224.95 273.835 1229.18 273.835 Q1231.64 273.835 1233.93 273.233 Q1236.24 272.631 1238.51 271.427 L1238.51 275.455 Q1236.22 276.427 1233.81 276.937 Q1231.41 277.446 1228.93 277.446 Q1222.73 277.446 1219.09 273.835 Q1215.48 270.224 1215.48 264.066 Q1215.48 257.701 1218.91 253.974 Q1222.36 250.224 1228.19 250.224 Q1233.42 250.224 1236.45 253.603 Q1239.51 256.96 1239.51 262.747 M1235.25 261.497 Q1235.2 258.002 1233.28 255.918 Q1231.38 253.835 1228.23 253.835 Q1224.67 253.835 1222.52 255.849 Q1220.39 257.863 1220.06 261.52 L1235.25 261.497 Z" fill="#000000" fill-rule="nonzero" fill-opacity="1" /><path clip-path="url(#clip550)" d="M1256.54 253.835 Q1253.12 253.835 1251.13 256.52 Q1249.14 259.182 1249.14 263.835 Q1249.14 268.488 1251.11 271.173 Q1253.1 273.835 1256.54 273.835 Q1259.95 273.835 1261.94 271.15 Q1263.93 268.464 1263.93 263.835 Q1263.93 259.228 1261.94 256.543 Q1259.95 253.835 1256.54 253.835 M1256.54 250.224 Q1262.1 250.224 1265.27 253.835 Q1268.44 257.446 1268.44 263.835 Q1268.44 270.201 1265.27 273.835 Q1262.1 277.446 1256.54 277.446 Q1250.97 277.446 1247.79 273.835 Q1244.65 270.201 1244.65 263.835 Q1244.65 257.446 1247.79 253.835 Q1250.97 250.224 1256.54 250.224 Z" fill="#000000" fill-rule="nonzero" fill-opacity="1" /><path clip-path="url(#clip550)" d="M1279.62 272.886 L1279.62 286.636 L1275.34 286.636 L1275.34 250.849 L1279.62 250.849 L1279.62 254.784 Q1280.97 252.469 1283 251.358 Q1285.06 250.224 1287.91 250.224 Q1292.63 250.224 1295.57 253.974 Q1298.54 257.724 1298.54 263.835 Q1298.54 269.946 1295.57 273.696 Q1292.63 277.446 1287.91 277.446 Q1285.06 277.446 1283 276.335 Q1280.97 275.201 1279.62 272.886 M1294.11 263.835 Q1294.11 259.136 1292.17 256.474 Q1290.25 253.789 1286.87 253.789 Q1283.49 253.789 1281.54 256.474 Q1279.62 259.136 1279.62 263.835 Q1279.62 268.534 1281.54 271.219 Q1283.49 273.881 1286.87 273.881 Q1290.25 273.881 1292.17 271.219 Q1294.11 268.534 1294.11 263.835 Z" fill="#000000" fill-rule="nonzero" fill-opacity="1" /><path clip-path="url(#clip550)" d="M1327.77 262.747 L1327.77 264.83 L1308.19 264.83 Q1308.47 269.228 1310.83 271.543 Q1313.21 273.835 1317.45 273.835 Q1319.9 273.835 1322.19 273.233 Q1324.51 272.631 1326.78 271.427 L1326.78 275.455 Q1324.48 276.427 1322.08 276.937 Q1319.67 277.446 1317.19 277.446 Q1310.99 277.446 1307.35 273.835 Q1303.74 270.224 1303.74 264.066 Q1303.74 257.701 1307.17 253.974 Q1310.62 250.224 1316.45 250.224 Q1321.68 250.224 1324.72 253.603 Q1327.77 256.96 1327.77 262.747 M1323.51 261.497 Q1323.47 258.002 1321.54 255.918 Q1319.65 253.835 1316.5 253.835 Q1312.93 253.835 1310.78 255.849 Q1308.65 257.863 1308.33 261.52 L1323.51 261.497 Z" fill="#000000" fill-rule="nonzero" fill-opacity="1" /><path clip-path="url(#clip550)" d="M1331.68 250.849 L1356.52 250.849 L1356.52 254.252 L1346.2 254.252 L1346.2 276.775 L1342.01 276.775 L1342.01 254.252 L1331.68 254.252 L1331.68 250.849 Z" fill="#000000" fill-rule="nonzero" fill-opacity="1" /><path clip-path="url(#clip550)" d="M1384.41 250.849 L1384.41 276.775 L1380.18 276.775 L1380.18 255.965 L1367.68 276.775 L1362.22 276.775 L1362.22 250.849 L1366.45 250.849 L1366.45 271.613 L1378.93 250.849 L1384.41 250.849 Z" fill="#000000" fill-rule="nonzero" fill-opacity="1" /><path clip-path="url(#clip550)" d="M1408.16 276.775 L1408.16 265.872 L1400.22 265.872 Q1396.68 265.872 1394.32 263.673 Q1392.19 261.682 1392.19 257.423 L1392.19 250.849 L1396.45 250.849 L1396.45 257.029 Q1396.45 259.738 1397.66 261.103 Q1398.88 262.469 1401.29 262.469 L1408.16 262.469 L1408.16 250.849 L1412.42 250.849 L1412.42 276.775 L1408.16 276.775 Z" fill="#000000" fill-rule="nonzero" fill-opacity="1" /><path clip-path="url(#clip550)" d="M1443.37 262.747 L1443.37 264.83 L1423.79 264.83 Q1424.07 269.228 1426.43 271.543 Q1428.81 273.835 1433.05 273.835 Q1435.5 273.835 1437.79 273.233 Q1440.11 272.631 1442.38 271.427 L1442.38 275.455 Q1440.09 276.427 1437.68 276.937 Q1435.27 277.446 1432.79 277.446 Q1426.59 277.446 1422.96 273.835 Q1419.34 270.224 1419.34 264.066 Q1419.34 257.701 1422.77 253.974 Q1426.22 250.224 1432.05 250.224 Q1437.28 250.224 1440.32 253.603 Q1443.37 256.96 1443.37 262.747 M1439.11 261.497 Q1439.07 258.002 1437.15 255.918 Q1435.25 253.835 1432.1 253.835 Q1428.53 253.835 1426.38 255.849 Q1424.25 257.863 1423.93 261.52 L1439.11 261.497 Z" fill="#000000" fill-rule="nonzero" fill-opacity="1" /><path clip-path="url(#clip550)" d="M1469.02 251.844 L1469.02 255.826 Q1467.21 254.83 1465.39 254.344 Q1463.58 253.835 1461.73 253.835 Q1457.59 253.835 1455.29 256.474 Q1453 259.09 1453 263.835 Q1453 268.58 1455.29 271.219 Q1457.59 273.835 1461.73 273.835 Q1463.58 273.835 1465.39 273.349 Q1467.21 272.839 1469.02 271.844 L1469.02 275.779 Q1467.24 276.613 1465.32 277.029 Q1463.42 277.446 1461.27 277.446 Q1455.41 277.446 1451.96 273.765 Q1448.51 270.085 1448.51 263.835 Q1448.51 257.492 1451.98 253.858 Q1455.48 250.224 1461.54 250.224 Q1463.51 250.224 1465.39 250.641 Q1467.26 251.034 1469.02 251.844 Z" fill="#000000" fill-rule="nonzero" fill-opacity="1" /><path clip-path="url(#clip550)" d="M1476.27 250.849 L1480.5 250.849 L1480.5 263.025 L1492.52 250.849 L1497.75 250.849 L1487.84 260.872 L1499.02 276.775 L1494.25 276.775 L1485.06 263.696 L1480.5 268.326 L1480.5 276.775 L1476.27 276.775 L1476.27 250.849 Z" fill="#000000" fill-rule="nonzero" fill-opacity="1" /><path clip-path="url(#clip550)" d="M1515.11 253.835 Q1511.68 253.835 1509.69 256.52 Q1507.7 259.182 1507.7 263.835 Q1507.7 268.488 1509.67 271.173 Q1511.66 273.835 1515.11 273.835 Q1518.51 273.835 1520.5 271.15 Q1522.49 268.464 1522.49 263.835 Q1522.49 259.228 1520.5 256.543 Q1518.51 253.835 1515.11 253.835 M1515.11 250.224 Q1520.66 250.224 1523.84 253.835 Q1527.01 257.446 1527.01 263.835 Q1527.01 270.201 1523.84 273.835 Q1520.66 277.446 1515.11 277.446 Q1509.53 277.446 1506.36 273.835 Q1503.21 270.201 1503.21 263.835 Q1503.21 257.446 1506.36 253.835 Q1509.53 250.224 1515.11 250.224 Z" fill="#000000" fill-rule="nonzero" fill-opacity="1" /><path clip-path="url(#clip550)" d="M1556.24 262.747 L1556.24 264.83 L1536.66 264.83 Q1536.94 269.228 1539.3 271.543 Q1541.68 273.835 1545.92 273.835 Q1548.37 273.835 1550.66 273.233 Q1552.98 272.631 1555.25 271.427 L1555.25 275.455 Q1552.96 276.427 1550.55 276.937 Q1548.14 277.446 1545.66 277.446 Q1539.46 277.446 1535.83 273.835 Q1532.21 270.224 1532.21 264.066 Q1532.21 257.701 1535.64 253.974 Q1539.09 250.224 1544.92 250.224 Q1550.15 250.224 1553.19 253.603 Q1556.24 256.96 1556.24 262.747 M1551.98 261.497 Q1551.94 258.002 1550.02 255.918 Q1548.12 253.835 1544.97 253.835 Q1541.4 253.835 1539.25 255.849 Q1537.12 257.863 1536.8 261.52 L1551.98 261.497 Z" fill="#000000" fill-rule="nonzero" fill-opacity="1" /><path clip-path="url(#clip550)" d="M1604.83 242.215 L1604.83 276.775 L1600.15 276.775 L1600.15 246.15 L1583.16 246.15 L1583.16 276.775 L1578.49 276.775 L1578.49 242.215 L1604.83 242.215 Z" fill="#000000" fill-rule="nonzero" fill-opacity="1" /><path clip-path="url(#clip550)" d="M1624.74 279.182 Q1622.93 283.812 1621.22 285.224 Q1619.51 286.636 1616.64 286.636 L1613.23 286.636 L1613.23 283.071 L1615.73 283.071 Q1617.49 283.071 1618.46 282.238 Q1619.44 281.404 1620.62 278.302 L1621.38 276.358 L1610.89 250.849 L1615.41 250.849 L1623.51 271.127 L1631.61 250.849 L1636.13 250.849 L1624.74 279.182 Z" fill="#000000" fill-rule="nonzero" fill-opacity="1" /><path clip-path="url(#clip550)" d="M1653.79 263.742 Q1648.63 263.742 1646.64 264.923 Q1644.64 266.103 1644.64 268.951 Q1644.64 271.219 1646.13 272.562 Q1647.63 273.881 1650.2 273.881 Q1653.74 273.881 1655.87 271.381 Q1658.02 268.858 1658.02 264.691 L1658.02 263.742 L1653.79 263.742 M1662.28 261.983 L1662.28 276.775 L1658.02 276.775 L1658.02 272.839 Q1656.57 275.201 1654.39 276.335 Q1652.21 277.446 1649.07 277.446 Q1645.08 277.446 1642.72 275.224 Q1640.39 272.978 1640.39 269.228 Q1640.39 264.853 1643.3 262.631 Q1646.24 260.409 1652.05 260.409 L1658.02 260.409 L1658.02 259.992 Q1658.02 257.053 1656.08 255.455 Q1654.16 253.835 1650.66 253.835 Q1648.44 253.835 1646.33 254.367 Q1644.23 254.9 1642.28 255.965 L1642.28 252.029 Q1644.62 251.127 1646.82 250.687 Q1649.02 250.224 1651.1 250.224 Q1656.73 250.224 1659.51 253.14 Q1662.28 256.057 1662.28 261.983 Z" fill="#000000" fill-rule="nonzero" fill-opacity="1" /><path clip-path="url(#clip550)" d="M1689.71 251.844 L1689.71 255.826 Q1687.91 254.83 1686.08 254.344 Q1684.27 253.835 1682.42 253.835 Q1678.28 253.835 1675.99 256.474 Q1673.7 259.09 1673.7 263.835 Q1673.7 268.58 1675.99 271.219 Q1678.28 273.835 1682.42 273.835 Q1684.27 273.835 1686.08 273.349 Q1687.91 272.839 1689.71 271.844 L1689.71 275.779 Q1687.93 276.613 1686.01 277.029 Q1684.11 277.446 1681.96 277.446 Q1676.1 277.446 1672.65 273.765 Q1669.2 270.085 1669.2 263.835 Q1669.2 257.492 1672.68 253.858 Q1676.17 250.224 1682.24 250.224 Q1684.2 250.224 1686.08 250.641 Q1687.95 251.034 1689.71 251.844 Z" fill="#000000" fill-rule="nonzero" fill-opacity="1" /><path clip-path="url(#clip550)" d="M1715.78 251.844 L1715.78 255.826 Q1713.97 254.83 1712.14 254.344 Q1710.34 253.835 1708.49 253.835 Q1704.34 253.835 1702.05 256.474 Q1699.76 259.09 1699.76 263.835 Q1699.76 268.58 1702.05 271.219 Q1704.34 273.835 1708.49 273.835 Q1710.34 273.835 1712.14 273.349 Q1713.97 272.839 1715.78 271.844 L1715.78 275.779 Q1714 276.613 1712.07 277.029 Q1710.18 277.446 1708.02 277.446 Q1702.17 277.446 1698.72 273.765 Q1695.27 270.085 1695.27 263.835 Q1695.27 257.492 1698.74 253.858 Q1702.24 250.224 1708.3 250.224 Q1710.27 250.224 1712.14 250.641 Q1714.02 251.034 1715.78 251.844 Z" fill="#000000" fill-rule="nonzero" fill-opacity="1" /><path clip-path="url(#clip550)" d="M1733.23 253.835 Q1729.81 253.835 1727.82 256.52 Q1725.82 259.182 1725.82 263.835 Q1725.82 268.488 1727.79 271.173 Q1729.78 273.835 1733.23 273.835 Q1736.63 273.835 1738.63 271.15 Q1740.62 268.464 1740.62 263.835 Q1740.62 259.228 1738.63 256.543 Q1736.63 253.835 1733.23 253.835 M1733.23 250.224 Q1738.79 250.224 1741.96 253.835 Q1745.13 257.446 1745.13 263.835 Q1745.13 270.201 1741.96 273.835 Q1738.79 277.446 1733.23 277.446 Q1727.65 277.446 1724.48 273.835 Q1721.33 270.201 1721.33 263.835 Q1721.33 257.446 1724.48 253.835 Q1727.65 250.224 1733.23 250.224 Z" fill="#000000" fill-rule="nonzero" fill-opacity="1" /><path clip-path="url(#clip550)" d="M1752.03 250.849 L1756.31 250.849 L1756.31 261.427 L1770.13 261.427 L1770.13 250.849 L1774.41 250.849 L1774.41 276.775 L1770.13 276.775 L1770.13 264.83 L1756.31 264.83 L1756.31 276.775 L1752.03 276.775 L1752.03 250.849 Z" fill="#000000" fill-rule="nonzero" fill-opacity="1" /><path clip-path="url(#clip550)" d="M1794.97 263.742 Q1789.81 263.742 1787.82 264.923 Q1785.82 266.103 1785.82 268.951 Q1785.82 271.219 1787.31 272.562 Q1788.81 273.881 1791.38 273.881 Q1794.92 273.881 1797.05 271.381 Q1799.2 268.858 1799.2 264.691 L1799.2 263.742 L1794.97 263.742 M1803.46 261.983 L1803.46 276.775 L1799.2 276.775 L1799.2 272.839 Q1797.75 275.201 1795.57 276.335 Q1793.39 277.446 1790.25 277.446 Q1786.26 277.446 1783.9 275.224 Q1781.57 272.978 1781.57 269.228 Q1781.57 264.853 1784.48 262.631 Q1787.42 260.409 1793.23 260.409 L1799.2 260.409 L1799.2 259.992 Q1799.2 257.053 1797.26 255.455 Q1795.34 253.835 1791.84 253.835 Q1789.62 253.835 1787.51 254.367 Q1785.41 254.9 1783.46 255.965 L1783.46 252.029 Q1785.8 251.127 1788 250.687 Q1790.2 250.224 1792.28 250.224 Q1797.91 250.224 1800.69 253.14 Q1803.46 256.057 1803.46 261.983 Z" fill="#000000" fill-rule="nonzero" fill-opacity="1" /><path clip-path="url(#clip550)" d="M1822.47 240.803 Q1819.37 246.127 1817.86 251.335 Q1816.36 256.543 1816.36 261.89 Q1816.36 267.238 1817.86 272.492 Q1819.39 277.724 1822.47 283.025 L1818.76 283.025 Q1815.29 277.585 1813.56 272.33 Q1811.84 267.076 1811.84 261.89 Q1811.84 256.728 1813.56 251.497 Q1815.27 246.266 1818.76 240.803 L1822.47 240.803 Z" fill="#000000" fill-rule="nonzero" fill-opacity="1" /><path clip-path="url(#clip550)" d="M1840.94 244.807 L1852.91 276.775 L1848.39 276.775 L1841.13 257.608 L1832.19 276.775 L1827.68 276.775 L1839.04 251.914 L1837.33 247.33 Q1836.24 244.414 1833.76 244.414 L1831.54 244.414 L1831.54 240.756 L1834.25 240.803 Q1839.48 240.872 1840.94 244.807 Z" fill="#000000" fill-rule="nonzero" fill-opacity="1" /><path clip-path="url(#clip550)" d="M1859.34 255.247 L1889.02 255.247 L1889.02 259.136 L1859.34 259.136 L1859.34 255.247 M1859.34 264.691 L1889.02 264.691 L1889.02 268.627 L1859.34 268.627 L1859.34 264.691 Z" fill="#000000" fill-rule="nonzero" fill-opacity="1" /><path clip-path="url(#clip550)" d="M1899.16 242.215 L1917.51 242.215 L1917.51 246.15 L1903.44 246.15 L1903.44 254.622 Q1904.46 254.275 1905.48 254.113 Q1906.5 253.928 1907.51 253.928 Q1913.3 253.928 1916.68 257.099 Q1920.06 260.27 1920.06 265.687 Q1920.06 271.265 1916.59 274.367 Q1913.12 277.446 1906.8 277.446 Q1904.62 277.446 1902.35 277.076 Q1900.11 276.705 1897.7 275.964 L1897.7 271.265 Q1899.78 272.4 1902 272.955 Q1904.23 273.511 1906.7 273.511 Q1910.71 273.511 1913.05 271.404 Q1915.38 269.298 1915.38 265.687 Q1915.38 262.076 1913.05 259.969 Q1910.71 257.863 1906.7 257.863 Q1904.83 257.863 1902.95 258.279 Q1901.1 258.696 1899.16 259.576 L1899.16 242.215 Z" fill="#000000" fill-rule="nonzero" fill-opacity="1" /><path clip-path="url(#clip550)" d="M1929.27 270.895 L1934.16 270.895 L1934.16 276.775 L1929.27 276.775 L1929.27 270.895 Z" fill="#000000" fill-rule="nonzero" fill-opacity="1" /><path clip-path="url(#clip550)" d="M1954.34 245.293 Q1950.73 245.293 1948.9 248.858 Q1947.1 252.4 1947.1 259.529 Q1947.1 266.636 1948.9 270.201 Q1950.73 273.742 1954.34 273.742 Q1957.98 273.742 1959.78 270.201 Q1961.61 266.636 1961.61 259.529 Q1961.61 252.4 1959.78 248.858 Q1957.98 245.293 1954.34 245.293 M1954.34 241.59 Q1960.15 241.59 1963.21 246.196 Q1966.29 250.779 1966.29 259.529 Q1966.29 268.256 1963.21 272.863 Q1960.15 277.446 1954.34 277.446 Q1948.53 277.446 1945.45 272.863 Q1942.4 268.256 1942.4 259.529 Q1942.4 250.779 1945.45 246.196 Q1948.53 241.59 1954.34 241.59 Z" fill="#000000" fill-rule="nonzero" fill-opacity="1" /><path clip-path="url(#clip550)" d="M1973.23 240.803 L1976.93 240.803 Q1980.41 246.266 1982.12 251.497 Q1983.86 256.728 1983.86 261.89 Q1983.86 267.076 1982.12 272.33 Q1980.41 277.585 1976.93 283.025 L1973.23 283.025 Q1976.31 277.724 1977.81 272.492 Q1979.34 267.238 1979.34 261.89 Q1979.34 256.543 1977.81 251.335 Q1976.31 246.127 1973.23 240.803 Z" fill="#000000" fill-rule="nonzero" fill-opacity="1" /></svg>
