<?xml version="1.0" encoding="utf-8"?>
<svg xmlns="http://www.w3.org/2000/svg" xmlns:xlink="http://www.w3.org/1999/xlink" width="480" height="384" viewBox="0 0 1920 1536">
<defs>
  <clipPath id="clip970">
    <rect x="0" y="0" width="1920" height="1536"/>
  </clipPath>
</defs>
<path clip-path="url(#clip970)" d="M0 1536 L1920 1536 L1920 0 L0 0  Z" fill="#ffffff" fill-rule="evenodd" fill-opacity="1"/>
<defs>
  <clipPath id="clip971">
    <rect x="180" y="135" width="1694" height="1209"/>
  </clipPath>
</defs>
<path clip-path="url(#clip970)" d="M434.643 1343.4 L1872.76 1343.4 L1872.76 135.568 L434.643 135.568  Z" fill="#ffffff" fill-rule="evenodd" fill-opacity="1"/>
<defs>
  <clipPath id="clip972">
    <rect x="434" y="135" width="1439" height="1209"/>
  </clipPath>
</defs>
<polyline clip-path="url(#clip972)" style="stroke:#000000; stroke-linecap:round; stroke-linejoin:round; stroke-width:2; stroke-opacity:0.1; fill:none" points="626.09,1343.4 626.09,135.568 "/>
<polyline clip-path="url(#clip972)" style="stroke:#000000; stroke-linecap:round; stroke-linejoin:round; stroke-width:2; stroke-opacity:0.1; fill:none" points="927.581,1343.4 927.581,135.568 "/>
<polyline clip-path="url(#clip972)" style="stroke:#000000; stroke-linecap:round; stroke-linejoin:round; stroke-width:2; stroke-opacity:0.1; fill:none" points="1229.07,1343.4 1229.07,135.568 "/>
<polyline clip-path="url(#clip972)" style="stroke:#000000; stroke-linecap:round; stroke-linejoin:round; stroke-width:2; stroke-opacity:0.1; fill:none" points="1530.56,1343.4 1530.56,135.568 "/>
<polyline clip-path="url(#clip972)" style="stroke:#000000; stroke-linecap:round; stroke-linejoin:round; stroke-width:2; stroke-opacity:0.1; fill:none" points="1832.05,1343.4 1832.05,135.568 "/>
<polyline clip-path="url(#clip972)" style="stroke:#000000; stroke-linecap:round; stroke-linejoin:round; stroke-width:2; stroke-opacity:0.1; fill:none" points="434.643,1309.22 1872.76,1309.22 "/>
<polyline clip-path="url(#clip972)" style="stroke:#000000; stroke-linecap:round; stroke-linejoin:round; stroke-width:2; stroke-opacity:0.1; fill:none" points="434.643,1140.41 1872.76,1140.41 "/>
<polyline clip-path="url(#clip972)" style="stroke:#000000; stroke-linecap:round; stroke-linejoin:round; stroke-width:2; stroke-opacity:0.1; fill:none" points="434.643,971.6 1872.76,971.6 "/>
<polyline clip-path="url(#clip972)" style="stroke:#000000; stroke-linecap:round; stroke-linejoin:round; stroke-width:2; stroke-opacity:0.1; fill:none" points="434.643,802.79 1872.76,802.79 "/>
<polyline clip-path="url(#clip972)" style="stroke:#000000; stroke-linecap:round; stroke-linejoin:round; stroke-width:2; stroke-opacity:0.1; fill:none" points="434.643,633.98 1872.76,633.98 "/>
<polyline clip-path="url(#clip972)" style="stroke:#000000; stroke-linecap:round; stroke-linejoin:round; stroke-width:2; stroke-opacity:0.1; fill:none" points="434.643,465.17 1872.76,465.17 "/>
<polyline clip-path="url(#clip972)" style="stroke:#000000; stroke-linecap:round; stroke-linejoin:round; stroke-width:2; stroke-opacity:0.1; fill:none" points="434.643,296.36 1872.76,296.36 "/>
<polyline clip-path="url(#clip970)" style="stroke:#000000; stroke-linecap:round; stroke-linejoin:round; stroke-width:4; stroke-opacity:1; fill:none" points="434.643,1343.4 1872.76,1343.4 "/>
<polyline clip-path="url(#clip970)" style="stroke:#000000; stroke-linecap:round; stroke-linejoin:round; stroke-width:4; stroke-opacity:1; fill:none" points="626.09,1343.4 626.09,1324.51 "/>
<polyline clip-path="url(#clip970)" style="stroke:#000000; stroke-linecap:round; stroke-linejoin:round; stroke-width:4; stroke-opacity:1; fill:none" points="927.581,1343.4 927.581,1324.51 "/>
<polyline clip-path="url(#clip970)" style="stroke:#000000; stroke-linecap:round; stroke-linejoin:round; stroke-width:4; stroke-opacity:1; fill:none" points="1229.07,1343.4 1229.07,1324.51 "/>
<polyline clip-path="url(#clip970)" style="stroke:#000000; stroke-linecap:round; stroke-linejoin:round; stroke-width:4; stroke-opacity:1; fill:none" points="1530.56,1343.4 1530.56,1324.51 "/>
<polyline clip-path="url(#clip970)" style="stroke:#000000; stroke-linecap:round; stroke-linejoin:round; stroke-width:4; stroke-opacity:1; fill:none" points="1832.05,1343.4 1832.05,1324.51 "/>
<path clip-path="url(#clip970)" d="M604.273 1370.48 Q600.662 1370.48 598.833 1374.05 Q597.027 1377.59 597.027 1384.72 Q597.027 1391.83 598.833 1395.39 Q600.662 1398.93 604.273 1398.93 Q607.907 1398.93 609.713 1395.39 Q611.541 1391.83 611.541 1384.72 Q611.541 1377.59 609.713 1374.05 Q607.907 1370.48 604.273 1370.48 M604.273 1366.78 Q610.083 1366.78 613.139 1371.39 Q616.217 1375.97 616.217 1384.72 Q616.217 1393.45 613.139 1398.05 Q610.083 1402.64 604.273 1402.64 Q598.463 1402.64 595.384 1398.05 Q592.328 1393.45 592.328 1384.72 Q592.328 1375.97 595.384 1371.39 Q598.463 1366.78 604.273 1366.78 Z" fill="#000000" fill-rule="nonzero" fill-opacity="1" /><path clip-path="url(#clip970)" d="M624.435 1396.08 L629.319 1396.08 L629.319 1401.96 L624.435 1401.96 L624.435 1396.08 Z" fill="#000000" fill-rule="nonzero" fill-opacity="1" /><path clip-path="url(#clip970)" d="M643.532 1398.03 L659.851 1398.03 L659.851 1401.96 L637.907 1401.96 L637.907 1398.03 Q640.569 1395.27 645.152 1390.64 Q649.759 1385.99 650.939 1384.65 Q653.185 1382.13 654.064 1380.39 Q654.967 1378.63 654.967 1376.94 Q654.967 1374.19 653.023 1372.45 Q651.101 1370.71 647.999 1370.71 Q645.8 1370.71 643.347 1371.48 Q640.916 1372.24 638.138 1373.79 L638.138 1369.07 Q640.962 1367.94 643.416 1367.36 Q645.87 1366.78 647.907 1366.78 Q653.277 1366.78 656.472 1369.46 Q659.666 1372.15 659.666 1376.64 Q659.666 1378.77 658.856 1380.69 Q658.069 1382.59 655.962 1385.18 Q655.384 1385.85 652.282 1389.07 Q649.18 1392.26 643.532 1398.03 Z" fill="#000000" fill-rule="nonzero" fill-opacity="1" /><path clip-path="url(#clip970)" d="M904.722 1370.48 Q901.111 1370.48 899.283 1374.05 Q897.477 1377.59 897.477 1384.72 Q897.477 1391.83 899.283 1395.39 Q901.111 1398.93 904.722 1398.93 Q908.357 1398.93 910.162 1395.39 Q911.991 1391.83 911.991 1384.72 Q911.991 1377.59 910.162 1374.05 Q908.357 1370.48 904.722 1370.48 M904.722 1366.78 Q910.533 1366.78 913.588 1371.39 Q916.667 1375.97 916.667 1384.72 Q916.667 1393.45 913.588 1398.05 Q910.533 1402.64 904.722 1402.64 Q898.912 1402.64 895.834 1398.05 Q892.778 1393.45 892.778 1384.72 Q892.778 1375.97 895.834 1371.39 Q898.912 1366.78 904.722 1366.78 Z" fill="#000000" fill-rule="nonzero" fill-opacity="1" /><path clip-path="url(#clip970)" d="M924.884 1396.08 L929.769 1396.08 L929.769 1401.96 L924.884 1401.96 L924.884 1396.08 Z" fill="#000000" fill-rule="nonzero" fill-opacity="1" /><path clip-path="url(#clip970)" d="M952.801 1371.48 L940.995 1389.93 L952.801 1389.93 L952.801 1371.48 M951.574 1367.4 L957.454 1367.4 L957.454 1389.93 L962.384 1389.93 L962.384 1393.82 L957.454 1393.82 L957.454 1401.96 L952.801 1401.96 L952.801 1393.82 L937.199 1393.82 L937.199 1389.3 L951.574 1367.4 Z" fill="#000000" fill-rule="nonzero" fill-opacity="1" /><path clip-path="url(#clip970)" d="M1206.38 1370.48 Q1202.76 1370.48 1200.94 1374.05 Q1199.13 1377.59 1199.13 1384.72 Q1199.13 1391.83 1200.94 1395.39 Q1202.76 1398.93 1206.38 1398.93 Q1210.01 1398.93 1211.82 1395.39 Q1213.64 1391.83 1213.64 1384.72 Q1213.64 1377.59 1211.82 1374.05 Q1210.01 1370.48 1206.38 1370.48 M1206.38 1366.78 Q1212.19 1366.78 1215.24 1371.39 Q1218.32 1375.97 1218.32 1384.72 Q1218.32 1393.45 1215.24 1398.05 Q1212.19 1402.64 1206.38 1402.64 Q1200.57 1402.64 1197.49 1398.05 Q1194.43 1393.45 1194.43 1384.72 Q1194.43 1375.97 1197.49 1371.39 Q1200.57 1366.78 1206.38 1366.78 Z" fill="#000000" fill-rule="nonzero" fill-opacity="1" /><path clip-path="url(#clip970)" d="M1226.54 1396.08 L1231.42 1396.08 L1231.42 1401.96 L1226.54 1401.96 L1226.54 1396.08 Z" fill="#000000" fill-rule="nonzero" fill-opacity="1" /><path clip-path="url(#clip970)" d="M1252.19 1382.82 Q1249.04 1382.82 1247.19 1384.97 Q1245.36 1387.13 1245.36 1390.88 Q1245.36 1394.6 1247.19 1396.78 Q1249.04 1398.93 1252.19 1398.93 Q1255.33 1398.93 1257.16 1396.78 Q1259.01 1394.6 1259.01 1390.88 Q1259.01 1387.13 1257.16 1384.97 Q1255.33 1382.82 1252.19 1382.82 M1261.47 1368.17 L1261.47 1372.43 Q1259.71 1371.59 1257.9 1371.15 Q1256.12 1370.71 1254.36 1370.71 Q1249.73 1370.71 1247.28 1373.84 Q1244.85 1376.96 1244.5 1383.28 Q1245.87 1381.27 1247.93 1380.2 Q1249.99 1379.12 1252.46 1379.12 Q1257.67 1379.12 1260.68 1382.29 Q1263.71 1385.44 1263.71 1390.88 Q1263.71 1396.2 1260.57 1399.42 Q1257.42 1402.64 1252.19 1402.64 Q1246.19 1402.64 1243.02 1398.05 Q1239.85 1393.45 1239.85 1384.72 Q1239.85 1376.52 1243.74 1371.66 Q1247.63 1366.78 1254.18 1366.78 Q1255.94 1366.78 1257.72 1367.13 Q1259.52 1367.47 1261.47 1368.17 Z" fill="#000000" fill-rule="nonzero" fill-opacity="1" /><path clip-path="url(#clip970)" d="M1507.99 1370.48 Q1504.38 1370.48 1502.55 1374.05 Q1500.75 1377.59 1500.75 1384.72 Q1500.75 1391.83 1502.55 1395.39 Q1504.38 1398.93 1507.99 1398.93 Q1511.63 1398.93 1513.43 1395.39 Q1515.26 1391.83 1515.26 1384.72 Q1515.26 1377.59 1513.43 1374.05 Q1511.63 1370.48 1507.99 1370.48 M1507.99 1366.78 Q1513.8 1366.78 1516.86 1371.39 Q1519.94 1375.97 1519.94 1384.72 Q1519.94 1393.45 1516.86 1398.05 Q1513.8 1402.64 1507.99 1402.64 Q1502.18 1402.64 1499.11 1398.05 Q1496.05 1393.45 1496.05 1384.72 Q1496.05 1375.97 1499.11 1371.39 Q1502.18 1366.78 1507.99 1366.78 Z" fill="#000000" fill-rule="nonzero" fill-opacity="1" /><path clip-path="url(#clip970)" d="M1528.16 1396.08 L1533.04 1396.08 L1533.04 1401.96 L1528.16 1401.96 L1528.16 1396.08 Z" fill="#000000" fill-rule="nonzero" fill-opacity="1" /><path clip-path="url(#clip970)" d="M1553.23 1385.55 Q1549.89 1385.55 1547.97 1387.33 Q1546.07 1389.12 1546.07 1392.24 Q1546.07 1395.37 1547.97 1397.15 Q1549.89 1398.93 1553.23 1398.93 Q1556.56 1398.93 1558.48 1397.15 Q1560.4 1395.34 1560.4 1392.24 Q1560.4 1389.12 1558.48 1387.33 Q1556.58 1385.55 1553.23 1385.55 M1548.55 1383.56 Q1545.54 1382.82 1543.85 1380.76 Q1542.18 1378.7 1542.18 1375.74 Q1542.18 1371.59 1545.12 1369.19 Q1548.09 1366.78 1553.23 1366.78 Q1558.39 1366.78 1561.33 1369.19 Q1564.27 1371.59 1564.27 1375.74 Q1564.27 1378.7 1562.58 1380.76 Q1560.91 1382.82 1557.92 1383.56 Q1561.3 1384.35 1563.18 1386.64 Q1565.08 1388.93 1565.08 1392.24 Q1565.08 1397.26 1562 1399.95 Q1558.94 1402.64 1553.23 1402.64 Q1547.51 1402.64 1544.43 1399.95 Q1541.37 1397.26 1541.37 1392.24 Q1541.37 1388.93 1543.27 1386.64 Q1545.17 1384.35 1548.55 1383.56 M1546.84 1376.18 Q1546.84 1378.86 1548.5 1380.37 Q1550.19 1381.87 1553.23 1381.87 Q1556.23 1381.87 1557.92 1380.37 Q1559.64 1378.86 1559.64 1376.18 Q1559.64 1373.49 1557.92 1371.99 Q1556.23 1370.48 1553.23 1370.48 Q1550.19 1370.48 1548.5 1371.99 Q1546.84 1373.49 1546.84 1376.18 Z" fill="#000000" fill-rule="nonzero" fill-opacity="1" /><path clip-path="url(#clip970)" d="M1799.21 1398.03 L1806.85 1398.03 L1806.85 1371.66 L1798.54 1373.33 L1798.54 1369.07 L1806.8 1367.4 L1811.48 1367.4 L1811.48 1398.03 L1819.11 1398.03 L1819.11 1401.96 L1799.21 1401.96 L1799.21 1398.03 Z" fill="#000000" fill-rule="nonzero" fill-opacity="1" /><path clip-path="url(#clip970)" d="M1828.56 1396.08 L1833.44 1396.08 L1833.44 1401.96 L1828.56 1401.96 L1828.56 1396.08 Z" fill="#000000" fill-rule="nonzero" fill-opacity="1" /><path clip-path="url(#clip970)" d="M1853.63 1370.48 Q1850.02 1370.48 1848.19 1374.05 Q1846.38 1377.59 1846.38 1384.72 Q1846.38 1391.83 1848.19 1395.39 Q1850.02 1398.93 1853.63 1398.93 Q1857.26 1398.93 1859.07 1395.39 Q1860.9 1391.83 1860.9 1384.72 Q1860.9 1377.59 1859.07 1374.05 Q1857.26 1370.48 1853.63 1370.48 M1853.63 1366.78 Q1859.44 1366.78 1862.49 1371.39 Q1865.57 1375.97 1865.57 1384.72 Q1865.57 1393.45 1862.49 1398.05 Q1859.44 1402.64 1853.63 1402.64 Q1847.82 1402.64 1844.74 1398.05 Q1841.68 1393.45 1841.68 1384.72 Q1841.68 1375.97 1844.74 1371.39 Q1847.82 1366.78 1853.63 1366.78 Z" fill="#000000" fill-rule="nonzero" fill-opacity="1" /><path clip-path="url(#clip970)" d="M886.212 1437.21 L886.212 1443.99 Q882.966 1440.96 879.274 1439.47 Q875.614 1437.97 871.476 1437.97 Q863.328 1437.97 858.999 1442.97 Q854.67 1447.93 854.67 1457.36 Q854.67 1466.75 858.999 1471.74 Q863.328 1476.71 871.476 1476.71 Q875.614 1476.71 879.274 1475.21 Q882.966 1473.72 886.212 1470.69 L886.212 1477.41 Q882.839 1479.7 879.051 1480.85 Q875.295 1481.99 871.094 1481.99 Q860.304 1481.99 854.097 1475.4 Q847.891 1468.78 847.891 1457.36 Q847.891 1445.9 854.097 1439.31 Q860.304 1432.69 871.094 1432.69 Q875.359 1432.69 879.115 1433.83 Q882.902 1434.95 886.212 1437.21 Z" fill="#000000" fill-rule="nonzero" fill-opacity="1" /><path clip-path="url(#clip970)" d="M895.665 1445.42 L901.49 1445.42 L901.49 1462.16 L918.009 1445.42 L925.202 1445.42 L911.58 1459.2 L926.953 1481.07 L920.396 1481.07 L907.76 1463.08 L901.49 1469.45 L901.49 1481.07 L895.665 1481.07 L895.665 1445.42 Z" fill="#000000" fill-rule="nonzero" fill-opacity="1" /><path clip-path="url(#clip970)" d="M949.074 1449.53 Q944.363 1449.53 941.626 1453.22 Q938.889 1456.88 938.889 1463.28 Q938.889 1469.67 941.594 1473.37 Q944.331 1477.03 949.074 1477.03 Q953.753 1477.03 956.49 1473.33 Q959.227 1469.64 959.227 1463.28 Q959.227 1456.94 956.49 1453.25 Q953.753 1449.53 949.074 1449.53 M949.074 1444.56 Q956.713 1444.56 961.073 1449.53 Q965.434 1454.49 965.434 1463.28 Q965.434 1472.03 961.073 1477.03 Q956.713 1481.99 949.074 1481.99 Q941.403 1481.99 937.043 1477.03 Q932.714 1472.03 932.714 1463.28 Q932.714 1454.49 937.043 1449.53 Q941.403 1444.56 949.074 1444.56 Z" fill="#000000" fill-rule="nonzero" fill-opacity="1" /><path clip-path="url(#clip970)" d="M980.807 1475.72 L980.807 1494.63 L974.919 1494.63 L974.919 1445.42 L980.807 1445.42 L980.807 1450.83 Q982.653 1447.65 985.454 1446.12 Q988.287 1444.56 992.201 1444.56 Q998.694 1444.56 1002.74 1449.72 Q1006.81 1454.87 1006.81 1463.28 Q1006.81 1471.68 1002.74 1476.83 Q998.694 1481.99 992.201 1481.99 Q988.287 1481.99 985.454 1480.46 Q982.653 1478.9 980.807 1475.72 M1000.73 1463.28 Q1000.73 1456.81 998.058 1453.15 Q995.416 1449.46 990.769 1449.46 Q986.122 1449.46 983.449 1453.15 Q980.807 1456.81 980.807 1463.28 Q980.807 1469.74 983.449 1473.43 Q986.122 1477.09 990.769 1477.09 Q995.416 1477.09 998.058 1473.43 Q1000.73 1469.74 1000.73 1463.28 Z" fill="#000000" fill-rule="nonzero" fill-opacity="1" /><path clip-path="url(#clip970)" d="M1030.33 1449.53 Q1025.62 1449.53 1022.88 1453.22 Q1020.15 1456.88 1020.15 1463.28 Q1020.15 1469.67 1022.85 1473.37 Q1025.59 1477.03 1030.33 1477.03 Q1035.01 1477.03 1037.75 1473.33 Q1040.49 1469.64 1040.49 1463.28 Q1040.49 1456.94 1037.75 1453.25 Q1035.01 1449.53 1030.33 1449.53 M1030.33 1444.56 Q1037.97 1444.56 1042.33 1449.53 Q1046.69 1454.49 1046.69 1463.28 Q1046.69 1472.03 1042.33 1477.03 Q1037.97 1481.99 1030.33 1481.99 Q1022.66 1481.99 1018.3 1477.03 Q1013.97 1472.03 1013.97 1463.28 Q1013.97 1454.49 1018.3 1449.53 Q1022.66 1444.56 1030.33 1444.56 Z" fill="#000000" fill-rule="nonzero" fill-opacity="1" /><path clip-path="url(#clip970)" d="M1082.05 1446.79 L1082.05 1452.26 Q1079.57 1450.89 1077.06 1450.23 Q1074.57 1449.53 1072.03 1449.53 Q1066.33 1449.53 1063.18 1453.15 Q1060.03 1456.75 1060.03 1463.28 Q1060.03 1469.8 1063.18 1473.43 Q1066.33 1477.03 1072.03 1477.03 Q1074.57 1477.03 1077.06 1476.36 Q1079.57 1475.66 1082.05 1474.29 L1082.05 1479.7 Q1079.6 1480.85 1076.96 1481.42 Q1074.35 1481.99 1071.39 1481.99 Q1063.34 1481.99 1058.6 1476.93 Q1053.85 1471.87 1053.85 1463.28 Q1053.85 1454.55 1058.63 1449.56 Q1063.43 1444.56 1071.77 1444.56 Q1074.48 1444.56 1077.06 1445.13 Q1079.63 1445.67 1082.05 1446.79 Z" fill="#000000" fill-rule="nonzero" fill-opacity="1" /><path clip-path="url(#clip970)" d="M1088.01 1445.42 L1122.16 1445.42 L1122.16 1450.1 L1107.96 1450.1 L1107.96 1481.07 L1102.2 1481.07 L1102.2 1450.1 L1088.01 1450.1 L1088.01 1445.42 Z" fill="#000000" fill-rule="nonzero" fill-opacity="1" /><path clip-path="url(#clip970)" d="M1152.39 1470.5 Q1152.39 1467.64 1150.29 1466.14 Q1148.22 1464.64 1144.21 1464.64 L1135.88 1464.64 L1135.88 1476.39 L1144.21 1476.39 Q1148.22 1476.39 1150.29 1474.89 Q1152.39 1473.37 1152.39 1470.5 M1129.99 1445.42 L1135.88 1445.42 L1135.88 1459.97 L1144.47 1459.97 Q1151.28 1459.97 1154.94 1462.58 Q1158.63 1465.15 1158.63 1470.5 Q1158.63 1475.85 1154.94 1478.46 Q1151.28 1481.07 1144.47 1481.07 L1129.99 1481.07 L1129.99 1445.42 Z" fill="#000000" fill-rule="nonzero" fill-opacity="1" /><path clip-path="url(#clip970)" d="M1195.01 1475.72 L1195.01 1494.63 L1189.12 1494.63 L1189.12 1445.42 L1195.01 1445.42 L1195.01 1450.83 Q1196.86 1447.65 1199.66 1446.12 Q1202.49 1444.56 1206.41 1444.56 Q1212.9 1444.56 1216.94 1449.72 Q1221.02 1454.87 1221.02 1463.28 Q1221.02 1471.68 1216.94 1476.83 Q1212.9 1481.99 1206.41 1481.99 Q1202.49 1481.99 1199.66 1480.46 Q1196.86 1478.9 1195.01 1475.72 M1214.94 1463.28 Q1214.94 1456.81 1212.26 1453.15 Q1209.62 1449.46 1204.98 1449.46 Q1200.33 1449.46 1197.65 1453.15 Q1195.01 1456.81 1195.01 1463.28 Q1195.01 1469.74 1197.65 1473.43 Q1200.33 1477.09 1204.98 1477.09 Q1209.62 1477.09 1212.26 1473.43 Q1214.94 1469.74 1214.94 1463.28 Z" fill="#000000" fill-rule="nonzero" fill-opacity="1" /><path clip-path="url(#clip970)" d="M1244.54 1449.53 Q1239.83 1449.53 1237.09 1453.22 Q1234.35 1456.88 1234.35 1463.28 Q1234.35 1469.67 1237.06 1473.37 Q1239.8 1477.03 1244.54 1477.03 Q1249.22 1477.03 1251.95 1473.33 Q1254.69 1469.64 1254.69 1463.28 Q1254.69 1456.94 1251.95 1453.25 Q1249.22 1449.53 1244.54 1449.53 M1244.54 1444.56 Q1252.18 1444.56 1256.54 1449.53 Q1260.9 1454.49 1260.9 1463.28 Q1260.9 1472.03 1256.54 1477.03 Q1252.18 1481.99 1244.54 1481.99 Q1236.87 1481.99 1232.51 1477.03 Q1228.18 1472.03 1228.18 1463.28 Q1228.18 1454.49 1232.51 1449.53 Q1236.87 1444.56 1244.54 1444.56 Z" fill="#000000" fill-rule="nonzero" fill-opacity="1" /><path clip-path="url(#clip970)" d="M1296.26 1446.79 L1296.26 1452.26 Q1293.78 1450.89 1291.26 1450.23 Q1288.78 1449.53 1286.23 1449.53 Q1280.54 1449.53 1277.39 1453.15 Q1274.23 1456.75 1274.23 1463.28 Q1274.23 1469.8 1277.39 1473.43 Q1280.54 1477.03 1286.23 1477.03 Q1288.78 1477.03 1291.26 1476.36 Q1293.78 1475.66 1296.26 1474.29 L1296.26 1479.7 Q1293.81 1480.85 1291.17 1481.42 Q1288.56 1481.99 1285.6 1481.99 Q1277.54 1481.99 1272.8 1476.93 Q1268.06 1471.87 1268.06 1463.28 Q1268.06 1454.55 1272.83 1449.56 Q1277.64 1444.56 1285.98 1444.56 Q1288.68 1444.56 1291.26 1445.13 Q1293.84 1445.67 1296.26 1446.79 Z" fill="#000000" fill-rule="nonzero" fill-opacity="1" /><path clip-path="url(#clip970)" d="M1302.21 1445.42 L1336.36 1445.42 L1336.36 1450.1 L1322.17 1450.1 L1322.17 1481.07 L1316.41 1481.07 L1316.41 1450.1 L1302.21 1450.1 L1302.21 1445.42 Z" fill="#000000" fill-rule="nonzero" fill-opacity="1" /><path clip-path="url(#clip970)" d="M1360.62 1463.15 Q1353.52 1463.15 1350.78 1464.77 Q1348.04 1466.39 1348.04 1470.31 Q1348.04 1473.43 1350.08 1475.28 Q1352.15 1477.09 1355.68 1477.09 Q1360.55 1477.09 1363.48 1473.65 Q1366.44 1470.18 1366.44 1464.45 L1366.44 1463.15 L1360.62 1463.15 M1372.3 1460.73 L1372.3 1481.07 L1366.44 1481.07 L1366.44 1475.66 Q1364.44 1478.9 1361.44 1480.46 Q1358.45 1481.99 1354.12 1481.99 Q1348.65 1481.99 1345.4 1478.94 Q1342.19 1475.85 1342.19 1470.69 Q1342.19 1464.68 1346.2 1461.62 Q1350.24 1458.57 1358.23 1458.57 L1366.44 1458.57 L1366.44 1457.99 Q1366.44 1453.95 1363.77 1451.75 Q1361.13 1449.53 1356.32 1449.53 Q1353.26 1449.53 1350.37 1450.26 Q1347.47 1450.99 1344.8 1452.45 L1344.8 1447.04 Q1348.01 1445.8 1351.04 1445.2 Q1354.06 1444.56 1356.92 1444.56 Q1364.66 1444.56 1368.48 1448.57 Q1372.3 1452.58 1372.3 1460.73 Z" fill="#000000" fill-rule="nonzero" fill-opacity="1" /><path clip-path="url(#clip970)" d="M1385.86 1472.98 L1392.57 1472.98 L1392.57 1478.46 L1387.35 1488.64 L1383.25 1488.64 L1385.86 1478.46 L1385.86 1472.98 Z" fill="#000000" fill-rule="nonzero" fill-opacity="1" /><path clip-path="url(#clip970)" d="M1446.59 1464.49 L1445.19 1457.13 Q1443.75 1449.59 1438.09 1449.59 Q1433.82 1449.59 1431.88 1453.09 Q1429.43 1457.48 1429.43 1463.28 Q1429.43 1470.28 1431.82 1473.62 Q1434.24 1477.03 1438.09 1477.03 Q1442.35 1477.03 1444.64 1470.25 L1446.59 1464.49 M1449.86 1454.75 L1453.01 1445.42 L1458.23 1445.42 L1451.71 1464.74 L1452.98 1471.71 Q1453.27 1473.27 1454.38 1474.57 Q1455.69 1476.1 1456.71 1476.1 L1459.51 1476.1 L1459.51 1481.07 L1456.01 1481.07 Q1453.01 1481.07 1450.34 1478.39 Q1449.04 1477.06 1448.5 1474.26 Q1447.03 1477.79 1444.04 1480.56 Q1442.64 1481.86 1438.09 1481.86 Q1430.61 1481.86 1426.98 1477.03 Q1423.26 1472.03 1423.26 1463.28 Q1423.26 1453.92 1427.3 1449.53 Q1431.79 1444.62 1438.09 1444.62 Q1447.99 1444.62 1449.86 1454.75 Z" fill="#000000" fill-rule="nonzero" fill-opacity="1" /><polyline clip-path="url(#clip970)" style="stroke:#000000; stroke-linecap:round; stroke-linejoin:round; stroke-width:4; stroke-opacity:1; fill:none" points="434.643,1343.4 434.643,135.568 "/>
<polyline clip-path="url(#clip970)" style="stroke:#000000; stroke-linecap:round; stroke-linejoin:round; stroke-width:4; stroke-opacity:1; fill:none" points="434.643,1309.22 453.541,1309.22 "/>
<polyline clip-path="url(#clip970)" style="stroke:#000000; stroke-linecap:round; stroke-linejoin:round; stroke-width:4; stroke-opacity:1; fill:none" points="434.643,1140.41 453.541,1140.41 "/>
<polyline clip-path="url(#clip970)" style="stroke:#000000; stroke-linecap:round; stroke-linejoin:round; stroke-width:4; stroke-opacity:1; fill:none" points="434.643,971.6 453.541,971.6 "/>
<polyline clip-path="url(#clip970)" style="stroke:#000000; stroke-linecap:round; stroke-linejoin:round; stroke-width:4; stroke-opacity:1; fill:none" points="434.643,802.79 453.541,802.79 "/>
<polyline clip-path="url(#clip970)" style="stroke:#000000; stroke-linecap:round; stroke-linejoin:round; stroke-width:4; stroke-opacity:1; fill:none" points="434.643,633.98 453.541,633.98 "/>
<polyline clip-path="url(#clip970)" style="stroke:#000000; stroke-linecap:round; stroke-linejoin:round; stroke-width:4; stroke-opacity:1; fill:none" points="434.643,465.17 453.541,465.17 "/>
<polyline clip-path="url(#clip970)" style="stroke:#000000; stroke-linecap:round; stroke-linejoin:round; stroke-width:4; stroke-opacity:1; fill:none" points="434.643,296.36 453.541,296.36 "/>
<path clip-path="url(#clip970)" d="M131.789 1329.01 L148.108 1329.01 L148.108 1332.95 L126.164 1332.95 L126.164 1329.01 Q128.826 1326.26 133.409 1321.63 Q138.016 1316.98 139.196 1315.63 Q141.442 1313.11 142.321 1311.37 Q143.224 1309.61 143.224 1307.92 Q143.224 1305.17 141.28 1303.43 Q139.359 1301.7 136.257 1301.7 Q134.058 1301.7 131.604 1302.46 Q129.173 1303.23 126.396 1304.78 L126.396 1300.05 Q129.22 1298.92 131.673 1298.34 Q134.127 1297.76 136.164 1297.76 Q141.534 1297.76 144.729 1300.45 Q147.923 1303.13 147.923 1307.62 Q147.923 1309.75 147.113 1311.67 Q146.326 1313.57 144.22 1316.17 Q143.641 1316.84 140.539 1320.05 Q137.437 1323.25 131.789 1329.01 Z" fill="#000000" fill-rule="nonzero" fill-opacity="1" /><path clip-path="url(#clip970)" d="M157.923 1327.07 L162.807 1327.07 L162.807 1332.95 L157.923 1332.95 L157.923 1327.07 Z" fill="#000000" fill-rule="nonzero" fill-opacity="1" /><path clip-path="url(#clip970)" d="M173.039 1298.39 L191.395 1298.39 L191.395 1302.32 L177.321 1302.32 L177.321 1310.79 Q178.34 1310.45 179.358 1310.29 Q180.377 1310.1 181.395 1310.1 Q187.182 1310.1 190.562 1313.27 Q193.942 1316.44 193.942 1321.86 Q193.942 1327.44 190.469 1330.54 Q186.997 1333.62 180.678 1333.62 Q178.502 1333.62 176.233 1333.25 Q173.988 1332.88 171.581 1332.14 L171.581 1327.44 Q173.664 1328.57 175.886 1329.13 Q178.108 1329.68 180.585 1329.68 Q184.59 1329.68 186.928 1327.58 Q189.266 1325.47 189.266 1321.86 Q189.266 1318.25 186.928 1316.14 Q184.59 1314.04 180.585 1314.04 Q178.71 1314.04 176.835 1314.45 Q174.983 1314.87 173.039 1315.75 L173.039 1298.39 Z" fill="#000000" fill-rule="nonzero" fill-opacity="1" /><path clip-path="url(#clip970)" d="M213.154 1316.54 Q209.821 1316.54 207.9 1318.32 Q206.002 1320.1 206.002 1323.23 Q206.002 1326.35 207.9 1328.13 Q209.821 1329.92 213.154 1329.92 Q216.488 1329.92 218.409 1328.13 Q220.33 1326.33 220.33 1323.23 Q220.33 1320.1 218.409 1318.32 Q216.511 1316.54 213.154 1316.54 M208.479 1314.54 Q205.469 1313.8 203.779 1311.74 Q202.113 1309.68 202.113 1306.72 Q202.113 1302.58 205.053 1300.17 Q208.016 1297.76 213.154 1297.76 Q218.316 1297.76 221.256 1300.17 Q224.196 1302.58 224.196 1306.72 Q224.196 1309.68 222.506 1311.74 Q220.84 1313.8 217.853 1314.54 Q221.233 1315.33 223.108 1317.62 Q225.006 1319.92 225.006 1323.23 Q225.006 1328.25 221.928 1330.93 Q218.872 1333.62 213.154 1333.62 Q207.437 1333.62 204.358 1330.93 Q201.303 1328.25 201.303 1323.23 Q201.303 1319.92 203.201 1317.62 Q205.099 1315.33 208.479 1314.54 M206.766 1307.16 Q206.766 1309.85 208.432 1311.35 Q210.122 1312.85 213.154 1312.85 Q216.164 1312.85 217.853 1311.35 Q219.566 1309.85 219.566 1307.16 Q219.566 1304.48 217.853 1302.97 Q216.164 1301.47 213.154 1301.47 Q210.122 1301.47 208.432 1302.97 Q206.766 1304.48 206.766 1307.16 Z" fill="#000000" fill-rule="nonzero" fill-opacity="1" /><path clip-path="url(#clip970)" d="M243.316 1301.47 Q239.705 1301.47 237.877 1305.03 Q236.071 1308.57 236.071 1315.7 Q236.071 1322.81 237.877 1326.37 Q239.705 1329.92 243.316 1329.92 Q246.951 1329.92 248.756 1326.37 Q250.585 1322.81 250.585 1315.7 Q250.585 1308.57 248.756 1305.03 Q246.951 1301.47 243.316 1301.47 M243.316 1297.76 Q249.126 1297.76 252.182 1302.37 Q255.261 1306.95 255.261 1315.7 Q255.261 1324.43 252.182 1329.04 Q249.126 1333.62 243.316 1333.62 Q237.506 1333.62 234.427 1329.04 Q231.372 1324.43 231.372 1315.7 Q231.372 1306.95 234.427 1302.37 Q237.506 1297.76 243.316 1297.76 Z" fill="#000000" fill-rule="nonzero" fill-opacity="1" /><path clip-path="url(#clip970)" d="M291.649 1307.48 L281.071 1318.11 L291.649 1328.69 L288.895 1331.49 L278.27 1320.86 L267.645 1331.49 L264.913 1328.69 L275.469 1318.11 L264.913 1307.48 L267.645 1304.68 L278.27 1315.31 L288.895 1304.68 L291.649 1307.48 Z" fill="#000000" fill-rule="nonzero" fill-opacity="1" /><path clip-path="url(#clip970)" d="M304.01 1329.01 L311.649 1329.01 L311.649 1302.65 L303.339 1304.31 L303.339 1300.05 L311.603 1298.39 L316.279 1298.39 L316.279 1329.01 L323.918 1329.01 L323.918 1332.95 L304.01 1332.95 L304.01 1329.01 Z" fill="#000000" fill-rule="nonzero" fill-opacity="1" /><path clip-path="url(#clip970)" d="M343.362 1301.47 Q339.751 1301.47 337.922 1305.03 Q336.117 1308.57 336.117 1315.7 Q336.117 1322.81 337.922 1326.37 Q339.751 1329.92 343.362 1329.92 Q346.996 1329.92 348.802 1326.37 Q350.631 1322.81 350.631 1315.7 Q350.631 1308.57 348.802 1305.03 Q346.996 1301.47 343.362 1301.47 M343.362 1297.76 Q349.172 1297.76 352.228 1302.37 Q355.306 1306.95 355.306 1315.7 Q355.306 1324.43 352.228 1329.04 Q349.172 1333.62 343.362 1333.62 Q337.552 1333.62 334.473 1329.04 Q331.418 1324.43 331.418 1315.7 Q331.418 1306.95 334.473 1302.37 Q337.552 1297.76 343.362 1297.76 Z" fill="#000000" fill-rule="nonzero" fill-opacity="1" /><path clip-path="url(#clip970)" d="M355.306 1291.86 L379.418 1291.86 L379.418 1295.06 L355.306 1295.06 L355.306 1291.86 Z" fill="#000000" fill-rule="nonzero" fill-opacity="1" /><path clip-path="url(#clip970)" d="M398.057 1280.77 L388.465 1295.76 L398.057 1295.76 L398.057 1280.77 M397.06 1277.46 L401.837 1277.46 L401.837 1295.76 L405.843 1295.76 L405.843 1298.92 L401.837 1298.92 L401.837 1305.54 L398.057 1305.54 L398.057 1298.92 L385.38 1298.92 L385.38 1295.25 L397.06 1277.46 Z" fill="#000000" fill-rule="nonzero" fill-opacity="1" /><path clip-path="url(#clip970)" d="M131.789 1160.2 L148.108 1160.2 L148.108 1164.14 L126.164 1164.14 L126.164 1160.2 Q128.826 1157.45 133.409 1152.82 Q138.016 1148.17 139.196 1146.82 Q141.442 1144.3 142.321 1142.56 Q143.224 1140.8 143.224 1139.11 Q143.224 1136.36 141.28 1134.62 Q139.359 1132.89 136.257 1132.89 Q134.058 1132.89 131.604 1133.65 Q129.173 1134.42 126.396 1135.97 L126.396 1131.24 Q129.22 1130.11 131.673 1129.53 Q134.127 1128.95 136.164 1128.95 Q141.534 1128.95 144.729 1131.64 Q147.923 1134.32 147.923 1138.81 Q147.923 1140.94 147.113 1142.86 Q146.326 1144.76 144.22 1147.36 Q143.641 1148.03 140.539 1151.24 Q137.437 1154.44 131.789 1160.2 Z" fill="#000000" fill-rule="nonzero" fill-opacity="1" /><path clip-path="url(#clip970)" d="M157.923 1158.26 L162.807 1158.26 L162.807 1164.14 L157.923 1164.14 L157.923 1158.26 Z" fill="#000000" fill-rule="nonzero" fill-opacity="1" /><path clip-path="url(#clip970)" d="M173.039 1129.58 L191.395 1129.58 L191.395 1133.51 L177.321 1133.51 L177.321 1141.98 Q178.34 1141.64 179.358 1141.48 Q180.377 1141.29 181.395 1141.29 Q187.182 1141.29 190.562 1144.46 Q193.942 1147.63 193.942 1153.05 Q193.942 1158.63 190.469 1161.73 Q186.997 1164.81 180.678 1164.81 Q178.502 1164.81 176.233 1164.44 Q173.988 1164.07 171.581 1163.33 L171.581 1158.63 Q173.664 1159.76 175.886 1160.32 Q178.108 1160.87 180.585 1160.87 Q184.59 1160.87 186.928 1158.77 Q189.266 1156.66 189.266 1153.05 Q189.266 1149.44 186.928 1147.33 Q184.59 1145.23 180.585 1145.23 Q178.71 1145.23 176.835 1145.64 Q174.983 1146.06 173.039 1146.94 L173.039 1129.58 Z" fill="#000000" fill-rule="nonzero" fill-opacity="1" /><path clip-path="url(#clip970)" d="M203.293 1163.42 L203.293 1159.16 Q205.053 1159.99 206.858 1160.43 Q208.664 1160.87 210.4 1160.87 Q215.029 1160.87 217.46 1157.77 Q219.914 1154.65 220.261 1148.3 Q218.918 1150.29 216.858 1151.36 Q214.798 1152.42 212.298 1152.42 Q207.113 1152.42 204.08 1149.3 Q201.071 1146.15 201.071 1140.71 Q201.071 1135.39 204.219 1132.17 Q207.367 1128.95 212.599 1128.95 Q218.594 1128.95 221.742 1133.56 Q224.914 1138.14 224.914 1146.89 Q224.914 1155.06 221.025 1159.95 Q217.159 1164.81 210.608 1164.81 Q208.849 1164.81 207.043 1164.46 Q205.238 1164.11 203.293 1163.42 M212.599 1148.77 Q215.747 1148.77 217.576 1146.61 Q219.428 1144.46 219.428 1140.71 Q219.428 1136.98 217.576 1134.83 Q215.747 1132.66 212.599 1132.66 Q209.451 1132.66 207.599 1134.83 Q205.77 1136.98 205.77 1140.71 Q205.77 1144.46 207.599 1146.61 Q209.451 1148.77 212.599 1148.77 Z" fill="#000000" fill-rule="nonzero" fill-opacity="1" /><path clip-path="url(#clip970)" d="M243.316 1132.66 Q239.705 1132.66 237.877 1136.22 Q236.071 1139.76 236.071 1146.89 Q236.071 1154 237.877 1157.56 Q239.705 1161.1 243.316 1161.1 Q246.951 1161.1 248.756 1157.56 Q250.585 1154 250.585 1146.89 Q250.585 1139.76 248.756 1136.22 Q246.951 1132.66 243.316 1132.66 M243.316 1128.95 Q249.126 1128.95 252.182 1133.56 Q255.261 1138.14 255.261 1146.89 Q255.261 1155.62 252.182 1160.23 Q249.126 1164.81 243.316 1164.81 Q237.506 1164.81 234.427 1160.23 Q231.372 1155.62 231.372 1146.89 Q231.372 1138.14 234.427 1133.56 Q237.506 1128.95 243.316 1128.95 Z" fill="#000000" fill-rule="nonzero" fill-opacity="1" /><path clip-path="url(#clip970)" d="M291.649 1138.67 L281.071 1149.3 L291.649 1159.88 L288.895 1162.68 L278.27 1152.05 L267.645 1162.68 L264.913 1159.88 L275.469 1149.3 L264.913 1138.67 L267.645 1135.87 L278.27 1146.5 L288.895 1135.87 L291.649 1138.67 Z" fill="#000000" fill-rule="nonzero" fill-opacity="1" /><path clip-path="url(#clip970)" d="M304.01 1160.2 L311.649 1160.2 L311.649 1133.84 L303.339 1135.5 L303.339 1131.24 L311.603 1129.58 L316.279 1129.58 L316.279 1160.2 L323.918 1160.2 L323.918 1164.14 L304.01 1164.14 L304.01 1160.2 Z" fill="#000000" fill-rule="nonzero" fill-opacity="1" /><path clip-path="url(#clip970)" d="M343.362 1132.66 Q339.751 1132.66 337.922 1136.22 Q336.117 1139.76 336.117 1146.89 Q336.117 1154 337.922 1157.56 Q339.751 1161.1 343.362 1161.1 Q346.996 1161.1 348.802 1157.56 Q350.631 1154 350.631 1146.89 Q350.631 1139.76 348.802 1136.22 Q346.996 1132.66 343.362 1132.66 M343.362 1128.95 Q349.172 1128.95 352.228 1133.56 Q355.306 1138.14 355.306 1146.89 Q355.306 1155.62 352.228 1160.23 Q349.172 1164.81 343.362 1164.81 Q337.552 1164.81 334.473 1160.23 Q331.418 1155.62 331.418 1146.89 Q331.418 1138.14 334.473 1133.56 Q337.552 1128.95 343.362 1128.95 Z" fill="#000000" fill-rule="nonzero" fill-opacity="1" /><path clip-path="url(#clip970)" d="M355.306 1123.05 L379.418 1123.05 L379.418 1126.25 L355.306 1126.25 L355.306 1123.05 Z" fill="#000000" fill-rule="nonzero" fill-opacity="1" /><path clip-path="url(#clip970)" d="M398.057 1111.96 L388.465 1126.95 L398.057 1126.95 L398.057 1111.96 M397.06 1108.65 L401.837 1108.65 L401.837 1126.95 L405.843 1126.95 L405.843 1130.11 L401.837 1130.11 L401.837 1136.73 L398.057 1136.73 L398.057 1130.11 L385.38 1130.11 L385.38 1126.44 L397.06 1108.65 Z" fill="#000000" fill-rule="nonzero" fill-opacity="1" /><path clip-path="url(#clip970)" d="M131.789 991.392 L148.108 991.392 L148.108 995.327 L126.164 995.327 L126.164 991.392 Q128.826 988.638 133.409 984.008 Q138.016 979.355 139.196 978.013 Q141.442 975.49 142.321 973.753 Q143.224 971.994 143.224 970.304 Q143.224 967.55 141.28 965.814 Q139.359 964.078 136.257 964.078 Q134.058 964.078 131.604 964.841 Q129.173 965.605 126.396 967.156 L126.396 962.434 Q129.22 961.3 131.673 960.721 Q134.127 960.142 136.164 960.142 Q141.534 960.142 144.729 962.828 Q147.923 965.513 147.923 970.003 Q147.923 972.133 147.113 974.054 Q146.326 975.952 144.22 978.545 Q143.641 979.216 140.539 982.434 Q137.437 985.628 131.789 991.392 Z" fill="#000000" fill-rule="nonzero" fill-opacity="1" /><path clip-path="url(#clip970)" d="M157.923 989.448 L162.807 989.448 L162.807 995.327 L157.923 995.327 L157.923 989.448 Z" fill="#000000" fill-rule="nonzero" fill-opacity="1" /><path clip-path="url(#clip970)" d="M183.571 976.184 Q180.423 976.184 178.571 978.337 Q176.743 980.489 176.743 984.239 Q176.743 987.966 178.571 990.142 Q180.423 992.295 183.571 992.295 Q186.719 992.295 188.548 990.142 Q190.4 987.966 190.4 984.239 Q190.4 980.489 188.548 978.337 Q186.719 976.184 183.571 976.184 M192.854 961.531 L192.854 965.79 Q191.094 964.957 189.289 964.517 Q187.506 964.078 185.747 964.078 Q181.118 964.078 178.664 967.203 Q176.233 970.328 175.886 976.647 Q177.252 974.633 179.312 973.568 Q181.372 972.48 183.849 972.48 Q189.057 972.48 192.067 975.652 Q195.099 978.8 195.099 984.239 Q195.099 989.564 191.951 992.781 Q188.803 995.999 183.571 995.999 Q177.576 995.999 174.405 991.415 Q171.233 986.809 171.233 978.082 Q171.233 969.888 175.122 965.027 Q179.011 960.142 185.562 960.142 Q187.321 960.142 189.104 960.49 Q190.909 960.837 192.854 961.531 Z" fill="#000000" fill-rule="nonzero" fill-opacity="1" /><path clip-path="url(#clip970)" d="M213.154 963.846 Q209.543 963.846 207.715 967.411 Q205.909 970.952 205.909 978.082 Q205.909 985.189 207.715 988.753 Q209.543 992.295 213.154 992.295 Q216.789 992.295 218.594 988.753 Q220.423 985.189 220.423 978.082 Q220.423 970.952 218.594 967.411 Q216.789 963.846 213.154 963.846 M213.154 960.142 Q218.965 960.142 222.02 964.749 Q225.099 969.332 225.099 978.082 Q225.099 986.809 222.02 991.415 Q218.965 995.999 213.154 995.999 Q207.344 995.999 204.266 991.415 Q201.21 986.809 201.21 978.082 Q201.21 969.332 204.266 964.749 Q207.344 960.142 213.154 960.142 Z" fill="#000000" fill-rule="nonzero" fill-opacity="1" /><path clip-path="url(#clip970)" d="M243.316 963.846 Q239.705 963.846 237.877 967.411 Q236.071 970.952 236.071 978.082 Q236.071 985.189 237.877 988.753 Q239.705 992.295 243.316 992.295 Q246.951 992.295 248.756 988.753 Q250.585 985.189 250.585 978.082 Q250.585 970.952 248.756 967.411 Q246.951 963.846 243.316 963.846 M243.316 960.142 Q249.126 960.142 252.182 964.749 Q255.261 969.332 255.261 978.082 Q255.261 986.809 252.182 991.415 Q249.126 995.999 243.316 995.999 Q237.506 995.999 234.427 991.415 Q231.372 986.809 231.372 978.082 Q231.372 969.332 234.427 964.749 Q237.506 960.142 243.316 960.142 Z" fill="#000000" fill-rule="nonzero" fill-opacity="1" /><path clip-path="url(#clip970)" d="M291.649 969.865 L281.071 980.489 L291.649 991.068 L288.895 993.869 L278.27 983.244 L267.645 993.869 L264.913 991.068 L275.469 980.489 L264.913 969.865 L267.645 967.064 L278.27 977.689 L288.895 967.064 L291.649 969.865 Z" fill="#000000" fill-rule="nonzero" fill-opacity="1" /><path clip-path="url(#clip970)" d="M304.01 991.392 L311.649 991.392 L311.649 965.027 L303.339 966.693 L303.339 962.434 L311.603 960.767 L316.279 960.767 L316.279 991.392 L323.918 991.392 L323.918 995.327 L304.01 995.327 L304.01 991.392 Z" fill="#000000" fill-rule="nonzero" fill-opacity="1" /><path clip-path="url(#clip970)" d="M343.362 963.846 Q339.751 963.846 337.922 967.411 Q336.117 970.952 336.117 978.082 Q336.117 985.189 337.922 988.753 Q339.751 992.295 343.362 992.295 Q346.996 992.295 348.802 988.753 Q350.631 985.189 350.631 978.082 Q350.631 970.952 348.802 967.411 Q346.996 963.846 343.362 963.846 M343.362 960.142 Q349.172 960.142 352.228 964.749 Q355.306 969.332 355.306 978.082 Q355.306 986.809 352.228 991.415 Q349.172 995.999 343.362 995.999 Q337.552 995.999 334.473 991.415 Q331.418 986.809 331.418 978.082 Q331.418 969.332 334.473 964.749 Q337.552 960.142 343.362 960.142 Z" fill="#000000" fill-rule="nonzero" fill-opacity="1" /><path clip-path="url(#clip970)" d="M355.306 954.244 L379.418 954.244 L379.418 957.441 L355.306 957.441 L355.306 954.244 Z" fill="#000000" fill-rule="nonzero" fill-opacity="1" /><path clip-path="url(#clip970)" d="M398.057 943.147 L388.465 958.137 L398.057 958.137 L398.057 943.147 M397.06 939.837 L401.837 939.837 L401.837 958.137 L405.843 958.137 L405.843 961.297 L401.837 961.297 L401.837 967.917 L398.057 967.917 L398.057 961.297 L385.38 961.297 L385.38 957.629 L397.06 939.837 Z" fill="#000000" fill-rule="nonzero" fill-opacity="1" /><path clip-path="url(#clip970)" d="M131.789 822.582 L148.108 822.582 L148.108 826.517 L126.164 826.517 L126.164 822.582 Q128.826 819.828 133.409 815.198 Q138.016 810.545 139.196 809.203 Q141.442 806.679 142.321 804.943 Q143.224 803.184 143.224 801.494 Q143.224 798.74 141.28 797.004 Q139.359 795.268 136.257 795.268 Q134.058 795.268 131.604 796.031 Q129.173 796.795 126.396 798.346 L126.396 793.624 Q129.22 792.49 131.673 791.911 Q134.127 791.332 136.164 791.332 Q141.534 791.332 144.729 794.018 Q147.923 796.703 147.923 801.193 Q147.923 803.323 147.113 805.244 Q146.326 807.142 144.22 809.735 Q143.641 810.406 140.539 813.624 Q137.437 816.818 131.789 822.582 Z" fill="#000000" fill-rule="nonzero" fill-opacity="1" /><path clip-path="url(#clip970)" d="M157.923 820.638 L162.807 820.638 L162.807 826.517 L157.923 826.517 L157.923 820.638 Z" fill="#000000" fill-rule="nonzero" fill-opacity="1" /><path clip-path="url(#clip970)" d="M183.571 807.374 Q180.423 807.374 178.571 809.527 Q176.743 811.679 176.743 815.429 Q176.743 819.156 178.571 821.332 Q180.423 823.485 183.571 823.485 Q186.719 823.485 188.548 821.332 Q190.4 819.156 190.4 815.429 Q190.4 811.679 188.548 809.527 Q186.719 807.374 183.571 807.374 M192.854 792.721 L192.854 796.98 Q191.094 796.147 189.289 795.707 Q187.506 795.268 185.747 795.268 Q181.118 795.268 178.664 798.392 Q176.233 801.517 175.886 807.837 Q177.252 805.823 179.312 804.758 Q181.372 803.67 183.849 803.67 Q189.057 803.67 192.067 806.842 Q195.099 809.99 195.099 815.429 Q195.099 820.753 191.951 823.971 Q188.803 827.189 183.571 827.189 Q177.576 827.189 174.405 822.605 Q171.233 817.999 171.233 809.272 Q171.233 801.078 175.122 796.217 Q179.011 791.332 185.562 791.332 Q187.321 791.332 189.104 791.68 Q190.909 792.027 192.854 792.721 Z" fill="#000000" fill-rule="nonzero" fill-opacity="1" /><path clip-path="url(#clip970)" d="M203.965 822.582 L211.604 822.582 L211.604 796.217 L203.293 797.883 L203.293 793.624 L211.557 791.957 L216.233 791.957 L216.233 822.582 L223.872 822.582 L223.872 826.517 L203.965 826.517 L203.965 822.582 Z" fill="#000000" fill-rule="nonzero" fill-opacity="1" /><path clip-path="url(#clip970)" d="M243.316 795.036 Q239.705 795.036 237.877 798.601 Q236.071 802.142 236.071 809.272 Q236.071 816.379 237.877 819.943 Q239.705 823.485 243.316 823.485 Q246.951 823.485 248.756 819.943 Q250.585 816.379 250.585 809.272 Q250.585 802.142 248.756 798.601 Q246.951 795.036 243.316 795.036 M243.316 791.332 Q249.126 791.332 252.182 795.939 Q255.261 800.522 255.261 809.272 Q255.261 817.999 252.182 822.605 Q249.126 827.189 243.316 827.189 Q237.506 827.189 234.427 822.605 Q231.372 817.999 231.372 809.272 Q231.372 800.522 234.427 795.939 Q237.506 791.332 243.316 791.332 Z" fill="#000000" fill-rule="nonzero" fill-opacity="1" /><path clip-path="url(#clip970)" d="M291.649 801.055 L281.071 811.679 L291.649 822.258 L288.895 825.059 L278.27 814.434 L267.645 825.059 L264.913 822.258 L275.469 811.679 L264.913 801.055 L267.645 798.254 L278.27 808.879 L288.895 798.254 L291.649 801.055 Z" fill="#000000" fill-rule="nonzero" fill-opacity="1" /><path clip-path="url(#clip970)" d="M304.01 822.582 L311.649 822.582 L311.649 796.217 L303.339 797.883 L303.339 793.624 L311.603 791.957 L316.279 791.957 L316.279 822.582 L323.918 822.582 L323.918 826.517 L304.01 826.517 L304.01 822.582 Z" fill="#000000" fill-rule="nonzero" fill-opacity="1" /><path clip-path="url(#clip970)" d="M343.362 795.036 Q339.751 795.036 337.922 798.601 Q336.117 802.142 336.117 809.272 Q336.117 816.379 337.922 819.943 Q339.751 823.485 343.362 823.485 Q346.996 823.485 348.802 819.943 Q350.631 816.379 350.631 809.272 Q350.631 802.142 348.802 798.601 Q346.996 795.036 343.362 795.036 M343.362 791.332 Q349.172 791.332 352.228 795.939 Q355.306 800.522 355.306 809.272 Q355.306 817.999 352.228 822.605 Q349.172 827.189 343.362 827.189 Q337.552 827.189 334.473 822.605 Q331.418 817.999 331.418 809.272 Q331.418 800.522 334.473 795.939 Q337.552 791.332 343.362 791.332 Z" fill="#000000" fill-rule="nonzero" fill-opacity="1" /><path clip-path="url(#clip970)" d="M355.306 785.434 L379.418 785.434 L379.418 788.631 L355.306 788.631 L355.306 785.434 Z" fill="#000000" fill-rule="nonzero" fill-opacity="1" /><path clip-path="url(#clip970)" d="M398.057 774.337 L388.465 789.327 L398.057 789.327 L398.057 774.337 M397.06 771.027 L401.837 771.027 L401.837 789.327 L405.843 789.327 L405.843 792.487 L401.837 792.487 L401.837 799.107 L398.057 799.107 L398.057 792.487 L385.38 792.487 L385.38 788.819 L397.06 771.027 Z" fill="#000000" fill-rule="nonzero" fill-opacity="1" /><path clip-path="url(#clip970)" d="M131.789 653.772 L148.108 653.772 L148.108 657.707 L126.164 657.707 L126.164 653.772 Q128.826 651.018 133.409 646.388 Q138.016 641.735 139.196 640.393 Q141.442 637.869 142.321 636.133 Q143.224 634.374 143.224 632.684 Q143.224 629.93 141.28 628.194 Q139.359 626.457 136.257 626.457 Q134.058 626.457 131.604 627.221 Q129.173 627.985 126.396 629.536 L126.396 624.814 Q129.22 623.68 131.673 623.101 Q134.127 622.522 136.164 622.522 Q141.534 622.522 144.729 625.207 Q147.923 627.893 147.923 632.383 Q147.923 634.513 147.113 636.434 Q146.326 638.332 144.22 640.925 Q143.641 641.596 140.539 644.814 Q137.437 648.008 131.789 653.772 Z" fill="#000000" fill-rule="nonzero" fill-opacity="1" /><path clip-path="url(#clip970)" d="M157.923 651.828 L162.807 651.828 L162.807 657.707 L157.923 657.707 L157.923 651.828 Z" fill="#000000" fill-rule="nonzero" fill-opacity="1" /><path clip-path="url(#clip970)" d="M183.571 638.564 Q180.423 638.564 178.571 640.717 Q176.743 642.869 176.743 646.619 Q176.743 650.346 178.571 652.522 Q180.423 654.675 183.571 654.675 Q186.719 654.675 188.548 652.522 Q190.4 650.346 190.4 646.619 Q190.4 642.869 188.548 640.717 Q186.719 638.564 183.571 638.564 M192.854 623.911 L192.854 628.17 Q191.094 627.337 189.289 626.897 Q187.506 626.457 185.747 626.457 Q181.118 626.457 178.664 629.582 Q176.233 632.707 175.886 639.027 Q177.252 637.013 179.312 635.948 Q181.372 634.86 183.849 634.86 Q189.057 634.86 192.067 638.031 Q195.099 641.18 195.099 646.619 Q195.099 651.943 191.951 655.161 Q188.803 658.379 183.571 658.379 Q177.576 658.379 174.405 653.795 Q171.233 649.189 171.233 640.462 Q171.233 632.268 175.122 627.407 Q179.011 622.522 185.562 622.522 Q187.321 622.522 189.104 622.87 Q190.909 623.217 192.854 623.911 Z" fill="#000000" fill-rule="nonzero" fill-opacity="1" /><path clip-path="url(#clip970)" d="M207.182 653.772 L223.502 653.772 L223.502 657.707 L201.557 657.707 L201.557 653.772 Q204.219 651.018 208.803 646.388 Q213.409 641.735 214.59 640.393 Q216.835 637.869 217.715 636.133 Q218.617 634.374 218.617 632.684 Q218.617 629.93 216.673 628.194 Q214.752 626.457 211.65 626.457 Q209.451 626.457 206.997 627.221 Q204.567 627.985 201.789 629.536 L201.789 624.814 Q204.613 623.68 207.067 623.101 Q209.52 622.522 211.557 622.522 Q216.928 622.522 220.122 625.207 Q223.316 627.893 223.316 632.383 Q223.316 634.513 222.506 636.434 Q221.719 638.332 219.613 640.925 Q219.034 641.596 215.932 644.814 Q212.83 648.008 207.182 653.772 Z" fill="#000000" fill-rule="nonzero" fill-opacity="1" /><path clip-path="url(#clip970)" d="M243.316 626.226 Q239.705 626.226 237.877 629.791 Q236.071 633.332 236.071 640.462 Q236.071 647.568 237.877 651.133 Q239.705 654.675 243.316 654.675 Q246.951 654.675 248.756 651.133 Q250.585 647.568 250.585 640.462 Q250.585 633.332 248.756 629.791 Q246.951 626.226 243.316 626.226 M243.316 622.522 Q249.126 622.522 252.182 627.129 Q255.261 631.712 255.261 640.462 Q255.261 649.189 252.182 653.795 Q249.126 658.379 243.316 658.379 Q237.506 658.379 234.427 653.795 Q231.372 649.189 231.372 640.462 Q231.372 631.712 234.427 627.129 Q237.506 622.522 243.316 622.522 Z" fill="#000000" fill-rule="nonzero" fill-opacity="1" /><path clip-path="url(#clip970)" d="M291.649 632.244 L281.071 642.869 L291.649 653.448 L288.895 656.249 L278.27 645.624 L267.645 656.249 L264.913 653.448 L275.469 642.869 L264.913 632.244 L267.645 629.444 L278.27 640.069 L288.895 629.444 L291.649 632.244 Z" fill="#000000" fill-rule="nonzero" fill-opacity="1" /><path clip-path="url(#clip970)" d="M304.01 653.772 L311.649 653.772 L311.649 627.407 L303.339 629.073 L303.339 624.814 L311.603 623.147 L316.279 623.147 L316.279 653.772 L323.918 653.772 L323.918 657.707 L304.01 657.707 L304.01 653.772 Z" fill="#000000" fill-rule="nonzero" fill-opacity="1" /><path clip-path="url(#clip970)" d="M343.362 626.226 Q339.751 626.226 337.922 629.791 Q336.117 633.332 336.117 640.462 Q336.117 647.568 337.922 651.133 Q339.751 654.675 343.362 654.675 Q346.996 654.675 348.802 651.133 Q350.631 647.568 350.631 640.462 Q350.631 633.332 348.802 629.791 Q346.996 626.226 343.362 626.226 M343.362 622.522 Q349.172 622.522 352.228 627.129 Q355.306 631.712 355.306 640.462 Q355.306 649.189 352.228 653.795 Q349.172 658.379 343.362 658.379 Q337.552 658.379 334.473 653.795 Q331.418 649.189 331.418 640.462 Q331.418 631.712 334.473 627.129 Q337.552 622.522 343.362 622.522 Z" fill="#000000" fill-rule="nonzero" fill-opacity="1" /><path clip-path="url(#clip970)" d="M355.306 616.624 L379.418 616.624 L379.418 619.821 L355.306 619.821 L355.306 616.624 Z" fill="#000000" fill-rule="nonzero" fill-opacity="1" /><path clip-path="url(#clip970)" d="M398.057 605.527 L388.465 620.517 L398.057 620.517 L398.057 605.527 M397.06 602.217 L401.837 602.217 L401.837 620.517 L405.843 620.517 L405.843 623.677 L401.837 623.677 L401.837 630.297 L398.057 630.297 L398.057 623.677 L385.38 623.677 L385.38 620.009 L397.06 602.217 Z" fill="#000000" fill-rule="nonzero" fill-opacity="1" /><path clip-path="url(#clip970)" d="M131.789 484.962 L148.108 484.962 L148.108 488.897 L126.164 488.897 L126.164 484.962 Q128.826 482.208 133.409 477.578 Q138.016 472.925 139.196 471.583 Q141.442 469.059 142.321 467.323 Q143.224 465.564 143.224 463.874 Q143.224 461.12 141.28 459.384 Q139.359 457.647 136.257 457.647 Q134.058 457.647 131.604 458.411 Q129.173 459.175 126.396 460.726 L126.396 456.004 Q129.22 454.87 131.673 454.291 Q134.127 453.712 136.164 453.712 Q141.534 453.712 144.729 456.397 Q147.923 459.083 147.923 463.573 Q147.923 465.703 147.113 467.624 Q146.326 469.522 144.22 472.115 Q143.641 472.786 140.539 476.004 Q137.437 479.198 131.789 484.962 Z" fill="#000000" fill-rule="nonzero" fill-opacity="1" /><path clip-path="url(#clip970)" d="M157.923 483.018 L162.807 483.018 L162.807 488.897 L157.923 488.897 L157.923 483.018 Z" fill="#000000" fill-rule="nonzero" fill-opacity="1" /><path clip-path="url(#clip970)" d="M183.571 469.754 Q180.423 469.754 178.571 471.907 Q176.743 474.059 176.743 477.809 Q176.743 481.536 178.571 483.712 Q180.423 485.865 183.571 485.865 Q186.719 485.865 188.548 483.712 Q190.4 481.536 190.4 477.809 Q190.4 474.059 188.548 471.907 Q186.719 469.754 183.571 469.754 M192.854 455.101 L192.854 459.36 Q191.094 458.527 189.289 458.087 Q187.506 457.647 185.747 457.647 Q181.118 457.647 178.664 460.772 Q176.233 463.897 175.886 470.217 Q177.252 468.203 179.312 467.138 Q181.372 466.05 183.849 466.05 Q189.057 466.05 192.067 469.221 Q195.099 472.37 195.099 477.809 Q195.099 483.133 191.951 486.351 Q188.803 489.569 183.571 489.569 Q177.576 489.569 174.405 484.985 Q171.233 480.379 171.233 471.652 Q171.233 463.458 175.122 458.597 Q179.011 453.712 185.562 453.712 Q187.321 453.712 189.104 454.06 Q190.909 454.407 192.854 455.101 Z" fill="#000000" fill-rule="nonzero" fill-opacity="1" /><path clip-path="url(#clip970)" d="M217.321 470.263 Q220.678 470.981 222.553 473.249 Q224.451 475.518 224.451 478.851 Q224.451 483.967 220.932 486.768 Q217.414 489.569 210.932 489.569 Q208.756 489.569 206.442 489.129 Q204.15 488.712 201.696 487.856 L201.696 483.342 Q203.641 484.476 205.955 485.055 Q208.27 485.633 210.793 485.633 Q215.191 485.633 217.483 483.897 Q219.798 482.161 219.798 478.851 Q219.798 475.796 217.645 474.083 Q215.516 472.346 211.696 472.346 L207.668 472.346 L207.668 468.504 L211.881 468.504 Q215.33 468.504 217.159 467.138 Q218.988 465.749 218.988 463.157 Q218.988 460.495 217.09 459.083 Q215.215 457.647 211.696 457.647 Q209.775 457.647 207.576 458.064 Q205.377 458.481 202.738 459.36 L202.738 455.194 Q205.4 454.453 207.715 454.083 Q210.053 453.712 212.113 453.712 Q217.437 453.712 220.539 456.143 Q223.64 458.55 223.64 462.671 Q223.64 465.541 221.997 467.532 Q220.353 469.499 217.321 470.263 Z" fill="#000000" fill-rule="nonzero" fill-opacity="1" /><path clip-path="url(#clip970)" d="M243.316 457.416 Q239.705 457.416 237.877 460.981 Q236.071 464.522 236.071 471.652 Q236.071 478.758 237.877 482.323 Q239.705 485.865 243.316 485.865 Q246.951 485.865 248.756 482.323 Q250.585 478.758 250.585 471.652 Q250.585 464.522 248.756 460.981 Q246.951 457.416 243.316 457.416 M243.316 453.712 Q249.126 453.712 252.182 458.319 Q255.261 462.902 255.261 471.652 Q255.261 480.379 252.182 484.985 Q249.126 489.569 243.316 489.569 Q237.506 489.569 234.427 484.985 Q231.372 480.379 231.372 471.652 Q231.372 462.902 234.427 458.319 Q237.506 453.712 243.316 453.712 Z" fill="#000000" fill-rule="nonzero" fill-opacity="1" /><path clip-path="url(#clip970)" d="M291.649 463.434 L281.071 474.059 L291.649 484.638 L288.895 487.439 L278.27 476.814 L267.645 487.439 L264.913 484.638 L275.469 474.059 L264.913 463.434 L267.645 460.634 L278.27 471.259 L288.895 460.634 L291.649 463.434 Z" fill="#000000" fill-rule="nonzero" fill-opacity="1" /><path clip-path="url(#clip970)" d="M304.01 484.962 L311.649 484.962 L311.649 458.597 L303.339 460.263 L303.339 456.004 L311.603 454.337 L316.279 454.337 L316.279 484.962 L323.918 484.962 L323.918 488.897 L304.01 488.897 L304.01 484.962 Z" fill="#000000" fill-rule="nonzero" fill-opacity="1" /><path clip-path="url(#clip970)" d="M343.362 457.416 Q339.751 457.416 337.922 460.981 Q336.117 464.522 336.117 471.652 Q336.117 478.758 337.922 482.323 Q339.751 485.865 343.362 485.865 Q346.996 485.865 348.802 482.323 Q350.631 478.758 350.631 471.652 Q350.631 464.522 348.802 460.981 Q346.996 457.416 343.362 457.416 M343.362 453.712 Q349.172 453.712 352.228 458.319 Q355.306 462.902 355.306 471.652 Q355.306 480.379 352.228 484.985 Q349.172 489.569 343.362 489.569 Q337.552 489.569 334.473 484.985 Q331.418 480.379 331.418 471.652 Q331.418 462.902 334.473 458.319 Q337.552 453.712 343.362 453.712 Z" fill="#000000" fill-rule="nonzero" fill-opacity="1" /><path clip-path="url(#clip970)" d="M355.306 447.814 L379.418 447.814 L379.418 451.011 L355.306 451.011 L355.306 447.814 Z" fill="#000000" fill-rule="nonzero" fill-opacity="1" /><path clip-path="url(#clip970)" d="M398.057 436.717 L388.465 451.707 L398.057 451.707 L398.057 436.717 M397.06 433.407 L401.837 433.407 L401.837 451.707 L405.843 451.707 L405.843 454.867 L401.837 454.867 L401.837 461.487 L398.057 461.487 L398.057 454.867 L385.38 454.867 L385.38 451.199 L397.06 433.407 Z" fill="#000000" fill-rule="nonzero" fill-opacity="1" /><path clip-path="url(#clip970)" d="M131.789 316.152 L148.108 316.152 L148.108 320.087 L126.164 320.087 L126.164 316.152 Q128.826 313.397 133.409 308.768 Q138.016 304.115 139.196 302.773 Q141.442 300.249 142.321 298.513 Q143.224 296.754 143.224 295.064 Q143.224 292.31 141.28 290.574 Q139.359 288.837 136.257 288.837 Q134.058 288.837 131.604 289.601 Q129.173 290.365 126.396 291.916 L126.396 287.194 Q129.22 286.06 131.673 285.481 Q134.127 284.902 136.164 284.902 Q141.534 284.902 144.729 287.587 Q147.923 290.273 147.923 294.763 Q147.923 296.893 147.113 298.814 Q146.326 300.712 144.22 303.305 Q143.641 303.976 140.539 307.194 Q137.437 310.388 131.789 316.152 Z" fill="#000000" fill-rule="nonzero" fill-opacity="1" /><path clip-path="url(#clip970)" d="M157.923 314.208 L162.807 314.208 L162.807 320.087 L157.923 320.087 L157.923 314.208 Z" fill="#000000" fill-rule="nonzero" fill-opacity="1" /><path clip-path="url(#clip970)" d="M183.571 300.944 Q180.423 300.944 178.571 303.097 Q176.743 305.249 176.743 308.999 Q176.743 312.726 178.571 314.902 Q180.423 317.055 183.571 317.055 Q186.719 317.055 188.548 314.902 Q190.4 312.726 190.4 308.999 Q190.4 305.249 188.548 303.097 Q186.719 300.944 183.571 300.944 M192.854 286.291 L192.854 290.55 Q191.094 289.717 189.289 289.277 Q187.506 288.837 185.747 288.837 Q181.118 288.837 178.664 291.962 Q176.233 295.087 175.886 301.407 Q177.252 299.393 179.312 298.328 Q181.372 297.24 183.849 297.24 Q189.057 297.24 192.067 300.411 Q195.099 303.56 195.099 308.999 Q195.099 314.323 191.951 317.541 Q188.803 320.759 183.571 320.759 Q177.576 320.759 174.405 316.175 Q171.233 311.569 171.233 302.842 Q171.233 294.648 175.122 289.787 Q179.011 284.902 185.562 284.902 Q187.321 284.902 189.104 285.249 Q190.909 285.597 192.854 286.291 Z" fill="#000000" fill-rule="nonzero" fill-opacity="1" /><path clip-path="url(#clip970)" d="M216.002 289.601 L204.196 308.05 L216.002 308.05 L216.002 289.601 M214.775 285.527 L220.654 285.527 L220.654 308.05 L225.585 308.05 L225.585 311.939 L220.654 311.939 L220.654 320.087 L216.002 320.087 L216.002 311.939 L200.4 311.939 L200.4 307.425 L214.775 285.527 Z" fill="#000000" fill-rule="nonzero" fill-opacity="1" /><path clip-path="url(#clip970)" d="M243.316 288.606 Q239.705 288.606 237.877 292.171 Q236.071 295.712 236.071 302.842 Q236.071 309.948 237.877 313.513 Q239.705 317.055 243.316 317.055 Q246.951 317.055 248.756 313.513 Q250.585 309.948 250.585 302.842 Q250.585 295.712 248.756 292.171 Q246.951 288.606 243.316 288.606 M243.316 284.902 Q249.126 284.902 252.182 289.509 Q255.261 294.092 255.261 302.842 Q255.261 311.569 252.182 316.175 Q249.126 320.759 243.316 320.759 Q237.506 320.759 234.427 316.175 Q231.372 311.569 231.372 302.842 Q231.372 294.092 234.427 289.509 Q237.506 284.902 243.316 284.902 Z" fill="#000000" fill-rule="nonzero" fill-opacity="1" /><path clip-path="url(#clip970)" d="M291.649 294.624 L281.071 305.249 L291.649 315.828 L288.895 318.629 L278.27 308.004 L267.645 318.629 L264.913 315.828 L275.469 305.249 L264.913 294.624 L267.645 291.824 L278.27 302.448 L288.895 291.824 L291.649 294.624 Z" fill="#000000" fill-rule="nonzero" fill-opacity="1" /><path clip-path="url(#clip970)" d="M304.01 316.152 L311.649 316.152 L311.649 289.787 L303.339 291.453 L303.339 287.194 L311.603 285.527 L316.279 285.527 L316.279 316.152 L323.918 316.152 L323.918 320.087 L304.01 320.087 L304.01 316.152 Z" fill="#000000" fill-rule="nonzero" fill-opacity="1" /><path clip-path="url(#clip970)" d="M343.362 288.606 Q339.751 288.606 337.922 292.171 Q336.117 295.712 336.117 302.842 Q336.117 309.948 337.922 313.513 Q339.751 317.055 343.362 317.055 Q346.996 317.055 348.802 313.513 Q350.631 309.948 350.631 302.842 Q350.631 295.712 348.802 292.171 Q346.996 288.606 343.362 288.606 M343.362 284.902 Q349.172 284.902 352.228 289.509 Q355.306 294.092 355.306 302.842 Q355.306 311.569 352.228 316.175 Q349.172 320.759 343.362 320.759 Q337.552 320.759 334.473 316.175 Q331.418 311.569 331.418 302.842 Q331.418 294.092 334.473 289.509 Q337.552 284.902 343.362 284.902 Z" fill="#000000" fill-rule="nonzero" fill-opacity="1" /><path clip-path="url(#clip970)" d="M355.306 279.004 L379.418 279.004 L379.418 282.201 L355.306 282.201 L355.306 279.004 Z" fill="#000000" fill-rule="nonzero" fill-opacity="1" /><path clip-path="url(#clip970)" d="M398.057 267.907 L388.465 282.897 L398.057 282.897 L398.057 267.907 M397.06 264.597 L401.837 264.597 L401.837 282.897 L405.843 282.897 L405.843 286.057 L401.837 286.057 L401.837 292.677 L398.057 292.677 L398.057 286.057 L385.38 286.057 L385.38 282.389 L397.06 264.597 Z" fill="#000000" fill-rule="nonzero" fill-opacity="1" /><path clip-path="url(#clip970)" d="M60.4144 1131.09 L77.8246 1131.09 L77.8246 1120.78 Q77.8246 1115.59 75.6921 1113.11 Q73.5278 1110.59 69.1036 1110.59 Q64.6476 1110.59 62.5469 1113.11 Q60.4144 1115.59 60.4144 1120.78 L60.4144 1131.09 M40.8717 1131.09 L55.1945 1131.09 L55.1945 1121.57 Q55.1945 1116.86 53.444 1114.57 Q51.6616 1112.25 48.0331 1112.25 Q44.4365 1112.25 42.6541 1114.57 Q40.8717 1116.86 40.8717 1121.57 L40.8717 1131.09 M35.5882 1137.52 L35.5882 1121.09 Q35.5882 1113.74 38.6437 1109.76 Q41.6992 1105.78 47.3329 1105.78 Q51.6934 1105.78 54.2715 1107.82 Q56.8496 1109.86 57.4862 1113.81 Q58.5047 1109.06 61.7512 1106.45 Q64.9659 1103.81 69.8038 1103.81 Q76.1695 1103.81 79.6388 1108.14 Q83.1082 1112.47 83.1082 1120.46 L83.1082 1137.52 L35.5882 1137.52 Z" fill="#000000" fill-rule="nonzero" fill-opacity="1" /><path clip-path="url(#clip970)" d="M77.761 1087.39 L96.6671 1087.39 L96.6671 1093.28 L47.4602 1093.28 L47.4602 1087.39 L52.8711 1087.39 Q49.6882 1085.54 48.1604 1082.74 Q46.6008 1079.91 46.6008 1075.99 Q46.6008 1069.5 51.7571 1065.46 Q56.9133 1061.38 65.316 1061.38 Q73.7187 1061.38 78.875 1065.46 Q84.0312 1069.5 84.0312 1075.99 Q84.0312 1079.91 82.5034 1082.74 Q80.9438 1085.54 77.761 1087.39 M65.316 1067.46 Q58.8548 1067.46 55.1945 1070.14 Q51.5024 1072.78 51.5024 1077.43 Q51.5024 1082.07 55.1945 1084.75 Q58.8548 1087.39 65.316 1087.39 Q71.7772 1087.39 75.4693 1084.75 Q79.1296 1082.07 79.1296 1077.43 Q79.1296 1072.78 75.4693 1070.14 Q71.7772 1067.46 65.316 1067.46 Z" fill="#000000" fill-rule="nonzero" fill-opacity="1" /><path clip-path="url(#clip970)" d="M63.8201 1021.18 L66.6846 1021.18 L66.6846 1048.11 Q72.7321 1047.73 75.9149 1044.48 Q79.0659 1041.2 79.0659 1035.38 Q79.0659 1032.01 78.2384 1028.86 Q77.4109 1025.67 75.7558 1022.55 L81.2939 1022.55 Q82.6307 1025.7 83.331 1029.01 Q84.0312 1032.32 84.0312 1035.73 Q84.0312 1044.26 79.0659 1049.26 Q74.1007 1054.22 65.6343 1054.22 Q56.8814 1054.22 51.7571 1049.51 Q46.6008 1044.77 46.6008 1036.75 Q46.6008 1029.56 51.2478 1025.39 Q55.8629 1021.18 63.8201 1021.18 M62.1013 1027.04 Q57.2952 1027.1 54.4306 1029.75 Q51.5661 1032.36 51.5661 1036.68 Q51.5661 1041.59 54.3352 1044.55 Q57.1042 1047.47 62.1332 1047.92 L62.1013 1027.04 Z" fill="#000000" fill-rule="nonzero" fill-opacity="1" /><path clip-path="url(#clip970)" d="M47.4602 1011.79 L47.4602 1003.23 L71.3316 993.112 L47.4602 982.958 L47.4602 974.46 L83.1082 974.46 L83.1082 980.348 L53.062 980.348 L76.265 990.183 L76.265 996.04 L53.062 1005.91 L83.1082 1005.91 L83.1082 1011.79 L47.4602 1011.79 Z" fill="#000000" fill-rule="nonzero" fill-opacity="1" /><path clip-path="url(#clip970)" d="M57.7408 956.509 Q60.3826 956.509 61.8785 954.472 Q63.3745 952.435 63.3745 948.647 L63.3745 940.754 L52.139 940.754 L52.139 948.647 Q52.139 952.435 53.6031 954.472 Q55.0672 956.509 57.7408 956.509 M83.1082 964.848 L67.4803 953.963 Q66.6528 957.655 64.4885 960.105 Q62.2923 962.556 57.7408 962.556 Q52.5846 962.556 50.0383 959.151 Q47.4602 955.713 47.4602 948.806 L47.4602 934.865 L83.1082 934.865 L83.1082 940.754 L68.0533 940.754 L68.0533 948.042 L83.1082 958.546 L83.1082 964.848 Z" fill="#000000" fill-rule="nonzero" fill-opacity="1" /><path clip-path="url(#clip970)" d="M66.6846 896.83 L78.4294 896.83 L78.4294 888.491 Q78.4294 884.481 76.9334 882.38 Q75.4057 880.28 72.5411 880.28 Q69.6765 880.28 68.1806 882.38 Q66.6846 884.481 66.6846 888.491 L66.6846 896.83 M52.139 896.83 L62.0058 896.83 L62.0058 889.128 Q62.0058 885.818 60.7009 883.717 Q59.3641 881.616 57.0088 881.616 Q54.6534 881.616 53.4121 883.717 Q52.139 885.818 52.139 889.128 L52.139 896.83 M47.4602 902.687 L47.4602 888.746 Q47.4602 882.476 49.7519 879.102 Q52.0435 875.728 56.2767 875.728 Q59.555 875.728 61.4966 877.447 Q63.4063 879.166 63.8837 882.539 Q64.6476 878.497 67.0666 876.269 Q69.4855 874.041 73.114 874.041 Q77.8883 874.041 80.4982 877.733 Q83.1082 881.393 83.1082 888.205 L83.1082 902.687 L47.4602 902.687 Z" fill="#000000" fill-rule="nonzero" fill-opacity="1" /><path clip-path="url(#clip970)" d="M47.4602 830.372 L47.4602 824.516 L83.1082 824.516 L83.1082 830.372 L47.4602 830.372 M46.6008 827.444 L46.6008 827.444 M72.5411 841.862 Q69.6765 841.862 68.1806 843.963 Q66.6846 846.032 66.6846 850.042 L66.6846 858.381 L78.4294 858.381 L78.4294 850.042 Q78.4294 846.032 76.9334 843.963 Q75.4057 841.862 72.5411 841.862 M47.4602 864.27 L47.4602 858.381 L62.0058 858.381 L62.0058 849.788 Q62.0058 842.976 64.6158 839.316 Q67.1939 835.624 72.5411 835.624 Q77.8883 835.624 80.4982 839.316 Q83.1082 842.976 83.1082 849.788 L83.1082 864.27 L47.4602 864.27 Z" fill="#000000" fill-rule="nonzero" fill-opacity="1" /><path clip-path="url(#clip970)" d="M83.1082 791.987 L68.1169 791.987 L68.1169 802.904 Q68.1169 807.774 65.0932 811.021 Q62.356 813.949 56.4995 813.949 L47.4602 813.949 L47.4602 808.092 L55.9584 808.092 Q59.6824 808.092 61.5602 806.437 Q63.4381 804.75 63.4381 801.44 L63.4381 791.987 L47.4602 791.987 L47.4602 786.131 L83.1082 786.131 L83.1082 791.987 Z" fill="#000000" fill-rule="nonzero" fill-opacity="1" /><path clip-path="url(#clip970)" d="M47.4602 743.767 L83.1082 743.767 L83.1082 749.592 L54.4943 749.592 L83.1082 766.779 L83.1082 774.29 L47.4602 774.29 L47.4602 768.466 L76.0104 768.466 L47.4602 751.31 L47.4602 743.767 Z" fill="#000000" fill-rule="nonzero" fill-opacity="1" /><path clip-path="url(#clip970)" d="M48.8288 706.05 L54.3033 706.05 Q52.9347 708.533 52.2663 711.047 Q51.5661 713.53 51.5661 716.076 Q51.5661 721.773 55.1945 724.924 Q58.7912 728.075 65.316 728.075 Q71.8409 728.075 75.4693 724.924 Q79.0659 721.773 79.0659 716.076 Q79.0659 713.53 78.3975 711.047 Q77.6973 708.533 76.3287 706.05 L81.7395 706.05 Q82.8854 708.501 83.4583 711.143 Q84.0312 713.753 84.0312 716.713 Q84.0312 724.765 78.9704 729.508 Q73.9097 734.25 65.316 734.25 Q56.595 734.25 51.5979 729.476 Q46.6008 724.67 46.6008 716.331 Q46.6008 713.625 47.1737 711.047 Q47.7148 708.469 48.8288 706.05 Z" fill="#000000" fill-rule="nonzero" fill-opacity="1" /><path clip-path="url(#clip970)" d="M83.1082 699.589 L78.2384 699.589 Q77.3472 693.796 73.3368 692.014 Q67.7031 689.849 53.2848 689.849 L47.4602 689.849 L47.4602 665.755 L83.1082 665.755 L83.1082 671.612 L52.139 671.612 L52.139 683.993 L55.672 683.993 Q69.4219 683.993 75.5966 686.794 Q82.1851 689.786 83.1082 699.589 Z" fill="#000000" fill-rule="nonzero" fill-opacity="1" /><path clip-path="url(#clip970)" d="M63.8201 623.71 L66.6846 623.71 L66.6846 650.637 Q72.7321 650.255 75.9149 647.008 Q79.0659 643.73 79.0659 637.905 Q79.0659 634.531 78.2384 631.38 Q77.4109 628.198 75.7558 625.078 L81.2939 625.078 Q82.6307 628.229 83.331 631.54 Q84.0312 634.85 84.0312 638.255 Q84.0312 646.785 79.0659 651.782 Q74.1007 656.748 65.6343 656.748 Q56.8814 656.748 51.7571 652.037 Q46.6008 647.295 46.6008 639.274 Q46.6008 632.081 51.2478 627.911 Q55.8629 623.71 63.8201 623.71 M62.1013 629.566 Q57.2952 629.63 54.4306 632.272 Q51.5661 634.882 51.5661 639.21 Q51.5661 644.112 54.3352 647.072 Q57.1042 650 62.1332 650.446 L62.1013 629.566 Z" fill="#000000" fill-rule="nonzero" fill-opacity="1" /><path clip-path="url(#clip970)" d="M47.4602 614.32 L47.4602 608.432 L62.0058 608.432 L62.0058 589.43 L47.4602 589.43 L47.4602 583.542 L83.1082 583.542 L83.1082 589.43 L66.6846 589.43 L66.6846 608.432 L83.1082 608.432 L83.1082 614.32 L47.4602 614.32 Z" fill="#000000" fill-rule="nonzero" fill-opacity="1" /><path clip-path="url(#clip970)" d="M47.4602 541.178 L83.1082 541.178 L83.1082 547.003 L54.4943 547.003 L83.1082 564.19 L83.1082 571.702 L47.4602 571.702 L47.4602 565.877 L76.0104 565.877 L47.4602 548.722 L47.4602 541.178 Z" fill="#000000" fill-rule="nonzero" fill-opacity="1" /><path clip-path="url(#clip970)" d="M57.7408 523.227 Q60.3826 523.227 61.8785 521.19 Q63.3745 519.153 63.3745 515.365 L63.3745 507.472 L52.139 507.472 L52.139 515.365 Q52.139 519.153 53.6031 521.19 Q55.0672 523.227 57.7408 523.227 M83.1082 531.566 L67.4803 520.681 Q66.6528 524.373 64.4885 526.824 Q62.2923 529.274 57.7408 529.274 Q52.5846 529.274 50.0383 525.869 Q47.4602 522.431 47.4602 515.525 L47.4602 501.584 L83.1082 501.584 L83.1082 507.472 L68.0533 507.472 L68.0533 514.761 L83.1082 525.264 L83.1082 531.566 Z" fill="#000000" fill-rule="nonzero" fill-opacity="1" /><path clip-path="url(#clip970)" d="M75.0237 488.407 L75.0237 481.691 L80.4982 481.691 L90.6833 486.911 L90.6833 491.017 L80.4982 488.407 L75.0237 488.407 Z" fill="#000000" fill-rule="nonzero" fill-opacity="1" /><path clip-path="url(#clip970)" d="M48.8288 422.808 L54.3033 422.808 Q52.9347 425.291 52.2663 427.805 Q51.5661 430.288 51.5661 432.834 Q51.5661 438.531 55.1945 441.682 Q58.7912 444.833 65.316 444.833 Q71.8409 444.833 75.4693 441.682 Q79.0659 438.531 79.0659 432.834 Q79.0659 430.288 78.3975 427.805 Q77.6973 425.291 76.3287 422.808 L81.7395 422.808 Q82.8854 425.259 83.4583 427.901 Q84.0312 430.51 84.0312 433.471 Q84.0312 441.523 78.9704 446.266 Q73.9097 451.008 65.316 451.008 Q56.595 451.008 51.5979 446.234 Q46.6008 441.428 46.6008 433.089 Q46.6008 430.383 47.1737 427.805 Q47.7148 425.227 48.8288 422.808 Z" fill="#000000" fill-rule="nonzero" fill-opacity="1" /><path clip-path="url(#clip970)" d="M63.8201 382.131 L66.6846 382.131 L66.6846 409.058 Q72.7321 408.676 75.9149 405.43 Q79.0659 402.151 79.0659 396.327 Q79.0659 392.953 78.2384 389.802 Q77.4109 386.619 75.7558 383.5 L81.2939 383.5 Q82.6307 386.651 83.331 389.961 Q84.0312 393.271 84.0312 396.677 Q84.0312 405.207 79.0659 410.204 Q74.1007 415.169 65.6343 415.169 Q56.8814 415.169 51.7571 410.459 Q46.6008 405.716 46.6008 397.695 Q46.6008 390.502 51.2478 386.332 Q55.8629 382.131 63.8201 382.131 M62.1013 387.988 Q57.2952 388.051 54.4306 390.693 Q51.5661 393.303 51.5661 397.632 Q51.5661 402.533 54.3352 405.493 Q57.1042 408.421 62.1332 408.867 L62.1013 387.988 Z" fill="#000000" fill-rule="nonzero" fill-opacity="1" /><path clip-path="url(#clip970)" d="M47.4602 372.742 L47.4602 366.917 L64.202 366.917 L47.4602 350.398 L47.4602 343.205 L61.242 356.827 L83.1082 341.454 L83.1082 348.011 L65.125 360.647 L71.4907 366.917 L83.1082 366.917 L83.1082 372.742 L47.4602 372.742 Z" fill="#000000" fill-rule="nonzero" fill-opacity="1" /><path clip-path="url(#clip970)" d="M316.013 11.0023 Q325.978 11.0023 332.298 15.2557 Q338.617 19.4686 338.617 26.6793 Q338.617 31.7024 335.741 35.1862 Q332.865 38.6294 327.558 39.9662 Q333.432 41.222 336.713 45.1919 Q340.035 49.1618 340.035 54.9951 Q340.035 64.3122 332.824 69.0517 Q325.654 73.7508 316.013 73.7508 Q311.071 73.7508 305.319 72.414 Q299.566 71.0772 297.784 69.9429 L297.784 61.517 Q303.982 65.1223 307.385 66.0135 Q310.828 66.8642 315.851 66.8642 Q323.467 66.8642 327.68 63.9476 Q331.892 61.0309 331.892 54.9951 Q331.892 49.6479 328.125 46.6502 Q324.398 43.612 316.499 43.612 L308.235 43.612 L308.235 36.8875 L316.823 36.8875 Q324.074 36.8875 327.274 34.4975 Q330.475 32.067 330.475 27.5299 Q330.475 22.8714 327.153 20.4004 Q323.872 17.8888 315.851 17.8888 Q310.423 17.8888 308.559 18.3749 Q306.696 18.861 298.391 21.9802 L298.391 13.9999 Q302.969 12.3796 307.749 11.6909 Q312.529 11.0023 316.013 11.0023 Z" fill="#000000" fill-rule="nonzero" fill-opacity="1" /><path clip-path="url(#clip970)" d="M373.941 49.7694 Q364.907 49.7694 361.424 51.8354 Q357.94 53.9013 357.94 58.8839 Q357.94 62.8538 360.532 65.2034 Q363.165 67.5124 367.662 67.5124 Q373.86 67.5124 377.587 63.1374 Q381.354 58.7219 381.354 51.4303 L381.354 49.7694 L373.941 49.7694 M388.808 46.6907 L388.808 72.576 L381.354 72.576 L381.354 65.6895 Q378.802 69.8214 374.994 71.8063 Q371.186 73.7508 365.677 73.7508 Q358.709 73.7508 354.578 69.8619 Q350.486 65.9325 350.486 59.3701 Q350.486 51.7138 355.59 47.825 Q360.735 43.9361 370.903 43.9361 L381.354 43.9361 L381.354 43.2069 Q381.354 38.0623 377.951 35.2672 Q374.589 32.4315 368.472 32.4315 Q364.583 32.4315 360.897 33.3632 Q357.211 34.295 353.808 36.1584 L353.808 29.2718 Q357.899 27.692 361.748 26.9223 Q365.596 26.1121 369.242 26.1121 Q379.086 26.1121 383.947 31.2163 Q388.808 36.3204 388.808 46.6907 Z" fill="#000000" fill-rule="nonzero" fill-opacity="1" /><path clip-path="url(#clip970)" d="M411.331 51.6733 L411.331 66.6212 L421.944 66.6212 Q427.048 66.6212 429.722 64.7172 Q432.395 62.7728 432.395 59.127 Q432.395 55.4812 429.722 53.5773 Q427.048 51.6733 421.944 51.6733 L411.331 51.6733 M411.331 33.1607 L411.331 45.7185 L421.134 45.7185 Q425.347 45.7185 428.02 44.0576 Q430.694 42.3563 430.694 39.3586 Q430.694 36.3609 428.02 34.7811 Q425.347 33.1607 421.134 33.1607 L411.331 33.1607 M403.877 27.2059 L421.62 27.2059 Q429.6 27.2059 433.894 30.1225 Q438.188 33.0392 438.188 38.4269 Q438.188 42.5993 436.001 45.0704 Q433.813 47.5009 429.519 48.1085 Q434.664 49.0808 437.5 52.1594 Q440.335 55.2381 440.335 59.8562 Q440.335 65.9325 435.636 69.2543 Q430.978 72.576 422.309 72.576 L403.877 72.576 L403.877 27.2059 Z" fill="#000000" fill-rule="nonzero" fill-opacity="1" /><path clip-path="url(#clip970)" d="M491.62 27.2059 L491.62 72.576 L484.206 72.576 L484.206 36.1584 L462.332 72.576 L452.771 72.576 L452.771 27.2059 L460.185 27.2059 L460.185 63.5425 L482.019 27.2059 L491.62 27.2059 Z" fill="#000000" fill-rule="nonzero" fill-opacity="1" /><path clip-path="url(#clip970)" d="M539.623 28.9478 L539.623 35.9153 Q536.463 34.1734 533.263 33.3227 Q530.103 32.4315 526.862 32.4315 Q519.611 32.4315 515.601 37.0496 Q511.591 41.6271 511.591 49.9314 Q511.591 58.2358 515.601 62.8538 Q519.611 67.4314 526.862 67.4314 Q530.103 67.4314 533.263 66.5807 Q536.463 65.6895 539.623 63.9476 L539.623 70.8341 Q536.504 72.2924 533.141 73.0216 Q529.82 73.7508 526.052 73.7508 Q515.804 73.7508 509.768 67.3098 Q503.732 60.8689 503.732 49.9314 Q503.732 38.832 509.808 32.472 Q515.925 26.1121 526.538 26.1121 Q529.982 26.1121 533.263 26.8413 Q536.544 27.5299 539.623 28.9478 Z" fill="#000000" fill-rule="nonzero" fill-opacity="1" /><path clip-path="url(#clip970)" d="M591.15 27.2059 L591.15 72.576 L583.737 72.576 L583.737 36.1584 L561.862 72.576 L552.302 72.576 L552.302 27.2059 L559.715 27.2059 L559.715 63.5425 L581.55 27.2059 L591.15 27.2059 Z" fill="#000000" fill-rule="nonzero" fill-opacity="1" /><path clip-path="url(#clip970)" d="M606.22 27.2059 L617.117 27.2059 L629.999 57.5877 L642.921 27.2059 L653.737 27.2059 L653.737 72.576 L646.243 72.576 L646.243 34.3355 L633.725 63.8666 L626.272 63.8666 L613.714 34.3355 L613.714 72.576 L606.22 72.576 L606.22 27.2059 Z" fill="#000000" fill-rule="nonzero" fill-opacity="1" /><path clip-path="url(#clip970)" d="M686.671 32.4315 Q680.675 32.4315 677.192 37.1306 Q673.708 41.7891 673.708 49.9314 Q673.708 58.0738 677.151 62.7728 Q680.635 67.4314 686.671 67.4314 Q692.625 67.4314 696.109 62.7323 Q699.593 58.0333 699.593 49.9314 Q699.593 41.8701 696.109 37.1711 Q692.625 32.4315 686.671 32.4315 M686.671 26.1121 Q696.393 26.1121 701.943 32.4315 Q707.492 38.7509 707.492 49.9314 Q707.492 61.0714 701.943 67.4314 Q696.393 73.7508 686.671 73.7508 Q676.908 73.7508 671.358 67.4314 Q665.849 61.0714 665.849 49.9314 Q665.849 38.7509 671.358 32.4315 Q676.908 26.1121 686.671 26.1121 Z" fill="#000000" fill-rule="nonzero" fill-opacity="1" /><path clip-path="url(#clip970)" d="M752.498 28.9478 L752.498 35.9153 Q749.338 34.1734 746.138 33.3227 Q742.978 32.4315 739.738 32.4315 Q732.486 32.4315 728.476 37.0496 Q724.466 41.6271 724.466 49.9314 Q724.466 58.2358 728.476 62.8538 Q732.486 67.4314 739.738 67.4314 Q742.978 67.4314 746.138 66.5807 Q749.338 65.6895 752.498 63.9476 L752.498 70.8341 Q749.379 72.2924 746.016 73.0216 Q742.695 73.7508 738.927 73.7508 Q728.679 73.7508 722.643 67.3098 Q716.607 60.8689 716.607 49.9314 Q716.607 38.832 722.683 32.472 Q728.8 26.1121 739.413 26.1121 Q742.857 26.1121 746.138 26.8413 Q749.419 27.5299 752.498 28.9478 Z" fill="#000000" fill-rule="nonzero" fill-opacity="1" /><path clip-path="url(#clip970)" d="M760.073 27.2059 L803.539 27.2059 L803.539 33.1607 L785.472 33.1607 L785.472 72.576 L778.14 72.576 L778.14 33.1607 L760.073 33.1607 L760.073 27.2059 Z" fill="#000000" fill-rule="nonzero" fill-opacity="1" /><path clip-path="url(#clip970)" d="M842.023 59.127 Q842.023 55.4812 839.349 53.5773 Q836.716 51.6733 831.612 51.6733 L820.999 51.6733 L820.999 66.6212 L831.612 66.6212 Q836.716 66.6212 839.349 64.7172 Q842.023 62.7728 842.023 59.127 M813.504 27.2059 L820.999 27.2059 L820.999 45.7185 L831.936 45.7185 Q840.605 45.7185 845.264 49.0402 Q849.963 52.3215 849.963 59.127 Q849.963 65.9325 845.264 69.2543 Q840.605 72.576 831.936 72.576 L813.504 72.576 L813.504 27.2059 Z" fill="#000000" fill-rule="nonzero" fill-opacity="1" /><path clip-path="url(#clip970)" d="M896.224 51.6733 L896.224 66.6212 L906.837 66.6212 Q911.941 66.6212 914.615 64.7172 Q917.289 62.7728 917.289 59.127 Q917.289 55.4812 914.615 53.5773 Q911.941 51.6733 906.837 51.6733 L896.224 51.6733 M896.224 33.1607 L896.224 45.7185 L906.027 45.7185 Q910.24 45.7185 912.914 44.0576 Q915.587 42.3563 915.587 39.3586 Q915.587 36.3609 912.914 34.7811 Q910.24 33.1607 906.027 33.1607 L896.224 33.1607 M888.77 27.2059 L906.513 27.2059 Q914.494 27.2059 918.787 30.1225 Q923.081 33.0392 923.081 38.4269 Q923.081 42.5993 920.894 45.0704 Q918.706 47.5009 914.413 48.1085 Q919.557 49.0808 922.393 52.1594 Q925.228 55.2381 925.228 59.8562 Q925.228 65.9325 920.529 69.2543 Q915.871 72.576 907.202 72.576 L888.77 72.576 L888.77 27.2059 Z" fill="#000000" fill-rule="nonzero" fill-opacity="1" /><path clip-path="url(#clip970)" d="M945.159 65.7705 L945.159 89.8329 L937.665 89.8329 L937.665 27.2059 L945.159 27.2059 L945.159 34.0924 Q947.508 30.0415 951.073 28.0971 Q954.678 26.1121 959.661 26.1121 Q967.925 26.1121 973.07 32.6746 Q978.255 39.2371 978.255 49.9314 Q978.255 60.6258 973.07 67.1883 Q967.925 73.7508 959.661 73.7508 Q954.678 73.7508 951.073 71.8063 Q947.508 69.8214 945.159 65.7705 M970.518 49.9314 Q970.518 41.7081 967.115 37.0496 Q963.753 32.3505 957.838 32.3505 Q951.924 32.3505 948.521 37.0496 Q945.159 41.7081 945.159 49.9314 Q945.159 58.1548 948.521 62.8538 Q951.924 67.5124 957.838 67.5124 Q963.753 67.5124 967.115 62.8538 Q970.518 58.1548 970.518 49.9314 Z" fill="#000000" fill-rule="nonzero" fill-opacity="1" /><path clip-path="url(#clip970)" d="M1029.42 48.0275 L1029.42 51.6733 L995.147 51.6733 Q995.633 59.3701 999.765 63.421 Q1003.94 67.4314 1011.35 67.4314 Q1015.64 67.4314 1019.65 66.3781 Q1023.71 65.3249 1027.68 63.2184 L1027.68 70.267 Q1023.67 71.9684 1019.45 72.8596 Q1015.24 73.7508 1010.91 73.7508 Q1000.05 73.7508 993.689 67.4314 Q987.369 61.1119 987.369 50.3365 Q987.369 39.1965 993.365 32.6746 Q999.4 26.1121 1009.61 26.1121 Q1018.76 26.1121 1024.07 32.0264 Q1029.42 37.9003 1029.42 48.0275 M1021.96 45.84 Q1021.88 39.7232 1018.52 36.0774 Q1015.2 32.4315 1009.69 32.4315 Q1003.45 32.4315 999.684 35.9558 Q995.957 39.4801 995.39 45.8805 L1021.96 45.84 Z" fill="#000000" fill-rule="nonzero" fill-opacity="1" /><path clip-path="url(#clip970)" d="M1041.37 27.2059 L1052.26 27.2059 L1065.15 57.5877 L1078.07 27.2059 L1088.88 27.2059 L1088.88 72.576 L1081.39 72.576 L1081.39 34.3355 L1068.87 63.8666 L1061.42 63.8666 L1048.86 34.3355 L1048.86 72.576 L1041.37 72.576 L1041.37 27.2059 Z" fill="#000000" fill-rule="nonzero" fill-opacity="1" /><path clip-path="url(#clip970)" d="M1143.05 48.0275 L1143.05 51.6733 L1108.77 51.6733 Q1109.26 59.3701 1113.39 63.421 Q1117.57 67.4314 1124.98 67.4314 Q1129.27 67.4314 1133.28 66.3781 Q1137.33 65.3249 1141.3 63.2184 L1141.3 70.267 Q1137.29 71.9684 1133.08 72.8596 Q1128.87 73.7508 1124.53 73.7508 Q1113.68 73.7508 1107.32 67.4314 Q1101 61.1119 1101 50.3365 Q1101 39.1965 1106.99 32.6746 Q1113.03 26.1121 1123.24 26.1121 Q1132.39 26.1121 1137.7 32.0264 Q1143.05 37.9003 1143.05 48.0275 M1135.59 45.84 Q1135.51 39.7232 1132.15 36.0774 Q1128.83 32.4315 1123.32 32.4315 Q1117.08 32.4315 1113.31 35.9558 Q1109.59 39.4801 1109.02 45.8805 L1135.59 45.84 Z" fill="#000000" fill-rule="nonzero" fill-opacity="1" /><path clip-path="url(#clip970)" d="M1155 27.2059 L1162.49 27.2059 L1162.49 45.7185 L1186.67 45.7185 L1186.67 27.2059 L1194.17 27.2059 L1194.17 72.576 L1186.67 72.576 L1186.67 51.6733 L1162.49 51.6733 L1162.49 72.576 L1155 72.576 L1155 27.2059 Z" fill="#000000" fill-rule="nonzero" fill-opacity="1" /><path clip-path="url(#clip970)" d="M1248.09 27.2059 L1248.09 72.576 L1240.67 72.576 L1240.67 36.1584 L1218.8 72.576 L1209.24 72.576 L1209.24 27.2059 L1216.65 27.2059 L1216.65 63.5425 L1238.48 27.2059 L1248.09 27.2059 Z" fill="#000000" fill-rule="nonzero" fill-opacity="1" /><path clip-path="url(#clip970)" d="M1296.98 51.6733 L1296.98 66.6212 L1307.59 66.6212 Q1312.7 66.6212 1315.37 64.7172 Q1318.04 62.7728 1318.04 59.127 Q1318.04 55.4812 1315.37 53.5773 Q1312.7 51.6733 1307.59 51.6733 L1296.98 51.6733 M1296.98 33.1607 L1296.98 45.7185 L1306.78 45.7185 Q1311 45.7185 1313.67 44.0576 Q1316.34 42.3563 1316.34 39.3586 Q1316.34 36.3609 1313.67 34.7811 Q1311 33.1607 1306.78 33.1607 L1296.98 33.1607 M1289.53 27.2059 L1307.27 27.2059 Q1315.25 27.2059 1319.54 30.1225 Q1323.84 33.0392 1323.84 38.4269 Q1323.84 42.5993 1321.65 45.0704 Q1319.46 47.5009 1315.17 48.1085 Q1320.31 49.0808 1323.15 52.1594 Q1325.98 55.2381 1325.98 59.8562 Q1325.98 65.9325 1321.29 69.2543 Q1316.63 72.576 1307.96 72.576 L1289.53 72.576 L1289.53 27.2059 Z" fill="#000000" fill-rule="nonzero" fill-opacity="1" /><path clip-path="url(#clip970)" d="M1381.56 27.2059 L1389.02 27.2059 L1389.02 72.576 L1381.56 72.576 L1381.56 27.2059 M1385.29 26.1121 L1385.29 26.1121 M1366.94 59.127 Q1366.94 55.4812 1364.27 53.5773 Q1361.63 51.6733 1356.53 51.6733 L1345.91 51.6733 L1345.91 66.6212 L1356.53 66.6212 Q1361.63 66.6212 1364.27 64.7172 Q1366.94 62.7728 1366.94 59.127 M1338.42 27.2059 L1345.91 27.2059 L1345.91 45.7185 L1356.85 45.7185 Q1365.52 45.7185 1370.18 49.0402 Q1374.88 52.3215 1374.88 59.127 Q1374.88 65.9325 1370.18 69.2543 Q1365.52 72.576 1356.85 72.576 L1338.42 72.576 L1338.42 27.2059 Z" fill="#000000" fill-rule="nonzero" fill-opacity="1" /><path clip-path="url(#clip970)" d="M1430.42 72.576 L1430.42 53.4962 L1416.52 53.4962 Q1410.32 53.4962 1406.19 49.6479 Q1402.47 46.1641 1402.47 38.7104 L1402.47 27.2059 L1409.92 27.2059 L1409.92 38.0218 Q1409.92 42.7613 1412.03 45.1514 Q1414.17 47.5414 1418.39 47.5414 L1430.42 47.5414 L1430.42 27.2059 L1437.87 27.2059 L1437.87 72.576 L1430.42 72.576 Z" fill="#000000" fill-rule="nonzero" fill-opacity="1" /><path clip-path="url(#clip970)" d="M1491.79 27.2059 L1491.79 72.576 L1484.37 72.576 L1484.37 36.1584 L1462.5 72.576 L1452.94 72.576 L1452.94 27.2059 L1460.35 27.2059 L1460.35 63.5425 L1482.19 27.2059 L1491.79 27.2059 Z" fill="#000000" fill-rule="nonzero" fill-opacity="1" /><path clip-path="url(#clip970)" d="M1539.79 28.9478 L1539.79 35.9153 Q1536.63 34.1734 1533.43 33.3227 Q1530.27 32.4315 1527.03 32.4315 Q1519.78 32.4315 1515.77 37.0496 Q1511.76 41.6271 1511.76 49.9314 Q1511.76 58.2358 1515.77 62.8538 Q1519.78 67.4314 1527.03 67.4314 Q1530.27 67.4314 1533.43 66.5807 Q1536.63 65.6895 1539.79 63.9476 L1539.79 70.8341 Q1536.67 72.2924 1533.31 73.0216 Q1529.99 73.7508 1526.22 73.7508 Q1515.97 73.7508 1509.94 67.3098 Q1503.9 60.8689 1503.9 49.9314 Q1503.9 38.832 1509.98 32.472 Q1516.09 26.1121 1526.71 26.1121 Q1530.15 26.1121 1533.43 26.8413 Q1536.71 27.5299 1539.79 28.9478 Z" fill="#000000" fill-rule="nonzero" fill-opacity="1" /><path clip-path="url(#clip970)" d="M1548.01 72.576 L1548.01 66.3781 Q1555.39 65.2439 1557.66 60.1397 Q1560.41 52.9696 1560.41 34.619 L1560.41 27.2059 L1591.08 27.2059 L1591.08 72.576 L1583.62 72.576 L1583.62 33.1607 L1567.86 33.1607 L1567.86 37.6572 Q1567.86 55.1571 1564.3 63.0159 Q1560.49 71.4012 1548.01 72.576 Z" fill="#000000" fill-rule="nonzero" fill-opacity="1" /><path clip-path="url(#clip970)" d="M1644.59 48.0275 L1644.59 51.6733 L1610.32 51.6733 Q1610.8 59.3701 1614.94 63.421 Q1619.11 67.4314 1626.52 67.4314 Q1630.81 67.4314 1634.83 66.3781 Q1638.88 65.3249 1642.85 63.2184 L1642.85 70.267 Q1638.84 71.9684 1634.62 72.8596 Q1630.41 73.7508 1626.08 73.7508 Q1615.22 73.7508 1608.86 67.4314 Q1602.54 61.1119 1602.54 50.3365 Q1602.54 39.1965 1608.53 32.6746 Q1614.57 26.1121 1624.78 26.1121 Q1633.93 26.1121 1639.24 32.0264 Q1644.59 37.9003 1644.59 48.0275 M1637.13 45.84 Q1637.05 39.7232 1633.69 36.0774 Q1630.37 32.4315 1624.86 32.4315 Q1618.62 32.4315 1614.85 35.9558 Q1611.13 39.4801 1610.56 45.8805 L1637.13 45.84 Z" fill="#000000" fill-rule="nonzero" fill-opacity="1" /><path clip-path="url(#clip970)" d="M1656.54 27.2059 L1664.03 27.2059 L1664.03 45.7185 L1688.22 45.7185 L1688.22 27.2059 L1695.71 27.2059 L1695.71 72.576 L1688.22 72.576 L1688.22 51.6733 L1664.03 51.6733 L1664.03 72.576 L1656.54 72.576 L1656.54 27.2059 Z" fill="#000000" fill-rule="nonzero" fill-opacity="1" /><path clip-path="url(#clip970)" d="M1749.63 27.2059 L1749.63 72.576 L1742.21 72.576 L1742.21 36.1584 L1720.34 72.576 L1710.78 72.576 L1710.78 27.2059 L1718.19 27.2059 L1718.19 63.5425 L1740.03 27.2059 L1749.63 27.2059 Z" fill="#000000" fill-rule="nonzero" fill-opacity="1" /><path clip-path="url(#clip970)" d="M1772.48 40.2903 Q1772.48 43.6525 1775.07 45.5565 Q1777.66 47.4604 1782.48 47.4604 L1792.53 47.4604 L1792.53 33.1607 L1782.48 33.1607 Q1777.66 33.1607 1775.07 35.0241 Q1772.48 36.8875 1772.48 40.2903 M1761.86 72.576 L1775.72 52.6861 Q1771.02 51.6328 1767.9 48.8782 Q1764.78 46.0831 1764.78 40.2903 Q1764.78 33.7278 1769.11 30.4871 Q1773.49 27.2059 1782.28 27.2059 L1800.02 27.2059 L1800.02 72.576 L1792.53 72.576 L1792.53 53.4152 L1783.25 53.4152 L1769.88 72.576 L1761.86 72.576 Z" fill="#000000" fill-rule="nonzero" fill-opacity="1" /><path clip-path="url(#clip970)" d="M1858.84 32.4315 Q1852.84 32.4315 1849.36 37.1306 Q1845.88 41.7891 1845.88 49.9314 Q1845.88 58.0738 1849.32 62.7728 Q1852.8 67.4314 1858.84 67.4314 Q1864.8 67.4314 1868.28 62.7323 Q1871.76 58.0333 1871.76 49.9314 Q1871.76 41.8701 1868.28 37.1711 Q1864.8 32.4315 1858.84 32.4315 M1858.84 26.1121 Q1868.56 26.1121 1874.11 32.4315 Q1879.66 38.7509 1879.66 49.9314 Q1879.66 61.0714 1874.11 67.4314 Q1868.56 73.7508 1858.84 73.7508 Q1849.08 73.7508 1843.53 67.4314 Q1838.02 61.0714 1838.02 49.9314 Q1838.02 38.7509 1843.53 32.4315 Q1849.08 26.1121 1858.84 26.1121 Z" fill="#000000" fill-rule="nonzero" fill-opacity="1" /><path clip-path="url(#clip970)" d="M1886.63 27.2059 L1930.1 27.2059 L1930.1 33.1607 L1912.03 33.1607 L1912.03 72.576 L1904.7 72.576 L1904.7 33.1607 L1886.63 33.1607 L1886.63 27.2059 Z" fill="#000000" fill-rule="nonzero" fill-opacity="1" /><path clip-path="url(#clip970)" d="M1993.17 51.4708 L1991.39 42.1132 Q1989.56 32.5126 1982.35 32.5126 Q1976.92 32.5126 1974.45 36.9686 Q1971.33 42.5588 1971.33 49.9314 Q1971.33 58.8434 1974.37 63.0969 Q1977.45 67.4314 1982.35 67.4314 Q1987.78 67.4314 1990.7 58.8029 L1993.17 51.4708 M1997.34 39.075 L2001.35 27.2059 L2007.99 27.2059 L1999.69 51.7949 L2001.31 60.6663 Q2001.68 62.6513 2003.09 64.3122 Q2004.75 66.2566 2006.05 66.2566 L2009.61 66.2566 L2009.61 72.576 L2005.16 72.576 Q2001.35 72.576 1997.95 69.1732 Q1996.29 67.4719 1995.6 63.9071 Q1993.74 68.4036 1989.93 71.9279 Q1988.15 73.5887 1982.35 73.5887 Q1972.83 73.5887 1968.21 67.4314 Q1963.48 61.0714 1963.48 49.9314 Q1963.48 38.0218 1968.62 32.4315 Q1974.33 26.1931 1982.35 26.1931 Q1994.95 26.1931 1997.34 39.075 Z" fill="#000000" fill-rule="nonzero" fill-opacity="1" /><circle clip-path="url(#clip972)" cx="475.344" cy="1309.22" r="28.8" fill="#008000" fill-rule="evenodd" fill-opacity="1" stroke="#000000" stroke-opacity="1" stroke-width="3.072"/>
<circle clip-path="url(#clip972)" cx="776.835" cy="1165.73" r="28.8" fill="#008000" fill-rule="evenodd" fill-opacity="1" stroke="#000000" stroke-opacity="1" stroke-width="3.072"/>
<circle clip-path="url(#clip972)" cx="1078.33" cy="498.932" r="28.8" fill="#008000" fill-rule="evenodd" fill-opacity="1" stroke="#000000" stroke-opacity="1" stroke-width="3.072"/>
<circle clip-path="url(#clip972)" cx="1530.56" cy="313.241" r="28.8" fill="#008000" fill-rule="evenodd" fill-opacity="1" stroke="#000000" stroke-opacity="1" stroke-width="3.072"/>
<circle clip-path="url(#clip972)" cx="1832.05" cy="169.752" r="28.8" fill="#008000" fill-rule="evenodd" fill-opacity="1" stroke="#000000" stroke-opacity="1" stroke-width="3.072"/>
<path clip-path="url(#clip970)" d="M482.58 279.509 L1088.89 279.509 L1088.89 175.829 L482.58 175.829  Z" fill="#ffffff" fill-rule="evenodd" fill-opacity="1"/>
<polyline clip-path="url(#clip970)" style="stroke:#000000; stroke-linecap:round; stroke-linejoin:round; stroke-width:4; stroke-opacity:1; fill:none" points="482.58,279.509 1088.89,279.509 1088.89,175.829 482.58,175.829 482.58,279.509 "/>
<circle clip-path="url(#clip970)" cx="546.496" cy="227.669" r="21.6847" fill="#008000" fill-rule="evenodd" fill-opacity="1" stroke="#000000" stroke-opacity="1" stroke-width="2.31304"/>
<path clip-path="url(#clip970)" d="M615.088 228.445 L615.088 241.107 L622.588 241.107 Q626.361 241.107 628.167 239.556 Q629.996 237.982 629.996 234.764 Q629.996 231.523 628.167 229.996 Q626.361 228.445 622.588 228.445 L615.088 228.445 M615.088 214.232 L615.088 224.648 L622.009 224.648 Q625.435 224.648 627.102 223.375 Q628.792 222.079 628.792 219.44 Q628.792 216.824 627.102 215.528 Q625.435 214.232 622.009 214.232 L615.088 214.232 M610.412 210.389 L622.357 210.389 Q627.704 210.389 630.597 212.612 Q633.491 214.834 633.491 218.931 Q633.491 222.102 632.009 223.977 Q630.528 225.852 627.658 226.315 Q631.107 227.056 633.005 229.417 Q634.926 231.755 634.926 235.273 Q634.926 239.903 631.778 242.426 Q628.63 244.949 622.82 244.949 L610.412 244.949 L610.412 210.389 Z" fill="#000000" fill-rule="nonzero" fill-opacity="1" /><path clip-path="url(#clip970)" d="M646.87 241.06 L646.87 254.81 L642.588 254.81 L642.588 219.024 L646.87 219.024 L646.87 222.959 Q648.213 220.644 650.25 219.533 Q652.31 218.399 655.157 218.399 Q659.88 218.399 662.819 222.149 Q665.782 225.898 665.782 232.01 Q665.782 238.121 662.819 241.871 Q659.88 245.621 655.157 245.621 Q652.31 245.621 650.25 244.51 Q648.213 243.375 646.87 241.06 M661.361 232.01 Q661.361 227.311 659.417 224.648 Q657.495 221.963 654.116 221.963 Q650.736 221.963 648.792 224.648 Q646.87 227.311 646.87 232.01 Q646.87 236.709 648.792 239.394 Q650.736 242.056 654.116 242.056 Q657.495 242.056 659.417 239.394 Q661.361 236.709 661.361 232.01 Z" fill="#000000" fill-rule="nonzero" fill-opacity="1" /><path clip-path="url(#clip970)" d="M695.018 230.922 L695.018 233.005 L675.435 233.005 Q675.713 237.403 678.074 239.718 Q680.458 242.01 684.694 242.01 Q687.148 242.01 689.44 241.408 Q691.754 240.806 694.023 239.602 L694.023 243.63 Q691.731 244.602 689.324 245.111 Q686.917 245.621 684.44 245.621 Q678.236 245.621 674.602 242.01 Q670.991 238.398 670.991 232.241 Q670.991 225.875 674.417 222.149 Q677.866 218.399 683.699 218.399 Q688.93 218.399 691.963 221.778 Q695.018 225.135 695.018 230.922 M690.759 229.672 Q690.713 226.176 688.791 224.093 Q686.893 222.01 683.745 222.01 Q680.18 222.01 678.028 224.024 Q675.898 226.037 675.574 229.695 L690.759 229.672 Z" fill="#000000" fill-rule="nonzero" fill-opacity="1" /><path clip-path="url(#clip970)" d="M701.847 219.024 L708.074 219.024 L715.435 236.385 L722.819 219.024 L729 219.024 L729 244.949 L724.717 244.949 L724.717 223.098 L717.564 239.972 L713.305 239.972 L706.129 223.098 L706.129 244.949 L701.847 244.949 L701.847 219.024 Z" fill="#000000" fill-rule="nonzero" fill-opacity="1" /><path clip-path="url(#clip970)" d="M742.055 226.5 Q742.055 228.422 743.537 229.51 Q745.018 230.598 747.773 230.598 L753.513 230.598 L753.513 222.426 L747.773 222.426 Q745.018 222.426 743.537 223.491 Q742.055 224.556 742.055 226.5 M735.99 244.949 L743.907 233.584 Q741.222 232.982 739.439 231.408 Q737.657 229.811 737.657 226.5 Q737.657 222.75 740.134 220.899 Q742.634 219.024 747.657 219.024 L757.796 219.024 L757.796 244.949 L753.513 244.949 L753.513 234 L748.212 234 L740.574 244.949 L735.99 244.949 Z" fill="#000000" fill-rule="nonzero" fill-opacity="1" /><path clip-path="url(#clip970)" d="M785.458 233.005 L785.458 241.547 L791.522 241.547 Q794.439 241.547 795.967 240.459 Q797.495 239.347 797.495 237.264 Q797.495 235.181 795.967 234.093 Q794.439 233.005 791.522 233.005 L785.458 233.005 M785.458 222.426 L785.458 229.602 L791.059 229.602 Q793.467 229.602 794.995 228.653 Q796.522 227.681 796.522 225.968 Q796.522 224.255 794.995 223.352 Q793.467 222.426 791.059 222.426 L785.458 222.426 M781.198 219.024 L791.337 219.024 Q795.897 219.024 798.351 220.69 Q800.805 222.357 800.805 225.436 Q800.805 227.82 799.555 229.232 Q798.305 230.621 795.851 230.968 Q798.791 231.523 800.411 233.283 Q802.032 235.042 802.032 237.681 Q802.032 241.153 799.346 243.051 Q796.684 244.949 791.731 244.949 L781.198 244.949 L781.198 219.024 Z" fill="#000000" fill-rule="nonzero" fill-opacity="1" /><path clip-path="url(#clip970)" d="M833.791 219.024 L838.05 219.024 L838.05 244.949 L833.791 244.949 L833.791 219.024 M835.92 218.399 L835.92 218.399 M825.434 237.264 Q825.434 235.181 823.907 234.093 Q822.402 233.005 819.485 233.005 L813.42 233.005 L813.42 241.547 L819.485 241.547 Q822.402 241.547 823.907 240.459 Q825.434 239.347 825.434 237.264 M809.138 219.024 L813.42 219.024 L813.42 229.602 L819.67 229.602 Q824.624 229.602 827.286 231.5 Q829.971 233.375 829.971 237.264 Q829.971 241.153 827.286 243.051 Q824.624 244.949 819.67 244.949 L809.138 244.949 L809.138 219.024 Z" fill="#000000" fill-rule="nonzero" fill-opacity="1" /><path clip-path="url(#clip970)" d="M861.707 244.949 L861.707 234.047 L853.767 234.047 Q850.226 234.047 847.865 231.848 Q845.735 229.857 845.735 225.598 L845.735 219.024 L849.994 219.024 L849.994 225.204 Q849.994 227.912 851.198 229.278 Q852.425 230.644 854.832 230.644 L861.707 230.644 L861.707 219.024 L865.966 219.024 L865.966 244.949 L861.707 244.949 Z" fill="#000000" fill-rule="nonzero" fill-opacity="1" /><path clip-path="url(#clip970)" d="M896.776 219.024 L896.776 244.949 L892.54 244.949 L892.54 224.139 L880.04 244.949 L874.578 244.949 L874.578 219.024 L878.814 219.024 L878.814 239.787 L891.29 219.024 L896.776 219.024 Z" fill="#000000" fill-rule="nonzero" fill-opacity="1" /><path clip-path="url(#clip970)" d="M924.207 220.019 L924.207 224 Q922.401 223.005 920.573 222.519 Q918.767 222.01 916.915 222.01 Q912.772 222.01 910.48 224.648 Q908.188 227.264 908.188 232.01 Q908.188 236.755 910.48 239.394 Q912.772 242.01 916.915 242.01 Q918.767 242.01 920.573 241.523 Q922.401 241.014 924.207 240.019 L924.207 243.954 Q922.425 244.787 920.503 245.204 Q918.605 245.621 916.452 245.621 Q910.596 245.621 907.147 241.94 Q903.698 238.26 903.698 232.01 Q903.698 225.667 907.17 222.033 Q910.665 218.399 916.73 218.399 Q918.698 218.399 920.573 218.815 Q922.448 219.209 924.207 220.019 Z" fill="#000000" fill-rule="nonzero" fill-opacity="1" /><path clip-path="url(#clip970)" d="M928.906 244.949 L928.906 241.408 Q933.119 240.76 934.415 237.843 Q935.989 233.746 935.989 223.26 L935.989 219.024 L953.512 219.024 L953.512 244.949 L949.253 244.949 L949.253 222.426 L940.248 222.426 L940.248 224.996 Q940.248 234.996 938.211 239.486 Q936.036 244.278 928.906 244.949 Z" fill="#000000" fill-rule="nonzero" fill-opacity="1" /><path clip-path="url(#clip970)" d="M984.091 230.922 L984.091 233.005 L964.508 233.005 Q964.785 237.403 967.146 239.718 Q969.531 242.01 973.767 242.01 Q976.221 242.01 978.512 241.408 Q980.827 240.806 983.095 239.602 L983.095 243.63 Q980.804 244.602 978.396 245.111 Q975.989 245.621 973.512 245.621 Q967.309 245.621 963.674 242.01 Q960.063 238.398 960.063 232.241 Q960.063 225.875 963.489 222.149 Q966.938 218.399 972.771 218.399 Q978.003 218.399 981.035 221.778 Q984.091 225.135 984.091 230.922 M979.832 229.672 Q979.785 226.176 977.864 224.093 Q975.966 222.01 972.818 222.01 Q969.253 222.01 967.1 224.024 Q964.971 226.037 964.647 229.695 L979.832 229.672 Z" fill="#000000" fill-rule="nonzero" fill-opacity="1" /><path clip-path="url(#clip970)" d="M990.92 219.024 L995.202 219.024 L995.202 229.602 L1009.02 229.602 L1009.02 219.024 L1013.3 219.024 L1013.3 244.949 L1009.02 244.949 L1009.02 233.005 L995.202 233.005 L995.202 244.949 L990.92 244.949 L990.92 219.024 Z" fill="#000000" fill-rule="nonzero" fill-opacity="1" /><path clip-path="url(#clip970)" d="M1044.11 219.024 L1044.11 244.949 L1039.88 244.949 L1039.88 224.139 L1027.38 244.949 L1021.91 244.949 L1021.91 219.024 L1026.15 219.024 L1026.15 239.787 L1038.63 219.024 L1044.11 219.024 Z" fill="#000000" fill-rule="nonzero" fill-opacity="1" /><path clip-path="url(#clip970)" d="M1057.17 226.5 Q1057.17 228.422 1058.65 229.51 Q1060.13 230.598 1062.89 230.598 L1068.63 230.598 L1068.63 222.426 L1062.89 222.426 Q1060.13 222.426 1058.65 223.491 Q1057.17 224.556 1057.17 226.5 M1051.1 244.949 L1059.02 233.584 Q1056.34 232.982 1054.55 231.408 Q1052.77 229.811 1052.77 226.5 Q1052.77 222.75 1055.25 220.899 Q1057.75 219.024 1062.77 219.024 L1072.91 219.024 L1072.91 244.949 L1068.63 244.949 L1068.63 234 L1063.33 234 L1055.69 244.949 L1051.1 244.949 Z" fill="#000000" fill-rule="nonzero" fill-opacity="1" /></svg>
