<?xml version="1.0" encoding="utf-8"?>
<svg xmlns="http://www.w3.org/2000/svg" xmlns:xlink="http://www.w3.org/1999/xlink" width="1650" height="1050" viewBox="0 0 6600 4200">
<defs>
  <clipPath id="clip080">
    <rect x="0" y="0" width="6600" height="4200"/>
  </clipPath>
</defs>
<path clip-path="url(#clip080)" d="M0 4200 L6600 4200 L6600 0 L0 0  Z" fill="#ffffff" fill-rule="evenodd" fill-opacity="1"/>
<defs>
  <clipPath id="clip081">
    <rect x="1494" y="0" width="4945" height="4153"/>
  </clipPath>
</defs>
<path clip-path="url(#clip080)" d="M243.804 4000.91 L6552.76 4000.91 L6552.76 120.723 L243.804 120.723  Z" fill="#ffffff" fill-rule="evenodd" fill-opacity="1"/>
<defs>
  <clipPath id="clip082">
    <rect x="243" y="120" width="6310" height="3881"/>
  </clipPath>
</defs>
<polyline clip-path="url(#clip082)" style="stroke:#000000; stroke-linecap:round; stroke-linejoin:round; stroke-width:2; stroke-opacity:0.1; fill:none" points="243.804,4000.91 243.804,120.723 "/>
<polyline clip-path="url(#clip082)" style="stroke:#000000; stroke-linecap:round; stroke-linejoin:round; stroke-width:2; stroke-opacity:0.1; fill:none" points="1505.59,4000.91 1505.59,120.723 "/>
<polyline clip-path="url(#clip082)" style="stroke:#000000; stroke-linecap:round; stroke-linejoin:round; stroke-width:2; stroke-opacity:0.1; fill:none" points="2767.38,4000.91 2767.38,120.723 "/>
<polyline clip-path="url(#clip082)" style="stroke:#000000; stroke-linecap:round; stroke-linejoin:round; stroke-width:2; stroke-opacity:0.1; fill:none" points="4029.17,4000.91 4029.17,120.723 "/>
<polyline clip-path="url(#clip082)" style="stroke:#000000; stroke-linecap:round; stroke-linejoin:round; stroke-width:2; stroke-opacity:0.1; fill:none" points="5290.97,4000.91 5290.97,120.723 "/>
<polyline clip-path="url(#clip082)" style="stroke:#000000; stroke-linecap:round; stroke-linejoin:round; stroke-width:2; stroke-opacity:0.1; fill:none" points="6552.76,4000.91 6552.76,120.723 "/>
<polyline clip-path="url(#clip082)" style="stroke:#000000; stroke-linecap:round; stroke-linejoin:round; stroke-width:2; stroke-opacity:0.1; fill:none" points="243.804,3123.9 6552.76,3123.9 "/>
<polyline clip-path="url(#clip082)" style="stroke:#000000; stroke-linecap:round; stroke-linejoin:round; stroke-width:2; stroke-opacity:0.1; fill:none" points="243.804,2164.91 6552.76,2164.91 "/>
<polyline clip-path="url(#clip082)" style="stroke:#000000; stroke-linecap:round; stroke-linejoin:round; stroke-width:2; stroke-opacity:0.1; fill:none" points="243.804,1205.92 6552.76,1205.92 "/>
<polyline clip-path="url(#clip082)" style="stroke:#000000; stroke-linecap:round; stroke-linejoin:round; stroke-width:2; stroke-opacity:0.1; fill:none" points="243.804,246.929 6552.76,246.929 "/>
<polyline clip-path="url(#clip080)" style="stroke:#000000; stroke-linecap:round; stroke-linejoin:round; stroke-width:4; stroke-opacity:1; fill:none" points="243.804,4000.91 6552.76,4000.91 "/>
<polyline clip-path="url(#clip080)" style="stroke:#000000; stroke-linecap:round; stroke-linejoin:round; stroke-width:4; stroke-opacity:1; fill:none" points="243.804,4000.91 243.804,3982.01 "/>
<polyline clip-path="url(#clip080)" style="stroke:#000000; stroke-linecap:round; stroke-linejoin:round; stroke-width:4; stroke-opacity:1; fill:none" points="1505.59,4000.91 1505.59,3982.01 "/>
<polyline clip-path="url(#clip080)" style="stroke:#000000; stroke-linecap:round; stroke-linejoin:round; stroke-width:4; stroke-opacity:1; fill:none" points="2767.38,4000.91 2767.38,3982.01 "/>
<polyline clip-path="url(#clip080)" style="stroke:#000000; stroke-linecap:round; stroke-linejoin:round; stroke-width:4; stroke-opacity:1; fill:none" points="4029.17,4000.91 4029.17,3982.01 "/>
<polyline clip-path="url(#clip080)" style="stroke:#000000; stroke-linecap:round; stroke-linejoin:round; stroke-width:4; stroke-opacity:1; fill:none" points="5290.97,4000.91 5290.97,3982.01 "/>
<polyline clip-path="url(#clip080)" style="stroke:#000000; stroke-linecap:round; stroke-linejoin:round; stroke-width:4; stroke-opacity:1; fill:none" points="6552.76,4000.91 6552.76,3982.01 "/>
<path clip-path="url(#clip080)" d="M243.804 4065.43 Q240.192 4065.43 238.364 4068.99 Q236.558 4072.54 236.558 4079.67 Q236.558 4086.77 238.364 4090.34 Q240.192 4093.88 243.804 4093.88 Q247.438 4093.88 249.243 4090.34 Q251.072 4086.77 251.072 4079.67 Q251.072 4072.54 249.243 4068.99 Q247.438 4065.43 243.804 4065.43 M243.804 4061.73 Q249.614 4061.73 252.669 4066.33 Q255.748 4070.92 255.748 4079.67 Q255.748 4088.39 252.669 4093 Q249.614 4097.58 243.804 4097.58 Q237.993 4097.58 234.915 4093 Q231.859 4088.39 231.859 4079.67 Q231.859 4070.92 234.915 4066.33 Q237.993 4061.73 243.804 4061.73 Z" fill="#000000" fill-rule="nonzero" fill-opacity="1" /><path clip-path="url(#clip080)" d="M1500.25 4092.98 L1516.57 4092.98 L1516.57 4096.91 L1494.62 4096.91 L1494.62 4092.98 Q1497.28 4090.22 1501.87 4085.59 Q1506.47 4080.94 1507.65 4079.6 Q1509.9 4077.07 1510.78 4075.34 Q1511.68 4073.58 1511.68 4071.89 Q1511.68 4069.13 1509.74 4067.4 Q1507.82 4065.66 1504.71 4065.66 Q1502.52 4065.66 1500.06 4066.42 Q1497.63 4067.19 1494.85 4068.74 L1494.85 4064.02 Q1497.68 4062.88 1500.13 4062.3 Q1502.58 4061.73 1504.62 4061.73 Q1509.99 4061.73 1513.19 4064.41 Q1516.38 4067.1 1516.38 4071.59 Q1516.38 4073.72 1515.57 4075.64 Q1514.78 4077.54 1512.68 4080.13 Q1512.1 4080.8 1509 4084.02 Q1505.89 4087.21 1500.25 4092.98 Z" fill="#000000" fill-rule="nonzero" fill-opacity="1" /><path clip-path="url(#clip080)" d="M2770.39 4066.42 L2758.59 4084.87 L2770.39 4084.87 L2770.39 4066.42 M2769.17 4062.35 L2775.05 4062.35 L2775.05 4084.87 L2779.98 4084.87 L2779.98 4088.76 L2775.05 4088.76 L2775.05 4096.91 L2770.39 4096.91 L2770.39 4088.76 L2754.79 4088.76 L2754.79 4084.25 L2769.17 4062.35 Z" fill="#000000" fill-rule="nonzero" fill-opacity="1" /><path clip-path="url(#clip080)" d="M4029.58 4077.77 Q4026.43 4077.77 4024.58 4079.92 Q4022.75 4082.07 4022.75 4085.82 Q4022.75 4089.55 4024.58 4091.73 Q4026.43 4093.88 4029.58 4093.88 Q4032.73 4093.88 4034.56 4091.73 Q4036.41 4089.55 4036.41 4085.82 Q4036.41 4082.07 4034.56 4079.92 Q4032.73 4077.77 4029.58 4077.77 M4038.86 4063.11 L4038.86 4067.37 Q4037.1 4066.54 4035.3 4066.1 Q4033.52 4065.66 4031.76 4065.66 Q4027.13 4065.66 4024.67 4068.79 Q4022.24 4071.91 4021.89 4078.23 Q4023.26 4076.22 4025.32 4075.15 Q4027.38 4074.06 4029.86 4074.06 Q4035.07 4074.06 4038.08 4077.23 Q4041.11 4080.38 4041.11 4085.82 Q4041.11 4091.15 4037.96 4094.36 Q4034.81 4097.58 4029.58 4097.58 Q4023.58 4097.58 4020.41 4093 Q4017.24 4088.39 4017.24 4079.67 Q4017.24 4071.47 4021.13 4066.61 Q4025.02 4061.73 4031.57 4061.73 Q4033.33 4061.73 4035.11 4062.07 Q4036.92 4062.42 4038.86 4063.11 Z" fill="#000000" fill-rule="nonzero" fill-opacity="1" /><path clip-path="url(#clip080)" d="M5290.97 4080.5 Q5287.63 4080.5 5285.71 4082.28 Q5283.81 4084.06 5283.81 4087.19 Q5283.81 4090.31 5285.71 4092.1 Q5287.63 4093.88 5290.97 4093.88 Q5294.3 4093.88 5296.22 4092.1 Q5298.14 4090.29 5298.14 4087.19 Q5298.14 4084.06 5296.22 4082.28 Q5294.32 4080.5 5290.97 4080.5 M5286.29 4078.51 Q5283.28 4077.77 5281.59 4075.71 Q5279.92 4073.65 5279.92 4070.68 Q5279.92 4066.54 5282.86 4064.13 Q5285.83 4061.73 5290.97 4061.73 Q5296.13 4061.73 5299.07 4064.13 Q5302.01 4066.54 5302.01 4070.68 Q5302.01 4073.65 5300.32 4075.71 Q5298.65 4077.77 5295.66 4078.51 Q5299.04 4079.3 5300.92 4081.59 Q5302.82 4083.88 5302.82 4087.19 Q5302.82 4092.21 5299.74 4094.9 Q5296.68 4097.58 5290.97 4097.58 Q5285.25 4097.58 5282.17 4094.9 Q5279.11 4092.21 5279.11 4087.19 Q5279.11 4083.88 5281.01 4081.59 Q5282.91 4079.3 5286.29 4078.51 M5284.58 4071.12 Q5284.58 4073.81 5286.24 4075.31 Q5287.93 4076.82 5290.97 4076.82 Q5293.97 4076.82 5295.66 4075.31 Q5297.38 4073.81 5297.38 4071.12 Q5297.38 4068.44 5295.66 4066.93 Q5293.97 4065.43 5290.97 4065.43 Q5287.93 4065.43 5286.24 4066.93 Q5284.58 4068.44 5284.58 4071.12 Z" fill="#000000" fill-rule="nonzero" fill-opacity="1" /><path clip-path="url(#clip080)" d="M6527.44 4092.98 L6535.08 4092.98 L6535.08 4066.61 L6526.77 4068.28 L6526.77 4064.02 L6535.04 4062.35 L6539.71 4062.35 L6539.71 4092.98 L6547.35 4092.98 L6547.35 4096.91 L6527.44 4096.91 L6527.44 4092.98 Z" fill="#000000" fill-rule="nonzero" fill-opacity="1" /><path clip-path="url(#clip080)" d="M6566.8 4065.43 Q6563.18 4065.43 6561.36 4068.99 Q6559.55 4072.54 6559.55 4079.67 Q6559.55 4086.77 6561.36 4090.34 Q6563.18 4093.88 6566.8 4093.88 Q6570.43 4093.88 6572.23 4090.34 Q6574.06 4086.77 6574.06 4079.67 Q6574.06 4072.54 6572.23 4068.99 Q6570.43 4065.43 6566.8 4065.43 M6566.8 4061.73 Q6572.61 4061.73 6575.66 4066.33 Q6578.74 4070.92 6578.74 4079.67 Q6578.74 4088.39 6575.66 4093 Q6572.61 4097.58 6566.8 4097.58 Q6560.99 4097.58 6557.91 4093 Q6554.85 4088.39 6554.85 4079.67 Q6554.85 4070.92 6557.91 4066.33 Q6560.99 4061.73 6566.8 4061.73 Z" fill="#000000" fill-rule="nonzero" fill-opacity="1" /><path clip-path="url(#clip080)" d="M3278.25 4186.08 L3278.25 4203.49 L3288.57 4203.49 Q3293.75 4203.49 3296.24 4201.36 Q3298.75 4199.19 3298.75 4194.77 Q3298.75 4190.31 3296.24 4188.21 Q3293.75 4186.08 3288.57 4186.08 L3278.25 4186.08 M3278.25 4166.54 L3278.25 4180.86 L3287.77 4180.86 Q3292.48 4180.86 3294.77 4179.11 Q3297.1 4177.33 3297.1 4173.7 Q3297.1 4170.1 3294.77 4168.32 Q3292.48 4166.54 3287.77 4166.54 L3278.25 4166.54 M3271.82 4161.25 L3288.25 4161.25 Q3295.6 4161.25 3299.58 4164.31 Q3303.56 4167.37 3303.56 4173 Q3303.56 4177.36 3301.52 4179.94 Q3299.48 4182.52 3295.54 4183.15 Q3300.28 4184.17 3302.89 4187.42 Q3305.53 4190.63 3305.53 4195.47 Q3305.53 4201.84 3301.2 4205.31 Q3296.87 4208.77 3288.89 4208.77 L3271.82 4208.77 L3271.82 4161.25 Z" fill="#000000" fill-rule="nonzero" fill-opacity="1" /><path clip-path="url(#clip080)" d="M3321.95 4203.43 L3321.95 4222.33 L3316.07 4222.33 L3316.07 4173.13 L3321.95 4173.13 L3321.95 4178.54 Q3323.8 4175.35 3326.6 4173.83 Q3329.43 4172.27 3333.35 4172.27 Q3339.84 4172.27 3343.88 4177.42 Q3347.96 4182.58 3347.96 4190.98 Q3347.96 4199.39 3343.88 4204.54 Q3339.84 4209.7 3333.35 4209.7 Q3329.43 4209.7 3326.6 4208.17 Q3323.8 4206.61 3321.95 4203.43 M3341.88 4190.98 Q3341.88 4184.52 3339.21 4180.86 Q3336.56 4177.17 3331.92 4177.17 Q3327.27 4177.17 3324.6 4180.86 Q3321.95 4184.52 3321.95 4190.98 Q3321.95 4197.44 3324.6 4201.14 Q3327.27 4204.8 3331.92 4204.8 Q3336.56 4204.8 3339.21 4201.14 Q3341.88 4197.44 3341.88 4190.98 Z" fill="#000000" fill-rule="nonzero" fill-opacity="1" /><path clip-path="url(#clip080)" d="M3388.16 4189.49 L3388.16 4192.35 L3361.23 4192.35 Q3361.61 4198.4 3364.86 4201.58 Q3368.14 4204.73 3373.96 4204.73 Q3377.34 4204.73 3380.49 4203.9 Q3383.67 4203.08 3386.79 4201.42 L3386.79 4206.96 Q3383.64 4208.3 3380.33 4209 Q3377.02 4209.7 3373.61 4209.7 Q3365.08 4209.7 3360.09 4204.73 Q3355.12 4199.77 3355.12 4191.3 Q3355.12 4182.55 3359.83 4177.42 Q3364.57 4172.27 3372.59 4172.27 Q3379.79 4172.27 3383.96 4176.91 Q3388.16 4181.53 3388.16 4189.49 M3382.3 4187.77 Q3382.24 4182.96 3379.6 4180.1 Q3376.99 4177.23 3372.66 4177.23 Q3367.76 4177.23 3364.8 4180 Q3361.87 4182.77 3361.42 4187.8 L3382.3 4187.77 Z" fill="#000000" fill-rule="nonzero" fill-opacity="1" /><path clip-path="url(#clip080)" d="M3397.55 4173.13 L3406.11 4173.13 L3416.23 4197 L3426.38 4173.13 L3434.88 4173.13 L3434.88 4208.77 L3428.99 4208.77 L3428.99 4178.73 L3419.16 4201.93 L3413.3 4201.93 L3403.44 4178.73 L3403.44 4208.77 L3397.55 4208.77 L3397.55 4173.13 Z" fill="#000000" fill-rule="nonzero" fill-opacity="1" /><path clip-path="url(#clip080)" d="M3452.83 4183.41 Q3452.83 4186.05 3454.87 4187.55 Q3456.91 4189.04 3460.7 4189.04 L3468.59 4189.04 L3468.59 4177.81 L3460.7 4177.81 Q3456.91 4177.81 3454.87 4179.27 Q3452.83 4180.73 3452.83 4183.41 M3444.49 4208.77 L3455.38 4193.15 Q3451.69 4192.32 3449.24 4190.16 Q3446.79 4187.96 3446.79 4183.41 Q3446.79 4178.25 3450.19 4175.7 Q3453.63 4173.13 3460.54 4173.13 L3474.48 4173.13 L3474.48 4208.77 L3468.59 4208.77 L3468.59 4193.72 L3461.3 4193.72 L3450.8 4208.77 L3444.49 4208.77 Z" fill="#000000" fill-rule="nonzero" fill-opacity="1" /><path clip-path="url(#clip080)" d="M3512.67 4163.01 L3512.67 4173.13 L3524.73 4173.13 L3524.73 4177.68 L3512.67 4177.68 L3512.67 4197.03 Q3512.67 4201.39 3513.85 4202.63 Q3515.06 4203.87 3518.72 4203.87 L3524.73 4203.87 L3524.73 4208.77 L3518.72 4208.77 Q3511.94 4208.77 3509.36 4206.26 Q3506.78 4203.71 3506.78 4197.03 L3506.78 4177.68 L3502.49 4177.68 L3502.49 4173.13 L3506.78 4173.13 L3506.78 4163.01 L3512.67 4163.01 Z" fill="#000000" fill-rule="nonzero" fill-opacity="1" /><polyline clip-path="url(#clip080)" style="stroke:#000000; stroke-linecap:round; stroke-linejoin:round; stroke-width:4; stroke-opacity:1; fill:none" points="243.804,4000.91 243.804,120.723 "/>
<polyline clip-path="url(#clip080)" style="stroke:#000000; stroke-linecap:round; stroke-linejoin:round; stroke-width:4; stroke-opacity:1; fill:none" points="243.804,3123.9 262.701,3123.9 "/>
<polyline clip-path="url(#clip080)" style="stroke:#000000; stroke-linecap:round; stroke-linejoin:round; stroke-width:4; stroke-opacity:1; fill:none" points="243.804,2164.91 262.701,2164.91 "/>
<polyline clip-path="url(#clip080)" style="stroke:#000000; stroke-linecap:round; stroke-linejoin:round; stroke-width:4; stroke-opacity:1; fill:none" points="243.804,1205.92 262.701,1205.92 "/>
<polyline clip-path="url(#clip080)" style="stroke:#000000; stroke-linecap:round; stroke-linejoin:round; stroke-width:4; stroke-opacity:1; fill:none" points="243.804,246.929 262.701,246.929 "/>
<path clip-path="url(#clip080)" d="M123.901 3106.62 L142.257 3106.62 L142.257 3110.56 L128.183 3110.56 L128.183 3119.03 Q129.202 3118.68 130.22 3118.52 Q131.239 3118.33 132.257 3118.33 Q138.044 3118.33 141.424 3121.51 Q144.804 3124.68 144.804 3130.09 Q144.804 3135.67 141.331 3138.77 Q137.859 3141.85 131.54 3141.85 Q129.364 3141.85 127.095 3141.48 Q124.85 3141.11 122.443 3140.37 L122.443 3135.67 Q124.526 3136.81 126.748 3137.36 Q128.97 3137.92 131.447 3137.92 Q135.452 3137.92 137.79 3135.81 Q140.128 3133.7 140.128 3130.09 Q140.128 3126.48 137.79 3124.38 Q135.452 3122.27 131.447 3122.27 Q129.572 3122.27 127.697 3122.69 Q125.845 3123.1 123.901 3123.98 L123.901 3106.62 Z" fill="#000000" fill-rule="nonzero" fill-opacity="1" /><path clip-path="url(#clip080)" d="M93.5076 2178.26 L101.146 2178.26 L101.146 2151.89 L92.8363 2153.56 L92.8363 2149.3 L101.1 2147.63 L105.776 2147.63 L105.776 2178.26 L113.415 2178.26 L113.415 2182.19 L93.5076 2182.19 L93.5076 2178.26 Z" fill="#000000" fill-rule="nonzero" fill-opacity="1" /><path clip-path="url(#clip080)" d="M132.859 2150.71 Q129.248 2150.71 127.419 2154.27 Q125.614 2157.82 125.614 2164.95 Q125.614 2172.05 127.419 2175.62 Q129.248 2179.16 132.859 2179.16 Q136.493 2179.16 138.299 2175.62 Q140.128 2172.05 140.128 2164.95 Q140.128 2157.82 138.299 2154.27 Q136.493 2150.71 132.859 2150.71 M132.859 2147.01 Q138.669 2147.01 141.725 2151.61 Q144.804 2156.2 144.804 2164.95 Q144.804 2173.67 141.725 2178.28 Q138.669 2182.86 132.859 2182.86 Q127.049 2182.86 123.97 2178.28 Q120.915 2173.67 120.915 2164.95 Q120.915 2156.2 123.97 2151.61 Q127.049 2147.01 132.859 2147.01 Z" fill="#000000" fill-rule="nonzero" fill-opacity="1" /><path clip-path="url(#clip080)" d="M94.5029 1219.26 L102.142 1219.26 L102.142 1192.9 L93.8316 1194.57 L93.8316 1190.31 L102.095 1188.64 L106.771 1188.64 L106.771 1219.26 L114.41 1219.26 L114.41 1223.2 L94.5029 1223.2 L94.5029 1219.26 Z" fill="#000000" fill-rule="nonzero" fill-opacity="1" /><path clip-path="url(#clip080)" d="M123.901 1188.64 L142.257 1188.64 L142.257 1192.57 L128.183 1192.57 L128.183 1201.05 Q129.202 1200.7 130.22 1200.54 Q131.239 1200.35 132.257 1200.35 Q138.044 1200.35 141.424 1203.52 Q144.804 1206.69 144.804 1212.11 Q144.804 1217.69 141.331 1220.79 Q137.859 1223.87 131.54 1223.87 Q129.364 1223.87 127.095 1223.5 Q124.85 1223.13 122.443 1222.39 L122.443 1217.69 Q124.526 1218.82 126.748 1219.38 Q128.97 1219.94 131.447 1219.94 Q135.452 1219.94 137.79 1217.83 Q140.128 1215.72 140.128 1212.11 Q140.128 1208.5 137.79 1206.39 Q135.452 1204.29 131.447 1204.29 Q129.572 1204.29 127.697 1204.7 Q125.845 1205.12 123.901 1206 L123.901 1188.64 Z" fill="#000000" fill-rule="nonzero" fill-opacity="1" /><path clip-path="url(#clip080)" d="M96.7251 260.273 L113.044 260.273 L113.044 264.209 L91.1002 264.209 L91.1002 260.273 Q93.7622 257.519 98.3455 252.889 Q102.952 248.236 104.132 246.894 Q106.378 244.371 107.257 242.635 Q108.16 240.875 108.16 239.186 Q108.16 236.431 106.216 234.695 Q104.295 232.959 101.193 232.959 Q98.9936 232.959 96.5399 233.723 Q94.1094 234.486 91.3316 236.037 L91.3316 231.315 Q94.1557 230.181 96.6094 229.602 Q99.0631 229.024 101.1 229.024 Q106.47 229.024 109.665 231.709 Q112.859 234.394 112.859 238.885 Q112.859 241.014 112.049 242.936 Q111.262 244.834 109.156 247.426 Q108.577 248.098 105.475 251.315 Q102.373 254.51 96.7251 260.273 Z" fill="#000000" fill-rule="nonzero" fill-opacity="1" /><path clip-path="url(#clip080)" d="M132.859 232.727 Q129.248 232.727 127.419 236.292 Q125.614 239.834 125.614 246.963 Q125.614 254.07 127.419 257.635 Q129.248 261.176 132.859 261.176 Q136.493 261.176 138.299 257.635 Q140.128 254.07 140.128 246.963 Q140.128 239.834 138.299 236.292 Q136.493 232.727 132.859 232.727 M132.859 229.024 Q138.669 229.024 141.725 233.63 Q144.804 238.213 144.804 246.963 Q144.804 255.69 141.725 260.297 Q138.669 264.88 132.859 264.88 Q127.049 264.88 123.97 260.297 Q120.915 255.69 120.915 246.963 Q120.915 238.213 123.97 233.63 Q127.049 229.024 132.859 229.024 Z" fill="#000000" fill-rule="nonzero" fill-opacity="1" /><path clip-path="url(#clip080)" d="M-69.6758 2237.91 L-22.1558 2237.91 L-22.1558 2244.34 L-64.265 2244.34 L-64.265 2267.7 L-22.1558 2267.7 L-22.1558 2274.13 L-69.6758 2274.13 L-69.6758 2237.91 Z" fill="#000000" fill-rule="nonzero" fill-opacity="1" /><path clip-path="url(#clip080)" d="M-53.6979 2211.56 Q-53.6979 2216.27 -50.0058 2219 Q-46.3455 2221.74 -39.948 2221.74 Q-33.5505 2221.74 -29.8583 2219.04 Q-26.1981 2216.3 -26.1981 2211.56 Q-26.1981 2206.88 -29.8902 2204.14 Q-33.5823 2201.4 -39.948 2201.4 Q-46.2819 2201.4 -49.974 2204.14 Q-53.6979 2206.88 -53.6979 2211.56 M-58.6632 2211.56 Q-58.6632 2203.92 -53.6979 2199.56 Q-48.7327 2195.2 -39.948 2195.2 Q-31.1951 2195.2 -26.1981 2199.56 Q-21.2328 2203.92 -21.2328 2211.56 Q-21.2328 2219.23 -26.1981 2223.59 Q-31.1951 2227.92 -39.948 2227.92 Q-48.7327 2227.92 -53.6979 2223.59 Q-58.6632 2219.23 -58.6632 2211.56 Z" fill="#000000" fill-rule="nonzero" fill-opacity="1" /><path clip-path="url(#clip080)" d="M-57.8038 2154.93 L-22.1558 2154.93 L-22.1558 2160.82 L-53.125 2160.82 L-53.125 2179.82 L-22.1558 2179.82 L-22.1558 2185.71 L-57.8038 2185.71 L-57.8038 2154.93 Z" fill="#000000" fill-rule="nonzero" fill-opacity="1" /><path clip-path="url(#clip080)" d="M-18.8457 2128.04 Q-12.48 2130.52 -10.5384 2132.88 Q-8.59689 2135.23 -8.59689 2139.18 L-8.59689 2143.86 L-13.4985 2143.86 L-13.4985 2140.42 Q-13.4985 2138 -14.6443 2136.66 Q-15.7901 2135.33 -20.0552 2133.7 L-22.7288 2132.65 L-57.8038 2147.07 L-57.8038 2140.87 L-29.922 2129.73 L-57.8038 2118.59 L-57.8038 2112.38 L-18.8457 2128.04 Z" fill="#000000" fill-rule="nonzero" fill-opacity="1" /><path clip-path="url(#clip080)" d="M-22.1558 2108.02 L-27.0256 2108.02 Q-27.9168 2102.23 -31.9272 2100.44 Q-37.5609 2098.28 -51.9792 2098.28 L-57.8038 2098.28 L-57.8038 2074.18 L-22.1558 2074.18 L-22.1558 2080.04 L-53.125 2080.04 L-53.125 2092.42 L-49.592 2092.42 Q-35.8421 2092.42 -29.6674 2095.22 Q-23.0789 2098.22 -22.1558 2108.02 Z" fill="#000000" fill-rule="nonzero" fill-opacity="1" /><path clip-path="url(#clip080)" d="M-47.5232 2056.74 Q-44.8814 2056.74 -43.3855 2054.71 Q-41.8895 2052.67 -41.8895 2048.88 L-41.8895 2040.99 L-53.125 2040.99 L-53.125 2048.88 Q-53.125 2052.67 -51.6609 2054.71 Q-50.1968 2056.74 -47.5232 2056.74 M-22.1558 2065.08 L-37.7837 2054.2 Q-38.6112 2057.89 -40.7755 2060.34 Q-42.9717 2062.79 -47.5232 2062.79 Q-52.6794 2062.79 -55.2257 2059.38 Q-57.8038 2055.95 -57.8038 2049.04 L-57.8038 2035.1 L-22.1558 2035.1 L-22.1558 2040.99 L-37.2107 2040.99 L-37.2107 2048.28 L-22.1558 2058.78 L-22.1558 2065.08 Z" fill="#000000" fill-rule="nonzero" fill-opacity="1" /><path clip-path="url(#clip080)" d="M-22.1558 1992.86 L-22.1558 2023.64 L-57.8038 2023.64 L-57.8038 2017.75 L-26.8346 2017.75 L-26.8346 1998.75 L-57.8038 1998.75 L-57.8038 1992.86 L-26.8346 1992.86 L-26.8346 1988.18 L-13.1484 1988.18 L-13.1484 1992.86 L-22.1558 1992.86 Z" fill="#000000" fill-rule="nonzero" fill-opacity="1" /><path clip-path="url(#clip080)" d="M-57.8038 1948.75 L-22.1558 1948.75 L-22.1558 1954.57 L-50.7697 1954.57 L-22.1558 1971.76 L-22.1558 1979.27 L-57.8038 1979.27 L-57.8038 1973.45 L-29.2536 1973.45 L-57.8038 1956.29 L-57.8038 1948.75 Z" fill="#000000" fill-rule="nonzero" fill-opacity="1" /><path clip-path="url(#clip080)" d="M-47.5232 1930.8 Q-44.8814 1930.8 -43.3855 1928.76 Q-41.8895 1926.72 -41.8895 1922.94 L-41.8895 1915.04 L-53.125 1915.04 L-53.125 1922.94 Q-53.125 1926.72 -51.6609 1928.76 Q-50.1968 1930.8 -47.5232 1930.8 M-22.1558 1939.14 L-37.7837 1928.25 Q-38.6112 1931.94 -40.7755 1934.39 Q-42.9717 1936.84 -47.5232 1936.84 Q-52.6794 1936.84 -55.2257 1933.44 Q-57.8038 1930 -57.8038 1923.09 L-57.8038 1909.15 L-22.1558 1909.15 L-22.1558 1915.04 L-37.2107 1915.04 L-37.2107 1922.33 L-22.1558 1932.83 L-22.1558 1939.14 Z" fill="#000000" fill-rule="nonzero" fill-opacity="1" /><path clip-path="url(#clip080)" d="M-36.2241 1877.36 L-57.8038 1877.36 L-57.8038 1871.5 L-36.4469 1871.5 Q-31.3861 1871.5 -28.8398 1869.53 Q-26.3254 1867.55 -26.3254 1863.61 Q-26.3254 1858.86 -29.3491 1856.13 Q-32.3728 1853.36 -37.5927 1853.36 L-57.8038 1853.36 L-57.8038 1847.5 L-22.1558 1847.5 L-22.1558 1853.36 L-27.6304 1853.36 Q-24.3838 1855.49 -22.7924 1858.32 Q-21.2328 1861.12 -21.2328 1864.85 Q-21.2328 1870.99 -25.0522 1874.17 Q-28.8717 1877.36 -36.2241 1877.36 M-58.6632 1862.62 L-58.6632 1862.62 Z" fill="#000000" fill-rule="nonzero" fill-opacity="1" /><path clip-path="url(#clip080)" d="M2664.74 59.3701 Q2673.29 67.0263 2683.66 67.0263 Q2694.35 67.0263 2699.17 61.274 Q2704 55.5217 2704.89 45.84 L2672.56 45.84 L2672.56 38.9535 L2704.89 38.9535 Q2704 29.2718 2699.17 23.5195 Q2694.35 17.7268 2683.66 17.7268 Q2673.29 17.7268 2664.74 25.383 L2664.74 16.7545 Q2673.17 11.0023 2684.15 11.0023 Q2697.72 11.0023 2705.62 19.4281 Q2713.51 27.8135 2713.51 42.3563 Q2713.51 56.9395 2705.62 65.3654 Q2697.72 73.7508 2684.15 73.7508 Q2673.33 73.7508 2664.74 67.9175 L2664.74 59.3701 Z" fill="#000000" fill-rule="nonzero" fill-opacity="1" /><path clip-path="url(#clip080)" d="M2725.71 27.2059 L2733.12 27.2059 L2733.12 48.5136 L2754.15 27.2059 L2763.3 27.2059 L2745.96 44.7463 L2765.53 72.576 L2757.18 72.576 L2741.1 49.6884 L2733.12 57.7902 L2733.12 72.576 L2725.71 72.576 L2725.71 27.2059 Z" fill="#000000" fill-rule="nonzero" fill-opacity="1" /><path clip-path="url(#clip080)" d="M2808.75 28.9478 L2808.75 35.9153 Q2805.59 34.1734 2802.39 33.3227 Q2799.23 32.4315 2795.99 32.4315 Q2788.74 32.4315 2784.73 37.0496 Q2780.72 41.6271 2780.72 49.9314 Q2780.72 58.2358 2784.73 62.8538 Q2788.74 67.4314 2795.99 67.4314 Q2799.23 67.4314 2802.39 66.5807 Q2805.59 65.6895 2808.75 63.9476 L2808.75 70.8341 Q2805.63 72.2924 2802.27 73.0216 Q2798.95 73.7508 2795.18 73.7508 Q2784.93 73.7508 2778.9 67.3098 Q2772.86 60.8689 2772.86 49.9314 Q2772.86 38.832 2778.94 32.472 Q2785.05 26.1121 2795.67 26.1121 Q2799.11 26.1121 2802.39 26.8413 Q2805.67 27.5299 2808.75 28.9478 Z" fill="#000000" fill-rule="nonzero" fill-opacity="1" /><path clip-path="url(#clip080)" d="M2860.6 27.2059 L2860.6 72.576 L2853.11 72.576 L2853.11 33.1607 L2828.93 33.1607 L2828.93 72.576 L2821.43 72.576 L2821.43 27.2059 L2860.6 27.2059 Z" fill="#000000" fill-rule="nonzero" fill-opacity="1" /><path clip-path="url(#clip080)" d="M2893.54 32.4315 Q2887.54 32.4315 2884.06 37.1306 Q2880.57 41.7891 2880.57 49.9314 Q2880.57 58.0738 2884.02 62.7728 Q2887.5 67.4314 2893.54 67.4314 Q2899.49 67.4314 2902.98 62.7323 Q2906.46 58.0333 2906.46 49.9314 Q2906.46 41.8701 2902.98 37.1711 Q2899.49 32.4315 2893.54 32.4315 M2893.54 26.1121 Q2903.26 26.1121 2908.81 32.4315 Q2914.36 38.7509 2914.36 49.9314 Q2914.36 61.0714 2908.81 67.4314 Q2903.26 73.7508 2893.54 73.7508 Q2883.77 73.7508 2878.22 67.4314 Q2872.72 61.0714 2872.72 49.9314 Q2872.72 38.7509 2878.22 32.4315 Q2883.77 26.1121 2893.54 26.1121 Z" fill="#000000" fill-rule="nonzero" fill-opacity="1" /><path clip-path="url(#clip080)" d="M2926.43 27.2059 L2933.92 27.2059 L2933.92 45.7185 L2958.11 45.7185 L2958.11 27.2059 L2965.6 27.2059 L2965.6 72.576 L2958.11 72.576 L2958.11 51.6733 L2933.92 51.6733 L2933.92 72.576 L2926.43 72.576 L2926.43 27.2059 Z" fill="#000000" fill-rule="nonzero" fill-opacity="1" /><path clip-path="url(#clip080)" d="M3019.76 48.0275 L3019.76 51.6733 L2985.49 51.6733 Q2985.98 59.3701 2990.11 63.421 Q2994.28 67.4314 3001.7 67.4314 Q3005.99 67.4314 3010 66.3781 Q3014.05 65.3249 3018.02 63.2184 L3018.02 70.267 Q3014.01 71.9684 3009.8 72.8596 Q3005.59 73.7508 3001.25 73.7508 Q2990.39 73.7508 2984.03 67.4314 Q2977.71 61.1119 2977.71 50.3365 Q2977.71 39.1965 2983.71 32.6746 Q2989.75 26.1121 2999.95 26.1121 Q3009.11 26.1121 3014.42 32.0264 Q3019.76 37.9003 3019.76 48.0275 M3012.31 45.84 Q3012.23 39.7232 3008.87 36.0774 Q3005.54 32.4315 3000.04 32.4315 Q2993.8 32.4315 2990.03 35.9558 Q2986.3 39.4801 2985.74 45.8805 L3012.31 45.84 Z" fill="#000000" fill-rule="nonzero" fill-opacity="1" /><path clip-path="url(#clip080)" d="M3031.71 27.2059 L3039.21 27.2059 L3039.21 45.7185 L3063.39 45.7185 L3063.39 27.2059 L3070.89 27.2059 L3070.89 72.576 L3063.39 72.576 L3063.39 51.6733 L3039.21 51.6733 L3039.21 72.576 L3031.71 72.576 L3031.71 27.2059 Z" fill="#000000" fill-rule="nonzero" fill-opacity="1" /><path clip-path="url(#clip080)" d="M3125.13 72.576 L3085.96 72.576 L3085.96 27.2059 L3093.45 27.2059 L3093.45 66.6212 L3117.63 66.6212 L3117.63 27.2059 L3125.13 27.2059 L3125.13 66.6212 L3131.08 66.6212 L3131.08 84.0401 L3125.13 84.0401 L3125.13 72.576 Z" fill="#000000" fill-rule="nonzero" fill-opacity="1" /><path clip-path="url(#clip080)" d="M3181.27 27.2059 L3181.27 72.576 L3173.86 72.576 L3173.86 36.1584 L3151.98 72.576 L3142.42 72.576 L3142.42 27.2059 L3149.84 27.2059 L3149.84 63.5425 L3171.67 27.2059 L3181.27 27.2059 Z" fill="#000000" fill-rule="nonzero" fill-opacity="1" /><path clip-path="url(#clip080)" d="M3217.24 49.7694 Q3208.21 49.7694 3204.73 51.8354 Q3201.24 53.9013 3201.24 58.8839 Q3201.24 62.8538 3203.84 65.2034 Q3206.47 67.5124 3210.97 67.5124 Q3217.16 67.5124 3220.89 63.1374 Q3224.66 58.7219 3224.66 51.4303 L3224.66 49.7694 L3217.24 49.7694 M3232.11 46.6907 L3232.11 72.576 L3224.66 72.576 L3224.66 65.6895 Q3222.11 69.8214 3218.3 71.8063 Q3214.49 73.7508 3208.98 73.7508 Q3202.01 73.7508 3197.88 69.8619 Q3193.79 65.9325 3193.79 59.3701 Q3193.79 51.7138 3198.89 47.825 Q3204.04 43.9361 3214.21 43.9361 L3224.66 43.9361 L3224.66 43.2069 Q3224.66 38.0623 3221.26 35.2672 Q3217.89 32.4315 3211.78 32.4315 Q3207.89 32.4315 3204.2 33.3632 Q3200.51 34.295 3197.11 36.1584 L3197.11 29.2718 Q3201.2 27.692 3205.05 26.9223 Q3208.9 26.1121 3212.55 26.1121 Q3222.39 26.1121 3227.25 31.2163 Q3232.11 36.3204 3232.11 46.6907 Z" fill="#000000" fill-rule="nonzero" fill-opacity="1" /><path clip-path="url(#clip080)" d="M3242.73 72.576 L3242.73 66.3781 Q3250.1 65.2439 3252.37 60.1397 Q3255.12 52.9696 3255.12 34.619 L3255.12 27.2059 L3285.79 27.2059 L3285.79 72.576 L3278.33 72.576 L3278.33 33.1607 L3262.57 33.1607 L3262.57 37.6572 Q3262.57 55.1571 3259.01 63.0159 Q3255.2 71.4012 3242.73 72.576 Z" fill="#000000" fill-rule="nonzero" fill-opacity="1" /><path clip-path="url(#clip080)" d="M3328.73 59.127 Q3328.73 55.4812 3326.05 53.5773 Q3323.42 51.6733 3318.31 51.6733 L3307.7 51.6733 L3307.7 66.6212 L3318.31 66.6212 Q3323.42 66.6212 3326.05 64.7172 Q3328.73 62.7728 3328.73 59.127 M3300.21 27.2059 L3307.7 27.2059 L3307.7 45.7185 L3318.64 45.7185 Q3327.31 45.7185 3331.97 49.0402 Q3336.67 52.3215 3336.67 59.127 Q3336.67 65.9325 3331.97 69.2543 Q3327.31 72.576 3318.64 72.576 L3300.21 72.576 L3300.21 27.2059 Z" fill="#000000" fill-rule="nonzero" fill-opacity="1" /><path clip-path="url(#clip080)" d="M3349.1 27.2059 L3356.6 27.2059 L3356.6 45.7185 L3380.78 45.7185 L3380.78 27.2059 L3388.27 27.2059 L3388.27 72.576 L3380.78 72.576 L3380.78 51.6733 L3356.6 51.6733 L3356.6 72.576 L3349.1 72.576 L3349.1 27.2059 Z" fill="#000000" fill-rule="nonzero" fill-opacity="1" /><path clip-path="url(#clip080)" d="M3446.49 27.2059 L3453.94 27.2059 L3453.94 72.576 L3446.49 72.576 L3446.49 27.2059 M3450.21 26.1121 L3450.21 26.1121 M3431.86 59.127 Q3431.86 55.4812 3429.19 53.5773 Q3426.56 51.6733 3421.45 51.6733 L3410.84 51.6733 L3410.84 66.6212 L3421.45 66.6212 Q3426.56 66.6212 3429.19 64.7172 Q3431.86 62.7728 3431.86 59.127 M3403.34 27.2059 L3410.84 27.2059 L3410.84 45.7185 L3421.77 45.7185 Q3430.44 45.7185 3435.1 49.0402 Q3439.8 52.3215 3439.8 59.127 Q3439.8 65.9325 3435.1 69.2543 Q3430.44 72.576 3421.77 72.576 L3403.34 72.576 L3403.34 27.2059 Z" fill="#000000" fill-rule="nonzero" fill-opacity="1" /><path clip-path="url(#clip080)" d="M3507.69 27.2059 L3507.69 72.576 L3500.28 72.576 L3500.28 36.1584 L3478.41 72.576 L3468.85 72.576 L3468.85 27.2059 L3476.26 27.2059 L3476.26 63.5425 L3498.09 27.2059 L3507.69 27.2059 M3475.61 9.54393 L3480.39 9.54393 Q3480.84 12.5821 3482.78 14.1215 Q3484.77 15.6203 3488.29 15.6203 Q3491.77 15.6203 3493.72 14.1215 Q3495.66 12.6226 3496.19 9.54393 L3500.97 9.54393 Q3500.57 15.3367 3497.36 18.2534 Q3494.16 21.17 3488.29 21.17 Q3482.42 21.17 3479.22 18.2534 Q3476.02 15.3367 3475.61 9.54393 Z" fill="#000000" fill-rule="nonzero" fill-opacity="1" /><path clip-path="url(#clip080)" d="M3556.63 65.7705 L3556.63 89.8329 L3549.14 89.8329 L3549.14 27.2059 L3556.63 27.2059 L3556.63 34.0924 Q3558.98 30.0415 3562.54 28.0971 Q3566.15 26.1121 3571.13 26.1121 Q3579.4 26.1121 3584.54 32.6746 Q3589.73 39.2371 3589.73 49.9314 Q3589.73 60.6258 3584.54 67.1883 Q3579.4 73.7508 3571.13 73.7508 Q3566.15 73.7508 3562.54 71.8063 Q3558.98 69.8214 3556.63 65.7705 M3581.99 49.9314 Q3581.99 41.7081 3578.59 37.0496 Q3575.22 32.3505 3569.31 32.3505 Q3563.39 32.3505 3559.99 37.0496 Q3556.63 41.7081 3556.63 49.9314 Q3556.63 58.1548 3559.99 62.8538 Q3563.39 67.5124 3569.31 67.5124 Q3575.22 67.5124 3578.59 62.8538 Q3581.99 58.1548 3581.99 49.9314 Z" fill="#000000" fill-rule="nonzero" fill-opacity="1" /><path clip-path="url(#clip080)" d="M3619.66 32.4315 Q3613.67 32.4315 3610.18 37.1306 Q3606.7 41.7891 3606.7 49.9314 Q3606.7 58.0738 3610.14 62.7728 Q3613.63 67.4314 3619.66 67.4314 Q3625.62 67.4314 3629.1 62.7323 Q3632.58 58.0333 3632.58 49.9314 Q3632.58 41.8701 3629.1 37.1711 Q3625.62 32.4315 3619.66 32.4315 M3619.66 26.1121 Q3629.38 26.1121 3634.93 32.4315 Q3640.48 38.7509 3640.48 49.9314 Q3640.48 61.0714 3634.93 67.4314 Q3629.38 73.7508 3619.66 73.7508 Q3609.9 73.7508 3604.35 67.4314 Q3598.84 61.0714 3598.84 49.9314 Q3598.84 38.7509 3604.35 32.4315 Q3609.9 26.1121 3619.66 26.1121 Z" fill="#000000" fill-rule="nonzero" fill-opacity="1" /><path clip-path="url(#clip080)" d="M3685.49 28.9478 L3685.49 35.9153 Q3682.33 34.1734 3679.13 33.3227 Q3675.97 32.4315 3672.73 32.4315 Q3665.48 32.4315 3661.47 37.0496 Q3657.46 41.6271 3657.46 49.9314 Q3657.46 58.2358 3661.47 62.8538 Q3665.48 67.4314 3672.73 67.4314 Q3675.97 67.4314 3679.13 66.5807 Q3682.33 65.6895 3685.49 63.9476 L3685.49 70.8341 Q3682.37 72.2924 3679.01 73.0216 Q3675.69 73.7508 3671.92 73.7508 Q3661.67 73.7508 3655.63 67.3098 Q3649.6 60.8689 3649.6 49.9314 Q3649.6 38.832 3655.67 32.472 Q3661.79 26.1121 3672.4 26.1121 Q3675.85 26.1121 3679.13 26.8413 Q3682.41 27.5299 3685.49 28.9478 Z" fill="#000000" fill-rule="nonzero" fill-opacity="1" /><path clip-path="url(#clip080)" d="M3693.06 27.2059 L3736.53 27.2059 L3736.53 33.1607 L3718.46 33.1607 L3718.46 72.576 L3711.13 72.576 L3711.13 33.1607 L3693.06 33.1607 L3693.06 27.2059 Z" fill="#000000" fill-rule="nonzero" fill-opacity="1" /><path clip-path="url(#clip080)" d="M3791.06 9.62495 Q3785.63 18.942 3782.99 28.0566 Q3780.36 37.1711 3780.36 46.5287 Q3780.36 55.8863 3782.99 65.0818 Q3785.67 74.2369 3791.06 83.5134 L3784.57 83.5134 Q3778.5 73.9938 3775.46 64.7983 Q3772.46 55.6027 3772.46 46.5287 Q3772.46 37.4952 3775.46 28.3401 Q3778.46 19.1851 3784.57 9.62495 L3791.06 9.62495 Z" fill="#000000" fill-rule="nonzero" fill-opacity="1" /><path clip-path="url(#clip080)" d="M3831.97 51.4708 L3830.19 42.1132 Q3828.36 32.5126 3821.15 32.5126 Q3815.73 32.5126 3813.25 36.9686 Q3810.14 42.5588 3810.14 49.9314 Q3810.14 58.8434 3813.17 63.0969 Q3816.25 67.4314 3821.15 67.4314 Q3826.58 67.4314 3829.5 58.8029 L3831.97 51.4708 M3836.14 39.075 L3840.15 27.2059 L3846.8 27.2059 L3838.49 51.7949 L3840.11 60.6663 Q3840.48 62.6513 3841.89 64.3122 Q3843.56 66.2566 3844.85 66.2566 L3848.42 66.2566 L3848.42 72.576 L3843.96 72.576 Q3840.15 72.576 3836.75 69.1732 Q3835.09 67.4719 3834.4 63.9071 Q3832.54 68.4036 3828.73 71.9279 Q3826.95 73.5887 3821.15 73.5887 Q3811.63 73.5887 3807.02 67.4314 Q3802.28 61.0714 3802.28 49.9314 Q3802.28 38.0218 3807.42 32.4315 Q3813.13 26.1931 3821.15 26.1931 Q3833.75 26.1931 3836.14 39.075 Z" fill="#000000" fill-rule="nonzero" fill-opacity="1" /><path clip-path="url(#clip080)" d="M3887.55 34.9026 L3939.48 34.9026 L3939.48 41.7081 L3887.55 41.7081 L3887.55 34.9026 M3887.55 51.4303 L3939.48 51.4303 L3939.48 58.3168 L3887.55 58.3168 L3887.55 51.4303 Z" fill="#000000" fill-rule="nonzero" fill-opacity="1" /><path clip-path="url(#clip080)" d="M4001.01 17.4837 Q3994.69 17.4837 3991.49 23.7221 Q3988.33 29.92 3988.33 42.3968 Q3988.33 54.833 3991.49 61.0714 Q3994.69 67.2693 4001.01 67.2693 Q4007.37 67.2693 4010.53 61.0714 Q4013.73 54.833 4013.73 42.3968 Q4013.73 29.92 4010.53 23.7221 Q4007.37 17.4837 4001.01 17.4837 M4001.01 11.0023 Q4011.18 11.0023 4016.53 19.0636 Q4021.92 27.0843 4021.92 42.3968 Q4021.92 57.6687 4016.53 65.73 Q4011.18 73.7508 4001.01 73.7508 Q3990.85 73.7508 3985.46 65.73 Q3980.11 57.6687 3980.11 42.3968 Q3980.11 27.0843 3985.46 19.0636 Q3990.85 11.0023 4001.01 11.0023 Z" fill="#000000" fill-rule="nonzero" fill-opacity="1" /><path clip-path="url(#clip080)" d="M4036.3 62.2867 L4044.84 62.2867 L4044.84 72.576 L4036.3 72.576 L4036.3 62.2867 Z" fill="#000000" fill-rule="nonzero" fill-opacity="1" /><path clip-path="url(#clip080)" d="M4087.46 39.9662 Q4093.33 41.222 4096.62 45.1919 Q4099.94 49.1618 4099.94 54.9951 Q4099.94 63.9476 4093.78 68.8492 Q4087.62 73.7508 4076.28 73.7508 Q4072.47 73.7508 4068.42 72.9811 Q4064.41 72.2519 4060.12 70.7531 L4060.12 62.8538 Q4063.52 64.8388 4067.57 65.8515 Q4071.62 66.8642 4076.04 66.8642 Q4083.73 66.8642 4087.74 63.826 Q4091.79 60.7879 4091.79 54.9951 Q4091.79 49.6479 4088.03 46.6502 Q4084.3 43.612 4077.62 43.612 L4070.57 43.612 L4070.57 36.8875 L4077.94 36.8875 Q4083.98 36.8875 4087.18 34.4975 Q4090.38 32.067 4090.38 27.5299 Q4090.38 22.8714 4087.05 20.4004 Q4083.77 17.8888 4077.62 17.8888 Q4074.25 17.8888 4070.41 18.618 Q4066.56 19.3471 4061.94 20.8865 L4061.94 13.5948 Q4066.6 12.2985 4070.65 11.6504 Q4074.74 11.0023 4078.35 11.0023 Q4087.66 11.0023 4093.09 15.2557 Q4098.52 19.4686 4098.52 26.6793 Q4098.52 31.7024 4095.64 35.1862 Q4092.77 38.6294 4087.46 39.9662 Z" fill="#000000" fill-rule="nonzero" fill-opacity="1" /><path clip-path="url(#clip080)" d="M4113.22 9.62495 L4119.71 9.62495 Q4125.78 19.1851 4128.78 28.3401 Q4131.82 37.4952 4131.82 46.5287 Q4131.82 55.6027 4128.78 64.7983 Q4125.78 73.9938 4119.71 83.5134 L4113.22 83.5134 Q4118.61 74.2369 4121.24 65.0818 Q4123.92 55.8863 4123.92 46.5287 Q4123.92 37.1711 4121.24 28.0566 Q4118.61 18.942 4113.22 9.62495 Z" fill="#000000" fill-rule="nonzero" fill-opacity="1" /><polyline clip-path="url(#clip082)" style="stroke:#009af9; stroke-linecap:round; stroke-linejoin:round; stroke-width:8; stroke-opacity:1; fill:none" points="243.804,3891.09 306.893,3885.25 369.983,3879.23 433.072,3873.03 496.162,3866.64 559.251,3860.05 622.341,3853.27 685.43,3846.28 748.52,3839.07 811.609,3831.64 874.699,3823.99 937.788,3816.11 1000.88,3807.98 1063.97,3799.61 1127.06,3790.98 1190.15,3782.09 1253.24,3772.93 1316.33,3763.49 1379.41,3753.77 1442.5,3743.74 1505.59,3733.41 1568.68,3722.77 1631.77,3711.8 1694.86,3700.5 1757.95,3688.86 1821.04,3676.86 1884.13,3664.49 1947.22,3651.75 2010.31,3638.62 2073.4,3625.09 2136.49,3611.14 2199.58,3596.78 2262.67,3581.97 2325.76,3566.72 2388.85,3551 2451.94,3534.8 2515.03,3518.11 2578.12,3500.91 2641.21,3483.18 2704.29,3464.92 2767.38,3446.1 2830.47,3426.71 2893.56,3406.72 2956.65,3386.13 3019.74,3364.91 3082.83,3343.05 3145.92,3320.51 3209.01,3297.29 3272.1,3273.37 3335.19,3248.72 3398.28,3223.31 3461.37,3197.14 3524.46,3170.16 3587.55,3142.37 3650.64,3113.72 3713.73,3084.21 3776.82,3053.79 3839.91,3022.45 3903,2990.16 3966.09,2956.88 4029.17,2922.58 4092.26,2887.25 4155.35,2850.83 4218.44,2813.31 4281.53,2774.64 4344.62,2734.8 4407.71,2693.75 4470.8,2651.44 4533.89,2607.85 4596.98,2562.93 4660.07,2516.64 4723.16,2468.95 4786.25,2419.8 4849.34,2369.15 4912.43,2316.96 4975.52,2263.18 5038.61,2207.76 5101.7,2150.65 5164.79,2091.81 5227.88,2031.16 5290.97,1968.68 5354.05,1904.29 5417.14,1837.94 5480.23,1769.57 5543.32,1699.11 5606.41,1626.52 5669.5,1551.71 5732.59,1474.63 5795.68,1395.2 5858.77,1313.35 5921.86,1229.01 5984.95,1142.1 6048.04,1052.54 6111.13,960.255 6174.22,865.157 6237.31,767.161 6300.4,666.178 6363.49,562.119 6426.58,454.89 6489.67,344.396 6552.76,230.54 "/>
<path clip-path="url(#clip080)" d="M454.102 353.743 L1162.52 353.743 L1162.52 250.063 L454.102 250.063  Z" fill="#ffffff" fill-rule="evenodd" fill-opacity="1"/>
<polyline clip-path="url(#clip080)" style="stroke:#000000; stroke-linecap:round; stroke-linejoin:round; stroke-width:4; stroke-opacity:1; fill:none" points="454.102,353.743 1162.52,353.743 1162.52,250.063 454.102,250.063 454.102,353.743 "/>
<polyline clip-path="url(#clip080)" style="stroke:#009af9; stroke-linecap:round; stroke-linejoin:round; stroke-width:8; stroke-opacity:1; fill:none" points="524.201,301.903 944.798,301.903 "/>
<path clip-path="url(#clip080)" d="M1014.9 308.951 L1014.9 293.257 L1019.16 293.257 L1019.16 308.789 Q1019.16 312.47 1020.59 314.322 Q1022.03 316.15 1024.9 316.15 Q1028.35 316.15 1030.34 313.951 Q1032.35 311.752 1032.35 307.956 L1032.35 293.257 L1036.61 293.257 L1036.61 319.183 L1032.35 319.183 L1032.35 315.201 Q1030.8 317.562 1028.74 318.72 Q1026.7 319.854 1023.99 319.854 Q1019.53 319.854 1017.21 317.076 Q1014.9 314.298 1014.9 308.951 M1025.62 292.632 L1025.62 292.632 Z" fill="#000000" fill-rule="nonzero" fill-opacity="1" /><path clip-path="url(#clip080)" d="M1055.62 283.211 Q1052.51 288.535 1051.01 293.743 Q1049.5 298.951 1049.5 304.298 Q1049.5 309.646 1051.01 314.9 Q1052.54 320.132 1055.62 325.433 L1051.91 325.433 Q1048.44 319.993 1046.7 314.738 Q1044.99 309.484 1044.99 304.298 Q1044.99 299.136 1046.7 293.905 Q1048.42 288.674 1051.91 283.211 L1055.62 283.211 Z" fill="#000000" fill-rule="nonzero" fill-opacity="1" /><path clip-path="url(#clip080)" d="M1068.09 285.896 L1068.09 293.257 L1076.87 293.257 L1076.87 296.567 L1068.09 296.567 L1068.09 310.641 Q1068.09 313.812 1068.95 314.715 Q1069.83 315.618 1072.49 315.618 L1076.87 315.618 L1076.87 319.183 L1072.49 319.183 Q1067.56 319.183 1065.68 317.354 Q1063.81 315.502 1063.81 310.641 L1063.81 296.567 L1060.68 296.567 L1060.68 293.257 L1063.81 293.257 L1063.81 285.896 L1068.09 285.896 Z" fill="#000000" fill-rule="nonzero" fill-opacity="1" /><path clip-path="url(#clip080)" d="M1081.8 283.211 L1085.5 283.211 Q1088.97 288.674 1090.68 293.905 Q1092.42 299.136 1092.42 304.298 Q1092.42 309.484 1090.68 314.738 Q1088.97 319.993 1085.5 325.433 L1081.8 325.433 Q1084.87 320.132 1086.38 314.9 Q1087.91 309.646 1087.91 304.298 Q1087.91 298.951 1086.38 293.743 Q1084.87 288.535 1081.8 283.211 Z" fill="#000000" fill-rule="nonzero" fill-opacity="1" /></svg>
