<?xml version="1.0" encoding="utf-8"?>
<svg xmlns="http://www.w3.org/2000/svg" xmlns:xlink="http://www.w3.org/1999/xlink" width="1650" height="1050" viewBox="0 0 6600 4200">
<defs>
  <clipPath id="clip500">
    <rect x="0" y="0" width="6600" height="4200"/>
  </clipPath>
</defs>
<path clip-path="url(#clip500)" d="M0 4200 L6600 4200 L6600 0 L0 0  Z" fill="#ffffff" fill-rule="evenodd" fill-opacity="1"/>
<defs>
  <clipPath id="clip501">
    <rect x="215" y="120" width="6338" height="3881"/>
  </clipPath>
</defs>
<path clip-path="url(#clip500)" d="M215.285 4000.91 L6552.76 4000.91 L6552.76 120.723 L215.285 120.723  Z" fill="#ffffff" fill-rule="evenodd" fill-opacity="1"/>
<polyline clip-path="url(#clip501)" style="stroke:#000000; stroke-linecap:round; stroke-linejoin:round; stroke-width:2; stroke-opacity:0.1; fill:none" points="1058.95,4000.91 1058.95,120.723 "/>
<polyline clip-path="url(#clip501)" style="stroke:#000000; stroke-linecap:round; stroke-linejoin:round; stroke-width:2; stroke-opacity:0.1; fill:none" points="2387.56,4000.91 2387.56,120.723 "/>
<polyline clip-path="url(#clip501)" style="stroke:#000000; stroke-linecap:round; stroke-linejoin:round; stroke-width:2; stroke-opacity:0.1; fill:none" points="3716.17,4000.91 3716.17,120.723 "/>
<polyline clip-path="url(#clip501)" style="stroke:#000000; stroke-linecap:round; stroke-linejoin:round; stroke-width:2; stroke-opacity:0.1; fill:none" points="5044.78,4000.91 5044.78,120.723 "/>
<polyline clip-path="url(#clip501)" style="stroke:#000000; stroke-linecap:round; stroke-linejoin:round; stroke-width:2; stroke-opacity:0.1; fill:none" points="6373.39,4000.91 6373.39,120.723 "/>
<polyline clip-path="url(#clip501)" style="stroke:#000000; stroke-linecap:round; stroke-linejoin:round; stroke-width:2; stroke-opacity:0.1; fill:none" points="215.285,3711.04 6552.76,3711.04 "/>
<polyline clip-path="url(#clip501)" style="stroke:#000000; stroke-linecap:round; stroke-linejoin:round; stroke-width:2; stroke-opacity:0.1; fill:none" points="215.285,3124.25 6552.76,3124.25 "/>
<polyline clip-path="url(#clip501)" style="stroke:#000000; stroke-linecap:round; stroke-linejoin:round; stroke-width:2; stroke-opacity:0.1; fill:none" points="215.285,2537.47 6552.76,2537.47 "/>
<polyline clip-path="url(#clip501)" style="stroke:#000000; stroke-linecap:round; stroke-linejoin:round; stroke-width:2; stroke-opacity:0.1; fill:none" points="215.285,1950.68 6552.76,1950.68 "/>
<polyline clip-path="url(#clip501)" style="stroke:#000000; stroke-linecap:round; stroke-linejoin:round; stroke-width:2; stroke-opacity:0.1; fill:none" points="215.285,1363.9 6552.76,1363.9 "/>
<polyline clip-path="url(#clip501)" style="stroke:#000000; stroke-linecap:round; stroke-linejoin:round; stroke-width:2; stroke-opacity:0.1; fill:none" points="215.285,777.113 6552.76,777.113 "/>
<polyline clip-path="url(#clip501)" style="stroke:#000000; stroke-linecap:round; stroke-linejoin:round; stroke-width:2; stroke-opacity:0.1; fill:none" points="215.285,190.328 6552.76,190.328 "/>
<polyline clip-path="url(#clip500)" style="stroke:#000000; stroke-linecap:round; stroke-linejoin:round; stroke-width:4; stroke-opacity:1; fill:none" points="215.285,4000.91 6552.76,4000.91 "/>
<polyline clip-path="url(#clip500)" style="stroke:#000000; stroke-linecap:round; stroke-linejoin:round; stroke-width:4; stroke-opacity:1; fill:none" points="1058.95,4000.91 1058.95,3982.01 "/>
<polyline clip-path="url(#clip500)" style="stroke:#000000; stroke-linecap:round; stroke-linejoin:round; stroke-width:4; stroke-opacity:1; fill:none" points="2387.56,4000.91 2387.56,3982.01 "/>
<polyline clip-path="url(#clip500)" style="stroke:#000000; stroke-linecap:round; stroke-linejoin:round; stroke-width:4; stroke-opacity:1; fill:none" points="3716.17,4000.91 3716.17,3982.01 "/>
<polyline clip-path="url(#clip500)" style="stroke:#000000; stroke-linecap:round; stroke-linejoin:round; stroke-width:4; stroke-opacity:1; fill:none" points="5044.78,4000.91 5044.78,3982.01 "/>
<polyline clip-path="url(#clip500)" style="stroke:#000000; stroke-linecap:round; stroke-linejoin:round; stroke-width:4; stroke-opacity:1; fill:none" points="6373.39,4000.91 6373.39,3982.01 "/>
<path clip-path="url(#clip500)" d="M1037.14 4065.43 Q1033.52 4065.43 1031.7 4068.99 Q1029.89 4072.54 1029.89 4079.67 Q1029.89 4086.77 1031.7 4090.34 Q1033.52 4093.88 1037.14 4093.88 Q1040.77 4093.88 1042.58 4090.34 Q1044.4 4086.77 1044.4 4079.67 Q1044.4 4072.54 1042.58 4068.99 Q1040.77 4065.43 1037.14 4065.43 M1037.14 4061.73 Q1042.95 4061.73 1046 4066.33 Q1049.08 4070.92 1049.08 4079.67 Q1049.08 4088.39 1046 4093 Q1042.95 4097.58 1037.14 4097.58 Q1031.33 4097.58 1028.25 4093 Q1025.19 4088.39 1025.19 4079.67 Q1025.19 4070.92 1028.25 4066.33 Q1031.33 4061.73 1037.14 4061.73 Z" fill="#000000" fill-rule="nonzero" fill-opacity="1" /><path clip-path="url(#clip500)" d="M1057.3 4091.03 L1062.18 4091.03 L1062.18 4096.91 L1057.3 4096.91 L1057.3 4091.03 Z" fill="#000000" fill-rule="nonzero" fill-opacity="1" /><path clip-path="url(#clip500)" d="M1076.39 4092.98 L1092.71 4092.98 L1092.71 4096.91 L1070.77 4096.91 L1070.77 4092.98 Q1073.43 4090.22 1078.02 4085.59 Q1082.62 4080.94 1083.8 4079.6 Q1086.05 4077.07 1086.93 4075.34 Q1087.83 4073.58 1087.83 4071.89 Q1087.83 4069.13 1085.89 4067.4 Q1083.96 4065.66 1080.86 4065.66 Q1078.66 4065.66 1076.21 4066.42 Q1073.78 4067.19 1071 4068.74 L1071 4064.02 Q1073.83 4062.88 1076.28 4062.3 Q1078.73 4061.73 1080.77 4061.73 Q1086.14 4061.73 1089.33 4064.41 Q1092.53 4067.1 1092.53 4071.59 Q1092.53 4073.72 1091.72 4075.64 Q1090.93 4077.54 1088.83 4080.13 Q1088.25 4080.8 1085.14 4084.02 Q1082.04 4087.21 1076.39 4092.98 Z" fill="#000000" fill-rule="nonzero" fill-opacity="1" /><path clip-path="url(#clip500)" d="M2364.7 4065.43 Q2361.09 4065.43 2359.26 4068.99 Q2357.46 4072.54 2357.46 4079.67 Q2357.46 4086.77 2359.26 4090.34 Q2361.09 4093.88 2364.7 4093.88 Q2368.34 4093.88 2370.14 4090.34 Q2371.97 4086.77 2371.97 4079.67 Q2371.97 4072.54 2370.14 4068.99 Q2368.34 4065.43 2364.7 4065.43 M2364.7 4061.73 Q2370.51 4061.73 2373.57 4066.33 Q2376.65 4070.92 2376.65 4079.67 Q2376.65 4088.39 2373.57 4093 Q2370.51 4097.58 2364.7 4097.58 Q2358.89 4097.58 2355.82 4093 Q2352.76 4088.39 2352.76 4079.67 Q2352.76 4070.92 2355.82 4066.33 Q2358.89 4061.73 2364.7 4061.73 Z" fill="#000000" fill-rule="nonzero" fill-opacity="1" /><path clip-path="url(#clip500)" d="M2384.87 4091.03 L2389.75 4091.03 L2389.75 4096.91 L2384.87 4096.91 L2384.87 4091.03 Z" fill="#000000" fill-rule="nonzero" fill-opacity="1" /><path clip-path="url(#clip500)" d="M2412.78 4066.42 L2400.98 4084.87 L2412.78 4084.87 L2412.78 4066.42 M2411.56 4062.35 L2417.44 4062.35 L2417.44 4084.87 L2422.37 4084.87 L2422.37 4088.76 L2417.44 4088.76 L2417.44 4096.91 L2412.78 4096.91 L2412.78 4088.76 L2397.18 4088.76 L2397.18 4084.25 L2411.56 4062.35 Z" fill="#000000" fill-rule="nonzero" fill-opacity="1" /><path clip-path="url(#clip500)" d="M3693.48 4065.43 Q3689.87 4065.43 3688.04 4068.99 Q3686.23 4072.54 3686.23 4079.67 Q3686.23 4086.77 3688.04 4090.34 Q3689.87 4093.88 3693.48 4093.88 Q3697.11 4093.88 3698.92 4090.34 Q3700.74 4086.77 3700.74 4079.67 Q3700.74 4072.54 3698.92 4068.99 Q3697.11 4065.43 3693.48 4065.43 M3693.48 4061.73 Q3699.29 4061.73 3702.34 4066.33 Q3705.42 4070.92 3705.42 4079.67 Q3705.42 4088.39 3702.34 4093 Q3699.29 4097.58 3693.48 4097.58 Q3687.67 4097.58 3684.59 4093 Q3681.53 4088.39 3681.53 4079.67 Q3681.53 4070.92 3684.59 4066.33 Q3687.67 4061.73 3693.48 4061.73 Z" fill="#000000" fill-rule="nonzero" fill-opacity="1" /><path clip-path="url(#clip500)" d="M3713.64 4091.03 L3718.52 4091.03 L3718.52 4096.91 L3713.64 4096.91 L3713.64 4091.03 Z" fill="#000000" fill-rule="nonzero" fill-opacity="1" /><path clip-path="url(#clip500)" d="M3739.29 4077.77 Q3736.14 4077.77 3734.29 4079.92 Q3732.46 4082.07 3732.46 4085.82 Q3732.46 4089.55 3734.29 4091.73 Q3736.14 4093.88 3739.29 4093.88 Q3742.43 4093.88 3744.26 4091.73 Q3746.12 4089.55 3746.12 4085.82 Q3746.12 4082.07 3744.26 4079.92 Q3742.43 4077.77 3739.29 4077.77 M3748.57 4063.11 L3748.57 4067.37 Q3746.81 4066.54 3745 4066.1 Q3743.22 4065.66 3741.46 4065.66 Q3736.83 4065.66 3734.38 4068.79 Q3731.95 4071.91 3731.6 4078.23 Q3732.97 4076.22 3735.03 4075.15 Q3737.09 4074.06 3739.56 4074.06 Q3744.77 4074.06 3747.78 4077.23 Q3750.81 4080.38 3750.81 4085.82 Q3750.81 4091.15 3747.67 4094.36 Q3744.52 4097.58 3739.29 4097.58 Q3733.29 4097.58 3730.12 4093 Q3726.95 4088.39 3726.95 4079.67 Q3726.95 4071.47 3730.84 4066.61 Q3734.73 4061.73 3741.28 4061.73 Q3743.04 4061.73 3744.82 4062.07 Q3746.62 4062.42 3748.57 4063.11 Z" fill="#000000" fill-rule="nonzero" fill-opacity="1" /><path clip-path="url(#clip500)" d="M5022.21 4065.43 Q5018.6 4065.43 5016.77 4068.99 Q5014.97 4072.54 5014.97 4079.67 Q5014.97 4086.77 5016.77 4090.34 Q5018.6 4093.88 5022.21 4093.88 Q5025.85 4093.88 5027.65 4090.34 Q5029.48 4086.77 5029.48 4079.67 Q5029.48 4072.54 5027.65 4068.99 Q5025.85 4065.43 5022.21 4065.43 M5022.21 4061.73 Q5028.02 4061.73 5031.08 4066.33 Q5034.16 4070.92 5034.16 4079.67 Q5034.16 4088.39 5031.08 4093 Q5028.02 4097.58 5022.21 4097.58 Q5016.4 4097.58 5013.33 4093 Q5010.27 4088.39 5010.27 4079.67 Q5010.27 4070.92 5013.33 4066.33 Q5016.4 4061.73 5022.21 4061.73 Z" fill="#000000" fill-rule="nonzero" fill-opacity="1" /><path clip-path="url(#clip500)" d="M5042.38 4091.03 L5047.26 4091.03 L5047.26 4096.91 L5042.38 4096.91 L5042.38 4091.03 Z" fill="#000000" fill-rule="nonzero" fill-opacity="1" /><path clip-path="url(#clip500)" d="M5067.45 4080.5 Q5064.11 4080.5 5062.19 4082.28 Q5060.29 4084.06 5060.29 4087.19 Q5060.29 4090.31 5062.19 4092.1 Q5064.11 4093.88 5067.45 4093.88 Q5070.78 4093.88 5072.7 4092.1 Q5074.62 4090.29 5074.62 4087.19 Q5074.62 4084.06 5072.7 4082.28 Q5070.8 4080.5 5067.45 4080.5 M5062.77 4078.51 Q5059.76 4077.77 5058.07 4075.71 Q5056.4 4073.65 5056.4 4070.68 Q5056.4 4066.54 5059.34 4064.13 Q5062.31 4061.73 5067.45 4061.73 Q5072.61 4061.73 5075.55 4064.13 Q5078.49 4066.54 5078.49 4070.68 Q5078.49 4073.65 5076.8 4075.71 Q5075.13 4077.77 5072.14 4078.51 Q5075.52 4079.3 5077.4 4081.59 Q5079.3 4083.88 5079.3 4087.19 Q5079.3 4092.21 5076.22 4094.9 Q5073.16 4097.58 5067.45 4097.58 Q5061.73 4097.58 5058.65 4094.9 Q5055.59 4092.21 5055.59 4087.19 Q5055.59 4083.88 5057.49 4081.59 Q5059.39 4079.3 5062.77 4078.51 M5061.06 4071.12 Q5061.06 4073.81 5062.72 4075.31 Q5064.41 4076.82 5067.45 4076.82 Q5070.45 4076.82 5072.14 4075.31 Q5073.86 4073.81 5073.86 4071.12 Q5073.86 4068.44 5072.14 4066.93 Q5070.45 4065.43 5067.45 4065.43 Q5064.41 4065.43 5062.72 4066.93 Q5061.06 4068.44 5061.06 4071.12 Z" fill="#000000" fill-rule="nonzero" fill-opacity="1" /><path clip-path="url(#clip500)" d="M6340.55 4092.98 L6348.19 4092.98 L6348.19 4066.61 L6339.88 4068.28 L6339.88 4064.02 L6348.14 4062.35 L6352.81 4062.35 L6352.81 4092.98 L6360.45 4092.98 L6360.45 4096.91 L6340.55 4096.91 L6340.55 4092.98 Z" fill="#000000" fill-rule="nonzero" fill-opacity="1" /><path clip-path="url(#clip500)" d="M6369.9 4091.03 L6374.78 4091.03 L6374.78 4096.91 L6369.9 4096.91 L6369.9 4091.03 Z" fill="#000000" fill-rule="nonzero" fill-opacity="1" /><path clip-path="url(#clip500)" d="M6394.97 4065.43 Q6391.36 4065.43 6389.53 4068.99 Q6387.72 4072.54 6387.72 4079.67 Q6387.72 4086.77 6389.53 4090.34 Q6391.36 4093.88 6394.97 4093.88 Q6398.6 4093.88 6400.41 4090.34 Q6402.24 4086.77 6402.24 4079.67 Q6402.24 4072.54 6400.41 4068.99 Q6398.6 4065.43 6394.97 4065.43 M6394.97 4061.73 Q6400.78 4061.73 6403.83 4066.33 Q6406.91 4070.92 6406.91 4079.67 Q6406.91 4088.39 6403.83 4093 Q6400.78 4097.58 6394.97 4097.58 Q6389.16 4097.58 6386.08 4093 Q6383.02 4088.39 6383.02 4079.67 Q6383.02 4070.92 6386.08 4066.33 Q6389.16 4061.73 6394.97 4061.73 Z" fill="#000000" fill-rule="nonzero" fill-opacity="1" /><path clip-path="url(#clip500)" d="M3116.53 4164.92 L3116.53 4171.69 Q3113.29 4168.67 3109.59 4167.17 Q3105.93 4165.68 3101.8 4165.68 Q3093.65 4165.68 3089.32 4170.68 Q3084.99 4175.64 3084.99 4185.06 Q3084.99 4194.45 3089.32 4199.45 Q3093.65 4204.41 3101.8 4204.41 Q3105.93 4204.41 3109.59 4202.92 Q3113.29 4201.42 3116.53 4198.4 L3116.53 4205.11 Q3113.16 4207.41 3109.37 4208.55 Q3105.62 4209.7 3101.42 4209.7 Q3090.63 4209.7 3084.42 4203.11 Q3078.21 4196.49 3078.21 4185.06 Q3078.21 4173.6 3084.42 4167.02 Q3090.63 4160.4 3101.42 4160.4 Q3105.68 4160.4 3109.44 4161.54 Q3113.22 4162.66 3116.53 4164.92 Z" fill="#000000" fill-rule="nonzero" fill-opacity="1" /><path clip-path="url(#clip500)" d="M3125.99 4173.13 L3131.81 4173.13 L3131.81 4189.87 L3148.33 4173.13 L3155.52 4173.13 L3141.9 4186.91 L3157.27 4208.77 L3150.72 4208.77 L3138.08 4190.79 L3131.81 4197.16 L3131.81 4208.77 L3125.99 4208.77 L3125.99 4173.13 Z" fill="#000000" fill-rule="nonzero" fill-opacity="1" /><path clip-path="url(#clip500)" d="M3179.39 4177.23 Q3174.68 4177.23 3171.95 4180.92 Q3169.21 4184.59 3169.21 4190.98 Q3169.21 4197.38 3171.92 4201.07 Q3174.65 4204.73 3179.39 4204.73 Q3184.07 4204.73 3186.81 4201.04 Q3189.55 4197.35 3189.55 4190.98 Q3189.55 4184.65 3186.81 4180.96 Q3184.07 4177.23 3179.39 4177.23 M3179.39 4172.27 Q3187.03 4172.27 3191.39 4177.23 Q3195.75 4182.2 3195.75 4190.98 Q3195.75 4199.74 3191.39 4204.73 Q3187.03 4209.7 3179.39 4209.7 Q3171.72 4209.7 3167.36 4204.73 Q3163.04 4199.74 3163.04 4190.98 Q3163.04 4182.2 3167.36 4177.23 Q3171.72 4172.27 3179.39 4172.27 Z" fill="#000000" fill-rule="nonzero" fill-opacity="1" /><path clip-path="url(#clip500)" d="M3211.13 4203.43 L3211.13 4222.33 L3205.24 4222.33 L3205.24 4173.13 L3211.13 4173.13 L3211.13 4178.54 Q3212.97 4175.35 3215.77 4173.83 Q3218.61 4172.27 3222.52 4172.27 Q3229.02 4172.27 3233.06 4177.42 Q3237.13 4182.58 3237.13 4190.98 Q3237.13 4199.39 3233.06 4204.54 Q3229.02 4209.7 3222.52 4209.7 Q3218.61 4209.7 3215.77 4208.17 Q3212.97 4206.61 3211.13 4203.43 M3231.05 4190.98 Q3231.05 4184.52 3228.38 4180.86 Q3225.74 4177.17 3221.09 4177.17 Q3216.44 4177.17 3213.77 4180.86 Q3211.13 4184.52 3211.13 4190.98 Q3211.13 4197.44 3213.77 4201.14 Q3216.44 4204.8 3221.09 4204.8 Q3225.74 4204.8 3228.38 4201.14 Q3231.05 4197.44 3231.05 4190.98 Z" fill="#000000" fill-rule="nonzero" fill-opacity="1" /><path clip-path="url(#clip500)" d="M3260.65 4177.23 Q3255.94 4177.23 3253.21 4180.92 Q3250.47 4184.59 3250.47 4190.98 Q3250.47 4197.38 3253.17 4201.07 Q3255.91 4204.73 3260.65 4204.73 Q3265.33 4204.73 3268.07 4201.04 Q3270.81 4197.35 3270.81 4190.98 Q3270.81 4184.65 3268.07 4180.96 Q3265.33 4177.23 3260.65 4177.23 M3260.65 4172.27 Q3268.29 4172.27 3272.65 4177.23 Q3277.01 4182.2 3277.01 4190.98 Q3277.01 4199.74 3272.65 4204.73 Q3268.29 4209.7 3260.65 4209.7 Q3252.98 4209.7 3248.62 4204.73 Q3244.29 4199.74 3244.29 4190.98 Q3244.29 4182.2 3248.62 4177.23 Q3252.98 4172.27 3260.65 4172.27 Z" fill="#000000" fill-rule="nonzero" fill-opacity="1" /><path clip-path="url(#clip500)" d="M3312.37 4174.5 L3312.37 4179.97 Q3309.89 4178.6 3307.38 4177.93 Q3304.89 4177.23 3302.35 4177.23 Q3296.65 4177.23 3293.5 4180.86 Q3290.35 4184.46 3290.35 4190.98 Q3290.35 4197.51 3293.5 4201.14 Q3296.65 4204.73 3302.35 4204.73 Q3304.89 4204.73 3307.38 4204.06 Q3309.89 4203.36 3312.37 4202 L3312.37 4207.41 Q3309.92 4208.55 3307.28 4209.12 Q3304.67 4209.7 3301.71 4209.7 Q3293.66 4209.7 3288.92 4204.64 Q3284.17 4199.58 3284.17 4190.98 Q3284.17 4182.26 3288.95 4177.26 Q3293.75 4172.27 3302.09 4172.27 Q3304.8 4172.27 3307.38 4172.84 Q3309.96 4173.38 3312.37 4174.5 Z" fill="#000000" fill-rule="nonzero" fill-opacity="1" /><path clip-path="url(#clip500)" d="M3318.33 4173.13 L3352.48 4173.13 L3352.48 4177.81 L3338.28 4177.81 L3338.28 4208.77 L3332.52 4208.77 L3332.52 4177.81 L3318.33 4177.81 L3318.33 4173.13 Z" fill="#000000" fill-rule="nonzero" fill-opacity="1" /><path clip-path="url(#clip500)" d="M3382.72 4198.21 Q3382.72 4195.34 3380.61 4193.85 Q3378.55 4192.35 3374.54 4192.35 L3366.2 4192.35 L3366.2 4204.1 L3374.54 4204.1 Q3378.55 4204.1 3380.61 4202.6 Q3382.72 4201.07 3382.72 4198.21 M3360.31 4173.13 L3366.2 4173.13 L3366.2 4187.67 L3374.79 4187.67 Q3381.6 4187.67 3385.26 4190.28 Q3388.95 4192.86 3388.95 4198.21 Q3388.95 4203.55 3385.26 4206.16 Q3381.6 4208.77 3374.79 4208.77 L3360.31 4208.77 L3360.31 4173.13 Z" fill="#000000" fill-rule="nonzero" fill-opacity="1" /><path clip-path="url(#clip500)" d="M3425.33 4203.43 L3425.33 4222.33 L3419.45 4222.33 L3419.45 4173.13 L3425.33 4173.13 L3425.33 4178.54 Q3427.18 4175.35 3429.98 4173.83 Q3432.81 4172.27 3436.73 4172.27 Q3443.22 4172.27 3447.26 4177.42 Q3451.34 4182.58 3451.34 4190.98 Q3451.34 4199.39 3447.26 4204.54 Q3443.22 4209.7 3436.73 4209.7 Q3432.81 4209.7 3429.98 4208.17 Q3427.18 4206.61 3425.33 4203.43 M3445.26 4190.98 Q3445.26 4184.52 3442.59 4180.86 Q3439.94 4177.17 3435.3 4177.17 Q3430.65 4177.17 3427.98 4180.86 Q3425.33 4184.52 3425.33 4190.98 Q3425.33 4197.44 3427.98 4201.14 Q3430.65 4204.8 3435.3 4204.8 Q3439.94 4204.8 3442.59 4201.14 Q3445.26 4197.44 3445.26 4190.98 Z" fill="#000000" fill-rule="nonzero" fill-opacity="1" /><path clip-path="url(#clip500)" d="M3474.86 4177.23 Q3470.15 4177.23 3467.41 4180.92 Q3464.67 4184.59 3464.67 4190.98 Q3464.67 4197.38 3467.38 4201.07 Q3470.12 4204.73 3474.86 4204.73 Q3479.54 4204.73 3482.28 4201.04 Q3485.01 4197.35 3485.01 4190.98 Q3485.01 4184.65 3482.28 4180.96 Q3479.54 4177.23 3474.86 4177.23 M3474.86 4172.27 Q3482.5 4172.27 3486.86 4177.23 Q3491.22 4182.2 3491.22 4190.98 Q3491.22 4199.74 3486.86 4204.73 Q3482.5 4209.7 3474.86 4209.7 Q3467.19 4209.7 3462.83 4204.73 Q3458.5 4199.74 3458.5 4190.98 Q3458.5 4182.2 3462.83 4177.23 Q3467.19 4172.27 3474.86 4172.27 Z" fill="#000000" fill-rule="nonzero" fill-opacity="1" /><path clip-path="url(#clip500)" d="M3526.58 4174.5 L3526.58 4179.97 Q3524.1 4178.6 3521.58 4177.93 Q3519.1 4177.23 3516.55 4177.23 Q3510.86 4177.23 3507.71 4180.86 Q3504.56 4184.46 3504.56 4190.98 Q3504.56 4197.51 3507.71 4201.14 Q3510.86 4204.73 3516.55 4204.73 Q3519.1 4204.73 3521.58 4204.06 Q3524.1 4203.36 3526.58 4202 L3526.58 4207.41 Q3524.13 4208.55 3521.49 4209.12 Q3518.88 4209.7 3515.92 4209.7 Q3507.87 4209.7 3503.12 4204.64 Q3498.38 4199.58 3498.38 4190.98 Q3498.38 4182.26 3503.15 4177.26 Q3507.96 4172.27 3516.3 4172.27 Q3519.01 4172.27 3521.58 4172.84 Q3524.16 4173.38 3526.58 4174.5 Z" fill="#000000" fill-rule="nonzero" fill-opacity="1" /><path clip-path="url(#clip500)" d="M3532.53 4173.13 L3566.68 4173.13 L3566.68 4177.81 L3552.49 4177.81 L3552.49 4208.77 L3546.73 4208.77 L3546.73 4177.81 L3532.53 4177.81 L3532.53 4173.13 Z" fill="#000000" fill-rule="nonzero" fill-opacity="1" /><path clip-path="url(#clip500)" d="M3590.94 4190.86 Q3583.84 4190.86 3581.1 4192.48 Q3578.37 4194.1 3578.37 4198.02 Q3578.37 4201.14 3580.4 4202.98 Q3582.47 4204.8 3586 4204.8 Q3590.87 4204.8 3593.8 4201.36 Q3596.76 4197.89 3596.76 4192.16 L3596.76 4190.86 L3590.94 4190.86 M3602.62 4188.44 L3602.62 4208.77 L3596.76 4208.77 L3596.76 4203.36 Q3594.76 4206.61 3591.77 4208.17 Q3588.77 4209.7 3584.44 4209.7 Q3578.97 4209.7 3575.72 4206.64 Q3572.51 4203.55 3572.51 4198.4 Q3572.51 4192.38 3576.52 4189.33 Q3580.56 4186.27 3588.55 4186.27 L3596.76 4186.27 L3596.76 4185.7 Q3596.76 4181.66 3594.09 4179.46 Q3591.45 4177.23 3586.64 4177.23 Q3583.59 4177.23 3580.69 4177.96 Q3577.79 4178.7 3575.12 4180.16 L3575.12 4174.75 Q3578.33 4173.51 3581.36 4172.9 Q3584.38 4172.27 3587.25 4172.27 Q3594.98 4172.27 3598.8 4176.28 Q3602.62 4180.29 3602.62 4188.44 Z" fill="#000000" fill-rule="nonzero" fill-opacity="1" /><path clip-path="url(#clip500)" d="M3616.18 4200.69 L3622.89 4200.69 L3622.89 4206.16 L3617.67 4216.35 L3613.57 4216.35 L3616.18 4206.16 L3616.18 4200.69 Z" fill="#000000" fill-rule="nonzero" fill-opacity="1" /><path clip-path="url(#clip500)" d="M3676.91 4192.19 L3675.51 4184.84 Q3674.07 4177.3 3668.41 4177.3 Q3664.14 4177.3 3662.2 4180.8 Q3659.75 4185.19 3659.75 4190.98 Q3659.75 4197.98 3662.14 4201.33 Q3664.56 4204.73 3668.41 4204.73 Q3672.67 4204.73 3674.97 4197.95 L3676.91 4192.19 M3680.19 4182.45 L3683.34 4173.13 L3688.56 4173.13 L3682.03 4192.45 L3683.3 4199.42 Q3683.59 4200.98 3684.7 4202.28 Q3686.01 4203.81 3687.03 4203.81 L3689.83 4203.81 L3689.83 4208.77 L3686.33 4208.77 Q3683.34 4208.77 3680.66 4206.1 Q3679.36 4204.76 3678.82 4201.96 Q3677.35 4205.5 3674.36 4208.27 Q3672.96 4209.57 3668.41 4209.57 Q3660.93 4209.57 3657.3 4204.73 Q3653.58 4199.74 3653.58 4190.98 Q3653.58 4181.63 3657.62 4177.23 Q3662.11 4172.33 3668.41 4172.33 Q3678.31 4172.33 3680.19 4182.45 Z" fill="#000000" fill-rule="nonzero" fill-opacity="1" /><polyline clip-path="url(#clip500)" style="stroke:#000000; stroke-linecap:round; stroke-linejoin:round; stroke-width:4; stroke-opacity:1; fill:none" points="215.285,4000.91 215.285,120.723 "/>
<polyline clip-path="url(#clip500)" style="stroke:#000000; stroke-linecap:round; stroke-linejoin:round; stroke-width:4; stroke-opacity:1; fill:none" points="215.285,3711.04 234.183,3711.04 "/>
<polyline clip-path="url(#clip500)" style="stroke:#000000; stroke-linecap:round; stroke-linejoin:round; stroke-width:4; stroke-opacity:1; fill:none" points="215.285,3124.25 234.183,3124.25 "/>
<polyline clip-path="url(#clip500)" style="stroke:#000000; stroke-linecap:round; stroke-linejoin:round; stroke-width:4; stroke-opacity:1; fill:none" points="215.285,2537.47 234.183,2537.47 "/>
<polyline clip-path="url(#clip500)" style="stroke:#000000; stroke-linecap:round; stroke-linejoin:round; stroke-width:4; stroke-opacity:1; fill:none" points="215.285,1950.68 234.183,1950.68 "/>
<polyline clip-path="url(#clip500)" style="stroke:#000000; stroke-linecap:round; stroke-linejoin:round; stroke-width:4; stroke-opacity:1; fill:none" points="215.285,1363.9 234.183,1363.9 "/>
<polyline clip-path="url(#clip500)" style="stroke:#000000; stroke-linecap:round; stroke-linejoin:round; stroke-width:4; stroke-opacity:1; fill:none" points="215.285,777.113 234.183,777.113 "/>
<polyline clip-path="url(#clip500)" style="stroke:#000000; stroke-linecap:round; stroke-linejoin:round; stroke-width:4; stroke-opacity:1; fill:none" points="215.285,190.328 234.183,190.328 "/>
<path clip-path="url(#clip500)" d="M96.3779 3724.38 L104.017 3724.38 L104.017 3698.02 L95.7066 3699.68 L95.7066 3695.42 L103.97 3693.76 L108.646 3693.76 L108.646 3724.38 L116.285 3724.38 L116.285 3728.32 L96.3779 3728.32 L96.3779 3724.38 Z" fill="#000000" fill-rule="nonzero" fill-opacity="1" /><path clip-path="url(#clip500)" d="M99.9659 3137.6 L116.285 3137.6 L116.285 3141.53 L94.3409 3141.53 L94.3409 3137.6 Q97.0029 3134.84 101.586 3130.21 Q106.193 3125.56 107.373 3124.22 Q109.619 3121.69 110.498 3119.96 Q111.401 3118.2 111.401 3116.51 Q111.401 3113.76 109.457 3112.02 Q107.535 3110.28 104.433 3110.28 Q102.234 3110.28 99.7807 3111.05 Q97.3501 3111.81 94.5724 3113.36 L94.5724 3108.64 Q97.3964 3107.51 99.8501 3106.93 Q102.304 3106.35 104.341 3106.35 Q109.711 3106.35 112.906 3109.03 Q116.1 3111.72 116.1 3116.21 Q116.1 3118.34 115.29 3120.26 Q114.503 3122.16 112.396 3124.75 Q111.818 3125.42 108.716 3128.64 Q105.614 3131.83 99.9659 3137.6 Z" fill="#000000" fill-rule="nonzero" fill-opacity="1" /><path clip-path="url(#clip500)" d="M109.156 2536.11 Q112.512 2536.83 114.387 2539.1 Q116.285 2541.37 116.285 2544.7 Q116.285 2549.82 112.767 2552.62 Q109.248 2555.42 102.767 2555.42 Q100.591 2555.42 98.276 2554.98 Q95.9844 2554.56 93.5307 2553.71 L93.5307 2549.19 Q95.4751 2550.33 97.7899 2550.91 Q100.105 2551.48 102.628 2551.48 Q107.026 2551.48 109.318 2549.75 Q111.632 2548.01 111.632 2544.7 Q111.632 2541.65 109.48 2539.93 Q107.35 2538.2 103.531 2538.2 L99.5029 2538.2 L99.5029 2534.35 L103.716 2534.35 Q107.165 2534.35 108.994 2532.99 Q110.822 2531.6 110.822 2529.01 Q110.822 2526.35 108.924 2524.93 Q107.049 2523.5 103.531 2523.5 Q101.609 2523.5 99.4103 2523.91 Q97.2112 2524.33 94.5724 2525.21 L94.5724 2521.04 Q97.2344 2520.3 99.5492 2519.93 Q101.887 2519.56 103.947 2519.56 Q109.271 2519.56 112.373 2521.99 Q115.475 2524.4 115.475 2528.52 Q115.475 2531.39 113.832 2533.38 Q112.188 2535.35 109.156 2536.11 Z" fill="#000000" fill-rule="nonzero" fill-opacity="1" /><path clip-path="url(#clip500)" d="M106.702 1937.48 L94.8964 1955.93 L106.702 1955.93 L106.702 1937.48 M105.475 1933.4 L111.355 1933.4 L111.355 1955.93 L116.285 1955.93 L116.285 1959.81 L111.355 1959.81 L111.355 1967.96 L106.702 1967.96 L106.702 1959.81 L91.1002 1959.81 L91.1002 1955.3 L105.475 1933.4 Z" fill="#000000" fill-rule="nonzero" fill-opacity="1" /><path clip-path="url(#clip500)" d="M95.3825 1346.62 L113.739 1346.62 L113.739 1350.55 L99.6649 1350.55 L99.6649 1359.03 Q100.683 1358.68 101.702 1358.52 Q102.72 1358.33 103.739 1358.33 Q109.526 1358.33 112.906 1361.5 Q116.285 1364.67 116.285 1370.09 Q116.285 1375.67 112.813 1378.77 Q109.341 1381.85 103.021 1381.85 Q100.845 1381.85 98.577 1381.48 Q96.3316 1381.11 93.9242 1380.37 L93.9242 1375.67 Q96.0075 1376.8 98.2297 1377.36 Q100.452 1377.91 102.929 1377.91 Q106.933 1377.91 109.271 1375.81 Q111.609 1373.7 111.609 1370.09 Q111.609 1366.48 109.271 1364.37 Q106.933 1362.27 102.929 1362.27 Q101.054 1362.27 99.1788 1362.68 Q97.327 1363.1 95.3825 1363.98 L95.3825 1346.62 Z" fill="#000000" fill-rule="nonzero" fill-opacity="1" /><path clip-path="url(#clip500)" d="M104.757 775.25 Q101.609 775.25 99.7575 777.403 Q97.9288 779.555 97.9288 783.305 Q97.9288 787.032 99.7575 789.208 Q101.609 791.361 104.757 791.361 Q107.906 791.361 109.734 789.208 Q111.586 787.032 111.586 783.305 Q111.586 779.555 109.734 777.403 Q107.906 775.25 104.757 775.25 M114.04 760.597 L114.04 764.856 Q112.281 764.023 110.475 763.583 Q108.693 763.143 106.933 763.143 Q102.304 763.143 99.8501 766.268 Q97.4196 769.393 97.0723 775.713 Q98.4381 773.699 100.498 772.634 Q102.558 771.546 105.035 771.546 Q110.244 771.546 113.253 774.717 Q116.285 777.866 116.285 783.305 Q116.285 788.629 113.137 791.847 Q109.989 795.065 104.757 795.065 Q98.7622 795.065 95.5909 790.481 Q92.4196 785.875 92.4196 777.148 Q92.4196 768.954 96.3085 764.092 Q100.197 759.208 106.748 759.208 Q108.507 759.208 110.29 759.555 Q112.095 759.903 114.04 760.597 Z" fill="#000000" fill-rule="nonzero" fill-opacity="1" /><path clip-path="url(#clip500)" d="M94.0631 173.048 L116.285 173.048 L116.285 175.039 L103.739 207.608 L98.8547 207.608 L110.66 176.984 L94.0631 176.984 L94.0631 173.048 Z" fill="#000000" fill-rule="nonzero" fill-opacity="1" /><path clip-path="url(#clip500)" d="M-44.8496 2376.48 L-27.4394 2376.48 L-27.4394 2366.16 Q-27.4394 2360.98 -29.5719 2358.49 Q-31.7362 2355.98 -36.1604 2355.98 Q-40.6164 2355.98 -42.7171 2358.49 Q-44.8496 2360.98 -44.8496 2366.16 L-44.8496 2376.48 M-64.3923 2376.48 L-50.0695 2376.48 L-50.0695 2366.96 Q-50.0695 2362.25 -51.82 2359.96 Q-53.6024 2357.63 -57.2309 2357.63 Q-60.8275 2357.63 -62.6099 2359.96 Q-64.3923 2362.25 -64.3923 2366.96 L-64.3923 2376.48 M-69.6758 2382.91 L-69.6758 2366.48 Q-69.6758 2359.13 -66.6203 2355.15 Q-63.5648 2351.17 -57.9311 2351.17 Q-53.5706 2351.17 -50.9925 2353.21 Q-48.4144 2355.25 -47.7778 2359.19 Q-46.7593 2354.45 -43.5128 2351.84 Q-40.2981 2349.2 -35.4602 2349.2 Q-29.0945 2349.2 -25.6252 2353.53 Q-22.1558 2357.86 -22.1558 2365.85 L-22.1558 2382.91 L-69.6758 2382.91 Z" fill="#000000" fill-rule="nonzero" fill-opacity="1" /><path clip-path="url(#clip500)" d="M-27.503 2332.78 L-8.59689 2332.78 L-8.59689 2338.66 L-57.8038 2338.66 L-57.8038 2332.78 L-52.3929 2332.78 Q-55.5758 2330.93 -57.1036 2328.13 Q-58.6632 2325.3 -58.6632 2321.38 Q-58.6632 2314.89 -53.5069 2310.85 Q-48.3507 2306.77 -39.948 2306.77 Q-31.5453 2306.77 -26.389 2310.85 Q-21.2328 2314.89 -21.2328 2321.38 Q-21.2328 2325.3 -22.7606 2328.13 Q-24.3202 2330.93 -27.503 2332.78 M-39.948 2312.85 Q-46.4092 2312.85 -50.0695 2315.52 Q-53.7616 2318.17 -53.7616 2322.81 Q-53.7616 2327.46 -50.0695 2330.13 Q-46.4092 2332.78 -39.948 2332.78 Q-33.4868 2332.78 -29.7947 2330.13 Q-26.1344 2327.46 -26.1344 2322.81 Q-26.1344 2318.17 -29.7947 2315.52 Q-33.4868 2312.85 -39.948 2312.85 Z" fill="#000000" fill-rule="nonzero" fill-opacity="1" /><path clip-path="url(#clip500)" d="M-41.4439 2266.57 L-38.5794 2266.57 L-38.5794 2293.5 Q-32.5319 2293.12 -29.3491 2289.87 Q-26.1981 2286.59 -26.1981 2280.77 Q-26.1981 2277.39 -27.0256 2274.24 Q-27.8531 2271.06 -29.5082 2267.94 L-23.9701 2267.94 Q-22.6333 2271.09 -21.933 2274.4 Q-21.2328 2277.71 -21.2328 2281.12 Q-21.2328 2289.65 -26.1981 2294.65 Q-31.1633 2299.61 -39.6297 2299.61 Q-48.3826 2299.61 -53.5069 2294.9 Q-58.6632 2290.16 -58.6632 2282.14 Q-58.6632 2274.94 -54.0162 2270.77 Q-49.4011 2266.57 -41.4439 2266.57 M-43.1627 2272.43 Q-47.9688 2272.49 -50.8334 2275.13 Q-53.6979 2277.74 -53.6979 2282.07 Q-53.6979 2286.97 -50.9288 2289.93 Q-48.1598 2292.86 -43.1308 2293.31 L-43.1627 2272.43 Z" fill="#000000" fill-rule="nonzero" fill-opacity="1" /><path clip-path="url(#clip500)" d="M-57.8038 2257.18 L-57.8038 2248.62 L-33.9324 2238.5 L-57.8038 2228.35 L-57.8038 2219.85 L-22.1558 2219.85 L-22.1558 2225.74 L-52.202 2225.74 L-28.999 2235.57 L-28.999 2241.43 L-52.202 2251.29 L-22.1558 2251.29 L-22.1558 2257.18 L-57.8038 2257.18 Z" fill="#000000" fill-rule="nonzero" fill-opacity="1" /><path clip-path="url(#clip500)" d="M-47.5232 2201.9 Q-44.8814 2201.9 -43.3855 2199.86 Q-41.8895 2197.82 -41.8895 2194.04 L-41.8895 2186.14 L-53.125 2186.14 L-53.125 2194.04 Q-53.125 2197.82 -51.6609 2199.86 Q-50.1968 2201.9 -47.5232 2201.9 M-22.1558 2210.24 L-37.7837 2199.35 Q-38.6112 2203.04 -40.7755 2205.49 Q-42.9717 2207.94 -47.5232 2207.94 Q-52.6794 2207.94 -55.2257 2204.54 Q-57.8038 2201.1 -57.8038 2194.19 L-57.8038 2180.25 L-22.1558 2180.25 L-22.1558 2186.14 L-37.2107 2186.14 L-37.2107 2193.43 L-22.1558 2203.93 L-22.1558 2210.24 Z" fill="#000000" fill-rule="nonzero" fill-opacity="1" /><path clip-path="url(#clip500)" d="M-18.8457 2133.02 Q-12.48 2135.5 -10.5384 2137.86 Q-8.59689 2140.21 -8.59689 2144.16 L-8.59689 2148.84 L-13.4985 2148.84 L-13.4985 2145.4 Q-13.4985 2142.98 -14.6443 2141.65 Q-15.7901 2140.31 -20.0552 2138.69 L-22.7288 2137.64 L-57.8038 2152.05 L-57.8038 2145.85 L-29.922 2134.71 L-57.8038 2123.57 L-57.8038 2117.36 L-18.8457 2133.02 Z" fill="#000000" fill-rule="nonzero" fill-opacity="1" /><path clip-path="url(#clip500)" d="M-26.8346 2101.32 L-26.8346 2084.32 L-53.125 2084.32 L-53.125 2096.64 L-48.669 2096.64 Q-35.5557 2096.64 -28.5534 2100.4 L-26.8346 2101.32 M-26.8346 2109.82 Q-28.1078 2106.92 -30.8132 2105.65 Q-37.529 2102.53 -51.0562 2102.53 L-57.8038 2102.53 L-57.8038 2078.43 L-26.8346 2078.43 L-26.8346 2073.76 L-13.1484 2073.76 L-13.1484 2078.43 L-22.1558 2078.43 L-22.1558 2107.33 L-13.1484 2107.33 L-13.1484 2112.01 L-26.8346 2112.01 L-26.8346 2109.82 Z" fill="#000000" fill-rule="nonzero" fill-opacity="1" /><path clip-path="url(#clip500)" d="M-38.5794 2058.57 L-26.8346 2058.57 L-26.8346 2050.23 Q-26.8346 2046.22 -28.3306 2044.12 Q-29.8583 2042.02 -32.7229 2042.02 Q-35.5875 2042.02 -37.0834 2044.12 Q-38.5794 2046.22 -38.5794 2050.23 L-38.5794 2058.57 M-53.125 2058.57 L-43.2582 2058.57 L-43.2582 2050.87 Q-43.2582 2047.56 -44.5631 2045.46 Q-45.8999 2043.36 -48.2552 2043.36 Q-50.6106 2043.36 -51.8519 2045.46 Q-53.125 2047.56 -53.125 2050.87 L-53.125 2058.57 M-57.8038 2064.43 L-57.8038 2050.49 Q-57.8038 2044.22 -55.5121 2040.84 Q-53.2205 2037.47 -48.9873 2037.47 Q-45.709 2037.47 -43.7674 2039.19 Q-41.8577 2040.91 -41.3803 2044.28 Q-40.6164 2040.24 -38.1974 2038.01 Q-35.7785 2035.78 -32.15 2035.78 Q-27.3757 2035.78 -24.7658 2039.48 Q-22.1558 2043.14 -22.1558 2049.95 L-22.1558 2064.43 L-57.8038 2064.43 Z" fill="#000000" fill-rule="nonzero" fill-opacity="1" /><path clip-path="url(#clip500)" d="M-53.6979 2011.98 Q-53.6979 2016.69 -50.0058 2019.42 Q-46.3455 2022.16 -39.948 2022.16 Q-33.5505 2022.16 -29.8583 2019.46 Q-26.1981 2016.72 -26.1981 2011.98 Q-26.1981 2007.3 -29.8902 2004.56 Q-33.5823 2001.82 -39.948 2001.82 Q-46.2819 2001.82 -49.974 2004.56 Q-53.6979 2007.3 -53.6979 2011.98 M-58.6632 2011.98 Q-58.6632 2004.34 -53.6979 1999.98 Q-48.7327 1995.62 -39.948 1995.62 Q-31.1951 1995.62 -26.1981 1999.98 Q-21.2328 2004.34 -21.2328 2011.98 Q-21.2328 2019.65 -26.1981 2024.01 Q-31.1951 2028.34 -39.948 2028.34 Q-48.7327 2028.34 -53.6979 2024.01 Q-58.6632 2019.65 -58.6632 2011.98 Z" fill="#000000" fill-rule="nonzero" fill-opacity="1" /><path clip-path="url(#clip500)" d="M-41.4439 1955.42 L-38.5794 1955.42 L-38.5794 1982.34 Q-32.5319 1981.96 -29.3491 1978.72 Q-26.1981 1975.44 -26.1981 1969.61 Q-26.1981 1966.24 -27.0256 1963.09 Q-27.8531 1959.9 -29.5082 1956.79 L-23.9701 1956.79 Q-22.6333 1959.94 -21.933 1963.25 Q-21.2328 1966.56 -21.2328 1969.96 Q-21.2328 1978.49 -26.1981 1983.49 Q-31.1633 1988.45 -39.6297 1988.45 Q-48.3826 1988.45 -53.5069 1983.74 Q-58.6632 1979 -58.6632 1970.98 Q-58.6632 1963.79 -54.0162 1959.62 Q-49.4011 1955.42 -41.4439 1955.42 M-43.1627 1961.27 Q-47.9688 1961.34 -50.8334 1963.98 Q-53.6979 1966.59 -53.6979 1970.92 Q-53.6979 1975.82 -50.9288 1978.78 Q-48.1598 1981.71 -43.1308 1982.15 L-43.1627 1961.27 Z" fill="#000000" fill-rule="nonzero" fill-opacity="1" /><path clip-path="url(#clip500)" d="M-57.8038 1946.03 L-57.8038 1940.14 L-43.2582 1940.14 L-43.2582 1921.14 L-57.8038 1921.14 L-57.8038 1915.25 L-22.1558 1915.25 L-22.1558 1921.14 L-38.5794 1921.14 L-38.5794 1940.14 L-22.1558 1940.14 L-22.1558 1946.03 L-57.8038 1946.03 Z" fill="#000000" fill-rule="nonzero" fill-opacity="1" /><path clip-path="url(#clip500)" d="M-57.8038 1872.89 L-22.1558 1872.89 L-22.1558 1878.71 L-50.7697 1878.71 L-22.1558 1895.9 L-22.1558 1903.41 L-57.8038 1903.41 L-57.8038 1897.58 L-29.2536 1897.58 L-57.8038 1880.43 L-57.8038 1872.89 Z" fill="#000000" fill-rule="nonzero" fill-opacity="1" /><path clip-path="url(#clip500)" d="M-47.5232 1854.93 Q-44.8814 1854.93 -43.3855 1852.9 Q-41.8895 1850.86 -41.8895 1847.07 L-41.8895 1839.18 L-53.125 1839.18 L-53.125 1847.07 Q-53.125 1850.86 -51.6609 1852.9 Q-50.1968 1854.93 -47.5232 1854.93 M-22.1558 1863.27 L-37.7837 1852.39 Q-38.6112 1856.08 -40.7755 1858.53 Q-42.9717 1860.98 -47.5232 1860.98 Q-52.6794 1860.98 -55.2257 1857.58 Q-57.8038 1854.14 -57.8038 1847.23 L-57.8038 1833.29 L-22.1558 1833.29 L-22.1558 1839.18 L-37.2107 1839.18 L-37.2107 1846.47 L-22.1558 1856.97 L-22.1558 1863.27 Z" fill="#000000" fill-rule="nonzero" fill-opacity="1" /><path clip-path="url(#clip500)" d="M-30.2403 1820.11 L-30.2403 1813.4 L-24.7658 1813.4 L-14.5807 1818.62 L-14.5807 1822.72 L-24.7658 1820.11 L-30.2403 1820.11 Z" fill="#000000" fill-rule="nonzero" fill-opacity="1" /><path clip-path="url(#clip500)" d="M-67.9253 1774.38 L-57.8038 1774.38 L-57.8038 1762.31 L-53.2523 1762.31 L-53.2523 1774.38 L-33.9006 1774.38 Q-29.5401 1774.38 -28.2987 1773.2 Q-27.0574 1771.99 -27.0574 1768.33 L-27.0574 1762.31 L-22.1558 1762.31 L-22.1558 1768.33 Q-22.1558 1775.11 -24.6703 1777.69 Q-27.2166 1780.26 -33.9006 1780.26 L-53.2523 1780.26 L-53.2523 1784.56 L-57.8038 1784.56 L-57.8038 1780.26 L-67.9253 1780.26 L-67.9253 1774.38 Z" fill="#000000" fill-rule="nonzero" fill-opacity="1" /><path clip-path="url(#clip500)" d="M-25.7843 1752.22 L-25.7843 1738.73 L-22.1558 1738.73 L-22.1558 1757.76 L-25.657 1757.76 Q-26.6437 1756.68 -28.4261 1754.67 Q-38.1338 1743.73 -41.1256 1743.73 Q-43.2263 1743.73 -44.4995 1745.38 Q-45.8044 1747.04 -45.8044 1749.74 Q-45.8044 1751.4 -45.2315 1753.34 Q-44.6904 1755.28 -43.5764 1757.57 L-47.4914 1757.57 Q-48.3826 1755.12 -48.8282 1753.02 Q-49.2738 1750.89 -49.2738 1749.07 Q-49.2738 1744.46 -47.1731 1741.69 Q-45.0724 1738.92 -41.6349 1738.92 Q-37.2107 1738.92 -28.1714 1749.45 Q-26.6437 1751.24 -25.7843 1752.22 Z" fill="#000000" fill-rule="nonzero" fill-opacity="1" /><path clip-path="url(#clip500)" d="M2601.26 11.0023 Q2611.23 11.0023 2617.55 15.2557 Q2623.87 19.4686 2623.87 26.6793 Q2623.87 31.7024 2620.99 35.1862 Q2618.12 38.6294 2612.81 39.9662 Q2618.68 41.222 2621.96 45.1919 Q2625.29 49.1618 2625.29 54.9951 Q2625.29 64.3122 2618.08 69.0517 Q2610.91 73.7508 2601.26 73.7508 Q2596.32 73.7508 2590.57 72.414 Q2584.82 71.0772 2583.04 69.9429 L2583.04 61.517 Q2589.23 65.1223 2592.64 66.0135 Q2596.08 66.8642 2601.1 66.8642 Q2608.72 66.8642 2612.93 63.9476 Q2617.14 61.0309 2617.14 54.9951 Q2617.14 49.6479 2613.38 46.6502 Q2609.65 43.612 2601.75 43.612 L2593.49 43.612 L2593.49 36.8875 L2602.07 36.8875 Q2609.33 36.8875 2612.53 34.4975 Q2615.73 32.067 2615.73 27.5299 Q2615.73 22.8714 2612.4 20.4004 Q2609.12 17.8888 2601.1 17.8888 Q2595.67 17.8888 2593.81 18.3749 Q2591.95 18.861 2583.64 21.9802 L2583.64 13.9999 Q2588.22 12.3796 2593 11.6909 Q2597.78 11.0023 2601.26 11.0023 Z" fill="#000000" fill-rule="nonzero" fill-opacity="1" /><path clip-path="url(#clip500)" d="M2659.19 49.7694 Q2650.16 49.7694 2646.67 51.8354 Q2643.19 53.9013 2643.19 58.8839 Q2643.19 62.8538 2645.78 65.2034 Q2648.42 67.5124 2652.91 67.5124 Q2659.11 67.5124 2662.84 63.1374 Q2666.61 58.7219 2666.61 51.4303 L2666.61 49.7694 L2659.19 49.7694 M2674.06 46.6907 L2674.06 72.576 L2666.61 72.576 L2666.61 65.6895 Q2664.05 69.8214 2660.25 71.8063 Q2656.44 73.7508 2650.93 73.7508 Q2643.96 73.7508 2639.83 69.8619 Q2635.74 65.9325 2635.74 59.3701 Q2635.74 51.7138 2640.84 47.825 Q2645.99 43.9361 2656.15 43.9361 L2666.61 43.9361 L2666.61 43.2069 Q2666.61 38.0623 2663.2 35.2672 Q2659.84 32.4315 2653.72 32.4315 Q2649.83 32.4315 2646.15 33.3632 Q2642.46 34.295 2639.06 36.1584 L2639.06 29.2718 Q2643.15 27.692 2647 26.9223 Q2650.85 26.1121 2654.49 26.1121 Q2664.34 26.1121 2669.2 31.2163 Q2674.06 36.3204 2674.06 46.6907 Z" fill="#000000" fill-rule="nonzero" fill-opacity="1" /><path clip-path="url(#clip500)" d="M2696.58 51.6733 L2696.58 66.6212 L2707.2 66.6212 Q2712.3 66.6212 2714.97 64.7172 Q2717.65 62.7728 2717.65 59.127 Q2717.65 55.4812 2714.97 53.5773 Q2712.3 51.6733 2707.2 51.6733 L2696.58 51.6733 M2696.58 33.1607 L2696.58 45.7185 L2706.39 45.7185 Q2710.6 45.7185 2713.27 44.0576 Q2715.95 42.3563 2715.95 39.3586 Q2715.95 36.3609 2713.27 34.7811 Q2710.6 33.1607 2706.39 33.1607 L2696.58 33.1607 M2689.13 27.2059 L2706.87 27.2059 Q2714.85 27.2059 2719.15 30.1225 Q2723.44 33.0392 2723.44 38.4269 Q2723.44 42.5993 2721.25 45.0704 Q2719.06 47.5009 2714.77 48.1085 Q2719.92 49.0808 2722.75 52.1594 Q2725.59 55.2381 2725.59 59.8562 Q2725.59 65.9325 2720.89 69.2543 Q2716.23 72.576 2707.56 72.576 L2689.13 72.576 L2689.13 27.2059 Z" fill="#000000" fill-rule="nonzero" fill-opacity="1" /><path clip-path="url(#clip500)" d="M2776.87 27.2059 L2776.87 72.576 L2769.46 72.576 L2769.46 36.1584 L2747.58 72.576 L2738.02 72.576 L2738.02 27.2059 L2745.44 27.2059 L2745.44 63.5425 L2767.27 27.2059 L2776.87 27.2059 Z" fill="#000000" fill-rule="nonzero" fill-opacity="1" /><path clip-path="url(#clip500)" d="M2824.87 28.9478 L2824.87 35.9153 Q2821.71 34.1734 2818.51 33.3227 Q2815.35 32.4315 2812.11 32.4315 Q2804.86 32.4315 2800.85 37.0496 Q2796.84 41.6271 2796.84 49.9314 Q2796.84 58.2358 2800.85 62.8538 Q2804.86 67.4314 2812.11 67.4314 Q2815.35 67.4314 2818.51 66.5807 Q2821.71 65.6895 2824.87 63.9476 L2824.87 70.8341 Q2821.76 72.2924 2818.39 73.0216 Q2815.07 73.7508 2811.3 73.7508 Q2801.05 73.7508 2795.02 67.3098 Q2788.98 60.8689 2788.98 49.9314 Q2788.98 38.832 2795.06 32.472 Q2801.18 26.1121 2811.79 26.1121 Q2815.23 26.1121 2818.51 26.8413 Q2821.8 27.5299 2824.87 28.9478 Z" fill="#000000" fill-rule="nonzero" fill-opacity="1" /><path clip-path="url(#clip500)" d="M2876.4 27.2059 L2876.4 72.576 L2868.99 72.576 L2868.99 36.1584 L2847.11 72.576 L2837.55 72.576 L2837.55 27.2059 L2844.97 27.2059 L2844.97 63.5425 L2866.8 27.2059 L2876.4 27.2059 Z" fill="#000000" fill-rule="nonzero" fill-opacity="1" /><path clip-path="url(#clip500)" d="M2891.47 27.2059 L2902.37 27.2059 L2915.25 57.5877 L2928.17 27.2059 L2938.99 27.2059 L2938.99 72.576 L2931.49 72.576 L2931.49 34.3355 L2918.98 63.8666 L2911.52 63.8666 L2898.97 34.3355 L2898.97 72.576 L2891.47 72.576 L2891.47 27.2059 Z" fill="#000000" fill-rule="nonzero" fill-opacity="1" /><path clip-path="url(#clip500)" d="M2971.92 32.4315 Q2965.93 32.4315 2962.44 37.1306 Q2958.96 41.7891 2958.96 49.9314 Q2958.96 58.0738 2962.4 62.7728 Q2965.89 67.4314 2971.92 67.4314 Q2977.88 67.4314 2981.36 62.7323 Q2984.84 58.0333 2984.84 49.9314 Q2984.84 41.8701 2981.36 37.1711 Q2977.88 32.4315 2971.92 32.4315 M2971.92 26.1121 Q2981.64 26.1121 2987.19 32.4315 Q2992.74 38.7509 2992.74 49.9314 Q2992.74 61.0714 2987.19 67.4314 Q2981.64 73.7508 2971.92 73.7508 Q2962.16 73.7508 2956.61 67.4314 Q2951.1 61.0714 2951.1 49.9314 Q2951.1 38.7509 2956.61 32.4315 Q2962.16 26.1121 2971.92 26.1121 Z" fill="#000000" fill-rule="nonzero" fill-opacity="1" /><path clip-path="url(#clip500)" d="M3037.75 28.9478 L3037.75 35.9153 Q3034.59 34.1734 3031.39 33.3227 Q3028.23 32.4315 3024.99 32.4315 Q3017.74 32.4315 3013.73 37.0496 Q3009.72 41.6271 3009.72 49.9314 Q3009.72 58.2358 3013.73 62.8538 Q3017.74 67.4314 3024.99 67.4314 Q3028.23 67.4314 3031.39 66.5807 Q3034.59 65.6895 3037.75 63.9476 L3037.75 70.8341 Q3034.63 72.2924 3031.27 73.0216 Q3027.95 73.7508 3024.18 73.7508 Q3013.93 73.7508 3007.89 67.3098 Q3001.86 60.8689 3001.86 49.9314 Q3001.86 38.832 3007.93 32.472 Q3014.05 26.1121 3024.66 26.1121 Q3028.11 26.1121 3031.39 26.8413 Q3034.67 27.5299 3037.75 28.9478 Z" fill="#000000" fill-rule="nonzero" fill-opacity="1" /><path clip-path="url(#clip500)" d="M3045.32 27.2059 L3088.79 27.2059 L3088.79 33.1607 L3070.72 33.1607 L3070.72 72.576 L3063.39 72.576 L3063.39 33.1607 L3045.32 33.1607 L3045.32 27.2059 Z" fill="#000000" fill-rule="nonzero" fill-opacity="1" /><path clip-path="url(#clip500)" d="M3127.27 59.127 Q3127.27 55.4812 3124.6 53.5773 Q3121.97 51.6733 3116.86 51.6733 L3106.25 51.6733 L3106.25 66.6212 L3116.86 66.6212 Q3121.97 66.6212 3124.6 64.7172 Q3127.27 62.7728 3127.27 59.127 M3098.76 27.2059 L3106.25 27.2059 L3106.25 45.7185 L3117.19 45.7185 Q3125.86 45.7185 3130.51 49.0402 Q3135.21 52.3215 3135.21 59.127 Q3135.21 65.9325 3130.51 69.2543 Q3125.86 72.576 3117.19 72.576 L3098.76 72.576 L3098.76 27.2059 Z" fill="#000000" fill-rule="nonzero" fill-opacity="1" /><path clip-path="url(#clip500)" d="M3181.48 51.6733 L3181.48 66.6212 L3192.09 66.6212 Q3197.19 66.6212 3199.87 64.7172 Q3202.54 62.7728 3202.54 59.127 Q3202.54 55.4812 3199.87 53.5773 Q3197.19 51.6733 3192.09 51.6733 L3181.48 51.6733 M3181.48 33.1607 L3181.48 45.7185 L3191.28 45.7185 Q3195.49 45.7185 3198.17 44.0576 Q3200.84 42.3563 3200.84 39.3586 Q3200.84 36.3609 3198.17 34.7811 Q3195.49 33.1607 3191.28 33.1607 L3181.48 33.1607 M3174.02 27.2059 L3191.76 27.2059 Q3199.74 27.2059 3204.04 30.1225 Q3208.33 33.0392 3208.33 38.4269 Q3208.33 42.5993 3206.15 45.0704 Q3203.96 47.5009 3199.66 48.1085 Q3204.81 49.0808 3207.64 52.1594 Q3210.48 55.2381 3210.48 59.8562 Q3210.48 65.9325 3205.78 69.2543 Q3201.12 72.576 3192.45 72.576 L3174.02 72.576 L3174.02 27.2059 Z" fill="#000000" fill-rule="nonzero" fill-opacity="1" /><path clip-path="url(#clip500)" d="M3230.41 65.7705 L3230.41 89.8329 L3222.92 89.8329 L3222.92 27.2059 L3230.41 27.2059 L3230.41 34.0924 Q3232.76 30.0415 3236.32 28.0971 Q3239.93 26.1121 3244.91 26.1121 Q3253.18 26.1121 3258.32 32.6746 Q3263.51 39.2371 3263.51 49.9314 Q3263.51 60.6258 3258.32 67.1883 Q3253.18 73.7508 3244.91 73.7508 Q3239.93 73.7508 3236.32 71.8063 Q3232.76 69.8214 3230.41 65.7705 M3255.77 49.9314 Q3255.77 41.7081 3252.37 37.0496 Q3249 32.3505 3243.09 32.3505 Q3237.18 32.3505 3233.77 37.0496 Q3230.41 41.7081 3230.41 49.9314 Q3230.41 58.1548 3233.77 62.8538 Q3237.18 67.5124 3243.09 67.5124 Q3249 67.5124 3252.37 62.8538 Q3255.77 58.1548 3255.77 49.9314 Z" fill="#000000" fill-rule="nonzero" fill-opacity="1" /><path clip-path="url(#clip500)" d="M3314.67 48.0275 L3314.67 51.6733 L3280.4 51.6733 Q3280.88 59.3701 3285.02 63.421 Q3289.19 67.4314 3296.6 67.4314 Q3300.9 67.4314 3304.91 66.3781 Q3308.96 65.3249 3312.93 63.2184 L3312.93 70.267 Q3308.92 71.9684 3304.7 72.8596 Q3300.49 73.7508 3296.16 73.7508 Q3285.3 73.7508 3278.94 67.4314 Q3272.62 61.1119 3272.62 50.3365 Q3272.62 39.1965 3278.62 32.6746 Q3284.65 26.1121 3294.86 26.1121 Q3304.02 26.1121 3309.32 32.0264 Q3314.67 37.9003 3314.67 48.0275 M3307.22 45.84 Q3307.13 39.7232 3303.77 36.0774 Q3300.45 32.4315 3294.94 32.4315 Q3288.7 32.4315 3284.94 35.9558 Q3281.21 39.4801 3280.64 45.8805 L3307.22 45.84 Z" fill="#000000" fill-rule="nonzero" fill-opacity="1" /><path clip-path="url(#clip500)" d="M3326.62 27.2059 L3337.52 27.2059 L3350.4 57.5877 L3363.32 27.2059 L3374.14 27.2059 L3374.14 72.576 L3366.64 72.576 L3366.64 34.3355 L3354.12 63.8666 L3346.67 63.8666 L3334.11 34.3355 L3334.11 72.576 L3326.62 72.576 L3326.62 27.2059 Z" fill="#000000" fill-rule="nonzero" fill-opacity="1" /><path clip-path="url(#clip500)" d="M3428.3 48.0275 L3428.3 51.6733 L3394.03 51.6733 Q3394.51 59.3701 3398.64 63.421 Q3402.82 67.4314 3410.23 67.4314 Q3414.52 67.4314 3418.53 66.3781 Q3422.59 65.3249 3426.56 63.2184 L3426.56 70.267 Q3422.54 71.9684 3418.33 72.8596 Q3414.12 73.7508 3409.78 73.7508 Q3398.93 73.7508 3392.57 67.4314 Q3386.25 61.1119 3386.25 50.3365 Q3386.25 39.1965 3392.24 32.6746 Q3398.28 26.1121 3408.49 26.1121 Q3417.64 26.1121 3422.95 32.0264 Q3428.3 37.9003 3428.3 48.0275 M3420.84 45.84 Q3420.76 39.7232 3417.4 36.0774 Q3414.08 32.4315 3408.57 32.4315 Q3402.33 32.4315 3398.56 35.9558 Q3394.84 39.4801 3394.27 45.8805 L3420.84 45.84 Z" fill="#000000" fill-rule="nonzero" fill-opacity="1" /><path clip-path="url(#clip500)" d="M3440.25 27.2059 L3447.74 27.2059 L3447.74 45.7185 L3471.93 45.7185 L3471.93 27.2059 L3479.42 27.2059 L3479.42 72.576 L3471.93 72.576 L3471.93 51.6733 L3447.74 51.6733 L3447.74 72.576 L3440.25 72.576 L3440.25 27.2059 Z" fill="#000000" fill-rule="nonzero" fill-opacity="1" /><path clip-path="url(#clip500)" d="M3533.34 27.2059 L3533.34 72.576 L3525.92 72.576 L3525.92 36.1584 L3504.05 72.576 L3494.49 72.576 L3494.49 27.2059 L3501.9 27.2059 L3501.9 63.5425 L3523.74 27.2059 L3533.34 27.2059 Z" fill="#000000" fill-rule="nonzero" fill-opacity="1" /><path clip-path="url(#clip500)" d="M3593.94 76.7889 Q3590.78 84.8907 3587.78 87.3618 Q3584.78 89.8329 3579.76 89.8329 L3573.81 89.8329 L3573.81 83.5945 L3578.18 83.5945 Q3581.26 83.5945 3582.96 82.1361 Q3584.66 80.6778 3586.73 75.2496 L3588.06 71.8468 L3569.71 27.2059 L3577.61 27.2059 L3591.79 62.6918 L3605.97 27.2059 L3613.87 27.2059 L3593.94 76.7889 Z" fill="#000000" fill-rule="nonzero" fill-opacity="1" /><path clip-path="url(#clip500)" d="M3634.29 66.6212 L3655.92 66.6212 L3655.92 33.1607 L3640.24 33.1607 L3640.24 38.832 Q3640.24 55.5217 3635.46 64.4337 L3634.29 66.6212 M3623.47 66.6212 Q3627.16 65.0008 3628.78 61.5575 Q3632.75 53.0101 3632.75 35.7938 L3632.75 27.2059 L3663.41 27.2059 L3663.41 66.6212 L3669.37 66.6212 L3669.37 84.0401 L3663.41 84.0401 L3663.41 72.576 L3626.63 72.576 L3626.63 84.0401 L3620.67 84.0401 L3620.67 66.6212 L3623.47 66.6212 Z" fill="#000000" fill-rule="nonzero" fill-opacity="1" /><path clip-path="url(#clip500)" d="M3688.69 51.6733 L3688.69 66.6212 L3699.3 66.6212 Q3704.41 66.6212 3707.08 64.7172 Q3709.75 62.7728 3709.75 59.127 Q3709.75 55.4812 3707.08 53.5773 Q3704.41 51.6733 3699.3 51.6733 L3688.69 51.6733 M3688.69 33.1607 L3688.69 45.7185 L3698.49 45.7185 Q3702.71 45.7185 3705.38 44.0576 Q3708.05 42.3563 3708.05 39.3586 Q3708.05 36.3609 3705.38 34.7811 Q3702.71 33.1607 3698.49 33.1607 L3688.69 33.1607 M3681.24 27.2059 L3698.98 27.2059 Q3706.96 27.2059 3711.25 30.1225 Q3715.55 33.0392 3715.55 38.4269 Q3715.55 42.5993 3713.36 45.0704 Q3711.17 47.5009 3706.88 48.1085 Q3712.02 49.0808 3714.86 52.1594 Q3717.69 55.2381 3717.69 59.8562 Q3717.69 65.9325 3712.99 69.2543 Q3708.34 72.576 3699.67 72.576 L3681.24 72.576 L3681.24 27.2059 Z" fill="#000000" fill-rule="nonzero" fill-opacity="1" /><path clip-path="url(#clip500)" d="M3747.99 32.4315 Q3742 32.4315 3738.52 37.1306 Q3735.03 41.7891 3735.03 49.9314 Q3735.03 58.0738 3738.47 62.7728 Q3741.96 67.4314 3747.99 67.4314 Q3753.95 67.4314 3757.43 62.7323 Q3760.92 58.0333 3760.92 49.9314 Q3760.92 41.8701 3757.43 37.1711 Q3753.95 32.4315 3747.99 32.4315 M3747.99 26.1121 Q3757.72 26.1121 3763.27 32.4315 Q3768.82 38.7509 3768.82 49.9314 Q3768.82 61.0714 3763.27 67.4314 Q3757.72 73.7508 3747.99 73.7508 Q3738.23 73.7508 3732.68 67.4314 Q3727.17 61.0714 3727.17 49.9314 Q3727.17 38.7509 3732.68 32.4315 Q3738.23 26.1121 3747.99 26.1121 Z" fill="#000000" fill-rule="nonzero" fill-opacity="1" /><path clip-path="url(#clip500)" d="M3819.98 48.0275 L3819.98 51.6733 L3785.71 51.6733 Q3786.19 59.3701 3790.33 63.421 Q3794.5 67.4314 3801.91 67.4314 Q3806.21 67.4314 3810.22 66.3781 Q3814.27 65.3249 3818.24 63.2184 L3818.24 70.267 Q3814.23 71.9684 3810.01 72.8596 Q3805.8 73.7508 3801.47 73.7508 Q3790.61 73.7508 3784.25 67.4314 Q3777.93 61.1119 3777.93 50.3365 Q3777.93 39.1965 3783.93 32.6746 Q3789.96 26.1121 3800.17 26.1121 Q3809.32 26.1121 3814.63 32.0264 Q3819.98 37.9003 3819.98 48.0275 M3812.53 45.84 Q3812.44 39.7232 3809.08 36.0774 Q3805.76 32.4315 3800.25 32.4315 Q3794.01 32.4315 3790.25 35.9558 Q3786.52 39.4801 3785.95 45.8805 L3812.53 45.84 Z" fill="#000000" fill-rule="nonzero" fill-opacity="1" /><path clip-path="url(#clip500)" d="M3831.93 27.2059 L3839.42 27.2059 L3839.42 45.7185 L3863.61 45.7185 L3863.61 27.2059 L3871.1 27.2059 L3871.1 72.576 L3863.61 72.576 L3863.61 51.6733 L3839.42 51.6733 L3839.42 72.576 L3831.93 72.576 L3831.93 27.2059 Z" fill="#000000" fill-rule="nonzero" fill-opacity="1" /><path clip-path="url(#clip500)" d="M3925.02 27.2059 L3925.02 72.576 L3917.61 72.576 L3917.61 36.1584 L3895.73 72.576 L3886.17 72.576 L3886.17 27.2059 L3893.58 27.2059 L3893.58 63.5425 L3915.42 27.2059 L3925.02 27.2059 Z" fill="#000000" fill-rule="nonzero" fill-opacity="1" /><path clip-path="url(#clip500)" d="M3947.87 40.2903 Q3947.87 43.6525 3950.46 45.5565 Q3953.05 47.4604 3957.87 47.4604 L3967.92 47.4604 L3967.92 33.1607 L3957.87 33.1607 Q3953.05 33.1607 3950.46 35.0241 Q3947.87 36.8875 3947.87 40.2903 M3937.25 72.576 L3951.11 52.6861 Q3946.41 51.6328 3943.29 48.8782 Q3940.17 46.0831 3940.17 40.2903 Q3940.17 33.7278 3944.5 30.4871 Q3948.88 27.2059 3957.67 27.2059 L3975.41 27.2059 L3975.41 72.576 L3967.92 72.576 L3967.92 53.4152 L3958.64 53.4152 L3945.27 72.576 L3937.25 72.576 Z" fill="#000000" fill-rule="nonzero" fill-opacity="1" /><path clip-path="url(#clip500)" d="M4034.23 32.4315 Q4028.24 32.4315 4024.75 37.1306 Q4021.27 41.7891 4021.27 49.9314 Q4021.27 58.0738 4024.71 62.7728 Q4028.2 67.4314 4034.23 67.4314 Q4040.19 67.4314 4043.67 62.7323 Q4047.15 58.0333 4047.15 49.9314 Q4047.15 41.8701 4043.67 37.1711 Q4040.19 32.4315 4034.23 32.4315 M4034.23 26.1121 Q4043.95 26.1121 4049.5 32.4315 Q4055.05 38.7509 4055.05 49.9314 Q4055.05 61.0714 4049.5 67.4314 Q4043.95 73.7508 4034.23 73.7508 Q4024.47 73.7508 4018.92 67.4314 Q4013.41 61.0714 4013.41 49.9314 Q4013.41 38.7509 4018.92 32.4315 Q4024.47 26.1121 4034.23 26.1121 Z" fill="#000000" fill-rule="nonzero" fill-opacity="1" /><path clip-path="url(#clip500)" d="M4062.02 27.2059 L4105.49 27.2059 L4105.49 33.1607 L4087.42 33.1607 L4087.42 72.576 L4080.09 72.576 L4080.09 33.1607 L4062.02 33.1607 L4062.02 27.2059 Z" fill="#000000" fill-rule="nonzero" fill-opacity="1" /><path clip-path="url(#clip500)" d="M4168.56 51.4708 L4166.78 42.1132 Q4164.95 32.5126 4157.74 32.5126 Q4152.32 32.5126 4149.84 36.9686 Q4146.72 42.5588 4146.72 49.9314 Q4146.72 58.8434 4149.76 63.0969 Q4152.84 67.4314 4157.74 67.4314 Q4163.17 67.4314 4166.09 58.8029 L4168.56 51.4708 M4172.73 39.075 L4176.74 27.2059 L4183.39 27.2059 L4175.08 51.7949 L4176.7 60.6663 Q4177.07 62.6513 4178.48 64.3122 Q4180.14 66.2566 4181.44 66.2566 L4185.01 66.2566 L4185.01 72.576 L4180.55 72.576 Q4176.74 72.576 4173.34 69.1732 Q4171.68 67.4719 4170.99 63.9071 Q4169.13 68.4036 4165.32 71.9279 Q4163.54 73.5887 4157.74 73.5887 Q4148.22 73.5887 4143.61 67.4314 Q4138.87 61.0714 4138.87 49.9314 Q4138.87 38.0218 4144.01 32.4315 Q4149.72 26.1931 4157.74 26.1931 Q4170.34 26.1931 4172.73 39.075 Z" fill="#000000" fill-rule="nonzero" fill-opacity="1" /><circle clip-path="url(#clip501)" cx="394.648" cy="230.54" r="28.8" fill="#ff0000" fill-rule="evenodd" fill-opacity="1" stroke="#000000" stroke-opacity="1" stroke-width="8.4"/>
<circle clip-path="url(#clip501)" cx="1723.26" cy="2942.06" r="28.8" fill="#ff0000" fill-rule="evenodd" fill-opacity="1" stroke="#000000" stroke-opacity="1" stroke-width="8.4"/>
<circle clip-path="url(#clip501)" cx="3051.87" cy="3484.37" r="28.8" fill="#ff0000" fill-rule="evenodd" fill-opacity="1" stroke="#000000" stroke-opacity="1" stroke-width="8.4"/>
<circle clip-path="url(#clip501)" cx="5044.78" cy="3789.41" r="28.8" fill="#ff0000" fill-rule="evenodd" fill-opacity="1" stroke="#000000" stroke-opacity="1" stroke-width="8.4"/>
<circle clip-path="url(#clip501)" cx="6373.39" cy="3891.09" r="28.8" fill="#ff0000" fill-rule="evenodd" fill-opacity="1" stroke="#000000" stroke-opacity="1" stroke-width="8.4"/>
<polyline clip-path="url(#clip501)" style="stroke:#0000ff; stroke-linecap:round; stroke-linejoin:round; stroke-width:8; stroke-opacity:1; fill:none" stroke-dasharray="32, 20" points="394.648,230.54 461.078,600.293 527.509,908.42 593.939,1169.14 660.37,1392.62 726.8,1586.3 793.231,1755.77 859.661,1905.3 926.092,2038.22 992.522,2157.15 1058.95,2264.18 1125.38,2361.02 1191.81,2449.06 1258.24,2529.44 1324.67,2603.12 1391.11,2670.91 1457.54,2733.48 1523.97,2791.42 1590.4,2845.22 1656.83,2895.31 1723.26,2942.06 1789.69,2985.8 1856.12,3026.8 1922.55,3065.31 1988.98,3101.56 2055.41,3135.74 2121.84,3168.02 2188.27,3198.56 2254.7,3227.48 2321.13,3254.93 2387.56,3281 2453.99,3305.8 2520.42,3329.42 2586.85,3351.94 2653.28,3373.44 2719.72,3393.98 2786.15,3413.63 2852.58,3432.44 2919.01,3450.47 2985.44,3467.76 3051.87,3484.37 3118.3,3500.32 3184.73,3515.65 3251.16,3530.41 3317.59,3544.62 3384.02,3558.32 3450.45,3571.52 3516.88,3584.26 3583.31,3596.57 3649.74,3608.45 3716.17,3619.94 3782.6,3631.05 3849.03,3641.81 3915.46,3652.22 3981.9,3662.31 4048.33,3672.09 4114.76,3681.57 4181.19,3690.77 4247.62,3699.69 4314.05,3708.36 4380.48,3716.78 4446.91,3724.97 4513.34,3732.92 4579.77,3740.66 4646.2,3748.19 4712.63,3755.52 4779.06,3762.65 4845.49,3769.6 4911.92,3776.38 4978.35,3782.98 5044.78,3789.41 5111.21,3795.69 5177.64,3801.81 5244.07,3807.79 5310.51,3813.62 5376.94,3819.32 5443.37,3824.88 5509.8,3830.32 5576.23,3835.63 5642.66,3840.82 5709.09,3845.9 5775.52,3850.87 5841.95,3855.73 5908.38,3860.48 5974.81,3865.13 6041.24,3869.69 6107.67,3874.15 6174.1,3878.51 6240.53,3882.79 6306.96,3886.99 6373.39,3891.09 "/>
<path clip-path="url(#clip500)" d="M5207.48 405.583 L6341.51 405.583 L6341.51 250.063 L5207.48 250.063  Z" fill="#ffffff" fill-rule="evenodd" fill-opacity="1"/>
<polyline clip-path="url(#clip500)" style="stroke:#000000; stroke-linecap:round; stroke-linejoin:round; stroke-width:4; stroke-opacity:1; fill:none" points="5207.48,405.583 6341.51,405.583 6341.51,250.063 5207.48,250.063 5207.48,405.583 "/>
<circle clip-path="url(#clip500)" cx="5489.15" cy="301.903" r="21.6847" fill="#ff0000" fill-rule="evenodd" fill-opacity="1" stroke="#000000" stroke-opacity="1" stroke-width="6.32471"/>
<path clip-path="url(#clip500)" d="M5789.91 319.183 L5789.91 305.016 L5780.26 305.016 Q5775.95 305.016 5773.38 302.331 Q5770.82 299.623 5770.82 294.113 L5770.82 284.623 L5775.47 284.623 L5775.47 293.743 Q5775.47 297.423 5776.9 299.252 Q5778.34 301.081 5781.21 301.081 L5789.91 301.081 L5789.91 284.623 L5794.61 284.623 L5794.61 319.183 L5789.91 319.183 Z" fill="#000000" fill-rule="nonzero" fill-opacity="1" /><path clip-path="url(#clip500)" d="M5825.77 293.257 L5825.77 319.183 L5821.53 319.183 L5821.53 298.373 L5809.03 319.183 L5803.57 319.183 L5803.57 293.257 L5807.81 293.257 L5807.81 314.021 L5820.28 293.257 L5825.77 293.257 Z" fill="#000000" fill-rule="nonzero" fill-opacity="1" /><path clip-path="url(#clip500)" d="M5853.2 294.252 L5853.2 298.234 Q5851.39 297.238 5849.57 296.752 Q5847.76 296.243 5845.91 296.243 Q5841.76 296.243 5839.47 298.882 Q5837.18 301.498 5837.18 306.243 Q5837.18 310.988 5839.47 313.627 Q5841.76 316.243 5845.91 316.243 Q5847.76 316.243 5849.57 315.757 Q5851.39 315.247 5853.2 314.252 L5853.2 318.187 Q5851.42 319.021 5849.5 319.437 Q5847.6 319.854 5845.44 319.854 Q5839.59 319.854 5836.14 316.173 Q5832.69 312.493 5832.69 306.243 Q5832.69 299.9 5836.16 296.266 Q5839.66 292.632 5845.72 292.632 Q5847.69 292.632 5849.57 293.049 Q5851.44 293.442 5853.2 294.252 Z" fill="#000000" fill-rule="nonzero" fill-opacity="1" /><path clip-path="url(#clip500)" d="M5857.9 319.183 L5857.9 315.641 Q5862.11 314.993 5863.41 312.076 Q5864.98 307.979 5864.98 297.493 L5864.98 293.257 L5882.5 293.257 L5882.5 319.183 L5878.25 319.183 L5878.25 296.66 L5869.24 296.66 L5869.24 299.229 Q5869.24 309.229 5867.2 313.72 Q5865.03 318.511 5857.9 319.183 Z" fill="#000000" fill-rule="nonzero" fill-opacity="1" /><path clip-path="url(#clip500)" d="M5913.08 305.155 L5913.08 307.238 L5893.5 307.238 Q5893.78 311.636 5896.14 313.951 Q5898.52 316.243 5902.76 316.243 Q5905.21 316.243 5907.5 315.641 Q5909.82 315.039 5912.09 313.835 L5912.09 317.863 Q5909.8 318.835 5907.39 319.345 Q5904.98 319.854 5902.5 319.854 Q5896.3 319.854 5892.67 316.243 Q5889.06 312.632 5889.06 306.474 Q5889.06 300.109 5892.48 296.382 Q5895.93 292.632 5901.76 292.632 Q5907 292.632 5910.03 296.011 Q5913.08 299.368 5913.08 305.155 M5908.82 303.905 Q5908.78 300.41 5906.86 298.326 Q5904.96 296.243 5901.81 296.243 Q5898.25 296.243 5896.09 298.257 Q5893.96 300.271 5893.64 303.928 L5908.82 303.905 Z" fill="#000000" fill-rule="nonzero" fill-opacity="1" /><path clip-path="url(#clip500)" d="M5919.91 293.257 L5924.19 293.257 L5924.19 303.835 L5938.01 303.835 L5938.01 293.257 L5942.3 293.257 L5942.3 319.183 L5938.01 319.183 L5938.01 307.238 L5924.19 307.238 L5924.19 319.183 L5919.91 319.183 L5919.91 293.257 Z" fill="#000000" fill-rule="nonzero" fill-opacity="1" /><path clip-path="url(#clip500)" d="M5950.91 293.257 L5955.19 293.257 L5955.19 303.835 L5969.01 303.835 L5969.01 293.257 L5973.29 293.257 L5973.29 319.183 L5969.01 319.183 L5969.01 307.238 L5955.19 307.238 L5955.19 319.183 L5950.91 319.183 L5950.91 293.257 Z" fill="#000000" fill-rule="nonzero" fill-opacity="1" /><path clip-path="url(#clip500)" d="M5992.11 296.243 Q5988.68 296.243 5986.69 298.928 Q5984.7 301.59 5984.7 306.243 Q5984.7 310.896 5986.67 313.581 Q5988.66 316.243 5992.11 316.243 Q5995.51 316.243 5997.5 313.558 Q5999.49 310.872 5999.49 306.243 Q5999.49 301.636 5997.5 298.951 Q5995.51 296.243 5992.11 296.243 M5992.11 292.632 Q5997.67 292.632 6000.84 296.243 Q6004.01 299.854 6004.01 306.243 Q6004.01 312.609 6000.84 316.243 Q5997.67 319.854 5992.11 319.854 Q5986.53 319.854 5983.36 316.243 Q5980.21 312.609 5980.21 306.243 Q5980.21 299.854 5983.36 296.243 Q5986.53 292.632 5992.11 292.632 Z" fill="#000000" fill-rule="nonzero" fill-opacity="1" /><path clip-path="url(#clip500)" d="M6033.24 305.155 L6033.24 307.238 L6013.66 307.238 Q6013.94 311.636 6016.3 313.951 Q6018.68 316.243 6022.92 316.243 Q6025.37 316.243 6027.67 315.641 Q6029.98 315.039 6032.25 313.835 L6032.25 317.863 Q6029.96 318.835 6027.55 319.345 Q6025.14 319.854 6022.67 319.854 Q6016.46 319.854 6012.83 316.243 Q6009.22 312.632 6009.22 306.474 Q6009.22 300.109 6012.64 296.382 Q6016.09 292.632 6021.93 292.632 Q6027.16 292.632 6030.19 296.011 Q6033.24 299.368 6033.24 305.155 M6028.99 303.905 Q6028.94 300.41 6027.02 298.326 Q6025.12 296.243 6021.97 296.243 Q6018.41 296.243 6016.25 298.257 Q6014.12 300.271 6013.8 303.928 L6028.99 303.905 Z" fill="#000000" fill-rule="nonzero" fill-opacity="1" /><path clip-path="url(#clip500)" d="M6059.43 315.294 L6059.43 329.044 L6055.14 329.044 L6055.14 293.257 L6059.43 293.257 L6059.43 297.192 Q6060.77 294.877 6062.8 293.766 Q6064.86 292.632 6067.71 292.632 Q6072.43 292.632 6075.37 296.382 Q6078.34 300.132 6078.34 306.243 Q6078.34 312.354 6075.37 316.104 Q6072.43 319.854 6067.71 319.854 Q6064.86 319.854 6062.8 318.743 Q6060.77 317.609 6059.43 315.294 M6073.92 306.243 Q6073.92 301.544 6071.97 298.882 Q6070.05 296.197 6066.67 296.197 Q6063.29 296.197 6061.35 298.882 Q6059.43 301.544 6059.43 306.243 Q6059.43 310.942 6061.35 313.627 Q6063.29 316.289 6066.67 316.289 Q6070.05 316.289 6071.97 313.627 Q6073.92 310.942 6073.92 306.243 Z" fill="#000000" fill-rule="nonzero" fill-opacity="1" /><path clip-path="url(#clip500)" d="M6107.57 305.155 L6107.57 307.238 L6087.99 307.238 Q6088.27 311.636 6090.63 313.951 Q6093.01 316.243 6097.25 316.243 Q6099.7 316.243 6101.99 315.641 Q6104.31 315.039 6106.58 313.835 L6106.58 317.863 Q6104.29 318.835 6101.88 319.345 Q6099.47 319.854 6096.99 319.854 Q6090.79 319.854 6087.16 316.243 Q6083.55 312.632 6083.55 306.474 Q6083.55 300.109 6086.97 296.382 Q6090.42 292.632 6096.25 292.632 Q6101.48 292.632 6104.52 296.011 Q6107.57 299.368 6107.57 305.155 M6103.31 303.905 Q6103.27 300.41 6101.35 298.326 Q6099.45 296.243 6096.3 296.243 Q6092.74 296.243 6090.58 298.257 Q6088.45 300.271 6088.13 303.928 L6103.31 303.905 Z" fill="#000000" fill-rule="nonzero" fill-opacity="1" /><path clip-path="url(#clip500)" d="M6133.92 315.78 L6144.89 315.78 L6144.89 293.257 L6149.17 293.257 L6149.17 319.183 L6114.4 319.183 L6114.4 293.257 L6118.68 293.257 L6118.68 315.78 L6129.63 315.78 L6129.63 293.257 L6133.92 293.257 L6133.92 315.78 Z" fill="#000000" fill-rule="nonzero" fill-opacity="1" /><path clip-path="url(#clip500)" d="M6180.12 305.155 L6180.12 307.238 L6160.54 307.238 Q6160.81 311.636 6163.17 313.951 Q6165.56 316.243 6169.79 316.243 Q6172.25 316.243 6174.54 315.641 Q6176.85 315.039 6179.12 313.835 L6179.12 317.863 Q6176.83 318.835 6174.42 319.345 Q6172.02 319.854 6169.54 319.854 Q6163.34 319.854 6159.7 316.243 Q6156.09 312.632 6156.09 306.474 Q6156.09 300.109 6159.52 296.382 Q6162.97 292.632 6168.8 292.632 Q6174.03 292.632 6177.06 296.011 Q6180.12 299.368 6180.12 305.155 M6175.86 303.905 Q6175.81 300.41 6173.89 298.326 Q6171.99 296.243 6168.85 296.243 Q6165.28 296.243 6163.13 298.257 Q6161 300.271 6160.67 303.928 L6175.86 303.905 Z" fill="#000000" fill-rule="nonzero" fill-opacity="1" /><path clip-path="url(#clip500)" d="M6186.95 293.257 L6191.23 293.257 L6191.23 303.835 L6205.05 303.835 L6205.05 293.257 L6209.33 293.257 L6209.33 319.183 L6205.05 319.183 L6205.05 307.238 L6191.23 307.238 L6191.23 319.183 L6186.95 319.183 L6186.95 293.257 Z" fill="#000000" fill-rule="nonzero" fill-opacity="1" /><path clip-path="url(#clip500)" d="M6240.14 293.257 L6240.14 319.183 L6235.91 319.183 L6235.91 298.373 L6223.41 319.183 L6217.94 319.183 L6217.94 293.257 L6222.18 293.257 L6222.18 314.021 L6234.66 293.257 L6240.14 293.257 Z" fill="#000000" fill-rule="nonzero" fill-opacity="1" /><path clip-path="url(#clip500)" d="M6271.09 305.155 L6271.09 307.238 L6251.51 307.238 Q6251.79 311.636 6254.15 313.951 Q6256.53 316.243 6260.77 316.243 Q6263.22 316.243 6265.51 315.641 Q6267.83 315.039 6270.1 313.835 L6270.1 317.863 Q6267.8 318.835 6265.4 319.345 Q6262.99 319.854 6260.51 319.854 Q6254.31 319.854 6250.67 316.243 Q6247.06 312.632 6247.06 306.474 Q6247.06 300.109 6250.49 296.382 Q6253.94 292.632 6259.77 292.632 Q6265 292.632 6268.04 296.011 Q6271.09 299.368 6271.09 305.155 M6266.83 303.905 Q6266.79 300.41 6264.86 298.326 Q6262.97 296.243 6259.82 296.243 Q6256.25 296.243 6254.1 298.257 Q6251.97 300.271 6251.65 303.928 L6266.83 303.905 Z" fill="#000000" fill-rule="nonzero" fill-opacity="1" /><polyline clip-path="url(#clip500)" style="stroke:#0000ff; stroke-linecap:round; stroke-linejoin:round; stroke-width:8; stroke-opacity:1; fill:none" stroke-dasharray="32, 20" points="5277.9,353.743 5700.4,353.743 "/>
<path clip-path="url(#clip500)" d="M5770.82 336.463 L5800.05 336.463 L5800.05 340.398 L5787.78 340.398 L5787.78 371.023 L5783.08 371.023 L5783.08 340.398 L5770.82 340.398 L5770.82 336.463 Z" fill="#000000" fill-rule="nonzero" fill-opacity="1" /><path clip-path="url(#clip500)" d="M5826.56 356.995 L5826.56 359.078 L5806.97 359.078 Q5807.25 363.476 5809.61 365.791 Q5812 368.083 5816.23 368.083 Q5818.69 368.083 5820.98 367.481 Q5823.29 366.879 5825.56 365.675 L5825.56 369.703 Q5823.27 370.675 5820.86 371.185 Q5818.45 371.694 5815.98 371.694 Q5809.77 371.694 5806.14 368.083 Q5802.53 364.472 5802.53 358.314 Q5802.53 351.949 5805.95 348.222 Q5809.4 344.472 5815.24 344.472 Q5820.47 344.472 5823.5 347.851 Q5826.56 351.208 5826.56 356.995 M5822.3 355.745 Q5822.25 352.25 5820.33 350.166 Q5818.43 348.083 5815.28 348.083 Q5811.72 348.083 5809.57 350.097 Q5807.44 352.111 5807.11 355.768 L5822.3 355.745 Z" fill="#000000" fill-rule="nonzero" fill-opacity="1" /><path clip-path="url(#clip500)" d="M5843.59 348.083 Q5840.17 348.083 5838.18 350.768 Q5836.19 353.43 5836.19 358.083 Q5836.19 362.736 5838.15 365.421 Q5840.14 368.083 5843.59 368.083 Q5847 368.083 5848.99 365.398 Q5850.98 362.712 5850.98 358.083 Q5850.98 353.476 5848.99 350.791 Q5847 348.083 5843.59 348.083 M5843.59 344.472 Q5849.15 344.472 5852.32 348.083 Q5855.49 351.694 5855.49 358.083 Q5855.49 364.449 5852.32 368.083 Q5849.15 371.694 5843.59 371.694 Q5838.01 371.694 5834.84 368.083 Q5831.69 364.449 5831.69 358.083 Q5831.69 351.694 5834.84 348.083 Q5838.01 344.472 5843.59 344.472 Z" fill="#000000" fill-rule="nonzero" fill-opacity="1" /><path clip-path="url(#clip500)" d="M5866.67 367.134 L5866.67 380.884 L5862.39 380.884 L5862.39 345.097 L5866.67 345.097 L5866.67 349.032 Q5868.01 346.717 5870.05 345.606 Q5872.11 344.472 5874.96 344.472 Q5879.68 344.472 5882.62 348.222 Q5885.58 351.972 5885.58 358.083 Q5885.58 364.194 5882.62 367.944 Q5879.68 371.694 5874.96 371.694 Q5872.11 371.694 5870.05 370.583 Q5868.01 369.449 5866.67 367.134 M5881.16 358.083 Q5881.16 353.384 5879.22 350.722 Q5877.3 348.037 5873.92 348.037 Q5870.54 348.037 5868.59 350.722 Q5866.67 353.384 5866.67 358.083 Q5866.67 362.782 5868.59 365.467 Q5870.54 368.129 5873.92 368.129 Q5877.3 368.129 5879.22 365.467 Q5881.16 362.782 5881.16 358.083 Z" fill="#000000" fill-rule="nonzero" fill-opacity="1" /><path clip-path="url(#clip500)" d="M5914.68 345.097 L5914.68 371.023 L5910.44 371.023 L5910.44 350.213 L5897.94 371.023 L5892.48 371.023 L5892.48 345.097 L5896.72 345.097 L5896.72 365.861 L5909.19 345.097 L5914.68 345.097 Z" fill="#000000" fill-rule="nonzero" fill-opacity="1" /><path clip-path="url(#clip500)" d="M5927.74 352.574 Q5927.74 354.495 5929.22 355.583 Q5930.7 356.671 5933.45 356.671 L5939.19 356.671 L5939.19 348.5 L5933.45 348.5 Q5930.7 348.5 5929.22 349.564 Q5927.74 350.629 5927.74 352.574 M5921.67 371.023 L5929.59 359.657 Q5926.9 359.055 5925.12 357.481 Q5923.34 355.884 5923.34 352.574 Q5923.34 348.824 5925.81 346.972 Q5928.31 345.097 5933.34 345.097 L5943.48 345.097 L5943.48 371.023 L5939.19 371.023 L5939.19 360.074 L5933.89 360.074 L5926.25 371.023 L5921.67 371.023 Z" fill="#000000" fill-rule="nonzero" fill-opacity="1" /><path clip-path="url(#clip500)" d="M5953.06 365.143 L5957.94 365.143 L5957.94 371.023 L5953.06 371.023 L5953.06 365.143 M5953.06 346.509 L5957.94 346.509 L5957.94 352.388 L5953.06 352.388 L5953.06 346.509 Z" fill="#000000" fill-rule="nonzero" fill-opacity="1" /><path clip-path="url(#clip500)" d="M5987.23 337.736 L5987.23 345.097 L5996 345.097 L5996 348.407 L5987.23 348.407 L5987.23 362.481 Q5987.23 365.652 5988.08 366.555 Q5988.96 367.458 5991.62 367.458 L5996 367.458 L5996 371.023 L5991.62 371.023 Q5986.69 371.023 5984.82 369.194 Q5982.94 367.342 5982.94 362.481 L5982.94 348.407 L5979.82 348.407 L5979.82 345.097 L5982.94 345.097 L5982.94 337.736 L5987.23 337.736 Z" fill="#000000" fill-rule="nonzero" fill-opacity="1" /><path clip-path="url(#clip500)" d="M6003.34 368.384 L6013.15 368.384 L6013.15 371.023 L5999.31 371.023 L5999.31 368.476 Q6000.1 367.759 6001.55 366.462 Q6009.52 359.402 6009.52 357.226 Q6009.52 355.699 6008.31 354.773 Q6007.11 353.824 6005.14 353.824 Q6003.94 353.824 6002.53 354.24 Q6001.12 354.634 5999.45 355.444 L5999.45 352.597 Q6001.23 351.949 6002.76 351.625 Q6004.31 351.301 6005.63 351.301 Q6008.99 351.301 6011 352.828 Q6013.01 354.356 6013.01 356.856 Q6013.01 360.074 6005.35 366.648 Q6004.05 367.759 6003.34 368.384 Z" fill="#000000" fill-rule="nonzero" fill-opacity="1" /><path clip-path="url(#clip500)" d="M6036.23 349.495 L6065.91 349.495 L6065.91 353.384 L6036.23 353.384 L6036.23 349.495 M6036.23 358.939 L6065.91 358.939 L6065.91 362.875 L6036.23 362.875 L6036.23 358.939 Z" fill="#000000" fill-rule="nonzero" fill-opacity="1" /><path clip-path="url(#clip500)" d="M6090.47 335.004 L6094.73 335.004 L6094.73 371.023 L6090.47 371.023 L6090.47 335.004 Z" fill="#000000" fill-rule="nonzero" fill-opacity="1" /><path clip-path="url(#clip500)" d="M6125.19 355.375 L6125.19 371.023 L6120.93 371.023 L6120.93 355.513 Q6120.93 351.833 6119.49 350.004 Q6118.06 348.176 6115.19 348.176 Q6111.74 348.176 6109.75 350.375 Q6107.76 352.574 6107.76 356.37 L6107.76 371.023 L6103.48 371.023 L6103.48 345.097 L6107.76 345.097 L6107.76 349.125 Q6109.29 346.787 6111.35 345.629 Q6113.43 344.472 6116.14 344.472 Q6120.61 344.472 6122.9 347.25 Q6125.19 350.004 6125.19 355.375 Z" fill="#000000" fill-rule="nonzero" fill-opacity="1" /><path clip-path="url(#clip500)" d="M6143.92 335.051 Q6140.81 340.375 6139.31 345.583 Q6137.8 350.791 6137.8 356.138 Q6137.8 361.486 6139.31 366.74 Q6140.84 371.972 6143.92 377.273 L6140.21 377.273 Q6136.74 371.833 6135 366.578 Q6133.29 361.324 6133.29 356.138 Q6133.29 350.976 6135 345.745 Q6136.72 340.514 6140.21 335.051 L6143.92 335.051 Z" fill="#000000" fill-rule="nonzero" fill-opacity="1" /><path clip-path="url(#clip500)" d="M6156.81 367.087 L6173.13 367.087 L6173.13 371.023 L6151.18 371.023 L6151.18 367.087 Q6153.85 364.333 6158.43 359.703 Q6163.04 355.05 6164.22 353.708 Q6166.46 351.185 6167.34 349.449 Q6168.24 347.689 6168.24 346 Q6168.24 343.245 6166.3 341.509 Q6164.38 339.773 6161.28 339.773 Q6159.08 339.773 6156.62 340.537 Q6154.19 341.301 6151.42 342.851 L6151.42 338.129 Q6154.24 336.995 6156.69 336.416 Q6159.15 335.838 6161.18 335.838 Q6166.55 335.838 6169.75 338.523 Q6172.94 341.208 6172.94 345.699 Q6172.94 347.828 6172.13 349.75 Q6171.35 351.648 6169.24 354.24 Q6168.66 354.912 6165.56 358.129 Q6162.46 361.324 6156.81 367.087 Z" fill="#000000" fill-rule="nonzero" fill-opacity="1" /><path clip-path="url(#clip500)" d="M6181.67 335.051 L6185.37 335.051 Q6188.85 340.514 6190.56 345.745 Q6192.29 350.976 6192.29 356.138 Q6192.29 361.324 6190.56 366.578 Q6188.85 371.833 6185.37 377.273 L6181.67 377.273 Q6184.75 371.972 6186.25 366.74 Q6187.78 361.486 6187.78 356.138 Q6187.78 350.791 6186.25 345.583 Q6184.75 340.375 6181.67 335.051 Z" fill="#000000" fill-rule="nonzero" fill-opacity="1" /><path clip-path="url(#clip500)" d="M6208.41 336.463 L6212.34 336.463 L6200.3 375.421 L6196.37 375.421 L6208.41 336.463 Z" fill="#000000" fill-rule="nonzero" fill-opacity="1" /><path clip-path="url(#clip500)" d="M6231.92 358.963 L6230.91 353.615 Q6229.86 348.129 6225.74 348.129 Q6222.64 348.129 6221.23 350.676 Q6219.45 353.87 6219.45 358.083 Q6219.45 363.175 6221.18 365.606 Q6222.94 368.083 6225.74 368.083 Q6228.85 368.083 6230.51 363.152 L6231.92 358.963 M6234.31 351.879 L6236.6 345.097 L6240.4 345.097 L6235.65 359.148 L6236.58 364.217 Q6236.79 365.351 6237.6 366.3 Q6238.54 367.412 6239.29 367.412 L6241.32 367.412 L6241.32 371.023 L6238.78 371.023 Q6236.6 371.023 6234.66 369.078 Q6233.71 368.106 6233.31 366.069 Q6232.25 368.638 6230.07 370.652 Q6229.05 371.601 6225.74 371.601 Q6220.3 371.601 6217.66 368.083 Q6214.96 364.449 6214.96 358.083 Q6214.96 351.277 6217.9 348.083 Q6221.16 344.518 6225.74 344.518 Q6232.94 344.518 6234.31 351.879 Z" fill="#000000" fill-rule="nonzero" fill-opacity="1" /></svg>
