<?xml version="1.0" encoding="utf-8"?>
<svg xmlns="http://www.w3.org/2000/svg" xmlns:xlink="http://www.w3.org/1999/xlink" width="1650" height="1050" viewBox="0 0 6600 4200">
<defs>
  <clipPath id="clip610">
    <rect x="0" y="0" width="6600" height="4200"/>
  </clipPath>
</defs>
<path clip-path="url(#clip610)" d="M0 4200 L6600 4200 L6600 0 L0 0  Z" fill="#ffffff" fill-rule="evenodd" fill-opacity="1"/>
<defs>
  <clipPath id="clip611">
    <rect x="215" y="120" width="6338" height="3881"/>
  </clipPath>
</defs>
<path clip-path="url(#clip610)" d="M499.941 4000.91 L6552.76 4000.91 L6552.76 120.723 L499.941 120.723  Z" fill="#ffffff" fill-rule="evenodd" fill-opacity="1"/>
<defs>
  <clipPath id="clip612">
    <rect x="499" y="120" width="6054" height="3881"/>
  </clipPath>
</defs>
<polyline clip-path="url(#clip612)" style="stroke:#000000; stroke-linecap:round; stroke-linejoin:round; stroke-width:2; stroke-opacity:0.1; fill:none" points="1305.71,4000.91 1305.71,120.723 "/>
<polyline clip-path="url(#clip612)" style="stroke:#000000; stroke-linecap:round; stroke-linejoin:round; stroke-width:2; stroke-opacity:0.1; fill:none" points="2574.65,4000.91 2574.65,120.723 "/>
<polyline clip-path="url(#clip612)" style="stroke:#000000; stroke-linecap:round; stroke-linejoin:round; stroke-width:2; stroke-opacity:0.1; fill:none" points="3843.58,4000.91 3843.58,120.723 "/>
<polyline clip-path="url(#clip612)" style="stroke:#000000; stroke-linecap:round; stroke-linejoin:round; stroke-width:2; stroke-opacity:0.1; fill:none" points="5112.52,4000.91 5112.52,120.723 "/>
<polyline clip-path="url(#clip612)" style="stroke:#000000; stroke-linecap:round; stroke-linejoin:round; stroke-width:2; stroke-opacity:0.1; fill:none" points="6381.45,4000.91 6381.45,120.723 "/>
<polyline clip-path="url(#clip612)" style="stroke:#000000; stroke-linecap:round; stroke-linejoin:round; stroke-width:2; stroke-opacity:0.1; fill:none" points="499.941,3458.48 6552.76,3458.48 "/>
<polyline clip-path="url(#clip612)" style="stroke:#000000; stroke-linecap:round; stroke-linejoin:round; stroke-width:2; stroke-opacity:0.1; fill:none" points="499.941,2626.54 6552.76,2626.54 "/>
<polyline clip-path="url(#clip612)" style="stroke:#000000; stroke-linecap:round; stroke-linejoin:round; stroke-width:2; stroke-opacity:0.1; fill:none" points="499.941,1794.59 6552.76,1794.59 "/>
<polyline clip-path="url(#clip612)" style="stroke:#000000; stroke-linecap:round; stroke-linejoin:round; stroke-width:2; stroke-opacity:0.1; fill:none" points="499.941,962.651 6552.76,962.651 "/>
<polyline clip-path="url(#clip612)" style="stroke:#000000; stroke-linecap:round; stroke-linejoin:round; stroke-width:2; stroke-opacity:0.1; fill:none" points="499.941,130.706 6552.76,130.706 "/>
<polyline clip-path="url(#clip610)" style="stroke:#000000; stroke-linecap:round; stroke-linejoin:round; stroke-width:4; stroke-opacity:1; fill:none" points="499.941,4000.91 6552.76,4000.91 "/>
<polyline clip-path="url(#clip610)" style="stroke:#000000; stroke-linecap:round; stroke-linejoin:round; stroke-width:4; stroke-opacity:1; fill:none" points="1305.71,4000.91 1305.71,3982.01 "/>
<polyline clip-path="url(#clip610)" style="stroke:#000000; stroke-linecap:round; stroke-linejoin:round; stroke-width:4; stroke-opacity:1; fill:none" points="2574.65,4000.91 2574.65,3982.01 "/>
<polyline clip-path="url(#clip610)" style="stroke:#000000; stroke-linecap:round; stroke-linejoin:round; stroke-width:4; stroke-opacity:1; fill:none" points="3843.58,4000.91 3843.58,3982.01 "/>
<polyline clip-path="url(#clip610)" style="stroke:#000000; stroke-linecap:round; stroke-linejoin:round; stroke-width:4; stroke-opacity:1; fill:none" points="5112.52,4000.91 5112.52,3982.01 "/>
<polyline clip-path="url(#clip610)" style="stroke:#000000; stroke-linecap:round; stroke-linejoin:round; stroke-width:4; stroke-opacity:1; fill:none" points="6381.45,4000.91 6381.45,3982.01 "/>
<path clip-path="url(#clip610)" d="M1283.9 4065.43 Q1280.29 4065.43 1278.46 4068.99 Q1276.65 4072.54 1276.65 4079.67 Q1276.65 4086.77 1278.46 4090.34 Q1280.29 4093.88 1283.9 4093.88 Q1287.53 4093.88 1289.34 4090.34 Q1291.17 4086.77 1291.17 4079.67 Q1291.17 4072.54 1289.34 4068.99 Q1287.53 4065.43 1283.9 4065.43 M1283.9 4061.73 Q1289.71 4061.73 1292.76 4066.33 Q1295.84 4070.92 1295.84 4079.67 Q1295.84 4088.39 1292.76 4093 Q1289.71 4097.58 1283.9 4097.58 Q1278.09 4097.58 1275.01 4093 Q1271.95 4088.39 1271.95 4079.67 Q1271.95 4070.92 1275.01 4066.33 Q1278.09 4061.73 1283.9 4061.73 Z" fill="#000000" fill-rule="nonzero" fill-opacity="1" /><path clip-path="url(#clip610)" d="M1304.06 4091.03 L1308.94 4091.03 L1308.94 4096.91 L1304.06 4096.91 L1304.06 4091.03 Z" fill="#000000" fill-rule="nonzero" fill-opacity="1" /><path clip-path="url(#clip610)" d="M1323.16 4092.98 L1339.48 4092.98 L1339.48 4096.91 L1317.53 4096.91 L1317.53 4092.98 Q1320.19 4090.22 1324.78 4085.59 Q1329.38 4080.94 1330.56 4079.6 Q1332.81 4077.07 1333.69 4075.34 Q1334.59 4073.58 1334.59 4071.89 Q1334.59 4069.13 1332.65 4067.4 Q1330.73 4065.66 1327.62 4065.66 Q1325.42 4065.66 1322.97 4066.42 Q1320.54 4067.19 1317.76 4068.74 L1317.76 4064.02 Q1320.59 4062.88 1323.04 4062.3 Q1325.49 4061.73 1327.53 4061.73 Q1332.9 4061.73 1336.1 4064.41 Q1339.29 4067.1 1339.29 4071.59 Q1339.29 4073.72 1338.48 4075.64 Q1337.69 4077.54 1335.59 4080.13 Q1335.01 4080.8 1331.91 4084.02 Q1328.8 4087.21 1323.16 4092.98 Z" fill="#000000" fill-rule="nonzero" fill-opacity="1" /><path clip-path="url(#clip610)" d="M2551.79 4065.43 Q2548.18 4065.43 2546.35 4068.99 Q2544.54 4072.54 2544.54 4079.67 Q2544.54 4086.77 2546.35 4090.34 Q2548.18 4093.88 2551.79 4093.88 Q2555.42 4093.88 2557.23 4090.34 Q2559.06 4086.77 2559.06 4079.67 Q2559.06 4072.54 2557.23 4068.99 Q2555.42 4065.43 2551.79 4065.43 M2551.79 4061.73 Q2557.6 4061.73 2560.65 4066.33 Q2563.73 4070.92 2563.73 4079.67 Q2563.73 4088.39 2560.65 4093 Q2557.6 4097.58 2551.79 4097.58 Q2545.98 4097.58 2542.9 4093 Q2539.84 4088.39 2539.84 4079.67 Q2539.84 4070.92 2542.9 4066.33 Q2545.98 4061.73 2551.79 4061.73 Z" fill="#000000" fill-rule="nonzero" fill-opacity="1" /><path clip-path="url(#clip610)" d="M2571.95 4091.03 L2576.84 4091.03 L2576.84 4096.91 L2571.95 4096.91 L2571.95 4091.03 Z" fill="#000000" fill-rule="nonzero" fill-opacity="1" /><path clip-path="url(#clip610)" d="M2599.87 4066.42 L2588.06 4084.87 L2599.87 4084.87 L2599.87 4066.42 M2598.64 4062.35 L2604.52 4062.35 L2604.52 4084.87 L2609.45 4084.87 L2609.45 4088.76 L2604.52 4088.76 L2604.52 4096.91 L2599.87 4096.91 L2599.87 4088.76 L2584.27 4088.76 L2584.27 4084.25 L2598.64 4062.35 Z" fill="#000000" fill-rule="nonzero" fill-opacity="1" /><path clip-path="url(#clip610)" d="M3820.89 4065.43 Q3817.27 4065.43 3815.45 4068.99 Q3813.64 4072.54 3813.64 4079.67 Q3813.64 4086.77 3815.45 4090.34 Q3817.27 4093.88 3820.89 4093.88 Q3824.52 4093.88 3826.32 4090.34 Q3828.15 4086.77 3828.15 4079.67 Q3828.15 4072.54 3826.32 4068.99 Q3824.52 4065.43 3820.89 4065.43 M3820.89 4061.73 Q3826.7 4061.73 3829.75 4066.33 Q3832.83 4070.92 3832.83 4079.67 Q3832.83 4088.39 3829.75 4093 Q3826.7 4097.58 3820.89 4097.58 Q3815.08 4097.58 3812 4093 Q3808.94 4088.39 3808.94 4079.67 Q3808.94 4070.92 3812 4066.33 Q3815.08 4061.73 3820.89 4061.73 Z" fill="#000000" fill-rule="nonzero" fill-opacity="1" /><path clip-path="url(#clip610)" d="M3841.05 4091.03 L3845.93 4091.03 L3845.93 4096.91 L3841.05 4096.91 L3841.05 4091.03 Z" fill="#000000" fill-rule="nonzero" fill-opacity="1" /><path clip-path="url(#clip610)" d="M3866.7 4077.77 Q3863.55 4077.77 3861.7 4079.92 Q3859.87 4082.07 3859.87 4085.82 Q3859.87 4089.55 3861.7 4091.73 Q3863.55 4093.88 3866.7 4093.88 Q3869.84 4093.88 3871.67 4091.73 Q3873.52 4089.55 3873.52 4085.82 Q3873.52 4082.07 3871.67 4079.92 Q3869.84 4077.77 3866.7 4077.77 M3875.98 4063.11 L3875.98 4067.37 Q3874.22 4066.54 3872.41 4066.1 Q3870.63 4065.66 3868.87 4065.66 Q3864.24 4065.66 3861.79 4068.79 Q3859.36 4071.91 3859.01 4078.23 Q3860.38 4076.22 3862.44 4075.15 Q3864.5 4074.06 3866.97 4074.06 Q3872.18 4074.06 3875.19 4077.23 Q3878.22 4080.38 3878.22 4085.82 Q3878.22 4091.15 3875.07 4094.36 Q3871.93 4097.58 3866.7 4097.58 Q3860.7 4097.58 3857.53 4093 Q3854.36 4088.39 3854.36 4079.67 Q3854.36 4071.47 3858.25 4066.61 Q3862.13 4061.73 3868.69 4061.73 Q3870.45 4061.73 3872.23 4062.07 Q3874.03 4062.42 3875.98 4063.11 Z" fill="#000000" fill-rule="nonzero" fill-opacity="1" /><path clip-path="url(#clip610)" d="M5089.95 4065.43 Q5086.34 4065.43 5084.51 4068.99 Q5082.7 4072.54 5082.7 4079.67 Q5082.7 4086.77 5084.51 4090.34 Q5086.34 4093.88 5089.95 4093.88 Q5093.58 4093.88 5095.39 4090.34 Q5097.21 4086.77 5097.21 4079.67 Q5097.21 4072.54 5095.39 4068.99 Q5093.58 4065.43 5089.95 4065.43 M5089.95 4061.73 Q5095.76 4061.73 5098.81 4066.33 Q5101.89 4070.92 5101.89 4079.67 Q5101.89 4088.39 5098.81 4093 Q5095.76 4097.58 5089.95 4097.58 Q5084.14 4097.58 5081.06 4093 Q5078 4088.39 5078 4079.67 Q5078 4070.92 5081.06 4066.33 Q5084.14 4061.73 5089.95 4061.73 Z" fill="#000000" fill-rule="nonzero" fill-opacity="1" /><path clip-path="url(#clip610)" d="M5110.11 4091.03 L5114.99 4091.03 L5114.99 4096.91 L5110.11 4096.91 L5110.11 4091.03 Z" fill="#000000" fill-rule="nonzero" fill-opacity="1" /><path clip-path="url(#clip610)" d="M5135.18 4080.5 Q5131.84 4080.5 5129.92 4082.28 Q5128.03 4084.06 5128.03 4087.19 Q5128.03 4090.31 5129.92 4092.1 Q5131.84 4093.88 5135.18 4093.88 Q5138.51 4093.88 5140.43 4092.1 Q5142.35 4090.29 5142.35 4087.19 Q5142.35 4084.06 5140.43 4082.28 Q5138.53 4080.5 5135.18 4080.5 M5130.5 4078.51 Q5127.49 4077.77 5125.8 4075.71 Q5124.14 4073.65 5124.14 4070.68 Q5124.14 4066.54 5127.08 4064.13 Q5130.04 4061.73 5135.18 4061.73 Q5140.34 4061.73 5143.28 4064.13 Q5146.22 4066.54 5146.22 4070.68 Q5146.22 4073.65 5144.53 4075.71 Q5142.86 4077.77 5139.88 4078.51 Q5143.26 4079.3 5145.13 4081.59 Q5147.03 4083.88 5147.03 4087.19 Q5147.03 4092.21 5143.95 4094.9 Q5140.9 4097.58 5135.18 4097.58 Q5129.46 4097.58 5126.38 4094.9 Q5123.33 4092.21 5123.33 4087.19 Q5123.33 4083.88 5125.22 4081.59 Q5127.12 4079.3 5130.5 4078.51 M5128.79 4071.12 Q5128.79 4073.81 5130.46 4075.31 Q5132.15 4076.82 5135.18 4076.82 Q5138.19 4076.82 5139.88 4075.31 Q5141.59 4073.81 5141.59 4071.12 Q5141.59 4068.44 5139.88 4066.93 Q5138.19 4065.43 5135.18 4065.43 Q5132.15 4065.43 5130.46 4066.93 Q5128.79 4068.44 5128.79 4071.12 Z" fill="#000000" fill-rule="nonzero" fill-opacity="1" /><path clip-path="url(#clip610)" d="M6348.6 4092.98 L6356.24 4092.98 L6356.24 4066.61 L6347.93 4068.28 L6347.93 4064.02 L6356.2 4062.35 L6360.87 4062.35 L6360.87 4092.98 L6368.51 4092.98 L6368.51 4096.91 L6348.6 4096.91 L6348.6 4092.98 Z" fill="#000000" fill-rule="nonzero" fill-opacity="1" /><path clip-path="url(#clip610)" d="M6377.95 4091.03 L6382.84 4091.03 L6382.84 4096.91 L6377.95 4096.91 L6377.95 4091.03 Z" fill="#000000" fill-rule="nonzero" fill-opacity="1" /><path clip-path="url(#clip610)" d="M6403.02 4065.43 Q6399.41 4065.43 6397.58 4068.99 Q6395.78 4072.54 6395.78 4079.67 Q6395.78 4086.77 6397.58 4090.34 Q6399.41 4093.88 6403.02 4093.88 Q6406.66 4093.88 6408.46 4090.34 Q6410.29 4086.77 6410.29 4079.67 Q6410.29 4072.54 6408.46 4068.99 Q6406.66 4065.43 6403.02 4065.43 M6403.02 4061.73 Q6408.83 4061.73 6411.89 4066.33 Q6414.97 4070.92 6414.97 4079.67 Q6414.97 4088.39 6411.89 4093 Q6408.83 4097.58 6403.02 4097.58 Q6397.21 4097.58 6394.13 4093 Q6391.08 4088.39 6391.08 4079.67 Q6391.08 4070.92 6394.13 4066.33 Q6397.21 4061.73 6403.02 4061.73 Z" fill="#000000" fill-rule="nonzero" fill-opacity="1" /><path clip-path="url(#clip610)" d="M3258.86 4164.92 L3258.86 4171.69 Q3255.61 4168.67 3251.92 4167.17 Q3248.26 4165.68 3244.12 4165.68 Q3235.98 4165.68 3231.65 4170.68 Q3227.32 4175.64 3227.32 4185.06 Q3227.32 4194.45 3231.65 4199.45 Q3235.98 4204.41 3244.12 4204.41 Q3248.26 4204.41 3251.92 4202.92 Q3255.61 4201.42 3258.86 4198.4 L3258.86 4205.11 Q3255.49 4207.41 3251.7 4208.55 Q3247.94 4209.7 3243.74 4209.7 Q3232.95 4209.7 3226.75 4203.11 Q3220.54 4196.49 3220.54 4185.06 Q3220.54 4173.6 3226.75 4167.02 Q3232.95 4160.4 3243.74 4160.4 Q3248.01 4160.4 3251.76 4161.54 Q3255.55 4162.66 3258.86 4164.92 Z" fill="#000000" fill-rule="nonzero" fill-opacity="1" /><path clip-path="url(#clip610)" d="M3268.31 4173.13 L3274.14 4173.13 L3274.14 4189.87 L3290.66 4173.13 L3297.85 4173.13 L3284.23 4186.91 L3299.6 4208.77 L3293.05 4208.77 L3280.41 4190.79 L3274.14 4197.16 L3274.14 4208.77 L3268.31 4208.77 L3268.31 4173.13 Z" fill="#000000" fill-rule="nonzero" fill-opacity="1" /><path clip-path="url(#clip610)" d="M3321.72 4177.23 Q3317.01 4177.23 3314.27 4180.92 Q3311.54 4184.59 3311.54 4190.98 Q3311.54 4197.38 3314.24 4201.07 Q3316.98 4204.73 3321.72 4204.73 Q3326.4 4204.73 3329.14 4201.04 Q3331.88 4197.35 3331.88 4190.98 Q3331.88 4184.65 3329.14 4180.96 Q3326.4 4177.23 3321.72 4177.23 M3321.72 4172.27 Q3329.36 4172.27 3333.72 4177.23 Q3338.08 4182.2 3338.08 4190.98 Q3338.08 4199.74 3333.72 4204.73 Q3329.36 4209.7 3321.72 4209.7 Q3314.05 4209.7 3309.69 4204.73 Q3305.36 4199.74 3305.36 4190.98 Q3305.36 4182.2 3309.69 4177.23 Q3314.05 4172.27 3321.72 4172.27 Z" fill="#000000" fill-rule="nonzero" fill-opacity="1" /><path clip-path="url(#clip610)" d="M3353.46 4203.43 L3353.46 4222.33 L3347.57 4222.33 L3347.57 4173.13 L3353.46 4173.13 L3353.46 4178.54 Q3355.3 4175.35 3358.1 4173.83 Q3360.94 4172.27 3364.85 4172.27 Q3371.34 4172.27 3375.39 4177.42 Q3379.46 4182.58 3379.46 4190.98 Q3379.46 4199.39 3375.39 4204.54 Q3371.34 4209.7 3364.85 4209.7 Q3360.94 4209.7 3358.1 4208.17 Q3355.3 4206.61 3353.46 4203.43 M3373.38 4190.98 Q3373.38 4184.52 3370.71 4180.86 Q3368.07 4177.17 3363.42 4177.17 Q3358.77 4177.17 3356.1 4180.86 Q3353.46 4184.52 3353.46 4190.98 Q3353.46 4197.44 3356.1 4201.14 Q3358.77 4204.8 3363.42 4204.8 Q3368.07 4204.8 3370.71 4201.14 Q3373.38 4197.44 3373.38 4190.98 Z" fill="#000000" fill-rule="nonzero" fill-opacity="1" /><path clip-path="url(#clip610)" d="M3402.98 4177.23 Q3398.27 4177.23 3395.53 4180.92 Q3392.8 4184.59 3392.8 4190.98 Q3392.8 4197.38 3395.5 4201.07 Q3398.24 4204.73 3402.98 4204.73 Q3407.66 4204.73 3410.4 4201.04 Q3413.13 4197.35 3413.13 4190.98 Q3413.13 4184.65 3410.4 4180.96 Q3407.66 4177.23 3402.98 4177.23 M3402.98 4172.27 Q3410.62 4172.27 3414.98 4177.23 Q3419.34 4182.2 3419.34 4190.98 Q3419.34 4199.74 3414.98 4204.73 Q3410.62 4209.7 3402.98 4209.7 Q3395.31 4209.7 3390.95 4204.73 Q3386.62 4199.74 3386.62 4190.98 Q3386.62 4182.2 3390.95 4177.23 Q3395.31 4172.27 3402.98 4172.27 Z" fill="#000000" fill-rule="nonzero" fill-opacity="1" /><path clip-path="url(#clip610)" d="M3454.7 4174.5 L3454.7 4179.97 Q3452.22 4178.6 3449.71 4177.93 Q3447.22 4177.23 3444.68 4177.23 Q3438.98 4177.23 3435.83 4180.86 Q3432.68 4184.46 3432.68 4190.98 Q3432.68 4197.51 3435.83 4201.14 Q3438.98 4204.73 3444.68 4204.73 Q3447.22 4204.73 3449.71 4204.06 Q3452.22 4203.36 3454.7 4202 L3454.7 4207.41 Q3452.25 4208.55 3449.61 4209.12 Q3447 4209.7 3444.04 4209.7 Q3435.99 4209.7 3431.24 4204.64 Q3426.5 4199.58 3426.5 4190.98 Q3426.5 4182.26 3431.28 4177.26 Q3436.08 4172.27 3444.42 4172.27 Q3447.13 4172.27 3449.71 4172.84 Q3452.28 4173.38 3454.7 4174.5 Z" fill="#000000" fill-rule="nonzero" fill-opacity="1" /><path clip-path="url(#clip610)" d="M3460.65 4173.13 L3494.81 4173.13 L3494.81 4177.81 L3480.61 4177.81 L3480.61 4208.77 L3474.85 4208.77 L3474.85 4177.81 L3460.65 4177.81 L3460.65 4173.13 Z" fill="#000000" fill-rule="nonzero" fill-opacity="1" /><path clip-path="url(#clip610)" d="M3525.04 4198.21 Q3525.04 4195.34 3522.94 4193.85 Q3520.87 4192.35 3516.86 4192.35 L3508.52 4192.35 L3508.52 4204.1 L3516.86 4204.1 Q3520.87 4204.1 3522.94 4202.6 Q3525.04 4201.07 3525.04 4198.21 M3502.64 4173.13 L3508.52 4173.13 L3508.52 4187.67 L3517.12 4187.67 Q3523.93 4187.67 3527.59 4190.28 Q3531.28 4192.86 3531.28 4198.21 Q3531.28 4203.55 3527.59 4206.16 Q3523.93 4208.77 3517.12 4208.77 L3502.64 4208.77 L3502.64 4173.13 Z" fill="#000000" fill-rule="nonzero" fill-opacity="1" /><path clip-path="url(#clip610)" d="M3567.66 4203.43 L3567.66 4222.33 L3561.77 4222.33 L3561.77 4173.13 L3567.66 4173.13 L3567.66 4178.54 Q3569.51 4175.35 3572.31 4173.83 Q3575.14 4172.27 3579.06 4172.27 Q3585.55 4172.27 3589.59 4177.42 Q3593.67 4182.58 3593.67 4190.98 Q3593.67 4199.39 3589.59 4204.54 Q3585.55 4209.7 3579.06 4209.7 Q3575.14 4209.7 3572.31 4208.17 Q3569.51 4206.61 3567.66 4203.43 M3587.59 4190.98 Q3587.59 4184.52 3584.91 4180.86 Q3582.27 4177.17 3577.62 4177.17 Q3572.98 4177.17 3570.3 4180.86 Q3567.66 4184.52 3567.66 4190.98 Q3567.66 4197.44 3570.3 4201.14 Q3572.98 4204.8 3577.62 4204.8 Q3582.27 4204.8 3584.91 4201.14 Q3587.59 4197.44 3587.59 4190.98 Z" fill="#000000" fill-rule="nonzero" fill-opacity="1" /><path clip-path="url(#clip610)" d="M3617.19 4177.23 Q3612.48 4177.23 3609.74 4180.92 Q3607 4184.59 3607 4190.98 Q3607 4197.38 3609.71 4201.07 Q3612.44 4204.73 3617.19 4204.73 Q3621.87 4204.73 3624.6 4201.04 Q3627.34 4197.35 3627.34 4190.98 Q3627.34 4184.65 3624.6 4180.96 Q3621.87 4177.23 3617.19 4177.23 M3617.19 4172.27 Q3624.83 4172.27 3629.19 4177.23 Q3633.55 4182.2 3633.55 4190.98 Q3633.55 4199.74 3629.19 4204.73 Q3624.83 4209.7 3617.19 4209.7 Q3609.52 4209.7 3605.16 4204.73 Q3600.83 4199.74 3600.83 4190.98 Q3600.83 4182.2 3605.16 4177.23 Q3609.52 4172.27 3617.19 4172.27 Z" fill="#000000" fill-rule="nonzero" fill-opacity="1" /><path clip-path="url(#clip610)" d="M3668.91 4174.5 L3668.91 4179.97 Q3666.43 4178.6 3663.91 4177.93 Q3661.43 4177.23 3658.88 4177.23 Q3653.19 4177.23 3650.03 4180.86 Q3646.88 4184.46 3646.88 4190.98 Q3646.88 4197.51 3650.03 4201.14 Q3653.19 4204.73 3658.88 4204.73 Q3661.43 4204.73 3663.91 4204.06 Q3666.43 4203.36 3668.91 4202 L3668.91 4207.41 Q3666.46 4208.55 3663.82 4209.12 Q3661.21 4209.7 3658.25 4209.7 Q3650.19 4209.7 3645.45 4204.64 Q3640.71 4199.58 3640.71 4190.98 Q3640.71 4182.26 3645.48 4177.26 Q3650.29 4172.27 3658.63 4172.27 Q3661.33 4172.27 3663.91 4172.84 Q3666.49 4173.38 3668.91 4174.5 Z" fill="#000000" fill-rule="nonzero" fill-opacity="1" /><path clip-path="url(#clip610)" d="M3674.86 4173.13 L3709.01 4173.13 L3709.01 4177.81 L3694.82 4177.81 L3694.82 4208.77 L3689.06 4208.77 L3689.06 4177.81 L3674.86 4177.81 L3674.86 4173.13 Z" fill="#000000" fill-rule="nonzero" fill-opacity="1" /><path clip-path="url(#clip610)" d="M3733.27 4190.86 Q3726.17 4190.86 3723.43 4192.48 Q3720.69 4194.1 3720.69 4198.02 Q3720.69 4201.14 3722.73 4202.98 Q3724.8 4204.8 3728.33 4204.8 Q3733.2 4204.8 3736.13 4201.36 Q3739.09 4197.89 3739.09 4192.16 L3739.09 4190.86 L3733.27 4190.86 M3744.95 4188.44 L3744.95 4208.77 L3739.09 4208.77 L3739.09 4203.36 Q3737.09 4206.61 3734.09 4208.17 Q3731.1 4209.7 3726.77 4209.7 Q3721.3 4209.7 3718.05 4206.64 Q3714.84 4203.55 3714.84 4198.4 Q3714.84 4192.38 3718.85 4189.33 Q3722.89 4186.27 3730.88 4186.27 L3739.09 4186.27 L3739.09 4185.7 Q3739.09 4181.66 3736.42 4179.46 Q3733.77 4177.23 3728.97 4177.23 Q3725.91 4177.23 3723.02 4177.96 Q3720.12 4178.7 3717.45 4180.16 L3717.45 4174.75 Q3720.66 4173.51 3723.69 4172.9 Q3726.71 4172.27 3729.57 4172.27 Q3737.31 4172.27 3741.13 4176.28 Q3744.95 4180.29 3744.95 4188.44 Z" fill="#000000" fill-rule="nonzero" fill-opacity="1" /><path clip-path="url(#clip610)" d="M3758.51 4200.69 L3765.22 4200.69 L3765.22 4206.16 L3760 4216.35 L3755.9 4216.35 L3758.51 4206.16 L3758.51 4200.69 Z" fill="#000000" fill-rule="nonzero" fill-opacity="1" /><path clip-path="url(#clip610)" d="M3819.23 4192.19 L3817.83 4184.84 Q3816.4 4177.3 3810.74 4177.3 Q3806.47 4177.3 3804.53 4180.8 Q3802.08 4185.19 3802.08 4190.98 Q3802.08 4197.98 3804.47 4201.33 Q3806.89 4204.73 3810.74 4204.73 Q3815 4204.73 3817.29 4197.95 L3819.23 4192.19 M3822.51 4182.45 L3825.66 4173.13 L3830.88 4173.13 L3824.36 4192.45 L3825.63 4199.42 Q3825.92 4200.98 3827.03 4202.28 Q3828.34 4203.81 3829.36 4203.81 L3832.16 4203.81 L3832.16 4208.77 L3828.66 4208.77 Q3825.66 4208.77 3822.99 4206.1 Q3821.69 4204.76 3821.14 4201.96 Q3819.68 4205.5 3816.69 4208.27 Q3815.29 4209.57 3810.74 4209.57 Q3803.26 4209.57 3799.63 4204.73 Q3795.9 4199.74 3795.9 4190.98 Q3795.9 4181.63 3799.95 4177.23 Q3804.43 4172.33 3810.74 4172.33 Q3820.63 4172.33 3822.51 4182.45 Z" fill="#000000" fill-rule="nonzero" fill-opacity="1" /><polyline clip-path="url(#clip610)" style="stroke:#000000; stroke-linecap:round; stroke-linejoin:round; stroke-width:4; stroke-opacity:1; fill:none" points="499.941,4000.91 499.941,120.723 "/>
<polyline clip-path="url(#clip610)" style="stroke:#000000; stroke-linecap:round; stroke-linejoin:round; stroke-width:4; stroke-opacity:1; fill:none" points="499.941,3458.48 518.838,3458.48 "/>
<polyline clip-path="url(#clip610)" style="stroke:#000000; stroke-linecap:round; stroke-linejoin:round; stroke-width:4; stroke-opacity:1; fill:none" points="499.941,2626.54 518.838,2626.54 "/>
<polyline clip-path="url(#clip610)" style="stroke:#000000; stroke-linecap:round; stroke-linejoin:round; stroke-width:4; stroke-opacity:1; fill:none" points="499.941,1794.59 518.838,1794.59 "/>
<polyline clip-path="url(#clip610)" style="stroke:#000000; stroke-linecap:round; stroke-linejoin:round; stroke-width:4; stroke-opacity:1; fill:none" points="499.941,962.651 518.838,962.651 "/>
<polyline clip-path="url(#clip610)" style="stroke:#000000; stroke-linecap:round; stroke-linejoin:round; stroke-width:4; stroke-opacity:1; fill:none" points="499.941,130.706 518.838,130.706 "/>
<path clip-path="url(#clip610)" d="M96.7251 3478.28 L113.044 3478.28 L113.044 3482.21 L91.1002 3482.21 L91.1002 3478.28 Q93.7622 3475.52 98.3455 3470.89 Q102.952 3466.24 104.132 3464.9 Q106.378 3462.37 107.257 3460.64 Q108.16 3458.88 108.16 3457.19 Q108.16 3454.43 106.216 3452.7 Q104.295 3450.96 101.193 3450.96 Q98.9936 3450.96 96.5399 3451.72 Q94.1094 3452.49 91.3316 3454.04 L91.3316 3449.32 Q94.1557 3448.18 96.6094 3447.6 Q99.0631 3447.03 101.1 3447.03 Q106.47 3447.03 109.665 3449.71 Q112.859 3452.4 112.859 3456.89 Q112.859 3459.02 112.049 3460.94 Q111.262 3462.84 109.156 3465.43 Q108.577 3466.1 105.475 3469.32 Q102.373 3472.51 96.7251 3478.28 Z" fill="#000000" fill-rule="nonzero" fill-opacity="1" /><path clip-path="url(#clip610)" d="M122.859 3476.33 L127.743 3476.33 L127.743 3482.21 L122.859 3482.21 L122.859 3476.33 Z" fill="#000000" fill-rule="nonzero" fill-opacity="1" /><path clip-path="url(#clip610)" d="M148.507 3463.07 Q145.359 3463.07 143.507 3465.22 Q141.679 3467.37 141.679 3471.12 Q141.679 3474.85 143.507 3477.03 Q145.359 3479.18 148.507 3479.18 Q151.655 3479.18 153.484 3477.03 Q155.336 3474.85 155.336 3471.12 Q155.336 3467.37 153.484 3465.22 Q151.655 3463.07 148.507 3463.07 M157.79 3448.41 L157.79 3452.67 Q156.03 3451.84 154.225 3451.4 Q152.442 3450.96 150.683 3450.96 Q146.054 3450.96 143.6 3454.09 Q141.169 3457.21 140.822 3463.53 Q142.188 3461.52 144.248 3460.45 Q146.308 3459.36 148.785 3459.36 Q153.993 3459.36 157.003 3462.53 Q160.035 3465.68 160.035 3471.12 Q160.035 3476.45 156.887 3479.66 Q153.739 3482.88 148.507 3482.88 Q142.512 3482.88 139.341 3478.3 Q136.169 3473.69 136.169 3464.97 Q136.169 3456.77 140.058 3451.91 Q143.947 3447.03 150.498 3447.03 Q152.257 3447.03 154.04 3447.37 Q155.845 3447.72 157.79 3448.41 Z" fill="#000000" fill-rule="nonzero" fill-opacity="1" /><path clip-path="url(#clip610)" d="M172.118 3478.28 L188.438 3478.28 L188.438 3482.21 L166.493 3482.21 L166.493 3478.28 Q169.155 3475.52 173.739 3470.89 Q178.345 3466.24 179.526 3464.9 Q181.771 3462.37 182.651 3460.64 Q183.553 3458.88 183.553 3457.19 Q183.553 3454.43 181.609 3452.7 Q179.688 3450.96 176.586 3450.96 Q174.387 3450.96 171.933 3451.72 Q169.503 3452.49 166.725 3454.04 L166.725 3449.32 Q169.549 3448.18 172.003 3447.6 Q174.456 3447.03 176.493 3447.03 Q181.864 3447.03 185.058 3449.71 Q188.252 3452.4 188.252 3456.89 Q188.252 3459.02 187.442 3460.94 Q186.655 3462.84 184.549 3465.43 Q183.97 3466.1 180.868 3469.32 Q177.766 3472.51 172.118 3478.28 Z" fill="#000000" fill-rule="nonzero" fill-opacity="1" /><path clip-path="url(#clip610)" d="M198.299 3447.65 L216.655 3447.65 L216.655 3451.59 L202.581 3451.59 L202.581 3460.06 Q203.6 3459.71 204.618 3459.55 Q205.637 3459.36 206.655 3459.36 Q212.442 3459.36 215.822 3462.53 Q219.201 3465.71 219.201 3471.12 Q219.201 3476.7 215.729 3479.8 Q212.257 3482.88 205.938 3482.88 Q203.762 3482.88 201.493 3482.51 Q199.248 3482.14 196.84 3481.4 L196.84 3476.7 Q198.924 3477.84 201.146 3478.39 Q203.368 3478.95 205.845 3478.95 Q209.85 3478.95 212.187 3476.84 Q214.525 3474.73 214.525 3471.12 Q214.525 3467.51 212.187 3465.41 Q209.85 3463.3 205.845 3463.3 Q203.97 3463.3 202.095 3463.72 Q200.243 3464.13 198.299 3465.01 L198.299 3447.65 Z" fill="#000000" fill-rule="nonzero" fill-opacity="1" /><path clip-path="url(#clip610)" d="M238.414 3450.73 Q234.803 3450.73 232.974 3454.29 Q231.169 3457.84 231.169 3464.97 Q231.169 3472.07 232.974 3475.64 Q234.803 3479.18 238.414 3479.18 Q242.048 3479.18 243.854 3475.64 Q245.683 3472.07 245.683 3464.97 Q245.683 3457.84 243.854 3454.29 Q242.048 3450.73 238.414 3450.73 M238.414 3447.03 Q244.224 3447.03 247.28 3451.63 Q250.359 3456.22 250.359 3464.97 Q250.359 3473.69 247.28 3478.3 Q244.224 3482.88 238.414 3482.88 Q232.604 3482.88 229.525 3478.3 Q226.47 3473.69 226.47 3464.97 Q226.47 3456.22 229.525 3451.63 Q232.604 3447.03 238.414 3447.03 Z" fill="#000000" fill-rule="nonzero" fill-opacity="1" /><path clip-path="url(#clip610)" d="M286.747 3456.75 L276.169 3467.37 L286.747 3477.95 L283.993 3480.75 L273.368 3470.13 L262.743 3480.75 L260.011 3477.95 L270.567 3467.37 L260.011 3456.75 L262.743 3453.95 L273.368 3464.57 L283.993 3453.95 L286.747 3456.75 Z" fill="#000000" fill-rule="nonzero" fill-opacity="1" /><path clip-path="url(#clip610)" d="M299.108 3478.28 L306.747 3478.28 L306.747 3451.91 L298.437 3453.58 L298.437 3449.32 L306.701 3447.65 L311.377 3447.65 L311.377 3478.28 L319.016 3478.28 L319.016 3482.21 L299.108 3482.21 L299.108 3478.28 Z" fill="#000000" fill-rule="nonzero" fill-opacity="1" /><path clip-path="url(#clip610)" d="M338.46 3450.73 Q334.849 3450.73 333.02 3454.29 Q331.215 3457.84 331.215 3464.97 Q331.215 3472.07 333.02 3475.64 Q334.849 3479.18 338.46 3479.18 Q342.094 3479.18 343.9 3475.64 Q345.728 3472.07 345.728 3464.97 Q345.728 3457.84 343.9 3454.29 Q342.094 3450.73 338.46 3450.73 M338.46 3447.03 Q344.27 3447.03 347.326 3451.63 Q350.404 3456.22 350.404 3464.97 Q350.404 3473.69 347.326 3478.3 Q344.27 3482.88 338.46 3482.88 Q332.65 3482.88 329.571 3478.3 Q326.516 3473.69 326.516 3464.97 Q326.516 3456.22 329.571 3451.63 Q332.65 3447.03 338.46 3447.03 Z" fill="#000000" fill-rule="nonzero" fill-opacity="1" /><path clip-path="url(#clip610)" d="M350.404 3441.13 L374.516 3441.13 L374.516 3444.32 L350.404 3444.32 L350.404 3441.13 Z" fill="#000000" fill-rule="nonzero" fill-opacity="1" /><path clip-path="url(#clip610)" d="M393.154 3430.03 L383.562 3445.02 L393.154 3445.02 L393.154 3430.03 M392.158 3426.72 L396.935 3426.72 L396.935 3445.02 L400.941 3445.02 L400.941 3448.18 L396.935 3448.18 L396.935 3454.8 L393.154 3454.8 L393.154 3448.18 L380.478 3448.18 L380.478 3444.51 L392.158 3426.72 Z" fill="#000000" fill-rule="nonzero" fill-opacity="1" /><path clip-path="url(#clip610)" d="M96.7251 2646.33 L113.044 2646.33 L113.044 2650.27 L91.1002 2650.27 L91.1002 2646.33 Q93.7622 2643.58 98.3455 2638.95 Q102.952 2634.29 104.132 2632.95 Q106.378 2630.43 107.257 2628.69 Q108.16 2626.93 108.16 2625.24 Q108.16 2622.49 106.216 2620.75 Q104.295 2619.02 101.193 2619.02 Q98.9936 2619.02 96.5399 2619.78 Q94.1094 2620.54 91.3316 2622.1 L91.3316 2617.37 Q94.1557 2616.24 96.6094 2615.66 Q99.0631 2615.08 101.1 2615.08 Q106.47 2615.08 109.665 2617.77 Q112.859 2620.45 112.859 2624.94 Q112.859 2627.07 112.049 2628.99 Q111.262 2630.89 109.156 2633.48 Q108.577 2634.16 105.475 2637.37 Q102.373 2640.57 96.7251 2646.33 Z" fill="#000000" fill-rule="nonzero" fill-opacity="1" /><path clip-path="url(#clip610)" d="M122.859 2644.39 L127.743 2644.39 L127.743 2650.27 L122.859 2650.27 L122.859 2644.39 Z" fill="#000000" fill-rule="nonzero" fill-opacity="1" /><path clip-path="url(#clip610)" d="M148.507 2631.12 Q145.359 2631.12 143.507 2633.28 Q141.679 2635.43 141.679 2639.18 Q141.679 2642.91 143.507 2645.08 Q145.359 2647.23 148.507 2647.23 Q151.655 2647.23 153.484 2645.08 Q155.336 2642.91 155.336 2639.18 Q155.336 2635.43 153.484 2633.28 Q151.655 2631.12 148.507 2631.12 M157.79 2616.47 L157.79 2620.73 Q156.03 2619.9 154.225 2619.46 Q152.442 2619.02 150.683 2619.02 Q146.054 2619.02 143.6 2622.14 Q141.169 2625.27 140.822 2631.59 Q142.188 2629.57 144.248 2628.51 Q146.308 2627.42 148.785 2627.42 Q153.993 2627.42 157.003 2630.59 Q160.035 2633.74 160.035 2639.18 Q160.035 2644.5 156.887 2647.72 Q153.739 2650.94 148.507 2650.94 Q142.512 2650.94 139.341 2646.35 Q136.169 2641.75 136.169 2633.02 Q136.169 2624.83 140.058 2619.97 Q143.947 2615.08 150.498 2615.08 Q152.257 2615.08 154.04 2615.43 Q155.845 2615.78 157.79 2616.47 Z" fill="#000000" fill-rule="nonzero" fill-opacity="1" /><path clip-path="url(#clip610)" d="M168.137 2615.71 L186.493 2615.71 L186.493 2619.64 L172.419 2619.64 L172.419 2628.11 Q173.438 2627.77 174.456 2627.6 Q175.475 2627.42 176.493 2627.42 Q182.28 2627.42 185.66 2630.59 Q189.039 2633.76 189.039 2639.18 Q189.039 2644.76 185.567 2647.86 Q182.095 2650.94 175.776 2650.94 Q173.6 2650.94 171.331 2650.57 Q169.086 2650.2 166.678 2649.46 L166.678 2644.76 Q168.762 2645.89 170.984 2646.45 Q173.206 2647 175.683 2647 Q179.688 2647 182.026 2644.9 Q184.364 2642.79 184.364 2639.18 Q184.364 2635.57 182.026 2633.46 Q179.688 2631.35 175.683 2631.35 Q173.808 2631.35 171.933 2631.77 Q170.081 2632.19 168.137 2633.07 L168.137 2615.71 Z" fill="#000000" fill-rule="nonzero" fill-opacity="1" /><path clip-path="url(#clip610)" d="M208.252 2618.79 Q204.641 2618.79 202.813 2622.35 Q201.007 2625.89 201.007 2633.02 Q201.007 2640.13 202.813 2643.69 Q204.641 2647.23 208.252 2647.23 Q211.887 2647.23 213.692 2643.69 Q215.521 2640.13 215.521 2633.02 Q215.521 2625.89 213.692 2622.35 Q211.887 2618.79 208.252 2618.79 M208.252 2615.08 Q214.062 2615.08 217.118 2619.69 Q220.197 2624.27 220.197 2633.02 Q220.197 2641.75 217.118 2646.35 Q214.062 2650.94 208.252 2650.94 Q202.442 2650.94 199.363 2646.35 Q196.308 2641.75 196.308 2633.02 Q196.308 2624.27 199.363 2619.69 Q202.442 2615.08 208.252 2615.08 Z" fill="#000000" fill-rule="nonzero" fill-opacity="1" /><path clip-path="url(#clip610)" d="M238.414 2618.79 Q234.803 2618.79 232.974 2622.35 Q231.169 2625.89 231.169 2633.02 Q231.169 2640.13 232.974 2643.69 Q234.803 2647.23 238.414 2647.23 Q242.048 2647.23 243.854 2643.69 Q245.683 2640.13 245.683 2633.02 Q245.683 2625.89 243.854 2622.35 Q242.048 2618.79 238.414 2618.79 M238.414 2615.08 Q244.224 2615.08 247.28 2619.69 Q250.359 2624.27 250.359 2633.02 Q250.359 2641.75 247.28 2646.35 Q244.224 2650.94 238.414 2650.94 Q232.604 2650.94 229.525 2646.35 Q226.47 2641.75 226.47 2633.02 Q226.47 2624.27 229.525 2619.69 Q232.604 2615.08 238.414 2615.08 Z" fill="#000000" fill-rule="nonzero" fill-opacity="1" /><path clip-path="url(#clip610)" d="M286.747 2624.8 L276.169 2635.43 L286.747 2646.01 L283.993 2648.81 L273.368 2638.18 L262.743 2648.81 L260.011 2646.01 L270.567 2635.43 L260.011 2624.8 L262.743 2622 L273.368 2632.63 L283.993 2622 L286.747 2624.8 Z" fill="#000000" fill-rule="nonzero" fill-opacity="1" /><path clip-path="url(#clip610)" d="M299.108 2646.33 L306.747 2646.33 L306.747 2619.97 L298.437 2621.63 L298.437 2617.37 L306.701 2615.71 L311.377 2615.71 L311.377 2646.33 L319.016 2646.33 L319.016 2650.27 L299.108 2650.27 L299.108 2646.33 Z" fill="#000000" fill-rule="nonzero" fill-opacity="1" /><path clip-path="url(#clip610)" d="M338.46 2618.79 Q334.849 2618.79 333.02 2622.35 Q331.215 2625.89 331.215 2633.02 Q331.215 2640.13 333.02 2643.69 Q334.849 2647.23 338.46 2647.23 Q342.094 2647.23 343.9 2643.69 Q345.728 2640.13 345.728 2633.02 Q345.728 2625.89 343.9 2622.35 Q342.094 2618.79 338.46 2618.79 M338.46 2615.08 Q344.27 2615.08 347.326 2619.69 Q350.404 2624.27 350.404 2633.02 Q350.404 2641.75 347.326 2646.35 Q344.27 2650.94 338.46 2650.94 Q332.65 2650.94 329.571 2646.35 Q326.516 2641.75 326.516 2633.02 Q326.516 2624.27 329.571 2619.69 Q332.65 2615.08 338.46 2615.08 Z" fill="#000000" fill-rule="nonzero" fill-opacity="1" /><path clip-path="url(#clip610)" d="M350.404 2609.18 L374.516 2609.18 L374.516 2612.38 L350.404 2612.38 L350.404 2609.18 Z" fill="#000000" fill-rule="nonzero" fill-opacity="1" /><path clip-path="url(#clip610)" d="M393.154 2598.09 L383.562 2613.08 L393.154 2613.08 L393.154 2598.09 M392.158 2594.78 L396.935 2594.78 L396.935 2613.08 L400.941 2613.08 L400.941 2616.24 L396.935 2616.24 L396.935 2622.86 L393.154 2622.86 L393.154 2616.24 L380.478 2616.24 L380.478 2612.57 L392.158 2594.78 Z" fill="#000000" fill-rule="nonzero" fill-opacity="1" /><path clip-path="url(#clip610)" d="M96.7251 1814.39 L113.044 1814.39 L113.044 1818.32 L91.1002 1818.32 L91.1002 1814.39 Q93.7622 1811.63 98.3455 1807 Q102.952 1802.35 104.132 1801.01 Q106.378 1798.48 107.257 1796.75 Q108.16 1794.99 108.16 1793.3 Q108.16 1790.54 106.216 1788.81 Q104.295 1787.07 101.193 1787.07 Q98.9936 1787.07 96.5399 1787.84 Q94.1094 1788.6 91.3316 1790.15 L91.3316 1785.43 Q94.1557 1784.29 96.6094 1783.72 Q99.0631 1783.14 101.1 1783.14 Q106.47 1783.14 109.665 1785.82 Q112.859 1788.51 112.859 1793 Q112.859 1795.13 112.049 1797.05 Q111.262 1798.95 109.156 1801.54 Q108.577 1802.21 105.475 1805.43 Q102.373 1808.62 96.7251 1814.39 Z" fill="#000000" fill-rule="nonzero" fill-opacity="1" /><path clip-path="url(#clip610)" d="M122.859 1812.44 L127.743 1812.44 L127.743 1818.32 L122.859 1818.32 L122.859 1812.44 Z" fill="#000000" fill-rule="nonzero" fill-opacity="1" /><path clip-path="url(#clip610)" d="M148.507 1799.18 Q145.359 1799.18 143.507 1801.33 Q141.679 1803.48 141.679 1807.23 Q141.679 1810.96 143.507 1813.14 Q145.359 1815.29 148.507 1815.29 Q151.655 1815.29 153.484 1813.14 Q155.336 1810.96 155.336 1807.23 Q155.336 1803.48 153.484 1801.33 Q151.655 1799.18 148.507 1799.18 M157.79 1784.53 L157.79 1788.79 Q156.03 1787.95 154.225 1787.51 Q152.442 1787.07 150.683 1787.07 Q146.054 1787.07 143.6 1790.2 Q141.169 1793.32 140.822 1799.64 Q142.188 1797.63 144.248 1796.56 Q146.308 1795.48 148.785 1795.48 Q153.993 1795.48 157.003 1798.65 Q160.035 1801.79 160.035 1807.23 Q160.035 1812.56 156.887 1815.78 Q153.739 1818.99 148.507 1818.99 Q142.512 1818.99 139.341 1814.41 Q136.169 1809.8 136.169 1801.08 Q136.169 1792.88 140.058 1788.02 Q143.947 1783.14 150.498 1783.14 Q152.257 1783.14 154.04 1783.48 Q155.845 1783.83 157.79 1784.53 Z" fill="#000000" fill-rule="nonzero" fill-opacity="1" /><path clip-path="url(#clip610)" d="M166.91 1783.76 L189.132 1783.76 L189.132 1785.75 L176.586 1818.32 L171.702 1818.32 L183.507 1787.7 L166.91 1787.7 L166.91 1783.76 Z" fill="#000000" fill-rule="nonzero" fill-opacity="1" /><path clip-path="url(#clip610)" d="M198.299 1783.76 L216.655 1783.76 L216.655 1787.7 L202.581 1787.7 L202.581 1796.17 Q203.6 1795.82 204.618 1795.66 Q205.637 1795.48 206.655 1795.48 Q212.442 1795.48 215.822 1798.65 Q219.201 1801.82 219.201 1807.23 Q219.201 1812.81 215.729 1815.91 Q212.257 1818.99 205.938 1818.99 Q203.762 1818.99 201.493 1818.62 Q199.248 1818.25 196.84 1817.51 L196.84 1812.81 Q198.924 1813.95 201.146 1814.5 Q203.368 1815.06 205.845 1815.06 Q209.85 1815.06 212.187 1812.95 Q214.525 1810.85 214.525 1807.23 Q214.525 1803.62 212.187 1801.52 Q209.85 1799.41 205.845 1799.41 Q203.97 1799.41 202.095 1799.83 Q200.243 1800.24 198.299 1801.12 L198.299 1783.76 Z" fill="#000000" fill-rule="nonzero" fill-opacity="1" /><path clip-path="url(#clip610)" d="M238.414 1786.84 Q234.803 1786.84 232.974 1790.41 Q231.169 1793.95 231.169 1801.08 Q231.169 1808.18 232.974 1811.75 Q234.803 1815.29 238.414 1815.29 Q242.048 1815.29 243.854 1811.75 Q245.683 1808.18 245.683 1801.08 Q245.683 1793.95 243.854 1790.41 Q242.048 1786.84 238.414 1786.84 M238.414 1783.14 Q244.224 1783.14 247.28 1787.74 Q250.359 1792.33 250.359 1801.08 Q250.359 1809.8 247.28 1814.41 Q244.224 1818.99 238.414 1818.99 Q232.604 1818.99 229.525 1814.41 Q226.47 1809.8 226.47 1801.08 Q226.47 1792.33 229.525 1787.74 Q232.604 1783.14 238.414 1783.14 Z" fill="#000000" fill-rule="nonzero" fill-opacity="1" /><path clip-path="url(#clip610)" d="M286.747 1792.86 L276.169 1803.48 L286.747 1814.06 L283.993 1816.86 L273.368 1806.24 L262.743 1816.86 L260.011 1814.06 L270.567 1803.48 L260.011 1792.86 L262.743 1790.06 L273.368 1800.68 L283.993 1790.06 L286.747 1792.86 Z" fill="#000000" fill-rule="nonzero" fill-opacity="1" /><path clip-path="url(#clip610)" d="M299.108 1814.39 L306.747 1814.39 L306.747 1788.02 L298.437 1789.69 L298.437 1785.43 L306.701 1783.76 L311.377 1783.76 L311.377 1814.39 L319.016 1814.39 L319.016 1818.32 L299.108 1818.32 L299.108 1814.39 Z" fill="#000000" fill-rule="nonzero" fill-opacity="1" /><path clip-path="url(#clip610)" d="M338.46 1786.84 Q334.849 1786.84 333.02 1790.41 Q331.215 1793.95 331.215 1801.08 Q331.215 1808.18 333.02 1811.75 Q334.849 1815.29 338.46 1815.29 Q342.094 1815.29 343.9 1811.75 Q345.728 1808.18 345.728 1801.08 Q345.728 1793.95 343.9 1790.41 Q342.094 1786.84 338.46 1786.84 M338.46 1783.14 Q344.27 1783.14 347.326 1787.74 Q350.404 1792.33 350.404 1801.08 Q350.404 1809.8 347.326 1814.41 Q344.27 1818.99 338.46 1818.99 Q332.65 1818.99 329.571 1814.41 Q326.516 1809.8 326.516 1801.08 Q326.516 1792.33 329.571 1787.74 Q332.65 1783.14 338.46 1783.14 Z" fill="#000000" fill-rule="nonzero" fill-opacity="1" /><path clip-path="url(#clip610)" d="M350.404 1777.24 L374.516 1777.24 L374.516 1780.44 L350.404 1780.44 L350.404 1777.24 Z" fill="#000000" fill-rule="nonzero" fill-opacity="1" /><path clip-path="url(#clip610)" d="M393.154 1766.14 L383.562 1781.13 L393.154 1781.13 L393.154 1766.14 M392.158 1762.83 L396.935 1762.83 L396.935 1781.13 L400.941 1781.13 L400.941 1784.29 L396.935 1784.29 L396.935 1790.91 L393.154 1790.91 L393.154 1784.29 L380.478 1784.29 L380.478 1780.62 L392.158 1762.83 Z" fill="#000000" fill-rule="nonzero" fill-opacity="1" /><path clip-path="url(#clip610)" d="M96.7251 982.443 L113.044 982.443 L113.044 986.378 L91.1002 986.378 L91.1002 982.443 Q93.7622 979.688 98.3455 975.059 Q102.952 970.406 104.132 969.063 Q106.378 966.54 107.257 964.804 Q108.16 963.045 108.16 961.355 Q108.16 958.601 106.216 956.864 Q104.295 955.128 101.193 955.128 Q98.9936 955.128 96.5399 955.892 Q94.1094 956.656 91.3316 958.207 L91.3316 953.485 Q94.1557 952.351 96.6094 951.772 Q99.0631 951.193 101.1 951.193 Q106.47 951.193 109.665 953.878 Q112.859 956.564 112.859 961.054 Q112.859 963.184 112.049 965.105 Q111.262 967.003 109.156 969.596 Q108.577 970.267 105.475 973.485 Q102.373 976.679 96.7251 982.443 Z" fill="#000000" fill-rule="nonzero" fill-opacity="1" /><path clip-path="url(#clip610)" d="M122.859 980.499 L127.743 980.499 L127.743 986.378 L122.859 986.378 L122.859 980.499 Z" fill="#000000" fill-rule="nonzero" fill-opacity="1" /><path clip-path="url(#clip610)" d="M136.748 951.818 L158.97 951.818 L158.97 953.809 L146.424 986.378 L141.54 986.378 L153.345 955.753 L136.748 955.753 L136.748 951.818 Z" fill="#000000" fill-rule="nonzero" fill-opacity="1" /><path clip-path="url(#clip610)" d="M178.09 954.897 Q174.479 954.897 172.651 958.462 Q170.845 962.003 170.845 969.133 Q170.845 976.239 172.651 979.804 Q174.479 983.346 178.09 983.346 Q181.725 983.346 183.53 979.804 Q185.359 976.239 185.359 969.133 Q185.359 962.003 183.53 958.462 Q181.725 954.897 178.09 954.897 M178.09 951.193 Q183.901 951.193 186.956 955.8 Q190.035 960.383 190.035 969.133 Q190.035 977.86 186.956 982.466 Q183.901 987.049 178.09 987.049 Q172.28 987.049 169.202 982.466 Q166.146 977.86 166.146 969.133 Q166.146 960.383 169.202 955.8 Q172.28 951.193 178.09 951.193 Z" fill="#000000" fill-rule="nonzero" fill-opacity="1" /><path clip-path="url(#clip610)" d="M208.252 954.897 Q204.641 954.897 202.813 958.462 Q201.007 962.003 201.007 969.133 Q201.007 976.239 202.813 979.804 Q204.641 983.346 208.252 983.346 Q211.887 983.346 213.692 979.804 Q215.521 976.239 215.521 969.133 Q215.521 962.003 213.692 958.462 Q211.887 954.897 208.252 954.897 M208.252 951.193 Q214.062 951.193 217.118 955.8 Q220.197 960.383 220.197 969.133 Q220.197 977.86 217.118 982.466 Q214.062 987.049 208.252 987.049 Q202.442 987.049 199.363 982.466 Q196.308 977.86 196.308 969.133 Q196.308 960.383 199.363 955.8 Q202.442 951.193 208.252 951.193 Z" fill="#000000" fill-rule="nonzero" fill-opacity="1" /><path clip-path="url(#clip610)" d="M238.414 954.897 Q234.803 954.897 232.974 958.462 Q231.169 962.003 231.169 969.133 Q231.169 976.239 232.974 979.804 Q234.803 983.346 238.414 983.346 Q242.048 983.346 243.854 979.804 Q245.683 976.239 245.683 969.133 Q245.683 962.003 243.854 958.462 Q242.048 954.897 238.414 954.897 M238.414 951.193 Q244.224 951.193 247.28 955.8 Q250.359 960.383 250.359 969.133 Q250.359 977.86 247.28 982.466 Q244.224 987.049 238.414 987.049 Q232.604 987.049 229.525 982.466 Q226.47 977.86 226.47 969.133 Q226.47 960.383 229.525 955.8 Q232.604 951.193 238.414 951.193 Z" fill="#000000" fill-rule="nonzero" fill-opacity="1" /><path clip-path="url(#clip610)" d="M286.747 960.915 L276.169 971.54 L286.747 982.119 L283.993 984.92 L273.368 974.295 L262.743 984.92 L260.011 982.119 L270.567 971.54 L260.011 960.915 L262.743 958.114 L273.368 968.739 L283.993 958.114 L286.747 960.915 Z" fill="#000000" fill-rule="nonzero" fill-opacity="1" /><path clip-path="url(#clip610)" d="M299.108 982.443 L306.747 982.443 L306.747 956.077 L298.437 957.744 L298.437 953.485 L306.701 951.818 L311.377 951.818 L311.377 982.443 L319.016 982.443 L319.016 986.378 L299.108 986.378 L299.108 982.443 Z" fill="#000000" fill-rule="nonzero" fill-opacity="1" /><path clip-path="url(#clip610)" d="M338.46 954.897 Q334.849 954.897 333.02 958.462 Q331.215 962.003 331.215 969.133 Q331.215 976.239 333.02 979.804 Q334.849 983.346 338.46 983.346 Q342.094 983.346 343.9 979.804 Q345.728 976.239 345.728 969.133 Q345.728 962.003 343.9 958.462 Q342.094 954.897 338.46 954.897 M338.46 951.193 Q344.27 951.193 347.326 955.8 Q350.404 960.383 350.404 969.133 Q350.404 977.86 347.326 982.466 Q344.27 987.049 338.46 987.049 Q332.65 987.049 329.571 982.466 Q326.516 977.86 326.516 969.133 Q326.516 960.383 329.571 955.8 Q332.65 951.193 338.46 951.193 Z" fill="#000000" fill-rule="nonzero" fill-opacity="1" /><path clip-path="url(#clip610)" d="M350.404 945.295 L374.516 945.295 L374.516 948.492 L350.404 948.492 L350.404 945.295 Z" fill="#000000" fill-rule="nonzero" fill-opacity="1" /><path clip-path="url(#clip610)" d="M393.154 934.198 L383.562 949.188 L393.154 949.188 L393.154 934.198 M392.158 930.888 L396.935 930.888 L396.935 949.188 L400.941 949.188 L400.941 952.347 L396.935 952.347 L396.935 958.968 L393.154 958.968 L393.154 952.347 L380.478 952.347 L380.478 948.68 L392.158 930.888 Z" fill="#000000" fill-rule="nonzero" fill-opacity="1" /><path clip-path="url(#clip610)" d="M96.7251 150.499 L113.044 150.499 L113.044 154.434 L91.1002 154.434 L91.1002 150.499 Q93.7622 147.744 98.3455 143.115 Q102.952 138.462 104.132 137.119 Q106.378 134.596 107.257 132.86 Q108.16 131.101 108.16 129.411 Q108.16 126.656 106.216 124.92 Q104.295 123.184 101.193 123.184 Q98.9936 123.184 96.5399 123.948 Q94.1094 124.712 91.3316 126.263 L91.3316 121.541 Q94.1557 120.406 96.6094 119.828 Q99.0631 119.249 101.1 119.249 Q106.47 119.249 109.665 121.934 Q112.859 124.619 112.859 129.11 Q112.859 131.24 112.049 133.161 Q111.262 135.059 109.156 137.652 Q108.577 138.323 105.475 141.541 Q102.373 144.735 96.7251 150.499 Z" fill="#000000" fill-rule="nonzero" fill-opacity="1" /><path clip-path="url(#clip610)" d="M122.859 148.554 L127.743 148.554 L127.743 154.434 L122.859 154.434 L122.859 148.554 Z" fill="#000000" fill-rule="nonzero" fill-opacity="1" /><path clip-path="url(#clip610)" d="M136.748 119.874 L158.97 119.874 L158.97 121.865 L146.424 154.434 L141.54 154.434 L153.345 123.809 L136.748 123.809 L136.748 119.874 Z" fill="#000000" fill-rule="nonzero" fill-opacity="1" /><path clip-path="url(#clip610)" d="M172.118 150.499 L188.438 150.499 L188.438 154.434 L166.493 154.434 L166.493 150.499 Q169.155 147.744 173.739 143.115 Q178.345 138.462 179.526 137.119 Q181.771 134.596 182.651 132.86 Q183.553 131.101 183.553 129.411 Q183.553 126.656 181.609 124.92 Q179.688 123.184 176.586 123.184 Q174.387 123.184 171.933 123.948 Q169.503 124.712 166.725 126.263 L166.725 121.541 Q169.549 120.406 172.003 119.828 Q174.456 119.249 176.493 119.249 Q181.864 119.249 185.058 121.934 Q188.252 124.619 188.252 129.11 Q188.252 131.24 187.442 133.161 Q186.655 135.059 184.549 137.652 Q183.97 138.323 180.868 141.541 Q177.766 144.735 172.118 150.499 Z" fill="#000000" fill-rule="nonzero" fill-opacity="1" /><path clip-path="url(#clip610)" d="M198.299 119.874 L216.655 119.874 L216.655 123.809 L202.581 123.809 L202.581 132.281 Q203.6 131.934 204.618 131.772 Q205.637 131.587 206.655 131.587 Q212.442 131.587 215.822 134.758 Q219.201 137.929 219.201 143.346 Q219.201 148.925 215.729 152.027 Q212.257 155.105 205.938 155.105 Q203.762 155.105 201.493 154.735 Q199.248 154.365 196.84 153.624 L196.84 148.925 Q198.924 150.059 201.146 150.615 Q203.368 151.17 205.845 151.17 Q209.85 151.17 212.187 149.064 Q214.525 146.957 214.525 143.346 Q214.525 139.735 212.187 137.628 Q209.85 135.522 205.845 135.522 Q203.97 135.522 202.095 135.939 Q200.243 136.355 198.299 137.235 L198.299 119.874 Z" fill="#000000" fill-rule="nonzero" fill-opacity="1" /><path clip-path="url(#clip610)" d="M238.414 122.953 Q234.803 122.953 232.974 126.517 Q231.169 130.059 231.169 137.189 Q231.169 144.295 232.974 147.86 Q234.803 151.402 238.414 151.402 Q242.048 151.402 243.854 147.86 Q245.683 144.295 245.683 137.189 Q245.683 130.059 243.854 126.517 Q242.048 122.953 238.414 122.953 M238.414 119.249 Q244.224 119.249 247.28 123.855 Q250.359 128.439 250.359 137.189 Q250.359 145.915 247.28 150.522 Q244.224 155.105 238.414 155.105 Q232.604 155.105 229.525 150.522 Q226.47 145.915 226.47 137.189 Q226.47 128.439 229.525 123.855 Q232.604 119.249 238.414 119.249 Z" fill="#000000" fill-rule="nonzero" fill-opacity="1" /><path clip-path="url(#clip610)" d="M286.747 128.971 L276.169 139.596 L286.747 150.175 L283.993 152.976 L273.368 142.351 L262.743 152.976 L260.011 150.175 L270.567 139.596 L260.011 128.971 L262.743 126.17 L273.368 136.795 L283.993 126.17 L286.747 128.971 Z" fill="#000000" fill-rule="nonzero" fill-opacity="1" /><path clip-path="url(#clip610)" d="M299.108 150.499 L306.747 150.499 L306.747 124.133 L298.437 125.8 L298.437 121.541 L306.701 119.874 L311.377 119.874 L311.377 150.499 L319.016 150.499 L319.016 154.434 L299.108 154.434 L299.108 150.499 Z" fill="#000000" fill-rule="nonzero" fill-opacity="1" /><path clip-path="url(#clip610)" d="M338.46 122.953 Q334.849 122.953 333.02 126.517 Q331.215 130.059 331.215 137.189 Q331.215 144.295 333.02 147.86 Q334.849 151.402 338.46 151.402 Q342.094 151.402 343.9 147.86 Q345.728 144.295 345.728 137.189 Q345.728 130.059 343.9 126.517 Q342.094 122.953 338.46 122.953 M338.46 119.249 Q344.27 119.249 347.326 123.855 Q350.404 128.439 350.404 137.189 Q350.404 145.915 347.326 150.522 Q344.27 155.105 338.46 155.105 Q332.65 155.105 329.571 150.522 Q326.516 145.915 326.516 137.189 Q326.516 128.439 329.571 123.855 Q332.65 119.249 338.46 119.249 Z" fill="#000000" fill-rule="nonzero" fill-opacity="1" /><path clip-path="url(#clip610)" d="M350.404 113.35 L374.516 113.35 L374.516 116.548 L350.404 116.548 L350.404 113.35 Z" fill="#000000" fill-rule="nonzero" fill-opacity="1" /><path clip-path="url(#clip610)" d="M393.154 102.254 L383.562 117.244 L393.154 117.244 L393.154 102.254 M392.158 98.9436 L396.935 98.9436 L396.935 117.244 L400.941 117.244 L400.941 120.403 L396.935 120.403 L396.935 127.024 L393.154 127.024 L393.154 120.403 L380.478 120.403 L380.478 116.736 L392.158 98.9436 Z" fill="#000000" fill-rule="nonzero" fill-opacity="1" /><path clip-path="url(#clip610)" d="M-44.8496 2452.42 L-27.4394 2452.42 L-27.4394 2442.11 Q-27.4394 2436.92 -29.5719 2434.44 Q-31.7362 2431.92 -36.1604 2431.92 Q-40.6164 2431.92 -42.7171 2434.44 Q-44.8496 2436.92 -44.8496 2442.11 L-44.8496 2452.42 M-64.3923 2452.42 L-50.0695 2452.42 L-50.0695 2442.9 Q-50.0695 2438.19 -51.82 2435.9 Q-53.6024 2433.58 -57.2309 2433.58 Q-60.8275 2433.58 -62.6099 2435.9 Q-64.3923 2438.19 -64.3923 2442.9 L-64.3923 2452.42 M-69.6758 2458.85 L-69.6758 2442.43 Q-69.6758 2435.07 -66.6203 2431.09 Q-63.5648 2427.12 -57.9311 2427.12 Q-53.5706 2427.12 -50.9925 2429.15 Q-48.4144 2431.19 -47.7778 2435.14 Q-46.7593 2430.39 -43.5128 2427.78 Q-40.2981 2425.14 -35.4602 2425.14 Q-29.0945 2425.14 -25.6252 2429.47 Q-22.1558 2433.8 -22.1558 2441.79 L-22.1558 2458.85 L-69.6758 2458.85 Z" fill="#000000" fill-rule="nonzero" fill-opacity="1" /><path clip-path="url(#clip610)" d="M-27.503 2408.72 L-8.59689 2408.72 L-8.59689 2414.61 L-57.8038 2414.61 L-57.8038 2408.72 L-52.3929 2408.72 Q-55.5758 2406.87 -57.1036 2404.07 Q-58.6632 2401.24 -58.6632 2397.32 Q-58.6632 2390.83 -53.5069 2386.79 Q-48.3507 2382.71 -39.948 2382.71 Q-31.5453 2382.71 -26.389 2386.79 Q-21.2328 2390.83 -21.2328 2397.32 Q-21.2328 2401.24 -22.7606 2404.07 Q-24.3202 2406.87 -27.503 2408.72 M-39.948 2388.79 Q-46.4092 2388.79 -50.0695 2391.47 Q-53.7616 2394.11 -53.7616 2398.76 Q-53.7616 2403.4 -50.0695 2406.08 Q-46.4092 2408.72 -39.948 2408.72 Q-33.4868 2408.72 -29.7947 2406.08 Q-26.1344 2403.4 -26.1344 2398.76 Q-26.1344 2394.11 -29.7947 2391.47 Q-33.4868 2388.79 -39.948 2388.79 Z" fill="#000000" fill-rule="nonzero" fill-opacity="1" /><path clip-path="url(#clip610)" d="M-41.4439 2342.52 L-38.5794 2342.52 L-38.5794 2369.44 Q-32.5319 2369.06 -29.3491 2365.81 Q-26.1981 2362.54 -26.1981 2356.71 Q-26.1981 2353.34 -27.0256 2350.19 Q-27.8531 2347 -29.5082 2343.88 L-23.9701 2343.88 Q-22.6333 2347.03 -21.933 2350.35 Q-21.2328 2353.66 -21.2328 2357.06 Q-21.2328 2365.59 -26.1981 2370.59 Q-31.1633 2375.55 -39.6297 2375.55 Q-48.3826 2375.55 -53.5069 2370.84 Q-58.6632 2366.1 -58.6632 2358.08 Q-58.6632 2350.89 -54.0162 2346.72 Q-49.4011 2342.52 -41.4439 2342.52 M-43.1627 2348.37 Q-47.9688 2348.44 -50.8334 2351.08 Q-53.6979 2353.69 -53.6979 2358.02 Q-53.6979 2362.92 -50.9288 2365.88 Q-48.1598 2368.81 -43.1308 2369.25 L-43.1627 2348.37 Z" fill="#000000" fill-rule="nonzero" fill-opacity="1" /><path clip-path="url(#clip610)" d="M-57.8038 2333.13 L-57.8038 2324.56 L-33.9324 2314.44 L-57.8038 2304.29 L-57.8038 2295.79 L-22.1558 2295.79 L-22.1558 2301.68 L-52.202 2301.68 L-28.999 2311.51 L-28.999 2317.37 L-52.202 2327.24 L-22.1558 2327.24 L-22.1558 2333.13 L-57.8038 2333.13 Z" fill="#000000" fill-rule="nonzero" fill-opacity="1" /><path clip-path="url(#clip610)" d="M-47.5232 2277.84 Q-44.8814 2277.84 -43.3855 2275.8 Q-41.8895 2273.77 -41.8895 2269.98 L-41.8895 2262.08 L-53.125 2262.08 L-53.125 2269.98 Q-53.125 2273.77 -51.6609 2275.8 Q-50.1968 2277.84 -47.5232 2277.84 M-22.1558 2286.18 L-37.7837 2275.29 Q-38.6112 2278.99 -40.7755 2281.44 Q-42.9717 2283.89 -47.5232 2283.89 Q-52.6794 2283.89 -55.2257 2280.48 Q-57.8038 2277.04 -57.8038 2270.14 L-57.8038 2256.2 L-22.1558 2256.2 L-22.1558 2262.08 L-37.2107 2262.08 L-37.2107 2269.37 L-22.1558 2279.88 L-22.1558 2286.18 Z" fill="#000000" fill-rule="nonzero" fill-opacity="1" /><path clip-path="url(#clip610)" d="M-38.5794 2218.16 L-26.8346 2218.16 L-26.8346 2209.82 Q-26.8346 2205.81 -28.3306 2203.71 Q-29.8583 2201.61 -32.7229 2201.61 Q-35.5875 2201.61 -37.0834 2203.71 Q-38.5794 2205.81 -38.5794 2209.82 L-38.5794 2218.16 M-53.125 2218.16 L-43.2582 2218.16 L-43.2582 2210.46 Q-43.2582 2207.15 -44.5631 2205.05 Q-45.8999 2202.95 -48.2552 2202.95 Q-50.6106 2202.95 -51.8519 2205.05 Q-53.125 2207.15 -53.125 2210.46 L-53.125 2218.16 M-57.8038 2224.02 L-57.8038 2210.08 Q-57.8038 2203.81 -55.5121 2200.43 Q-53.2205 2197.06 -48.9873 2197.06 Q-45.709 2197.06 -43.7674 2198.78 Q-41.8577 2200.5 -41.3803 2203.87 Q-40.6164 2199.83 -38.1974 2197.6 Q-35.7785 2195.37 -32.15 2195.37 Q-27.3757 2195.37 -24.7658 2199.06 Q-22.1558 2202.72 -22.1558 2209.54 L-22.1558 2224.02 L-57.8038 2224.02 Z" fill="#000000" fill-rule="nonzero" fill-opacity="1" /><path clip-path="url(#clip610)" d="M-57.8038 2151.7 L-57.8038 2145.85 L-22.1558 2145.85 L-22.1558 2151.7 L-57.8038 2151.7 M-58.6632 2148.78 L-58.6632 2148.78 M-32.7229 2163.19 Q-35.5875 2163.19 -37.0834 2165.29 Q-38.5794 2167.36 -38.5794 2171.37 L-38.5794 2179.71 L-26.8346 2179.71 L-26.8346 2171.37 Q-26.8346 2167.36 -28.3306 2165.29 Q-29.8583 2163.19 -32.7229 2163.19 M-57.8038 2185.6 L-57.8038 2179.71 L-43.2582 2179.71 L-43.2582 2171.12 Q-43.2582 2164.31 -40.6482 2160.65 Q-38.0701 2156.95 -32.7229 2156.95 Q-27.3757 2156.95 -24.7658 2160.65 Q-22.1558 2164.31 -22.1558 2171.12 L-22.1558 2185.6 L-57.8038 2185.6 Z" fill="#000000" fill-rule="nonzero" fill-opacity="1" /><path clip-path="url(#clip610)" d="M-22.1558 2113.32 L-37.1471 2113.32 L-37.1471 2124.24 Q-37.1471 2129.11 -40.1708 2132.35 Q-42.908 2135.28 -48.7645 2135.28 L-57.8038 2135.28 L-57.8038 2129.42 L-49.3056 2129.42 Q-45.5816 2129.42 -43.7038 2127.77 Q-41.8259 2126.08 -41.8259 2122.77 L-41.8259 2113.32 L-57.8038 2113.32 L-57.8038 2107.46 L-22.1558 2107.46 L-22.1558 2113.32 Z" fill="#000000" fill-rule="nonzero" fill-opacity="1" /><path clip-path="url(#clip610)" d="M-57.8038 2065.1 L-22.1558 2065.1 L-22.1558 2070.92 L-50.7697 2070.92 L-22.1558 2088.11 L-22.1558 2095.62 L-57.8038 2095.62 L-57.8038 2089.8 L-29.2536 2089.8 L-57.8038 2072.64 L-57.8038 2065.1 Z" fill="#000000" fill-rule="nonzero" fill-opacity="1" /><path clip-path="url(#clip610)" d="M-56.4352 2027.38 L-50.9607 2027.38 Q-52.3293 2029.86 -52.9977 2032.38 Q-53.6979 2034.86 -53.6979 2037.41 Q-53.6979 2043.1 -50.0695 2046.26 Q-46.4728 2049.41 -39.948 2049.41 Q-33.4231 2049.41 -29.7947 2046.26 Q-26.1981 2043.1 -26.1981 2037.41 Q-26.1981 2034.86 -26.8665 2032.38 Q-27.5667 2029.86 -28.9353 2027.38 L-23.5245 2027.38 Q-22.3786 2029.83 -21.8057 2032.47 Q-21.2328 2035.08 -21.2328 2038.04 Q-21.2328 2046.1 -26.2936 2050.84 Q-31.3543 2055.58 -39.948 2055.58 Q-48.669 2055.58 -53.6661 2050.81 Q-58.6632 2046 -58.6632 2037.66 Q-58.6632 2034.96 -58.0903 2032.38 Q-57.5492 2029.8 -56.4352 2027.38 Z" fill="#000000" fill-rule="nonzero" fill-opacity="1" /><path clip-path="url(#clip610)" d="M-22.1558 2020.92 L-27.0256 2020.92 Q-27.9168 2015.13 -31.9272 2013.34 Q-37.5609 2011.18 -51.9792 2011.18 L-57.8038 2011.18 L-57.8038 1987.09 L-22.1558 1987.09 L-22.1558 1992.94 L-53.125 1992.94 L-53.125 2005.32 L-49.592 2005.32 Q-35.8421 2005.32 -29.6674 2008.12 Q-23.0789 2011.12 -22.1558 2020.92 Z" fill="#000000" fill-rule="nonzero" fill-opacity="1" /><path clip-path="url(#clip610)" d="M-41.4439 1945.04 L-38.5794 1945.04 L-38.5794 1971.97 Q-32.5319 1971.59 -29.3491 1968.34 Q-26.1981 1965.06 -26.1981 1959.24 Q-26.1981 1955.86 -27.0256 1952.71 Q-27.8531 1949.53 -29.5082 1946.41 L-23.9701 1946.41 Q-22.6333 1949.56 -21.933 1952.87 Q-21.2328 1956.18 -21.2328 1959.59 Q-21.2328 1968.12 -26.1981 1973.11 Q-31.1633 1978.08 -39.6297 1978.08 Q-48.3826 1978.08 -53.5069 1973.37 Q-58.6632 1968.63 -58.6632 1960.6 Q-58.6632 1953.41 -54.0162 1949.24 Q-49.4011 1945.04 -41.4439 1945.04 M-43.1627 1950.9 Q-47.9688 1950.96 -50.8334 1953.6 Q-53.6979 1956.21 -53.6979 1960.54 Q-53.6979 1965.44 -50.9288 1968.4 Q-48.1598 1971.33 -43.1308 1971.78 L-43.1627 1950.9 Z" fill="#000000" fill-rule="nonzero" fill-opacity="1" /><path clip-path="url(#clip610)" d="M-57.8038 1935.65 L-57.8038 1929.76 L-43.2582 1929.76 L-43.2582 1910.76 L-57.8038 1910.76 L-57.8038 1904.87 L-22.1558 1904.87 L-22.1558 1910.76 L-38.5794 1910.76 L-38.5794 1929.76 L-22.1558 1929.76 L-22.1558 1935.65 L-57.8038 1935.65 Z" fill="#000000" fill-rule="nonzero" fill-opacity="1" /><path clip-path="url(#clip610)" d="M-57.8038 1862.51 L-22.1558 1862.51 L-22.1558 1868.33 L-50.7697 1868.33 L-22.1558 1885.52 L-22.1558 1893.03 L-57.8038 1893.03 L-57.8038 1887.21 L-29.2536 1887.21 L-57.8038 1870.05 L-57.8038 1862.51 Z" fill="#000000" fill-rule="nonzero" fill-opacity="1" /><path clip-path="url(#clip610)" d="M-47.5232 1844.56 Q-44.8814 1844.56 -43.3855 1842.52 Q-41.8895 1840.48 -41.8895 1836.7 L-41.8895 1828.8 L-53.125 1828.8 L-53.125 1836.7 Q-53.125 1840.48 -51.6609 1842.52 Q-50.1968 1844.56 -47.5232 1844.56 M-22.1558 1852.9 L-37.7837 1842.01 Q-38.6112 1845.7 -40.7755 1848.15 Q-42.9717 1850.61 -47.5232 1850.61 Q-52.6794 1850.61 -55.2257 1847.2 Q-57.8038 1843.76 -57.8038 1836.86 L-57.8038 1822.91 L-22.1558 1822.91 L-22.1558 1828.8 L-37.2107 1828.8 L-37.2107 1836.09 L-22.1558 1846.59 L-22.1558 1852.9 Z" fill="#000000" fill-rule="nonzero" fill-opacity="1" /><path clip-path="url(#clip610)" d="M-30.2403 1809.74 L-30.2403 1803.02 L-24.7658 1803.02 L-14.5807 1808.24 L-14.5807 1812.35 L-24.7658 1809.74 L-30.2403 1809.74 Z" fill="#000000" fill-rule="nonzero" fill-opacity="1" /><path clip-path="url(#clip610)" d="M-56.4352 1744.14 L-50.9607 1744.14 Q-52.3293 1746.62 -52.9977 1749.14 Q-53.6979 1751.62 -53.6979 1754.16 Q-53.6979 1759.86 -50.0695 1763.01 Q-46.4728 1766.16 -39.948 1766.16 Q-33.4231 1766.16 -29.7947 1763.01 Q-26.1981 1759.86 -26.1981 1754.16 Q-26.1981 1751.62 -26.8665 1749.14 Q-27.5667 1746.62 -28.9353 1744.14 L-23.5245 1744.14 Q-22.3786 1746.59 -21.8057 1749.23 Q-21.2328 1751.84 -21.2328 1754.8 Q-21.2328 1762.85 -26.2936 1767.6 Q-31.3543 1772.34 -39.948 1772.34 Q-48.669 1772.34 -53.6661 1767.56 Q-58.6632 1762.76 -58.6632 1754.42 Q-58.6632 1751.71 -58.0903 1749.14 Q-57.5492 1746.56 -56.4352 1744.14 Z" fill="#000000" fill-rule="nonzero" fill-opacity="1" /><path clip-path="url(#clip610)" d="M-41.4439 1703.46 L-38.5794 1703.46 L-38.5794 1730.39 Q-32.5319 1730.01 -29.3491 1726.76 Q-26.1981 1723.48 -26.1981 1717.66 Q-26.1981 1714.28 -27.0256 1711.13 Q-27.8531 1707.95 -29.5082 1704.83 L-23.9701 1704.83 Q-22.6333 1707.98 -21.933 1711.29 Q-21.2328 1714.6 -21.2328 1718.01 Q-21.2328 1726.54 -26.1981 1731.53 Q-31.1633 1736.5 -39.6297 1736.5 Q-48.3826 1736.5 -53.5069 1731.79 Q-58.6632 1727.05 -58.6632 1719.03 Q-58.6632 1711.83 -54.0162 1707.66 Q-49.4011 1703.46 -41.4439 1703.46 M-43.1627 1709.32 Q-47.9688 1709.38 -50.8334 1712.02 Q-53.6979 1714.63 -53.6979 1718.96 Q-53.6979 1723.86 -50.9288 1726.82 Q-48.1598 1729.75 -43.1308 1730.2 L-43.1627 1709.32 Z" fill="#000000" fill-rule="nonzero" fill-opacity="1" /><path clip-path="url(#clip610)" d="M-57.8038 1694.07 L-57.8038 1688.25 L-41.062 1688.25 L-57.8038 1671.73 L-57.8038 1664.54 L-44.022 1678.16 L-22.1558 1662.79 L-22.1558 1669.34 L-40.139 1681.98 L-33.7733 1688.25 L-22.1558 1688.25 L-22.1558 1694.07 L-57.8038 1694.07 Z" fill="#000000" fill-rule="nonzero" fill-opacity="1" /><path clip-path="url(#clip610)" d="M2688.66 11.0023 Q2698.63 11.0023 2704.95 15.2557 Q2711.27 19.4686 2711.27 26.6793 Q2711.27 31.7024 2708.39 35.1862 Q2705.51 38.6294 2700.21 39.9662 Q2706.08 41.222 2709.36 45.1919 Q2712.68 49.1618 2712.68 54.9951 Q2712.68 64.3122 2705.47 69.0517 Q2698.3 73.7508 2688.66 73.7508 Q2683.72 73.7508 2677.97 72.414 Q2672.22 71.0772 2670.43 69.9429 L2670.43 61.517 Q2676.63 65.1223 2680.03 66.0135 Q2683.48 66.8642 2688.5 66.8642 Q2696.12 66.8642 2700.33 63.9476 Q2704.54 61.0309 2704.54 54.9951 Q2704.54 49.6479 2700.77 46.6502 Q2697.05 43.612 2689.15 43.612 L2680.88 43.612 L2680.88 36.8875 L2689.47 36.8875 Q2696.72 36.8875 2699.92 34.4975 Q2703.12 32.067 2703.12 27.5299 Q2703.12 22.8714 2699.8 20.4004 Q2696.52 17.8888 2688.5 17.8888 Q2683.07 17.8888 2681.21 18.3749 Q2679.34 18.861 2671.04 21.9802 L2671.04 13.9999 Q2675.62 12.3796 2680.4 11.6909 Q2685.18 11.0023 2688.66 11.0023 Z" fill="#000000" fill-rule="nonzero" fill-opacity="1" /><path clip-path="url(#clip610)" d="M2746.59 49.7694 Q2737.56 49.7694 2734.07 51.8354 Q2730.59 53.9013 2730.59 58.8839 Q2730.59 62.8538 2733.18 65.2034 Q2735.81 67.5124 2740.31 67.5124 Q2746.51 67.5124 2750.24 63.1374 Q2754 58.7219 2754 51.4303 L2754 49.7694 L2746.59 49.7694 M2761.46 46.6907 L2761.46 72.576 L2754 72.576 L2754 65.6895 Q2751.45 69.8214 2747.64 71.8063 Q2743.84 73.7508 2738.33 73.7508 Q2731.36 73.7508 2727.23 69.8619 Q2723.14 65.9325 2723.14 59.3701 Q2723.14 51.7138 2728.24 47.825 Q2733.38 43.9361 2743.55 43.9361 L2754 43.9361 L2754 43.2069 Q2754 38.0623 2750.6 35.2672 Q2747.24 32.4315 2741.12 32.4315 Q2737.23 32.4315 2733.55 33.3632 Q2729.86 34.295 2726.46 36.1584 L2726.46 29.2718 Q2730.55 27.692 2734.4 26.9223 Q2738.24 26.1121 2741.89 26.1121 Q2751.73 26.1121 2756.6 31.2163 Q2761.46 36.3204 2761.46 46.6907 Z" fill="#000000" fill-rule="nonzero" fill-opacity="1" /><path clip-path="url(#clip610)" d="M2783.98 51.6733 L2783.98 66.6212 L2794.59 66.6212 Q2799.7 66.6212 2802.37 64.7172 Q2805.04 62.7728 2805.04 59.127 Q2805.04 55.4812 2802.37 53.5773 Q2799.7 51.6733 2794.59 51.6733 L2783.98 51.6733 M2783.98 33.1607 L2783.98 45.7185 L2793.78 45.7185 Q2798 45.7185 2800.67 44.0576 Q2803.34 42.3563 2803.34 39.3586 Q2803.34 36.3609 2800.67 34.7811 Q2798 33.1607 2793.78 33.1607 L2783.98 33.1607 M2776.53 27.2059 L2794.27 27.2059 Q2802.25 27.2059 2806.54 30.1225 Q2810.84 33.0392 2810.84 38.4269 Q2810.84 42.5993 2808.65 45.0704 Q2806.46 47.5009 2802.17 48.1085 Q2807.31 49.0808 2810.15 52.1594 Q2812.98 55.2381 2812.98 59.8562 Q2812.98 65.9325 2808.29 69.2543 Q2803.63 72.576 2794.96 72.576 L2776.53 72.576 L2776.53 27.2059 Z" fill="#000000" fill-rule="nonzero" fill-opacity="1" /><path clip-path="url(#clip610)" d="M2864.27 27.2059 L2864.27 72.576 L2856.86 72.576 L2856.86 36.1584 L2834.98 72.576 L2825.42 72.576 L2825.42 27.2059 L2832.83 27.2059 L2832.83 63.5425 L2854.67 27.2059 L2864.27 27.2059 Z" fill="#000000" fill-rule="nonzero" fill-opacity="1" /><path clip-path="url(#clip610)" d="M2912.27 28.9478 L2912.27 35.9153 Q2909.11 34.1734 2905.91 33.3227 Q2902.75 32.4315 2899.51 32.4315 Q2892.26 32.4315 2888.25 37.0496 Q2884.24 41.6271 2884.24 49.9314 Q2884.24 58.2358 2888.25 62.8538 Q2892.26 67.4314 2899.51 67.4314 Q2902.75 67.4314 2905.91 66.5807 Q2909.11 65.6895 2912.27 63.9476 L2912.27 70.8341 Q2909.15 72.2924 2905.79 73.0216 Q2902.47 73.7508 2898.7 73.7508 Q2888.45 73.7508 2882.42 67.3098 Q2876.38 60.8689 2876.38 49.9314 Q2876.38 38.832 2882.46 32.472 Q2888.57 26.1121 2899.19 26.1121 Q2902.63 26.1121 2905.91 26.8413 Q2909.19 27.5299 2912.27 28.9478 Z" fill="#000000" fill-rule="nonzero" fill-opacity="1" /><path clip-path="url(#clip610)" d="M2963.8 27.2059 L2963.8 72.576 L2956.39 72.576 L2956.39 36.1584 L2934.51 72.576 L2924.95 72.576 L2924.95 27.2059 L2932.36 27.2059 L2932.36 63.5425 L2954.2 27.2059 L2963.8 27.2059 Z" fill="#000000" fill-rule="nonzero" fill-opacity="1" /><path clip-path="url(#clip610)" d="M2978.87 27.2059 L2989.77 27.2059 L3002.65 57.5877 L3015.57 27.2059 L3026.39 27.2059 L3026.39 72.576 L3018.89 72.576 L3018.89 34.3355 L3006.37 63.8666 L2998.92 63.8666 L2986.36 34.3355 L2986.36 72.576 L2978.87 72.576 L2978.87 27.2059 Z" fill="#000000" fill-rule="nonzero" fill-opacity="1" /><path clip-path="url(#clip610)" d="M3059.32 32.4315 Q3053.32 32.4315 3049.84 37.1306 Q3046.36 41.7891 3046.36 49.9314 Q3046.36 58.0738 3049.8 62.7728 Q3053.28 67.4314 3059.32 67.4314 Q3065.27 67.4314 3068.76 62.7323 Q3072.24 58.0333 3072.24 49.9314 Q3072.24 41.8701 3068.76 37.1711 Q3065.27 32.4315 3059.32 32.4315 M3059.32 26.1121 Q3069.04 26.1121 3074.59 32.4315 Q3080.14 38.7509 3080.14 49.9314 Q3080.14 61.0714 3074.59 67.4314 Q3069.04 73.7508 3059.32 73.7508 Q3049.56 73.7508 3044.01 67.4314 Q3038.5 61.0714 3038.5 49.9314 Q3038.5 38.7509 3044.01 32.4315 Q3049.56 26.1121 3059.32 26.1121 Z" fill="#000000" fill-rule="nonzero" fill-opacity="1" /><path clip-path="url(#clip610)" d="M3125.15 28.9478 L3125.15 35.9153 Q3121.99 34.1734 3118.79 33.3227 Q3115.63 32.4315 3112.39 32.4315 Q3105.14 32.4315 3101.12 37.0496 Q3097.11 41.6271 3097.11 49.9314 Q3097.11 58.2358 3101.12 62.8538 Q3105.14 67.4314 3112.39 67.4314 Q3115.63 67.4314 3118.79 66.5807 Q3121.99 65.6895 3125.15 63.9476 L3125.15 70.8341 Q3122.03 72.2924 3118.67 73.0216 Q3115.34 73.7508 3111.58 73.7508 Q3101.33 73.7508 3095.29 67.3098 Q3089.26 60.8689 3089.26 49.9314 Q3089.26 38.832 3095.33 32.472 Q3101.45 26.1121 3112.06 26.1121 Q3115.51 26.1121 3118.79 26.8413 Q3122.07 27.5299 3125.15 28.9478 Z" fill="#000000" fill-rule="nonzero" fill-opacity="1" /><path clip-path="url(#clip610)" d="M3132.72 27.2059 L3176.19 27.2059 L3176.19 33.1607 L3158.12 33.1607 L3158.12 72.576 L3150.79 72.576 L3150.79 33.1607 L3132.72 33.1607 L3132.72 27.2059 Z" fill="#000000" fill-rule="nonzero" fill-opacity="1" /><path clip-path="url(#clip610)" d="M3214.67 59.127 Q3214.67 55.4812 3212 53.5773 Q3209.37 51.6733 3204.26 51.6733 L3193.65 51.6733 L3193.65 66.6212 L3204.26 66.6212 Q3209.37 66.6212 3212 64.7172 Q3214.67 62.7728 3214.67 59.127 M3186.15 27.2059 L3193.65 27.2059 L3193.65 45.7185 L3204.59 45.7185 Q3213.25 45.7185 3217.91 49.0402 Q3222.61 52.3215 3222.61 59.127 Q3222.61 65.9325 3217.91 69.2543 Q3213.25 72.576 3204.59 72.576 L3186.15 72.576 L3186.15 27.2059 Z" fill="#000000" fill-rule="nonzero" fill-opacity="1" /><path clip-path="url(#clip610)" d="M3268.87 51.6733 L3268.87 66.6212 L3279.49 66.6212 Q3284.59 66.6212 3287.26 64.7172 Q3289.94 62.7728 3289.94 59.127 Q3289.94 55.4812 3287.26 53.5773 Q3284.59 51.6733 3279.49 51.6733 L3268.87 51.6733 M3268.87 33.1607 L3268.87 45.7185 L3278.68 45.7185 Q3282.89 45.7185 3285.56 44.0576 Q3288.24 42.3563 3288.24 39.3586 Q3288.24 36.3609 3285.56 34.7811 Q3282.89 33.1607 3278.68 33.1607 L3268.87 33.1607 M3261.42 27.2059 L3279.16 27.2059 Q3287.14 27.2059 3291.44 30.1225 Q3295.73 33.0392 3295.73 38.4269 Q3295.73 42.5993 3293.54 45.0704 Q3291.36 47.5009 3287.06 48.1085 Q3292.21 49.0808 3295.04 52.1594 Q3297.88 55.2381 3297.88 59.8562 Q3297.88 65.9325 3293.18 69.2543 Q3288.52 72.576 3279.85 72.576 L3261.42 72.576 L3261.42 27.2059 Z" fill="#000000" fill-rule="nonzero" fill-opacity="1" /><path clip-path="url(#clip610)" d="M3317.81 65.7705 L3317.81 89.8329 L3310.31 89.8329 L3310.31 27.2059 L3317.81 27.2059 L3317.81 34.0924 Q3320.16 30.0415 3323.72 28.0971 Q3327.33 26.1121 3332.31 26.1121 Q3340.57 26.1121 3345.72 32.6746 Q3350.9 39.2371 3350.9 49.9314 Q3350.9 60.6258 3345.72 67.1883 Q3340.57 73.7508 3332.31 73.7508 Q3327.33 73.7508 3323.72 71.8063 Q3320.16 69.8214 3317.81 65.7705 M3343.17 49.9314 Q3343.17 41.7081 3339.76 37.0496 Q3336.4 32.3505 3330.49 32.3505 Q3324.57 32.3505 3321.17 37.0496 Q3317.81 41.7081 3317.81 49.9314 Q3317.81 58.1548 3321.17 62.8538 Q3324.57 67.5124 3330.49 67.5124 Q3336.4 67.5124 3339.76 62.8538 Q3343.17 58.1548 3343.17 49.9314 Z" fill="#000000" fill-rule="nonzero" fill-opacity="1" /><path clip-path="url(#clip610)" d="M3402.07 48.0275 L3402.07 51.6733 L3367.8 51.6733 Q3368.28 59.3701 3372.41 63.421 Q3376.59 67.4314 3384 67.4314 Q3388.29 67.4314 3392.3 66.3781 Q3396.35 65.3249 3400.32 63.2184 L3400.32 70.267 Q3396.31 71.9684 3392.1 72.8596 Q3387.89 73.7508 3383.55 73.7508 Q3372.7 73.7508 3366.34 67.4314 Q3360.02 61.1119 3360.02 50.3365 Q3360.02 39.1965 3366.01 32.6746 Q3372.05 26.1121 3382.26 26.1121 Q3391.41 26.1121 3396.72 32.0264 Q3402.07 37.9003 3402.07 48.0275 M3394.61 45.84 Q3394.53 39.7232 3391.17 36.0774 Q3387.85 32.4315 3382.34 32.4315 Q3376.1 32.4315 3372.33 35.9558 Q3368.61 39.4801 3368.04 45.8805 L3394.61 45.84 Z" fill="#000000" fill-rule="nonzero" fill-opacity="1" /><path clip-path="url(#clip610)" d="M3414.02 27.2059 L3424.91 27.2059 L3437.8 57.5877 L3450.72 27.2059 L3461.53 27.2059 L3461.53 72.576 L3454.04 72.576 L3454.04 34.3355 L3441.52 63.8666 L3434.07 63.8666 L3421.51 34.3355 L3421.51 72.576 L3414.02 72.576 L3414.02 27.2059 Z" fill="#000000" fill-rule="nonzero" fill-opacity="1" /><path clip-path="url(#clip610)" d="M3515.69 48.0275 L3515.69 51.6733 L3481.42 51.6733 Q3481.91 59.3701 3486.04 63.421 Q3490.21 67.4314 3497.63 67.4314 Q3501.92 67.4314 3505.93 66.3781 Q3509.98 65.3249 3513.95 63.2184 L3513.95 70.267 Q3509.94 71.9684 3505.73 72.8596 Q3501.52 73.7508 3497.18 73.7508 Q3486.33 73.7508 3479.97 67.4314 Q3473.65 61.1119 3473.65 50.3365 Q3473.65 39.1965 3479.64 32.6746 Q3485.68 26.1121 3495.89 26.1121 Q3505.04 26.1121 3510.35 32.0264 Q3515.69 37.9003 3515.69 48.0275 M3508.24 45.84 Q3508.16 39.7232 3504.8 36.0774 Q3501.48 32.4315 3495.97 32.4315 Q3489.73 32.4315 3485.96 35.9558 Q3482.23 39.4801 3481.67 45.8805 L3508.24 45.84 Z" fill="#000000" fill-rule="nonzero" fill-opacity="1" /><path clip-path="url(#clip610)" d="M3527.64 27.2059 L3535.14 27.2059 L3535.14 45.7185 L3559.32 45.7185 L3559.32 27.2059 L3566.82 27.2059 L3566.82 72.576 L3559.32 72.576 L3559.32 51.6733 L3535.14 51.6733 L3535.14 72.576 L3527.64 72.576 L3527.64 27.2059 Z" fill="#000000" fill-rule="nonzero" fill-opacity="1" /><path clip-path="url(#clip610)" d="M3620.73 27.2059 L3620.73 72.576 L3613.32 72.576 L3613.32 36.1584 L3591.45 72.576 L3581.89 72.576 L3581.89 27.2059 L3589.3 27.2059 L3589.3 63.5425 L3611.13 27.2059 L3620.73 27.2059 Z" fill="#000000" fill-rule="nonzero" fill-opacity="1" /><path clip-path="url(#clip610)" d="M3669.63 51.6733 L3669.63 66.6212 L3680.24 66.6212 Q3685.35 66.6212 3688.02 64.7172 Q3690.69 62.7728 3690.69 59.127 Q3690.69 55.4812 3688.02 53.5773 Q3685.35 51.6733 3680.24 51.6733 L3669.63 51.6733 M3669.63 33.1607 L3669.63 45.7185 L3679.43 45.7185 Q3683.64 45.7185 3686.32 44.0576 Q3688.99 42.3563 3688.99 39.3586 Q3688.99 36.3609 3686.32 34.7811 Q3683.64 33.1607 3679.43 33.1607 L3669.63 33.1607 M3662.18 27.2059 L3679.92 27.2059 Q3687.9 27.2059 3692.19 30.1225 Q3696.49 33.0392 3696.49 38.4269 Q3696.49 42.5993 3694.3 45.0704 Q3692.11 47.5009 3687.82 48.1085 Q3692.96 49.0808 3695.8 52.1594 Q3698.63 55.2381 3698.63 59.8562 Q3698.63 65.9325 3693.93 69.2543 Q3689.28 72.576 3680.61 72.576 L3662.18 72.576 L3662.18 27.2059 Z" fill="#000000" fill-rule="nonzero" fill-opacity="1" /><path clip-path="url(#clip610)" d="M3754.21 27.2059 L3761.67 27.2059 L3761.67 72.576 L3754.21 72.576 L3754.21 27.2059 M3757.94 26.1121 L3757.94 26.1121 M3739.59 59.127 Q3739.59 55.4812 3736.91 53.5773 Q3734.28 51.6733 3729.18 51.6733 L3718.56 51.6733 L3718.56 66.6212 L3729.18 66.6212 Q3734.28 66.6212 3736.91 64.7172 Q3739.59 62.7728 3739.59 59.127 M3711.07 27.2059 L3718.56 27.2059 L3718.56 45.7185 L3729.5 45.7185 Q3738.17 45.7185 3742.83 49.0402 Q3747.53 52.3215 3747.53 59.127 Q3747.53 65.9325 3742.83 69.2543 Q3738.17 72.576 3729.5 72.576 L3711.07 72.576 L3711.07 27.2059 Z" fill="#000000" fill-rule="nonzero" fill-opacity="1" /><path clip-path="url(#clip610)" d="M3803.07 72.576 L3803.07 53.4962 L3789.17 53.4962 Q3782.97 53.4962 3778.84 49.6479 Q3775.11 46.1641 3775.11 38.7104 L3775.11 27.2059 L3782.57 27.2059 L3782.57 38.0218 Q3782.57 42.7613 3784.67 45.1514 Q3786.82 47.5414 3791.03 47.5414 L3803.07 47.5414 L3803.07 27.2059 L3810.52 27.2059 L3810.52 72.576 L3803.07 72.576 Z" fill="#000000" fill-rule="nonzero" fill-opacity="1" /><path clip-path="url(#clip610)" d="M3864.44 27.2059 L3864.44 72.576 L3857.02 72.576 L3857.02 36.1584 L3835.15 72.576 L3825.59 72.576 L3825.59 27.2059 L3833 27.2059 L3833 63.5425 L3854.84 27.2059 L3864.44 27.2059 Z" fill="#000000" fill-rule="nonzero" fill-opacity="1" /><path clip-path="url(#clip610)" d="M3912.44 28.9478 L3912.44 35.9153 Q3909.28 34.1734 3906.08 33.3227 Q3902.92 32.4315 3899.68 32.4315 Q3892.43 32.4315 3888.42 37.0496 Q3884.41 41.6271 3884.41 49.9314 Q3884.41 58.2358 3888.42 62.8538 Q3892.43 67.4314 3899.68 67.4314 Q3902.92 67.4314 3906.08 66.5807 Q3909.28 65.6895 3912.44 63.9476 L3912.44 70.8341 Q3909.32 72.2924 3905.96 73.0216 Q3902.64 73.7508 3898.87 73.7508 Q3888.62 73.7508 3882.58 67.3098 Q3876.55 60.8689 3876.55 49.9314 Q3876.55 38.832 3882.63 32.472 Q3888.74 26.1121 3899.36 26.1121 Q3902.8 26.1121 3906.08 26.8413 Q3909.36 27.5299 3912.44 28.9478 Z" fill="#000000" fill-rule="nonzero" fill-opacity="1" /><path clip-path="url(#clip610)" d="M3920.66 72.576 L3920.66 66.3781 Q3928.04 65.2439 3930.3 60.1397 Q3933.06 52.9696 3933.06 34.619 L3933.06 27.2059 L3963.72 27.2059 L3963.72 72.576 L3956.27 72.576 L3956.27 33.1607 L3940.51 33.1607 L3940.51 37.6572 Q3940.51 55.1571 3936.95 63.0159 Q3933.14 71.4012 3920.66 72.576 Z" fill="#000000" fill-rule="nonzero" fill-opacity="1" /><path clip-path="url(#clip610)" d="M4017.24 48.0275 L4017.24 51.6733 L3982.97 51.6733 Q3983.45 59.3701 3987.58 63.421 Q3991.76 67.4314 3999.17 67.4314 Q4003.46 67.4314 4007.47 66.3781 Q4011.53 65.3249 4015.5 63.2184 L4015.5 70.267 Q4011.48 71.9684 4007.27 72.8596 Q4003.06 73.7508 3998.72 73.7508 Q3987.87 73.7508 3981.51 67.4314 Q3975.19 61.1119 3975.19 50.3365 Q3975.19 39.1965 3981.18 32.6746 Q3987.22 26.1121 3997.43 26.1121 Q4006.58 26.1121 4011.89 32.0264 Q4017.24 37.9003 4017.24 48.0275 M4009.78 45.84 Q4009.7 39.7232 4006.34 36.0774 Q4003.02 32.4315 3997.51 32.4315 Q3991.27 32.4315 3987.5 35.9558 Q3983.78 39.4801 3983.21 45.8805 L4009.78 45.84 Z" fill="#000000" fill-rule="nonzero" fill-opacity="1" /><path clip-path="url(#clip610)" d="M4029.19 27.2059 L4036.68 27.2059 L4036.68 45.7185 L4060.87 45.7185 L4060.87 27.2059 L4068.36 27.2059 L4068.36 72.576 L4060.87 72.576 L4060.87 51.6733 L4036.68 51.6733 L4036.68 72.576 L4029.19 72.576 L4029.19 27.2059 Z" fill="#000000" fill-rule="nonzero" fill-opacity="1" /><path clip-path="url(#clip610)" d="M4122.28 27.2059 L4122.28 72.576 L4114.86 72.576 L4114.86 36.1584 L4092.99 72.576 L4083.43 72.576 L4083.43 27.2059 L4090.84 27.2059 L4090.84 63.5425 L4112.68 27.2059 L4122.28 27.2059 Z" fill="#000000" fill-rule="nonzero" fill-opacity="1" /><path clip-path="url(#clip610)" d="M4145.12 40.2903 Q4145.12 43.6525 4147.72 45.5565 Q4150.31 47.4604 4155.13 47.4604 L4165.18 47.4604 L4165.18 33.1607 L4155.13 33.1607 Q4150.31 33.1607 4147.72 35.0241 Q4145.12 36.8875 4145.12 40.2903 M4134.51 72.576 L4148.36 52.6861 Q4143.67 51.6328 4140.55 48.8782 Q4137.43 46.0831 4137.43 40.2903 Q4137.43 33.7278 4141.76 30.4871 Q4146.14 27.2059 4154.93 27.2059 L4172.67 27.2059 L4172.67 72.576 L4165.18 72.576 L4165.18 53.4152 L4155.9 53.4152 L4142.53 72.576 L4134.51 72.576 Z" fill="#000000" fill-rule="nonzero" fill-opacity="1" /><path clip-path="url(#clip610)" d="M4231.49 32.4315 Q4225.49 32.4315 4222.01 37.1306 Q4218.53 41.7891 4218.53 49.9314 Q4218.53 58.0738 4221.97 62.7728 Q4225.45 67.4314 4231.49 67.4314 Q4237.44 67.4314 4240.93 62.7323 Q4244.41 58.0333 4244.41 49.9314 Q4244.41 41.8701 4240.93 37.1711 Q4237.44 32.4315 4231.49 32.4315 M4231.49 26.1121 Q4241.21 26.1121 4246.76 32.4315 Q4252.31 38.7509 4252.31 49.9314 Q4252.31 61.0714 4246.76 67.4314 Q4241.21 73.7508 4231.49 73.7508 Q4221.73 73.7508 4216.18 67.4314 Q4210.67 61.0714 4210.67 49.9314 Q4210.67 38.7509 4216.18 32.4315 Q4221.73 26.1121 4231.49 26.1121 Z" fill="#000000" fill-rule="nonzero" fill-opacity="1" /><path clip-path="url(#clip610)" d="M4259.28 27.2059 L4302.74 27.2059 L4302.74 33.1607 L4284.68 33.1607 L4284.68 72.576 L4277.35 72.576 L4277.35 33.1607 L4259.28 33.1607 L4259.28 27.2059 Z" fill="#000000" fill-rule="nonzero" fill-opacity="1" /><path clip-path="url(#clip610)" d="M4365.82 51.4708 L4364.03 42.1132 Q4362.21 32.5126 4355 32.5126 Q4349.57 32.5126 4347.1 36.9686 Q4343.98 42.5588 4343.98 49.9314 Q4343.98 58.8434 4347.02 63.0969 Q4350.1 67.4314 4355 67.4314 Q4360.43 67.4314 4363.35 58.8029 L4365.82 51.4708 M4369.99 39.075 L4374 27.2059 L4380.64 27.2059 L4372.34 51.7949 L4373.96 60.6663 Q4374.32 62.6513 4375.74 64.3122 Q4377.4 66.2566 4378.7 66.2566 L4382.26 66.2566 L4382.26 72.576 L4377.81 72.576 Q4374 72.576 4370.6 69.1732 Q4368.94 67.4719 4368.25 63.9071 Q4366.38 68.4036 4362.58 71.9279 Q4360.79 73.5887 4355 73.5887 Q4345.48 73.5887 4340.86 67.4314 Q4336.12 61.0714 4336.12 49.9314 Q4336.12 38.0218 4341.27 32.4315 Q4346.98 26.1931 4355 26.1931 Q4367.6 26.1931 4369.99 39.075 Z" fill="#000000" fill-rule="nonzero" fill-opacity="1" /><circle clip-path="url(#clip612)" cx="671.247" cy="3891.09" r="28.8" fill="#008000" fill-rule="evenodd" fill-opacity="1" stroke="#000000" stroke-opacity="1" stroke-width="8.4"/>
<circle clip-path="url(#clip612)" cx="1940.18" cy="2676.46" r="28.8" fill="#008000" fill-rule="evenodd" fill-opacity="1" stroke="#000000" stroke-opacity="1" stroke-width="8.4"/>
<circle clip-path="url(#clip612)" cx="3209.11" cy="1960.98" r="28.8" fill="#008000" fill-rule="evenodd" fill-opacity="1" stroke="#000000" stroke-opacity="1" stroke-width="8.4"/>
<circle clip-path="url(#clip612)" cx="5112.52" cy="596.595" r="28.8" fill="#008000" fill-rule="evenodd" fill-opacity="1" stroke="#000000" stroke-opacity="1" stroke-width="8.4"/>
<circle clip-path="url(#clip612)" cx="6381.45" cy="230.54" r="28.8" fill="#008000" fill-rule="evenodd" fill-opacity="1" stroke="#000000" stroke-opacity="1" stroke-width="8.4"/>
<path clip-path="url(#clip610)" d="M701.701 353.743 L1769.48 353.743 L1769.48 250.063 L701.701 250.063  Z" fill="#ffffff" fill-rule="evenodd" fill-opacity="1"/>
<polyline clip-path="url(#clip610)" style="stroke:#000000; stroke-linecap:round; stroke-linejoin:round; stroke-width:4; stroke-opacity:1; fill:none" points="701.701,353.743 1769.48,353.743 1769.48,250.063 701.701,250.063 701.701,353.743 "/>
<circle clip-path="url(#clip610)" cx="970.715" cy="301.903" r="21.6847" fill="#008000" fill-rule="evenodd" fill-opacity="1" stroke="#000000" stroke-opacity="1" stroke-width="6.32471"/>
<path clip-path="url(#clip610)" d="M1244.41 302.678 L1244.41 315.34 L1251.91 315.34 Q1255.68 315.34 1257.48 313.789 Q1259.31 312.215 1259.31 308.997 Q1259.31 305.757 1257.48 304.229 Q1255.68 302.678 1251.91 302.678 L1244.41 302.678 M1244.41 288.465 L1244.41 298.882 L1251.33 298.882 Q1254.75 298.882 1256.42 297.609 Q1258.11 296.312 1258.11 293.674 Q1258.11 291.058 1256.42 289.761 Q1254.75 288.465 1251.33 288.465 L1244.41 288.465 M1239.73 284.623 L1251.67 284.623 Q1257.02 284.623 1259.91 286.845 Q1262.81 289.067 1262.81 293.164 Q1262.81 296.336 1261.33 298.211 Q1259.84 300.086 1256.97 300.548 Q1260.42 301.289 1262.32 303.65 Q1264.24 305.988 1264.24 309.507 Q1264.24 314.136 1261.09 316.659 Q1257.95 319.183 1252.14 319.183 L1239.73 319.183 L1239.73 284.623 Z" fill="#000000" fill-rule="nonzero" fill-opacity="1" /><path clip-path="url(#clip610)" d="M1276.19 315.294 L1276.19 329.044 L1271.91 329.044 L1271.91 293.257 L1276.19 293.257 L1276.19 297.192 Q1277.53 294.877 1279.57 293.766 Q1281.63 292.632 1284.47 292.632 Q1289.2 292.632 1292.14 296.382 Q1295.1 300.132 1295.1 306.243 Q1295.1 312.354 1292.14 316.104 Q1289.2 319.854 1284.47 319.854 Q1281.63 319.854 1279.57 318.743 Q1277.53 317.609 1276.19 315.294 M1290.68 306.243 Q1290.68 301.544 1288.73 298.882 Q1286.81 296.197 1283.43 296.197 Q1280.05 296.197 1278.11 298.882 Q1276.19 301.544 1276.19 306.243 Q1276.19 310.942 1278.11 313.627 Q1280.05 316.289 1283.43 316.289 Q1286.81 316.289 1288.73 313.627 Q1290.68 310.942 1290.68 306.243 Z" fill="#000000" fill-rule="nonzero" fill-opacity="1" /><path clip-path="url(#clip610)" d="M1324.34 305.155 L1324.34 307.238 L1304.75 307.238 Q1305.03 311.636 1307.39 313.951 Q1309.78 316.243 1314.01 316.243 Q1316.47 316.243 1318.76 315.641 Q1321.07 315.039 1323.34 313.835 L1323.34 317.863 Q1321.05 318.835 1318.64 319.345 Q1316.23 319.854 1313.76 319.854 Q1307.55 319.854 1303.92 316.243 Q1300.31 312.632 1300.31 306.474 Q1300.31 300.109 1303.73 296.382 Q1307.18 292.632 1313.02 292.632 Q1318.25 292.632 1321.28 296.011 Q1324.34 299.368 1324.34 305.155 M1320.08 303.905 Q1320.03 300.41 1318.11 298.326 Q1316.21 296.243 1313.06 296.243 Q1309.5 296.243 1307.34 298.257 Q1305.22 300.271 1304.89 303.928 L1320.08 303.905 Z" fill="#000000" fill-rule="nonzero" fill-opacity="1" /><path clip-path="url(#clip610)" d="M1331.16 293.257 L1337.39 293.257 L1344.75 310.618 L1352.14 293.257 L1358.32 293.257 L1358.32 319.183 L1354.03 319.183 L1354.03 297.331 L1346.88 314.206 L1342.62 314.206 L1335.45 297.331 L1335.45 319.183 L1331.16 319.183 L1331.16 293.257 Z" fill="#000000" fill-rule="nonzero" fill-opacity="1" /><path clip-path="url(#clip610)" d="M1371.37 300.734 Q1371.37 302.655 1372.85 303.743 Q1374.34 304.831 1377.09 304.831 L1382.83 304.831 L1382.83 296.66 L1377.09 296.66 Q1374.34 296.66 1372.85 297.724 Q1371.37 298.789 1371.37 300.734 M1365.31 319.183 L1373.22 307.817 Q1370.54 307.215 1368.76 305.641 Q1366.97 304.044 1366.97 300.734 Q1366.97 296.984 1369.45 295.132 Q1371.95 293.257 1376.97 293.257 L1387.11 293.257 L1387.11 319.183 L1382.83 319.183 L1382.83 308.234 L1377.53 308.234 L1369.89 319.183 L1365.31 319.183 Z" fill="#000000" fill-rule="nonzero" fill-opacity="1" /><path clip-path="url(#clip610)" d="M1414.77 307.238 L1414.77 315.78 L1420.84 315.78 Q1423.76 315.78 1425.28 314.692 Q1426.81 313.581 1426.81 311.497 Q1426.81 309.414 1425.28 308.326 Q1423.76 307.238 1420.84 307.238 L1414.77 307.238 M1414.77 296.66 L1414.77 303.835 L1420.38 303.835 Q1422.78 303.835 1424.31 302.886 Q1425.84 301.914 1425.84 300.201 Q1425.84 298.488 1424.31 297.586 Q1422.78 296.66 1420.38 296.66 L1414.77 296.66 M1410.52 293.257 L1420.65 293.257 Q1425.21 293.257 1427.67 294.923 Q1430.12 296.59 1430.12 299.669 Q1430.12 302.053 1428.87 303.465 Q1427.62 304.854 1425.17 305.201 Q1428.11 305.757 1429.73 307.516 Q1431.35 309.275 1431.35 311.914 Q1431.35 315.386 1428.66 317.284 Q1426 319.183 1421.05 319.183 L1410.52 319.183 L1410.52 293.257 Z" fill="#000000" fill-rule="nonzero" fill-opacity="1" /><path clip-path="url(#clip610)" d="M1463.11 293.257 L1467.37 293.257 L1467.37 319.183 L1463.11 319.183 L1463.11 293.257 M1465.24 292.632 L1465.24 292.632 M1454.75 311.497 Q1454.75 309.414 1453.22 308.326 Q1451.72 307.238 1448.8 307.238 L1442.74 307.238 L1442.74 315.78 L1448.8 315.78 Q1451.72 315.78 1453.22 314.692 Q1454.75 313.581 1454.75 311.497 M1438.46 293.257 L1442.74 293.257 L1442.74 303.835 L1448.99 303.835 Q1453.94 303.835 1456.6 305.734 Q1459.29 307.609 1459.29 311.497 Q1459.29 315.386 1456.6 317.284 Q1453.94 319.183 1448.99 319.183 L1438.46 319.183 L1438.46 293.257 Z" fill="#000000" fill-rule="nonzero" fill-opacity="1" /><path clip-path="url(#clip610)" d="M1491.02 319.183 L1491.02 308.28 L1483.08 308.28 Q1479.54 308.28 1477.18 306.081 Q1475.05 304.09 1475.05 299.831 L1475.05 293.257 L1479.31 293.257 L1479.31 299.437 Q1479.31 302.146 1480.52 303.511 Q1481.74 304.877 1484.15 304.877 L1491.02 304.877 L1491.02 293.257 L1495.28 293.257 L1495.28 319.183 L1491.02 319.183 Z" fill="#000000" fill-rule="nonzero" fill-opacity="1" /><path clip-path="url(#clip610)" d="M1526.09 293.257 L1526.09 319.183 L1521.86 319.183 L1521.86 298.373 L1509.36 319.183 L1503.89 319.183 L1503.89 293.257 L1508.13 293.257 L1508.13 314.021 L1520.61 293.257 L1526.09 293.257 Z" fill="#000000" fill-rule="nonzero" fill-opacity="1" /><path clip-path="url(#clip610)" d="M1553.52 294.252 L1553.52 298.234 Q1551.72 297.238 1549.89 296.752 Q1548.08 296.243 1546.23 296.243 Q1542.09 296.243 1539.8 298.882 Q1537.51 301.498 1537.51 306.243 Q1537.51 310.988 1539.8 313.627 Q1542.09 316.243 1546.23 316.243 Q1548.08 316.243 1549.89 315.757 Q1551.72 315.247 1553.52 314.252 L1553.52 318.187 Q1551.74 319.021 1549.82 319.437 Q1547.92 319.854 1545.77 319.854 Q1539.91 319.854 1536.46 316.173 Q1533.01 312.493 1533.01 306.243 Q1533.01 299.9 1536.49 296.266 Q1539.98 292.632 1546.05 292.632 Q1548.01 292.632 1549.89 293.049 Q1551.76 293.442 1553.52 294.252 Z" fill="#000000" fill-rule="nonzero" fill-opacity="1" /><path clip-path="url(#clip610)" d="M1558.22 319.183 L1558.22 315.641 Q1562.44 314.993 1563.73 312.076 Q1565.31 307.979 1565.31 297.493 L1565.31 293.257 L1582.83 293.257 L1582.83 319.183 L1578.57 319.183 L1578.57 296.66 L1569.57 296.66 L1569.57 299.229 Q1569.57 309.229 1567.53 313.72 Q1565.35 318.511 1558.22 319.183 Z" fill="#000000" fill-rule="nonzero" fill-opacity="1" /><path clip-path="url(#clip610)" d="M1613.41 305.155 L1613.41 307.238 L1593.82 307.238 Q1594.1 311.636 1596.46 313.951 Q1598.85 316.243 1603.08 316.243 Q1605.54 316.243 1607.83 315.641 Q1610.14 315.039 1612.41 313.835 L1612.41 317.863 Q1610.12 318.835 1607.71 319.345 Q1605.31 319.854 1602.83 319.854 Q1596.63 319.854 1592.99 316.243 Q1589.38 312.632 1589.38 306.474 Q1589.38 300.109 1592.81 296.382 Q1596.26 292.632 1602.09 292.632 Q1607.32 292.632 1610.35 296.011 Q1613.41 299.368 1613.41 305.155 M1609.15 303.905 Q1609.1 300.41 1607.18 298.326 Q1605.28 296.243 1602.13 296.243 Q1598.57 296.243 1596.42 298.257 Q1594.29 300.271 1593.96 303.928 L1609.15 303.905 Z" fill="#000000" fill-rule="nonzero" fill-opacity="1" /><path clip-path="url(#clip610)" d="M1620.24 293.257 L1624.52 293.257 L1624.52 303.835 L1638.34 303.835 L1638.34 293.257 L1642.62 293.257 L1642.62 319.183 L1638.34 319.183 L1638.34 307.238 L1624.52 307.238 L1624.52 319.183 L1620.24 319.183 L1620.24 293.257 Z" fill="#000000" fill-rule="nonzero" fill-opacity="1" /><path clip-path="url(#clip610)" d="M1673.43 293.257 L1673.43 319.183 L1669.19 319.183 L1669.19 298.373 L1656.69 319.183 L1651.23 319.183 L1651.23 293.257 L1655.47 293.257 L1655.47 314.021 L1667.94 293.257 L1673.43 293.257 Z" fill="#000000" fill-rule="nonzero" fill-opacity="1" /><path clip-path="url(#clip610)" d="M1686.49 300.734 Q1686.49 302.655 1687.97 303.743 Q1689.45 304.831 1692.2 304.831 L1697.94 304.831 L1697.94 296.66 L1692.2 296.66 Q1689.45 296.66 1687.97 297.724 Q1686.49 298.789 1686.49 300.734 M1680.42 319.183 L1688.34 307.817 Q1685.65 307.215 1683.87 305.641 Q1682.09 304.044 1682.09 300.734 Q1682.09 296.984 1684.56 295.132 Q1687.06 293.257 1692.09 293.257 L1702.23 293.257 L1702.23 319.183 L1697.94 319.183 L1697.94 308.234 L1692.64 308.234 L1685 319.183 L1680.42 319.183 Z" fill="#000000" fill-rule="nonzero" fill-opacity="1" /></svg>
