<?xml version="1.0" encoding="utf-8"?>
<svg xmlns="http://www.w3.org/2000/svg" xmlns:xlink="http://www.w3.org/1999/xlink" width="1650" height="1050" viewBox="0 0 6600 4200">
<defs>
  <clipPath id="clip190">
    <rect x="0" y="0" width="6600" height="4200"/>
  </clipPath>
</defs>
<path clip-path="url(#clip190)" d="M0 4200 L6600 4200 L6600 0 L0 0  Z" fill="#ffffff" fill-rule="evenodd" fill-opacity="1"/>
<defs>
  <clipPath id="clip191">
    <rect x="243" y="120" width="6310" height="3881"/>
  </clipPath>
</defs>
<path clip-path="url(#clip190)" d="M243.804 4000.91 L6552.76 4000.91 L6552.76 120.723 L243.804 120.723  Z" fill="#ffffff" fill-rule="evenodd" fill-opacity="1"/>
<polyline clip-path="url(#clip191)" style="stroke:#000000; stroke-linecap:round; stroke-linejoin:round; stroke-width:2; stroke-opacity:0.1; fill:none" points="422.359,4000.91 422.359,120.723 "/>
<polyline clip-path="url(#clip191)" style="stroke:#000000; stroke-linecap:round; stroke-linejoin:round; stroke-width:2; stroke-opacity:0.1; fill:none" points="1910.32,4000.91 1910.32,120.723 "/>
<polyline clip-path="url(#clip191)" style="stroke:#000000; stroke-linecap:round; stroke-linejoin:round; stroke-width:2; stroke-opacity:0.1; fill:none" points="3398.28,4000.91 3398.28,120.723 "/>
<polyline clip-path="url(#clip191)" style="stroke:#000000; stroke-linecap:round; stroke-linejoin:round; stroke-width:2; stroke-opacity:0.1; fill:none" points="4886.24,4000.91 4886.24,120.723 "/>
<polyline clip-path="url(#clip191)" style="stroke:#000000; stroke-linecap:round; stroke-linejoin:round; stroke-width:2; stroke-opacity:0.1; fill:none" points="6374.2,4000.91 6374.2,120.723 "/>
<polyline clip-path="url(#clip191)" style="stroke:#000000; stroke-linecap:round; stroke-linejoin:round; stroke-width:2; stroke-opacity:0.1; fill:none" points="243.804,3123.9 6552.76,3123.9 "/>
<polyline clip-path="url(#clip191)" style="stroke:#000000; stroke-linecap:round; stroke-linejoin:round; stroke-width:2; stroke-opacity:0.1; fill:none" points="243.804,2164.91 6552.76,2164.91 "/>
<polyline clip-path="url(#clip191)" style="stroke:#000000; stroke-linecap:round; stroke-linejoin:round; stroke-width:2; stroke-opacity:0.1; fill:none" points="243.804,1205.92 6552.76,1205.92 "/>
<polyline clip-path="url(#clip191)" style="stroke:#000000; stroke-linecap:round; stroke-linejoin:round; stroke-width:2; stroke-opacity:0.1; fill:none" points="243.804,246.929 6552.76,246.929 "/>
<polyline clip-path="url(#clip190)" style="stroke:#000000; stroke-linecap:round; stroke-linejoin:round; stroke-width:4; stroke-opacity:1; fill:none" points="243.804,4000.91 6552.76,4000.91 "/>
<polyline clip-path="url(#clip190)" style="stroke:#000000; stroke-linecap:round; stroke-linejoin:round; stroke-width:4; stroke-opacity:1; fill:none" points="422.359,4000.91 422.359,3982.01 "/>
<polyline clip-path="url(#clip190)" style="stroke:#000000; stroke-linecap:round; stroke-linejoin:round; stroke-width:4; stroke-opacity:1; fill:none" points="1910.32,4000.91 1910.32,3982.01 "/>
<polyline clip-path="url(#clip190)" style="stroke:#000000; stroke-linecap:round; stroke-linejoin:round; stroke-width:4; stroke-opacity:1; fill:none" points="3398.28,4000.91 3398.28,3982.01 "/>
<polyline clip-path="url(#clip190)" style="stroke:#000000; stroke-linecap:round; stroke-linejoin:round; stroke-width:4; stroke-opacity:1; fill:none" points="4886.24,4000.91 4886.24,3982.01 "/>
<polyline clip-path="url(#clip190)" style="stroke:#000000; stroke-linecap:round; stroke-linejoin:round; stroke-width:4; stroke-opacity:1; fill:none" points="6374.2,4000.91 6374.2,3982.01 "/>
<path clip-path="url(#clip190)" d="M399.743 4065.43 Q396.132 4065.43 394.303 4068.99 Q392.498 4072.54 392.498 4079.67 Q392.498 4086.77 394.303 4090.34 Q396.132 4093.88 399.743 4093.88 Q403.377 4093.88 405.183 4090.34 Q407.012 4086.77 407.012 4079.67 Q407.012 4072.54 405.183 4068.99 Q403.377 4065.43 399.743 4065.43 M399.743 4061.73 Q405.553 4061.73 408.609 4066.33 Q411.688 4070.92 411.688 4079.67 Q411.688 4088.39 408.609 4093 Q405.553 4097.58 399.743 4097.58 Q393.933 4097.58 390.854 4093 Q387.799 4088.39 387.799 4079.67 Q387.799 4070.92 390.854 4066.33 Q393.933 4061.73 399.743 4061.73 Z" fill="#000000" fill-rule="nonzero" fill-opacity="1" /><path clip-path="url(#clip190)" d="M419.905 4091.03 L424.789 4091.03 L424.789 4096.91 L419.905 4096.91 L419.905 4091.03 Z" fill="#000000" fill-rule="nonzero" fill-opacity="1" /><path clip-path="url(#clip190)" d="M444.974 4065.43 Q441.363 4065.43 439.535 4068.99 Q437.729 4072.54 437.729 4079.67 Q437.729 4086.77 439.535 4090.34 Q441.363 4093.88 444.974 4093.88 Q448.609 4093.88 450.414 4090.34 Q452.243 4086.77 452.243 4079.67 Q452.243 4072.54 450.414 4068.99 Q448.609 4065.43 444.974 4065.43 M444.974 4061.73 Q450.785 4061.73 453.84 4066.33 Q456.919 4070.92 456.919 4079.67 Q456.919 4088.39 453.84 4093 Q450.785 4097.58 444.974 4097.58 Q439.164 4097.58 436.086 4093 Q433.03 4088.39 433.03 4079.67 Q433.03 4070.92 436.086 4066.33 Q439.164 4061.73 444.974 4061.73 Z" fill="#000000" fill-rule="nonzero" fill-opacity="1" /><path clip-path="url(#clip190)" d="M1882.06 4092.98 L1898.37 4092.98 L1898.37 4096.91 L1876.43 4096.91 L1876.43 4092.98 Q1879.09 4090.22 1883.68 4085.59 Q1888.28 4080.94 1889.46 4079.6 Q1891.71 4077.07 1892.59 4075.34 Q1893.49 4073.58 1893.49 4071.89 Q1893.49 4069.13 1891.55 4067.4 Q1889.62 4065.66 1886.52 4065.66 Q1884.32 4065.66 1881.87 4066.42 Q1879.44 4067.19 1876.66 4068.74 L1876.66 4064.02 Q1879.49 4062.88 1881.94 4062.3 Q1884.39 4061.73 1886.43 4061.73 Q1891.8 4061.73 1895 4064.41 Q1898.19 4067.1 1898.19 4071.59 Q1898.19 4073.72 1897.38 4075.64 Q1896.59 4077.54 1894.49 4080.13 Q1893.91 4080.8 1890.81 4084.02 Q1887.7 4087.21 1882.06 4092.98 Z" fill="#000000" fill-rule="nonzero" fill-opacity="1" /><path clip-path="url(#clip190)" d="M1908.19 4091.03 L1913.07 4091.03 L1913.07 4096.91 L1908.19 4096.91 L1908.19 4091.03 Z" fill="#000000" fill-rule="nonzero" fill-opacity="1" /><path clip-path="url(#clip190)" d="M1923.31 4062.35 L1941.66 4062.35 L1941.66 4066.29 L1927.59 4066.29 L1927.59 4074.76 Q1928.61 4074.41 1929.62 4074.25 Q1930.64 4074.06 1931.66 4074.06 Q1937.45 4074.06 1940.83 4077.23 Q1944.21 4080.41 1944.21 4085.82 Q1944.21 4091.4 1940.74 4094.5 Q1937.26 4097.58 1930.94 4097.58 Q1928.77 4097.58 1926.5 4097.21 Q1924.25 4096.84 1921.85 4096.1 L1921.85 4091.4 Q1923.93 4092.54 1926.15 4093.09 Q1928.37 4093.65 1930.85 4093.65 Q1934.86 4093.65 1937.19 4091.54 Q1939.53 4089.43 1939.53 4085.82 Q1939.53 4082.21 1937.19 4080.11 Q1934.86 4078 1930.85 4078 Q1928.98 4078 1927.1 4078.42 Q1925.25 4078.83 1923.31 4079.71 L1923.31 4062.35 Z" fill="#000000" fill-rule="nonzero" fill-opacity="1" /><path clip-path="url(#clip190)" d="M3365.44 4062.35 L3383.8 4062.35 L3383.8 4066.29 L3369.73 4066.29 L3369.73 4074.76 Q3370.75 4074.41 3371.76 4074.25 Q3372.78 4074.06 3373.8 4074.06 Q3379.59 4074.06 3382.97 4077.23 Q3386.35 4080.41 3386.35 4085.82 Q3386.35 4091.4 3382.87 4094.5 Q3379.4 4097.58 3373.08 4097.58 Q3370.91 4097.58 3368.64 4097.21 Q3366.39 4096.84 3363.99 4096.1 L3363.99 4091.4 Q3366.07 4092.54 3368.29 4093.09 Q3370.51 4093.65 3372.99 4093.65 Q3377 4093.65 3379.33 4091.54 Q3381.67 4089.43 3381.67 4085.82 Q3381.67 4082.21 3379.33 4080.11 Q3377 4078 3372.99 4078 Q3371.12 4078 3369.24 4078.42 Q3367.39 4078.83 3365.44 4079.71 L3365.44 4062.35 Z" fill="#000000" fill-rule="nonzero" fill-opacity="1" /><path clip-path="url(#clip190)" d="M3395.56 4091.03 L3400.44 4091.03 L3400.44 4096.91 L3395.56 4096.91 L3395.56 4091.03 Z" fill="#000000" fill-rule="nonzero" fill-opacity="1" /><path clip-path="url(#clip190)" d="M3420.63 4065.43 Q3417.02 4065.43 3415.19 4068.99 Q3413.38 4072.54 3413.38 4079.67 Q3413.38 4086.77 3415.19 4090.34 Q3417.02 4093.88 3420.63 4093.88 Q3424.26 4093.88 3426.07 4090.34 Q3427.9 4086.77 3427.9 4079.67 Q3427.9 4072.54 3426.07 4068.99 Q3424.26 4065.43 3420.63 4065.43 M3420.63 4061.73 Q3426.44 4061.73 3429.49 4066.33 Q3432.57 4070.92 3432.57 4079.67 Q3432.57 4088.39 3429.49 4093 Q3426.44 4097.58 3420.63 4097.58 Q3414.82 4097.58 3411.74 4093 Q3408.68 4088.39 3408.68 4079.67 Q3408.68 4070.92 3411.74 4066.33 Q3414.82 4061.73 3420.63 4061.73 Z" fill="#000000" fill-rule="nonzero" fill-opacity="1" /><path clip-path="url(#clip190)" d="M4852.56 4062.35 L4874.78 4062.35 L4874.78 4064.34 L4862.24 4096.91 L4857.35 4096.91 L4869.16 4066.29 L4852.56 4066.29 L4852.56 4062.35 Z" fill="#000000" fill-rule="nonzero" fill-opacity="1" /><path clip-path="url(#clip190)" d="M4883.9 4091.03 L4888.79 4091.03 L4888.79 4096.91 L4883.9 4096.91 L4883.9 4091.03 Z" fill="#000000" fill-rule="nonzero" fill-opacity="1" /><path clip-path="url(#clip190)" d="M4899.02 4062.35 L4917.37 4062.35 L4917.37 4066.29 L4903.3 4066.29 L4903.3 4074.76 Q4904.32 4074.41 4905.34 4074.25 Q4906.36 4074.06 4907.37 4074.06 Q4913.16 4074.06 4916.54 4077.23 Q4919.92 4080.41 4919.92 4085.82 Q4919.92 4091.4 4916.45 4094.5 Q4912.98 4097.58 4906.66 4097.58 Q4904.48 4097.58 4902.21 4097.21 Q4899.97 4096.84 4897.56 4096.1 L4897.56 4091.4 Q4899.64 4092.54 4901.87 4093.09 Q4904.09 4093.65 4906.56 4093.65 Q4910.57 4093.65 4912.91 4091.54 Q4915.24 4089.43 4915.24 4085.82 Q4915.24 4082.21 4912.91 4080.11 Q4910.57 4078 4906.56 4078 Q4904.69 4078 4902.81 4078.42 Q4900.96 4078.83 4899.02 4079.71 L4899.02 4062.35 Z" fill="#000000" fill-rule="nonzero" fill-opacity="1" /><path clip-path="url(#clip190)" d="M6326.27 4092.98 L6333.91 4092.98 L6333.91 4066.61 L6325.6 4068.28 L6325.6 4064.02 L6333.87 4062.35 L6338.54 4062.35 L6338.54 4092.98 L6346.18 4092.98 L6346.18 4096.91 L6326.27 4096.91 L6326.27 4092.98 Z" fill="#000000" fill-rule="nonzero" fill-opacity="1" /><path clip-path="url(#clip190)" d="M6365.62 4065.43 Q6362.01 4065.43 6360.18 4068.99 Q6358.38 4072.54 6358.38 4079.67 Q6358.38 4086.77 6360.18 4090.34 Q6362.01 4093.88 6365.62 4093.88 Q6369.26 4093.88 6371.06 4090.34 Q6372.89 4086.77 6372.89 4079.67 Q6372.89 4072.54 6371.06 4068.99 Q6369.26 4065.43 6365.62 4065.43 M6365.62 4061.73 Q6371.43 4061.73 6374.49 4066.33 Q6377.57 4070.92 6377.57 4079.67 Q6377.57 4088.39 6374.49 4093 Q6371.43 4097.58 6365.62 4097.58 Q6359.81 4097.58 6356.74 4093 Q6353.68 4088.39 6353.68 4079.67 Q6353.68 4070.92 6356.74 4066.33 Q6359.81 4061.73 6365.62 4061.73 Z" fill="#000000" fill-rule="nonzero" fill-opacity="1" /><path clip-path="url(#clip190)" d="M6385.79 4091.03 L6390.67 4091.03 L6390.67 4096.91 L6385.79 4096.91 L6385.79 4091.03 Z" fill="#000000" fill-rule="nonzero" fill-opacity="1" /><path clip-path="url(#clip190)" d="M6410.86 4065.43 Q6407.24 4065.43 6405.42 4068.99 Q6403.61 4072.54 6403.61 4079.67 Q6403.61 4086.77 6405.42 4090.34 Q6407.24 4093.88 6410.86 4093.88 Q6414.49 4093.88 6416.3 4090.34 Q6418.12 4086.77 6418.12 4079.67 Q6418.12 4072.54 6416.3 4068.99 Q6414.49 4065.43 6410.86 4065.43 M6410.86 4061.73 Q6416.67 4061.73 6419.72 4066.33 Q6422.8 4070.92 6422.8 4079.67 Q6422.8 4088.39 6419.72 4093 Q6416.67 4097.58 6410.86 4097.58 Q6405.05 4097.58 6401.97 4093 Q6398.91 4088.39 6398.91 4079.67 Q6398.91 4070.92 6401.97 4066.33 Q6405.05 4061.73 6410.86 4061.73 Z" fill="#000000" fill-rule="nonzero" fill-opacity="1" /><path clip-path="url(#clip190)" d="M3267.89 4186.08 L3267.89 4203.49 L3278.21 4203.49 Q3283.39 4203.49 3285.88 4201.36 Q3288.39 4199.19 3288.39 4194.77 Q3288.39 4190.31 3285.88 4188.21 Q3283.39 4186.08 3278.21 4186.08 L3267.89 4186.08 M3267.89 4166.54 L3267.89 4180.86 L3277.41 4180.86 Q3282.12 4180.86 3284.41 4179.11 Q3286.74 4177.33 3286.74 4173.7 Q3286.74 4170.1 3284.41 4168.32 Q3282.12 4166.54 3277.41 4166.54 L3267.89 4166.54 M3261.46 4161.25 L3277.89 4161.25 Q3285.24 4161.25 3289.22 4164.31 Q3293.2 4167.37 3293.2 4173 Q3293.2 4177.36 3291.16 4179.94 Q3289.12 4182.52 3285.18 4183.15 Q3289.92 4184.17 3292.53 4187.42 Q3295.17 4190.63 3295.17 4195.47 Q3295.17 4201.84 3290.84 4205.31 Q3286.51 4208.77 3278.52 4208.77 L3261.46 4208.77 L3261.46 4161.25 Z" fill="#000000" fill-rule="nonzero" fill-opacity="1" /><path clip-path="url(#clip190)" d="M3311.59 4203.43 L3311.59 4222.33 L3305.71 4222.33 L3305.71 4173.13 L3311.59 4173.13 L3311.59 4178.54 Q3313.44 4175.35 3316.24 4173.83 Q3319.07 4172.27 3322.99 4172.27 Q3329.48 4172.27 3333.52 4177.42 Q3337.6 4182.58 3337.6 4190.98 Q3337.6 4199.39 3333.52 4204.54 Q3329.48 4209.7 3322.99 4209.7 Q3319.07 4209.7 3316.24 4208.17 Q3313.44 4206.61 3311.59 4203.43 M3331.52 4190.98 Q3331.52 4184.52 3328.85 4180.86 Q3326.2 4177.17 3321.56 4177.17 Q3316.91 4177.17 3314.24 4180.86 Q3311.59 4184.52 3311.59 4190.98 Q3311.59 4197.44 3314.24 4201.14 Q3316.91 4204.8 3321.56 4204.8 Q3326.2 4204.8 3328.85 4201.14 Q3331.52 4197.44 3331.52 4190.98 Z" fill="#000000" fill-rule="nonzero" fill-opacity="1" /><path clip-path="url(#clip190)" d="M3377.8 4189.49 L3377.8 4192.35 L3350.87 4192.35 Q3351.25 4198.4 3354.5 4201.58 Q3357.78 4204.73 3363.6 4204.73 Q3366.98 4204.73 3370.13 4203.9 Q3373.31 4203.08 3376.43 4201.42 L3376.43 4206.96 Q3373.28 4208.3 3369.97 4209 Q3366.66 4209.7 3363.25 4209.7 Q3354.72 4209.7 3349.73 4204.73 Q3344.76 4199.77 3344.76 4191.3 Q3344.76 4182.55 3349.47 4177.42 Q3354.21 4172.27 3362.23 4172.27 Q3369.43 4172.27 3373.6 4176.91 Q3377.8 4181.53 3377.8 4189.49 M3371.94 4187.77 Q3371.88 4182.96 3369.24 4180.1 Q3366.63 4177.23 3362.3 4177.23 Q3357.4 4177.23 3354.44 4180 Q3351.51 4182.77 3351.06 4187.8 L3371.94 4187.77 Z" fill="#000000" fill-rule="nonzero" fill-opacity="1" /><path clip-path="url(#clip190)" d="M3387.19 4173.13 L3395.75 4173.13 L3405.87 4197 L3416.02 4173.13 L3424.52 4173.13 L3424.52 4208.77 L3418.63 4208.77 L3418.63 4178.73 L3408.8 4201.93 L3402.94 4201.93 L3393.08 4178.73 L3393.08 4208.77 L3387.19 4208.77 L3387.19 4173.13 Z" fill="#000000" fill-rule="nonzero" fill-opacity="1" /><path clip-path="url(#clip190)" d="M3442.47 4183.41 Q3442.47 4186.05 3444.51 4187.55 Q3446.55 4189.04 3450.34 4189.04 L3458.23 4189.04 L3458.23 4177.81 L3450.34 4177.81 Q3446.55 4177.81 3444.51 4179.27 Q3442.47 4180.73 3442.47 4183.41 M3434.13 4208.77 L3445.02 4193.15 Q3441.33 4192.32 3438.88 4190.16 Q3436.43 4187.96 3436.43 4183.41 Q3436.43 4178.25 3439.83 4175.7 Q3443.27 4173.13 3450.18 4173.13 L3464.12 4173.13 L3464.12 4208.77 L3458.23 4208.77 L3458.23 4193.72 L3450.94 4193.72 L3440.44 4208.77 L3434.13 4208.77 Z" fill="#000000" fill-rule="nonzero" fill-opacity="1" /><path clip-path="url(#clip190)" d="M3477.29 4200.69 L3484.01 4200.69 L3484.01 4206.16 L3478.79 4216.35 L3474.68 4216.35 L3477.29 4206.16 L3477.29 4200.69 Z" fill="#000000" fill-rule="nonzero" fill-opacity="1" /><path clip-path="url(#clip190)" d="M3523.03 4163.01 L3523.03 4173.13 L3535.09 4173.13 L3535.09 4177.68 L3523.03 4177.68 L3523.03 4197.03 Q3523.03 4201.39 3524.21 4202.63 Q3525.42 4203.87 3529.08 4203.87 L3535.09 4203.87 L3535.09 4208.77 L3529.08 4208.77 Q3522.3 4208.77 3519.72 4206.26 Q3517.14 4203.71 3517.14 4197.03 L3517.14 4177.68 L3512.85 4177.68 L3512.85 4173.13 L3517.14 4173.13 L3517.14 4163.01 L3523.03 4163.01 Z" fill="#000000" fill-rule="nonzero" fill-opacity="1" /><polyline clip-path="url(#clip190)" style="stroke:#000000; stroke-linecap:round; stroke-linejoin:round; stroke-width:4; stroke-opacity:1; fill:none" points="243.804,4000.91 243.804,120.723 "/>
<polyline clip-path="url(#clip190)" style="stroke:#000000; stroke-linecap:round; stroke-linejoin:round; stroke-width:4; stroke-opacity:1; fill:none" points="243.804,3123.9 262.701,3123.9 "/>
<polyline clip-path="url(#clip190)" style="stroke:#000000; stroke-linecap:round; stroke-linejoin:round; stroke-width:4; stroke-opacity:1; fill:none" points="243.804,2164.91 262.701,2164.91 "/>
<polyline clip-path="url(#clip190)" style="stroke:#000000; stroke-linecap:round; stroke-linejoin:round; stroke-width:4; stroke-opacity:1; fill:none" points="243.804,1205.92 262.701,1205.92 "/>
<polyline clip-path="url(#clip190)" style="stroke:#000000; stroke-linecap:round; stroke-linejoin:round; stroke-width:4; stroke-opacity:1; fill:none" points="243.804,246.929 262.701,246.929 "/>
<path clip-path="url(#clip190)" d="M123.901 3106.62 L142.257 3106.62 L142.257 3110.56 L128.183 3110.56 L128.183 3119.03 Q129.202 3118.68 130.22 3118.52 Q131.239 3118.33 132.257 3118.33 Q138.044 3118.33 141.424 3121.51 Q144.804 3124.68 144.804 3130.09 Q144.804 3135.67 141.331 3138.77 Q137.859 3141.85 131.54 3141.85 Q129.364 3141.85 127.095 3141.48 Q124.85 3141.11 122.443 3140.37 L122.443 3135.67 Q124.526 3136.81 126.748 3137.36 Q128.97 3137.92 131.447 3137.92 Q135.452 3137.92 137.79 3135.81 Q140.128 3133.7 140.128 3130.09 Q140.128 3126.48 137.79 3124.38 Q135.452 3122.27 131.447 3122.27 Q129.572 3122.27 127.697 3122.69 Q125.845 3123.1 123.901 3123.98 L123.901 3106.62 Z" fill="#000000" fill-rule="nonzero" fill-opacity="1" /><path clip-path="url(#clip190)" d="M93.5076 2178.26 L101.146 2178.26 L101.146 2151.89 L92.8363 2153.56 L92.8363 2149.3 L101.1 2147.63 L105.776 2147.63 L105.776 2178.26 L113.415 2178.26 L113.415 2182.19 L93.5076 2182.19 L93.5076 2178.26 Z" fill="#000000" fill-rule="nonzero" fill-opacity="1" /><path clip-path="url(#clip190)" d="M132.859 2150.71 Q129.248 2150.71 127.419 2154.27 Q125.614 2157.82 125.614 2164.95 Q125.614 2172.05 127.419 2175.62 Q129.248 2179.16 132.859 2179.16 Q136.493 2179.16 138.299 2175.62 Q140.128 2172.05 140.128 2164.95 Q140.128 2157.82 138.299 2154.27 Q136.493 2150.71 132.859 2150.71 M132.859 2147.01 Q138.669 2147.01 141.725 2151.61 Q144.804 2156.2 144.804 2164.95 Q144.804 2173.67 141.725 2178.28 Q138.669 2182.86 132.859 2182.86 Q127.049 2182.86 123.97 2178.28 Q120.915 2173.67 120.915 2164.95 Q120.915 2156.2 123.97 2151.61 Q127.049 2147.01 132.859 2147.01 Z" fill="#000000" fill-rule="nonzero" fill-opacity="1" /><path clip-path="url(#clip190)" d="M94.5029 1219.26 L102.142 1219.26 L102.142 1192.9 L93.8316 1194.57 L93.8316 1190.31 L102.095 1188.64 L106.771 1188.64 L106.771 1219.26 L114.41 1219.26 L114.41 1223.2 L94.5029 1223.2 L94.5029 1219.26 Z" fill="#000000" fill-rule="nonzero" fill-opacity="1" /><path clip-path="url(#clip190)" d="M123.901 1188.64 L142.257 1188.64 L142.257 1192.57 L128.183 1192.57 L128.183 1201.05 Q129.202 1200.7 130.22 1200.54 Q131.239 1200.35 132.257 1200.35 Q138.044 1200.35 141.424 1203.52 Q144.804 1206.69 144.804 1212.11 Q144.804 1217.69 141.331 1220.79 Q137.859 1223.87 131.54 1223.87 Q129.364 1223.87 127.095 1223.5 Q124.85 1223.13 122.443 1222.39 L122.443 1217.69 Q124.526 1218.82 126.748 1219.38 Q128.97 1219.94 131.447 1219.94 Q135.452 1219.94 137.79 1217.83 Q140.128 1215.72 140.128 1212.11 Q140.128 1208.5 137.79 1206.39 Q135.452 1204.29 131.447 1204.29 Q129.572 1204.29 127.697 1204.7 Q125.845 1205.12 123.901 1206 L123.901 1188.64 Z" fill="#000000" fill-rule="nonzero" fill-opacity="1" /><path clip-path="url(#clip190)" d="M96.7251 260.273 L113.044 260.273 L113.044 264.209 L91.1002 264.209 L91.1002 260.273 Q93.7622 257.519 98.3455 252.889 Q102.952 248.236 104.132 246.894 Q106.378 244.371 107.257 242.635 Q108.16 240.875 108.16 239.186 Q108.16 236.431 106.216 234.695 Q104.295 232.959 101.193 232.959 Q98.9936 232.959 96.5399 233.723 Q94.1094 234.486 91.3316 236.037 L91.3316 231.315 Q94.1557 230.181 96.6094 229.602 Q99.0631 229.024 101.1 229.024 Q106.47 229.024 109.665 231.709 Q112.859 234.394 112.859 238.885 Q112.859 241.014 112.049 242.936 Q111.262 244.834 109.156 247.426 Q108.577 248.098 105.475 251.315 Q102.373 254.51 96.7251 260.273 Z" fill="#000000" fill-rule="nonzero" fill-opacity="1" /><path clip-path="url(#clip190)" d="M132.859 232.727 Q129.248 232.727 127.419 236.292 Q125.614 239.834 125.614 246.963 Q125.614 254.07 127.419 257.635 Q129.248 261.176 132.859 261.176 Q136.493 261.176 138.299 257.635 Q140.128 254.07 140.128 246.963 Q140.128 239.834 138.299 236.292 Q136.493 232.727 132.859 232.727 M132.859 229.024 Q138.669 229.024 141.725 233.63 Q144.804 238.213 144.804 246.963 Q144.804 255.69 141.725 260.297 Q138.669 264.88 132.859 264.88 Q127.049 264.88 123.97 260.297 Q120.915 255.69 120.915 246.963 Q120.915 238.213 123.97 233.63 Q127.049 229.024 132.859 229.024 Z" fill="#000000" fill-rule="nonzero" fill-opacity="1" /><path clip-path="url(#clip190)" d="M-69.6758 2286.64 L-22.1558 2286.64 L-22.1558 2293.07 L-64.265 2293.07 L-64.265 2316.43 L-22.1558 2316.43 L-22.1558 2322.86 L-69.6758 2322.86 L-69.6758 2286.64 Z" fill="#000000" fill-rule="nonzero" fill-opacity="1" /><path clip-path="url(#clip190)" d="M-53.6979 2260.29 Q-53.6979 2265 -50.0058 2267.73 Q-46.3455 2270.47 -39.948 2270.47 Q-33.5505 2270.47 -29.8583 2267.77 Q-26.1981 2265.03 -26.1981 2260.29 Q-26.1981 2255.61 -29.8902 2252.87 Q-33.5823 2250.13 -39.948 2250.13 Q-46.2819 2250.13 -49.974 2252.87 Q-53.6979 2255.61 -53.6979 2260.29 M-58.6632 2260.29 Q-58.6632 2252.65 -53.6979 2248.29 Q-48.7327 2243.93 -39.948 2243.93 Q-31.1951 2243.93 -26.1981 2248.29 Q-21.2328 2252.65 -21.2328 2260.29 Q-21.2328 2267.96 -26.1981 2272.32 Q-31.1951 2276.65 -39.948 2276.65 Q-48.7327 2276.65 -53.6979 2272.32 Q-58.6632 2267.96 -58.6632 2260.29 Z" fill="#000000" fill-rule="nonzero" fill-opacity="1" /><path clip-path="url(#clip190)" d="M-57.8038 2203.66 L-22.1558 2203.66 L-22.1558 2209.55 L-53.125 2209.55 L-53.125 2228.55 L-22.1558 2228.55 L-22.1558 2234.44 L-57.8038 2234.44 L-57.8038 2203.66 Z" fill="#000000" fill-rule="nonzero" fill-opacity="1" /><path clip-path="url(#clip190)" d="M-18.8457 2176.77 Q-12.48 2179.25 -10.5384 2181.61 Q-8.59689 2183.96 -8.59689 2187.91 L-8.59689 2192.59 L-13.4985 2192.59 L-13.4985 2189.15 Q-13.4985 2186.73 -14.6443 2185.39 Q-15.7901 2184.06 -20.0552 2182.43 L-22.7288 2181.38 L-57.8038 2195.8 L-57.8038 2189.6 L-29.922 2178.46 L-57.8038 2167.32 L-57.8038 2161.11 L-18.8457 2176.77 Z" fill="#000000" fill-rule="nonzero" fill-opacity="1" /><path clip-path="url(#clip190)" d="M-22.1558 2156.75 L-27.0256 2156.75 Q-27.9168 2150.96 -31.9272 2149.17 Q-37.5609 2147.01 -51.9792 2147.01 L-57.8038 2147.01 L-57.8038 2122.91 L-22.1558 2122.91 L-22.1558 2128.77 L-53.125 2128.77 L-53.125 2141.15 L-49.592 2141.15 Q-35.8421 2141.15 -29.6674 2143.95 Q-23.0789 2146.94 -22.1558 2156.75 Z" fill="#000000" fill-rule="nonzero" fill-opacity="1" /><path clip-path="url(#clip190)" d="M-47.5232 2105.47 Q-44.8814 2105.47 -43.3855 2103.44 Q-41.8895 2101.4 -41.8895 2097.61 L-41.8895 2089.72 L-53.125 2089.72 L-53.125 2097.61 Q-53.125 2101.4 -51.6609 2103.44 Q-50.1968 2105.47 -47.5232 2105.47 M-22.1558 2113.81 L-37.7837 2102.93 Q-38.6112 2106.62 -40.7755 2109.07 Q-42.9717 2111.52 -47.5232 2111.52 Q-52.6794 2111.52 -55.2257 2108.11 Q-57.8038 2104.68 -57.8038 2097.77 L-57.8038 2083.83 L-22.1558 2083.83 L-22.1558 2089.72 L-37.2107 2089.72 L-37.2107 2097.01 L-22.1558 2107.51 L-22.1558 2113.81 Z" fill="#000000" fill-rule="nonzero" fill-opacity="1" /><path clip-path="url(#clip190)" d="M-22.1558 2041.59 L-22.1558 2072.37 L-57.8038 2072.37 L-57.8038 2066.48 L-26.8346 2066.48 L-26.8346 2047.48 L-57.8038 2047.48 L-57.8038 2041.59 L-26.8346 2041.59 L-26.8346 2036.91 L-13.1484 2036.91 L-13.1484 2041.59 L-22.1558 2041.59 Z" fill="#000000" fill-rule="nonzero" fill-opacity="1" /><path clip-path="url(#clip190)" d="M-57.8038 1997.48 L-22.1558 1997.48 L-22.1558 2003.3 L-50.7697 2003.3 L-22.1558 2020.49 L-22.1558 2028 L-57.8038 2028 L-57.8038 2022.18 L-29.2536 2022.18 L-57.8038 2005.02 L-57.8038 1997.48 Z" fill="#000000" fill-rule="nonzero" fill-opacity="1" /><path clip-path="url(#clip190)" d="M-47.5232 1979.53 Q-44.8814 1979.53 -43.3855 1977.49 Q-41.8895 1975.45 -41.8895 1971.67 L-41.8895 1963.77 L-53.125 1963.77 L-53.125 1971.67 Q-53.125 1975.45 -51.6609 1977.49 Q-50.1968 1979.53 -47.5232 1979.53 M-22.1558 1987.87 L-37.7837 1976.98 Q-38.6112 1980.67 -40.7755 1983.12 Q-42.9717 1985.57 -47.5232 1985.57 Q-52.6794 1985.57 -55.2257 1982.17 Q-57.8038 1978.73 -57.8038 1971.82 L-57.8038 1957.88 L-22.1558 1957.88 L-22.1558 1963.77 L-37.2107 1963.77 L-37.2107 1971.06 L-22.1558 1981.56 L-22.1558 1987.87 Z" fill="#000000" fill-rule="nonzero" fill-opacity="1" /><path clip-path="url(#clip190)" d="M-30.2403 1944.71 L-30.2403 1937.99 L-24.7658 1937.99 L-14.5807 1943.21 L-14.5807 1947.32 L-24.7658 1944.71 L-30.2403 1944.71 Z" fill="#000000" fill-rule="nonzero" fill-opacity="1" /><path clip-path="url(#clip190)" d="M-36.2241 1905.37 L-57.8038 1905.37 L-57.8038 1899.51 L-36.4469 1899.51 Q-31.3861 1899.51 -28.8398 1897.54 Q-26.3254 1895.56 -26.3254 1891.62 Q-26.3254 1886.87 -29.3491 1884.14 Q-32.3728 1881.37 -37.5927 1881.37 L-57.8038 1881.37 L-57.8038 1875.51 L-22.1558 1875.51 L-22.1558 1881.37 L-27.6304 1881.37 Q-24.3838 1883.5 -22.7924 1886.33 Q-21.2328 1889.13 -21.2328 1892.86 Q-21.2328 1899 -25.0522 1902.18 Q-28.8717 1905.37 -36.2241 1905.37 M-58.6632 1890.63 L-58.6632 1890.63 Z" fill="#000000" fill-rule="nonzero" fill-opacity="1" /><path clip-path="url(#clip190)" d="M-71.6174 1849.38 Q-64.2968 1853.64 -57.1354 1855.71 Q-49.974 1857.78 -42.6216 1857.78 Q-35.2692 1857.78 -28.0441 1855.71 Q-20.8509 1853.61 -13.5621 1849.38 L-13.5621 1854.47 Q-21.0418 1859.25 -28.2669 1861.63 Q-35.492 1863.99 -42.6216 1863.99 Q-49.7194 1863.99 -56.9126 1861.63 Q-64.1058 1859.28 -71.6174 1854.47 L-71.6174 1849.38 Z" fill="#000000" fill-rule="nonzero" fill-opacity="1" /><path clip-path="url(#clip190)" d="M-67.9253 1832.22 L-57.8038 1832.22 L-57.8038 1820.16 L-53.2523 1820.16 L-53.2523 1832.22 L-33.9006 1832.22 Q-29.5401 1832.22 -28.2987 1831.05 Q-27.0574 1829.84 -27.0574 1826.18 L-27.0574 1820.16 L-22.1558 1820.16 L-22.1558 1826.18 Q-22.1558 1832.96 -24.6703 1835.53 Q-27.2166 1838.11 -33.9006 1838.11 L-53.2523 1838.11 L-53.2523 1842.41 L-57.8038 1842.41 L-57.8038 1838.11 L-67.9253 1838.11 L-67.9253 1832.22 Z" fill="#000000" fill-rule="nonzero" fill-opacity="1" /><path clip-path="url(#clip190)" d="M-71.6174 1813.38 L-71.6174 1808.29 Q-64.1058 1803.52 -56.9126 1801.16 Q-49.7194 1798.77 -42.6216 1798.77 Q-35.492 1798.77 -28.2669 1801.16 Q-21.0418 1803.52 -13.5621 1808.29 L-13.5621 1813.38 Q-20.8509 1809.15 -28.0441 1807.08 Q-35.2692 1804.98 -42.6216 1804.98 Q-49.974 1804.98 -57.1354 1807.08 Q-64.2968 1809.15 -71.6174 1813.38 Z" fill="#000000" fill-rule="nonzero" fill-opacity="1" /><path clip-path="url(#clip190)" d="M2338.75 59.3701 Q2347.29 67.0263 2357.66 67.0263 Q2368.36 67.0263 2373.18 61.274 Q2378 55.5217 2378.89 45.84 L2346.56 45.84 L2346.56 38.9535 L2378.89 38.9535 Q2378 29.2718 2373.18 23.5195 Q2368.36 17.7268 2357.66 17.7268 Q2347.29 17.7268 2338.75 25.383 L2338.75 16.7545 Q2347.17 11.0023 2358.15 11.0023 Q2371.72 11.0023 2379.62 19.4281 Q2387.52 27.8135 2387.52 42.3563 Q2387.52 56.9395 2379.62 65.3654 Q2371.72 73.7508 2358.15 73.7508 Q2347.33 73.7508 2338.75 67.9175 L2338.75 59.3701 Z" fill="#000000" fill-rule="nonzero" fill-opacity="1" /><path clip-path="url(#clip190)" d="M2399.71 27.2059 L2407.12 27.2059 L2407.12 48.5136 L2428.15 27.2059 L2437.3 27.2059 L2419.97 44.7463 L2439.53 72.576 L2431.19 72.576 L2415.11 49.6884 L2407.12 57.7902 L2407.12 72.576 L2399.71 72.576 L2399.71 27.2059 Z" fill="#000000" fill-rule="nonzero" fill-opacity="1" /><path clip-path="url(#clip190)" d="M2482.76 28.9478 L2482.76 35.9153 Q2479.6 34.1734 2476.4 33.3227 Q2473.24 32.4315 2469.99 32.4315 Q2462.74 32.4315 2458.73 37.0496 Q2454.72 41.6271 2454.72 49.9314 Q2454.72 58.2358 2458.73 62.8538 Q2462.74 67.4314 2469.99 67.4314 Q2473.24 67.4314 2476.4 66.5807 Q2479.6 65.6895 2482.76 63.9476 L2482.76 70.8341 Q2479.64 72.2924 2476.27 73.0216 Q2472.95 73.7508 2469.18 73.7508 Q2458.94 73.7508 2452.9 67.3098 Q2446.86 60.8689 2446.86 49.9314 Q2446.86 38.832 2452.94 32.472 Q2459.06 26.1121 2469.67 26.1121 Q2473.11 26.1121 2476.4 26.8413 Q2479.68 27.5299 2482.76 28.9478 Z" fill="#000000" fill-rule="nonzero" fill-opacity="1" /><path clip-path="url(#clip190)" d="M2534.61 27.2059 L2534.61 72.576 L2527.11 72.576 L2527.11 33.1607 L2502.93 33.1607 L2502.93 72.576 L2495.43 72.576 L2495.43 27.2059 L2534.61 27.2059 Z" fill="#000000" fill-rule="nonzero" fill-opacity="1" /><path clip-path="url(#clip190)" d="M2567.54 32.4315 Q2561.55 32.4315 2558.06 37.1306 Q2554.58 41.7891 2554.58 49.9314 Q2554.58 58.0738 2558.02 62.7728 Q2561.5 67.4314 2567.54 67.4314 Q2573.5 67.4314 2576.98 62.7323 Q2580.46 58.0333 2580.46 49.9314 Q2580.46 41.8701 2576.98 37.1711 Q2573.5 32.4315 2567.54 32.4315 M2567.54 26.1121 Q2577.26 26.1121 2582.81 32.4315 Q2588.36 38.7509 2588.36 49.9314 Q2588.36 61.0714 2582.81 67.4314 Q2577.26 73.7508 2567.54 73.7508 Q2557.78 73.7508 2552.23 67.4314 Q2546.72 61.0714 2546.72 49.9314 Q2546.72 38.7509 2552.23 32.4315 Q2557.78 26.1121 2567.54 26.1121 Z" fill="#000000" fill-rule="nonzero" fill-opacity="1" /><path clip-path="url(#clip190)" d="M2600.43 27.2059 L2607.93 27.2059 L2607.93 45.7185 L2632.11 45.7185 L2632.11 27.2059 L2639.61 27.2059 L2639.61 72.576 L2632.11 72.576 L2632.11 51.6733 L2607.93 51.6733 L2607.93 72.576 L2600.43 72.576 L2600.43 27.2059 Z" fill="#000000" fill-rule="nonzero" fill-opacity="1" /><path clip-path="url(#clip190)" d="M2693.77 48.0275 L2693.77 51.6733 L2659.5 51.6733 Q2659.98 59.3701 2664.11 63.421 Q2668.29 67.4314 2675.7 67.4314 Q2679.99 67.4314 2684 66.3781 Q2688.05 65.3249 2692.02 63.2184 L2692.02 70.267 Q2688.01 71.9684 2683.8 72.8596 Q2679.59 73.7508 2675.25 73.7508 Q2664.4 73.7508 2658.04 67.4314 Q2651.72 61.1119 2651.72 50.3365 Q2651.72 39.1965 2657.71 32.6746 Q2663.75 26.1121 2673.96 26.1121 Q2683.11 26.1121 2688.42 32.0264 Q2693.77 37.9003 2693.77 48.0275 M2686.31 45.84 Q2686.23 39.7232 2682.87 36.0774 Q2679.55 32.4315 2674.04 32.4315 Q2667.8 32.4315 2664.03 35.9558 Q2660.31 39.4801 2659.74 45.8805 L2686.31 45.84 Z" fill="#000000" fill-rule="nonzero" fill-opacity="1" /><path clip-path="url(#clip190)" d="M2705.72 27.2059 L2713.21 27.2059 L2713.21 45.7185 L2737.39 45.7185 L2737.39 27.2059 L2744.89 27.2059 L2744.89 72.576 L2737.39 72.576 L2737.39 51.6733 L2713.21 51.6733 L2713.21 72.576 L2705.72 72.576 L2705.72 27.2059 Z" fill="#000000" fill-rule="nonzero" fill-opacity="1" /><path clip-path="url(#clip190)" d="M2799.13 72.576 L2759.96 72.576 L2759.96 27.2059 L2767.45 27.2059 L2767.45 66.6212 L2791.64 66.6212 L2791.64 27.2059 L2799.13 27.2059 L2799.13 66.6212 L2805.09 66.6212 L2805.09 84.0401 L2799.13 84.0401 L2799.13 72.576 Z" fill="#000000" fill-rule="nonzero" fill-opacity="1" /><path clip-path="url(#clip190)" d="M2855.28 27.2059 L2855.28 72.576 L2847.86 72.576 L2847.86 36.1584 L2825.99 72.576 L2816.43 72.576 L2816.43 27.2059 L2823.84 27.2059 L2823.84 63.5425 L2845.68 27.2059 L2855.28 27.2059 Z" fill="#000000" fill-rule="nonzero" fill-opacity="1" /><path clip-path="url(#clip190)" d="M2891.25 49.7694 Q2882.21 49.7694 2878.73 51.8354 Q2875.25 53.9013 2875.25 58.8839 Q2875.25 62.8538 2877.84 65.2034 Q2880.47 67.5124 2884.97 67.5124 Q2891.17 67.5124 2894.89 63.1374 Q2898.66 58.7219 2898.66 51.4303 L2898.66 49.7694 L2891.25 49.7694 M2906.12 46.6907 L2906.12 72.576 L2898.66 72.576 L2898.66 65.6895 Q2896.11 69.8214 2892.3 71.8063 Q2888.49 73.7508 2882.98 73.7508 Q2876.02 73.7508 2871.88 69.8619 Q2867.79 65.9325 2867.79 59.3701 Q2867.79 51.7138 2872.9 47.825 Q2878.04 43.9361 2888.21 43.9361 L2898.66 43.9361 L2898.66 43.2069 Q2898.66 38.0623 2895.26 35.2672 Q2891.9 32.4315 2885.78 32.4315 Q2881.89 32.4315 2878.2 33.3632 Q2874.52 34.295 2871.12 36.1584 L2871.12 29.2718 Q2875.21 27.692 2879.06 26.9223 Q2882.9 26.1121 2886.55 26.1121 Q2896.39 26.1121 2901.25 31.2163 Q2906.12 36.3204 2906.12 46.6907 Z" fill="#000000" fill-rule="nonzero" fill-opacity="1" /><path clip-path="url(#clip190)" d="M2916.73 72.576 L2916.73 66.3781 Q2924.1 65.2439 2926.37 60.1397 Q2929.12 52.9696 2929.12 34.619 L2929.12 27.2059 L2959.79 27.2059 L2959.79 72.576 L2952.34 72.576 L2952.34 33.1607 L2936.58 33.1607 L2936.58 37.6572 Q2936.58 55.1571 2933.01 63.0159 Q2929.21 71.4012 2916.73 72.576 Z" fill="#000000" fill-rule="nonzero" fill-opacity="1" /><path clip-path="url(#clip190)" d="M3002.73 59.127 Q3002.73 55.4812 3000.06 53.5773 Q2997.42 51.6733 2992.32 51.6733 L2981.71 51.6733 L2981.71 66.6212 L2992.32 66.6212 Q2997.42 66.6212 3000.06 64.7172 Q3002.73 62.7728 3002.73 59.127 M2974.21 27.2059 L2981.71 27.2059 L2981.71 45.7185 L2992.64 45.7185 Q3001.31 45.7185 3005.97 49.0402 Q3010.67 52.3215 3010.67 59.127 Q3010.67 65.9325 3005.97 69.2543 Q3001.31 72.576 2992.64 72.576 L2974.21 72.576 L2974.21 27.2059 Z" fill="#000000" fill-rule="nonzero" fill-opacity="1" /><path clip-path="url(#clip190)" d="M3023.11 27.2059 L3030.6 27.2059 L3030.6 45.7185 L3054.78 45.7185 L3054.78 27.2059 L3062.28 27.2059 L3062.28 72.576 L3054.78 72.576 L3054.78 51.6733 L3030.6 51.6733 L3030.6 72.576 L3023.11 72.576 L3023.11 27.2059 Z" fill="#000000" fill-rule="nonzero" fill-opacity="1" /><path clip-path="url(#clip190)" d="M3120.49 27.2059 L3127.94 27.2059 L3127.94 72.576 L3120.49 72.576 L3120.49 27.2059 M3124.22 26.1121 L3124.22 26.1121 M3105.87 59.127 Q3105.87 55.4812 3103.19 53.5773 Q3100.56 51.6733 3095.45 51.6733 L3084.84 51.6733 L3084.84 66.6212 L3095.45 66.6212 Q3100.56 66.6212 3103.19 64.7172 Q3105.87 62.7728 3105.87 59.127 M3077.35 27.2059 L3084.84 27.2059 L3084.84 45.7185 L3095.78 45.7185 Q3104.45 45.7185 3109.11 49.0402 Q3113.8 52.3215 3113.8 59.127 Q3113.8 65.9325 3109.11 69.2543 Q3104.45 72.576 3095.78 72.576 L3077.35 72.576 L3077.35 27.2059 Z" fill="#000000" fill-rule="nonzero" fill-opacity="1" /><path clip-path="url(#clip190)" d="M3181.7 27.2059 L3181.7 72.576 L3174.28 72.576 L3174.28 36.1584 L3152.41 72.576 L3142.85 72.576 L3142.85 27.2059 L3150.26 27.2059 L3150.26 63.5425 L3172.1 27.2059 L3181.7 27.2059 M3149.61 9.54393 L3154.4 9.54393 Q3154.84 12.5821 3156.79 14.1215 Q3158.77 15.6203 3162.29 15.6203 Q3165.78 15.6203 3167.72 14.1215 Q3169.67 12.6226 3170.19 9.54393 L3174.97 9.54393 Q3174.57 15.3367 3171.37 18.2534 Q3168.17 21.17 3162.29 21.17 Q3156.42 21.17 3153.22 18.2534 Q3150.02 15.3367 3149.61 9.54393 Z" fill="#000000" fill-rule="nonzero" fill-opacity="1" /><path clip-path="url(#clip190)" d="M3230.63 65.7705 L3230.63 89.8329 L3223.14 89.8329 L3223.14 27.2059 L3230.63 27.2059 L3230.63 34.0924 Q3232.98 30.0415 3236.55 28.0971 Q3240.15 26.1121 3245.14 26.1121 Q3253.4 26.1121 3258.54 32.6746 Q3263.73 39.2371 3263.73 49.9314 Q3263.73 60.6258 3258.54 67.1883 Q3253.4 73.7508 3245.14 73.7508 Q3240.15 73.7508 3236.55 71.8063 Q3232.98 69.8214 3230.63 65.7705 M3255.99 49.9314 Q3255.99 41.7081 3252.59 37.0496 Q3249.23 32.3505 3243.31 32.3505 Q3237.4 32.3505 3234 37.0496 Q3230.63 41.7081 3230.63 49.9314 Q3230.63 58.1548 3234 62.8538 Q3237.4 67.5124 3243.31 67.5124 Q3249.23 67.5124 3252.59 62.8538 Q3255.99 58.1548 3255.99 49.9314 Z" fill="#000000" fill-rule="nonzero" fill-opacity="1" /><path clip-path="url(#clip190)" d="M3293.67 32.4315 Q3287.67 32.4315 3284.19 37.1306 Q3280.7 41.7891 3280.7 49.9314 Q3280.7 58.0738 3284.15 62.7728 Q3287.63 67.4314 3293.67 67.4314 Q3299.62 67.4314 3303.1 62.7323 Q3306.59 58.0333 3306.59 49.9314 Q3306.59 41.8701 3303.1 37.1711 Q3299.62 32.4315 3293.67 32.4315 M3293.67 26.1121 Q3303.39 26.1121 3308.94 32.4315 Q3314.49 38.7509 3314.49 49.9314 Q3314.49 61.0714 3308.94 67.4314 Q3303.39 73.7508 3293.67 73.7508 Q3283.9 73.7508 3278.35 67.4314 Q3272.84 61.0714 3272.84 49.9314 Q3272.84 38.7509 3278.35 32.4315 Q3283.9 26.1121 3293.67 26.1121 Z" fill="#000000" fill-rule="nonzero" fill-opacity="1" /><path clip-path="url(#clip190)" d="M3359.49 28.9478 L3359.49 35.9153 Q3356.33 34.1734 3353.13 33.3227 Q3349.97 32.4315 3346.73 32.4315 Q3339.48 32.4315 3335.47 37.0496 Q3331.46 41.6271 3331.46 49.9314 Q3331.46 58.2358 3335.47 62.8538 Q3339.48 67.4314 3346.73 67.4314 Q3349.97 67.4314 3353.13 66.5807 Q3356.33 65.6895 3359.49 63.9476 L3359.49 70.8341 Q3356.37 72.2924 3353.01 73.0216 Q3349.69 73.7508 3345.92 73.7508 Q3335.67 73.7508 3329.64 67.3098 Q3323.6 60.8689 3323.6 49.9314 Q3323.6 38.832 3329.68 32.472 Q3335.79 26.1121 3346.41 26.1121 Q3349.85 26.1121 3353.13 26.8413 Q3356.41 27.5299 3359.49 28.9478 Z" fill="#000000" fill-rule="nonzero" fill-opacity="1" /><path clip-path="url(#clip190)" d="M3367.07 27.2059 L3410.53 27.2059 L3410.53 33.1607 L3392.47 33.1607 L3392.47 72.576 L3385.13 72.576 L3385.13 33.1607 L3367.07 33.1607 L3367.07 27.2059 Z" fill="#000000" fill-rule="nonzero" fill-opacity="1" /><path clip-path="url(#clip190)" d="M3465.06 9.62495 Q3459.63 18.942 3457 28.0566 Q3454.36 37.1711 3454.36 46.5287 Q3454.36 55.8863 3457 65.0818 Q3459.67 74.2369 3465.06 83.5134 L3458.58 83.5134 Q3452.5 73.9938 3449.46 64.7983 Q3446.47 55.6027 3446.47 46.5287 Q3446.47 37.4952 3449.46 28.3401 Q3452.46 19.1851 3458.58 9.62495 L3465.06 9.62495 Z" fill="#000000" fill-rule="nonzero" fill-opacity="1" /><path clip-path="url(#clip190)" d="M3497.51 26.1121 Q3507.23 26.1121 3512.78 32.4315 Q3518.33 38.7509 3518.33 49.9314 Q3518.33 61.0714 3512.78 67.4314 Q3507.23 73.7508 3497.51 73.7508 Q3487.74 73.7508 3482.36 67.5934 Q3476.97 61.436 3476.68 49.9314 L3476.44 40.6549 Q3476.24 35.8343 3476.24 34.1734 Q3476.24 27.692 3478.59 22.9119 Q3482.28 15.4177 3488.64 12.177 Q3495.04 8.93629 3505.73 8.85528 Q3510.67 8.81477 3512.86 8.12611 L3514.93 14.0404 Q3512.94 14.8506 3511.12 14.8911 L3500.99 15.5798 Q3495.89 15.9444 3492.81 17.7268 Q3484.75 22.4663 3483.98 28.6642 L3483.69 30.9327 Q3488.96 26.1121 3497.51 26.1121 M3497.51 32.4315 Q3491.51 32.4315 3488.03 37.1306 Q3484.54 41.7891 3484.54 49.9314 Q3484.54 58.0738 3487.99 62.7728 Q3491.47 67.4314 3497.51 67.4314 Q3503.46 67.4314 3506.95 62.7323 Q3510.43 58.0333 3510.43 49.9314 Q3510.43 41.8701 3506.95 37.1711 Q3503.46 32.4315 3497.51 32.4315 Z" fill="#000000" fill-rule="nonzero" fill-opacity="1" /><path clip-path="url(#clip190)" d="M3551.3 49.7694 Q3542.27 49.7694 3538.79 51.8354 Q3535.3 53.9013 3535.3 58.8839 Q3535.3 62.8538 3537.89 65.2034 Q3540.53 67.5124 3545.02 67.5124 Q3551.22 67.5124 3554.95 63.1374 Q3558.72 58.7219 3558.72 51.4303 L3558.72 49.7694 L3551.3 49.7694 M3566.17 46.6907 L3566.17 72.576 L3558.72 72.576 L3558.72 65.6895 Q3556.16 69.8214 3552.36 71.8063 Q3548.55 73.7508 3543.04 73.7508 Q3536.07 73.7508 3531.94 69.8619 Q3527.85 65.9325 3527.85 59.3701 Q3527.85 51.7138 3532.95 47.825 Q3538.1 43.9361 3548.26 43.9361 L3558.72 43.9361 L3558.72 43.2069 Q3558.72 38.0623 3555.31 35.2672 Q3551.95 32.4315 3545.83 32.4315 Q3541.95 32.4315 3538.26 33.3632 Q3534.57 34.295 3531.17 36.1584 L3531.17 29.2718 Q3535.26 27.692 3539.11 26.9223 Q3542.96 26.1121 3546.6 26.1121 Q3556.45 26.1121 3561.31 31.2163 Q3566.17 36.3204 3566.17 46.6907 Z" fill="#000000" fill-rule="nonzero" fill-opacity="1" /><path clip-path="url(#clip190)" d="M3602.3 48.1085 Q3607.33 49.0808 3610.12 52.0379 Q3612.92 54.9951 3612.92 59.3701 Q3612.92 66.3781 3607.69 70.0644 Q3602.47 73.7508 3592.82 73.7508 Q3589.58 73.7508 3586.14 73.1836 Q3582.74 72.6165 3579.09 71.4823 L3579.09 64.5552 Q3581.97 66.054 3585.41 66.8237 Q3588.85 67.5529 3592.62 67.5529 Q3598.74 67.5529 3602.14 65.2844 Q3605.58 63.0159 3605.58 59.3701 Q3605.58 55.8053 3602.55 53.6583 Q3599.51 51.4708 3593.96 51.4708 L3587.96 51.4708 L3587.96 45.3134 L3594.24 45.3134 Q3598.94 45.3134 3601.66 43.531 Q3604.41 41.7081 3604.41 38.8725 Q3604.41 36.2799 3601.57 34.4165 Q3598.78 32.5531 3593.96 32.5531 Q3591.08 32.5531 3587.8 33.0797 Q3584.56 33.6063 3580.63 34.7811 L3580.63 28.0161 Q3584.6 27.0438 3588.04 26.5577 Q3591.49 26.0716 3594.57 26.0716 Q3602.51 26.0716 3607.08 29.2718 Q3611.7 32.4315 3611.7 38.1433 Q3611.7 41.9107 3609.27 44.5437 Q3606.84 47.1363 3602.3 48.1085 Z" fill="#000000" fill-rule="nonzero" fill-opacity="1" /><path clip-path="url(#clip190)" d="M3643.22 32.4315 Q3637.22 32.4315 3633.74 37.1306 Q3630.25 41.7891 3630.25 49.9314 Q3630.25 58.0738 3633.7 62.7728 Q3637.18 67.4314 3643.22 67.4314 Q3649.17 67.4314 3652.66 62.7323 Q3656.14 58.0333 3656.14 49.9314 Q3656.14 41.8701 3652.66 37.1711 Q3649.17 32.4315 3643.22 32.4315 M3643.22 26.1121 Q3652.94 26.1121 3658.49 32.4315 Q3664.04 38.7509 3664.04 49.9314 Q3664.04 61.0714 3658.49 67.4314 Q3652.94 73.7508 3643.22 73.7508 Q3633.45 73.7508 3627.91 67.4314 Q3622.4 61.0714 3622.4 49.9314 Q3622.4 38.7509 3627.91 32.4315 Q3633.45 26.1121 3643.22 26.1121 Z" fill="#000000" fill-rule="nonzero" fill-opacity="1" /><path clip-path="url(#clip190)" d="M3683.56 51.6733 L3683.56 66.6212 L3694.18 66.6212 Q3699.28 66.6212 3701.96 64.7172 Q3704.63 62.7728 3704.63 59.127 Q3704.63 55.4812 3701.96 53.5773 Q3699.28 51.6733 3694.18 51.6733 L3683.56 51.6733 M3683.56 33.1607 L3683.56 45.7185 L3693.37 45.7185 Q3697.58 45.7185 3700.25 44.0576 Q3702.93 42.3563 3702.93 39.3586 Q3702.93 36.3609 3700.25 34.7811 Q3697.58 33.1607 3693.37 33.1607 L3683.56 33.1607 M3676.11 27.2059 L3693.85 27.2059 Q3701.83 27.2059 3706.13 30.1225 Q3710.42 33.0392 3710.42 38.4269 Q3710.42 42.5993 3708.23 45.0704 Q3706.05 47.5009 3701.75 48.1085 Q3706.9 49.0808 3709.73 52.1594 Q3712.57 55.2381 3712.57 59.8562 Q3712.57 65.9325 3707.87 69.2543 Q3703.21 72.576 3694.54 72.576 L3676.11 72.576 L3676.11 27.2059 Z" fill="#000000" fill-rule="nonzero" fill-opacity="1" /><path clip-path="url(#clip190)" d="M3768.15 27.2059 L3775.6 27.2059 L3775.6 72.576 L3768.15 72.576 L3768.15 27.2059 M3771.87 26.1121 L3771.87 26.1121 M3753.52 59.127 Q3753.52 55.4812 3750.85 53.5773 Q3748.22 51.6733 3743.11 51.6733 L3732.5 51.6733 L3732.5 66.6212 L3743.11 66.6212 Q3748.22 66.6212 3750.85 64.7172 Q3753.52 62.7728 3753.52 59.127 M3725.01 27.2059 L3732.5 27.2059 L3732.5 45.7185 L3743.44 45.7185 Q3752.11 45.7185 3756.76 49.0402 Q3761.46 52.3215 3761.46 59.127 Q3761.46 65.9325 3756.76 69.2543 Q3752.11 72.576 3743.44 72.576 L3725.01 72.576 L3725.01 27.2059 Z" fill="#000000" fill-rule="nonzero" fill-opacity="1" /><path clip-path="url(#clip190)" d="M3829.36 27.2059 L3829.36 72.576 L3821.94 72.576 L3821.94 36.1584 L3800.07 72.576 L3790.51 72.576 L3790.51 27.2059 L3797.92 27.2059 L3797.92 63.5425 L3819.76 27.2059 L3829.36 27.2059 M3797.27 9.54393 L3802.05 9.54393 Q3802.5 12.5821 3804.44 14.1215 Q3806.43 15.6203 3809.95 15.6203 Q3813.44 15.6203 3815.38 14.1215 Q3817.33 12.6226 3817.85 9.54393 L3822.63 9.54393 Q3822.23 15.3367 3819.03 18.2534 Q3815.83 21.17 3809.95 21.17 Q3804.08 21.17 3800.88 18.2534 Q3797.68 15.3367 3797.27 9.54393 Z" fill="#000000" fill-rule="nonzero" fill-opacity="1" /><path clip-path="url(#clip190)" d="M3867.84 63.9476 Q3874.24 67.4314 3880.6 67.4314 Q3886.56 67.4314 3890.81 63.9881 Q3895.06 60.5043 3895.83 51.6733 L3872.82 51.6733 L3872.82 45.7185 L3895.59 45.7185 Q3895.1 41.4651 3891.86 36.9686 Q3888.66 32.4315 3880.6 32.4315 Q3874.36 32.4315 3867.84 35.9153 L3867.84 28.9478 Q3874.2 26.1121 3880.92 26.1121 Q3891.54 26.1121 3897.61 32.5531 Q3903.73 38.9535 3903.73 49.9314 Q3903.73 60.8689 3897.78 67.3098 Q3891.86 73.7508 3881.45 73.7508 Q3873.8 73.7508 3867.84 70.8341 L3867.84 63.9476 Z" fill="#000000" fill-rule="nonzero" fill-opacity="1" /><path clip-path="url(#clip190)" d="M3916.33 27.2059 L3923.74 27.2059 L3923.74 48.5136 L3944.77 27.2059 L3953.92 27.2059 L3936.58 44.7463 L3956.15 72.576 L3947.81 72.576 L3931.72 49.6884 L3923.74 57.7902 L3923.74 72.576 L3916.33 72.576 L3916.33 27.2059 Z" fill="#000000" fill-rule="nonzero" fill-opacity="1" /><path clip-path="url(#clip190)" d="M3999.37 28.9478 L3999.37 35.9153 Q3996.21 34.1734 3993.01 33.3227 Q3989.85 32.4315 3986.61 32.4315 Q3979.36 32.4315 3975.35 37.0496 Q3971.34 41.6271 3971.34 49.9314 Q3971.34 58.2358 3975.35 62.8538 Q3979.36 67.4314 3986.61 67.4314 Q3989.85 67.4314 3993.01 66.5807 Q3996.21 65.6895 3999.37 63.9476 L3999.37 70.8341 Q3996.25 72.2924 3992.89 73.0216 Q3989.57 73.7508 3985.8 73.7508 Q3975.55 73.7508 3969.52 67.3098 Q3963.48 60.8689 3963.48 49.9314 Q3963.48 38.832 3969.56 32.472 Q3975.68 26.1121 3986.29 26.1121 Q3989.73 26.1121 3993.01 26.8413 Q3996.29 27.5299 3999.37 28.9478 Z" fill="#000000" fill-rule="nonzero" fill-opacity="1" /><path clip-path="url(#clip190)" d="M4051.22 27.2059 L4051.22 72.576 L4043.73 72.576 L4043.73 33.1607 L4019.55 33.1607 L4019.55 72.576 L4012.05 72.576 L4012.05 27.2059 L4051.22 27.2059 Z" fill="#000000" fill-rule="nonzero" fill-opacity="1" /><path clip-path="url(#clip190)" d="M4105.39 48.0275 L4105.39 51.6733 L4071.11 51.6733 Q4071.6 59.3701 4075.73 63.421 Q4079.91 67.4314 4087.32 67.4314 Q4091.61 67.4314 4095.62 66.3781 Q4099.67 65.3249 4103.64 63.2184 L4103.64 70.267 Q4099.63 71.9684 4095.42 72.8596 Q4091.21 73.7508 4086.87 73.7508 Q4076.02 73.7508 4069.66 67.4314 Q4063.34 61.1119 4063.34 50.3365 Q4063.34 39.1965 4069.33 32.6746 Q4075.37 26.1121 4085.58 26.1121 Q4094.73 26.1121 4100.04 32.0264 Q4105.39 37.9003 4105.39 48.0275 M4097.93 45.84 Q4097.85 39.7232 4094.49 36.0774 Q4091.17 32.4315 4085.66 32.4315 Q4079.42 32.4315 4075.65 35.9558 Q4071.92 39.4801 4071.36 45.8805 L4097.93 45.84 Z" fill="#000000" fill-rule="nonzero" fill-opacity="1" /><path clip-path="url(#clip190)" d="M4124.83 65.7705 L4124.83 89.8329 L4117.34 89.8329 L4117.34 27.2059 L4124.83 27.2059 L4124.83 34.0924 Q4127.18 30.0415 4130.74 28.0971 Q4134.35 26.1121 4139.33 26.1121 Q4147.6 26.1121 4152.74 32.6746 Q4157.93 39.2371 4157.93 49.9314 Q4157.93 60.6258 4152.74 67.1883 Q4147.6 73.7508 4139.33 73.7508 Q4134.35 73.7508 4130.74 71.8063 Q4127.18 69.8214 4124.83 65.7705 M4150.19 49.9314 Q4150.19 41.7081 4146.79 37.0496 Q4143.42 32.3505 4137.51 32.3505 Q4131.59 32.3505 4128.19 37.0496 Q4124.83 41.7081 4124.83 49.9314 Q4124.83 58.1548 4128.19 62.8538 Q4131.59 67.5124 4137.51 67.5124 Q4143.42 67.5124 4146.79 62.8538 Q4150.19 58.1548 4150.19 49.9314 Z" fill="#000000" fill-rule="nonzero" fill-opacity="1" /><path clip-path="url(#clip190)" d="M4208.85 27.2059 L4208.85 72.576 L4201.43 72.576 L4201.43 36.1584 L4179.56 72.576 L4170 72.576 L4170 27.2059 L4177.41 27.2059 L4177.41 63.5425 L4199.24 27.2059 L4208.85 27.2059 Z" fill="#000000" fill-rule="nonzero" fill-opacity="1" /><path clip-path="url(#clip190)" d="M4223.91 27.2059 L4234.81 27.2059 L4247.69 57.5877 L4260.62 27.2059 L4271.43 27.2059 L4271.43 72.576 L4263.94 72.576 L4263.94 34.3355 L4251.42 63.8666 L4243.97 63.8666 L4231.41 34.3355 L4231.41 72.576 L4223.91 72.576 L4223.91 27.2059 Z" fill="#000000" fill-rule="nonzero" fill-opacity="1" /><path clip-path="url(#clip190)" d="M4325.59 48.0275 L4325.59 51.6733 L4291.32 51.6733 Q4291.81 59.3701 4295.94 63.421 Q4300.11 67.4314 4307.53 67.4314 Q4311.82 67.4314 4315.83 66.3781 Q4319.88 65.3249 4323.85 63.2184 L4323.85 70.267 Q4319.84 71.9684 4315.63 72.8596 Q4311.41 73.7508 4307.08 73.7508 Q4296.22 73.7508 4289.86 67.4314 Q4283.54 61.1119 4283.54 50.3365 Q4283.54 39.1965 4289.54 32.6746 Q4295.58 26.1121 4305.78 26.1121 Q4314.94 26.1121 4320.25 32.0264 Q4325.59 37.9003 4325.59 48.0275 M4318.14 45.84 Q4318.06 39.7232 4314.7 36.0774 Q4311.37 32.4315 4305.86 32.4315 Q4299.63 32.4315 4295.86 35.9558 Q4292.13 39.4801 4291.56 45.8805 L4318.14 45.84 Z" fill="#000000" fill-rule="nonzero" fill-opacity="1" /><path clip-path="url(#clip190)" d="M4337.54 27.2059 L4345.04 27.2059 L4345.04 45.7185 L4369.22 45.7185 L4369.22 27.2059 L4376.71 27.2059 L4376.71 72.576 L4369.22 72.576 L4369.22 51.6733 L4345.04 51.6733 L4345.04 72.576 L4337.54 72.576 L4337.54 27.2059 Z" fill="#000000" fill-rule="nonzero" fill-opacity="1" /><path clip-path="url(#clip190)" d="M4386.68 27.2059 L4430.15 27.2059 L4430.15 33.1607 L4412.08 33.1607 L4412.08 72.576 L4404.75 72.576 L4404.75 33.1607 L4386.68 33.1607 L4386.68 27.2059 Z" fill="#000000" fill-rule="nonzero" fill-opacity="1" /><path clip-path="url(#clip190)" d="M4439.22 9.62495 L4445.7 9.62495 Q4451.78 19.1851 4454.78 28.3401 Q4457.81 37.4952 4457.81 46.5287 Q4457.81 55.6027 4454.78 64.7983 Q4451.78 73.9938 4445.7 83.5134 L4439.22 83.5134 Q4444.61 74.2369 4447.24 65.0818 Q4449.91 55.8863 4449.91 46.5287 Q4449.91 37.1711 4447.24 28.0566 Q4444.61 18.942 4439.22 9.62495 Z" fill="#000000" fill-rule="nonzero" fill-opacity="1" /><polyline clip-path="url(#clip191)" style="stroke:#009af9; stroke-linecap:round; stroke-linejoin:round; stroke-width:8; stroke-opacity:1; fill:none" points="422.359,3891.09 481.877,3885.25 541.396,3879.23 600.914,3873.03 660.433,3866.64 719.951,3860.05 779.469,3853.27 838.988,3846.28 898.506,3839.07 958.025,3831.64 1017.54,3823.99 1077.06,3816.11 1136.58,3807.98 1196.1,3799.61 1255.62,3790.98 1315.14,3782.09 1374.65,3772.93 1434.17,3763.49 1493.69,3753.77 1553.21,3743.74 1612.73,3733.41 1672.25,3722.77 1731.76,3711.8 1791.28,3700.5 1850.8,3688.86 1910.32,3676.86 1969.84,3664.49 2029.36,3651.75 2088.87,3638.62 2148.39,3625.09 2207.91,3611.14 2267.43,3596.78 2326.95,3581.97 2386.47,3566.72 2445.99,3551 2505.5,3534.8 2565.02,3518.11 2624.54,3500.91 2684.06,3483.18 2743.58,3464.92 2803.1,3446.1 2862.61,3426.71 2922.13,3406.72 2981.65,3386.13 3041.17,3364.91 3100.69,3343.05 3160.21,3320.51 3219.72,3297.29 3279.24,3273.37 3338.76,3248.72 3398.28,3223.31 3457.8,3197.14 3517.32,3170.16 3576.83,3142.37 3636.35,3113.72 3695.87,3084.21 3755.39,3053.79 3814.91,3022.45 3874.43,2990.16 3933.95,2956.88 3993.46,2922.58 4052.98,2887.25 4112.5,2850.83 4172.02,2813.31 4231.54,2774.64 4291.06,2734.8 4350.57,2693.75 4410.09,2651.44 4469.61,2607.85 4529.13,2562.93 4588.65,2516.64 4648.17,2468.95 4707.68,2419.8 4767.2,2369.15 4826.72,2316.96 4886.24,2263.18 4945.76,2207.76 5005.28,2150.65 5064.8,2091.81 5124.31,2031.16 5183.83,1968.68 5243.35,1904.29 5302.87,1837.94 5362.39,1769.57 5421.91,1699.11 5481.42,1626.52 5540.94,1551.71 5600.46,1474.63 5659.98,1395.2 5719.5,1313.35 5779.02,1229.01 5838.53,1142.1 5898.05,1052.54 5957.57,960.255 6017.09,865.157 6076.61,767.161 6136.13,666.178 6195.65,562.119 6255.16,454.89 6314.68,344.396 6374.2,230.54 "/>
<path clip-path="url(#clip190)" d="M454.102 353.743 L1255.09 353.743 L1255.09 250.063 L454.102 250.063  Z" fill="#ffffff" fill-rule="evenodd" fill-opacity="1"/>
<polyline clip-path="url(#clip190)" style="stroke:#000000; stroke-linecap:round; stroke-linejoin:round; stroke-width:4; stroke-opacity:1; fill:none" points="454.102,353.743 1255.09,353.743 1255.09,250.063 454.102,250.063 454.102,353.743 "/>
<polyline clip-path="url(#clip190)" style="stroke:#009af9; stroke-linecap:round; stroke-linejoin:round; stroke-width:8; stroke-opacity:1; fill:none" points="524.201,301.903 944.798,301.903 "/>
<path clip-path="url(#clip190)" d="M1031.87 307.123 L1030.85 301.775 Q1029.81 296.289 1025.68 296.289 Q1022.58 296.289 1021.17 298.836 Q1019.39 302.03 1019.39 306.243 Q1019.39 311.335 1021.12 313.766 Q1022.88 316.243 1025.68 316.243 Q1028.79 316.243 1030.45 311.312 L1031.87 307.123 M1034.25 300.039 L1036.54 293.257 L1040.34 293.257 L1035.59 307.308 L1036.52 312.377 Q1036.73 313.511 1037.54 314.46 Q1038.49 315.572 1039.23 315.572 L1041.26 315.572 L1041.26 319.183 L1038.72 319.183 Q1036.54 319.183 1034.6 317.238 Q1033.65 316.266 1033.25 314.229 Q1032.19 316.798 1030.01 318.812 Q1028.99 319.761 1025.68 319.761 Q1020.24 319.761 1017.61 316.243 Q1014.9 312.609 1014.9 306.243 Q1014.9 299.437 1017.84 296.243 Q1021.1 292.678 1025.68 292.678 Q1032.88 292.678 1034.25 300.039 Z" fill="#000000" fill-rule="nonzero" fill-opacity="1" /><path clip-path="url(#clip190)" d="M1063.62 297.655 L1093.3 297.655 L1093.3 301.544 L1063.62 301.544 L1063.62 297.655 M1063.62 307.099 L1093.3 307.099 L1093.3 311.035 L1063.62 311.035 L1063.62 307.099 Z" fill="#000000" fill-rule="nonzero" fill-opacity="1" /><path clip-path="url(#clip190)" d="M1128.46 287.701 Q1124.85 287.701 1123.02 291.266 Q1121.22 294.808 1121.22 301.937 Q1121.22 309.044 1123.02 312.609 Q1124.85 316.15 1128.46 316.15 Q1132.1 316.15 1133.9 312.609 Q1135.73 309.044 1135.73 301.937 Q1135.73 294.808 1133.9 291.266 Q1132.1 287.701 1128.46 287.701 M1128.46 283.998 Q1134.27 283.998 1137.33 288.604 Q1140.41 293.187 1140.41 301.937 Q1140.41 310.664 1137.33 315.271 Q1134.27 319.854 1128.46 319.854 Q1122.65 319.854 1119.57 315.271 Q1116.52 310.664 1116.52 301.937 Q1116.52 293.187 1119.57 288.604 Q1122.65 283.998 1128.46 283.998 Z" fill="#000000" fill-rule="nonzero" fill-opacity="1" /><path clip-path="url(#clip190)" d="M1148.62 313.303 L1153.51 313.303 L1153.51 319.183 L1148.62 319.183 L1148.62 313.303 Z" fill="#000000" fill-rule="nonzero" fill-opacity="1" /><path clip-path="url(#clip190)" d="M1177.86 300.548 Q1181.22 301.266 1183.09 303.535 Q1184.99 305.803 1184.99 309.136 Q1184.99 314.252 1181.47 317.053 Q1177.95 319.854 1171.47 319.854 Q1169.3 319.854 1166.98 319.414 Q1164.69 318.997 1162.23 318.141 L1162.23 313.627 Q1164.18 314.761 1166.49 315.34 Q1168.81 315.919 1171.33 315.919 Q1175.73 315.919 1178.02 314.183 Q1180.34 312.447 1180.34 309.136 Q1180.34 306.081 1178.18 304.368 Q1176.05 302.632 1172.23 302.632 L1168.21 302.632 L1168.21 298.789 L1172.42 298.789 Q1175.87 298.789 1177.7 297.423 Q1179.53 296.035 1179.53 293.442 Q1179.53 290.78 1177.63 289.368 Q1175.75 287.933 1172.23 287.933 Q1170.31 287.933 1168.11 288.349 Q1165.92 288.766 1163.28 289.646 L1163.28 285.479 Q1165.94 284.738 1168.25 284.368 Q1170.59 283.998 1172.65 283.998 Q1177.98 283.998 1181.08 286.428 Q1184.18 288.836 1184.18 292.956 Q1184.18 295.826 1182.54 297.817 Q1180.89 299.785 1177.86 300.548 Z" fill="#000000" fill-rule="nonzero" fill-opacity="1" /></svg>
